	.include "MPlayDef.s"

	.equ	DiscoDescent_grp, voicegroup000
	.equ	DiscoDescent_pri, 0
	.equ	DiscoDescent_rev, 0
	.equ	DiscoDescent_mvl, 127
	.equ	DiscoDescent_key, 0
	.equ	DiscoDescent_tbs, 1
	.equ	DiscoDescent_exg, 0
	.equ	DiscoDescent_cmp, 1

	.section .rodata
	.global	DiscoDescent
	.align	2


@**************** Track 1 (Midi-Chn.0) ****************@

DiscoDescent_001:
@  #01 @000   ----------------------------------------
 .byte   KEYSH , DiscoDescent_key+0
 .byte   TEMPO , 114*DiscoDescent_tbs/2
 .byte   VOICE , 7
 .byte   VOL , 37*DiscoDescent_mvl/mxv
 .byte   N06 ,An0 ,v127
 .byte   W06
 .byte   N06
 .byte   W30
 .byte   N06
 .byte   W06
 .byte   N06
 .byte   W30
 .byte   Cn1
 .byte   W06
 .byte   N06
 .byte   W18
@  #01 @001   ----------------------------------------
 .byte   An0
 .byte   W06
 .byte   N06
 .byte   W30
 .byte   N06
 .byte   W06
 .byte   N06
 .byte   W30
 .byte   N06
 .byte   W06
 .byte   N06
 .byte   W18
@  #01 @002   ----------------------------------------
 .byte   N06
 .byte   W06
 .byte   N06
 .byte   W30
 .byte   N06
 .byte   W06
 .byte   N06
 .byte   W30
 .byte   Cn1
 .byte   W06
 .byte   N06
 .byte   W18
@  #01 @003   ----------------------------------------
 .byte   An0
 .byte   W06
 .byte   N06
 .byte   W30
 .byte   N06
 .byte   W06
 .byte   N06
 .byte   W54
@  #01 @004   ----------------------------------------
Label_CF6EE6:
 .byte   N24 ,An0 ,v127
 .byte   W12
 .byte   An1
 .byte   W12
 .byte   An0
 .byte   W12
 .byte   An1
 .byte   W12
 .byte   An0
 .byte   W12
 .byte   An1
 .byte   W12
 .byte   An0
 .byte   W12
 .byte   N12 ,An1
 .byte   W12
 .byte   PEND 
@  #01 @005   ----------------------------------------
Label_CF6EFA:
 .byte   N24 ,Gn0 ,v127
 .byte   W12
 .byte   Gn1
 .byte   W12
 .byte   Gn0
 .byte   W12
 .byte   Gn1
 .byte   W12
 .byte   Gn0
 .byte   W12
 .byte   Gn1
 .byte   W12
 .byte   Gn0
 .byte   W12
 .byte   N12 ,Gn1
 .byte   W12
 .byte   PEND 
@  #01 @006   ----------------------------------------
Label_CF6F0E:
 .byte   N24 ,Fn0 ,v127
 .byte   W12
 .byte   Fn1
 .byte   W12
 .byte   Fn0
 .byte   W12
 .byte   Fn1
 .byte   W12
 .byte   Fn0
 .byte   W12
 .byte   Fn1
 .byte   W12
 .byte   Fn0
 .byte   W12
 .byte   N12 ,Fn1
 .byte   W12
 .byte   PEND 
@  #01 @007   ----------------------------------------
Label_CF6F22:
 .byte   N24 ,Dn0 ,v127
 .byte   W12
 .byte   Dn1
 .byte   W12
 .byte   Dn0
 .byte   W12
 .byte   N12 ,Dn1
 .byte   W12
 .byte   N24 ,En0
 .byte   W12
 .byte   En1
 .byte   W12
 .byte   En0
 .byte   W12
 .byte   N12 ,En1
 .byte   W12
 .byte   PEND 
@  #01 @008   ----------------------------------------
 .byte   PATT
  .word Label_CF6EE6
@  #01 @009   ----------------------------------------
 .byte   PATT
  .word Label_CF6EFA
@  #01 @010   ----------------------------------------
 .byte   PATT
  .word Label_CF6F0E
@  #01 @011   ----------------------------------------
 .byte   PATT
  .word Label_CF6F22
@  #01 @012   ----------------------------------------
Label_CF6F4C:
 .byte   N24 ,An0 ,v127
 .byte   W12
 .byte   An1
 .byte   W12
 .byte   An0
 .byte   W12
 .byte   An1
 .byte   W12
 .byte   An0
 .byte   W12
 .byte   An1
 .byte   W12
 .byte   An0
 .byte   W12
 .byte   An1
 .byte   W12
 .byte   PEND 
@  #01 @013   ----------------------------------------
 .byte   PATT
  .word Label_CF6F4C
@  #01 @014   ----------------------------------------
 .byte   PATT
  .word Label_CF6F4C
@  #01 @015   ----------------------------------------
 .byte   PATT
  .word Label_CF6F4C
@  #01 @016   ----------------------------------------
 .byte   PATT
  .word Label_CF6EE6
@  #01 @017   ----------------------------------------
 .byte   PATT
  .word Label_CF6EFA
@  #01 @018   ----------------------------------------
 .byte   PATT
  .word Label_CF6F0E
@  #01 @019   ----------------------------------------
 .byte   PATT
  .word Label_CF6F22
@  #01 @020   ----------------------------------------
 .byte   PATT
  .word Label_CF6EE6
@  #01 @021   ----------------------------------------
 .byte   PATT
  .word Label_CF6EFA
@  #01 @022   ----------------------------------------
 .byte   PATT
  .word Label_CF6F0E
@  #01 @023   ----------------------------------------
 .byte   PATT
  .word Label_CF6F22
@  #01 @024   ----------------------------------------
Label_CF6F96:
 .byte   N24 ,Cn1 ,v127
 .byte   W12
 .byte   Cn2
 .byte   W12
 .byte   Cn1
 .byte   W12
 .byte   Cn2
 .byte   W12
 .byte   Cn1
 .byte   W12
 .byte   Cn2
 .byte   W12
 .byte   Cn1
 .byte   W12
 .byte   N12 ,Cn2
 .byte   W12
 .byte   PEND 
@  #01 @025   ----------------------------------------
Label_CF6FAA:
 .byte   N24 ,An0 ,v127
 .byte   W12
 .byte   An1
 .byte   W12
 .byte   An0
 .byte   W12
 .byte   An1
 .byte   W12
 .byte   N12 ,An0
 .byte   W12
 .byte   En2
 .byte   W12
 .byte   N12
 .byte   W12
 .byte   Dn2
 .byte   W12
 .byte   PEND 
@  #01 @026   ----------------------------------------
 .byte   PATT
  .word Label_CF6F0E
@  #01 @027   ----------------------------------------
Label_CF6FC3:
 .byte   N24 ,Cn0 ,v127
 .byte   W12
 .byte   Cn1
 .byte   W12
 .byte   Cn0
 .byte   W12
 .byte   Cn1
 .byte   W12
 .byte   N12 ,Cn0
 .byte   W12
 .byte   Bn1
 .byte   W12
 .byte   Cn2
 .byte   W12
 .byte   Bn1
 .byte   W12
 .byte   PEND 
@  #01 @028   ----------------------------------------
 .byte   PATT
  .word Label_CF6F4C
@  #01 @029   ----------------------------------------
 .byte   PATT
  .word Label_CF6F4C
@  #01 @030   ----------------------------------------
 .byte   PATT
  .word Label_CF6F4C
@  #01 @031   ----------------------------------------
 .byte   PATT
  .word Label_CF6F4C
@  #01 @032   ----------------------------------------
 .byte   PATT
  .word Label_CF6EE6
@  #01 @033   ----------------------------------------
 .byte   PATT
  .word Label_CF6F0E
@  #01 @034   ----------------------------------------
 .byte   PATT
  .word Label_CF6EE6
@  #01 @035   ----------------------------------------
 .byte   N24 ,Ds0 ,v127
 .byte   W12
 .byte   Ds1
 .byte   W12
 .byte   Ds0
 .byte   W12
 .byte   Ds1
 .byte   W12
 .byte   Ds0
 .byte   W12
 .byte   Ds1
 .byte   W12
 .byte   Ds0
 .byte   W12
 .byte   N12 ,Ds1
 .byte   W12
@  #01 @036   ----------------------------------------
 .byte   PATT
  .word Label_CF6EE6
@  #01 @037   ----------------------------------------
 .byte   PATT
  .word Label_CF6F0E
@  #01 @038   ----------------------------------------
 .byte   PATT
  .word Label_CF6EE6
@  #01 @039   ----------------------------------------
 .byte   N24 ,Ds0 ,v127
 .byte   W12
 .byte   Ds1
 .byte   W12
 .byte   Ds0
 .byte   W12
 .byte   N12 ,Ds1
 .byte   W12
 .byte   N24 ,Fn0
 .byte   W12
 .byte   Fn1
 .byte   W12
 .byte   Fn0
 .byte   W12
 .byte   N12 ,Fn1
 .byte   W12
@  #01 @040   ----------------------------------------
 .byte   PATT
  .word Label_CF6EE6
@  #01 @041   ----------------------------------------
 .byte   N24 ,Cn1 ,v127
 .byte   W12
 .byte   Cn2
 .byte   W12
 .byte   Cn1
 .byte   W12
 .byte   N12 ,Cn2
 .byte   W12
 .byte   N24 ,Dn1
 .byte   W12
 .byte   Dn2
 .byte   W12
 .byte   Dn1
 .byte   W12
 .byte   N12 ,Dn2
 .byte   W12
@  #01 @042   ----------------------------------------
 .byte   PATT
  .word Label_CF6EE6
@  #01 @043   ----------------------------------------
 .byte   N24 ,En1 ,v127
 .byte   W12
 .byte   En2
 .byte   W12
 .byte   En1
 .byte   W12
 .byte   N12 ,En2
 .byte   W12
 .byte   N24 ,Dn1
 .byte   W12
 .byte   Dn2
 .byte   W12
 .byte   Dn1
 .byte   W12
 .byte   N12 ,Dn2
 .byte   W12
@  #01 @044   ----------------------------------------
 .byte   N24 ,Cn1
 .byte   W12
 .byte   Cn2
 .byte   W12
 .byte   Cn1
 .byte   W12
 .byte   N12 ,Cn2
 .byte   W12
 .byte   N24 ,Bn0
 .byte   W12
 .byte   Bn1
 .byte   W12
 .byte   Bn0
 .byte   W12
 .byte   N12 ,Bn1
 .byte   W12
@  #01 @045   ----------------------------------------
 .byte   PATT
  .word Label_CF6F0E
@  #01 @046   ----------------------------------------
 .byte   N24 ,An0 ,v127
 .byte   W12
 .byte   An1
 .byte   W12
 .byte   An0
 .byte   W12
 .byte   N12 ,An1
 .byte   W12
 .byte   N24 ,Ds0
 .byte   W12
 .byte   Ds1
 .byte   W12
 .byte   Ds0
 .byte   W12
 .byte   Ds1
 .byte   W12
@  #01 @047   ----------------------------------------
 .byte   Ds0
 .byte   W12
 .byte   Ds1
 .byte   W12
 .byte   Ds0
 .byte   W12
 .byte   N12 ,Ds1
 .byte   W12
 .byte   N24 ,An0
 .byte   W12
 .byte   An1
 .byte   W12
 .byte   An0
 .byte   W12
 .byte   N12 ,An1
 .byte   W12
@  #01 @048   ----------------------------------------
 .byte   PATT
  .word Label_CF6F96
@  #01 @049   ----------------------------------------
 .byte   N24 ,An0 ,v127
 .byte   W12
 .byte   An1
 .byte   W12
 .byte   An0
 .byte   W12
 .byte   N12 ,An1
 .byte   W12
 .byte   N24 ,En0
 .byte   W12
 .byte   En1
 .byte   W12
 .byte   En0
 .byte   W12
 .byte   En1
 .byte   W12
@  #01 @050   ----------------------------------------
 .byte   En0
 .byte   W12
 .byte   En1
 .byte   W12
 .byte   En0
 .byte   W12
 .byte   N12 ,En1
 .byte   W12
 .byte   N24 ,Fn0
 .byte   W12
 .byte   Fn1
 .byte   W12
 .byte   Fn0
 .byte   W12
 .byte   N12 ,Fn1
 .byte   W12
@  #01 @051   ----------------------------------------
 .byte   PATT
  .word Label_CF6F4C
@  #01 @052   ----------------------------------------
 .byte   PATT
  .word Label_CF6F4C
@  #01 @053   ----------------------------------------
 .byte   PATT
  .word Label_CF6F4C
@  #01 @054   ----------------------------------------
 .byte   PATT
  .word Label_CF6F4C
@  #01 @055   ----------------------------------------
 .byte   PATT
  .word Label_CF6F4C
@  #01 @056   ----------------------------------------
 .byte   PATT
  .word Label_CF6EE6
@  #01 @057   ----------------------------------------
 .byte   PATT
  .word Label_CF6EFA
@  #01 @058   ----------------------------------------
 .byte   PATT
  .word Label_CF6F0E
@  #01 @059   ----------------------------------------
Label_CF70F9:
 .byte   N24 ,En0 ,v127
 .byte   W12
 .byte   En1
 .byte   W12
 .byte   En0
 .byte   W12
 .byte   En1
 .byte   W12
 .byte   En0
 .byte   W12
 .byte   En1
 .byte   W12
 .byte   En0
 .byte   W12
 .byte   N12 ,En1
 .byte   W12
 .byte   PEND 
@  #01 @060   ----------------------------------------
 .byte   PATT
  .word Label_CF6EE6
@  #01 @061   ----------------------------------------
 .byte   PATT
  .word Label_CF6EFA
@  #01 @062   ----------------------------------------
 .byte   PATT
  .word Label_CF6F0E
@  #01 @063   ----------------------------------------
 .byte   PATT
  .word Label_CF70F9
@  #01 @064   ----------------------------------------
 .byte   PATT
  .word Label_CF6F96
@  #01 @065   ----------------------------------------
 .byte   PATT
  .word Label_CF6FAA
@  #01 @066   ----------------------------------------
 .byte   PATT
  .word Label_CF6F0E
@  #01 @067   ----------------------------------------
 .byte   PATT
  .word Label_CF6FC3
@  #01 @068   ----------------------------------------
 .byte   PATT
  .word Label_CF6F4C
@  #01 @069   ----------------------------------------
 .byte   PATT
  .word Label_CF6F4C
@  #01 @070   ----------------------------------------
 .byte   PATT
  .word Label_CF6F4C
@  #01 @071   ----------------------------------------
 .byte   PATT
  .word Label_CF6EE6
@  #01 @072   ----------------------------------------
 .byte   W12
 .byte   N12 ,An2 ,v127
 .byte   W24
 .byte   N12
 .byte   W24
 .byte   N12
 .byte   W24
 .byte   N12
 .byte   W12
@  #01 @073   ----------------------------------------
 .byte   W12
 .byte   Gs2
 .byte   W24
 .byte   N12
 .byte   W24
 .byte   N12
 .byte   W24
 .byte   N12
 .byte   W12
@  #01 @074   ----------------------------------------
 .byte   W12
 .byte   Fn2
 .byte   W24
 .byte   N12
 .byte   W24
 .byte   N12
 .byte   W24
 .byte   N12
 .byte   W12
@  #01 @075   ----------------------------------------
 .byte   W12
 .byte   En2
 .byte   W24
 .byte   N12
 .byte   W24
 .byte   Dn2
 .byte   W24
 .byte   N12
 .byte   W12
@  #01 @076   ----------------------------------------
 .byte   W12
 .byte   Cn2
 .byte   W24
 .byte   N12
 .byte   W24
 .byte   N12
 .byte   W24
 .byte   N12
 .byte   W12
@  #01 @077   ----------------------------------------
 .byte   W12
 .byte   Bn1
 .byte   W24
 .byte   N12
 .byte   W24
 .byte   N12
 .byte   W24
 .byte   N12
 .byte   W12
@  #01 @078   ----------------------------------------
 .byte   W12
 .byte   An1
 .byte   W24
 .byte   N12
 .byte   W24
 .byte   N12
 .byte   W24
 .byte   N12
 .byte   W12
@  #01 @079   ----------------------------------------
 .byte   W12
 .byte   Gs1
 .byte   W24
 .byte   N12
 .byte   W24
 .byte   Fn1
 .byte   W24
 .byte   N12
 .byte   W12
@  #01 @080   ----------------------------------------
 .byte   W12
 .byte   En1
 .byte   W24
 .byte   N12
 .byte   W24
 .byte   N12
 .byte   W24
 .byte   N12
 .byte   W12
@  #01 @081   ----------------------------------------
 .byte   W12
 .byte   Dn1
 .byte   W24
 .byte   N12
 .byte   W24
 .byte   N12
 .byte   W24
 .byte   N12
 .byte   W12
@  #01 @082   ----------------------------------------
 .byte   W12
 .byte   Cn1
 .byte   W24
 .byte   N12
 .byte   W24
 .byte   N12
 .byte   W24
 .byte   N12
 .byte   W12
@  #01 @083   ----------------------------------------
 .byte   W12
 .byte   Bn0
 .byte   W24
 .byte   N12
 .byte   W24
 .byte   N12
 .byte   W24
 .byte   An0
 .byte   W12
@  #01 @084   ----------------------------------------
 .byte   GOTO
  .word Label_CF6EE6
 .byte   FINE

@**************** Track 2 (Midi-Chn.1) ****************@

DiscoDescent_002:
@  #02 @000   ----------------------------------------
 .byte   KEYSH , DiscoDescent_key+0
 .byte   VOICE , 57
 .byte   VOL , 42*DiscoDescent_mvl/mxv
 .byte   N06 ,En2 ,v127
 .byte   W06
 .byte   N06
 .byte   W30
 .byte   N06
 .byte   W06
 .byte   N06
 .byte   W30
 .byte   Gn2
 .byte   W06
 .byte   N06
 .byte   W18
@  #02 @001   ----------------------------------------
 .byte   En2
 .byte   W06
 .byte   N06
 .byte   W30
 .byte   N06
 .byte   W06
 .byte   N06
 .byte   W30
 .byte   N06
 .byte   W06
 .byte   N06
 .byte   W18
@  #02 @002   ----------------------------------------
 .byte   N06
 .byte   W06
 .byte   N06
 .byte   W30
 .byte   N06
 .byte   W06
 .byte   N06
 .byte   W30
 .byte   Gn2
 .byte   W06
 .byte   N06
 .byte   W18
@  #02 @003   ----------------------------------------
 .byte   En2
 .byte   W06
 .byte   N06
 .byte   W30
 .byte   N06
 .byte   W06
 .byte   N06
 .byte   W54
@  #02 @004   ----------------------------------------
Label_CF69D0:
 .byte   W96
@  #02 @005   ----------------------------------------
 .byte   W96
@  #02 @006   ----------------------------------------
 .byte   W96
@  #02 @007   ----------------------------------------
 .byte   W96
@  #02 @008   ----------------------------------------
 .byte   W96
@  #02 @009   ----------------------------------------
 .byte   W96
@  #02 @010   ----------------------------------------
 .byte   W96
@  #02 @011   ----------------------------------------
 .byte   W96
@  #02 @012   ----------------------------------------
 .byte   W96
@  #02 @013   ----------------------------------------
 .byte   W96
@  #02 @014   ----------------------------------------
 .byte   W96
@  #02 @015   ----------------------------------------
 .byte   W96
@  #02 @016   ----------------------------------------
 .byte   W96
@  #02 @017   ----------------------------------------
 .byte   W96
@  #02 @018   ----------------------------------------
 .byte   W96
@  #02 @019   ----------------------------------------
 .byte   W96
@  #02 @020   ----------------------------------------
 .byte   W96
@  #02 @021   ----------------------------------------
 .byte   W96
@  #02 @022   ----------------------------------------
 .byte   W96
@  #02 @023   ----------------------------------------
 .byte   W96
@  #02 @024   ----------------------------------------
 .byte   W96
@  #02 @025   ----------------------------------------
 .byte   W96
@  #02 @026   ----------------------------------------
 .byte   W96
@  #02 @027   ----------------------------------------
 .byte   W96
@  #02 @028   ----------------------------------------
 .byte   W96
@  #02 @029   ----------------------------------------
 .byte   W96
@  #02 @030   ----------------------------------------
 .byte   W96
@  #02 @031   ----------------------------------------
 .byte   W96
@  #02 @032   ----------------------------------------
 .byte   W96
@  #02 @033   ----------------------------------------
 .byte   W96
@  #02 @034   ----------------------------------------
 .byte   W96
@  #02 @035   ----------------------------------------
 .byte   W96
@  #02 @036   ----------------------------------------
 .byte   W96
@  #02 @037   ----------------------------------------
 .byte   W96
@  #02 @038   ----------------------------------------
 .byte   W96
@  #02 @039   ----------------------------------------
 .byte   W96
@  #02 @040   ----------------------------------------
 .byte   W96
@  #02 @041   ----------------------------------------
 .byte   W96
@  #02 @042   ----------------------------------------
 .byte   W96
@  #02 @043   ----------------------------------------
 .byte   W96
@  #02 @044   ----------------------------------------
 .byte   W96
@  #02 @045   ----------------------------------------
 .byte   W96
@  #02 @046   ----------------------------------------
 .byte   W96
@  #02 @047   ----------------------------------------
 .byte   W96
@  #02 @048   ----------------------------------------
 .byte   W96
@  #02 @049   ----------------------------------------
 .byte   W96
@  #02 @050   ----------------------------------------
 .byte   W96
@  #02 @051   ----------------------------------------
 .byte   W96
@  #02 @052   ----------------------------------------
 .byte   W96
@  #02 @053   ----------------------------------------
 .byte   W96
@  #02 @054   ----------------------------------------
 .byte   W96
@  #02 @055   ----------------------------------------
 .byte   W96
@  #02 @056   ----------------------------------------
 .byte   W96
@  #02 @057   ----------------------------------------
 .byte   W96
@  #02 @058   ----------------------------------------
 .byte   W96
@  #02 @059   ----------------------------------------
 .byte   W96
@  #02 @060   ----------------------------------------
 .byte   W96
@  #02 @061   ----------------------------------------
 .byte   W96
@  #02 @062   ----------------------------------------
 .byte   W96
@  #02 @063   ----------------------------------------
 .byte   W96
@  #02 @064   ----------------------------------------
 .byte   W96
@  #02 @065   ----------------------------------------
 .byte   W96
@  #02 @066   ----------------------------------------
 .byte   W96
@  #02 @067   ----------------------------------------
 .byte   W96
@  #02 @068   ----------------------------------------
Label_CF6A10:
 .byte   W12
 .byte   N12 ,An2 ,v127
 .byte   W24
 .byte   N12
 .byte   W24
 .byte   N12
 .byte   W24
 .byte   N12
 .byte   W12
 .byte   PEND 
@  #02 @069   ----------------------------------------
 .byte   PATT
  .word Label_CF6A10
@  #02 @070   ----------------------------------------
 .byte   PATT
  .word Label_CF6A10
@  #02 @071   ----------------------------------------
 .byte   PATT
  .word Label_CF6A10
@  #02 @072   ----------------------------------------
 .byte   W96
@  #02 @073   ----------------------------------------
 .byte   W96
@  #02 @074   ----------------------------------------
 .byte   W96
@  #02 @075   ----------------------------------------
 .byte   W96
@  #02 @076   ----------------------------------------
 .byte   W96
@  #02 @077   ----------------------------------------
 .byte   W96
@  #02 @078   ----------------------------------------
 .byte   W96
@  #02 @079   ----------------------------------------
 .byte   W96
@  #02 @080   ----------------------------------------
 .byte   W96
@  #02 @081   ----------------------------------------
 .byte   W96
@  #02 @082   ----------------------------------------
 .byte   W96
@  #02 @083   ----------------------------------------
 .byte   W96
@  #02 @084   ----------------------------------------
 .byte   GOTO
  .word Label_CF69D0
 .byte   FINE

@**************** Track 3 (Midi-Chn.2) ****************@

DiscoDescent_003:
@  #03 @000   ----------------------------------------
 .byte   KEYSH , DiscoDescent_key+0
 .byte   VOICE , 81
 .byte   VOL , 37*DiscoDescent_mvl/mxv
 .byte   W96
@  #03 @001   ----------------------------------------
 .byte   W96
@  #03 @002   ----------------------------------------
 .byte   W96
@  #03 @003   ----------------------------------------
 .byte   W96
@  #03 @004   ----------------------------------------
Label_CF6A4A:
 .byte   W12
 .byte   N12 ,Cn3 ,v127
 .byte   W24
 .byte   N12
 .byte   W24
 .byte   N12
 .byte   W24
 .byte   N12
 .byte   W12
 .byte   PEND 
@  #03 @005   ----------------------------------------
 .byte   W12
 .byte   N12
 .byte   W24
 .byte   N12
 .byte   W24
 .byte   Bn2
 .byte   W24
 .byte   N12
 .byte   W12
@  #03 @006   ----------------------------------------
Label_CF6A5F:
 .byte   W12
 .byte   N12 ,An2 ,v127
 .byte   W24
 .byte   N12
 .byte   W24
 .byte   N12
 .byte   W24
 .byte   N12
 .byte   W12
 .byte   PEND 
@  #03 @007   ----------------------------------------
 .byte   W12
 .byte   N12
 .byte   W24
 .byte   N12
 .byte   W24
 .byte   Gs2
 .byte   W24
 .byte   N12
 .byte   W12
@  #03 @008   ----------------------------------------
Label_CF6A74:
 .byte   W12
 .byte   N12 ,Cn3 ,v127
 .byte   N12 ,En3
 .byte   W24
 .byte   Cn3
 .byte   N12 ,En3
 .byte   W24
 .byte   Cn3
 .byte   N12 ,En3
 .byte   W24
 .byte   Cn3
 .byte   N12 ,En3
 .byte   W12
 .byte   PEND 
@  #03 @009   ----------------------------------------
 .byte   PATT
  .word Label_CF6A74
@  #03 @010   ----------------------------------------
 .byte   W12
 .byte   N12 ,Cn3 ,v127
 .byte   N12 ,Fn3
 .byte   W24
 .byte   Cn3
 .byte   N12 ,Fn3
 .byte   W24
 .byte   Cn3
 .byte   N12 ,Fn3
 .byte   W24
 .byte   Cn3
 .byte   N12 ,Fn3
 .byte   W12
@  #03 @011   ----------------------------------------
 .byte   W12
 .byte   Cn3
 .byte   N12 ,En3
 .byte   W24
 .byte   Cn3
 .byte   N12 ,En3
 .byte   W24
 .byte   N12
 .byte   N12 ,Gs3
 .byte   W24
 .byte   En3
 .byte   N12 ,Gs3
 .byte   W12
@  #03 @012   ----------------------------------------
 .byte   W96
@  #03 @013   ----------------------------------------
 .byte   W96
@  #03 @014   ----------------------------------------
 .byte   W96
@  #03 @015   ----------------------------------------
 .byte   W96
@  #03 @016   ----------------------------------------
 .byte   W36
 .byte   An2
 .byte   W24
 .byte   N12
 .byte   W24
 .byte   N12
 .byte   W12
@  #03 @017   ----------------------------------------
 .byte   W12
 .byte   Gn2
 .byte   W24
 .byte   N12
 .byte   W24
 .byte   N12
 .byte   W24
 .byte   N12
 .byte   W12
@  #03 @018   ----------------------------------------
 .byte   W24
 .byte   N24 ,Fn2
 .byte   W24
 .byte   An2
 .byte   W24
 .byte   En3
 .byte   W24
@  #03 @019   ----------------------------------------
 .byte   W24
 .byte   En2
 .byte   W24
 .byte   Gs2
 .byte   W24
 .byte   N12 ,En3
 .byte   W12
 .byte   N06
 .byte   W06
 .byte   N06
 .byte   W06
@  #03 @020   ----------------------------------------
 .byte   W12
 .byte   N12 ,An2
 .byte   W24
 .byte   N06
 .byte   W06
 .byte   Bn2
 .byte   W06
 .byte   N36 ,Cn3
 .byte   W36
 .byte   N06 ,Bn2
 .byte   W06
 .byte   Cn3
 .byte   W06
@  #03 @021   ----------------------------------------
 .byte   N36 ,Dn3
 .byte   W36
 .byte   N06 ,Cn3
 .byte   W06
 .byte   Dn3
 .byte   W06
 .byte   N24 ,En3
 .byte   W24
 .byte   Fn3
 .byte   W24
@  #03 @022   ----------------------------------------
 .byte   N48 ,Cn3
 .byte   W48
 .byte   N36 ,An2
 .byte   W36
 .byte   N06 ,Gn2
 .byte   W06
 .byte   An2
 .byte   W06
@  #03 @023   ----------------------------------------
 .byte   N48 ,Bn2
 .byte   W48
 .byte   N30 ,Gs2
 .byte   W30
 .byte   N06 ,An2
 .byte   W06
 .byte   Bn2
 .byte   W06
 .byte   Dn3
 .byte   W06
@  #03 @024   ----------------------------------------
 .byte   N48 ,En3
 .byte   W48
 .byte   Dn3
 .byte   W48
@  #03 @025   ----------------------------------------
 .byte   Cn3
 .byte   W48
 .byte   Bn2
 .byte   W48
@  #03 @026   ----------------------------------------
 .byte   N24 ,An2
 .byte   W24
 .byte   Bn2
 .byte   W24
 .byte   Cn3
 .byte   W24
 .byte   Fn3
 .byte   W24
@  #03 @027   ----------------------------------------
 .byte   N36 ,Dn3
 .byte   W36
 .byte   N06
 .byte   W06
 .byte   Ds3
 .byte   W06
 .byte   N48 ,En3
 .byte   W48
@  #03 @028   ----------------------------------------
 .byte   W96
@  #03 @029   ----------------------------------------
 .byte   W96
@  #03 @030   ----------------------------------------
 .byte   W96
@  #03 @031   ----------------------------------------
 .byte   W96
@  #03 @032   ----------------------------------------
 .byte   W96
@  #03 @033   ----------------------------------------
 .byte   W96
@  #03 @034   ----------------------------------------
 .byte   W96
@  #03 @035   ----------------------------------------
 .byte   W96
@  #03 @036   ----------------------------------------
 .byte   W96
@  #03 @037   ----------------------------------------
 .byte   W96
@  #03 @038   ----------------------------------------
 .byte   W96
@  #03 @039   ----------------------------------------
 .byte   W96
@  #03 @040   ----------------------------------------
 .byte   W96
@  #03 @041   ----------------------------------------
 .byte   W96
@  #03 @042   ----------------------------------------
 .byte   W96
@  #03 @043   ----------------------------------------
 .byte   W96
@  #03 @044   ----------------------------------------
 .byte   W96
@  #03 @045   ----------------------------------------
 .byte   W96
@  #03 @046   ----------------------------------------
 .byte   W96
@  #03 @047   ----------------------------------------
 .byte   W96
@  #03 @048   ----------------------------------------
 .byte   W96
@  #03 @049   ----------------------------------------
 .byte   W96
@  #03 @050   ----------------------------------------
 .byte   W96
@  #03 @051   ----------------------------------------
 .byte   W96
@  #03 @052   ----------------------------------------
 .byte   W96
@  #03 @053   ----------------------------------------
 .byte   W96
@  #03 @054   ----------------------------------------
 .byte   W96
@  #03 @055   ----------------------------------------
 .byte   W96
@  #03 @056   ----------------------------------------
 .byte   W96
@  #03 @057   ----------------------------------------
 .byte   W96
@  #03 @058   ----------------------------------------
 .byte   W96
@  #03 @059   ----------------------------------------
 .byte   W96
@  #03 @060   ----------------------------------------
 .byte   W96
@  #03 @061   ----------------------------------------
 .byte   W96
@  #03 @062   ----------------------------------------
 .byte   W96
@  #03 @063   ----------------------------------------
 .byte   W96
@  #03 @064   ----------------------------------------
 .byte   W96
@  #03 @065   ----------------------------------------
 .byte   W96
@  #03 @066   ----------------------------------------
 .byte   W96
@  #03 @067   ----------------------------------------
 .byte   W96
@  #03 @068   ----------------------------------------
Label_CF6B52:
 .byte   W12
 .byte   N12 ,An3 ,v127
 .byte   W24
 .byte   N12
 .byte   W24
 .byte   N12
 .byte   W24
 .byte   N12
 .byte   W12
 .byte   PEND 
@  #03 @069   ----------------------------------------
 .byte   PATT
  .word Label_CF6B52
@  #03 @070   ----------------------------------------
 .byte   PATT
  .word Label_CF6B52
@  #03 @071   ----------------------------------------
 .byte   PATT
  .word Label_CF6B52
@  #03 @072   ----------------------------------------
 .byte   PATT
  .word Label_CF6B52
@  #03 @073   ----------------------------------------
 .byte   W12
 .byte   N12 ,Gs3 ,v127
 .byte   W24
 .byte   N12
 .byte   W24
 .byte   N12
 .byte   W24
 .byte   N12
 .byte   W12
@  #03 @074   ----------------------------------------
 .byte   W12
 .byte   Fn3
 .byte   W24
 .byte   N12
 .byte   W24
 .byte   N12
 .byte   W24
 .byte   N12
 .byte   W12
@  #03 @075   ----------------------------------------
 .byte   W12
 .byte   En3
 .byte   W24
 .byte   N12
 .byte   W24
 .byte   Dn3
 .byte   W24
 .byte   N12
 .byte   W12
@  #03 @076   ----------------------------------------
 .byte   PATT
  .word Label_CF6A4A
@  #03 @077   ----------------------------------------
 .byte   W12
 .byte   N12 ,Bn2 ,v127
 .byte   W24
 .byte   N12
 .byte   W24
 .byte   N12
 .byte   W24
 .byte   N12
 .byte   W12
@  #03 @078   ----------------------------------------
 .byte   PATT
  .word Label_CF6A5F
@  #03 @079   ----------------------------------------
 .byte   W12
 .byte   N12 ,Gs2 ,v127
 .byte   W24
 .byte   N12
 .byte   W24
 .byte   Fn2
 .byte   W24
 .byte   N12
 .byte   W12
@  #03 @080   ----------------------------------------
 .byte   W12
 .byte   En2
 .byte   W24
 .byte   N12
 .byte   W24
 .byte   N12
 .byte   W24
 .byte   N12
 .byte   W12
@  #03 @081   ----------------------------------------
 .byte   W12
 .byte   Dn2
 .byte   W24
 .byte   N12
 .byte   W24
 .byte   N12
 .byte   W24
 .byte   N12
 .byte   W12
@  #03 @082   ----------------------------------------
 .byte   W12
 .byte   Cn2
 .byte   W24
 .byte   N12
 .byte   W24
 .byte   N12
 .byte   W24
 .byte   N12
 .byte   W12
@  #03 @083   ----------------------------------------
 .byte   W12
 .byte   Bn1
 .byte   W24
 .byte   N12
 .byte   W24
 .byte   N12
 .byte   W24
 .byte   An1
 .byte   W12
@  #03 @084   ----------------------------------------
 .byte   GOTO
  .word Label_CF6A4A
 .byte   FINE

@**************** Track 4 (Midi-Chn.3) ****************@

DiscoDescent_004:
@  #04 @000   ----------------------------------------
 .byte   KEYSH , DiscoDescent_key+0
 .byte   VOICE , 11
 .byte   VOL , 32*DiscoDescent_mvl/mxv
 .byte   N06 ,An2 ,v127
 .byte   W06
 .byte   N06
 .byte   W30
 .byte   N06
 .byte   W06
 .byte   N06
 .byte   W30
 .byte   Cn3
 .byte   W06
 .byte   N06
 .byte   W18
@  #04 @001   ----------------------------------------
 .byte   An2
 .byte   W06
 .byte   N06
 .byte   W30
 .byte   N06
 .byte   W06
 .byte   N06
 .byte   W30
 .byte   N06
 .byte   W06
 .byte   N06
 .byte   W18
@  #04 @002   ----------------------------------------
 .byte   N06
 .byte   W06
 .byte   N06
 .byte   W30
 .byte   N06
 .byte   W06
 .byte   N06
 .byte   W30
 .byte   Cn3
 .byte   W06
 .byte   N06
 .byte   W18
@  #04 @003   ----------------------------------------
 .byte   An2
 .byte   W06
 .byte   N06
 .byte   W30
 .byte   N06
 .byte   W06
 .byte   N06
 .byte   W54
@  #04 @004   ----------------------------------------
Label_CF5B5C:
 .byte   W96
@  #04 @005   ----------------------------------------
 .byte   W96
@  #04 @006   ----------------------------------------
 .byte   W96
@  #04 @007   ----------------------------------------
 .byte   W96
@  #04 @008   ----------------------------------------
 .byte   W96
@  #04 @009   ----------------------------------------
 .byte   W96
@  #04 @010   ----------------------------------------
 .byte   W96
@  #04 @011   ----------------------------------------
 .byte   W96
@  #04 @012   ----------------------------------------
 .byte   W96
@  #04 @013   ----------------------------------------
 .byte   W96
@  #04 @014   ----------------------------------------
 .byte   W96
@  #04 @015   ----------------------------------------
 .byte   W96
@  #04 @016   ----------------------------------------
 .byte   W96
@  #04 @017   ----------------------------------------
 .byte   W96
@  #04 @018   ----------------------------------------
 .byte   W96
@  #04 @019   ----------------------------------------
 .byte   W96
@  #04 @020   ----------------------------------------
 .byte   W96
@  #04 @021   ----------------------------------------
 .byte   W96
@  #04 @022   ----------------------------------------
 .byte   W96
@  #04 @023   ----------------------------------------
 .byte   W96
@  #04 @024   ----------------------------------------
 .byte   W24
 .byte   N03 ,Cn4 ,v127
 .byte   W06
 .byte   N03
 .byte   W42
 .byte   N03
 .byte   W06
 .byte   N03
 .byte   W06
 .byte   An4
 .byte   W03
 .byte   Cn5
 .byte   W03
 .byte   An4
 .byte   W03
 .byte   Cn4
 .byte   W03
@  #04 @025   ----------------------------------------
 .byte   W12
 .byte   En4
 .byte   W06
 .byte   N03
 .byte   W18
 .byte   N03
 .byte   W06
 .byte   N03
 .byte   W18
 .byte   Dn4
 .byte   W06
 .byte   N03
 .byte   W18
 .byte   Cn4
 .byte   W06
 .byte   Bn3
 .byte   W06
@  #04 @026   ----------------------------------------
 .byte   An3
 .byte   W06
 .byte   N03
 .byte   W30
 .byte   N03
 .byte   W06
 .byte   N03
 .byte   W30
 .byte   N03
 .byte   W06
 .byte   N03
 .byte   W06
 .byte   En4
 .byte   W03
 .byte   An4
 .byte   W03
 .byte   En4
 .byte   W03
 .byte   An3
 .byte   W03
@  #04 @027   ----------------------------------------
 .byte   N03
 .byte   W06
 .byte   N03
 .byte   W42
 .byte   Cn4
 .byte   W06
 .byte   N03
 .byte   W42
@  #04 @028   ----------------------------------------
 .byte   W12
 .byte   N06 ,An3
 .byte   W06
 .byte   Cn4
 .byte   W18
 .byte   N06
 .byte   W06
 .byte   N06
 .byte   W18
 .byte   N06
 .byte   W06
 .byte   N06
 .byte   W18
 .byte   Bn3
 .byte   W06
 .byte   An3
 .byte   W06
@  #04 @029   ----------------------------------------
 .byte   W12
 .byte   N06
 .byte   W06
 .byte   N06
 .byte   W18
 .byte   N06
 .byte   W06
 .byte   N06
 .byte   W18
 .byte   N06
 .byte   W06
 .byte   N06
 .byte   W18
 .byte   N06
 .byte   W06
 .byte   En3
 .byte   W06
@  #04 @030   ----------------------------------------
 .byte   W12
 .byte   N06
 .byte   W06
 .byte   N06
 .byte   W18
 .byte   N06
 .byte   W06
 .byte   N06
 .byte   W18
 .byte   N06
 .byte   W06
 .byte   N06
 .byte   W18
 .byte   Ds3
 .byte   W06
 .byte   Bn2
 .byte   W06
@  #04 @031   ----------------------------------------
 .byte   W12
 .byte   N06
 .byte   W06
 .byte   N06
 .byte   W18
 .byte   N06
 .byte   W06
 .byte   N06
 .byte   W18
 .byte   N06
 .byte   W06
 .byte   N06
 .byte   W18
 .byte   N06
 .byte   W06
 .byte   An2
 .byte   W06
@  #04 @032   ----------------------------------------
 .byte   W96
@  #04 @033   ----------------------------------------
 .byte   W96
@  #04 @034   ----------------------------------------
 .byte   W96
@  #04 @035   ----------------------------------------
 .byte   W96
@  #04 @036   ----------------------------------------
 .byte   W96
@  #04 @037   ----------------------------------------
 .byte   W96
@  #04 @038   ----------------------------------------
 .byte   W96
@  #04 @039   ----------------------------------------
 .byte   W96
@  #04 @040   ----------------------------------------
 .byte   W96
@  #04 @041   ----------------------------------------
 .byte   W96
@  #04 @042   ----------------------------------------
 .byte   W96
@  #04 @043   ----------------------------------------
 .byte   W96
@  #04 @044   ----------------------------------------
 .byte   W96
@  #04 @045   ----------------------------------------
 .byte   W96
@  #04 @046   ----------------------------------------
 .byte   W96
@  #04 @047   ----------------------------------------
 .byte   W96
@  #04 @048   ----------------------------------------
 .byte   W96
@  #04 @049   ----------------------------------------
 .byte   W96
@  #04 @050   ----------------------------------------
 .byte   W96
@  #04 @051   ----------------------------------------
 .byte   W96
@  #04 @052   ----------------------------------------
 .byte   W96
@  #04 @053   ----------------------------------------
 .byte   W96
@  #04 @054   ----------------------------------------
 .byte   W96
@  #04 @055   ----------------------------------------
 .byte   W96
@  #04 @056   ----------------------------------------
 .byte   W96
@  #04 @057   ----------------------------------------
 .byte   W96
@  #04 @058   ----------------------------------------
 .byte   W96
@  #04 @059   ----------------------------------------
 .byte   W96
@  #04 @060   ----------------------------------------
 .byte   W96
@  #04 @061   ----------------------------------------
 .byte   W96
@  #04 @062   ----------------------------------------
 .byte   W96
@  #04 @063   ----------------------------------------
 .byte   W96
@  #04 @064   ----------------------------------------
 .byte   W96
@  #04 @065   ----------------------------------------
 .byte   W96
@  #04 @066   ----------------------------------------
 .byte   W96
@  #04 @067   ----------------------------------------
 .byte   W96
@  #04 @068   ----------------------------------------
 .byte   W96
@  #04 @069   ----------------------------------------
 .byte   W96
@  #04 @070   ----------------------------------------
 .byte   W96
@  #04 @071   ----------------------------------------
 .byte   W96
@  #04 @072   ----------------------------------------
Label_CF5C1D:
 .byte   W12
 .byte   N06 ,An3 ,v127
 .byte   W06
 .byte   N06
 .byte   W18
 .byte   Fn4
 .byte   W06
 .byte   N06
 .byte   W06
 .byte   N06
 .byte   W12
 .byte   N12 ,Dn4
 .byte   W24
 .byte   N03 ,Fn4
 .byte   W03
 .byte   N03
 .byte   W03
 .byte   N03
 .byte   W03
 .byte   N03
 .byte   W03
 .byte   PEND 
@  #04 @073   ----------------------------------------
Label_CF5C37:
 .byte   W12
 .byte   N06 ,An3 ,v127
 .byte   W06
 .byte   N06
 .byte   W18
 .byte   En4
 .byte   W06
 .byte   N06
 .byte   W06
 .byte   N06
 .byte   W12
 .byte   N12 ,Dn4
 .byte   W24
 .byte   N03 ,En4
 .byte   W03
 .byte   N03
 .byte   W03
 .byte   N03
 .byte   W03
 .byte   N03
 .byte   W03
 .byte   PEND 
@  #04 @074   ----------------------------------------
 .byte   PATT
  .word Label_CF5C1D
@  #04 @075   ----------------------------------------
 .byte   PATT
  .word Label_CF5C37
@  #04 @076   ----------------------------------------
 .byte   PATT
  .word Label_CF5C1D
@  #04 @077   ----------------------------------------
 .byte   PATT
  .word Label_CF5C37
@  #04 @078   ----------------------------------------
 .byte   PATT
  .word Label_CF5C1D
@  #04 @079   ----------------------------------------
 .byte   PATT
  .word Label_CF5C37
@  #04 @080   ----------------------------------------
 .byte   PATT
  .word Label_CF5C1D
@  #04 @081   ----------------------------------------
 .byte   PATT
  .word Label_CF5C37
@  #04 @082   ----------------------------------------
 .byte   PATT
  .word Label_CF5C1D
@  #04 @083   ----------------------------------------
 .byte   PATT
  .word Label_CF5C37
@  #04 @084   ----------------------------------------
 .byte   GOTO
  .word Label_CF5B5C
 .byte   FINE

@**************** Track 5 (Midi-Chn.4) ****************@

DiscoDescent_005:
@  #05 @000   ----------------------------------------
 .byte   KEYSH , DiscoDescent_key+0
 .byte   VOICE , 48
 .byte   VOL , 41*DiscoDescent_mvl/mxv
 .byte   W96
@  #05 @001   ----------------------------------------
 .byte   W96
@  #05 @002   ----------------------------------------
 .byte   W96
@  #05 @003   ----------------------------------------
 .byte   W96
@  #05 @004   ----------------------------------------
Label_CF6BE6:
 .byte   W96
@  #05 @005   ----------------------------------------
 .byte   W96
@  #05 @006   ----------------------------------------
 .byte   W96
@  #05 @007   ----------------------------------------
 .byte   W96
@  #05 @008   ----------------------------------------
 .byte   W96
@  #05 @009   ----------------------------------------
 .byte   W96
@  #05 @010   ----------------------------------------
 .byte   W96
@  #05 @011   ----------------------------------------
 .byte   W96
@  #05 @012   ----------------------------------------
 .byte   W96
@  #05 @013   ----------------------------------------
 .byte   W96
@  #05 @014   ----------------------------------------
 .byte   N06 ,En3 ,v127
 .byte   W06
 .byte   Cn3
 .byte   W06
 .byte   An2
 .byte   W06
 .byte   En2
 .byte   W06
 .byte   Cn2
 .byte   W06
 .byte   An1
 .byte   W18
 .byte   An3
 .byte   W06
 .byte   En3
 .byte   W06
 .byte   Cn3
 .byte   W06
 .byte   An2
 .byte   W06
 .byte   En2
 .byte   W06
 .byte   Cn2
 .byte   W18
@  #05 @015   ----------------------------------------
 .byte   En4
 .byte   W06
 .byte   Cn4
 .byte   W06
 .byte   An3
 .byte   W06
 .byte   En3
 .byte   W06
 .byte   Cn3
 .byte   W06
 .byte   An2
 .byte   W18
 .byte   An4
 .byte   W06
 .byte   En4
 .byte   W06
 .byte   Cn4
 .byte   W06
 .byte   An3
 .byte   W06
 .byte   An4
 .byte   W06
 .byte   Gs4
 .byte   W06
 .byte   Cn5
 .byte   W06
 .byte   An4
 .byte   W06
@  #05 @016   ----------------------------------------
 .byte   W96
@  #05 @017   ----------------------------------------
 .byte   W96
@  #05 @018   ----------------------------------------
 .byte   W96
@  #05 @019   ----------------------------------------
 .byte   W96
@  #05 @020   ----------------------------------------
 .byte   W96
@  #05 @021   ----------------------------------------
 .byte   W96
@  #05 @022   ----------------------------------------
 .byte   W96
@  #05 @023   ----------------------------------------
 .byte   W96
@  #05 @024   ----------------------------------------
 .byte   W96
@  #05 @025   ----------------------------------------
 .byte   W96
@  #05 @026   ----------------------------------------
 .byte   W96
@  #05 @027   ----------------------------------------
 .byte   W96
@  #05 @028   ----------------------------------------
 .byte   W96
@  #05 @029   ----------------------------------------
 .byte   W96
@  #05 @030   ----------------------------------------
 .byte   W96
@  #05 @031   ----------------------------------------
 .byte   W96
@  #05 @032   ----------------------------------------
 .byte   W96
@  #05 @033   ----------------------------------------
 .byte   W96
@  #05 @034   ----------------------------------------
 .byte   W96
@  #05 @035   ----------------------------------------
 .byte   W96
@  #05 @036   ----------------------------------------
 .byte   W96
@  #05 @037   ----------------------------------------
 .byte   W96
@  #05 @038   ----------------------------------------
 .byte   W96
@  #05 @039   ----------------------------------------
 .byte   W96
@  #05 @040   ----------------------------------------
 .byte   W96
@  #05 @041   ----------------------------------------
 .byte   W96
@  #05 @042   ----------------------------------------
 .byte   W96
@  #05 @043   ----------------------------------------
 .byte   W96
@  #05 @044   ----------------------------------------
 .byte   W96
@  #05 @045   ----------------------------------------
 .byte   W96
@  #05 @046   ----------------------------------------
 .byte   W96
@  #05 @047   ----------------------------------------
 .byte   W96
@  #05 @048   ----------------------------------------
 .byte   W96
@  #05 @049   ----------------------------------------
 .byte   W96
@  #05 @050   ----------------------------------------
 .byte   W96
@  #05 @051   ----------------------------------------
 .byte   W96
@  #05 @052   ----------------------------------------
 .byte   W96
@  #05 @053   ----------------------------------------
 .byte   W96
@  #05 @054   ----------------------------------------
 .byte   W96
@  #05 @055   ----------------------------------------
 .byte   W96
@  #05 @056   ----------------------------------------
 .byte   W96
@  #05 @057   ----------------------------------------
 .byte   W96
@  #05 @058   ----------------------------------------
 .byte   W96
@  #05 @059   ----------------------------------------
 .byte   W96
@  #05 @060   ----------------------------------------
 .byte   W96
@  #05 @061   ----------------------------------------
 .byte   W96
@  #05 @062   ----------------------------------------
 .byte   W96
@  #05 @063   ----------------------------------------
 .byte   W96
@  #05 @064   ----------------------------------------
 .byte   W96
@  #05 @065   ----------------------------------------
 .byte   W96
@  #05 @066   ----------------------------------------
 .byte   W96
@  #05 @067   ----------------------------------------
 .byte   W96
@  #05 @068   ----------------------------------------
 .byte   W96
@  #05 @069   ----------------------------------------
 .byte   W96
@  #05 @070   ----------------------------------------
 .byte   W96
@  #05 @071   ----------------------------------------
 .byte   W96
@  #05 @072   ----------------------------------------
 .byte   W96
@  #05 @073   ----------------------------------------
 .byte   W96
@  #05 @074   ----------------------------------------
 .byte   W96
@  #05 @075   ----------------------------------------
 .byte   W96
@  #05 @076   ----------------------------------------
 .byte   W96
@  #05 @077   ----------------------------------------
 .byte   W96
@  #05 @078   ----------------------------------------
 .byte   W96
@  #05 @079   ----------------------------------------
 .byte   W96
@  #05 @080   ----------------------------------------
 .byte   W96
@  #05 @081   ----------------------------------------
 .byte   W96
@  #05 @082   ----------------------------------------
 .byte   W96
@  #05 @083   ----------------------------------------
 .byte   W96
@  #05 @084   ----------------------------------------
 .byte   GOTO
  .word Label_CF6BE6
 .byte   FINE

@**************** Track 6 (Midi-Chn.5) ****************@

DiscoDescent_006:
@  #06 @000   ----------------------------------------
 .byte   KEYSH , DiscoDescent_key+0
 .byte   VOICE , 81
 .byte   VOL , 44*DiscoDescent_mvl/mxv
 .byte   W96
@  #06 @001   ----------------------------------------
 .byte   W96
@  #06 @002   ----------------------------------------
 .byte   W96
@  #06 @003   ----------------------------------------
 .byte   W96
@  #06 @004   ----------------------------------------
Label_CF5C96:
 .byte   N12 ,An2 ,v096
 .byte   W24
 .byte   N12
 .byte   W24
 .byte   N12
 .byte   W24
 .byte   N12
 .byte   W24
 .byte   PEND 
@  #06 @005   ----------------------------------------
Label_CF5CA1:
 .byte   N12 ,Gn2 ,v096
 .byte   W24
 .byte   N12
 .byte   W24
 .byte   N12
 .byte   W24
 .byte   N12
 .byte   W24
 .byte   PEND 
@  #06 @006   ----------------------------------------
Label_CF5CAC:
 .byte   N12 ,Fn2 ,v096
 .byte   W24
 .byte   N12
 .byte   W24
 .byte   N12
 .byte   W24
 .byte   N12
 .byte   W24
 .byte   PEND 
@  #06 @007   ----------------------------------------
Label_CF5CB7:
 .byte   N12 ,Dn2 ,v096
 .byte   W24
 .byte   N12
 .byte   W24
 .byte   En2
 .byte   W24
 .byte   N12
 .byte   W24
 .byte   PEND 
@  #06 @008   ----------------------------------------
 .byte   PATT
  .word Label_CF5C96
@  #06 @009   ----------------------------------------
 .byte   PATT
  .word Label_CF5CA1
@  #06 @010   ----------------------------------------
 .byte   PATT
  .word Label_CF5CAC
@  #06 @011   ----------------------------------------
 .byte   PATT
  .word Label_CF5CB7
@  #06 @012   ----------------------------------------
 .byte   W96
@  #06 @013   ----------------------------------------
 .byte   W96
@  #06 @014   ----------------------------------------
 .byte   W96
@  #06 @015   ----------------------------------------
 .byte   W96
@  #06 @016   ----------------------------------------
 .byte   N06 ,En3 ,v096
 .byte   W18
 .byte   N06
 .byte   W06
 .byte   N60 ,An3
 .byte   W60
 .byte   N06 ,Gn3
 .byte   W06
 .byte   An3
 .byte   W06
@  #06 @017   ----------------------------------------
 .byte   N12 ,Bn3
 .byte   W12
 .byte   Cn4
 .byte   W12
 .byte   N06 ,Bn3
 .byte   W06
 .byte   Cn4
 .byte   W06
 .byte   Bn3
 .byte   W06
 .byte   Gn3
 .byte   W06
 .byte   N12 ,Bn3
 .byte   W12
 .byte   Cn4
 .byte   W12
 .byte   N06 ,Bn3
 .byte   W06
 .byte   N18 ,Gn3
 .byte   W18
@  #06 @018   ----------------------------------------
 .byte   N84 ,An3
 .byte   W84
 .byte   N06 ,Fn3
 .byte   W06
 .byte   Gn3
 .byte   W06
@  #06 @019   ----------------------------------------
 .byte   N48 ,An3
 .byte   W48
 .byte   Gs3
 .byte   W48
@  #06 @020   ----------------------------------------
 .byte   N06 ,An3
 .byte   W18
 .byte   N06
 .byte   W06
 .byte   N60 ,En4
 .byte   W60
 .byte   N06 ,Dn4
 .byte   W06
 .byte   En4
 .byte   W06
@  #06 @021   ----------------------------------------
 .byte   N12 ,Fn4
 .byte   W12
 .byte   N06 ,En4
 .byte   W06
 .byte   Fn4
 .byte   W06
 .byte   N12 ,Gn4
 .byte   W12
 .byte   N06 ,Fn4
 .byte   W06
 .byte   Gn4
 .byte   W06
 .byte   N12 ,Cn5
 .byte   W12
 .byte   Bn4
 .byte   W12
 .byte   An4
 .byte   W12
 .byte   Gn4
 .byte   W12
@  #06 @022   ----------------------------------------
 .byte   N84 ,An4
 .byte   W84
 .byte   N06 ,Fn4
 .byte   W06
 .byte   Gn4
 .byte   W06
@  #06 @023   ----------------------------------------
 .byte   N36 ,An4
 .byte   W36
 .byte   N06 ,Gs4
 .byte   W06
 .byte   An4
 .byte   W06
 .byte   N24 ,Bn4
 .byte   W24
 .byte   En4
 .byte   W24
@  #06 @024   ----------------------------------------
 .byte   N48
 .byte   W48
 .byte   N36 ,Dn4
 .byte   W36
 .byte   N06 ,En4
 .byte   W06
 .byte   Dn4
 .byte   W06
@  #06 @025   ----------------------------------------
 .byte   N48 ,Cn4
 .byte   W48
 .byte   N24 ,Bn3
 .byte   W24
 .byte   En3
 .byte   W24
@  #06 @026   ----------------------------------------
 .byte   An3
 .byte   W24
 .byte   Fn3
 .byte   W24
 .byte   An3
 .byte   W24
 .byte   N12 ,Cn4
 .byte   W12
 .byte   N06 ,Bn3
 .byte   W06
 .byte   An3
 .byte   W06
@  #06 @027   ----------------------------------------
 .byte   N36 ,Bn3
 .byte   W36
 .byte   N06 ,An3
 .byte   W06
 .byte   Gs3
 .byte   W06
 .byte   N24 ,An3
 .byte   W24
 .byte   N12 ,Gs3
 .byte   W12
 .byte   En3
 .byte   W12
@  #06 @028   ----------------------------------------
 .byte   TIE ,An3
 .byte   W96
@  #06 @029   ----------------------------------------
 .byte   W96
@  #06 @030   ----------------------------------------
 .byte   EOT
 .byte   W96
@  #06 @031   ----------------------------------------
 .byte   W96
@  #06 @032   ----------------------------------------
 .byte   W96
@  #06 @033   ----------------------------------------
 .byte   W96
@  #06 @034   ----------------------------------------
 .byte   W96
@  #06 @035   ----------------------------------------
 .byte   W96
@  #06 @036   ----------------------------------------
 .byte   W96
@  #06 @037   ----------------------------------------
 .byte   W96
@  #06 @038   ----------------------------------------
 .byte   W96
@  #06 @039   ----------------------------------------
 .byte   W96
@  #06 @040   ----------------------------------------
 .byte   N60
 .byte   W60
 .byte   N12 ,En3
 .byte   W12
 .byte   N24 ,En4
 .byte   W24
@  #06 @041   ----------------------------------------
 .byte   Gn4
 .byte   W24
 .byte   En4
 .byte   W24
 .byte   An4
 .byte   W24
 .byte   En4
 .byte   W24
@  #06 @042   ----------------------------------------
 .byte   N60 ,Ds4
 .byte   W60
 .byte   N12 ,Cn4
 .byte   W12
 .byte   N24 ,En4
 .byte   W24
@  #06 @043   ----------------------------------------
 .byte   Ds4
 .byte   W24
 .byte   Bn3
 .byte   W24
 .byte   Cn4
 .byte   W24
 .byte   Bn3
 .byte   W24
@  #06 @044   ----------------------------------------
 .byte   An3
 .byte   W24
 .byte   Bn3
 .byte   W24
 .byte   N12 ,An3
 .byte   W12
 .byte   Bn3
 .byte   W12
 .byte   An3
 .byte   W12
 .byte   En3
 .byte   W12
@  #06 @045   ----------------------------------------
 .byte   N72 ,Fn4
 .byte   W72
 .byte   N24 ,Gn4
 .byte   W24
@  #06 @046   ----------------------------------------
 .byte   N12 ,An4
 .byte   W12
 .byte   En4
 .byte   W12
 .byte   An4
 .byte   W12
 .byte   En4
 .byte   W12
 .byte   N36 ,Ds4
 .byte   W36
 .byte   N60 ,An3
 .byte   W12
@  #06 @047   ----------------------------------------
 .byte   W48
 .byte   N12
 .byte   W12
 .byte   En3
 .byte   W12
 .byte   En4
 .byte   W12
 .byte   Cn4
 .byte   W12
@  #06 @048   ----------------------------------------
 .byte   N36 ,Dn4
 .byte   W36
 .byte   Cn4
 .byte   W36
 .byte   N24 ,Dn4
 .byte   W24
@  #06 @049   ----------------------------------------
 .byte   N12 ,An3
 .byte   W12
 .byte   En3
 .byte   W12
 .byte   An4
 .byte   W12
 .byte   En4
 .byte   W12
 .byte   N36 ,Ds4
 .byte   W36
 .byte   An3
 .byte   W12
@  #06 @050   ----------------------------------------
 .byte   W24
 .byte   N24 ,Ds4
 .byte   W24
 .byte   En4
 .byte   W24
 .byte   N12 ,Gs4
 .byte   W12
 .byte   En4
 .byte   W12
@  #06 @051   ----------------------------------------
 .byte   TIE ,An4
 .byte   W96
@  #06 @052   ----------------------------------------
 .byte   W12
 .byte   EOT
 .byte   W84
@  #06 @053   ----------------------------------------
 .byte   W96
@  #06 @054   ----------------------------------------
 .byte   W96
@  #06 @055   ----------------------------------------
 .byte   W96
@  #06 @056   ----------------------------------------
Label_CF5DFE:
 .byte   N06 ,An2 ,v096
 .byte   W18
 .byte   N06
 .byte   W06
 .byte   N60 ,En3
 .byte   W60
 .byte   N06 ,Cn3
 .byte   W06
 .byte   Dn3
 .byte   W06
 .byte   PEND 
@  #06 @057   ----------------------------------------
 .byte   N12 ,En3
 .byte   W12
 .byte   Fn3
 .byte   W12
 .byte   N06 ,En3
 .byte   W06
 .byte   Fn3
 .byte   W06
 .byte   En3
 .byte   W06
 .byte   Cn3
 .byte   W06
 .byte   N12 ,En3
 .byte   W12
 .byte   Fn3
 .byte   W12
 .byte   N06 ,En3
 .byte   W06
 .byte   N18 ,Cn3
 .byte   W18
@  #06 @058   ----------------------------------------
 .byte   N48 ,Dn3
 .byte   W48
 .byte   N24 ,Cn3
 .byte   W24
 .byte   N12 ,An2
 .byte   W12
 .byte   Cn3
 .byte   W12
@  #06 @059   ----------------------------------------
 .byte   N36 ,Bn2
 .byte   W36
 .byte   N06 ,An2
 .byte   W06
 .byte   Gs2
 .byte   W06
 .byte   N24 ,An2
 .byte   W24
 .byte   N12 ,Gs2
 .byte   W12
 .byte   En2
 .byte   W12
@  #06 @060   ----------------------------------------
 .byte   PATT
  .word Label_CF5DFE
@  #06 @061   ----------------------------------------
 .byte   N12 ,En3 ,v096
 .byte   W12
 .byte   N06 ,Dn3
 .byte   W06
 .byte   En3
 .byte   W06
 .byte   N12 ,Fn3
 .byte   W12
 .byte   N06 ,En3
 .byte   W06
 .byte   Fn3
 .byte   W06
 .byte   N12 ,Gn3
 .byte   W12
 .byte   N06 ,Fn3
 .byte   W06
 .byte   Gn3
 .byte   W06
 .byte   N12 ,Cn4
 .byte   W12
 .byte   Bn3
 .byte   W12
@  #06 @062   ----------------------------------------
 .byte   N48 ,An3
 .byte   W48
 .byte   N30 ,Fn3
 .byte   W30
 .byte   N06
 .byte   W06
 .byte   N12 ,An3
 .byte   W12
@  #06 @063   ----------------------------------------
 .byte   N30 ,Gs3
 .byte   W30
 .byte   N06 ,Fn3
 .byte   W06
 .byte   Gs3
 .byte   W06
 .byte   An3
 .byte   W06
 .byte   N24 ,Bn3
 .byte   W24
 .byte   Dn4
 .byte   W24
@  #06 @064   ----------------------------------------
 .byte   N48 ,En4
 .byte   W48
 .byte   N24 ,Gn4
 .byte   W24
 .byte   N12 ,En4
 .byte   W12
 .byte   Gn4
 .byte   W12
@  #06 @065   ----------------------------------------
 .byte   N36 ,An4
 .byte   W36
 .byte   N06 ,Gs4
 .byte   W06
 .byte   Fs4
 .byte   W06
 .byte   N24 ,Gs4
 .byte   W24
 .byte   N12 ,En4
 .byte   W12
 .byte   Gs4
 .byte   W12
@  #06 @066   ----------------------------------------
 .byte   N24 ,An4
 .byte   W24
 .byte   En4
 .byte   W24
 .byte   An4
 .byte   W24
 .byte   Cn5
 .byte   W24
@  #06 @067   ----------------------------------------
 .byte   N36 ,Dn5
 .byte   W36
 .byte   N06 ,Cn5
 .byte   W06
 .byte   Dn5
 .byte   W06
 .byte   N48 ,En5
 .byte   W48
@  #06 @068   ----------------------------------------
 .byte   W96
@  #06 @069   ----------------------------------------
 .byte   W96
@  #06 @070   ----------------------------------------
 .byte   W96
@  #06 @071   ----------------------------------------
 .byte   W96
@  #06 @072   ----------------------------------------
 .byte   W96
@  #06 @073   ----------------------------------------
 .byte   W96
@  #06 @074   ----------------------------------------
 .byte   W96
@  #06 @075   ----------------------------------------
 .byte   W96
@  #06 @076   ----------------------------------------
 .byte   W96
@  #06 @077   ----------------------------------------
 .byte   W96
@  #06 @078   ----------------------------------------
 .byte   W96
@  #06 @079   ----------------------------------------
 .byte   W96
@  #06 @080   ----------------------------------------
 .byte   W96
@  #06 @081   ----------------------------------------
 .byte   W96
@  #06 @082   ----------------------------------------
 .byte   W96
@  #06 @083   ----------------------------------------
 .byte   W96
@  #06 @084   ----------------------------------------
 .byte   GOTO
  .word Label_CF5C96
 .byte   FINE

@**************** Track 7 (Midi-Chn.6) ****************@

DiscoDescent_007:
@  #07 @000   ----------------------------------------
 .byte   KEYSH , DiscoDescent_key+0
 .byte   VOICE , 4
 .byte   VOL , 17*DiscoDescent_mvl/mxv
 .byte   W96
@  #07 @001   ----------------------------------------
 .byte   W96
@  #07 @002   ----------------------------------------
 .byte   W96
@  #07 @003   ----------------------------------------
 .byte   W96
@  #07 @004   ----------------------------------------
Label_CF62CE:
 .byte   W96
@  #07 @005   ----------------------------------------
 .byte   W96
@  #07 @006   ----------------------------------------
 .byte   W96
@  #07 @007   ----------------------------------------
 .byte   W96
@  #07 @008   ----------------------------------------
 .byte   W96
@  #07 @009   ----------------------------------------
 .byte   W96
@  #07 @010   ----------------------------------------
 .byte   W96
@  #07 @011   ----------------------------------------
 .byte   W96
@  #07 @012   ----------------------------------------
 .byte   W96
@  #07 @013   ----------------------------------------
 .byte   W96
@  #07 @014   ----------------------------------------
 .byte   W96
@  #07 @015   ----------------------------------------
 .byte   W96
@  #07 @016   ----------------------------------------
 .byte   W96
@  #07 @017   ----------------------------------------
 .byte   W96
@  #07 @018   ----------------------------------------
 .byte   W96
@  #07 @019   ----------------------------------------
 .byte   W96
@  #07 @020   ----------------------------------------
 .byte   W96
@  #07 @021   ----------------------------------------
 .byte   W96
@  #07 @022   ----------------------------------------
 .byte   W96
@  #07 @023   ----------------------------------------
 .byte   W96
@  #07 @024   ----------------------------------------
 .byte   W24
 .byte   N03 ,Cn4 ,v127
 .byte   W06
 .byte   N03
 .byte   W42
 .byte   N03
 .byte   W06
 .byte   N03
 .byte   W06
 .byte   An4
 .byte   W03
 .byte   Cn5 ,v096
 .byte   W03
 .byte   An4
 .byte   W03
 .byte   Cn4 ,v127
 .byte   W03
@  #07 @025   ----------------------------------------
 .byte   W12
 .byte   En4
 .byte   W06
 .byte   N03
 .byte   W18
 .byte   N03
 .byte   W06
 .byte   N03
 .byte   W18
 .byte   Dn4
 .byte   W06
 .byte   N03
 .byte   W18
 .byte   Cn4
 .byte   W06
 .byte   Bn3
 .byte   W06
@  #07 @026   ----------------------------------------
 .byte   An3
 .byte   W06
 .byte   N03
 .byte   W30
 .byte   N03
 .byte   W06
 .byte   N03
 .byte   W30
 .byte   N03
 .byte   W06
 .byte   N03
 .byte   W06
 .byte   En4
 .byte   W03
 .byte   An4
 .byte   W03
 .byte   En4
 .byte   W03
 .byte   An3
 .byte   W03
@  #07 @027   ----------------------------------------
 .byte   N03
 .byte   W06
 .byte   N03
 .byte   W42
 .byte   Cn4
 .byte   W06
 .byte   N03
 .byte   W42
@  #07 @028   ----------------------------------------
 .byte   W12
 .byte   N06 ,An3
 .byte   W06
 .byte   Cn4
 .byte   W18
 .byte   N06
 .byte   W06
 .byte   N06
 .byte   W18
 .byte   N06
 .byte   W06
 .byte   N06
 .byte   W18
 .byte   Bn3
 .byte   W06
 .byte   An3
 .byte   W06
@  #07 @029   ----------------------------------------
 .byte   W12
 .byte   N06
 .byte   W06
 .byte   N06
 .byte   W18
 .byte   N06
 .byte   W06
 .byte   N06
 .byte   W18
 .byte   N06
 .byte   W06
 .byte   N06
 .byte   W18
 .byte   N06
 .byte   W06
 .byte   En3
 .byte   W06
@  #07 @030   ----------------------------------------
 .byte   W12
 .byte   N06
 .byte   W06
 .byte   N06
 .byte   W18
 .byte   N06
 .byte   W06
 .byte   N06
 .byte   W18
 .byte   N06
 .byte   W06
 .byte   N06
 .byte   W18
 .byte   Ds3
 .byte   W06
 .byte   Bn2
 .byte   W06
@  #07 @031   ----------------------------------------
 .byte   W12
 .byte   N06
 .byte   W06
 .byte   N06
 .byte   W18
 .byte   N06
 .byte   W06
 .byte   N06
 .byte   W18
 .byte   N06
 .byte   W06
 .byte   N06
 .byte   W18
 .byte   N06
 .byte   W06
 .byte   An2
 .byte   W06
@  #07 @032   ----------------------------------------
 .byte   W96
@  #07 @033   ----------------------------------------
 .byte   W96
@  #07 @034   ----------------------------------------
 .byte   W96
@  #07 @035   ----------------------------------------
 .byte   W96
@  #07 @036   ----------------------------------------
 .byte   W96
@  #07 @037   ----------------------------------------
 .byte   W96
@  #07 @038   ----------------------------------------
 .byte   W96
@  #07 @039   ----------------------------------------
 .byte   W96
@  #07 @040   ----------------------------------------
 .byte   W96
@  #07 @041   ----------------------------------------
 .byte   W96
@  #07 @042   ----------------------------------------
 .byte   W96
@  #07 @043   ----------------------------------------
 .byte   W96
@  #07 @044   ----------------------------------------
 .byte   W96
@  #07 @045   ----------------------------------------
 .byte   W96
@  #07 @046   ----------------------------------------
 .byte   W96
@  #07 @047   ----------------------------------------
 .byte   W96
@  #07 @048   ----------------------------------------
 .byte   W96
@  #07 @049   ----------------------------------------
 .byte   W96
@  #07 @050   ----------------------------------------
 .byte   W96
@  #07 @051   ----------------------------------------
 .byte   W96
@  #07 @052   ----------------------------------------
Label_CF637D:
 .byte   W12
 .byte   N06 ,An3 ,v127
 .byte   W06
 .byte   N06
 .byte   W18
 .byte   N06
 .byte   W06
 .byte   N06
 .byte   W18
 .byte   N06
 .byte   W06
 .byte   N06
 .byte   W18
 .byte   N06
 .byte   W06
 .byte   N06
 .byte   W06
 .byte   PEND 
@  #07 @053   ----------------------------------------
 .byte   W12
 .byte   Cn4
 .byte   W06
 .byte   N06
 .byte   W18
 .byte   N06
 .byte   W06
 .byte   N06
 .byte   W18
 .byte   Bn3
 .byte   W06
 .byte   N06
 .byte   W18
 .byte   N06
 .byte   W06
 .byte   N06
 .byte   W06
@  #07 @054   ----------------------------------------
 .byte   PATT
  .word Label_CF637D
@  #07 @055   ----------------------------------------
 .byte   W12
 .byte   N06 ,Gs3 ,v127
 .byte   W06
 .byte   N06
 .byte   W18
 .byte   N06
 .byte   W06
 .byte   N06
 .byte   W18
 .byte   En3
 .byte   W06
 .byte   N06
 .byte   W18
 .byte   N06
 .byte   W06
 .byte   N06
 .byte   W06
@  #07 @056   ----------------------------------------
 .byte   W96
@  #07 @057   ----------------------------------------
 .byte   W96
@  #07 @058   ----------------------------------------
 .byte   W96
@  #07 @059   ----------------------------------------
 .byte   W96
@  #07 @060   ----------------------------------------
 .byte   W96
@  #07 @061   ----------------------------------------
 .byte   W96
@  #07 @062   ----------------------------------------
 .byte   W96
@  #07 @063   ----------------------------------------
 .byte   W96
@  #07 @064   ----------------------------------------
 .byte   W96
@  #07 @065   ----------------------------------------
 .byte   W96
@  #07 @066   ----------------------------------------
 .byte   W96
@  #07 @067   ----------------------------------------
 .byte   W96
@  #07 @068   ----------------------------------------
 .byte   W96
@  #07 @069   ----------------------------------------
 .byte   W96
@  #07 @070   ----------------------------------------
 .byte   W96
@  #07 @071   ----------------------------------------
 .byte   W96
@  #07 @072   ----------------------------------------
 .byte   W96
@  #07 @073   ----------------------------------------
 .byte   W96
@  #07 @074   ----------------------------------------
 .byte   W96
@  #07 @075   ----------------------------------------
 .byte   W96
@  #07 @076   ----------------------------------------
 .byte   W96
@  #07 @077   ----------------------------------------
 .byte   W96
@  #07 @078   ----------------------------------------
 .byte   W96
@  #07 @079   ----------------------------------------
 .byte   W96
@  #07 @080   ----------------------------------------
 .byte   W96
@  #07 @081   ----------------------------------------
 .byte   W96
@  #07 @082   ----------------------------------------
 .byte   W96
@  #07 @083   ----------------------------------------
 .byte   W96
@  #07 @084   ----------------------------------------
 .byte   GOTO
  .word Label_CF62CE
 .byte   FINE

@**************** Track 8 (Midi-Chn.7) ****************@

DiscoDescent_008:
@  #08 @000   ----------------------------------------
 .byte   KEYSH , DiscoDescent_key+0
 .byte   VOICE , 30
 .byte   VOL , 64*DiscoDescent_mvl/mxv
 .byte   W96
@  #08 @001   ----------------------------------------
 .byte   W96
@  #08 @002   ----------------------------------------
 .byte   W96
@  #08 @003   ----------------------------------------
 .byte   W96
@  #08 @004   ----------------------------------------
Label_CF63E6:
 .byte   W96
@  #08 @005   ----------------------------------------
 .byte   W96
@  #08 @006   ----------------------------------------
 .byte   W96
@  #08 @007   ----------------------------------------
 .byte   W96
@  #08 @008   ----------------------------------------
 .byte   W96
@  #08 @009   ----------------------------------------
 .byte   W96
@  #08 @010   ----------------------------------------
 .byte   W96
@  #08 @011   ----------------------------------------
 .byte   W96
@  #08 @012   ----------------------------------------
 .byte   W96
@  #08 @013   ----------------------------------------
 .byte   W96
@  #08 @014   ----------------------------------------
 .byte   W96
@  #08 @015   ----------------------------------------
 .byte   W96
@  #08 @016   ----------------------------------------
 .byte   W96
@  #08 @017   ----------------------------------------
 .byte   W96
@  #08 @018   ----------------------------------------
 .byte   W96
@  #08 @019   ----------------------------------------
 .byte   W96
@  #08 @020   ----------------------------------------
 .byte   W96
@  #08 @021   ----------------------------------------
 .byte   W96
@  #08 @022   ----------------------------------------
 .byte   W96
@  #08 @023   ----------------------------------------
 .byte   W96
@  #08 @024   ----------------------------------------
 .byte   W96
@  #08 @025   ----------------------------------------
 .byte   W96
@  #08 @026   ----------------------------------------
 .byte   W96
@  #08 @027   ----------------------------------------
 .byte   W96
@  #08 @028   ----------------------------------------
 .byte   W96
@  #08 @029   ----------------------------------------
 .byte   W96
@  #08 @030   ----------------------------------------
 .byte   W96
@  #08 @031   ----------------------------------------
 .byte   W96
@  #08 @032   ----------------------------------------
 .byte   N36 ,An1 ,v108
 .byte   W42
 .byte   N06
 .byte   W06
 .byte   N42 ,En2
 .byte   W42
 .byte   N03 ,Cn2
 .byte   W03
 .byte   Dn2 ,v092
 .byte   W03
@  #08 @033   ----------------------------------------
 .byte   N48 ,En2 ,v108
 .byte   W48
 .byte   N24 ,Dn2
 .byte   W24
 .byte   N12 ,Gn2
 .byte   W12
 .byte   N06 ,Fs2
 .byte   W06
 .byte   Fn2
 .byte   W06
@  #08 @034   ----------------------------------------
 .byte   N48 ,En2
 .byte   W48
 .byte   N36 ,Cn2
 .byte   W36
 .byte   N06 ,Bn1
 .byte   W06
 .byte   Cn2
 .byte   W06
@  #08 @035   ----------------------------------------
 .byte   Ds2
 .byte   W12
 .byte   Bn1 ,v092
 .byte   W06
 .byte   Ds2 ,v108
 .byte   W12
 .byte   Bn1
 .byte   W06
 .byte   N12 ,Ds2
 .byte   W12
 .byte   N06 ,Ds2 ,v092
 .byte   W06
 .byte   Ds2 ,v108
 .byte   W06
 .byte   Bn1
 .byte   W06
 .byte   Cn2
 .byte   W06
 .byte   Ds2 ,v092
 .byte   W06
 .byte   Ds2 ,v108
 .byte   W06
 .byte   Bn1 ,v092
 .byte   W06
 .byte   Ds2 ,v108
 .byte   W06
@  #08 @036   ----------------------------------------
 .byte   N12 ,An1
 .byte   W12
 .byte   N06
 .byte   W06
 .byte   An1 ,v092
 .byte   W06
 .byte   An2 ,v108
 .byte   W06
 .byte   Bn1
 .byte   W06
 .byte   An1
 .byte   W06
 .byte   An1 ,v092
 .byte   W06
 .byte   An2 ,v108
 .byte   W06
 .byte   Bn1
 .byte   W06
 .byte   An1
 .byte   W06
 .byte   An2
 .byte   W12
 .byte   An1
 .byte   W06
 .byte   N03 ,An2
 .byte   W06
 .byte   N03
 .byte   W03
 .byte   Bn2 ,v092
 .byte   W03
@  #08 @037   ----------------------------------------
 .byte   N42 ,An2 ,v108
 .byte   W42
 .byte   N03
 .byte   W03
 .byte   Bn2 ,v092
 .byte   W03
 .byte   N12 ,Gs2 ,v108
 .byte   W12
 .byte   N06 ,En2
 .byte   W06
 .byte   N12 ,An2
 .byte   W12
 .byte   N06 ,Gs2
 .byte   W06
 .byte   Bn2
 .byte   W06
 .byte   An2
 .byte   W06
@  #08 @038   ----------------------------------------
 .byte   N24 ,Cn3
 .byte   W24
 .byte   N30 ,An2
 .byte   W30
 .byte   N03
 .byte   W03
 .byte   En3 ,v092
 .byte   W03
 .byte   N12 ,An3 ,v108
 .byte   W12
 .byte   N24 ,En3
 .byte   W24
@  #08 @039   ----------------------------------------
 .byte   N42 ,Ds3
 .byte   W42
 .byte   N03 ,Dn3 ,v092
 .byte   W03
 .byte   Ds3
 .byte   W03
 .byte   N24 ,Fn3 ,v108
 .byte   W24
 .byte   N12 ,An2
 .byte   W12
 .byte   N06 ,An3
 .byte   W06
 .byte   An2 ,v092
 .byte   W06
@  #08 @040   ----------------------------------------
 .byte   N60 ,An2 ,v108
 .byte   W60
 .byte   N12 ,En2
 .byte   W12
 .byte   N24 ,En3
 .byte   W24
@  #08 @041   ----------------------------------------
 .byte   Gn3
 .byte   W24
 .byte   En3
 .byte   W24
 .byte   An3
 .byte   W24
 .byte   En3
 .byte   W24
@  #08 @042   ----------------------------------------
 .byte   N60 ,Ds3
 .byte   W60
 .byte   N12 ,Cn3
 .byte   W12
 .byte   N24 ,En3
 .byte   W24
@  #08 @043   ----------------------------------------
 .byte   Ds3
 .byte   W24
 .byte   Bn2
 .byte   W24
 .byte   Cn3
 .byte   W24
 .byte   Bn2
 .byte   W24
@  #08 @044   ----------------------------------------
 .byte   An2
 .byte   W24
 .byte   Bn2
 .byte   W24
 .byte   N12 ,An2
 .byte   W12
 .byte   Bn2
 .byte   W12
 .byte   An2
 .byte   W12
 .byte   En2
 .byte   W12
@  #08 @045   ----------------------------------------
 .byte   N72 ,Fn3
 .byte   W72
 .byte   N24 ,Gn3
 .byte   W24
@  #08 @046   ----------------------------------------
 .byte   N12 ,An3
 .byte   W12
 .byte   En3
 .byte   W12
 .byte   An3
 .byte   W12
 .byte   En3
 .byte   W12
 .byte   N36 ,Ds3
 .byte   W36
 .byte   N60 ,An2
 .byte   W12
@  #08 @047   ----------------------------------------
 .byte   W48
 .byte   N12
 .byte   W12
 .byte   En2
 .byte   W12
 .byte   En3
 .byte   W12
 .byte   Cn3
 .byte   W12
@  #08 @048   ----------------------------------------
 .byte   N36 ,Dn3
 .byte   W36
 .byte   Cn3
 .byte   W36
 .byte   N24 ,Dn3
 .byte   W24
@  #08 @049   ----------------------------------------
 .byte   N12 ,An2
 .byte   W12
 .byte   En2
 .byte   W12
 .byte   An3
 .byte   W12
 .byte   En3
 .byte   W12
 .byte   N36 ,Ds3
 .byte   W36
 .byte   An2
 .byte   W12
@  #08 @050   ----------------------------------------
 .byte   W24
 .byte   N24 ,Ds3
 .byte   W24
 .byte   En3
 .byte   W24
 .byte   N12 ,Gs3
 .byte   W12
 .byte   En3
 .byte   W12
@  #08 @051   ----------------------------------------
 .byte   N96 ,An3
 .byte   W96
@  #08 @052   ----------------------------------------
Label_CF6528:
 .byte   N06 ,An1 ,v084
 .byte   N06 ,En2
 .byte   W06
 .byte   An1
 .byte   N06 ,En2
 .byte   W06
 .byte   N12 ,An1
 .byte   N12 ,En2
 .byte   W24
 .byte   An1
 .byte   N12 ,En2
 .byte   W24
 .byte   An1
 .byte   N12 ,En2
 .byte   W24
 .byte   An1
 .byte   N12 ,En2
 .byte   W12
 .byte   PEND 
@  #08 @053   ----------------------------------------
 .byte   PATT
  .word Label_CF6528
@  #08 @054   ----------------------------------------
 .byte   PATT
  .word Label_CF6528
@  #08 @055   ----------------------------------------
 .byte   PATT
  .word Label_CF6528
@  #08 @056   ----------------------------------------
 .byte   PATT
  .word Label_CF6528
@  #08 @057   ----------------------------------------
Label_CF6558:
 .byte   N06 ,Gn1 ,v084
 .byte   N06 ,Dn2
 .byte   W06
 .byte   Gn1
 .byte   N06 ,Dn2
 .byte   W06
 .byte   N12 ,Gn1
 .byte   N12 ,Dn2
 .byte   W24
 .byte   Gn1
 .byte   N12 ,Dn2
 .byte   W24
 .byte   Gn1
 .byte   N12 ,Dn2
 .byte   W24
 .byte   Gn1
 .byte   N12 ,Dn2
 .byte   W12
 .byte   PEND 
@  #08 @058   ----------------------------------------
Label_CF6574:
 .byte   N06 ,Fn1 ,v084
 .byte   N06 ,Cn2
 .byte   W06
 .byte   Fn1
 .byte   N06 ,Cn2
 .byte   W06
 .byte   N12 ,Fn1
 .byte   N12 ,Cn2
 .byte   W24
 .byte   Fn1
 .byte   N12 ,Cn2
 .byte   W24
 .byte   Fn1
 .byte   N12 ,Cn2
 .byte   W24
 .byte   Fn1
 .byte   N12 ,Cn2
 .byte   W12
 .byte   PEND 
@  #08 @059   ----------------------------------------
Label_CF6590:
 .byte   N06 ,En1 ,v084
 .byte   N06 ,Bn1
 .byte   W06
 .byte   En1
 .byte   N06 ,Bn1
 .byte   W06
 .byte   N12 ,En1
 .byte   N12 ,Bn1
 .byte   W24
 .byte   En1
 .byte   N12 ,Bn1
 .byte   W24
 .byte   En1
 .byte   N12 ,Bn1
 .byte   W24
 .byte   En1
 .byte   N12 ,Bn1
 .byte   W12
 .byte   PEND 
@  #08 @060   ----------------------------------------
 .byte   PATT
  .word Label_CF6528
@  #08 @061   ----------------------------------------
 .byte   PATT
  .word Label_CF6558
@  #08 @062   ----------------------------------------
 .byte   PATT
  .word Label_CF6574
@  #08 @063   ----------------------------------------
 .byte   PATT
  .word Label_CF6590
@  #08 @064   ----------------------------------------
 .byte   W96
@  #08 @065   ----------------------------------------
 .byte   W96
@  #08 @066   ----------------------------------------
 .byte   W96
@  #08 @067   ----------------------------------------
 .byte   W96
@  #08 @068   ----------------------------------------
 .byte   W96
@  #08 @069   ----------------------------------------
 .byte   W96
@  #08 @070   ----------------------------------------
 .byte   W96
@  #08 @071   ----------------------------------------
 .byte   W96
@  #08 @072   ----------------------------------------
Label_CF65C8:
 .byte   N06 ,An1 ,v092
 .byte   N06 ,An2 ,v088
 .byte   W06
 .byte   An1 ,v092
 .byte   N06 ,An2 ,v088
 .byte   W06
 .byte   N12 ,An1 ,v108
 .byte   N12 ,An2
 .byte   W24
 .byte   An1
 .byte   N12 ,An2
 .byte   W24
 .byte   An1
 .byte   N12 ,An2
 .byte   W24
 .byte   An1
 .byte   N12 ,An2
 .byte   W12
 .byte   PEND 
@  #08 @073   ----------------------------------------
 .byte   PATT
  .word Label_CF65C8
@  #08 @074   ----------------------------------------
 .byte   PATT
  .word Label_CF65C8
@  #08 @075   ----------------------------------------
 .byte   PATT
  .word Label_CF65C8
@  #08 @076   ----------------------------------------
 .byte   PATT
  .word Label_CF65C8
@  #08 @077   ----------------------------------------
 .byte   PATT
  .word Label_CF65C8
@  #08 @078   ----------------------------------------
 .byte   PATT
  .word Label_CF65C8
@  #08 @079   ----------------------------------------
 .byte   PATT
  .word Label_CF65C8
@  #08 @080   ----------------------------------------
 .byte   PATT
  .word Label_CF65C8
@  #08 @081   ----------------------------------------
 .byte   PATT
  .word Label_CF65C8
@  #08 @082   ----------------------------------------
 .byte   PATT
  .word Label_CF65C8
@  #08 @083   ----------------------------------------
 .byte   PATT
  .word Label_CF65C8
@  #08 @084   ----------------------------------------
 .byte   GOTO
  .word Label_CF63E6
 .byte   FINE

@**************** Track 9 (Midi-Chn.8) ****************@

DiscoDescent_009:
@  #09 @000   ----------------------------------------
 .byte   KEYSH , DiscoDescent_key+0
 .byte   VOICE , 2
 .byte   VOL , 33*DiscoDescent_mvl/mxv
 .byte   W96
@  #09 @001   ----------------------------------------
 .byte   W96
@  #09 @002   ----------------------------------------
 .byte   W96
@  #09 @003   ----------------------------------------
 .byte   W96
@  #09 @004   ----------------------------------------
Label_0100000A:
 .byte   W96
@  #09 @005   ----------------------------------------
 .byte   W96
@  #09 @006   ----------------------------------------
 .byte   W96
@  #09 @007   ----------------------------------------
 .byte   W96
@  #09 @008   ----------------------------------------
 .byte   W96
@  #09 @009   ----------------------------------------
 .byte   W96
@  #09 @010   ----------------------------------------
 .byte   W96
@  #09 @011   ----------------------------------------
 .byte   W96
@  #09 @012   ----------------------------------------
 .byte   W96
@  #09 @013   ----------------------------------------
 .byte   W96
@  #09 @014   ----------------------------------------
 .byte   W96
@  #09 @015   ----------------------------------------
 .byte   W96
@  #09 @016   ----------------------------------------
 .byte   W96
@  #09 @017   ----------------------------------------
 .byte   W96
@  #09 @018   ----------------------------------------
 .byte   W96
@  #09 @019   ----------------------------------------
 .byte   W96
@  #09 @020   ----------------------------------------
 .byte   W96
@  #09 @021   ----------------------------------------
 .byte   W96
@  #09 @022   ----------------------------------------
 .byte   W96
@  #09 @023   ----------------------------------------
 .byte   W96
@  #09 @024   ----------------------------------------
 .byte   W96
@  #09 @025   ----------------------------------------
 .byte   W96
@  #09 @026   ----------------------------------------
 .byte   W96
@  #09 @027   ----------------------------------------
 .byte   W96
@  #09 @028   ----------------------------------------
 .byte   W96
@  #09 @029   ----------------------------------------
 .byte   W96
@  #09 @030   ----------------------------------------
 .byte   W96
@  #09 @031   ----------------------------------------
 .byte   W96
@  #09 @032   ----------------------------------------
 .byte   W96
@  #09 @033   ----------------------------------------
 .byte   W96
@  #09 @034   ----------------------------------------
 .byte   W96
@  #09 @035   ----------------------------------------
 .byte   W96
@  #09 @036   ----------------------------------------
 .byte   W96
@  #09 @037   ----------------------------------------
 .byte   W96
@  #09 @038   ----------------------------------------
 .byte   W96
@  #09 @039   ----------------------------------------
 .byte   W96
@  #09 @040   ----------------------------------------
Label_0100002E:
 .byte   N06 ,An3 ,v127
 .byte   W12
 .byte   Cn4
 .byte   W06
 .byte   An3
 .byte   W06
 .byte   N12 ,Ds4
 .byte   W12
 .byte   Dn4
 .byte   W12
 .byte   N06 ,Cn4
 .byte   W06
 .byte   Dn4
 .byte   W06
 .byte   Cn4
 .byte   W06
 .byte   An3
 .byte   W12
 .byte   Gn3
 .byte   W06
 .byte   An3
 .byte   W12
 .byte   PEND 
@  #09 @041   ----------------------------------------
 .byte   N06
 .byte   W12
 .byte   Cn4
 .byte   W06
 .byte   An3
 .byte   W06
 .byte   N12 ,Ds4
 .byte   W12
 .byte   Dn4
 .byte   W12
 .byte   N06 ,Cn4
 .byte   W06
 .byte   Dn4
 .byte   W06
 .byte   Cn4
 .byte   W06
 .byte   An3
 .byte   W06
 .byte   An4
 .byte   W06
 .byte   An3
 .byte   W06
 .byte   Ds4
 .byte   W06
 .byte   En4
 .byte   W06
@  #09 @042   ----------------------------------------
 .byte   PATT
  .word Label_0100002E
@  #09 @043   ----------------------------------------
 .byte   N06 ,An3 ,v127
 .byte   W12
 .byte   Bn3
 .byte   W06
 .byte   An3
 .byte   W06
 .byte   N12 ,Cn4
 .byte   W12
 .byte   Bn3
 .byte   W12
 .byte   N06
 .byte   W06
 .byte   An3
 .byte   W06
 .byte   Dn4
 .byte   W06
 .byte   An3
 .byte   W06
 .byte   En4
 .byte   W06
 .byte   Cn4
 .byte   W06
 .byte   Bn3
 .byte   W06
 .byte   An3
 .byte   W06
@  #09 @044   ----------------------------------------
 .byte   En4
 .byte   W06
 .byte   Cn4
 .byte   W06
 .byte   Gn4
 .byte   W06
 .byte   En4
 .byte   W06
 .byte   Cn5
 .byte   W06
 .byte   En4
 .byte   W06
 .byte   Gn4
 .byte   W06
 .byte   En4
 .byte   W06
 .byte   Ds4
 .byte   W06
 .byte   Bn3
 .byte   W06
 .byte   Fs4
 .byte   W06
 .byte   Ds4
 .byte   W06
 .byte   Bn4
 .byte   W06
 .byte   Ds4
 .byte   W06
 .byte   Fs4
 .byte   W06
 .byte   Ds4
 .byte   W06
@  #09 @045   ----------------------------------------
 .byte   Bn3
 .byte   W06
 .byte   An3
 .byte   W06
 .byte   Bn3
 .byte   W06
 .byte   En4
 .byte   W06
 .byte   Bn3
 .byte   W06
 .byte   An3
 .byte   W06
 .byte   Cn4
 .byte   W06
 .byte   An3
 .byte   W06
 .byte   Bn3
 .byte   W06
 .byte   An3
 .byte   W06
 .byte   Bn3
 .byte   W06
 .byte   En4
 .byte   W06
 .byte   Bn3
 .byte   W06
 .byte   An3
 .byte   W06
 .byte   Cn4
 .byte   W06
 .byte   An3
 .byte   W06
@  #09 @046   ----------------------------------------
 .byte   Bn3
 .byte   W06
 .byte   An3
 .byte   W06
 .byte   Bn3
 .byte   W06
 .byte   Ds4
 .byte   W06
 .byte   En4
 .byte   W06
 .byte   An4
 .byte   W06
 .byte   En4
 .byte   W06
 .byte   Cn4
 .byte   W06
 .byte   Ds4
 .byte   W06
 .byte   Dn4
 .byte   W06
 .byte   Cn4
 .byte   W06
 .byte   An3
 .byte   W06
 .byte   Cn4
 .byte   W06
 .byte   An3
 .byte   W06
 .byte   Ds4
 .byte   W06
 .byte   En4
 .byte   W06
@  #09 @047   ----------------------------------------
 .byte   Cn4
 .byte   W06
 .byte   An3
 .byte   W06
 .byte   Gn3
 .byte   W06
 .byte   En3
 .byte   W06
 .byte   Gn3
 .byte   W06
 .byte   An3
 .byte   W06
 .byte   Cn4
 .byte   W06
 .byte   En4
 .byte   W06
 .byte   An3
 .byte   W06
 .byte   En3
 .byte   W06
 .byte   An3
 .byte   W06
 .byte   Cn4
 .byte   W06
 .byte   En4
 .byte   W06
 .byte   Dn4
 .byte   W06
 .byte   Cn4
 .byte   W06
 .byte   An3
 .byte   W06
@  #09 @048   ----------------------------------------
 .byte   Dn4
 .byte   W06
 .byte   Cn4
 .byte   W06
 .byte   An3
 .byte   W06
 .byte   Gn3
 .byte   W06
 .byte   An3
 .byte   W06
 .byte   Gn3
 .byte   W06
 .byte   Cn4
 .byte   W06
 .byte   Dn4
 .byte   W06
 .byte   Cn4 ,v116
 .byte   W06
 .byte   An3 ,v127
 .byte   W06
 .byte   Cn4
 .byte   W06
 .byte   Dn4
 .byte   W06
 .byte   Cn4
 .byte   W06
 .byte   An3
 .byte   W06
 .byte   Gn3
 .byte   W06
 .byte   An3
 .byte   W06
@  #09 @049   ----------------------------------------
 .byte   Cn4
 .byte   W06
 .byte   An3
 .byte   W06
 .byte   Cn4
 .byte   W06
 .byte   En4
 .byte   W06
 .byte   An4
 .byte   W06
 .byte   En4
 .byte   W06
 .byte   Dn4
 .byte   W06
 .byte   Cn4
 .byte   W06
 .byte   Ds4
 .byte   W06
 .byte   Dn4
 .byte   W06
 .byte   Cn4
 .byte   W06
 .byte   An3
 .byte   W06
 .byte   Cn4
 .byte   W06
 .byte   An3
 .byte   W06
 .byte   Ds4
 .byte   W06
 .byte   En4
 .byte   W06
@  #09 @050   ----------------------------------------
 .byte   Gs4
 .byte   W06
 .byte   En4
 .byte   W06
 .byte   Bn3
 .byte   W06
 .byte   An3
 .byte   W06
 .byte   Bn3
 .byte   W06
 .byte   Dn4
 .byte   W06
 .byte   Ds4
 .byte   W06
 .byte   En4
 .byte   W06
 .byte   Gn4
 .byte   W06
 .byte   En4
 .byte   W06
 .byte   Bn3
 .byte   W06
 .byte   Gs3
 .byte   W06
 .byte   En3
 .byte   W06
 .byte   Gs3
 .byte   W06
 .byte   Bn3
 .byte   W06
 .byte   En4
 .byte   W06
@  #09 @051   ----------------------------------------
 .byte   An4
 .byte   W06
 .byte   En4
 .byte   W06
 .byte   Cn4
 .byte   W06
 .byte   En4
 .byte   W06
 .byte   Fn4
 .byte   W12
 .byte   En4
 .byte   W06
 .byte   Dn4
 .byte   W06
 .byte   Cn4
 .byte   W12
 .byte   N06
 .byte   W06
 .byte   Dn4
 .byte   W06
 .byte   Ds4
 .byte   W06
 .byte   Dn4
 .byte   W06
 .byte   Cn4
 .byte   W06
 .byte   An3
 .byte   W06
@  #09 @052   ----------------------------------------
 .byte   W96
@  #09 @053   ----------------------------------------
 .byte   W96
@  #09 @054   ----------------------------------------
 .byte   W96
@  #09 @055   ----------------------------------------
 .byte   W96
@  #09 @056   ----------------------------------------
 .byte   W96
@  #09 @057   ----------------------------------------
 .byte   W96
@  #09 @058   ----------------------------------------
 .byte   W96
@  #09 @059   ----------------------------------------
 .byte   W96
@  #09 @060   ----------------------------------------
 .byte   W96
@  #09 @061   ----------------------------------------
 .byte   W96
@  #09 @062   ----------------------------------------
 .byte   W96
@  #09 @063   ----------------------------------------
 .byte   W96
@  #09 @064   ----------------------------------------
 .byte   W96
@  #09 @065   ----------------------------------------
 .byte   W96
@  #09 @066   ----------------------------------------
 .byte   W96
@  #09 @067   ----------------------------------------
 .byte   W96
@  #09 @068   ----------------------------------------
 .byte   W96
@  #09 @069   ----------------------------------------
 .byte   W96
@  #09 @070   ----------------------------------------
 .byte   W96
@  #09 @071   ----------------------------------------
 .byte   W96
@  #09 @072   ----------------------------------------
 .byte   W96
@  #09 @073   ----------------------------------------
 .byte   W96
@  #09 @074   ----------------------------------------
 .byte   W96
@  #09 @075   ----------------------------------------
 .byte   W96
@  #09 @076   ----------------------------------------
 .byte   W96
@  #09 @077   ----------------------------------------
 .byte   W96
@  #09 @078   ----------------------------------------
 .byte   W96
@  #09 @079   ----------------------------------------
 .byte   W96
@  #09 @080   ----------------------------------------
 .byte   W96
@  #09 @081   ----------------------------------------
 .byte   W96
@  #09 @082   ----------------------------------------
 .byte   W96
@  #09 @083   ----------------------------------------
 .byte   W96
@  #09 @084   ----------------------------------------
 .byte   GOTO
  .word Label_0100000A
 .byte   FINE

@**************** Track 10 (Midi-Chn.9) ****************@

DiscoDescent_010:
@  #10 @000   ----------------------------------------
 .byte   KEYSH , DiscoDescent_key+0
 .byte   VOICE , 102
 .byte   VOL , 29*DiscoDescent_mvl/mxv
 .byte   W96
@  #10 @001   ----------------------------------------
 .byte   W96
@  #10 @002   ----------------------------------------
 .byte   W96
@  #10 @003   ----------------------------------------
 .byte   W96
@  #10 @004   ----------------------------------------
Label_CF6C7A:
 .byte   W96
@  #10 @005   ----------------------------------------
 .byte   W96
@  #10 @006   ----------------------------------------
 .byte   W96
@  #10 @007   ----------------------------------------
 .byte   W96
@  #10 @008   ----------------------------------------
 .byte   W96
@  #10 @009   ----------------------------------------
 .byte   W96
@  #10 @010   ----------------------------------------
 .byte   W96
@  #10 @011   ----------------------------------------
 .byte   W96
@  #10 @012   ----------------------------------------
 .byte   W96
@  #10 @013   ----------------------------------------
 .byte   W96
@  #10 @014   ----------------------------------------
 .byte   W96
@  #10 @015   ----------------------------------------
 .byte   W96
@  #10 @016   ----------------------------------------
 .byte   W96
@  #10 @017   ----------------------------------------
 .byte   W96
@  #10 @018   ----------------------------------------
 .byte   W96
@  #10 @019   ----------------------------------------
 .byte   W96
@  #10 @020   ----------------------------------------
 .byte   W96
@  #10 @021   ----------------------------------------
 .byte   W96
@  #10 @022   ----------------------------------------
 .byte   W96
@  #10 @023   ----------------------------------------
 .byte   W96
@  #10 @024   ----------------------------------------
 .byte   W96
@  #10 @025   ----------------------------------------
 .byte   W96
@  #10 @026   ----------------------------------------
 .byte   W96
@  #10 @027   ----------------------------------------
 .byte   W96
@  #10 @028   ----------------------------------------
 .byte   W96
@  #10 @029   ----------------------------------------
 .byte   W96
@  #10 @030   ----------------------------------------
 .byte   W96
@  #10 @031   ----------------------------------------
 .byte   W96
@  #10 @032   ----------------------------------------
 .byte   W96
@  #10 @033   ----------------------------------------
 .byte   W96
@  #10 @034   ----------------------------------------
 .byte   W96
@  #10 @035   ----------------------------------------
 .byte   W96
@  #10 @036   ----------------------------------------
 .byte   W96
@  #10 @037   ----------------------------------------
 .byte   W96
@  #10 @038   ----------------------------------------
 .byte   W96
@  #10 @039   ----------------------------------------
 .byte   W96
@  #10 @040   ----------------------------------------
 .byte   W96
@  #10 @041   ----------------------------------------
 .byte   W96
@  #10 @042   ----------------------------------------
 .byte   W96
@  #10 @043   ----------------------------------------
 .byte   W96
@  #10 @044   ----------------------------------------
 .byte   W96
@  #10 @045   ----------------------------------------
 .byte   W96
@  #10 @046   ----------------------------------------
 .byte   W96
@  #10 @047   ----------------------------------------
 .byte   W96
@  #10 @048   ----------------------------------------
 .byte   W96
@  #10 @049   ----------------------------------------
 .byte   W96
@  #10 @050   ----------------------------------------
 .byte   W96
@  #10 @051   ----------------------------------------
 .byte   W96
@  #10 @052   ----------------------------------------
 .byte   W96
@  #10 @053   ----------------------------------------
 .byte   W96
@  #10 @054   ----------------------------------------
 .byte   W96
@  #10 @055   ----------------------------------------
 .byte   W96
@  #10 @056   ----------------------------------------
 .byte   W96
@  #10 @057   ----------------------------------------
 .byte   W96
@  #10 @058   ----------------------------------------
 .byte   W96
@  #10 @059   ----------------------------------------
 .byte   W96
@  #10 @060   ----------------------------------------
 .byte   W42
 .byte   N06 ,An1 ,v127
 .byte   W06
 .byte   N48 ,En2
 .byte   W48
@  #10 @061   ----------------------------------------
 .byte   W36
 .byte   N12 ,An1
 .byte   W12
 .byte   N24 ,En2
 .byte   W24
 .byte   Fn2
 .byte   W24
@  #10 @062   ----------------------------------------
 .byte   N48 ,Cn2
 .byte   W48
 .byte   An1
 .byte   W48
@  #10 @063   ----------------------------------------
 .byte   N36 ,Cn2
 .byte   W36
 .byte   N06 ,Bn1
 .byte   W06
 .byte   An1
 .byte   W06
 .byte   N24 ,Bn1
 .byte   W24
 .byte   Gs1
 .byte   W24
@  #10 @064   ----------------------------------------
 .byte   N48 ,Cn2
 .byte   W48
 .byte   Gn2
 .byte   W48
@  #10 @065   ----------------------------------------
 .byte   An2
 .byte   W48
 .byte   N24 ,Cn3
 .byte   W24
 .byte   En3
 .byte   W24
@  #10 @066   ----------------------------------------
 .byte   Fn3
 .byte   W24
 .byte   Cn3
 .byte   W24
 .byte   Fn3
 .byte   W24
 .byte   Cn4
 .byte   W24
@  #10 @067   ----------------------------------------
 .byte   N36 ,An3
 .byte   W36
 .byte   N06 ,Gs3
 .byte   W06
 .byte   An3
 .byte   W06
 .byte   N48 ,Bn3
 .byte   W48
@  #10 @068   ----------------------------------------
 .byte   W96
@  #10 @069   ----------------------------------------
 .byte   W96
@  #10 @070   ----------------------------------------
 .byte   W96
@  #10 @071   ----------------------------------------
 .byte   W96
@  #10 @072   ----------------------------------------
 .byte   W96
@  #10 @073   ----------------------------------------
 .byte   W96
@  #10 @074   ----------------------------------------
 .byte   W96
@  #10 @075   ----------------------------------------
 .byte   W96
@  #10 @076   ----------------------------------------
 .byte   W96
@  #10 @077   ----------------------------------------
 .byte   W96
@  #10 @078   ----------------------------------------
 .byte   W96
@  #10 @079   ----------------------------------------
 .byte   W96
@  #10 @080   ----------------------------------------
 .byte   W96
@  #10 @081   ----------------------------------------
 .byte   W96
@  #10 @082   ----------------------------------------
 .byte   W96
@  #10 @083   ----------------------------------------
 .byte   W96
@  #10 @084   ----------------------------------------
 .byte   GOTO
  .word Label_CF6C7A
 .byte   FINE

@**************** Track 11 (Midi-Chn.10) ****************@

DiscoDescent_011:
@  #11 @000   ----------------------------------------
 .byte   KEYSH , DiscoDescent_key+0
 .byte   VOICE , 30
 .byte   VOL , 64*DiscoDescent_mvl/mxv
 .byte   N06 ,An1 ,v124
 .byte   N06 ,An2
 .byte   W06
 .byte   An1 ,v096
 .byte   N06 ,An2
 .byte   W06
 .byte   An1 ,v108
 .byte   N06 ,An2
 .byte   W06
 .byte   An1 ,v084
 .byte   N06 ,An2
 .byte   W06
 .byte   An1 ,v096
 .byte   N06 ,An2
 .byte   W06
 .byte   An1 ,v084
 .byte   N06 ,An2
 .byte   W06
 .byte   An1 ,v124
 .byte   N06 ,An2
 .byte   W06
 .byte   An1 ,v096
 .byte   N06 ,An2
 .byte   W06
 .byte   An1 ,v108
 .byte   N06 ,An2
 .byte   W06
 .byte   An1 ,v084
 .byte   N06 ,An2
 .byte   W06
 .byte   An1 ,v096
 .byte   N06 ,An2
 .byte   W06
 .byte   An1 ,v084
 .byte   N06 ,An2
 .byte   W06
 .byte   Cn2 ,v124
 .byte   N06 ,Cn3
 .byte   W06
 .byte   Cn2 ,v096
 .byte   N06 ,Cn3
 .byte   W06
 .byte   Cn2 ,v104
 .byte   N06 ,Cn3
 .byte   W06
 .byte   Cn2 ,v084
 .byte   N06 ,Cn3
 .byte   W06
@  #11 @001   ----------------------------------------
 .byte   An1 ,v124
 .byte   N06 ,An2
 .byte   W06
 .byte   An1 ,v096
 .byte   N06 ,An2
 .byte   W06
 .byte   An1 ,v108
 .byte   N06 ,An2
 .byte   W06
 .byte   An1 ,v084
 .byte   N06 ,An2
 .byte   W06
 .byte   An1 ,v096
 .byte   N06 ,An2
 .byte   W06
 .byte   An1 ,v084
 .byte   N06 ,An2
 .byte   W06
 .byte   An1 ,v124
 .byte   N06 ,An2
 .byte   W06
 .byte   An1 ,v096
 .byte   N06 ,An2
 .byte   W06
 .byte   An1 ,v108
 .byte   N06 ,An2
 .byte   W06
 .byte   An1 ,v084
 .byte   N06 ,An2
 .byte   W06
 .byte   An1 ,v096
 .byte   N06 ,An2
 .byte   W06
 .byte   An1 ,v084
 .byte   N06 ,An2
 .byte   W06
 .byte   An1 ,v124
 .byte   N06 ,An2
 .byte   W06
 .byte   An1 ,v096
 .byte   N06 ,An2
 .byte   W06
 .byte   An1 ,v104
 .byte   N06 ,An2
 .byte   W06
 .byte   An1 ,v084
 .byte   N06 ,An2
 .byte   W06
@  #11 @002   ----------------------------------------
 .byte   An1 ,v124
 .byte   N06 ,An2
 .byte   W06
 .byte   An1 ,v096
 .byte   N06 ,An2
 .byte   W06
 .byte   An1 ,v108
 .byte   N06 ,An2
 .byte   W06
 .byte   An1 ,v084
 .byte   N06 ,An2
 .byte   W06
 .byte   An1 ,v096
 .byte   N06 ,An2
 .byte   W06
 .byte   An1 ,v084
 .byte   N06 ,An2
 .byte   W06
 .byte   An1 ,v124
 .byte   N06 ,An2
 .byte   W06
 .byte   An1 ,v096
 .byte   N06 ,An2
 .byte   W06
 .byte   An1 ,v108
 .byte   N06 ,An2
 .byte   W06
 .byte   An1 ,v084
 .byte   N06 ,An2
 .byte   W06
 .byte   An1 ,v096
 .byte   N06 ,An2
 .byte   W06
 .byte   An1 ,v084
 .byte   N06 ,An2
 .byte   W06
 .byte   Cn2 ,v124
 .byte   N06 ,Cn3
 .byte   W06
 .byte   Cn2 ,v096
 .byte   N06 ,Cn3
 .byte   W06
 .byte   Cn2 ,v104
 .byte   N06 ,Cn3
 .byte   W06
 .byte   Cn2 ,v084
 .byte   N06 ,Cn3
 .byte   W06
@  #11 @003   ----------------------------------------
 .byte   An1 ,v124
 .byte   N06 ,An2
 .byte   W06
 .byte   An1 ,v096
 .byte   N06 ,An2
 .byte   W06
 .byte   An1 ,v108
 .byte   N06 ,An2
 .byte   W06
 .byte   An1 ,v084
 .byte   N06 ,An2
 .byte   W06
 .byte   An1 ,v096
 .byte   N06 ,An2
 .byte   W06
 .byte   An1 ,v084
 .byte   N06 ,An2
 .byte   W06
 .byte   An1 ,v124
 .byte   N06 ,An2
 .byte   W06
 .byte   An1 ,v096
 .byte   N06 ,An2
 .byte   W06
 .byte   An1 ,v108
 .byte   N06 ,An2
 .byte   W06
 .byte   An1 ,v084
 .byte   N06 ,An2
 .byte   W06
 .byte   An1 ,v096
 .byte   N06 ,An2
 .byte   W06
 .byte   An1 ,v084
 .byte   N06 ,An2
 .byte   W06
 .byte   An1
 .byte   N06 ,An2
 .byte   W06
 .byte   An1 ,v072
 .byte   N06 ,An2
 .byte   W06
 .byte   An1 ,v076
 .byte   N06 ,An2
 .byte   W06
 .byte   An1 ,v064
 .byte   N06 ,An2
 .byte   W06
@  #11 @004   ----------------------------------------
Label_010002F2:
 .byte   W96
@  #11 @005   ----------------------------------------
 .byte   W96
@  #11 @006   ----------------------------------------
 .byte   W96
@  #11 @007   ----------------------------------------
 .byte   W96
@  #11 @008   ----------------------------------------
 .byte   W96
@  #11 @009   ----------------------------------------
 .byte   W96
@  #11 @010   ----------------------------------------
 .byte   W96
@  #11 @011   ----------------------------------------
 .byte   W96
@  #11 @012   ----------------------------------------
 .byte   W96
@  #11 @013   ----------------------------------------
 .byte   W96
@  #11 @014   ----------------------------------------
 .byte   W96
@  #11 @015   ----------------------------------------
 .byte   W96
@  #11 @016   ----------------------------------------
 .byte   W96
@  #11 @017   ----------------------------------------
 .byte   W96
@  #11 @018   ----------------------------------------
 .byte   W96
@  #11 @019   ----------------------------------------
 .byte   W96
@  #11 @020   ----------------------------------------
 .byte   W96
@  #11 @021   ----------------------------------------
 .byte   W96
@  #11 @022   ----------------------------------------
 .byte   W96
@  #11 @023   ----------------------------------------
 .byte   W96
@  #11 @024   ----------------------------------------
 .byte   W96
@  #11 @025   ----------------------------------------
 .byte   W96
@  #11 @026   ----------------------------------------
 .byte   W96
@  #11 @027   ----------------------------------------
 .byte   W96
@  #11 @028   ----------------------------------------
 .byte   W96
@  #11 @029   ----------------------------------------
 .byte   W96
@  #11 @030   ----------------------------------------
 .byte   W96
@  #11 @031   ----------------------------------------
 .byte   W96
@  #11 @032   ----------------------------------------
 .byte   W96
@  #11 @033   ----------------------------------------
 .byte   W96
@  #11 @034   ----------------------------------------
 .byte   W96
@  #11 @035   ----------------------------------------
 .byte   W96
@  #11 @036   ----------------------------------------
 .byte   W96
@  #11 @037   ----------------------------------------
 .byte   W96
@  #11 @038   ----------------------------------------
 .byte   W96
@  #11 @039   ----------------------------------------
 .byte   W96
@  #11 @040   ----------------------------------------
 .byte   W96
@  #11 @041   ----------------------------------------
 .byte   W96
@  #11 @042   ----------------------------------------
 .byte   W96
@  #11 @043   ----------------------------------------
 .byte   W96
@  #11 @044   ----------------------------------------
 .byte   W96
@  #11 @045   ----------------------------------------
 .byte   W96
@  #11 @046   ----------------------------------------
 .byte   W96
@  #11 @047   ----------------------------------------
 .byte   W96
@  #11 @048   ----------------------------------------
 .byte   W96
@  #11 @049   ----------------------------------------
 .byte   W96
@  #11 @050   ----------------------------------------
 .byte   W96
@  #11 @051   ----------------------------------------
 .byte   W96
@  #11 @052   ----------------------------------------
 .byte   W96
@  #11 @053   ----------------------------------------
 .byte   W96
@  #11 @054   ----------------------------------------
 .byte   W96
@  #11 @055   ----------------------------------------
 .byte   W96
@  #11 @056   ----------------------------------------
 .byte   W96
@  #11 @057   ----------------------------------------
 .byte   W96
@  #11 @058   ----------------------------------------
 .byte   W96
@  #11 @059   ----------------------------------------
 .byte   W96
@  #11 @060   ----------------------------------------
 .byte   W96
@  #11 @061   ----------------------------------------
 .byte   W96
@  #11 @062   ----------------------------------------
 .byte   W96
@  #11 @063   ----------------------------------------
 .byte   W96
@  #11 @064   ----------------------------------------
 .byte   W96
@  #11 @065   ----------------------------------------
 .byte   W96
@  #11 @066   ----------------------------------------
 .byte   W96
@  #11 @067   ----------------------------------------
 .byte   W96
@  #11 @068   ----------------------------------------
 .byte   W96
@  #11 @069   ----------------------------------------
 .byte   W96
@  #11 @070   ----------------------------------------
 .byte   W96
@  #11 @071   ----------------------------------------
 .byte   W96
@  #11 @072   ----------------------------------------
 .byte   W96
@  #11 @073   ----------------------------------------
 .byte   W96
@  #11 @074   ----------------------------------------
 .byte   W96
@  #11 @075   ----------------------------------------
 .byte   W96
@  #11 @076   ----------------------------------------
 .byte   W96
@  #11 @077   ----------------------------------------
 .byte   W96
@  #11 @078   ----------------------------------------
 .byte   W96
@  #11 @079   ----------------------------------------
 .byte   W96
@  #11 @080   ----------------------------------------
 .byte   W96
@  #11 @081   ----------------------------------------
 .byte   W96
@  #11 @082   ----------------------------------------
 .byte   W96
@  #11 @083   ----------------------------------------
 .byte   W96
@  #11 @084   ----------------------------------------
 .byte   GOTO
  .word Label_010002F2
 .byte   FINE

@**************** Track 12 (Midi-Chn.11) ****************@

DiscoDescent_012:
@  #12 @000   ----------------------------------------
 .byte   KEYSH , DiscoDescent_key+0
 .byte   VOICE , 56
 .byte   VOL , 42*DiscoDescent_mvl/mxv
 .byte   N06 ,An3 ,v127
 .byte   W06
 .byte   N06
 .byte   W30
 .byte   N06
 .byte   W06
 .byte   N06
 .byte   W30
 .byte   Cn4
 .byte   W06
 .byte   N06
 .byte   W18
@  #12 @001   ----------------------------------------
 .byte   An3
 .byte   W06
 .byte   N06
 .byte   W30
 .byte   N06
 .byte   W06
 .byte   N06
 .byte   W30
 .byte   N06
 .byte   W06
 .byte   N06
 .byte   W18
@  #12 @002   ----------------------------------------
 .byte   N06
 .byte   W06
 .byte   N06
 .byte   W30
 .byte   N06
 .byte   W06
 .byte   N06
 .byte   W30
 .byte   Cn4
 .byte   W06
 .byte   N06
 .byte   W18
@  #12 @003   ----------------------------------------
 .byte   An3
 .byte   W06
 .byte   N06
 .byte   W30
 .byte   N06
 .byte   W06
 .byte   N06
 .byte   W54
@  #12 @004   ----------------------------------------
Label_CF665C:
 .byte   W96
@  #12 @005   ----------------------------------------
 .byte   W96
@  #12 @006   ----------------------------------------
 .byte   W96
@  #12 @007   ----------------------------------------
 .byte   W96
@  #12 @008   ----------------------------------------
 .byte   W96
@  #12 @009   ----------------------------------------
 .byte   W96
@  #12 @010   ----------------------------------------
 .byte   W96
@  #12 @011   ----------------------------------------
 .byte   W96
@  #12 @012   ----------------------------------------
 .byte   W96
@  #12 @013   ----------------------------------------
 .byte   W96
@  #12 @014   ----------------------------------------
 .byte   W96
@  #12 @015   ----------------------------------------
 .byte   W96
@  #12 @016   ----------------------------------------
 .byte   W96
@  #12 @017   ----------------------------------------
 .byte   W96
@  #12 @018   ----------------------------------------
 .byte   W96
@  #12 @019   ----------------------------------------
 .byte   W96
@  #12 @020   ----------------------------------------
 .byte   W96
@  #12 @021   ----------------------------------------
 .byte   W96
@  #12 @022   ----------------------------------------
 .byte   W96
@  #12 @023   ----------------------------------------
 .byte   W96
@  #12 @024   ----------------------------------------
 .byte   W96
@  #12 @025   ----------------------------------------
 .byte   W96
@  #12 @026   ----------------------------------------
 .byte   W96
@  #12 @027   ----------------------------------------
 .byte   W96
@  #12 @028   ----------------------------------------
 .byte   W96
@  #12 @029   ----------------------------------------
 .byte   W96
@  #12 @030   ----------------------------------------
 .byte   W96
@  #12 @031   ----------------------------------------
 .byte   W96
@  #12 @032   ----------------------------------------
 .byte   W96
@  #12 @033   ----------------------------------------
 .byte   W96
@  #12 @034   ----------------------------------------
 .byte   W96
@  #12 @035   ----------------------------------------
 .byte   W96
@  #12 @036   ----------------------------------------
 .byte   W96
@  #12 @037   ----------------------------------------
 .byte   W96
@  #12 @038   ----------------------------------------
 .byte   W96
@  #12 @039   ----------------------------------------
 .byte   W96
@  #12 @040   ----------------------------------------
 .byte   W96
@  #12 @041   ----------------------------------------
 .byte   W96
@  #12 @042   ----------------------------------------
 .byte   W96
@  #12 @043   ----------------------------------------
 .byte   W96
@  #12 @044   ----------------------------------------
 .byte   W96
@  #12 @045   ----------------------------------------
 .byte   W96
@  #12 @046   ----------------------------------------
 .byte   W96
@  #12 @047   ----------------------------------------
 .byte   W96
@  #12 @048   ----------------------------------------
 .byte   W96
@  #12 @049   ----------------------------------------
 .byte   W96
@  #12 @050   ----------------------------------------
 .byte   W96
@  #12 @051   ----------------------------------------
 .byte   W96
@  #12 @052   ----------------------------------------
 .byte   W96
@  #12 @053   ----------------------------------------
 .byte   W96
@  #12 @054   ----------------------------------------
 .byte   W96
@  #12 @055   ----------------------------------------
 .byte   W96
@  #12 @056   ----------------------------------------
 .byte   W96
@  #12 @057   ----------------------------------------
 .byte   W96
@  #12 @058   ----------------------------------------
 .byte   W96
@  #12 @059   ----------------------------------------
 .byte   W96
@  #12 @060   ----------------------------------------
 .byte   W96
@  #12 @061   ----------------------------------------
 .byte   W96
@  #12 @062   ----------------------------------------
 .byte   W96
@  #12 @063   ----------------------------------------
 .byte   W96
@  #12 @064   ----------------------------------------
 .byte   W96
@  #12 @065   ----------------------------------------
 .byte   W96
@  #12 @066   ----------------------------------------
 .byte   W96
@  #12 @067   ----------------------------------------
 .byte   W96
@  #12 @068   ----------------------------------------
Label_CF669C:
 .byte   W12
 .byte   N12 ,En3 ,v127
 .byte   W24
 .byte   N12
 .byte   W24
 .byte   N12
 .byte   W24
 .byte   N12
 .byte   W12
 .byte   PEND 
@  #12 @069   ----------------------------------------
 .byte   PATT
  .word Label_CF669C
@  #12 @070   ----------------------------------------
 .byte   PATT
  .word Label_CF669C
@  #12 @071   ----------------------------------------
 .byte   PATT
  .word Label_CF669C
@  #12 @072   ----------------------------------------
 .byte   W96
@  #12 @073   ----------------------------------------
 .byte   W96
@  #12 @074   ----------------------------------------
 .byte   W96
@  #12 @075   ----------------------------------------
 .byte   W96
@  #12 @076   ----------------------------------------
 .byte   W96
@  #12 @077   ----------------------------------------
 .byte   W96
@  #12 @078   ----------------------------------------
 .byte   W96
@  #12 @079   ----------------------------------------
 .byte   W96
@  #12 @080   ----------------------------------------
 .byte   W96
@  #12 @081   ----------------------------------------
 .byte   W96
@  #12 @082   ----------------------------------------
 .byte   W96
@  #12 @083   ----------------------------------------
 .byte   W96
@  #12 @084   ----------------------------------------
 .byte   GOTO
  .word Label_CF665C
 .byte   FINE

@**************** Track 13 (Midi-Chn.12) ****************@

DiscoDescent_013:
@  #13 @000   ----------------------------------------
 .byte   VOL , 54*DiscoDescent_mvl/mxv
 .byte   KEYSH , DiscoDescent_key+0
 .byte   VOICE , 29
 .byte   W96
@  #13 @001   ----------------------------------------
 .byte   W96
@  #13 @002   ----------------------------------------
 .byte   W96
@  #13 @003   ----------------------------------------
 .byte   W96
@  #13 @004   ----------------------------------------
Label_01000352:
 .byte   W96
@  #13 @005   ----------------------------------------
 .byte   W96
@  #13 @006   ----------------------------------------
 .byte   W96
@  #13 @007   ----------------------------------------
 .byte   W96
@  #13 @008   ----------------------------------------
 .byte   W96
@  #13 @009   ----------------------------------------
 .byte   W96
@  #13 @010   ----------------------------------------
 .byte   W96
@  #13 @011   ----------------------------------------
 .byte   W96
@  #13 @012   ----------------------------------------
 .byte   W96
@  #13 @013   ----------------------------------------
 .byte   W96
@  #13 @014   ----------------------------------------
 .byte   W96
@  #13 @015   ----------------------------------------
 .byte   W96
@  #13 @016   ----------------------------------------
 .byte   W96
@  #13 @017   ----------------------------------------
 .byte   W96
@  #13 @018   ----------------------------------------
 .byte   W96
@  #13 @019   ----------------------------------------
 .byte   W96
@  #13 @020   ----------------------------------------
 .byte   W96
@  #13 @021   ----------------------------------------
 .byte   W96
@  #13 @022   ----------------------------------------
 .byte   W96
@  #13 @023   ----------------------------------------
 .byte   W96
@  #13 @024   ----------------------------------------
 .byte   W96
@  #13 @025   ----------------------------------------
 .byte   W96
@  #13 @026   ----------------------------------------
 .byte   W96
@  #13 @027   ----------------------------------------
 .byte   W96
@  #13 @028   ----------------------------------------
 .byte   W96
@  #13 @029   ----------------------------------------
 .byte   W96
@  #13 @030   ----------------------------------------
 .byte   W96
@  #13 @031   ----------------------------------------
 .byte   W96
@  #13 @032   ----------------------------------------
 .byte   N36 ,An1 ,v120
 .byte   W42
 .byte   N06
 .byte   W06
 .byte   N42 ,En2
 .byte   W42
 .byte   N03 ,Cn2
 .byte   W03
 .byte   Dn2 ,v104
 .byte   W03
@  #13 @033   ----------------------------------------
 .byte   N48 ,En2 ,v120
 .byte   W48
 .byte   N24 ,Dn2
 .byte   W24
 .byte   N12 ,Gn2
 .byte   W12
 .byte   N06 ,Fs2
 .byte   W06
 .byte   Fn2
 .byte   W06
@  #13 @034   ----------------------------------------
 .byte   N48 ,En2
 .byte   W48
 .byte   N36 ,Cn2
 .byte   W36
 .byte   N06 ,Bn1
 .byte   W06
 .byte   Cn2
 .byte   W06
@  #13 @035   ----------------------------------------
 .byte   Ds2
 .byte   W12
 .byte   Bn1 ,v104
 .byte   W06
 .byte   Ds2 ,v120
 .byte   W12
 .byte   Bn1
 .byte   W06
 .byte   N12 ,Ds2
 .byte   W12
 .byte   N06 ,Ds2 ,v104
 .byte   W06
 .byte   Ds2 ,v120
 .byte   W06
 .byte   Bn1
 .byte   W06
 .byte   Cn2
 .byte   W06
 .byte   Ds2 ,v104
 .byte   W06
 .byte   Ds2 ,v120
 .byte   W06
 .byte   Bn1 ,v104
 .byte   W06
 .byte   Ds2 ,v120
 .byte   W06
@  #13 @036   ----------------------------------------
 .byte   N12 ,An1
 .byte   W12
 .byte   N06
 .byte   W06
 .byte   An1 ,v104
 .byte   W06
 .byte   An2 ,v120
 .byte   W06
 .byte   Bn1
 .byte   W06
 .byte   An1
 .byte   W06
 .byte   An1 ,v104
 .byte   W06
 .byte   An2 ,v120
 .byte   W06
 .byte   Bn1
 .byte   W06
 .byte   An1
 .byte   W06
 .byte   An2
 .byte   W12
 .byte   An1
 .byte   W06
 .byte   N03 ,An2
 .byte   W06
 .byte   N03
 .byte   W03
 .byte   Bn2 ,v104
 .byte   W03
@  #13 @037   ----------------------------------------
 .byte   N42 ,An2 ,v120
 .byte   W42
 .byte   N03
 .byte   W03
 .byte   Bn2 ,v104
 .byte   W03
 .byte   N12 ,Gs2 ,v120
 .byte   W12
 .byte   N06 ,En2
 .byte   W06
 .byte   N12 ,An2
 .byte   W12
 .byte   N06 ,Gs2
 .byte   W06
 .byte   Bn2
 .byte   W06
 .byte   An2
 .byte   W06
@  #13 @038   ----------------------------------------
 .byte   N24 ,Cn3
 .byte   W24
 .byte   N30 ,An2
 .byte   W30
 .byte   N03
 .byte   W03
 .byte   En3 ,v104
 .byte   W03
 .byte   N12 ,An3 ,v120
 .byte   W12
 .byte   N24 ,En3
 .byte   W24
@  #13 @039   ----------------------------------------
 .byte   N42 ,Ds3
 .byte   W42
 .byte   N03 ,Dn3 ,v104
 .byte   W03
 .byte   Ds3
 .byte   W03
 .byte   N24 ,Fn3 ,v120
 .byte   W24
 .byte   N12 ,An2
 .byte   W12
 .byte   N06 ,An3
 .byte   W06
 .byte   An2 ,v104
 .byte   W06
@  #13 @040   ----------------------------------------
 .byte   N60 ,An2 ,v120
 .byte   W60
 .byte   N12 ,En2
 .byte   W12
 .byte   N24 ,En3
 .byte   W24
@  #13 @041   ----------------------------------------
 .byte   Gn3
 .byte   W24
 .byte   En3
 .byte   W24
 .byte   An3
 .byte   W24
 .byte   En3
 .byte   W24
@  #13 @042   ----------------------------------------
 .byte   N60 ,Ds3
 .byte   W60
 .byte   N12 ,Cn3
 .byte   W12
 .byte   N24 ,En3
 .byte   W24
@  #13 @043   ----------------------------------------
 .byte   Ds3
 .byte   W24
 .byte   Bn2
 .byte   W24
 .byte   Cn3
 .byte   W24
 .byte   Bn2
 .byte   W24
@  #13 @044   ----------------------------------------
 .byte   An2
 .byte   W24
 .byte   Bn2
 .byte   W24
 .byte   N12 ,An2
 .byte   W12
 .byte   Bn2
 .byte   W12
 .byte   An2
 .byte   W12
 .byte   En2
 .byte   W12
@  #13 @045   ----------------------------------------
 .byte   N72 ,Fn3
 .byte   W72
 .byte   N24 ,Gn3
 .byte   W24
@  #13 @046   ----------------------------------------
 .byte   N12 ,An3
 .byte   W12
 .byte   En3
 .byte   W12
 .byte   An3
 .byte   W12
 .byte   En3
 .byte   W12
 .byte   N36 ,Ds3
 .byte   W36
 .byte   N60 ,An2
 .byte   W12
@  #13 @047   ----------------------------------------
 .byte   W48
 .byte   N12
 .byte   W12
 .byte   En2
 .byte   W12
 .byte   En3
 .byte   W12
 .byte   Cn3
 .byte   W12
@  #13 @048   ----------------------------------------
 .byte   N36 ,Dn3
 .byte   W36
 .byte   Cn3
 .byte   W36
 .byte   N24 ,Dn3
 .byte   W24
@  #13 @049   ----------------------------------------
 .byte   N12 ,An2
 .byte   W12
 .byte   En2
 .byte   W12
 .byte   An3
 .byte   W12
 .byte   En3
 .byte   W12
 .byte   N36 ,Ds3
 .byte   W36
 .byte   An2
 .byte   W12
@  #13 @050   ----------------------------------------
 .byte   W24
 .byte   N24 ,Ds3
 .byte   W24
 .byte   En3
 .byte   W24
 .byte   N12 ,Gs3
 .byte   W12
 .byte   En3
 .byte   W12
@  #13 @051   ----------------------------------------
 .byte   N96 ,An3
 .byte   W96
@  #13 @052   ----------------------------------------
 .byte   W96
@  #13 @053   ----------------------------------------
 .byte   W96
@  #13 @054   ----------------------------------------
 .byte   W96
@  #13 @055   ----------------------------------------
 .byte   W96
@  #13 @056   ----------------------------------------
 .byte   W96
@  #13 @057   ----------------------------------------
 .byte   W96
@  #13 @058   ----------------------------------------
 .byte   W96
@  #13 @059   ----------------------------------------
 .byte   W96
@  #13 @060   ----------------------------------------
 .byte   W96
@  #13 @061   ----------------------------------------
 .byte   W96
@  #13 @062   ----------------------------------------
 .byte   W96
@  #13 @063   ----------------------------------------
 .byte   W96
@  #13 @064   ----------------------------------------
 .byte   W96
@  #13 @065   ----------------------------------------
 .byte   W96
@  #13 @066   ----------------------------------------
 .byte   W96
@  #13 @067   ----------------------------------------
 .byte   W96
@  #13 @068   ----------------------------------------
 .byte   W96
@  #13 @069   ----------------------------------------
 .byte   W96
@  #13 @070   ----------------------------------------
 .byte   W96
@  #13 @071   ----------------------------------------
 .byte   W96
@  #13 @072   ----------------------------------------
 .byte   W96
@  #13 @073   ----------------------------------------
 .byte   W96
@  #13 @074   ----------------------------------------
 .byte   W96
@  #13 @075   ----------------------------------------
 .byte   W96
@  #13 @076   ----------------------------------------
 .byte   W96
@  #13 @077   ----------------------------------------
 .byte   W96
@  #13 @078   ----------------------------------------
 .byte   W96
@  #13 @079   ----------------------------------------
 .byte   W96
@  #13 @080   ----------------------------------------
 .byte   W96
@  #13 @081   ----------------------------------------
 .byte   W96
@  #13 @082   ----------------------------------------
 .byte   W96
@  #13 @083   ----------------------------------------
 .byte   W96
@  #13 @084   ----------------------------------------
 .byte   GOTO
  .word Label_01000352
 .byte   FINE

@**************** Track 14 (Midi-Chn.13) ****************@

DiscoDescent_014:
@  #14 @000   ----------------------------------------
 .byte   KEYSH , DiscoDescent_key+0
 .byte   VOICE , 4
 .byte   VOL , 79*DiscoDescent_mvl/mxv
 .byte   W96
@  #14 @001   ----------------------------------------
 .byte   W96
@  #14 @002   ----------------------------------------
 .byte   W96
@  #14 @003   ----------------------------------------
 .byte   W96
@  #14 @004   ----------------------------------------
Label_010004C6:
 .byte   W96
@  #14 @005   ----------------------------------------
 .byte   W96
@  #14 @006   ----------------------------------------
 .byte   W96
@  #14 @007   ----------------------------------------
 .byte   W96
@  #14 @008   ----------------------------------------
 .byte   W96
@  #14 @009   ----------------------------------------
 .byte   W96
@  #14 @010   ----------------------------------------
 .byte   W96
@  #14 @011   ----------------------------------------
 .byte   W96
@  #14 @012   ----------------------------------------
 .byte   W12
 .byte   N12 ,An2 ,v048
 .byte   W24
 .byte   An2 ,v052
 .byte   W24
 .byte   An2 ,v064
 .byte   W24
 .byte   An2 ,v076
 .byte   W12
@  #14 @013   ----------------------------------------
 .byte   W12
 .byte   An2 ,v088
 .byte   W24
 .byte   An2 ,v096
 .byte   W24
 .byte   An2 ,v088
 .byte   W24
 .byte   An2 ,v072
 .byte   W12
@  #14 @014   ----------------------------------------
 .byte   W12
 .byte   An2 ,v056
 .byte   W24
 .byte   An2 ,v068
 .byte   W24
 .byte   An2 ,v084
 .byte   W24
 .byte   An2 ,v092
 .byte   W12
@  #14 @015   ----------------------------------------
 .byte   W12
 .byte   An2 ,v084
 .byte   W24
 .byte   An2 ,v064
 .byte   W24
 .byte   An2 ,v056
 .byte   W24
 .byte   An2 ,v036
 .byte   W12
@  #14 @016   ----------------------------------------
Label_01000503:
 .byte   VOL , 24*DiscoDescent_mvl/mxv
 .byte   W44
 .byte   W02
 .byte   VOL , 2*DiscoDescent_mvl/mxv
 .byte   W01
 .byte   VOL , 2*DiscoDescent_mvl/mxv
 .byte   W01
 .byte   VOL , 2*DiscoDescent_mvl/mxv
 .byte   N06 ,En4 ,v127
 .byte   W01
 .byte   VOL , 2*DiscoDescent_mvl/mxv
 .byte   W01
 .byte   VOL , 2*DiscoDescent_mvl/mxv
 .byte   W01
 .byte   VOL , 2*DiscoDescent_mvl/mxv
 .byte   N06 ,An3
 .byte   W01
 .byte   VOL , 2*DiscoDescent_mvl/mxv
 .byte   W01
 .byte   VOL , 2*DiscoDescent_mvl/mxv
 .byte   W01
 .byte   VOL , 2*DiscoDescent_mvl/mxv
 .byte   N06 ,En4
 .byte   W01
 .byte   VOL , 2*DiscoDescent_mvl/mxv
 .byte   W01
 .byte   VOL , 2*DiscoDescent_mvl/mxv
 .byte   W01
 .byte   VOL , 2*DiscoDescent_mvl/mxv
 .byte   N06 ,An3
 .byte   W01
 .byte   VOL , 2*DiscoDescent_mvl/mxv
 .byte   W01
 .byte   VOL , 2*DiscoDescent_mvl/mxv
 .byte   W01
 .byte   VOL , 2*DiscoDescent_mvl/mxv
 .byte   N06 ,En4
 .byte   W01
 .byte   VOL , 2*DiscoDescent_mvl/mxv
 .byte   W01
 .byte   VOL , 2*DiscoDescent_mvl/mxv
 .byte   W01
 .byte   VOL , 3*DiscoDescent_mvl/mxv
 .byte   N06 ,An3
 .byte   W01
 .byte   VOL , 5*DiscoDescent_mvl/mxv
 .byte   W01
 .byte   VOL , 6*DiscoDescent_mvl/mxv
 .byte   W01
 .byte   VOL , 8*DiscoDescent_mvl/mxv
 .byte   N06 ,En4
 .byte   W01
 .byte   VOL , 9*DiscoDescent_mvl/mxv
 .byte   W01
 .byte   VOL , 11*DiscoDescent_mvl/mxv
 .byte   W01
 .byte   VOL , 12*DiscoDescent_mvl/mxv
 .byte   N06 ,An3
 .byte   W01
 .byte   VOL , 14*DiscoDescent_mvl/mxv
 .byte   W01
 .byte   VOL , 16*DiscoDescent_mvl/mxv
 .byte   W01
 .byte   VOL , 17*DiscoDescent_mvl/mxv
 .byte   N06 ,En4
 .byte   W01
 .byte   VOL , 19*DiscoDescent_mvl/mxv
 .byte   W01
 .byte   VOL , 20*DiscoDescent_mvl/mxv
 .byte   W01
 .byte   VOL , 22*DiscoDescent_mvl/mxv
 .byte   N06 ,An3
 .byte   W01
 .byte   VOL , 24*DiscoDescent_mvl/mxv
 .byte   W01
 .byte   VOL , 25*DiscoDescent_mvl/mxv
 .byte   W01
 .byte   VOL , 26*DiscoDescent_mvl/mxv
 .byte   N06 ,En4
 .byte   W02
 .byte   VOL , 27*DiscoDescent_mvl/mxv
 .byte   W01
 .byte   VOL , 28*DiscoDescent_mvl/mxv
 .byte   N06 ,An3
 .byte   W01
 .byte   VOL , 29*DiscoDescent_mvl/mxv
 .byte   W02
 .byte   VOL , 28*DiscoDescent_mvl/mxv
 .byte   N06 ,En4
 .byte   W02
 .byte   VOL , 27*DiscoDescent_mvl/mxv
 .byte   W01
 .byte   N06 ,An3
 .byte   W01
 .byte   VOL , 26*DiscoDescent_mvl/mxv
 .byte   W02
 .byte   VOL , 25*DiscoDescent_mvl/mxv
 .byte   N06 ,En4
 .byte   W01
 .byte   VOL , 23*DiscoDescent_mvl/mxv
 .byte   W01
 .byte   VOL , 20*DiscoDescent_mvl/mxv
 .byte   W01
 .byte   VOL , 17*DiscoDescent_mvl/mxv
 .byte   N03 ,An3
 .byte   W01
 .byte   VOL , 15*DiscoDescent_mvl/mxv
 .byte   W01
 .byte   VOL , 13*DiscoDescent_mvl/mxv
 .byte   W01
 .byte   PEND 
@  #14 @017   ----------------------------------------
Label_010005B1:
 .byte   VOL , 6*DiscoDescent_mvl/mxv
 .byte   N03 ,An2 ,v127
 .byte   W01
 .byte   VOL , 2*DiscoDescent_mvl/mxv
 .byte   W01
 .byte   VOL , 2*DiscoDescent_mvl/mxv
 .byte   W01
 .byte   VOL , 2*DiscoDescent_mvl/mxv
 .byte   W01
 .byte   VOL , 24*DiscoDescent_mvl/mxv
 .byte   W92
 .byte   PEND 
@  #14 @018   ----------------------------------------
 .byte   PATT
  .word Label_01000503
@  #14 @019   ----------------------------------------
 .byte   PATT
  .word Label_010005B1
@  #14 @020   ----------------------------------------
 .byte   PATT
  .word Label_01000503
@  #14 @021   ----------------------------------------
 .byte   PATT
  .word Label_010005B1
@  #14 @022   ----------------------------------------
 .byte   PATT
  .word Label_01000503
@  #14 @023   ----------------------------------------
 .byte   PATT
  .word Label_010005B1
@  #14 @024   ----------------------------------------
 .byte   W96
@  #14 @025   ----------------------------------------
 .byte   W96
@  #14 @026   ----------------------------------------
 .byte   W96
@  #14 @027   ----------------------------------------
 .byte   W96
@  #14 @028   ----------------------------------------
 .byte   W96
@  #14 @029   ----------------------------------------
 .byte   W96
@  #14 @030   ----------------------------------------
 .byte   W96
@  #14 @031   ----------------------------------------
 .byte   W96
@  #14 @032   ----------------------------------------
 .byte   W96
@  #14 @033   ----------------------------------------
 .byte   W96
@  #14 @034   ----------------------------------------
 .byte   W96
@  #14 @035   ----------------------------------------
 .byte   W96
@  #14 @036   ----------------------------------------
 .byte   W96
@  #14 @037   ----------------------------------------
 .byte   W96
@  #14 @038   ----------------------------------------
 .byte   W96
@  #14 @039   ----------------------------------------
 .byte   W96
@  #14 @040   ----------------------------------------
 .byte   W96
@  #14 @041   ----------------------------------------
 .byte   W96
@  #14 @042   ----------------------------------------
 .byte   W96
@  #14 @043   ----------------------------------------
 .byte   W96
@  #14 @044   ----------------------------------------
 .byte   W96
@  #14 @045   ----------------------------------------
 .byte   W96
@  #14 @046   ----------------------------------------
 .byte   W96
@  #14 @047   ----------------------------------------
 .byte   W96
@  #14 @048   ----------------------------------------
 .byte   W96
@  #14 @049   ----------------------------------------
 .byte   W96
@  #14 @050   ----------------------------------------
 .byte   W96
@  #14 @051   ----------------------------------------
 .byte   W96
@  #14 @052   ----------------------------------------
 .byte   W96
@  #14 @053   ----------------------------------------
 .byte   W96
@  #14 @054   ----------------------------------------
 .byte   W96
@  #14 @055   ----------------------------------------
 .byte   W96
@  #14 @056   ----------------------------------------
 .byte   W96
@  #14 @057   ----------------------------------------
 .byte   W96
@  #14 @058   ----------------------------------------
 .byte   W96
@  #14 @059   ----------------------------------------
 .byte   W96
@  #14 @060   ----------------------------------------
 .byte   W42
 .byte   N06 ,An1 ,v127
 .byte   W06
 .byte   N48 ,En2
 .byte   W48
@  #14 @061   ----------------------------------------
 .byte   W36
 .byte   N12 ,An1
 .byte   W12
 .byte   N24 ,En2
 .byte   W24
 .byte   Fn2
 .byte   W24
@  #14 @062   ----------------------------------------
 .byte   N48 ,Cn2
 .byte   W48
 .byte   An1
 .byte   W48
@  #14 @063   ----------------------------------------
 .byte   N36 ,Cn2
 .byte   W36
 .byte   N06 ,Bn1
 .byte   W06
 .byte   An1
 .byte   W06
 .byte   N24 ,Bn1
 .byte   W24
 .byte   Gs1
 .byte   W24
@  #14 @064   ----------------------------------------
 .byte   N48 ,Cn2
 .byte   W96
@  #14 @065   ----------------------------------------
 .byte   W96
@  #14 @066   ----------------------------------------
 .byte   W96
@  #14 @067   ----------------------------------------
 .byte   W96
@  #14 @068   ----------------------------------------
 .byte   W96
@  #14 @069   ----------------------------------------
 .byte   W96
@  #14 @070   ----------------------------------------
 .byte   W96
@  #14 @071   ----------------------------------------
 .byte   W96
@  #14 @072   ----------------------------------------
 .byte   W96
@  #14 @073   ----------------------------------------
 .byte   W96
@  #14 @074   ----------------------------------------
 .byte   W96
@  #14 @075   ----------------------------------------
 .byte   W96
@  #14 @076   ----------------------------------------
 .byte   W96
@  #14 @077   ----------------------------------------
 .byte   W96
@  #14 @078   ----------------------------------------
 .byte   W96
@  #14 @079   ----------------------------------------
 .byte   W96
@  #14 @080   ----------------------------------------
 .byte   W96
@  #14 @081   ----------------------------------------
 .byte   W96
@  #14 @082   ----------------------------------------
 .byte   W96
@  #14 @083   ----------------------------------------
 .byte   W96
@  #14 @084   ----------------------------------------
 .byte   GOTO
  .word Label_010004C6
 .byte   FINE

@**************** Track 15 (Midi-Chn.14) ****************@

DiscoDescent_015:
@  #15 @000   ----------------------------------------
 .byte   KEYSH , DiscoDescent_key+0
 .byte   VOICE , 124
 .byte   VOL , 64*DiscoDescent_mvl/mxv
 .byte   N06 ,Cn1 ,v127
 .byte   TIE ,An2 ,v112
 .byte   W06
 .byte   N18 ,Cn1 ,v127
 .byte   N06 ,Fs1 ,v108
 .byte   W06
 .byte   Fs1 ,v127
 .byte   W06
 .byte   N18 ,Fs1 ,v120
 .byte   W06
 .byte   N12 ,Dn1 ,v127
 .byte   W12
 .byte   N06 ,Cn1
 .byte   N06 ,Fs1
 .byte   W06
 .byte   N18 ,Cn1
 .byte   N06 ,Fs1 ,v108
 .byte   W06
 .byte   As1
 .byte   W06
 .byte   Gs1 ,v100
 .byte   W06
 .byte   Fs1 ,v116
 .byte   W06
 .byte   N18 ,Fs1 ,v100
 .byte   W06
 .byte   N06 ,Dn1 ,v127
 .byte   W06
 .byte   N18 ,Cn1
 .byte   W06
 .byte   N06 ,Fs1
 .byte   W06
 .byte   N06
 .byte   W06
@  #15 @001   ----------------------------------------
 .byte   Cn1
 .byte   N06 ,Fs1
 .byte   W06
 .byte   N18 ,Cn1
 .byte   N06 ,Fs1 ,v108
 .byte   W06
 .byte   Fs1 ,v127
 .byte   W06
 .byte   N12 ,Fs1 ,v120
 .byte   W06
 .byte   Dn1 ,v127
 .byte   W06
 .byte   N06 ,Fs1
 .byte   W06
 .byte   Cn1
 .byte   N06 ,Fs1
 .byte   W06
 .byte   N18 ,Cn1
 .byte   N06 ,Fs1 ,v108
 .byte   W06
 .byte   As1
 .byte   W06
 .byte   Gs1 ,v100
 .byte   W06
 .byte   Fs1 ,v116
 .byte   W06
 .byte   N18 ,Fs1 ,v100
 .byte   W06
 .byte   N06 ,Dn1 ,v127
 .byte   W06
 .byte   N18 ,Cn1
 .byte   W06
 .byte   N06 ,Fs1
 .byte   W06
 .byte   N06
 .byte   W06
@  #15 @002   ----------------------------------------
 .byte   EOT
 .byte   An2
 .byte   N06 ,Cn1
 .byte   N06 ,Fs1
 .byte   W06
 .byte   N18 ,Cn1
 .byte   N06 ,Fs1 ,v108
 .byte   W06
 .byte   Fs1 ,v127
 .byte   W06
 .byte   N18 ,Fs1 ,v120
 .byte   W06
 .byte   N24 ,Dn1 ,v127
 .byte   W12
 .byte   N06 ,Cn1
 .byte   N06 ,Fs1
 .byte   W06
 .byte   N18 ,Cn1
 .byte   N06 ,Fs1 ,v108
 .byte   W06
 .byte   As1
 .byte   N02 ,An2 ,v028
 .byte   W02
 .byte   N02
 .byte   W02
 .byte   N02
 .byte   W02
 .byte   N06 ,Gs1 ,v100
 .byte   N02 ,An2 ,v032
 .byte   W02
 .byte   N02
 .byte   W02
 .byte   N02
 .byte   W02
 .byte   N06 ,Fs1 ,v116
 .byte   N02 ,An2 ,v036
 .byte   W02
 .byte   N02
 .byte   W02
 .byte   N02
 .byte   W02
 .byte   N18 ,Fs1 ,v100
 .byte   N02 ,An2 ,v040
 .byte   W02
 .byte   N02
 .byte   W02
 .byte   N02
 .byte   W02
 .byte   N06 ,Dn1 ,v127
 .byte   N02 ,An2 ,v044
 .byte   W02
 .byte   N02
 .byte   W02
 .byte   N02
 .byte   W02
 .byte   N18 ,Cn1 ,v127
 .byte   N02 ,An2 ,v048
 .byte   W02
 .byte   N02
 .byte   W02
 .byte   N02
 .byte   W02
 .byte   N06 ,Fs1 ,v127
 .byte   N02 ,An2 ,v052
 .byte   W02
 .byte   N02
 .byte   W02
 .byte   N02
 .byte   W02
 .byte   N06 ,Fs1 ,v127
 .byte   N02 ,An2 ,v056
 .byte   W02
 .byte   N02
 .byte   W02
 .byte   N02
 .byte   W02
@  #15 @003   ----------------------------------------
 .byte   N06 ,Cn1 ,v127
 .byte   N06 ,Fs1
 .byte   N02 ,An2 ,v060
 .byte   W02
 .byte   N02
 .byte   W02
 .byte   N02
 .byte   W02
 .byte   N18 ,Cn1 ,v127
 .byte   N06 ,Fs1 ,v108
 .byte   N02 ,An2 ,v064
 .byte   W02
 .byte   N02
 .byte   W02
 .byte   N02
 .byte   W02
 .byte   N06 ,Fs1 ,v127
 .byte   N02 ,An2 ,v064
 .byte   W02
 .byte   N02
 .byte   W02
 .byte   N02
 .byte   W02
 .byte   N12 ,Fs1 ,v120
 .byte   N02 ,An2 ,v072
 .byte   W02
 .byte   N02
 .byte   W02
 .byte   N02
 .byte   W02
 .byte   N24 ,Dn1 ,v127
 .byte   N02 ,An2 ,v076
 .byte   W02
 .byte   N02
 .byte   W02
 .byte   N02
 .byte   W02
 .byte   N06 ,Fs1 ,v127
 .byte   N02 ,An2 ,v080
 .byte   W02
 .byte   N02
 .byte   W02
 .byte   N02
 .byte   W02
 .byte   N06 ,Fs1 ,v127
 .byte   N02 ,An2 ,v084
 .byte   W02
 .byte   N02
 .byte   W02
 .byte   N02
 .byte   W02
 .byte   N06 ,Fs1 ,v108
 .byte   N02 ,An2 ,v084
 .byte   W02
 .byte   N02
 .byte   W02
 .byte   N02
 .byte   W02
 .byte   N12 ,Dn1
 .byte   N04 ,An2 ,v088
 .byte   W04
 .byte   N04
 .byte   W04
 .byte   N04
 .byte   W04
 .byte   N12 ,Dn1 ,v100
 .byte   N04 ,An2
 .byte   W04
 .byte   N04
 .byte   W04
 .byte   N04
 .byte   W04
 .byte   N06 ,Dn1 ,v104
 .byte   N04 ,An2 ,v112
 .byte   W04
 .byte   N04
 .byte   W02
 .byte   N06 ,Dn1 ,v116
 .byte   W02
 .byte   N04 ,An2 ,v112
 .byte   W04
 .byte   N06 ,Dn1 ,v116
 .byte   N04 ,Fn2
 .byte   N04 ,An2 ,v120
 .byte   W04
 .byte   Fn2 ,v116
 .byte   N04 ,An2 ,v120
 .byte   W02
 .byte   N06 ,Dn1 ,v127
 .byte   W02
 .byte   N04 ,Fn2 ,v116
 .byte   N04 ,An2 ,v120
 .byte   W04
@  #15 @004   ----------------------------------------
Label_010007D8:
 .byte   N12 ,Cn1 ,v127
 .byte   N96 ,Cs2
 .byte   N96 ,An2
 .byte   W12
 .byte   N06 ,Fs1
 .byte   W06
 .byte   N06
 .byte   W06
 .byte   N12 ,Dn1
 .byte   W12
 .byte   N06 ,Fs1 ,v104
 .byte   W06
 .byte   Fs1 ,v127
 .byte   W06
 .byte   N12 ,Cn1
 .byte   W12
 .byte   N06 ,Fs1
 .byte   W06
 .byte   N06
 .byte   W06
 .byte   N12 ,Dn1
 .byte   W12
 .byte   N06 ,Fs1 ,v104
 .byte   W06
 .byte   Fs1 ,v127
 .byte   W06
 .byte   PEND 
@  #15 @005   ----------------------------------------
Label_01000802:
 .byte   N12 ,Cn1 ,v127
 .byte   W12
 .byte   N06 ,Fs1
 .byte   W06
 .byte   N06
 .byte   W06
 .byte   N12 ,Dn1
 .byte   W06
 .byte   N06 ,Fs1 ,v084
 .byte   W06
 .byte   Fs1 ,v104
 .byte   W06
 .byte   Fs1 ,v127
 .byte   W06
 .byte   N12 ,Cn1
 .byte   W12
 .byte   N06 ,Fs1
 .byte   W06
 .byte   N06
 .byte   W06
 .byte   N12 ,Dn1
 .byte   W06
 .byte   N06 ,Fs1 ,v084
 .byte   W06
 .byte   Fs1 ,v104
 .byte   W06
 .byte   Fs1 ,v127
 .byte   W06
 .byte   PEND 
@  #15 @006   ----------------------------------------
 .byte   PATT
  .word Label_01000802
@  #15 @007   ----------------------------------------
 .byte   N12 ,Cn1 ,v127
 .byte   W12
 .byte   N06 ,Fs1
 .byte   W06
 .byte   N06
 .byte   W06
 .byte   N12 ,Dn1
 .byte   W06
 .byte   N06 ,Fs1 ,v084
 .byte   W06
 .byte   Fs1 ,v104
 .byte   W06
 .byte   Fs1 ,v127
 .byte   W06
 .byte   N12 ,Cn1
 .byte   W06
 .byte   N06 ,Dn1 ,v060
 .byte   W06
 .byte   Dn1 ,v076
 .byte   N06 ,Fs1 ,v127
 .byte   W06
 .byte   Dn1 ,v084
 .byte   N06 ,Fs1 ,v127
 .byte   W06
 .byte   Dn1 ,v100
 .byte   W06
 .byte   Dn1 ,v108
 .byte   N06 ,Fs1 ,v088
 .byte   W06
 .byte   Dn1 ,v116
 .byte   N06 ,Fs1 ,v104
 .byte   W06
 .byte   Dn1 ,v127
 .byte   N06 ,Fs1
 .byte   W06
@  #15 @008   ----------------------------------------
 .byte   PATT
  .word Label_01000802
@  #15 @009   ----------------------------------------
 .byte   PATT
  .word Label_01000802
@  #15 @010   ----------------------------------------
 .byte   PATT
  .word Label_01000802
@  #15 @011   ----------------------------------------
 .byte   N12 ,Cn1 ,v127
 .byte   N02 ,An2 ,v032
 .byte   W02
 .byte   N02
 .byte   W02
 .byte   N02
 .byte   W02
 .byte   An2 ,v036
 .byte   W02
 .byte   N02
 .byte   W02
 .byte   N02
 .byte   W02
 .byte   N06 ,Fs1 ,v127
 .byte   N02 ,An2 ,v040
 .byte   W02
 .byte   N02
 .byte   W02
 .byte   N02
 .byte   W02
 .byte   N06 ,Fs1 ,v127
 .byte   N02 ,An2 ,v048
 .byte   W02
 .byte   N02
 .byte   W02
 .byte   N02
 .byte   W02
 .byte   N12 ,Dn1 ,v127
 .byte   N02 ,An2 ,v048
 .byte   W02
 .byte   N02
 .byte   W02
 .byte   N02
 .byte   W02
 .byte   N06 ,Fs1 ,v084
 .byte   N02 ,An2 ,v056
 .byte   W02
 .byte   N02
 .byte   W02
 .byte   N02
 .byte   W02
 .byte   N06 ,Fs1 ,v104
 .byte   N02 ,An2 ,v060
 .byte   W02
 .byte   N02
 .byte   W02
 .byte   N02
 .byte   W02
 .byte   N06 ,Fs1 ,v127
 .byte   N02 ,An2 ,v072
 .byte   W02
 .byte   N02
 .byte   W02
 .byte   N02
 .byte   W02
 .byte   N12 ,Cn1 ,v127
 .byte   N03 ,An2 ,v080
 .byte   W03
 .byte   N03
 .byte   W03
 .byte   An2 ,v088
 .byte   W03
 .byte   N03
 .byte   W03
 .byte   N06 ,Fs1 ,v127
 .byte   N03 ,An2 ,v092
 .byte   W03
 .byte   N03
 .byte   W03
 .byte   N06 ,Fs1 ,v127
 .byte   N03 ,An2 ,v096
 .byte   W03
 .byte   N03
 .byte   W03
 .byte   N12 ,Dn1 ,v127
 .byte   N04 ,An2 ,v100
 .byte   W04
 .byte   N04
 .byte   W02
 .byte   N06 ,Fs1 ,v084
 .byte   W02
 .byte   N04 ,An2 ,v112
 .byte   W04
 .byte   N06 ,Fs1 ,v104
 .byte   N04 ,Fn2 ,v112
 .byte   N04 ,An2
 .byte   W04
 .byte   Fn2
 .byte   N04 ,An2 ,v120
 .byte   W02
 .byte   N06 ,Fs1 ,v127
 .byte   W02
 .byte   N04 ,Fn2 ,v112
 .byte   N04 ,An2 ,v120
 .byte   W04
@  #15 @012   ----------------------------------------
 .byte   N96 ,Cs2 ,v127
 .byte   N96 ,An2
 .byte   W96
@  #15 @013   ----------------------------------------
 .byte   W96
@  #15 @014   ----------------------------------------
 .byte   W96
@  #15 @015   ----------------------------------------
 .byte   W84
 .byte   N06 ,Dn1
 .byte   W06
 .byte   N06
 .byte   W06
@  #15 @016   ----------------------------------------
 .byte   PATT
  .word Label_010007D8
@  #15 @017   ----------------------------------------
Label_01000930:
 .byte   N12 ,Cn1 ,v127
 .byte   W12
 .byte   N06 ,Fs1
 .byte   W06
 .byte   N06
 .byte   W06
 .byte   N12 ,Dn1
 .byte   W12
 .byte   N06 ,Fs1 ,v104
 .byte   W06
 .byte   Fs1 ,v127
 .byte   W06
 .byte   N12 ,Cn1
 .byte   W12
 .byte   N06 ,Fs1
 .byte   W06
 .byte   N06
 .byte   W06
 .byte   N12 ,Dn1
 .byte   W06
 .byte   N06 ,Fs1 ,v084
 .byte   W06
 .byte   Fs1 ,v104
 .byte   W06
 .byte   Fs1 ,v127
 .byte   W06
 .byte   PEND 
@  #15 @018   ----------------------------------------
Label_01000959:
 .byte   N12 ,Cn1 ,v127
 .byte   W12
 .byte   N06 ,Fs1
 .byte   W06
 .byte   N06
 .byte   W06
 .byte   N12 ,Dn1
 .byte   W12
 .byte   N06 ,Fs1 ,v104
 .byte   W06
 .byte   Fs1 ,v127
 .byte   W06
 .byte   N12 ,Cn1
 .byte   W12
 .byte   N06 ,Fs1
 .byte   W06
 .byte   N06
 .byte   W06
 .byte   N12 ,Dn1
 .byte   W12
 .byte   N06 ,Fs1 ,v104
 .byte   W06
 .byte   Fs1 ,v127
 .byte   W06
 .byte   PEND 
@  #15 @019   ----------------------------------------
 .byte   PATT
  .word Label_01000930
@  #15 @020   ----------------------------------------
 .byte   PATT
  .word Label_01000959
@  #15 @021   ----------------------------------------
 .byte   PATT
  .word Label_01000930
@  #15 @022   ----------------------------------------
 .byte   PATT
  .word Label_01000959
@  #15 @023   ----------------------------------------
 .byte   PATT
  .word Label_01000930
@  #15 @024   ----------------------------------------
 .byte   N12 ,Cn1 ,v127
 .byte   N96 ,An2
 .byte   W12
 .byte   N06 ,Fs1
 .byte   W06
 .byte   N06
 .byte   W06
 .byte   N12 ,Dn1
 .byte   N06 ,Fs1
 .byte   W06
 .byte   Fs1 ,v084
 .byte   W06
 .byte   Fs1 ,v104
 .byte   W12
 .byte   N12 ,Cn1 ,v127
 .byte   W12
 .byte   N06 ,Fs1
 .byte   W06
 .byte   N06
 .byte   W06
 .byte   N12 ,Dn1
 .byte   N06 ,Fs1
 .byte   W06
 .byte   Fs1 ,v084
 .byte   W06
 .byte   Fs1 ,v104
 .byte   W12
@  #15 @025   ----------------------------------------
Label_010009C2:
 .byte   N12 ,Cn1 ,v127
 .byte   W12
 .byte   N06 ,Fs1
 .byte   W06
 .byte   N06
 .byte   W06
 .byte   N12 ,Dn1
 .byte   W12
 .byte   N06 ,Fs1 ,v104
 .byte   W06
 .byte   Fs1 ,v127
 .byte   W06
 .byte   N12 ,Cn1
 .byte   W12
 .byte   N06 ,Fs1
 .byte   W06
 .byte   N06
 .byte   W06
 .byte   N12 ,Dn1
 .byte   N06 ,Fs1
 .byte   W06
 .byte   Fs1 ,v084
 .byte   W06
 .byte   Fs1 ,v104
 .byte   W06
 .byte   Fs1 ,v127
 .byte   W06
 .byte   PEND 
@  #15 @026   ----------------------------------------
 .byte   N12 ,Cn1
 .byte   W12
 .byte   N06 ,Fs1
 .byte   W06
 .byte   N06
 .byte   W06
 .byte   N12 ,Dn1
 .byte   N06 ,Fs1
 .byte   W06
 .byte   Fs1 ,v084
 .byte   W06
 .byte   Fs1 ,v104
 .byte   W12
 .byte   N12 ,Cn1 ,v127
 .byte   W12
 .byte   N06 ,Fs1
 .byte   W06
 .byte   N06
 .byte   W06
 .byte   N12 ,Dn1
 .byte   N06 ,Fs1
 .byte   W06
 .byte   Fs1 ,v084
 .byte   W06
 .byte   Fs1 ,v104
 .byte   W12
@  #15 @027   ----------------------------------------
 .byte   PATT
  .word Label_010009C2
@  #15 @028   ----------------------------------------
 .byte   N12 ,Cn1 ,v127
 .byte   N96 ,Cs2
 .byte   N96 ,An2
 .byte   W12
 .byte   N06 ,Fs1 ,v116
 .byte   W06
 .byte   Fs1 ,v108
 .byte   W06
 .byte   N12 ,Dn1 ,v127
 .byte   W12
 .byte   N06 ,Fs1 ,v116
 .byte   W06
 .byte   Fs1 ,v108
 .byte   W06
 .byte   N12 ,Cn1 ,v127
 .byte   W12
 .byte   N06 ,Fs1 ,v116
 .byte   W06
 .byte   Fs1 ,v108
 .byte   W06
 .byte   N12 ,Dn1 ,v127
 .byte   W12
 .byte   N06 ,Fs1 ,v116
 .byte   W06
 .byte   Fs1 ,v108
 .byte   W06
@  #15 @029   ----------------------------------------
 .byte   N12 ,Cn1 ,v127
 .byte   N06 ,Fs1
 .byte   W06
 .byte   Fs1 ,v108
 .byte   W06
 .byte   Fs1 ,v116
 .byte   W06
 .byte   Fs1 ,v108
 .byte   W06
 .byte   N12 ,Dn1 ,v127
 .byte   N06 ,Fs1
 .byte   W06
 .byte   Fs1 ,v108
 .byte   W06
 .byte   Fs1 ,v116
 .byte   W06
 .byte   Fs1 ,v108
 .byte   W06
 .byte   N12 ,Cn1 ,v127
 .byte   N06 ,Fs1
 .byte   W06
 .byte   Fs1 ,v108
 .byte   W06
 .byte   Fs1 ,v116
 .byte   W06
 .byte   Fs1 ,v108
 .byte   W06
 .byte   N12 ,Dn1 ,v127
 .byte   N06 ,Fs1
 .byte   W06
 .byte   Fs1 ,v108
 .byte   W06
 .byte   Fs1 ,v116
 .byte   W06
 .byte   As1 ,v108
 .byte   W06
@  #15 @030   ----------------------------------------
 .byte   N12 ,Cn1 ,v127
 .byte   N06 ,Gs1
 .byte   W06
 .byte   Fs1 ,v108
 .byte   W06
 .byte   Fs1 ,v116
 .byte   W06
 .byte   Fs1 ,v108
 .byte   W06
 .byte   N12 ,Dn1 ,v127
 .byte   N06 ,Fs1
 .byte   W06
 .byte   Fs1 ,v108
 .byte   W06
 .byte   Fs1 ,v116
 .byte   W06
 .byte   Fs1 ,v108
 .byte   W06
 .byte   N12 ,Cn1 ,v127
 .byte   N06 ,Fs1
 .byte   W06
 .byte   Fs1 ,v108
 .byte   W06
 .byte   Fs1 ,v116
 .byte   W06
 .byte   Fs1 ,v108
 .byte   W06
 .byte   N12 ,Dn1 ,v127
 .byte   N06 ,Fs1
 .byte   W06
 .byte   Fs1 ,v108
 .byte   W06
 .byte   Fs1 ,v116
 .byte   W06
 .byte   Fs1 ,v108
 .byte   W06
@  #15 @031   ----------------------------------------
 .byte   N12 ,Cn1 ,v127
 .byte   N06 ,Fs1
 .byte   W06
 .byte   Fs1 ,v108
 .byte   W06
 .byte   Fs1 ,v116
 .byte   W06
 .byte   Fs1 ,v108
 .byte   W06
 .byte   N12 ,Dn1 ,v127
 .byte   N06 ,Fs1
 .byte   W06
 .byte   Fs1 ,v108
 .byte   W06
 .byte   Fs1 ,v116
 .byte   W06
 .byte   Fs1 ,v108
 .byte   W06
 .byte   N12 ,Cn1 ,v127
 .byte   N06 ,Fs1
 .byte   W06
 .byte   Fs1 ,v108
 .byte   W06
 .byte   As1 ,v116
 .byte   W06
 .byte   Gs1 ,v108
 .byte   W06
 .byte   N12 ,Dn1 ,v127
 .byte   N06 ,Fs1
 .byte   W06
 .byte   Fs1 ,v108
 .byte   W06
 .byte   As1 ,v116
 .byte   W06
 .byte   Gs1 ,v108
 .byte   W06
@  #15 @032   ----------------------------------------
 .byte   N24 ,Cn1 ,v127
 .byte   W12
 .byte   N06 ,As1 ,v104
 .byte   W06
 .byte   N18 ,Gs1 ,v127
 .byte   W06
 .byte   N24 ,Cn1
 .byte   N48 ,Dn1
 .byte   W12
 .byte   N24 ,Fs1
 .byte   W12
 .byte   Cn1
 .byte   W12
 .byte   N06 ,Fs1
 .byte   W06
 .byte   N18 ,Fs1 ,v108
 .byte   W06
 .byte   N24 ,Cn1 ,v127
 .byte   N48 ,Dn1
 .byte   W12
 .byte   N24 ,Fs1
 .byte   W12
@  #15 @033   ----------------------------------------
 .byte   Cn1
 .byte   W12
 .byte   N06 ,Fs1
 .byte   W06
 .byte   N18 ,Fs1 ,v108
 .byte   W06
 .byte   N24 ,Cn1 ,v127
 .byte   N48 ,Dn1
 .byte   W12
 .byte   N06 ,As1 ,v100
 .byte   W06
 .byte   N18 ,Gs1 ,v096
 .byte   W06
 .byte   N24 ,Cn1 ,v127
 .byte   W12
 .byte   N06 ,Fs1
 .byte   W06
 .byte   N18 ,Fs1 ,v104
 .byte   W06
 .byte   N24 ,Cn1 ,v127
 .byte   N24 ,Dn1
 .byte   W12
 .byte   N06 ,As1
 .byte   W06
 .byte   N18 ,Gs1
 .byte   W06
@  #15 @034   ----------------------------------------
 .byte   N24 ,Cn1
 .byte   W12
 .byte   N06 ,Fs1
 .byte   W06
 .byte   N18
 .byte   W06
 .byte   N24 ,Cn1
 .byte   N48 ,Dn1
 .byte   W12
 .byte   N24 ,Fs1
 .byte   W12
 .byte   Cn1
 .byte   W12
 .byte   N06 ,Fs1
 .byte   W06
 .byte   N18 ,Fs1 ,v108
 .byte   W06
 .byte   N24 ,Cn1 ,v127
 .byte   N48 ,Dn1
 .byte   W12
 .byte   N24 ,Fs1
 .byte   W12
@  #15 @035   ----------------------------------------
 .byte   Cn1
 .byte   W12
 .byte   N06 ,Fs1
 .byte   W06
 .byte   N18 ,Fs1 ,v108
 .byte   W06
 .byte   N24 ,Cn1 ,v127
 .byte   N48 ,Dn1
 .byte   W12
 .byte   N06 ,As1 ,v100
 .byte   W06
 .byte   N18 ,Gs1 ,v096
 .byte   W06
 .byte   N24 ,Cn1 ,v127
 .byte   W12
 .byte   N06 ,Fs1
 .byte   W06
 .byte   N12 ,Fs1 ,v104
 .byte   W06
 .byte   N24 ,Cn1 ,v127
 .byte   N24 ,Dn1
 .byte   W06
 .byte   N06 ,Fs1 ,v104
 .byte   W06
 .byte   As1
 .byte   W06
 .byte   Gs1
 .byte   W06
@  #15 @036   ----------------------------------------
 .byte   N24 ,Cn1 ,v127
 .byte   W12
 .byte   N06 ,As1 ,v104
 .byte   W06
 .byte   N12 ,Gs1 ,v127
 .byte   W06
 .byte   N24 ,Cn1
 .byte   N48 ,Dn1
 .byte   W06
 .byte   N06 ,Fs1 ,v104
 .byte   W06
 .byte   As1
 .byte   W06
 .byte   N18 ,Gs1
 .byte   W06
 .byte   N24 ,Cn1 ,v127
 .byte   W12
 .byte   N06 ,Fs1
 .byte   W06
 .byte   N18 ,Fs1 ,v108
 .byte   W06
 .byte   N24 ,Cn1 ,v127
 .byte   N48 ,Dn1
 .byte   W12
 .byte   N24 ,Fs1
 .byte   W12
@  #15 @037   ----------------------------------------
Label_01000BD0:
 .byte   N24 ,Cn1 ,v127
 .byte   W12
 .byte   N06 ,Fs1
 .byte   W06
 .byte   As1 ,v108
 .byte   W06
 .byte   N24 ,Cn1 ,v127
 .byte   N48 ,Dn1
 .byte   N12 ,Gs1 ,v104
 .byte   W12
 .byte   N06 ,As1 ,v100
 .byte   W06
 .byte   N18 ,Gs1 ,v096
 .byte   W06
 .byte   N24 ,Cn1 ,v127
 .byte   W12
 .byte   N06 ,Fs1
 .byte   W06
 .byte   N18 ,Fs1 ,v104
 .byte   W06
 .byte   N24 ,Cn1 ,v127
 .byte   N24 ,Dn1
 .byte   W12
 .byte   N06 ,As1 ,v104
 .byte   W06
 .byte   Gs1
 .byte   W06
 .byte   PEND 
@  #15 @038   ----------------------------------------
 .byte   N24 ,Cn1 ,v127
 .byte   W06
 .byte   N06 ,Fs1 ,v104
 .byte   W06
 .byte   As1
 .byte   W06
 .byte   N12 ,Gs1 ,v127
 .byte   W06
 .byte   N24 ,Cn1
 .byte   N48 ,Dn1
 .byte   W06
 .byte   N06 ,Fs1 ,v104
 .byte   W06
 .byte   As1
 .byte   W06
 .byte   N12 ,Gs1
 .byte   W06
 .byte   N24 ,Cn1 ,v127
 .byte   W06
 .byte   N06 ,Fs1 ,v104
 .byte   W06
 .byte   Fs1 ,v127
 .byte   W06
 .byte   Fs1 ,v108
 .byte   W06
 .byte   N24 ,Cn1 ,v127
 .byte   N48 ,Dn1
 .byte   W06
 .byte   N06 ,Fs1 ,v104
 .byte   W06
 .byte   As1
 .byte   W06
 .byte   Gs1
 .byte   W06
@  #15 @039   ----------------------------------------
 .byte   PATT
  .word Label_01000BD0
@  #15 @040   ----------------------------------------
 .byte   N12 ,Cn1 ,v127
 .byte   N96 ,Cs2 ,v108
 .byte   N96 ,An2
 .byte   W12
 .byte   N06 ,Fs1 ,v127
 .byte   W06
 .byte   Fs1 ,v108
 .byte   W06
 .byte   N12 ,Dn1 ,v127
 .byte   W12
 .byte   N06 ,Fs1
 .byte   W06
 .byte   Fs1 ,v108
 .byte   W06
 .byte   N12 ,Cn1 ,v127
 .byte   W12
 .byte   N06 ,Fs1
 .byte   W06
 .byte   Fs1 ,v108
 .byte   W06
 .byte   N12 ,Dn1 ,v127
 .byte   W12
 .byte   N06 ,Fs1
 .byte   W06
 .byte   N06
 .byte   W06
@  #15 @041   ----------------------------------------
Label_01000C6D:
 .byte   N24 ,Cn1 ,v127
 .byte   W12
 .byte   N06 ,Fs1
 .byte   W06
 .byte   Fs1 ,v108
 .byte   W06
 .byte   N24 ,Cn1 ,v127
 .byte   N24 ,Dn1
 .byte   W12
 .byte   N06 ,Fs1
 .byte   W06
 .byte   Fs1 ,v108
 .byte   W06
 .byte   N24 ,Cn1 ,v127
 .byte   W12
 .byte   N06 ,Fs1
 .byte   W06
 .byte   Fs1 ,v108
 .byte   W06
 .byte   N24 ,Cn1 ,v127
 .byte   N24 ,Dn1
 .byte   W12
 .byte   N06 ,Fs1
 .byte   W12
 .byte   PEND 
@  #15 @042   ----------------------------------------
 .byte   PATT
  .word Label_01000C6D
@  #15 @043   ----------------------------------------
 .byte   PATT
  .word Label_01000C6D
@  #15 @044   ----------------------------------------
 .byte   PATT
  .word Label_01000C6D
@  #15 @045   ----------------------------------------
 .byte   PATT
  .word Label_01000C6D
@  #15 @046   ----------------------------------------
 .byte   PATT
  .word Label_01000C6D
@  #15 @047   ----------------------------------------
 .byte   PATT
  .word Label_01000C6D
@  #15 @048   ----------------------------------------
 .byte   PATT
  .word Label_01000C6D
@  #15 @049   ----------------------------------------
 .byte   PATT
  .word Label_01000C6D
@  #15 @050   ----------------------------------------
 .byte   PATT
  .word Label_01000C6D
@  #15 @051   ----------------------------------------
 .byte   N24 ,Cn1 ,v127
 .byte   W12
 .byte   N06 ,Fs1
 .byte   W06
 .byte   Fs1 ,v108
 .byte   W06
 .byte   N24 ,Cn1 ,v127
 .byte   N24 ,Dn1
 .byte   W12
 .byte   N06 ,Fs1
 .byte   W06
 .byte   Fs1 ,v108
 .byte   W06
 .byte   N24 ,Cn1 ,v127
 .byte   W12
 .byte   N06 ,Fs1
 .byte   W06
 .byte   Fs1 ,v108
 .byte   W06
 .byte   N24 ,Cn1 ,v127
 .byte   N06 ,Dn1
 .byte   W06
 .byte   Dn1 ,v108
 .byte   W06
 .byte   N06
 .byte   N06 ,Fs1 ,v127
 .byte   W06
 .byte   Dn1 ,v108
 .byte   W06
@  #15 @052   ----------------------------------------
 .byte   N24 ,Cn1 ,v127
 .byte   N24 ,An2
 .byte   W12
 .byte   Fs1
 .byte   W12
 .byte   Cn1
 .byte   N24 ,Dn1
 .byte   W12
 .byte   Fs1
 .byte   W12
 .byte   Cn1
 .byte   N06 ,As1
 .byte   W06
 .byte   N18 ,Gs1
 .byte   W06
 .byte   N24 ,Fs1
 .byte   W12
 .byte   Cn1
 .byte   N24 ,Dn1
 .byte   W12
 .byte   N06 ,Fs1
 .byte   W06
 .byte   N18
 .byte   W06
@  #15 @053   ----------------------------------------
Label_01000D16:
 .byte   N24 ,Cn1 ,v127
 .byte   W12
 .byte   Fs1
 .byte   W12
 .byte   Cn1
 .byte   N24 ,Dn1
 .byte   W12
 .byte   Fs1
 .byte   W12
 .byte   Cn1
 .byte   N06 ,As1
 .byte   W06
 .byte   N18 ,Gs1
 .byte   W06
 .byte   N24 ,Fs1
 .byte   W12
 .byte   Cn1
 .byte   N24 ,Dn1
 .byte   W12
 .byte   N06 ,Fs1
 .byte   W06
 .byte   N18
 .byte   W06
 .byte   PEND 
@  #15 @054   ----------------------------------------
 .byte   PATT
  .word Label_01000D16
@  #15 @055   ----------------------------------------
 .byte   PATT
  .word Label_01000D16
@  #15 @056   ----------------------------------------
Label_01000D40:
 .byte   N24 ,Cn1 ,v127
 .byte   W12
 .byte   Fs1
 .byte   W12
 .byte   Cn1
 .byte   N24 ,Dn1
 .byte   W12
 .byte   Fs1
 .byte   W12
 .byte   Cn1
 .byte   W12
 .byte   Fs1
 .byte   W12
 .byte   Cn1
 .byte   N24 ,Dn1
 .byte   W12
 .byte   Fs1
 .byte   W12
 .byte   PEND 
@  #15 @057   ----------------------------------------
Label_01000D57:
 .byte   N24 ,Cn1 ,v127
 .byte   W12
 .byte   Fs1
 .byte   W12
 .byte   Cn1
 .byte   N24 ,Dn1
 .byte   W12
 .byte   Fs1
 .byte   W12
 .byte   Cn1
 .byte   W12
 .byte   Fs1
 .byte   W12
 .byte   Cn1
 .byte   N12 ,Dn1
 .byte   W12
 .byte   N06 ,As1
 .byte   W06
 .byte   N18 ,Gs1
 .byte   W06
 .byte   PEND 
@  #15 @058   ----------------------------------------
 .byte   PATT
  .word Label_01000D40
@  #15 @059   ----------------------------------------
 .byte   PATT
  .word Label_01000D57
@  #15 @060   ----------------------------------------
 .byte   PATT
  .word Label_01000D40
@  #15 @061   ----------------------------------------
 .byte   PATT
  .word Label_01000D57
@  #15 @062   ----------------------------------------
 .byte   PATT
  .word Label_01000D40
@  #15 @063   ----------------------------------------
 .byte   N24 ,Cn1 ,v127
 .byte   W12
 .byte   Fs1
 .byte   W12
 .byte   Cn1
 .byte   N24 ,Dn1
 .byte   W12
 .byte   Fs1
 .byte   W12
 .byte   Cn1
 .byte   W12
 .byte   Fs1
 .byte   W12
 .byte   Cn1
 .byte   N24 ,Dn1
 .byte   W12
 .byte   N06 ,As1
 .byte   W06
 .byte   N18 ,Gs1
 .byte   W06
@  #15 @064   ----------------------------------------
 .byte   PATT
  .word Label_01000802
@  #15 @065   ----------------------------------------
 .byte   PATT
  .word Label_01000802
@  #15 @066   ----------------------------------------
 .byte   PATT
  .word Label_01000802
@  #15 @067   ----------------------------------------
 .byte   N12 ,Cn1 ,v127
 .byte   N06 ,Cs1 ,v020
 .byte   N06 ,Ds1
 .byte   W06
 .byte   Cs1 ,v024
 .byte   N06 ,Ds1
 .byte   W06
 .byte   Cs1 ,v032
 .byte   N06 ,Ds1
 .byte   N06 ,Fs1 ,v127
 .byte   W06
 .byte   Cs1 ,v036
 .byte   N06 ,Ds1
 .byte   N06 ,Fs1 ,v127
 .byte   W06
 .byte   N12 ,Dn1
 .byte   N06 ,Ds1 ,v044
 .byte   W06
 .byte   Ds1 ,v048
 .byte   N06 ,Fs1 ,v084
 .byte   W06
 .byte   Cs1 ,v052
 .byte   N06 ,Ds1
 .byte   N06 ,Fs1 ,v104
 .byte   W06
 .byte   Cs1 ,v060
 .byte   N06 ,Ds1
 .byte   N06 ,Fs1 ,v127
 .byte   W06
 .byte   N12 ,Cn1
 .byte   N06 ,Cs1 ,v064
 .byte   N06 ,Ds1
 .byte   W06
 .byte   Cs1 ,v068
 .byte   N06 ,Ds1
 .byte   W06
 .byte   Cs1
 .byte   N06 ,Ds1
 .byte   N06 ,Fs1 ,v127
 .byte   W06
 .byte   Cs1 ,v076
 .byte   N06 ,Ds1
 .byte   N06 ,Fs1 ,v127
 .byte   W06
 .byte   Cs1 ,v084
 .byte   N06 ,Dn1
 .byte   N06 ,Ds1
 .byte   W06
 .byte   Dn1 ,v096
 .byte   N06 ,Ds1 ,v092
 .byte   N06 ,Fs1 ,v084
 .byte   W06
 .byte   Dn1 ,v108
 .byte   N06 ,Ds1 ,v100
 .byte   N06 ,Fs1 ,v104
 .byte   W06
 .byte   Dn1 ,v127
 .byte   N06 ,Ds1 ,v112
 .byte   N06 ,Fs1 ,v127
 .byte   W06
@  #15 @068   ----------------------------------------
 .byte   N24 ,Cn1
 .byte   N06 ,Fs1 ,v024
 .byte   N06 ,Gn2
 .byte   W06
 .byte   Fs1
 .byte   N06 ,Gn2
 .byte   W06
 .byte   Fs1 ,v032
 .byte   N06 ,Gn2 ,v028
 .byte   W06
 .byte   Fs1 ,v032
 .byte   N06 ,Gn2 ,v028
 .byte   W06
 .byte   N24 ,Cn1 ,v127
 .byte   N06 ,Fs1 ,v040
 .byte   N06 ,Gn2 ,v036
 .byte   W06
 .byte   Fs1 ,v040
 .byte   N06 ,Gn2 ,v036
 .byte   W06
 .byte   Fs1 ,v040
 .byte   N06 ,Gn2 ,v044
 .byte   W06
 .byte   Fs1 ,v040
 .byte   N06 ,Gn2 ,v044
 .byte   W06
 .byte   N24 ,Cn1 ,v127
 .byte   N06 ,Fs1 ,v040
 .byte   N06 ,Gn2 ,v060
 .byte   W06
 .byte   Fs1 ,v040
 .byte   N06 ,Gn2 ,v060
 .byte   W06
 .byte   Fs1 ,v040
 .byte   N06 ,Gn2 ,v060
 .byte   W06
 .byte   Fs1 ,v040
 .byte   N06 ,Gn2 ,v060
 .byte   W06
 .byte   N24 ,Cn1 ,v127
 .byte   N06 ,Fs1 ,v040
 .byte   N06 ,Gn2 ,v060
 .byte   W06
 .byte   Fs1 ,v040
 .byte   N06 ,Gn2 ,v060
 .byte   W06
 .byte   Fs1 ,v040
 .byte   N06 ,Gn2 ,v060
 .byte   W06
 .byte   Fs1 ,v040
 .byte   N06 ,Gn2 ,v060
 .byte   W06
@  #15 @069   ----------------------------------------
 .byte   N24 ,Cn1 ,v127
 .byte   N06 ,Fs1 ,v040
 .byte   N06 ,Gn2 ,v060
 .byte   W06
 .byte   Fs1 ,v040
 .byte   N06 ,Gn2 ,v060
 .byte   W06
 .byte   Fs1 ,v044
 .byte   N06 ,Gn2 ,v060
 .byte   W06
 .byte   Fs1 ,v044
 .byte   N06 ,Gn2 ,v060
 .byte   W06
 .byte   N24 ,Cn1 ,v127
 .byte   N06 ,Fs1 ,v044
 .byte   N06 ,Gn2 ,v060
 .byte   W06
 .byte   Fs1 ,v044
 .byte   N06 ,Gn2 ,v060
 .byte   W06
 .byte   Fs1 ,v044
 .byte   N06 ,Gn2 ,v060
 .byte   W06
 .byte   Fs1 ,v044
 .byte   N06 ,Gn2 ,v060
 .byte   W06
 .byte   N24 ,Cn1 ,v127
 .byte   N06 ,Fs1 ,v044
 .byte   N06 ,Gn2 ,v060
 .byte   W06
 .byte   Fs1 ,v044
 .byte   N06 ,Gn2 ,v060
 .byte   W06
 .byte   Fs1 ,v044
 .byte   N06 ,Gn2 ,v060
 .byte   W06
 .byte   Fs1 ,v044
 .byte   N06 ,Gn2 ,v060
 .byte   W06
 .byte   N24 ,Cn1 ,v127
 .byte   N06 ,Fs1 ,v044
 .byte   N06 ,Gn2 ,v068
 .byte   W06
 .byte   Fs1 ,v044
 .byte   N06 ,Gn2 ,v068
 .byte   W06
 .byte   Fs1 ,v044
 .byte   N06 ,Gn2 ,v080
 .byte   W06
 .byte   Fs1 ,v044
 .byte   N06 ,Gn2 ,v080
 .byte   W06
@  #15 @070   ----------------------------------------
 .byte   N24 ,Cn1 ,v127
 .byte   N06 ,Fs1 ,v044
 .byte   N06 ,Gn2 ,v088
 .byte   W06
 .byte   Fs1 ,v044
 .byte   N06 ,Gn2 ,v088
 .byte   W06
 .byte   Fs1 ,v044
 .byte   N06 ,Gn2 ,v088
 .byte   W06
 .byte   Fs1 ,v044
 .byte   N06 ,Gn2 ,v088
 .byte   W06
 .byte   N24 ,Cn1 ,v127
 .byte   N06 ,Fs1 ,v044
 .byte   N06 ,Gn2 ,v088
 .byte   W06
 .byte   Fs1 ,v044
 .byte   N06 ,Gn2 ,v088
 .byte   W06
 .byte   Fs1 ,v044
 .byte   N06 ,Gn2 ,v088
 .byte   W06
 .byte   Fs1 ,v044
 .byte   N06 ,Gn2 ,v088
 .byte   W06
 .byte   N24 ,Cn1 ,v127
 .byte   N06 ,Fs1 ,v044
 .byte   N06 ,Gn2 ,v076
 .byte   W06
 .byte   Fs1 ,v044
 .byte   N06 ,Gn2 ,v076
 .byte   W06
 .byte   Fs1 ,v044
 .byte   N06 ,Gn2 ,v068
 .byte   W06
 .byte   Fs1 ,v044
 .byte   N06 ,Gn2 ,v068
 .byte   W06
 .byte   N24 ,Cn1 ,v127
 .byte   N06 ,Fs1 ,v044
 .byte   N06 ,Gn2 ,v060
 .byte   W06
 .byte   Fs1 ,v044
 .byte   N06 ,Gn2 ,v060
 .byte   W06
 .byte   Fs1 ,v044
 .byte   N06 ,Gn2 ,v048
 .byte   W06
 .byte   Fs1 ,v044
 .byte   N06 ,Gn2 ,v040
 .byte   W06
@  #15 @071   ----------------------------------------
 .byte   N24 ,Cn1 ,v127
 .byte   N06 ,Fs1 ,v040
 .byte   W06
 .byte   N06
 .byte   W06
 .byte   N06
 .byte   W06
 .byte   N06
 .byte   W06
 .byte   N24 ,Cn1 ,v127
 .byte   N06 ,Fs1 ,v040
 .byte   W06
 .byte   N06
 .byte   W06
 .byte   N06
 .byte   W06
 .byte   N06
 .byte   W06
 .byte   N24 ,Cn1 ,v127
 .byte   N06 ,Fs1 ,v040
 .byte   N06 ,An2 ,v020
 .byte   W06
 .byte   Fs1 ,v040
 .byte   N06 ,An2 ,v028
 .byte   W06
 .byte   Fs1 ,v040
 .byte   N06 ,An2 ,v036
 .byte   W06
 .byte   Fs1 ,v040
 .byte   N06 ,An2 ,v052
 .byte   W06
 .byte   N24 ,Cn1 ,v127
 .byte   N06 ,Fs1 ,v040
 .byte   N06 ,An2 ,v068
 .byte   W06
 .byte   Fs1 ,v040
 .byte   N06 ,An2 ,v084
 .byte   W06
 .byte   Fs1 ,v040
 .byte   N06 ,An2 ,v100
 .byte   W06
 .byte   Fs1 ,v040
 .byte   N06 ,An2 ,v112
 .byte   W06
@  #15 @072   ----------------------------------------
 .byte   N24 ,Cn1 ,v127
 .byte   N24 ,An2 ,v096
 .byte   W12
 .byte   Fs1 ,v127
 .byte   W12
 .byte   Cn1
 .byte   N24 ,Dn1
 .byte   W12
 .byte   Fs1
 .byte   W12
 .byte   Cn1
 .byte   W12
 .byte   Fs1
 .byte   W12
 .byte   Cn1
 .byte   N24 ,Dn1
 .byte   W12
 .byte   N12 ,Fs1
 .byte   W12
@  #15 @073   ----------------------------------------
Label_01000FE5:
 .byte   N24 ,Cn1 ,v127
 .byte   W12
 .byte   Fs1
 .byte   W12
 .byte   Cn1
 .byte   N24 ,Dn1
 .byte   W12
 .byte   Fs1
 .byte   W12
 .byte   Cn1
 .byte   W12
 .byte   Fs1
 .byte   W12
 .byte   Cn1
 .byte   N24 ,Dn1
 .byte   W12
 .byte   N12 ,Fs1
 .byte   W12
 .byte   PEND 
@  #15 @074   ----------------------------------------
 .byte   PATT
  .word Label_01000FE5
@  #15 @075   ----------------------------------------
 .byte   PATT
  .word Label_01000FE5
@  #15 @076   ----------------------------------------
 .byte   PATT
  .word Label_01000FE5
@  #15 @077   ----------------------------------------
 .byte   PATT
  .word Label_01000FE5
@  #15 @078   ----------------------------------------
 .byte   PATT
  .word Label_01000FE5
@  #15 @079   ----------------------------------------
 .byte   PATT
  .word Label_01000FE5
@  #15 @080   ----------------------------------------
 .byte   N24 ,Cn1 ,v127
 .byte   N06 ,Dn1 ,v044
 .byte   W06
 .byte   N06
 .byte   W06
 .byte   Dn1 ,v048
 .byte   N24 ,Fs1 ,v127
 .byte   W06
 .byte   N06 ,Dn1 ,v048
 .byte   W06
 .byte   N24 ,Cn1 ,v127
 .byte   N06 ,Dn1
 .byte   W06
 .byte   Dn1 ,v056
 .byte   W06
 .byte   N06
 .byte   N24 ,Fs1 ,v127
 .byte   W06
 .byte   N06 ,Dn1 ,v056
 .byte   W06
 .byte   N24 ,Cn1 ,v127
 .byte   N06 ,Dn1 ,v060
 .byte   W06
 .byte   N06
 .byte   W06
 .byte   N06
 .byte   N24 ,Fs1 ,v127
 .byte   W06
 .byte   N06 ,Dn1 ,v060
 .byte   W06
 .byte   N24 ,Cn1 ,v127
 .byte   N06 ,Dn1
 .byte   W06
 .byte   Dn1 ,v064
 .byte   W06
 .byte   N06
 .byte   N24 ,Fs1 ,v127
 .byte   W06
 .byte   N06 ,Dn1 ,v064
 .byte   W06
@  #15 @081   ----------------------------------------
Label_01001064:
 .byte   N24 ,Cn1 ,v127
 .byte   N06 ,Dn1 ,v064
 .byte   W06
 .byte   N06
 .byte   W06
 .byte   N06
 .byte   N24 ,Fs1 ,v127
 .byte   W06
 .byte   N06 ,Dn1 ,v064
 .byte   W06
 .byte   N24 ,Cn1 ,v127
 .byte   N06 ,Dn1
 .byte   W06
 .byte   Dn1 ,v064
 .byte   W06
 .byte   N06
 .byte   N24 ,Fs1 ,v127
 .byte   W06
 .byte   N06 ,Dn1 ,v064
 .byte   W06
 .byte   N24 ,Cn1 ,v127
 .byte   N06 ,Dn1 ,v064
 .byte   W06
 .byte   N06
 .byte   W06
 .byte   N06
 .byte   N24 ,Fs1 ,v127
 .byte   W06
 .byte   N06 ,Dn1 ,v064
 .byte   W06
 .byte   N24 ,Cn1 ,v127
 .byte   N06 ,Dn1
 .byte   W06
 .byte   Dn1 ,v064
 .byte   W06
 .byte   N06
 .byte   N24 ,Fs1 ,v127
 .byte   W06
 .byte   N06 ,Dn1 ,v064
 .byte   W06
 .byte   PEND 
@  #15 @082   ----------------------------------------
 .byte   PATT
  .word Label_01001064
@  #15 @083   ----------------------------------------
 .byte   N24 ,Cn1 ,v127
 .byte   N06 ,Dn1 ,v072
 .byte   W06
 .byte   N06
 .byte   W06
 .byte   Dn1 ,v080
 .byte   N12 ,Fs1 ,v127
 .byte   W06
 .byte   N06 ,Dn1 ,v080
 .byte   W06
 .byte   N24 ,Cn1 ,v127
 .byte   N06 ,Dn1 ,v084
 .byte   N12 ,Fs1 ,v127
 .byte   W06
 .byte   N06 ,Dn1 ,v084
 .byte   W06
 .byte   Dn1 ,v096
 .byte   N12 ,Fs1 ,v127
 .byte   W06
 .byte   N06 ,Dn1 ,v096
 .byte   W06
 .byte   N24 ,Cn1 ,v127
 .byte   N06 ,Dn1 ,v096
 .byte   N04 ,An2 ,v012
 .byte   W04
 .byte   An2 ,v020
 .byte   W02
 .byte   N06 ,Dn1 ,v096
 .byte   W02
 .byte   N04 ,An2 ,v028
 .byte   W04
 .byte   N06 ,Dn1 ,v096
 .byte   N04 ,An2 ,v036
 .byte   W04
 .byte   An2 ,v048
 .byte   W02
 .byte   N06 ,Dn1 ,v096
 .byte   W02
 .byte   N04 ,An2 ,v056
 .byte   W04
 .byte   N24 ,Cn1 ,v127
 .byte   N06 ,Dn1 ,v104
 .byte   N04 ,An2 ,v068
 .byte   W04
 .byte   An2 ,v076
 .byte   W02
 .byte   N06 ,Dn1 ,v104
 .byte   W02
 .byte   N04 ,An2 ,v084
 .byte   W04
 .byte   N06 ,Dn1 ,v116
 .byte   N04 ,An2 ,v092
 .byte   W04
 .byte   An2 ,v100
 .byte   W02
 .byte   N06 ,Dn1 ,v116
 .byte   W02
 .byte   N04 ,An2 ,v112
 .byte   W04
@  #15 @084   ----------------------------------------
 .byte   GOTO
  .word Label_010007D8
@  #15 @085   ----------------------------------------
 .byte   TIE ,Ds2 ,v096
 .byte   TIE ,Gn2
 .byte   TIE ,An2 ,v127
 .byte   W96
@  #15 @086   ----------------------------------------
 .byte   W96
@  #15 @087   ----------------------------------------
 .byte   EOT
 .byte   Ds2 ,v055
 .byte   An2
 .byte   FINE

@******************************************************@
	.align	2

DiscoDescent:
	.byte	15	@ NumTrks
	.byte	0	@ NumBlks
	.byte	DiscoDescent_pri	@ Priority
	.byte	DiscoDescent_rev	@ Reverb.
    
	.word	DiscoDescent_grp
    
	.word	DiscoDescent_001
	.word	DiscoDescent_002
	.word	DiscoDescent_003
	.word	DiscoDescent_004
	.word	DiscoDescent_005
	.word	DiscoDescent_006
	.word	DiscoDescent_007
	.word	DiscoDescent_008
	.word	DiscoDescent_009
	.word	DiscoDescent_010
	.word	DiscoDescent_011
	.word	DiscoDescent_012
	.word	DiscoDescent_013
	.word	DiscoDescent_014
	.word	DiscoDescent_015

	.end
