	.include "MPlayDef.s"

	.equ	EO1Guild_grp, voicegroup000
	.equ	EO1Guild_pri, 0
	.equ	EO1Guild_rev, 0
	.equ	EO1Guild_mvl, 127
	.equ	EO1Guild_key, 0
	.equ	EO1Guild_tbs, 1
	.equ	EO1Guild_exg, 0
	.equ	EO1Guild_cmp, 1

	.section .rodata
	.global	EO1Guild
	.align	2


@**************** Track 1 (Midi-Chn.0) ****************@

EO1Guild_001:
@  #01 @000   ----------------------------------------
 .byte   KEYSH , EO1Guild_key+0
 .byte   TEMPO , 116*EO1Guild_tbs/2
 .byte   VOICE , 1
 .byte   VOL , 51*EO1Guild_mvl/mxv
 .byte   PAN , c_v-20
 .byte   W96
@  #01 @001   ----------------------------------------
 .byte   W96
@  #01 @002   ----------------------------------------
Label_CF95AC:
 .byte   W96
@  #01 @003   ----------------------------------------
 .byte   W96
@  #01 @004   ----------------------------------------
 .byte   W96
@  #01 @005   ----------------------------------------
 .byte   W96
@  #01 @006   ----------------------------------------
 .byte   W96
@  #01 @007   ----------------------------------------
 .byte   W96
@  #01 @008   ----------------------------------------
 .byte   W96
@  #01 @009   ----------------------------------------
 .byte   W96
@  #01 @010   ----------------------------------------
 .byte   W96
@  #01 @011   ----------------------------------------
 .byte   W96
@  #01 @012   ----------------------------------------
 .byte   W96
@  #01 @013   ----------------------------------------
 .byte   W96
@  #01 @014   ----------------------------------------
 .byte   W96
@  #01 @015   ----------------------------------------
 .byte   W96
@  #01 @016   ----------------------------------------
 .byte   W96
@  #01 @017   ----------------------------------------
 .byte   W96
@  #01 @018   ----------------------------------------
 .byte   W96
@  #01 @019   ----------------------------------------
 .byte   W96
@  #01 @020   ----------------------------------------
 .byte   W96
@  #01 @021   ----------------------------------------
 .byte   W96
@  #01 @022   ----------------------------------------
 .byte   W24
 .byte   N05 ,Ds5 ,v072
 .byte   W12
 .byte   As4
 .byte   W12
 .byte   N44 ,Ds5
 .byte   W48
@  #01 @023   ----------------------------------------
 .byte   W24
 .byte   N05 ,Fs5
 .byte   W12
 .byte   Cs5
 .byte   W12
 .byte   N44 ,Fs5
 .byte   W48
@  #01 @024   ----------------------------------------
 .byte   N56 ,Gs5
 .byte   W60
 .byte   N05 ,Gs4
 .byte   W12
 .byte   Ds5
 .byte   W12
 .byte   Gs5
 .byte   W12
@  #01 @025   ----------------------------------------
 .byte   N40
 .byte   W48
 .byte   N32 ,As5
 .byte   W48
@  #01 @026   ----------------------------------------
 .byte   W96
@  #01 @027   ----------------------------------------
 .byte   W96
@  #01 @028   ----------------------------------------
 .byte   W96
@  #01 @029   ----------------------------------------
 .byte   W96
@  #01 @030   ----------------------------------------
 .byte   W96
@  #01 @031   ----------------------------------------
 .byte   W96
@  #01 @032   ----------------------------------------
 .byte   W96
@  #01 @033   ----------------------------------------
 .byte   W96
@  #01 @034   ----------------------------------------
Label_CF95EA:
 .byte   N03 ,Fs5 ,v036
 .byte   W04
 .byte   TIE ,Gn5 ,v052
 .byte   W92
 .byte   PEND 
@  #01 @035   ----------------------------------------
 .byte   W15
 .byte   EOT
 .byte   W05
 .byte   N03 ,Fs4
 .byte   W04
 .byte   N23 ,Gn4
 .byte   W24
 .byte   Dn5
 .byte   W24
 .byte   N15 ,Gn5
 .byte   W16
 .byte   N04 ,Gs5
 .byte   W05
 .byte   N02 ,Gn5
 .byte   W03
@  #01 @036   ----------------------------------------
 .byte   TIE ,Fn5
 .byte   W96
@  #01 @037   ----------------------------------------
 .byte   W88
 .byte   W01
 .byte   EOT
 .byte   W07
@  #01 @038   ----------------------------------------
 .byte   PATT
  .word Label_CF95EA
@  #01 @039   ----------------------------------------
 .byte   W15
 .byte   EOT
 .byte   Gn5
 .byte   W05
 .byte   N03 ,Fs4 ,v052
 .byte   W04
 .byte   N23 ,Gn4
 .byte   W24
 .byte   Dn5
 .byte   W24
 .byte   N15 ,Gn5
 .byte   W16
 .byte   N04 ,Gs5
 .byte   W04
 .byte   N03 ,An5
 .byte   W04
@  #01 @040   ----------------------------------------
 .byte   TIE ,As5
 .byte   W96
@  #01 @041   ----------------------------------------
 .byte   W88
 .byte   W01
 .byte   EOT
 .byte   W07
@  #01 @042   ----------------------------------------
 .byte   GOTO
  .word Label_CF95AC
@  #01 @043   ----------------------------------------
 .byte   W28
 .byte   W01
 .byte   FINE

@**************** Track 2 (Midi-Chn.1) ****************@

EO1Guild_002:
@  #02 @000   ----------------------------------------
 .byte   KEYSH , EO1Guild_key+0
 .byte   VOICE , 4
 .byte   VOL , 59*EO1Guild_mvl/mxv
 .byte   PAN , c_v+0
 .byte   W96
@  #02 @001   ----------------------------------------
 .byte   W96
@  #02 @002   ----------------------------------------
Label_CF98FA:
 .byte   W96
@  #02 @003   ----------------------------------------
 .byte   W96
@  #02 @004   ----------------------------------------
 .byte   W96
@  #02 @005   ----------------------------------------
 .byte   W96
@  #02 @006   ----------------------------------------
 .byte   W96
@  #02 @007   ----------------------------------------
 .byte   W96
@  #02 @008   ----------------------------------------
 .byte   W96
@  #02 @009   ----------------------------------------
 .byte   W96
@  #02 @010   ----------------------------------------
 .byte   W96
@  #02 @011   ----------------------------------------
 .byte   W96
@  #02 @012   ----------------------------------------
 .byte   W96
@  #02 @013   ----------------------------------------
 .byte   W96
@  #02 @014   ----------------------------------------
 .byte   W96
@  #02 @015   ----------------------------------------
 .byte   W96
@  #02 @016   ----------------------------------------
 .byte   W96
@  #02 @017   ----------------------------------------
 .byte   W96
@  #02 @018   ----------------------------------------
 .byte   W96
@  #02 @019   ----------------------------------------
 .byte   W96
@  #02 @020   ----------------------------------------
 .byte   W96
@  #02 @021   ----------------------------------------
 .byte   W96
@  #02 @022   ----------------------------------------
 .byte   W96
@  #02 @023   ----------------------------------------
 .byte   W96
@  #02 @024   ----------------------------------------
 .byte   W96
@  #02 @025   ----------------------------------------
 .byte   W96
@  #02 @026   ----------------------------------------
Label_CF9912:
 .byte   TIE ,Gn2 ,v080
 .byte   TIE ,Gn4 ,v064
 .byte   TIE ,Gn5
 .byte   W96
 .byte   PEND 
@  #02 @027   ----------------------------------------
 .byte   W92
 .byte   W03
 .byte   EOT
 .byte   Gn2 ,v079
 .byte   Gn5
 .byte   W01
@  #02 @028   ----------------------------------------
Label_CF9923:
 .byte   TIE ,Ds3 ,v080
 .byte   TIE ,As4 ,v064
 .byte   TIE ,Fn5
 .byte   W96
 .byte   PEND 
@  #02 @029   ----------------------------------------
 .byte   W92
 .byte   W03
 .byte   EOT
 .byte   Ds3 ,v082
 .byte   Fn5
 .byte   W01
@  #02 @030   ----------------------------------------
 .byte   PATT
  .word Label_CF9912
@  #02 @031   ----------------------------------------
 .byte   W92
 .byte   W03
 .byte   EOT
 .byte   Gn2 ,v079
 .byte   Gn5
 .byte   W01
@  #02 @032   ----------------------------------------
 .byte   PATT
  .word Label_CF9923
@  #02 @033   ----------------------------------------
 .byte   W92
 .byte   W03
 .byte   EOT
 .byte   Ds3 ,v082
 .byte   Fn5
 .byte   W01
@  #02 @034   ----------------------------------------
 .byte   PATT
  .word Label_CF9912
@  #02 @035   ----------------------------------------
 .byte   W92
 .byte   W03
 .byte   EOT
 .byte   Gn2 ,v079
 .byte   Gn5
 .byte   W01
@  #02 @036   ----------------------------------------
 .byte   PATT
  .word Label_CF9923
@  #02 @037   ----------------------------------------
 .byte   W92
 .byte   W03
 .byte   EOT
 .byte   Ds3 ,v082
 .byte   Fn5
 .byte   W01
@  #02 @038   ----------------------------------------
 .byte   PATT
  .word Label_CF9912
@  #02 @039   ----------------------------------------
 .byte   W92
 .byte   W03
 .byte   EOT
 .byte   Gn2 ,v079
 .byte   Gn5
 .byte   W01
@  #02 @040   ----------------------------------------
 .byte   PATT
  .word Label_CF9923
@  #02 @041   ----------------------------------------
 .byte   W92
 .byte   W03
 .byte   EOT
 .byte   Ds3 ,v082
 .byte   Fn5
 .byte   W01
@  #02 @042   ----------------------------------------
 .byte   GOTO
  .word Label_CF98FA
@  #02 @043   ----------------------------------------
 .byte   W28
 .byte   W01
 .byte   FINE

@**************** Track 3 (Midi-Chn.2) ****************@

EO1Guild_003:
@  #03 @000   ----------------------------------------
 .byte   KEYSH , EO1Guild_key+0
 .byte   VOICE , 105
 .byte   VOL , 46*EO1Guild_mvl/mxv
 .byte   PAN , c_v+25
 .byte   W96
@  #03 @001   ----------------------------------------
 .byte   W96
@  #03 @002   ----------------------------------------
Label_CF977A:
 .byte   N92 ,Dn3 ,v072
 .byte   N92 ,Gn3
 .byte   W92
 .byte   W02
 .byte   As2
 .byte   N92 ,Ds3
 .byte   W02
@  #03 @003   ----------------------------------------
Label_CF9785:
 .byte   W92
 .byte   W02
 .byte   N92 ,Dn3 ,v072
 .byte   N92 ,Gn3
 .byte   W02
 .byte   PEND 
@  #03 @004   ----------------------------------------
Label_CF978E:
 .byte   W92
 .byte   W02
 .byte   N92 ,As2 ,v072
 .byte   N92 ,Ds3
 .byte   W02
 .byte   PEND 
@  #03 @005   ----------------------------------------
 .byte   PATT
  .word Label_CF9785
@  #03 @006   ----------------------------------------
 .byte   PATT
  .word Label_CF978E
@  #03 @007   ----------------------------------------
 .byte   PATT
  .word Label_CF9785
@  #03 @008   ----------------------------------------
 .byte   PATT
  .word Label_CF978E
@  #03 @009   ----------------------------------------
Label_CF97AB:
 .byte   W92
 .byte   W02
 .byte   N92 ,Cn3 ,v072
 .byte   N92 ,Fn3
 .byte   W02
 .byte   PEND 
@  #03 @010   ----------------------------------------
Label_CF97B4:
 .byte   W92
 .byte   W02
 .byte   N92 ,Ds3 ,v072
 .byte   N92 ,Gs3
 .byte   W02
 .byte   PEND 
@  #03 @011   ----------------------------------------
 .byte   W92
 .byte   W02
 .byte   Fn3
 .byte   N92 ,As3
 .byte   W02
@  #03 @012   ----------------------------------------
Label_CF97C3:
 .byte   W92
 .byte   W02
 .byte   N44 ,Gs3 ,v072
 .byte   N44 ,Cs4
 .byte   W02
 .byte   PEND 
@  #03 @013   ----------------------------------------
Label_CF97CC:
 .byte   W44
 .byte   W02
 .byte   N44 ,As3 ,v072
 .byte   N44 ,Ds4
 .byte   W48
 .byte   W02
 .byte   PEND 
@  #03 @014   ----------------------------------------
 .byte   N92 ,Cn3
 .byte   N92 ,Fn3
 .byte   W92
 .byte   W02
 .byte   Gs2
 .byte   N92 ,Cs3
 .byte   W02
@  #03 @015   ----------------------------------------
 .byte   PATT
  .word Label_CF97AB
@  #03 @016   ----------------------------------------
Label_CF97E5:
 .byte   W92
 .byte   W02
 .byte   N92 ,Gs2 ,v072
 .byte   N92 ,Cs3
 .byte   W02
 .byte   PEND 
@  #03 @017   ----------------------------------------
 .byte   PATT
  .word Label_CF97AB
@  #03 @018   ----------------------------------------
 .byte   PATT
  .word Label_CF97E5
@  #03 @019   ----------------------------------------
 .byte   PATT
  .word Label_CF97AB
@  #03 @020   ----------------------------------------
 .byte   PATT
  .word Label_CF97E5
@  #03 @021   ----------------------------------------
 .byte   PATT
  .word Label_CF978E
@  #03 @022   ----------------------------------------
 .byte   W92
 .byte   W02
 .byte   N92 ,Cs3 ,v072
 .byte   N92 ,Fs3
 .byte   W02
@  #03 @023   ----------------------------------------
 .byte   PATT
  .word Label_CF97B4
@  #03 @024   ----------------------------------------
 .byte   PATT
  .word Label_CF97C3
@  #03 @025   ----------------------------------------
 .byte   PATT
  .word Label_CF97CC
@  #03 @026   ----------------------------------------
 .byte   W96
@  #03 @027   ----------------------------------------
 .byte   W96
@  #03 @028   ----------------------------------------
 .byte   W96
@  #03 @029   ----------------------------------------
 .byte   W96
@  #03 @030   ----------------------------------------
 .byte   W96
@  #03 @031   ----------------------------------------
 .byte   W96
@  #03 @032   ----------------------------------------
 .byte   W96
@  #03 @033   ----------------------------------------
 .byte   W96
@  #03 @034   ----------------------------------------
 .byte   W96
@  #03 @035   ----------------------------------------
 .byte   W96
@  #03 @036   ----------------------------------------
 .byte   W96
@  #03 @037   ----------------------------------------
 .byte   W96
@  #03 @038   ----------------------------------------
 .byte   W96
@  #03 @039   ----------------------------------------
 .byte   W96
@  #03 @040   ----------------------------------------
 .byte   W96
@  #03 @041   ----------------------------------------
 .byte   W96
@  #03 @042   ----------------------------------------
 .byte   GOTO
  .word Label_CF977A
@  #03 @043   ----------------------------------------
 .byte   W28
 .byte   W01
 .byte   FINE

@**************** Track 4 (Midi-Chn.3) ****************@

EO1Guild_004:
@  #04 @000   ----------------------------------------
 .byte   KEYSH , EO1Guild_key+0
 .byte   VOICE , 100
 .byte   VOL , 59*EO1Guild_mvl/mxv
 .byte   PAN , c_v+0
 .byte   W96
@  #04 @001   ----------------------------------------
 .byte   W96
@  #04 @002   ----------------------------------------
Label_CF9AB6:
 .byte   N20 ,Gn3 ,v092
 .byte   N92 ,Bn3 ,v076
 .byte   W24
 .byte   N20 ,Gn4 ,v092
 .byte   W24
 .byte   N28 ,Dn4
 .byte   W36
 .byte   N05 ,En4
 .byte   W12
 .byte   PEND 
@  #04 @003   ----------------------------------------
Label_CF9AC8:
 .byte   N92 ,Gn3 ,v076
 .byte   N02 ,Fn4 ,v092
 .byte   W12
 .byte   Cn4
 .byte   W12
 .byte   N56 ,Fn4
 .byte   W72
 .byte   PEND 
@  #04 @004   ----------------------------------------
Label_CF9AD5:
 .byte   N20 ,Gn3 ,v092
 .byte   N92 ,Bn3 ,v076
 .byte   W24
 .byte   N20 ,Gn4 ,v092
 .byte   W24
 .byte   N28 ,Dn4
 .byte   W36
 .byte   N05 ,Bn4
 .byte   W12
 .byte   PEND 
@  #04 @005   ----------------------------------------
Label_CF9AE7:
 .byte   N92 ,Gn3 ,v076
 .byte   N02 ,As4 ,v092
 .byte   W12
 .byte   Fn4
 .byte   W12
 .byte   N56 ,As4
 .byte   W72
 .byte   PEND 
@  #04 @006   ----------------------------------------
 .byte   PATT
  .word Label_CF9AB6
@  #04 @007   ----------------------------------------
 .byte   PATT
  .word Label_CF9AC8
@  #04 @008   ----------------------------------------
 .byte   PATT
  .word Label_CF9AD5
@  #04 @009   ----------------------------------------
 .byte   PATT
  .word Label_CF9AE7
@  #04 @010   ----------------------------------------
 .byte   N92 ,An3 ,v076
 .byte   N02 ,An4 ,v092
 .byte   W12
 .byte   Fn4
 .byte   W12
 .byte   N40 ,Cn5
 .byte   W48
 .byte   N05 ,Fn4
 .byte   W06
 .byte   An4
 .byte   W06
 .byte   Cn5
 .byte   W06
 .byte   Dn5
 .byte   W06
@  #04 @011   ----------------------------------------
 .byte   N92 ,As3 ,v076
 .byte   N02 ,Ds5 ,v092
 .byte   W12
 .byte   As4
 .byte   W12
 .byte   N40 ,Ds5
 .byte   W48
 .byte   N05 ,Fn4
 .byte   W06
 .byte   As4
 .byte   W06
 .byte   Ds5
 .byte   W06
 .byte   Fn5
 .byte   W06
@  #04 @012   ----------------------------------------
 .byte   N92 ,Cn4 ,v076
 .byte   N76 ,Fn4
 .byte   N76 ,Dn5 ,v092
 .byte   W84
 .byte   N02 ,Fn4
 .byte   N02 ,Dn5
 .byte   W06
 .byte   Gn4
 .byte   N02 ,Ds5
 .byte   W06
@  #04 @013   ----------------------------------------
 .byte   N44 ,Ds4 ,v076
 .byte   N40 ,Gs4 ,v092
 .byte   N40 ,Fn5
 .byte   W48
 .byte   N44 ,Fn4 ,v076
 .byte   N40 ,As4 ,v092
 .byte   N40 ,Fn5
 .byte   W48
@  #04 @014   ----------------------------------------
Label_CF9B56:
 .byte   N20 ,Fn3 ,v092
 .byte   N92 ,An3 ,v076
 .byte   W24
 .byte   N20 ,Fn4 ,v092
 .byte   W24
 .byte   N28 ,Cn4
 .byte   W36
 .byte   N05 ,Dn4
 .byte   W12
 .byte   PEND 
@  #04 @015   ----------------------------------------
Label_CF9B68:
 .byte   N92 ,Fn3 ,v076
 .byte   N02 ,Ds4 ,v092
 .byte   W12
 .byte   As3
 .byte   W12
 .byte   N56 ,Ds4
 .byte   W72
 .byte   PEND 
@  #04 @016   ----------------------------------------
Label_CF9B75:
 .byte   N20 ,Fn3 ,v092
 .byte   N92 ,An3 ,v076
 .byte   W24
 .byte   N20 ,Fn4 ,v092
 .byte   W24
 .byte   N28 ,Cn4
 .byte   W36
 .byte   N05 ,An4
 .byte   W12
 .byte   PEND 
@  #04 @017   ----------------------------------------
Label_CF9B87:
 .byte   N92 ,Fn3 ,v076
 .byte   N02 ,Gs4 ,v092
 .byte   W12
 .byte   Ds4
 .byte   W12
 .byte   N56 ,Gs4
 .byte   W72
 .byte   PEND 
@  #04 @018   ----------------------------------------
 .byte   PATT
  .word Label_CF9B56
@  #04 @019   ----------------------------------------
 .byte   PATT
  .word Label_CF9B68
@  #04 @020   ----------------------------------------
 .byte   PATT
  .word Label_CF9B75
@  #04 @021   ----------------------------------------
 .byte   PATT
  .word Label_CF9B87
@  #04 @022   ----------------------------------------
 .byte   N92 ,Gn3 ,v076
 .byte   N02 ,Gn4 ,v092
 .byte   W12
 .byte   Ds4
 .byte   W12
 .byte   N40 ,As4
 .byte   W48
 .byte   N05 ,Ds4
 .byte   W06
 .byte   Gn4
 .byte   W06
 .byte   As4
 .byte   W06
 .byte   Cn5
 .byte   W06
@  #04 @023   ----------------------------------------
 .byte   N92 ,Gs3 ,v076
 .byte   N02 ,Cs5 ,v092
 .byte   W12
 .byte   Gs4
 .byte   W12
 .byte   N40 ,Cs5
 .byte   W48
 .byte   N05 ,Ds4
 .byte   W06
 .byte   Gs4
 .byte   W06
 .byte   Cs5
 .byte   W06
 .byte   Ds5
 .byte   W06
@  #04 @024   ----------------------------------------
 .byte   N92 ,As3 ,v076
 .byte   N76 ,Ds4
 .byte   N76 ,Cn5 ,v092
 .byte   W84
 .byte   N05 ,Cs5
 .byte   W06
 .byte   Ds5
 .byte   W06
@  #04 @025   ----------------------------------------
 .byte   N44 ,Ds4 ,v076
 .byte   N40 ,Gs4 ,v092
 .byte   N40 ,Fn5
 .byte   W48
 .byte   N44 ,Fn4 ,v076
 .byte   N40 ,Gn4 ,v092
 .byte   N40 ,Fn5
 .byte   W48
@  #04 @026   ----------------------------------------
 .byte   W96
@  #04 @027   ----------------------------------------
 .byte   W96
@  #04 @028   ----------------------------------------
 .byte   W96
@  #04 @029   ----------------------------------------
 .byte   W96
@  #04 @030   ----------------------------------------
 .byte   W96
@  #04 @031   ----------------------------------------
 .byte   W96
@  #04 @032   ----------------------------------------
 .byte   W96
@  #04 @033   ----------------------------------------
 .byte   W96
@  #04 @034   ----------------------------------------
 .byte   W96
@  #04 @035   ----------------------------------------
 .byte   W96
@  #04 @036   ----------------------------------------
 .byte   W96
@  #04 @037   ----------------------------------------
 .byte   W96
@  #04 @038   ----------------------------------------
 .byte   W96
@  #04 @039   ----------------------------------------
 .byte   W96
@  #04 @040   ----------------------------------------
 .byte   W96
@  #04 @041   ----------------------------------------
 .byte   W96
@  #04 @042   ----------------------------------------
 .byte   GOTO
  .word Label_CF9AB6
@  #04 @043   ----------------------------------------
 .byte   W28
 .byte   W01
 .byte   FINE

@**************** Track 5 (Midi-Chn.4) ****************@

EO1Guild_005:
@  #05 @000   ----------------------------------------
 .byte   KEYSH , EO1Guild_key+0
 .byte   VOICE , 100
 .byte   VOL , 59*EO1Guild_mvl/mxv
 .byte   PAN , c_v-20
 .byte   W96
@  #05 @001   ----------------------------------------
 .byte   W96
@  #05 @002   ----------------------------------------
Label_CF933E:
 .byte   W18
 .byte   BEND , c_v+2
 .byte   N20 ,Gn3 ,v068
 .byte   W24
 .byte   Gn4
 .byte   W24
 .byte   N28 ,Dn4
 .byte   W30
@  #05 @003   ----------------------------------------
Label_CF934A:
 .byte   W06
 .byte   N05 ,En4 ,v068
 .byte   W12
 .byte   N02 ,Fn4
 .byte   W12
 .byte   Cn4
 .byte   W12
 .byte   N56 ,Fn4
 .byte   W54
 .byte   PEND 
@  #05 @004   ----------------------------------------
Label_CF9358:
 .byte   W18
 .byte   N20 ,Gn3 ,v068
 .byte   W24
 .byte   Gn4
 .byte   W24
 .byte   N28 ,Dn4
 .byte   W30
 .byte   PEND 
@  #05 @005   ----------------------------------------
Label_CF9363:
 .byte   W06
 .byte   N05 ,Bn4 ,v068
 .byte   W12
 .byte   N02 ,As4
 .byte   W12
 .byte   Fn4
 .byte   W12
 .byte   N56 ,As4
 .byte   W54
 .byte   PEND 
@  #05 @006   ----------------------------------------
 .byte   PATT
  .word Label_CF9358
@  #05 @007   ----------------------------------------
 .byte   PATT
  .word Label_CF934A
@  #05 @008   ----------------------------------------
 .byte   PATT
  .word Label_CF9358
@  #05 @009   ----------------------------------------
 .byte   PATT
  .word Label_CF9363
@  #05 @010   ----------------------------------------
 .byte   W18
 .byte   N02 ,An4 ,v068
 .byte   W12
 .byte   Fn4
 .byte   W12
 .byte   N40 ,Cn5
 .byte   W48
 .byte   N05 ,Fn4
 .byte   W06
@  #05 @011   ----------------------------------------
 .byte   An4
 .byte   W06
 .byte   Cn5
 .byte   W06
 .byte   Dn5
 .byte   W06
 .byte   N02 ,Ds5
 .byte   W12
 .byte   As4
 .byte   W12
 .byte   N40 ,Ds5
 .byte   W48
 .byte   N05 ,Fn4
 .byte   W06
@  #05 @012   ----------------------------------------
 .byte   As4
 .byte   W06
 .byte   Ds5
 .byte   W06
 .byte   Fn5
 .byte   W06
 .byte   N76 ,Dn5
 .byte   W78
@  #05 @013   ----------------------------------------
 .byte   W06
 .byte   N02
 .byte   W06
 .byte   Ds5
 .byte   W06
 .byte   N40 ,Fn5
 .byte   W48
 .byte   N40
 .byte   W30
@  #05 @014   ----------------------------------------
Label_CF93B6:
 .byte   W18
 .byte   N20 ,Fn3 ,v068
 .byte   W24
 .byte   Fn4
 .byte   W24
 .byte   N28 ,Cn4
 .byte   W30
 .byte   PEND 
@  #05 @015   ----------------------------------------
Label_CF93C1:
 .byte   W06
 .byte   N05 ,Dn4 ,v068
 .byte   W12
 .byte   N02 ,Ds4
 .byte   W12
 .byte   As3
 .byte   W12
 .byte   N56 ,Ds4
 .byte   W54
 .byte   PEND 
@  #05 @016   ----------------------------------------
 .byte   PATT
  .word Label_CF93B6
@  #05 @017   ----------------------------------------
Label_CF93D4:
 .byte   W06
 .byte   N05 ,An4 ,v068
 .byte   W12
 .byte   N02 ,Gs4
 .byte   W12
 .byte   Ds4
 .byte   W12
 .byte   N56 ,Gs4
 .byte   W54
 .byte   PEND 
@  #05 @018   ----------------------------------------
 .byte   PATT
  .word Label_CF93B6
@  #05 @019   ----------------------------------------
 .byte   PATT
  .word Label_CF93C1
@  #05 @020   ----------------------------------------
 .byte   PATT
  .word Label_CF93B6
@  #05 @021   ----------------------------------------
 .byte   PATT
  .word Label_CF93D4
@  #05 @022   ----------------------------------------
 .byte   W18
 .byte   N02 ,Gn4 ,v068
 .byte   W12
 .byte   Ds4
 .byte   W12
 .byte   N40 ,As4
 .byte   W48
 .byte   N05 ,Ds4
 .byte   W06
@  #05 @023   ----------------------------------------
 .byte   Gn4
 .byte   W06
 .byte   As4
 .byte   W06
 .byte   Cn5
 .byte   W06
 .byte   N02 ,Cs5
 .byte   W12
 .byte   Gs4
 .byte   W12
 .byte   N40 ,Cs5
 .byte   W48
 .byte   N05 ,Ds4
 .byte   W06
@  #05 @024   ----------------------------------------
 .byte   Gs4
 .byte   W06
 .byte   Cs5
 .byte   W06
 .byte   Ds5
 .byte   W06
 .byte   N76 ,Cn5
 .byte   W78
@  #05 @025   ----------------------------------------
 .byte   W06
 .byte   N05 ,Cs5
 .byte   W06
 .byte   Ds5
 .byte   W06
 .byte   N40 ,Fn5
 .byte   W48
 .byte   N40
 .byte   W30
@  #05 @026   ----------------------------------------
 .byte   W96
@  #05 @027   ----------------------------------------
 .byte   W96
@  #05 @028   ----------------------------------------
 .byte   W96
@  #05 @029   ----------------------------------------
 .byte   W96
@  #05 @030   ----------------------------------------
 .byte   W96
@  #05 @031   ----------------------------------------
 .byte   W96
@  #05 @032   ----------------------------------------
 .byte   W96
@  #05 @033   ----------------------------------------
 .byte   W96
@  #05 @034   ----------------------------------------
 .byte   W96
@  #05 @035   ----------------------------------------
 .byte   W96
@  #05 @036   ----------------------------------------
 .byte   W96
@  #05 @037   ----------------------------------------
 .byte   W96
@  #05 @038   ----------------------------------------
 .byte   W96
@  #05 @039   ----------------------------------------
 .byte   W96
@  #05 @040   ----------------------------------------
 .byte   W96
@  #05 @041   ----------------------------------------
 .byte   W96
@  #05 @042   ----------------------------------------
 .byte   GOTO
  .word Label_CF933E
@  #05 @043   ----------------------------------------
 .byte   W28
 .byte   W01
 .byte   FINE

@**************** Track 6 (Midi-Chn.5) ****************@

EO1Guild_006:
@  #06 @000   ----------------------------------------
 .byte   KEYSH , EO1Guild_key+0
 .byte   VOICE , 30
 .byte   VOL , 66*EO1Guild_mvl/mxv
 .byte   PAN , c_v+0
 .byte   W96
@  #06 @001   ----------------------------------------
 .byte   W96
@  #06 @002   ----------------------------------------
Label_CF9C16:
 .byte   W96
@  #06 @003   ----------------------------------------
 .byte   W96
@  #06 @004   ----------------------------------------
 .byte   W96
@  #06 @005   ----------------------------------------
 .byte   W96
@  #06 @006   ----------------------------------------
 .byte   W96
@  #06 @007   ----------------------------------------
 .byte   W96
@  #06 @008   ----------------------------------------
 .byte   W96
@  #06 @009   ----------------------------------------
 .byte   W96
@  #06 @010   ----------------------------------------
 .byte   W96
@  #06 @011   ----------------------------------------
 .byte   W96
@  #06 @012   ----------------------------------------
 .byte   W96
@  #06 @013   ----------------------------------------
 .byte   W96
@  #06 @014   ----------------------------------------
 .byte   W96
@  #06 @015   ----------------------------------------
 .byte   W96
@  #06 @016   ----------------------------------------
 .byte   W96
@  #06 @017   ----------------------------------------
 .byte   W96
@  #06 @018   ----------------------------------------
 .byte   W96
@  #06 @019   ----------------------------------------
 .byte   W96
@  #06 @020   ----------------------------------------
 .byte   W96
@  #06 @021   ----------------------------------------
 .byte   W96
@  #06 @022   ----------------------------------------
 .byte   W96
@  #06 @023   ----------------------------------------
 .byte   W96
@  #06 @024   ----------------------------------------
 .byte   W96
@  #06 @025   ----------------------------------------
 .byte   W96
@  #06 @026   ----------------------------------------
 .byte   W96
@  #06 @027   ----------------------------------------
 .byte   W96
@  #06 @028   ----------------------------------------
 .byte   W96
@  #06 @029   ----------------------------------------
 .byte   W96
@  #06 @030   ----------------------------------------
 .byte   W96
@  #06 @031   ----------------------------------------
 .byte   W96
@  #06 @032   ----------------------------------------
 .byte   W96
@  #06 @033   ----------------------------------------
 .byte   W96
@  #06 @034   ----------------------------------------
Label_CF9C36:
 .byte   N03 ,Fs4 ,v076
 .byte   W04
 .byte   TIE ,Gn4 ,v092
 .byte   W92
 .byte   PEND 
@  #06 @035   ----------------------------------------
 .byte   W11
 .byte   EOT
 .byte   W05
 .byte   N03 ,Gn4 ,v048
 .byte   W04
 .byte   Fs3 ,v092
 .byte   W04
 .byte   N23 ,Gn3
 .byte   W24
 .byte   Dn4
 .byte   W24
 .byte   N15 ,Gn4
 .byte   W16
 .byte   N04 ,Gs4
 .byte   W05
 .byte   N02 ,Gn4
 .byte   W03
@  #06 @036   ----------------------------------------
 .byte   N92 ,Fn4
 .byte   W96
@  #06 @037   ----------------------------------------
 .byte   Cn4
 .byte   W96
@  #06 @038   ----------------------------------------
 .byte   PATT
  .word Label_CF9C36
@  #06 @039   ----------------------------------------
 .byte   W11
 .byte   EOT
 .byte   Gn4
 .byte   W05
 .byte   N03 ,Gn4 ,v052
 .byte   W04
 .byte   Fs3 ,v092
 .byte   W04
 .byte   N23 ,Gn3
 .byte   W24
 .byte   Dn4
 .byte   W24
 .byte   N15 ,Gn4
 .byte   W16
 .byte   N04 ,Gs4
 .byte   W04
 .byte   N03 ,An4
 .byte   W04
@  #06 @040   ----------------------------------------
 .byte   TIE ,As4
 .byte   W96
@  #06 @041   ----------------------------------------
 .byte   W11
 .byte   EOT
 .byte   W01
 .byte   N11 ,Fn4
 .byte   W12
 .byte   Cn4
 .byte   N11 ,Fn4 ,v060
 .byte   W12
 .byte   Cn4
 .byte   N11 ,As4 ,v092
 .byte   W12
 .byte   Fn4
 .byte   N11 ,As4 ,v068
 .byte   W12
 .byte   Cn4 ,v092
 .byte   N11 ,Fn4 ,v068
 .byte   W12
 .byte   As3 ,v092
 .byte   N11 ,Cn4 ,v068
 .byte   W12
 .byte   Fn3 ,v092
 .byte   N11 ,As3 ,v068
 .byte   W12
@  #06 @042   ----------------------------------------
 .byte   GOTO
  .word Label_CF9C16
@  #06 @043   ----------------------------------------
 .byte   W28
 .byte   W01
 .byte   FINE

@**************** Track 7 (Midi-Chn.6) ****************@

EO1Guild_007:
@  #07 @000   ----------------------------------------
 .byte   KEYSH , EO1Guild_key+0
 .byte   VOICE , 81
 .byte   VOL , 66*EO1Guild_mvl/mxv
 .byte   PAN , c_v+0
 .byte   N11 ,Gn2 ,v092
 .byte   W12
 .byte   N11
 .byte   W24
 .byte   N05
 .byte   W06
 .byte   N05
 .byte   W06
 .byte   N11
 .byte   W12
 .byte   N11
 .byte   W36
@  #07 @001   ----------------------------------------
Label_CF9CC2:
 .byte   N11 ,Gn2 ,v092
 .byte   W12
 .byte   N11
 .byte   W24
 .byte   N05
 .byte   W06
 .byte   N05
 .byte   W06
 .byte   N11
 .byte   W12
 .byte   N11
 .byte   W36
 .byte   PEND 
@  #07 @002   ----------------------------------------
Label_CF9CD1:
@  #07 @003   ----------------------------------------
 .byte   PATT
  .word Label_CF9CC2
@  #07 @004   ----------------------------------------
Label_CF9CD6:
 .byte   N11 ,Ds2 ,v092
 .byte   W12
 .byte   N11
 .byte   W24
 .byte   N05
 .byte   W06
 .byte   N05
 .byte   W06
 .byte   N11
 .byte   W12
 .byte   N11
 .byte   W36
 .byte   PEND 
@  #07 @005   ----------------------------------------
 .byte   PATT
  .word Label_CF9CC2
@  #07 @006   ----------------------------------------
 .byte   PATT
  .word Label_CF9CD6
@  #07 @007   ----------------------------------------
 .byte   PATT
  .word Label_CF9CC2
@  #07 @008   ----------------------------------------
 .byte   PATT
  .word Label_CF9CD6
@  #07 @009   ----------------------------------------
 .byte   PATT
  .word Label_CF9CC2
@  #07 @010   ----------------------------------------
 .byte   PATT
  .word Label_CF9CD6
@  #07 @011   ----------------------------------------
Label_CF9D03:
 .byte   N11 ,Fn2 ,v092
 .byte   W12
 .byte   N11
 .byte   W24
 .byte   N05
 .byte   W06
 .byte   N05
 .byte   W06
 .byte   N11
 .byte   W12
 .byte   N11
 .byte   W36
 .byte   PEND 
@  #07 @012   ----------------------------------------
Label_CF9D12:
 .byte   N11 ,Gs2 ,v092
 .byte   W12
 .byte   N11
 .byte   W24
 .byte   N05
 .byte   W06
 .byte   N05
 .byte   W06
 .byte   N11
 .byte   W12
 .byte   N11
 .byte   W36
 .byte   PEND 
@  #07 @013   ----------------------------------------
 .byte   As2
 .byte   W12
 .byte   N11
 .byte   W24
 .byte   N05
 .byte   W06
 .byte   N05
 .byte   W06
 .byte   N11
 .byte   W12
 .byte   N11
 .byte   W36
@  #07 @014   ----------------------------------------
 .byte   Cs3
 .byte   W12
 .byte   N11
 .byte   W24
 .byte   N05
 .byte   W06
 .byte   N05
 .byte   W06
 .byte   N11 ,Cn3
 .byte   W12
 .byte   N11
 .byte   W36
@  #07 @015   ----------------------------------------
 .byte   PATT
  .word Label_CF9D03
@  #07 @016   ----------------------------------------
Label_CF9D3F:
 .byte   N11 ,Cs2 ,v092
 .byte   W12
 .byte   N11
 .byte   W24
 .byte   N05
 .byte   W06
 .byte   N05
 .byte   W06
 .byte   N11
 .byte   W12
 .byte   N11
 .byte   W36
 .byte   PEND 
@  #07 @017   ----------------------------------------
 .byte   PATT
  .word Label_CF9D03
@  #07 @018   ----------------------------------------
 .byte   PATT
  .word Label_CF9D3F
@  #07 @019   ----------------------------------------
 .byte   PATT
  .word Label_CF9D03
@  #07 @020   ----------------------------------------
 .byte   PATT
  .word Label_CF9D3F
@  #07 @021   ----------------------------------------
 .byte   PATT
  .word Label_CF9D03
@  #07 @022   ----------------------------------------
 .byte   PATT
  .word Label_CF9D3F
@  #07 @023   ----------------------------------------
 .byte   PATT
  .word Label_CF9CD6
@  #07 @024   ----------------------------------------
 .byte   N11 ,Fs2 ,v092
 .byte   W12
 .byte   N11
 .byte   W24
 .byte   N05
 .byte   W06
 .byte   N05
 .byte   W06
 .byte   N11
 .byte   W12
 .byte   N11
 .byte   W36
@  #07 @025   ----------------------------------------
 .byte   PATT
  .word Label_CF9D12
@  #07 @026   ----------------------------------------
 .byte   N11 ,Cs3 ,v092
 .byte   W12
 .byte   N11
 .byte   W24
 .byte   N05
 .byte   W06
 .byte   N05
 .byte   W06
 .byte   N11 ,Ds3
 .byte   W12
 .byte   N11
 .byte   W36
@  #07 @027   ----------------------------------------
 .byte   W96
@  #07 @028   ----------------------------------------
 .byte   W96
@  #07 @029   ----------------------------------------
 .byte   W96
@  #07 @030   ----------------------------------------
 .byte   W96
@  #07 @031   ----------------------------------------
 .byte   W96
@  #07 @032   ----------------------------------------
 .byte   W96
@  #07 @033   ----------------------------------------
 .byte   W96
@  #07 @034   ----------------------------------------
 .byte   W96
@  #07 @035   ----------------------------------------
 .byte   W96
@  #07 @036   ----------------------------------------
 .byte   W96
@  #07 @037   ----------------------------------------
 .byte   W96
@  #07 @038   ----------------------------------------
 .byte   W96
@  #07 @039   ----------------------------------------
 .byte   W96
@  #07 @040   ----------------------------------------
 .byte   W96
@  #07 @041   ----------------------------------------
 .byte   W96
@  #07 @042   ----------------------------------------
 .byte   W96
@  #07 @043   ----------------------------------------
 .byte   GOTO
  .word Label_CF9CD1
@  #07 @044   ----------------------------------------
 .byte   W28
 .byte   W01
 .byte   FINE

@**************** Track 8 (Midi-Chn.7) ****************@

EO1Guild_008:
@  #08 @000   ----------------------------------------
 .byte   KEYSH , EO1Guild_key+0
 .byte   VOICE , 10
 .byte   VOL , 49*EO1Guild_mvl/mxv
 .byte   PAN , c_v-60
 .byte   W96
@  #08 @001   ----------------------------------------
 .byte   W96
@  #08 @002   ----------------------------------------
Label_CF9DB6:
 .byte   W96
@  #08 @003   ----------------------------------------
 .byte   W96
@  #08 @004   ----------------------------------------
 .byte   W96
@  #08 @005   ----------------------------------------
 .byte   W96
@  #08 @006   ----------------------------------------
 .byte   W96
@  #08 @007   ----------------------------------------
 .byte   W96
@  #08 @008   ----------------------------------------
 .byte   W96
@  #08 @009   ----------------------------------------
 .byte   W96
@  #08 @010   ----------------------------------------
 .byte   W96
@  #08 @011   ----------------------------------------
 .byte   W96
@  #08 @012   ----------------------------------------
 .byte   W96
@  #08 @013   ----------------------------------------
 .byte   W96
@  #08 @014   ----------------------------------------
 .byte   W96
@  #08 @015   ----------------------------------------
 .byte   W96
@  #08 @016   ----------------------------------------
 .byte   W96
@  #08 @017   ----------------------------------------
 .byte   W96
@  #08 @018   ----------------------------------------
 .byte   W96
@  #08 @019   ----------------------------------------
 .byte   W96
@  #08 @020   ----------------------------------------
 .byte   W96
@  #08 @021   ----------------------------------------
 .byte   W96
@  #08 @022   ----------------------------------------
 .byte   W96
@  #08 @023   ----------------------------------------
 .byte   W96
@  #08 @024   ----------------------------------------
 .byte   W60
 .byte   N11 ,Gs3 ,v080
 .byte   W12
 .byte   Ds4
 .byte   W12
 .byte   Gs4
 .byte   W12
@  #08 @025   ----------------------------------------
 .byte   As4
 .byte   W12
 .byte   N23 ,Fn4
 .byte   W24
 .byte   N11 ,Cn4
 .byte   W12
 .byte   As4
 .byte   W12
 .byte   N23 ,Fn4
 .byte   W24
 .byte   N11 ,Cn4
 .byte   W12
@  #08 @026   ----------------------------------------
Label_CF9DE5:
 .byte   N32 ,Cn5 ,v080
 .byte   W12
 .byte   Gn4
 .byte   W12
 .byte   Dn4
 .byte   W12
 .byte   Cn5
 .byte   W12
 .byte   Bn4
 .byte   W12
 .byte   Gn4
 .byte   W12
 .byte   Dn4
 .byte   W12
 .byte   Cn4
 .byte   W12
 .byte   PEND 
@  #08 @027   ----------------------------------------
 .byte   PATT
  .word Label_CF9DE5
@  #08 @028   ----------------------------------------
Label_CF9DFD:
 .byte   N32 ,As4 ,v080
 .byte   W12
 .byte   Gn4
 .byte   W12
 .byte   Cn4
 .byte   W12
 .byte   Cn5
 .byte   W12
 .byte   As4
 .byte   W12
 .byte   Gn4
 .byte   W12
 .byte   Dn4
 .byte   W12
 .byte   Cn4
 .byte   W12
 .byte   PEND 
@  #08 @029   ----------------------------------------
 .byte   PATT
  .word Label_CF9DFD
@  #08 @030   ----------------------------------------
 .byte   PATT
  .word Label_CF9DE5
@  #08 @031   ----------------------------------------
 .byte   PATT
  .word Label_CF9DE5
@  #08 @032   ----------------------------------------
 .byte   PATT
  .word Label_CF9DFD
@  #08 @033   ----------------------------------------
 .byte   PATT
  .word Label_CF9DFD
@  #08 @034   ----------------------------------------
 .byte   PATT
  .word Label_CF9DE5
@  #08 @035   ----------------------------------------
 .byte   PATT
  .word Label_CF9DE5
@  #08 @036   ----------------------------------------
 .byte   PATT
  .word Label_CF9DFD
@  #08 @037   ----------------------------------------
 .byte   PATT
  .word Label_CF9DFD
@  #08 @038   ----------------------------------------
 .byte   PATT
  .word Label_CF9DE5
@  #08 @039   ----------------------------------------
 .byte   PATT
  .word Label_CF9DE5
@  #08 @040   ----------------------------------------
 .byte   PATT
  .word Label_CF9DFD
@  #08 @041   ----------------------------------------
 .byte   PATT
  .word Label_CF9DFD
@  #08 @042   ----------------------------------------
 .byte   GOTO
  .word Label_CF9DB6
@  #08 @043   ----------------------------------------
 .byte   W28
 .byte   W01
 .byte   FINE

@**************** Track 9 (Midi-Chn.8) ****************@

EO1Guild_009:
@  #09 @000   ----------------------------------------
 .byte   KEYSH , EO1Guild_key+0
 .byte   VOICE , 8
 .byte   VOL , 54*EO1Guild_mvl/mxv
 .byte   PAN , c_v-40
 .byte   W96
@  #09 @001   ----------------------------------------
 .byte   W96
@  #09 @002   ----------------------------------------
Label_0100000A:
 .byte   W96
@  #09 @003   ----------------------------------------
 .byte   W96
@  #09 @004   ----------------------------------------
 .byte   W96
@  #09 @005   ----------------------------------------
 .byte   W96
@  #09 @006   ----------------------------------------
 .byte   W96
@  #09 @007   ----------------------------------------
 .byte   W96
@  #09 @008   ----------------------------------------
 .byte   W96
@  #09 @009   ----------------------------------------
 .byte   W96
@  #09 @010   ----------------------------------------
 .byte   W96
@  #09 @011   ----------------------------------------
 .byte   W96
@  #09 @012   ----------------------------------------
 .byte   W96
@  #09 @013   ----------------------------------------
 .byte   W96
@  #09 @014   ----------------------------------------
Label_01000016:
 .byte   N05 ,Cn4 ,v052
 .byte   W06
 .byte   Fn3
 .byte   W06
 .byte   N05
 .byte   W06
 .byte   Cn3
 .byte   W06
 .byte   Cn4
 .byte   W06
 .byte   Fn3
 .byte   W06
 .byte   N05
 .byte   W06
 .byte   Cn3
 .byte   W06
 .byte   Cn4
 .byte   W06
 .byte   Fn3
 .byte   W06
 .byte   N05
 .byte   W06
 .byte   Cn3
 .byte   W06
 .byte   Cn4
 .byte   W06
 .byte   Fn3
 .byte   W06
 .byte   N05
 .byte   W06
 .byte   Cn3
 .byte   W06
 .byte   PEND 
@  #09 @015   ----------------------------------------
Label_01000039:
 .byte   N05 ,Ds4 ,v052
 .byte   W06
 .byte   Gs3
 .byte   W06
 .byte   N05
 .byte   W06
 .byte   Ds3
 .byte   W06
 .byte   Ds4
 .byte   W06
 .byte   Gs3
 .byte   W06
 .byte   N05
 .byte   W06
 .byte   Ds3
 .byte   W06
 .byte   Ds4
 .byte   W06
 .byte   Gs3
 .byte   W06
 .byte   N05
 .byte   W06
 .byte   Ds3
 .byte   W06
 .byte   Ds4
 .byte   W06
 .byte   Gs3
 .byte   W06
 .byte   N05
 .byte   W06
 .byte   Ds3
 .byte   W06
 .byte   PEND 
@  #09 @016   ----------------------------------------
 .byte   PATT
  .word Label_01000016
@  #09 @017   ----------------------------------------
 .byte   PATT
  .word Label_01000039
@  #09 @018   ----------------------------------------
 .byte   PATT
  .word Label_01000016
@  #09 @019   ----------------------------------------
 .byte   PATT
  .word Label_01000039
@  #09 @020   ----------------------------------------
 .byte   PATT
  .word Label_01000016
@  #09 @021   ----------------------------------------
 .byte   PATT
  .word Label_01000039
@  #09 @022   ----------------------------------------
 .byte   N05 ,Fn4 ,v052
 .byte   W06
 .byte   As3
 .byte   W06
 .byte   N05
 .byte   W06
 .byte   Fn3
 .byte   W06
 .byte   Fn4
 .byte   W06
 .byte   As3
 .byte   W06
 .byte   N05
 .byte   W06
 .byte   Fn3
 .byte   W06
 .byte   Fn4
 .byte   W06
 .byte   As3
 .byte   W06
 .byte   N05
 .byte   W06
 .byte   Fn3
 .byte   W06
 .byte   Fn4
 .byte   W06
 .byte   As3
 .byte   W06
 .byte   N05
 .byte   W06
 .byte   Fn3
 .byte   W06
@  #09 @023   ----------------------------------------
 .byte   Gs4
 .byte   W06
 .byte   Cs4
 .byte   W06
 .byte   N05
 .byte   W06
 .byte   Gs3
 .byte   W06
 .byte   Gs4
 .byte   W06
 .byte   Cs4
 .byte   W06
 .byte   N05
 .byte   W06
 .byte   Gs3
 .byte   W06
 .byte   Gs4
 .byte   W06
 .byte   Cs4
 .byte   W06
 .byte   N05
 .byte   W06
 .byte   Gs3
 .byte   W06
 .byte   Gs4
 .byte   W06
 .byte   Cs4
 .byte   W06
 .byte   N05
 .byte   W06
 .byte   Gs3
 .byte   W06
@  #09 @024   ----------------------------------------
 .byte   As4
 .byte   W06
 .byte   Ds4
 .byte   W06
 .byte   N05
 .byte   W06
 .byte   As3
 .byte   W06
 .byte   As4
 .byte   W06
 .byte   Ds4
 .byte   W06
 .byte   N05
 .byte   W06
 .byte   As3
 .byte   W06
 .byte   As4
 .byte   W06
 .byte   Ds4
 .byte   W06
 .byte   N05
 .byte   W06
 .byte   As3
 .byte   W06
 .byte   As4
 .byte   W06
 .byte   Ds4
 .byte   W06
 .byte   N05
 .byte   W06
 .byte   As3
 .byte   W06
@  #09 @025   ----------------------------------------
 .byte   Cn5
 .byte   W06
 .byte   Fn4
 .byte   W06
 .byte   N05
 .byte   W06
 .byte   Cn4
 .byte   W06
 .byte   Cn5
 .byte   W06
 .byte   Fn4
 .byte   W06
 .byte   N05
 .byte   W06
 .byte   Cn4
 .byte   W06
 .byte   Cn5
 .byte   W06
 .byte   Fn4
 .byte   W06
 .byte   N05
 .byte   W06
 .byte   Cn4
 .byte   W06
 .byte   Cn5
 .byte   W06
 .byte   Fn4
 .byte   W06
 .byte   N05
 .byte   W06
 .byte   Cn4
 .byte   W06
@  #09 @026   ----------------------------------------
 .byte   W96
@  #09 @027   ----------------------------------------
 .byte   W96
@  #09 @028   ----------------------------------------
 .byte   W96
@  #09 @029   ----------------------------------------
 .byte   W96
@  #09 @030   ----------------------------------------
 .byte   W96
@  #09 @031   ----------------------------------------
 .byte   W96
@  #09 @032   ----------------------------------------
 .byte   W96
@  #09 @033   ----------------------------------------
 .byte   W96
@  #09 @034   ----------------------------------------
 .byte   W96
@  #09 @035   ----------------------------------------
 .byte   W96
@  #09 @036   ----------------------------------------
 .byte   W96
@  #09 @037   ----------------------------------------
 .byte   W96
@  #09 @038   ----------------------------------------
 .byte   W96
@  #09 @039   ----------------------------------------
 .byte   W96
@  #09 @040   ----------------------------------------
 .byte   W96
@  #09 @041   ----------------------------------------
 .byte   W96
@  #09 @042   ----------------------------------------
 .byte   GOTO
  .word Label_0100000A
@  #09 @043   ----------------------------------------
 .byte   W28
 .byte   W01
 .byte   FINE

@**************** Track 10 (Midi-Chn.9) ****************@

EO1Guild_010:
@  #10 @000   ----------------------------------------
 .byte   KEYSH , EO1Guild_key+0
 .byte   VOICE , 124
 .byte   VOL , 66*EO1Guild_mvl/mxv
 .byte   PAN , c_v+0
 .byte   N06 ,Cn1 ,v064
 .byte   W12
 .byte   N05 ,En1
 .byte   W12
 .byte   En1 ,v088
 .byte   W12
 .byte   En1 ,v072
 .byte   W06
 .byte   En1 ,v064
 .byte   W06
 .byte   En1 ,v080
 .byte   W12
 .byte   N05
 .byte   W24
 .byte   N11 ,Dn1
 .byte   W12
@  #10 @001   ----------------------------------------
Label_01000134:
 .byte   N05 ,En1 ,v080
 .byte   W12
 .byte   En1 ,v068
 .byte   W12
 .byte   En1 ,v088
 .byte   W12
 .byte   En1 ,v072
 .byte   W06
 .byte   En1 ,v064
 .byte   W06
 .byte   En1 ,v080
 .byte   W12
 .byte   N05
 .byte   W36
 .byte   PEND 
@  #10 @002   ----------------------------------------
Label_0100014A:
 .byte   N05 ,En1 ,v080
 .byte   N92 ,Cs2 ,v064
 .byte   W12
 .byte   N05 ,En1
 .byte   W12
 .byte   En1 ,v088
 .byte   W12
 .byte   En1 ,v072
 .byte   W06
 .byte   En1 ,v064
 .byte   W06
 .byte   En1 ,v080
 .byte   W12
 .byte   N05
 .byte   W24
 .byte   N11 ,Dn1
 .byte   W12
 .byte   PEND 
@  #10 @003   ----------------------------------------
 .byte   PATT
  .word Label_01000134
@  #10 @004   ----------------------------------------
Label_0100016B:
 .byte   N05 ,En1 ,v080
 .byte   W12
 .byte   En1 ,v064
 .byte   W12
 .byte   En1 ,v088
 .byte   W12
 .byte   En1 ,v072
 .byte   W06
 .byte   En1 ,v064
 .byte   W06
 .byte   En1 ,v080
 .byte   W12
 .byte   N05
 .byte   W24
 .byte   N11 ,Dn1
 .byte   W12
 .byte   PEND 
@  #10 @005   ----------------------------------------
 .byte   PATT
  .word Label_01000134
@  #10 @006   ----------------------------------------
 .byte   PATT
  .word Label_0100016B
@  #10 @007   ----------------------------------------
 .byte   PATT
  .word Label_01000134
@  #10 @008   ----------------------------------------
 .byte   PATT
  .word Label_0100016B
@  #10 @009   ----------------------------------------
 .byte   PATT
  .word Label_01000134
@  #10 @010   ----------------------------------------
 .byte   PATT
  .word Label_0100016B
@  #10 @011   ----------------------------------------
 .byte   PATT
  .word Label_01000134
@  #10 @012   ----------------------------------------
 .byte   PATT
  .word Label_0100016B
@  #10 @013   ----------------------------------------
 .byte   PATT
  .word Label_01000134
@  #10 @014   ----------------------------------------
 .byte   PATT
  .word Label_0100014A
@  #10 @015   ----------------------------------------
 .byte   PATT
  .word Label_01000134
@  #10 @016   ----------------------------------------
 .byte   PATT
  .word Label_0100016B
@  #10 @017   ----------------------------------------
 .byte   PATT
  .word Label_01000134
@  #10 @018   ----------------------------------------
 .byte   PATT
  .word Label_0100016B
@  #10 @019   ----------------------------------------
 .byte   PATT
  .word Label_01000134
@  #10 @020   ----------------------------------------
 .byte   PATT
  .word Label_0100016B
@  #10 @021   ----------------------------------------
 .byte   PATT
  .word Label_01000134
@  #10 @022   ----------------------------------------
 .byte   PATT
  .word Label_0100016B
@  #10 @023   ----------------------------------------
 .byte   PATT
  .word Label_01000134
@  #10 @024   ----------------------------------------
 .byte   PATT
  .word Label_0100016B
@  #10 @025   ----------------------------------------
 .byte   PATT
  .word Label_01000134
@  #10 @026   ----------------------------------------
 .byte   N92 ,Cs2 ,v092
 .byte   W96
@  #10 @027   ----------------------------------------
 .byte   W96
@  #10 @028   ----------------------------------------
 .byte   W96
@  #10 @029   ----------------------------------------
 .byte   W96
@  #10 @030   ----------------------------------------
 .byte   W96
@  #10 @031   ----------------------------------------
 .byte   W96
@  #10 @032   ----------------------------------------
 .byte   W96
@  #10 @033   ----------------------------------------
 .byte   W96
@  #10 @034   ----------------------------------------
 .byte   PATT
  .word Label_0100016B
@  #10 @035   ----------------------------------------
 .byte   PATT
  .word Label_01000134
@  #10 @036   ----------------------------------------
 .byte   PATT
  .word Label_0100016B
@  #10 @037   ----------------------------------------
 .byte   PATT
  .word Label_01000134
@  #10 @038   ----------------------------------------
 .byte   PATT
  .word Label_0100016B
@  #10 @039   ----------------------------------------
 .byte   PATT
  .word Label_01000134
@  #10 @040   ----------------------------------------
 .byte   PATT
  .word Label_0100016B
@  #10 @041   ----------------------------------------
 .byte   PATT
  .word Label_01000134
@  #10 @042   ----------------------------------------
 .byte   GOTO
  .word Label_0100014A
@  #10 @043   ----------------------------------------
 .byte   W28
 .byte   W01
 .byte   FINE

@**************** Track 11 (Midi-Chn.10) ****************@

EO1Guild_011:
@  #11 @000   ----------------------------------------
 .byte   KEYSH , EO1Guild_key+0
 .byte   VOICE , 8
 .byte   VOL , 50*EO1Guild_mvl/mxv
 .byte   PAN , c_v+40
 .byte   W96
@  #11 @001   ----------------------------------------
 .byte   W96
@  #11 @002   ----------------------------------------
Label_01000236:
 .byte   W96
@  #11 @003   ----------------------------------------
 .byte   W96
@  #11 @004   ----------------------------------------
 .byte   W96
@  #11 @005   ----------------------------------------
 .byte   W96
@  #11 @006   ----------------------------------------
 .byte   W96
@  #11 @007   ----------------------------------------
 .byte   W96
@  #11 @008   ----------------------------------------
 .byte   W96
@  #11 @009   ----------------------------------------
 .byte   W96
@  #11 @010   ----------------------------------------
 .byte   W96
@  #11 @011   ----------------------------------------
 .byte   W96
@  #11 @012   ----------------------------------------
 .byte   W96
@  #11 @013   ----------------------------------------
 .byte   W96
@  #11 @014   ----------------------------------------
 .byte   W06
 .byte   N05 ,Cn4 ,v040
 .byte   W06
 .byte   Fn3
 .byte   W06
 .byte   N05
 .byte   W06
 .byte   Cn3
 .byte   W06
 .byte   Cn4
 .byte   W06
 .byte   Fn3
 .byte   W06
 .byte   N05
 .byte   W06
 .byte   Cn3
 .byte   W06
 .byte   Cn4
 .byte   W06
 .byte   Fn3
 .byte   W06
 .byte   N05
 .byte   W06
 .byte   Cn3
 .byte   W06
 .byte   Cn4
 .byte   W06
 .byte   Fn3
 .byte   W06
 .byte   N05
 .byte   W06
@  #11 @015   ----------------------------------------
Label_01000263:
 .byte   N05 ,Cn3 ,v040
 .byte   W06
 .byte   Ds4
 .byte   W06
 .byte   Gs3
 .byte   W06
 .byte   N05
 .byte   W06
 .byte   Ds3
 .byte   W06
 .byte   Ds4
 .byte   W06
 .byte   Gs3
 .byte   W06
 .byte   N05
 .byte   W06
 .byte   Ds3
 .byte   W06
 .byte   Ds4
 .byte   W06
 .byte   Gs3
 .byte   W06
 .byte   N05
 .byte   W06
 .byte   Ds3
 .byte   W06
 .byte   Ds4
 .byte   W06
 .byte   Gs3
 .byte   W06
 .byte   N05
 .byte   W06
 .byte   PEND 
@  #11 @016   ----------------------------------------
Label_01000286:
 .byte   N05 ,Ds3 ,v040
 .byte   W06
 .byte   Cn4
 .byte   W06
 .byte   Fn3
 .byte   W06
 .byte   N05
 .byte   W06
 .byte   Cn3
 .byte   W06
 .byte   Cn4
 .byte   W06
 .byte   Fn3
 .byte   W06
 .byte   N05
 .byte   W06
 .byte   Cn3
 .byte   W06
 .byte   Cn4
 .byte   W06
 .byte   Fn3
 .byte   W06
 .byte   N05
 .byte   W06
 .byte   Cn3
 .byte   W06
 .byte   Cn4
 .byte   W06
 .byte   Fn3
 .byte   W06
 .byte   N05
 .byte   W06
 .byte   PEND 
@  #11 @017   ----------------------------------------
 .byte   PATT
  .word Label_01000263
@  #11 @018   ----------------------------------------
 .byte   PATT
  .word Label_01000286
@  #11 @019   ----------------------------------------
 .byte   PATT
  .word Label_01000263
@  #11 @020   ----------------------------------------
 .byte   PATT
  .word Label_01000286
@  #11 @021   ----------------------------------------
 .byte   PATT
  .word Label_01000263
@  #11 @022   ----------------------------------------
 .byte   N05 ,Ds3 ,v040
 .byte   W06
 .byte   Fn4
 .byte   W06
 .byte   As3
 .byte   W06
 .byte   N05
 .byte   W06
 .byte   Fn3
 .byte   W06
 .byte   Fn4
 .byte   W06
 .byte   As3
 .byte   W06
 .byte   N05
 .byte   W06
 .byte   Fn3
 .byte   W06
 .byte   Fn4
 .byte   W06
 .byte   As3
 .byte   W06
 .byte   N05
 .byte   W06
 .byte   Fn3
 .byte   W06
 .byte   Fn4
 .byte   W06
 .byte   As3
 .byte   W06
 .byte   N05
 .byte   W06
@  #11 @023   ----------------------------------------
 .byte   Fn3
 .byte   W06
 .byte   Gs4
 .byte   W06
 .byte   Cs4
 .byte   W06
 .byte   N05
 .byte   W06
 .byte   Gs3
 .byte   W06
 .byte   Gs4
 .byte   W06
 .byte   Cs4
 .byte   W06
 .byte   N05
 .byte   W06
 .byte   Gs3
 .byte   W06
 .byte   Gs4
 .byte   W06
 .byte   Cs4
 .byte   W06
 .byte   N05
 .byte   W06
 .byte   Gs3
 .byte   W06
 .byte   Gs4
 .byte   W06
 .byte   Cs4
 .byte   W06
 .byte   N05
 .byte   W06
@  #11 @024   ----------------------------------------
 .byte   Gs3
 .byte   W06
 .byte   As4
 .byte   W06
 .byte   Ds4
 .byte   W06
 .byte   N05
 .byte   W06
 .byte   As3
 .byte   W06
 .byte   As4
 .byte   W06
 .byte   Ds4
 .byte   W06
 .byte   N05
 .byte   W06
 .byte   As3
 .byte   W06
 .byte   As4
 .byte   W06
 .byte   Ds4
 .byte   W06
 .byte   N05
 .byte   W06
 .byte   As3
 .byte   W06
 .byte   As4
 .byte   W06
 .byte   Ds4
 .byte   W06
 .byte   N05
 .byte   W06
@  #11 @025   ----------------------------------------
 .byte   As3
 .byte   W06
 .byte   Cn5
 .byte   W06
 .byte   Fn4
 .byte   W06
 .byte   N05
 .byte   W06
 .byte   Cn4
 .byte   W06
 .byte   Cn5
 .byte   W06
 .byte   Fn4
 .byte   W06
 .byte   N05
 .byte   W06
 .byte   Cn4
 .byte   W06
 .byte   Cn5
 .byte   W06
 .byte   Fn4
 .byte   W06
 .byte   N05
 .byte   W06
 .byte   Cn4
 .byte   W06
 .byte   Cn5
 .byte   W06
 .byte   Fn4
 .byte   W06
 .byte   N05
 .byte   W06
@  #11 @026   ----------------------------------------
 .byte   Cn4
 .byte   W96
@  #11 @027   ----------------------------------------
 .byte   W96
@  #11 @028   ----------------------------------------
 .byte   W96
@  #11 @029   ----------------------------------------
 .byte   W96
@  #11 @030   ----------------------------------------
 .byte   W96
@  #11 @031   ----------------------------------------
 .byte   W96
@  #11 @032   ----------------------------------------
 .byte   W96
@  #11 @033   ----------------------------------------
 .byte   W96
@  #11 @034   ----------------------------------------
 .byte   W96
@  #11 @035   ----------------------------------------
 .byte   W96
@  #11 @036   ----------------------------------------
 .byte   W96
@  #11 @037   ----------------------------------------
 .byte   W96
@  #11 @038   ----------------------------------------
 .byte   W96
@  #11 @039   ----------------------------------------
 .byte   W96
@  #11 @040   ----------------------------------------
 .byte   W96
@  #11 @041   ----------------------------------------
 .byte   W96
@  #11 @042   ----------------------------------------
 .byte   GOTO
  .word Label_01000236
@  #11 @043   ----------------------------------------
 .byte   W28
 .byte   W01
 .byte   FINE

@**************** Track 12 (Midi-Chn.11) ****************@

EO1Guild_012:
@  #12 @000   ----------------------------------------
 .byte   KEYSH , EO1Guild_key+0
 .byte   VOICE , 10
 .byte   VOL , 51*EO1Guild_mvl/mxv
 .byte   PAN , c_v+59
 .byte   W96
@  #12 @001   ----------------------------------------
 .byte   W96
@  #12 @002   ----------------------------------------
Label_CF9E66:
 .byte   W96
@  #12 @003   ----------------------------------------
 .byte   W96
@  #12 @004   ----------------------------------------
 .byte   W96
@  #12 @005   ----------------------------------------
 .byte   W96
@  #12 @006   ----------------------------------------
 .byte   W96
@  #12 @007   ----------------------------------------
 .byte   W96
@  #12 @008   ----------------------------------------
 .byte   W96
@  #12 @009   ----------------------------------------
 .byte   W96
@  #12 @010   ----------------------------------------
 .byte   W96
@  #12 @011   ----------------------------------------
 .byte   W96
@  #12 @012   ----------------------------------------
 .byte   W96
@  #12 @013   ----------------------------------------
 .byte   W96
@  #12 @014   ----------------------------------------
 .byte   W96
@  #12 @015   ----------------------------------------
 .byte   W96
@  #12 @016   ----------------------------------------
 .byte   W96
@  #12 @017   ----------------------------------------
 .byte   W96
@  #12 @018   ----------------------------------------
 .byte   W96
@  #12 @019   ----------------------------------------
 .byte   W96
@  #12 @020   ----------------------------------------
 .byte   W96
@  #12 @021   ----------------------------------------
 .byte   W96
@  #12 @022   ----------------------------------------
 .byte   W96
@  #12 @023   ----------------------------------------
 .byte   W96
@  #12 @024   ----------------------------------------
 .byte   W78
 .byte   N11 ,Gs3 ,v032
 .byte   W12
 .byte   Ds4
 .byte   W06
@  #12 @025   ----------------------------------------
 .byte   W06
 .byte   Gs4
 .byte   W12
 .byte   As4
 .byte   W12
 .byte   N23 ,Fn4
 .byte   W24
 .byte   N11 ,Cn4
 .byte   W12
 .byte   As4
 .byte   W12
 .byte   N23 ,Fn4
 .byte   W18
@  #12 @026   ----------------------------------------
 .byte   W06
 .byte   N11 ,Cn4
 .byte   W12
 .byte   N32 ,Cn5
 .byte   W12
 .byte   Gn4
 .byte   W12
 .byte   Dn4
 .byte   W12
 .byte   Cn5
 .byte   W12
 .byte   Bn4
 .byte   W12
 .byte   Gn4
 .byte   W12
 .byte   Dn4
 .byte   W06
@  #12 @027   ----------------------------------------
Label_CF9EA6:
 .byte   W06
 .byte   N32 ,Cn4 ,v032
 .byte   W12
 .byte   Cn5
 .byte   W12
 .byte   Gn4
 .byte   W12
 .byte   Dn4
 .byte   W12
 .byte   Cn5
 .byte   W12
 .byte   Bn4
 .byte   W12
 .byte   Gn4
 .byte   W12
 .byte   Dn4
 .byte   W06
 .byte   PEND 
@  #12 @028   ----------------------------------------
Label_CF9EBA:
 .byte   W06
 .byte   N32 ,Cn4 ,v032
 .byte   W12
 .byte   As4
 .byte   W12
 .byte   Gn4
 .byte   W12
 .byte   Cn4
 .byte   W12
 .byte   Cn5
 .byte   W12
 .byte   As4
 .byte   W12
 .byte   Gn4
 .byte   W12
 .byte   Dn4
 .byte   W06
 .byte   PEND 
@  #12 @029   ----------------------------------------
 .byte   PATT
  .word Label_CF9EBA
@  #12 @030   ----------------------------------------
 .byte   PATT
  .word Label_CF9EA6
@  #12 @031   ----------------------------------------
 .byte   PATT
  .word Label_CF9EA6
@  #12 @032   ----------------------------------------
 .byte   PATT
  .word Label_CF9EBA
@  #12 @033   ----------------------------------------
 .byte   PATT
  .word Label_CF9EBA
@  #12 @034   ----------------------------------------
 .byte   PATT
  .word Label_CF9EA6
@  #12 @035   ----------------------------------------
 .byte   PATT
  .word Label_CF9EA6
@  #12 @036   ----------------------------------------
 .byte   PATT
  .word Label_CF9EBA
@  #12 @037   ----------------------------------------
 .byte   PATT
  .word Label_CF9EBA
@  #12 @038   ----------------------------------------
 .byte   PATT
  .word Label_CF9EA6
@  #12 @039   ----------------------------------------
 .byte   PATT
  .word Label_CF9EA6
@  #12 @040   ----------------------------------------
 .byte   PATT
  .word Label_CF9EBA
@  #12 @041   ----------------------------------------
 .byte   PATT
  .word Label_CF9EBA
@  #12 @042   ----------------------------------------
 .byte   GOTO
  .word Label_CF9E66
@  #12 @043   ----------------------------------------
 .byte   W28
 .byte   W01
 .byte   FINE

@******************************************************@
	.align	2

EO1Guild:
	.byte	12	@ NumTrks
	.byte	0	@ NumBlks
	.byte	EO1Guild_pri	@ Priority
	.byte	EO1Guild_rev	@ Reverb.
    
	.word	EO1Guild_grp
    
	.word	EO1Guild_001
	.word	EO1Guild_002
	.word	EO1Guild_003
	.word	EO1Guild_004
	.word	EO1Guild_005
	.word	EO1Guild_006
	.word	EO1Guild_007
	.word	EO1Guild_008
	.word	EO1Guild_009
	.word	EO1Guild_010
	.word	EO1Guild_011
	.word	EO1Guild_012

	.end
