	.include "MPlayDef.s"

	.equ	Escape_grp, voicegroup000
	.equ	Escape_pri, 0
	.equ	Escape_rev, 0
	.equ	Escape_mvl, 127
	.equ	Escape_key, 0
	.equ	Escape_tbs, 1
	.equ	Escape_exg, 0
	.equ	Escape_cmp, 1

	.section .rodata
	.global	Escape
	.align	2


@**************** Track 1 (Midi-Chn.0) ****************@

Escape_001:
@  #01 @000   ----------------------------------------
 .byte   KEYSH , Escape_key+0
 .byte   TEMPO , 140*Escape_tbs/2
 .byte   VOICE , 124
 .byte   PAN , c_v+0
 .byte   VOL , 41*Escape_mvl/mxv
 .byte   PAN , c_v+0
 .byte   VOL , 41*Escape_mvl/mxv
 .byte   BEND , c_v+0
 .byte   N11 ,Fs1 ,v100
 .byte   W12
 .byte   N11
 .byte   W12
 .byte   N11
 .byte   W12
 .byte   N11
 .byte   W12
 .byte   N11
 .byte   W12
 .byte   N11
 .byte   W12
 .byte   N11
 .byte   W12
 .byte   N11
 .byte   W12
@  #01 @001   ----------------------------------------
 .byte   N11
 .byte   W12
 .byte   N11
 .byte   W12
 .byte   N11
 .byte   W12
 .byte   N11
 .byte   W12
 .byte   N11
 .byte   W12
 .byte   N11
 .byte   W12
 .byte   Cn1
 .byte   N11 ,Dn1
 .byte   N11 ,En1
 .byte   N11 ,Fs1
 .byte   N05 ,Cn2
 .byte   W06
 .byte   N05
 .byte   W06
 .byte   N11 ,Cn1
 .byte   N11 ,Dn1
 .byte   N11 ,En1
 .byte   N11 ,Fs1
 .byte   N05 ,Bn1
 .byte   W06
 .byte   N05
 .byte   W06
@  #01 @002   ----------------------------------------
Label_01000047:
 .byte   N11 ,Cn1 ,v100
 .byte   N11 ,Fs1
 .byte   W12
 .byte   En1
 .byte   N11 ,Fs1
 .byte   W12
 .byte   Dn1
 .byte   N11 ,Fs1
 .byte   N44 ,Bn4
 .byte   W12
 .byte   N11 ,Cn1
 .byte   N11 ,Fs1
 .byte   W12
 .byte   Cn1
 .byte   N11 ,Fs1
 .byte   W12
 .byte   En1
 .byte   N11 ,Fs1
 .byte   W12
 .byte   Dn1
 .byte   N11 ,Fs1
 .byte   N44 ,Bn4
 .byte   W12
 .byte   N11 ,Cn1
 .byte   N11 ,Fs1
 .byte   W12
 .byte   PEND 
@  #01 @003   ----------------------------------------
 .byte   PATT
  .word Label_01000047
@  #01 @004   ----------------------------------------
 .byte   PATT
  .word Label_01000047
@  #01 @005   ----------------------------------------
Label_0100007A:
 .byte   N11 ,Cn1 ,v100
 .byte   N11 ,Fs1
 .byte   W12
 .byte   En1
 .byte   N11 ,Fs1
 .byte   W12
 .byte   Dn1
 .byte   N11 ,Fs1
 .byte   N44 ,Bn4
 .byte   W12
 .byte   N11 ,Cn1
 .byte   N11 ,Fs1
 .byte   W12
 .byte   Cn1
 .byte   N11 ,Fs1
 .byte   W12
 .byte   En1
 .byte   N11 ,Fs1
 .byte   W12
 .byte   Cn1
 .byte   N11 ,Dn1
 .byte   N11 ,En1
 .byte   N11 ,Fs1
 .byte   N05 ,Cn2
 .byte   N44 ,Bn4
 .byte   W06
 .byte   N05 ,Cn2
 .byte   W06
 .byte   N11 ,Cn1
 .byte   N11 ,Dn1
 .byte   N11 ,En1
 .byte   N11 ,Fs1
 .byte   N05 ,Bn1
 .byte   W06
 .byte   N05
 .byte   W06
 .byte   PEND 
@  #01 @006   ----------------------------------------
Label_010000B4:
@  #01 @007   ----------------------------------------
 .byte   PATT
  .word Label_01000047
@  #01 @008   ----------------------------------------
 .byte   PATT
  .word Label_01000047
@  #01 @009   ----------------------------------------
 .byte   PATT
  .word Label_01000047
@  #01 @010   ----------------------------------------
 .byte   PATT
  .word Label_01000047
@  #01 @011   ----------------------------------------
 .byte   PATT
  .word Label_01000047
@  #01 @012   ----------------------------------------
 .byte   PATT
  .word Label_01000047
@  #01 @013   ----------------------------------------
 .byte   PATT
  .word Label_01000047
@  #01 @014   ----------------------------------------
 .byte   PATT
  .word Label_0100007A
@  #01 @015   ----------------------------------------
 .byte   PATT
  .word Label_01000047
@  #01 @016   ----------------------------------------
 .byte   PATT
  .word Label_01000047
@  #01 @017   ----------------------------------------
 .byte   PATT
  .word Label_01000047
@  #01 @018   ----------------------------------------
 .byte   PATT
  .word Label_01000047
@  #01 @019   ----------------------------------------
 .byte   PATT
  .word Label_01000047
@  #01 @020   ----------------------------------------
 .byte   PATT
  .word Label_01000047
@  #01 @021   ----------------------------------------
 .byte   PATT
  .word Label_01000047
@  #01 @022   ----------------------------------------
 .byte   PATT
  .word Label_0100007A
@  #01 @023   ----------------------------------------
 .byte   PATT
  .word Label_01000047
@  #01 @024   ----------------------------------------
 .byte   PATT
  .word Label_01000047
@  #01 @025   ----------------------------------------
 .byte   PATT
  .word Label_01000047
@  #01 @026   ----------------------------------------
 .byte   PATT
  .word Label_01000047
@  #01 @027   ----------------------------------------
 .byte   PATT
  .word Label_01000047
@  #01 @028   ----------------------------------------
 .byte   PATT
  .word Label_01000047
@  #01 @029   ----------------------------------------
 .byte   PATT
  .word Label_01000047
@  #01 @030   ----------------------------------------
 .byte   PATT
  .word Label_0100007A
@  #01 @031   ----------------------------------------
 .byte   PATT
  .word Label_01000047
@  #01 @032   ----------------------------------------
 .byte   PATT
  .word Label_01000047
@  #01 @033   ----------------------------------------
 .byte   PATT
  .word Label_01000047
@  #01 @034   ----------------------------------------
 .byte   PATT
  .word Label_01000047
@  #01 @035   ----------------------------------------
 .byte   PATT
  .word Label_01000047
@  #01 @036   ----------------------------------------
 .byte   PATT
  .word Label_01000047
@  #01 @037   ----------------------------------------
 .byte   PATT
  .word Label_01000047
@  #01 @038   ----------------------------------------
 .byte   PATT
  .word Label_0100007A
@  #01 @039   ----------------------------------------
 .byte   PATT
  .word Label_01000047
@  #01 @040   ----------------------------------------
 .byte   PATT
  .word Label_01000047
@  #01 @041   ----------------------------------------
 .byte   PATT
  .word Label_01000047
@  #01 @042   ----------------------------------------
 .byte   PATT
  .word Label_01000047
@  #01 @043   ----------------------------------------
 .byte   PATT
  .word Label_01000047
@  #01 @044   ----------------------------------------
 .byte   PATT
  .word Label_01000047
@  #01 @045   ----------------------------------------
 .byte   PATT
  .word Label_01000047
@  #01 @046   ----------------------------------------
 .byte   PATT
  .word Label_0100007A
@  #01 @047   ----------------------------------------
 .byte   PATT
  .word Label_01000047
@  #01 @048   ----------------------------------------
 .byte   PATT
  .word Label_01000047
@  #01 @049   ----------------------------------------
 .byte   PATT
  .word Label_01000047
@  #01 @050   ----------------------------------------
 .byte   PATT
  .word Label_01000047
@  #01 @051   ----------------------------------------
 .byte   PATT
  .word Label_01000047
@  #01 @052   ----------------------------------------
 .byte   PATT
  .word Label_01000047
@  #01 @053   ----------------------------------------
 .byte   PATT
  .word Label_01000047
@  #01 @054   ----------------------------------------
 .byte   PATT
  .word Label_0100007A
@  #01 @055   ----------------------------------------
 .byte   PATT
  .word Label_01000047
@  #01 @056   ----------------------------------------
 .byte   PATT
  .word Label_01000047
@  #01 @057   ----------------------------------------
 .byte   PATT
  .word Label_01000047
@  #01 @058   ----------------------------------------
 .byte   PATT
  .word Label_01000047
@  #01 @059   ----------------------------------------
 .byte   PATT
  .word Label_01000047
@  #01 @060   ----------------------------------------
 .byte   PATT
  .word Label_01000047
@  #01 @061   ----------------------------------------
 .byte   PATT
  .word Label_01000047
@  #01 @062   ----------------------------------------
 .byte   PATT
  .word Label_0100007A
@  #01 @063   ----------------------------------------
 .byte   PATT
  .word Label_01000047
@  #01 @064   ----------------------------------------
 .byte   PATT
  .word Label_01000047
@  #01 @065   ----------------------------------------
 .byte   PATT
  .word Label_01000047
@  #01 @066   ----------------------------------------
 .byte   PATT
  .word Label_01000047
@  #01 @067   ----------------------------------------
 .byte   PATT
  .word Label_01000047
@  #01 @068   ----------------------------------------
 .byte   PATT
  .word Label_01000047
@  #01 @069   ----------------------------------------
 .byte   PATT
  .word Label_01000047
@  #01 @070   ----------------------------------------
 .byte   PATT
  .word Label_0100007A
@  #01 @071   ----------------------------------------
 .byte   PATT
  .word Label_01000047
@  #01 @072   ----------------------------------------
 .byte   PATT
  .word Label_01000047
@  #01 @073   ----------------------------------------
 .byte   PATT
  .word Label_01000047
@  #01 @074   ----------------------------------------
 .byte   PATT
  .word Label_01000047
@  #01 @075   ----------------------------------------
 .byte   PATT
  .word Label_01000047
@  #01 @076   ----------------------------------------
 .byte   PATT
  .word Label_01000047
@  #01 @077   ----------------------------------------
 .byte   PATT
  .word Label_01000047
@  #01 @078   ----------------------------------------
 .byte   PATT
  .word Label_0100007A
@  #01 @079   ----------------------------------------
 .byte   PATT
  .word Label_01000047
@  #01 @080   ----------------------------------------
 .byte   PATT
  .word Label_01000047
@  #01 @081   ----------------------------------------
 .byte   PATT
  .word Label_01000047
@  #01 @082   ----------------------------------------
 .byte   PATT
  .word Label_01000047
@  #01 @083   ----------------------------------------
 .byte   PATT
  .word Label_01000047
@  #01 @084   ----------------------------------------
 .byte   PATT
  .word Label_01000047
@  #01 @085   ----------------------------------------
 .byte   PATT
  .word Label_01000047
@  #01 @086   ----------------------------------------
 .byte   N11 ,Cn1 ,v100
 .byte   N11 ,Fs1
 .byte   W12
 .byte   En1
 .byte   N11 ,Fs1
 .byte   W12
 .byte   Dn1
 .byte   N11 ,Fs1
 .byte   N44 ,Bn4
 .byte   W12
 .byte   N11 ,Cn1
 .byte   N11 ,Fs1
 .byte   W12
 .byte   Cn1
 .byte   N11 ,Fs1
 .byte   W12
 .byte   En1
 .byte   N11 ,Fs1
 .byte   W12
 .byte   Cn1
 .byte   N11 ,Dn1
 .byte   N11 ,En1
 .byte   N11 ,Fs1
 .byte   N05 ,Cn2
 .byte   N23 ,Bn4
 .byte   W06
 .byte   N05 ,Cn2
 .byte   W06
 .byte   N11 ,Cn1
 .byte   N11 ,Dn1
 .byte   N11 ,En1
 .byte   N11 ,Fs1
 .byte   N05 ,Bn1
 .byte   W06
 .byte   N05
 .byte   W06
@  #01 @087   ----------------------------------------
 .byte   GOTO
  .word Label_010000B4
@  #01 @088   ----------------------------------------
 .byte   VOICE , 124
 .byte   PAN , c_v+0
 .byte   VOL , 41*Escape_mvl/mxv
 .byte   PAN , c_v+0
 .byte   VOL , 41*Escape_mvl/mxv
 .byte   PAN , c_v+0
 .byte   VOL , 41*Escape_mvl/mxv
 .byte   BEND , c_v+0
 .byte   FINE

@**************** Track 2 (Midi-Chn.1) ****************@

Escape_002:
@  #02 @000   ----------------------------------------
 .byte   KEYSH , Escape_key+0
 .byte   VOICE , 81
 .byte   VOL , 53*Escape_mvl/mxv
 .byte   PAN , c_v+0
 .byte   PAN , c_v+0
 .byte   BEND , c_v+0
 .byte   TIE ,En1 ,v100
 .byte   W96
@  #02 @001   ----------------------------------------
 .byte   W92
 .byte   W03
 .byte   EOT
 .byte   W01
@  #02 @002   ----------------------------------------
 .byte   TIE
 .byte   W96
@  #02 @003   ----------------------------------------
 .byte   W92
 .byte   W03
 .byte   EOT
 .byte   W01
@  #02 @004   ----------------------------------------
 .byte   TIE
 .byte   W96
@  #02 @005   ----------------------------------------
 .byte   W92
 .byte   W03
 .byte   EOT
 .byte   W01
@  #02 @006   ----------------------------------------
Label_010004BB:
 .byte   TIE ,En1 ,v100
 .byte   W96
@  #02 @007   ----------------------------------------
 .byte   W92
 .byte   W03
 .byte   EOT
 .byte   W01
@  #02 @008   ----------------------------------------
 .byte   TIE ,Dn1
 .byte   W96
@  #02 @009   ----------------------------------------
 .byte   W92
 .byte   W03
 .byte   EOT
 .byte   W01
@  #02 @010   ----------------------------------------
 .byte   TIE ,Cn1
 .byte   W96
@  #02 @011   ----------------------------------------
 .byte   W92
 .byte   W03
 .byte   EOT
 .byte   W01
@  #02 @012   ----------------------------------------
 .byte   N92 ,Dn1
 .byte   W96
@  #02 @013   ----------------------------------------
Label_010004D4:
 .byte   N44 ,Gn1 ,v100
 .byte   W48
 .byte   Fs1
 .byte   W48
 .byte   PEND 
@  #02 @014   ----------------------------------------
 .byte   TIE ,En1
 .byte   W96
@  #02 @015   ----------------------------------------
 .byte   W92
 .byte   W03
 .byte   EOT
 .byte   W01
@  #02 @016   ----------------------------------------
 .byte   TIE ,Dn1
 .byte   W96
@  #02 @017   ----------------------------------------
 .byte   W92
 .byte   W03
 .byte   EOT
 .byte   W01
@  #02 @018   ----------------------------------------
 .byte   TIE ,Cn1
 .byte   W96
@  #02 @019   ----------------------------------------
 .byte   W92
 .byte   W03
 .byte   EOT
 .byte   W01
@  #02 @020   ----------------------------------------
 .byte   N92 ,Dn1
 .byte   W96
@  #02 @021   ----------------------------------------
 .byte   Ds1
 .byte   W96
@  #02 @022   ----------------------------------------
 .byte   TIE ,En1
 .byte   W96
@  #02 @023   ----------------------------------------
 .byte   W92
 .byte   W03
 .byte   EOT
 .byte   W01
@  #02 @024   ----------------------------------------
 .byte   TIE ,Cn1
 .byte   W96
@  #02 @025   ----------------------------------------
 .byte   W92
 .byte   W03
 .byte   EOT
 .byte   W01
@  #02 @026   ----------------------------------------
 .byte   TIE ,Dn1
 .byte   W96
@  #02 @027   ----------------------------------------
 .byte   W92
 .byte   W03
 .byte   EOT
 .byte   W01
@  #02 @028   ----------------------------------------
 .byte   N92 ,En1
 .byte   W96
@  #02 @029   ----------------------------------------
 .byte   PATT
  .word Label_010004D4
@  #02 @030   ----------------------------------------
 .byte   TIE ,En1 ,v100
 .byte   W96
@  #02 @031   ----------------------------------------
 .byte   W92
 .byte   W03
 .byte   EOT
 .byte   W01
@  #02 @032   ----------------------------------------
 .byte   TIE ,Dn1
 .byte   W96
@  #02 @033   ----------------------------------------
 .byte   W92
 .byte   W03
 .byte   EOT
 .byte   W01
@  #02 @034   ----------------------------------------
 .byte   TIE ,Cn1
 .byte   W96
@  #02 @035   ----------------------------------------
 .byte   W92
 .byte   W03
 .byte   EOT
 .byte   W01
@  #02 @036   ----------------------------------------
 .byte   N92 ,Bn0
 .byte   W96
@  #02 @037   ----------------------------------------
 .byte   Ds1
 .byte   W96
@  #02 @038   ----------------------------------------
 .byte   TIE ,En1
 .byte   W96
@  #02 @039   ----------------------------------------
 .byte   W92
 .byte   W03
 .byte   EOT
 .byte   W01
@  #02 @040   ----------------------------------------
 .byte   TIE ,Dn1
 .byte   W96
@  #02 @041   ----------------------------------------
 .byte   W92
 .byte   W03
 .byte   EOT
 .byte   W01
@  #02 @042   ----------------------------------------
 .byte   TIE ,Cn1
 .byte   W96
@  #02 @043   ----------------------------------------
 .byte   W92
 .byte   W03
 .byte   EOT
 .byte   W01
@  #02 @044   ----------------------------------------
 .byte   N92 ,Dn1
 .byte   W96
@  #02 @045   ----------------------------------------
 .byte   PATT
  .word Label_010004D4
@  #02 @046   ----------------------------------------
 .byte   TIE ,En1 ,v100
 .byte   W96
@  #02 @047   ----------------------------------------
 .byte   W92
 .byte   W03
 .byte   EOT
 .byte   W01
@  #02 @048   ----------------------------------------
 .byte   TIE ,Dn1
 .byte   W96
@  #02 @049   ----------------------------------------
 .byte   W92
 .byte   W03
 .byte   EOT
 .byte   W01
@  #02 @050   ----------------------------------------
 .byte   TIE ,Cn1
 .byte   W96
@  #02 @051   ----------------------------------------
 .byte   W92
 .byte   W03
 .byte   EOT
 .byte   W01
@  #02 @052   ----------------------------------------
 .byte   N92 ,Dn1
 .byte   W96
@  #02 @053   ----------------------------------------
 .byte   Ds1
 .byte   W96
@  #02 @054   ----------------------------------------
 .byte   TIE ,En1
 .byte   W96
@  #02 @055   ----------------------------------------
 .byte   W92
 .byte   W03
 .byte   EOT
 .byte   W01
@  #02 @056   ----------------------------------------
 .byte   TIE ,Dn1
 .byte   W96
@  #02 @057   ----------------------------------------
 .byte   W92
 .byte   W03
 .byte   EOT
 .byte   W01
@  #02 @058   ----------------------------------------
 .byte   TIE ,Cn1
 .byte   W96
@  #02 @059   ----------------------------------------
 .byte   W92
 .byte   W03
 .byte   EOT
 .byte   W01
@  #02 @060   ----------------------------------------
 .byte   N92 ,Dn1
 .byte   W96
@  #02 @061   ----------------------------------------
 .byte   PATT
  .word Label_010004D4
@  #02 @062   ----------------------------------------
 .byte   TIE ,En1 ,v100
 .byte   W96
@  #02 @063   ----------------------------------------
 .byte   W92
 .byte   W03
 .byte   EOT
 .byte   W01
@  #02 @064   ----------------------------------------
 .byte   TIE ,Dn1
 .byte   W96
@  #02 @065   ----------------------------------------
 .byte   W92
 .byte   W03
 .byte   EOT
 .byte   W01
@  #02 @066   ----------------------------------------
 .byte   TIE ,Cn1
 .byte   W96
@  #02 @067   ----------------------------------------
 .byte   W92
 .byte   W03
 .byte   EOT
 .byte   W01
@  #02 @068   ----------------------------------------
 .byte   N92 ,Dn1
 .byte   W96
@  #02 @069   ----------------------------------------
 .byte   Ds1
 .byte   W96
@  #02 @070   ----------------------------------------
 .byte   TIE ,En1
 .byte   W96
@  #02 @071   ----------------------------------------
 .byte   W92
 .byte   W03
 .byte   EOT
 .byte   W01
@  #02 @072   ----------------------------------------
 .byte   TIE ,Dn1
 .byte   W96
@  #02 @073   ----------------------------------------
 .byte   W92
 .byte   W03
 .byte   EOT
 .byte   W01
@  #02 @074   ----------------------------------------
 .byte   TIE ,Cn1
 .byte   W96
@  #02 @075   ----------------------------------------
 .byte   W92
 .byte   W03
 .byte   EOT
 .byte   W01
@  #02 @076   ----------------------------------------
 .byte   N92 ,Dn1
 .byte   W96
@  #02 @077   ----------------------------------------
 .byte   PATT
  .word Label_010004D4
@  #02 @078   ----------------------------------------
 .byte   TIE ,En1 ,v100
 .byte   W96
@  #02 @079   ----------------------------------------
 .byte   W92
 .byte   W03
 .byte   EOT
 .byte   W01
@  #02 @080   ----------------------------------------
 .byte   TIE ,Dn1
 .byte   W96
@  #02 @081   ----------------------------------------
 .byte   W92
 .byte   W03
 .byte   EOT
 .byte   W01
@  #02 @082   ----------------------------------------
 .byte   TIE ,Cn1
 .byte   W96
@  #02 @083   ----------------------------------------
 .byte   W92
 .byte   W03
 .byte   EOT
 .byte   W01
@  #02 @084   ----------------------------------------
 .byte   N92 ,Dn1
 .byte   W96
@  #02 @085   ----------------------------------------
 .byte   Ds1
 .byte   W96
@  #02 @086   ----------------------------------------
 .byte   GOTO
  .word Label_010004BB
@  #02 @087   ----------------------------------------
 .byte   VOICE , 81
 .byte   PAN , c_v+0
 .byte   En3 ,v064
 .byte   BEND , c_v+0
 .byte   FINE

@**************** Track 3 (Midi-Chn.2) ****************@

Escape_003:
@  #03 @000   ----------------------------------------
 .byte   KEYSH , Escape_key+0
 .byte   VOICE , 68
 .byte   PAN , c_v+0
 .byte   VOL , 52*Escape_mvl/mxv
 .byte   PAN , c_v+0
 .byte   VOL , 52*Escape_mvl/mxv
 .byte   BEND , c_v+0
 .byte   W96
@  #03 @001   ----------------------------------------
 .byte   W96
@  #03 @002   ----------------------------------------
 .byte   W96
@  #03 @003   ----------------------------------------
 .byte   W96
@  #03 @004   ----------------------------------------
 .byte   W96
@  #03 @005   ----------------------------------------
 .byte   W96
@  #03 @006   ----------------------------------------
Label_010005F8:
 .byte   W96
@  #03 @007   ----------------------------------------
 .byte   W96
@  #03 @008   ----------------------------------------
 .byte   W96
@  #03 @009   ----------------------------------------
 .byte   W96
@  #03 @010   ----------------------------------------
 .byte   W96
@  #03 @011   ----------------------------------------
 .byte   W96
@  #03 @012   ----------------------------------------
 .byte   W96
@  #03 @013   ----------------------------------------
 .byte   W96
@  #03 @014   ----------------------------------------
 .byte   W96
@  #03 @015   ----------------------------------------
 .byte   W96
@  #03 @016   ----------------------------------------
 .byte   W96
@  #03 @017   ----------------------------------------
 .byte   W96
@  #03 @018   ----------------------------------------
 .byte   W96
@  #03 @019   ----------------------------------------
 .byte   W96
@  #03 @020   ----------------------------------------
 .byte   W96
@  #03 @021   ----------------------------------------
 .byte   W96
@  #03 @022   ----------------------------------------
 .byte   W24
 .byte   N92 ,Bn3 ,v100
 .byte   W72
@  #03 @023   ----------------------------------------
 .byte   W24
 .byte   N23
 .byte   W24
 .byte   An3
 .byte   W24
 .byte   Gn3
 .byte   W24
@  #03 @024   ----------------------------------------
 .byte   N92
 .byte   W96
@  #03 @025   ----------------------------------------
 .byte   N11
 .byte   W12
 .byte   An3
 .byte   W12
 .byte   Gn3
 .byte   W12
 .byte   Fs3
 .byte   W12
 .byte   Gn3
 .byte   W12
 .byte   Fs3
 .byte   W12
 .byte   En3
 .byte   W12
 .byte   Gn3
 .byte   W12
@  #03 @026   ----------------------------------------
 .byte   N23 ,An3
 .byte   W24
 .byte   Gn3
 .byte   W24
 .byte   Fs3
 .byte   W24
 .byte   Dn3
 .byte   W24
@  #03 @027   ----------------------------------------
Label_0100062F:
 .byte   N23 ,An3 ,v100
 .byte   W24
 .byte   Bn3
 .byte   W24
 .byte   Dn4
 .byte   W24
 .byte   Bn3
 .byte   W24
 .byte   PEND 
@  #03 @028   ----------------------------------------
 .byte   N92 ,En4
 .byte   W96
@  #03 @029   ----------------------------------------
 .byte   N05 ,Gn4
 .byte   W06
 .byte   En4
 .byte   W06
 .byte   Dn4
 .byte   W06
 .byte   Bn3
 .byte   W06
 .byte   En4
 .byte   W06
 .byte   Dn4
 .byte   W06
 .byte   Bn3
 .byte   W06
 .byte   An3
 .byte   W06
 .byte   Fs4
 .byte   W06
 .byte   En4
 .byte   W06
 .byte   Cs4
 .byte   W06
 .byte   Bn3
 .byte   W06
 .byte   En4
 .byte   W06
 .byte   Cs4
 .byte   W06
 .byte   Bn3
 .byte   W06
 .byte   An3
 .byte   W06
@  #03 @030   ----------------------------------------
 .byte   Bn3
 .byte   W06
 .byte   N11 ,En4
 .byte   W12
 .byte   N05 ,Bn3
 .byte   W06
 .byte   N11 ,En4
 .byte   W12
 .byte   N05 ,Bn3
 .byte   W06
 .byte   N76 ,En4
 .byte   W54
@  #03 @031   ----------------------------------------
 .byte   W24
 .byte   N05 ,Gn4
 .byte   W06
 .byte   Fs4
 .byte   W06
 .byte   Gn4
 .byte   W06
 .byte   En4
 .byte   W06
 .byte   Fs4
 .byte   W06
 .byte   En4
 .byte   W06
 .byte   Fs4
 .byte   W06
 .byte   Dn4
 .byte   W06
 .byte   En4
 .byte   W06
 .byte   Dn4
 .byte   W06
 .byte   En4
 .byte   W06
 .byte   Bn3
 .byte   W06
@  #03 @032   ----------------------------------------
 .byte   N11 ,Dn4
 .byte   W12
 .byte   En4
 .byte   W12
 .byte   N92 ,Fs4
 .byte   W72
@  #03 @033   ----------------------------------------
 .byte   W24
 .byte   N23 ,Gn4
 .byte   W24
 .byte   An4
 .byte   W24
 .byte   Bn4
 .byte   W24
@  #03 @034   ----------------------------------------
 .byte   An4
 .byte   W24
 .byte   N11 ,Gn4
 .byte   W12
 .byte   Fs4
 .byte   W12
 .byte   N23 ,Gn4
 .byte   W24
 .byte   N11 ,Fs4
 .byte   W12
 .byte   En4
 .byte   W12
@  #03 @035   ----------------------------------------
 .byte   N05 ,Fs4
 .byte   W06
 .byte   Gn4
 .byte   W06
 .byte   Fs4
 .byte   W06
 .byte   Gn4
 .byte   W06
 .byte   Fs4
 .byte   W06
 .byte   En4
 .byte   W06
 .byte   Dn4
 .byte   W06
 .byte   Bn3
 .byte   W06
 .byte   Fs4
 .byte   W06
 .byte   Gn4
 .byte   W06
 .byte   Fs4
 .byte   W06
 .byte   Gn4
 .byte   W06
 .byte   An4
 .byte   W06
 .byte   Bn4
 .byte   W06
 .byte   Dn5
 .byte   W06
 .byte   Cn5
 .byte   W06
@  #03 @036   ----------------------------------------
 .byte   N44 ,Bn4
 .byte   W48
 .byte   N11
 .byte   W12
 .byte   An4
 .byte   W12
 .byte   N05 ,Bn4
 .byte   W06
 .byte   Cn5
 .byte   W06
 .byte   Bn4
 .byte   W06
 .byte   Cn5
 .byte   W06
@  #03 @037   ----------------------------------------
 .byte   Bn4
 .byte   W06
 .byte   An4
 .byte   W06
 .byte   Gn4
 .byte   W06
 .byte   Fs4
 .byte   W06
 .byte   An4
 .byte   W06
 .byte   Gn4
 .byte   W06
 .byte   Fs4
 .byte   W06
 .byte   En4
 .byte   W06
 .byte   Gn4
 .byte   W06
 .byte   Fs4
 .byte   W06
 .byte   En4
 .byte   W06
 .byte   Dn4
 .byte   W06
 .byte   Fs4
 .byte   W06
 .byte   En4
 .byte   W06
 .byte   Dn4
 .byte   W06
 .byte   Bn3
 .byte   W06
@  #03 @038   ----------------------------------------
 .byte   W96
@  #03 @039   ----------------------------------------
 .byte   W96
@  #03 @040   ----------------------------------------
 .byte   W96
@  #03 @041   ----------------------------------------
 .byte   W96
@  #03 @042   ----------------------------------------
 .byte   W96
@  #03 @043   ----------------------------------------
 .byte   W96
@  #03 @044   ----------------------------------------
 .byte   W96
@  #03 @045   ----------------------------------------
 .byte   W96
@  #03 @046   ----------------------------------------
Label_01000701:
 .byte   N23 ,En4 ,v100
 .byte   W24
 .byte   Ds4
 .byte   W24
 .byte   En4
 .byte   W24
 .byte   An4
 .byte   W24
 .byte   PEND 
@  #03 @047   ----------------------------------------
Label_0100070C:
 .byte   N23 ,Gn4 ,v100
 .byte   W24
 .byte   Fs4
 .byte   W24
 .byte   Gn4
 .byte   W24
 .byte   An4
 .byte   W24
 .byte   PEND 
@  #03 @048   ----------------------------------------
Label_01000717:
 .byte   N05 ,Fs4 ,v100
 .byte   W06
 .byte   Dn4
 .byte   W06
 .byte   N80 ,Bn3
 .byte   W84
 .byte   PEND 
@  #03 @049   ----------------------------------------
 .byte   PATT
  .word Label_0100062F
@  #03 @050   ----------------------------------------
Label_01000726:
 .byte   N44 ,En4 ,v100
 .byte   W48
 .byte   N23 ,Fs4
 .byte   W24
 .byte   En4
 .byte   W24
 .byte   PEND 
@  #03 @051   ----------------------------------------
Label_01000730:
 .byte   N23 ,Gn4 ,v100
 .byte   W24
 .byte   Fs4
 .byte   W24
 .byte   An4
 .byte   W24
 .byte   Bn4
 .byte   W24
 .byte   PEND 
@  #03 @052   ----------------------------------------
 .byte   N92 ,Dn5
 .byte   W96
@  #03 @053   ----------------------------------------
 .byte   Ds5
 .byte   W96
@  #03 @054   ----------------------------------------
 .byte   N11 ,En4
 .byte   W96
@  #03 @055   ----------------------------------------
 .byte   W96
@  #03 @056   ----------------------------------------
 .byte   W96
@  #03 @057   ----------------------------------------
 .byte   W96
@  #03 @058   ----------------------------------------
 .byte   W96
@  #03 @059   ----------------------------------------
 .byte   W96
@  #03 @060   ----------------------------------------
 .byte   W96
@  #03 @061   ----------------------------------------
 .byte   W96
@  #03 @062   ----------------------------------------
 .byte   W96
@  #03 @063   ----------------------------------------
 .byte   W96
@  #03 @064   ----------------------------------------
 .byte   W96
@  #03 @065   ----------------------------------------
 .byte   W96
@  #03 @066   ----------------------------------------
 .byte   W96
@  #03 @067   ----------------------------------------
 .byte   W96
@  #03 @068   ----------------------------------------
 .byte   W96
@  #03 @069   ----------------------------------------
 .byte   W96
@  #03 @070   ----------------------------------------
 .byte   W96
@  #03 @071   ----------------------------------------
 .byte   W96
@  #03 @072   ----------------------------------------
 .byte   W96
@  #03 @073   ----------------------------------------
 .byte   W96
@  #03 @074   ----------------------------------------
 .byte   W96
@  #03 @075   ----------------------------------------
 .byte   W96
@  #03 @076   ----------------------------------------
 .byte   W96
@  #03 @077   ----------------------------------------
 .byte   W96
@  #03 @078   ----------------------------------------
 .byte   PATT
  .word Label_01000701
@  #03 @079   ----------------------------------------
 .byte   PATT
  .word Label_0100070C
@  #03 @080   ----------------------------------------
 .byte   PATT
  .word Label_01000717
@  #03 @081   ----------------------------------------
 .byte   PATT
  .word Label_0100062F
@  #03 @082   ----------------------------------------
 .byte   PATT
  .word Label_01000726
@  #03 @083   ----------------------------------------
 .byte   PATT
  .word Label_01000730
@  #03 @084   ----------------------------------------
 .byte   N92 ,Dn5 ,v100
 .byte   W96
@  #03 @085   ----------------------------------------
 .byte   Ds5
 .byte   W96
@  #03 @086   ----------------------------------------
 .byte   GOTO
  .word Label_010005F8
@  #03 @087   ----------------------------------------
 .byte   VOICE , 68
 .byte   PAN , c_v+0
 .byte   VOL , 52*Escape_mvl/mxv
 .byte   PAN , c_v+0
 .byte   VOL , 52*Escape_mvl/mxv
 .byte   PAN , c_v+0
 .byte   VOL , 52*Escape_mvl/mxv
 .byte   BEND , c_v+0
 .byte   FINE

@**************** Track 4 (Midi-Chn.3) ****************@

Escape_004:
@  #04 @000   ----------------------------------------
 .byte   KEYSH , Escape_key+0
 .byte   VOICE , 100
 .byte   PAN , c_v+0
 .byte   VOL , 52*Escape_mvl/mxv
 .byte   PAN , c_v+0
 .byte   VOL , 52*Escape_mvl/mxv
 .byte   BEND , c_v+0
 .byte   W96
@  #04 @001   ----------------------------------------
 .byte   W96
@  #04 @002   ----------------------------------------
 .byte   W96
@  #04 @003   ----------------------------------------
 .byte   W96
@  #04 @004   ----------------------------------------
 .byte   W96
@  #04 @005   ----------------------------------------
 .byte   W96
@  #04 @006   ----------------------------------------
Label_010007A8:
 .byte   N23 ,En3 ,v100
 .byte   W24
 .byte   Ds3
 .byte   W24
 .byte   En3
 .byte   W24
 .byte   An3
 .byte   W24
 .byte   PEND 
@  #04 @007   ----------------------------------------
Label_010007B3:
 .byte   N23 ,Gn3 ,v100
 .byte   W24
 .byte   Fs3
 .byte   W24
 .byte   Gn3
 .byte   W24
 .byte   An3
 .byte   W24
 .byte   PEND 
@  #04 @008   ----------------------------------------
 .byte   TIE ,Fs3
 .byte   W96
@  #04 @009   ----------------------------------------
 .byte   W23
 .byte   EOT
 .byte   W01
 .byte   N23 ,Gn3
 .byte   W24
 .byte   N05 ,Fs3
 .byte   W06
 .byte   Gn3
 .byte   W06
 .byte   Fs3
 .byte   W06
 .byte   Gn3
 .byte   W06
 .byte   Fs3
 .byte   W06
 .byte   En3
 .byte   W06
 .byte   Dn3
 .byte   W06
 .byte   Bn2
 .byte   W06
@  #04 @010   ----------------------------------------
Label_010007D8:
 .byte   N05 ,An2 ,v100
 .byte   W06
 .byte   Dn3
 .byte   W06
 .byte   N11 ,En3
 .byte   W12
 .byte   N05 ,Dn3
 .byte   W06
 .byte   N11 ,En3
 .byte   W12
 .byte   N05 ,Dn3
 .byte   W06
 .byte   N68 ,En3
 .byte   W48
 .byte   PEND 
@  #04 @011   ----------------------------------------
Label_010007EE:
 .byte   W24
 .byte   N23 ,Fs3 ,v100
 .byte   W24
 .byte   Gn3
 .byte   W24
 .byte   An3
 .byte   W24
 .byte   PEND 
@  #04 @012   ----------------------------------------
Label_010007F8:
 .byte   N05 ,Fs3 ,v100
 .byte   W06
 .byte   Gn3
 .byte   W06
 .byte   N56 ,Fs3
 .byte   W60
 .byte   N23 ,Gn3
 .byte   W24
 .byte   PEND 
@  #04 @013   ----------------------------------------
Label_01000805:
 .byte   N11 ,An3 ,v100
 .byte   W12
 .byte   Bn3
 .byte   W12
 .byte   An3
 .byte   W12
 .byte   Gn3
 .byte   W12
 .byte   An3
 .byte   W12
 .byte   Bn3
 .byte   W12
 .byte   Gn3
 .byte   W12
 .byte   Fs3
 .byte   W12
 .byte   PEND 
@  #04 @014   ----------------------------------------
 .byte   PATT
  .word Label_010007A8
@  #04 @015   ----------------------------------------
 .byte   PATT
  .word Label_010007B3
@  #04 @016   ----------------------------------------
Label_01000822:
 .byte   N05 ,Fs3 ,v100
 .byte   W06
 .byte   Dn3
 .byte   W06
 .byte   N80 ,Bn2
 .byte   W84
 .byte   PEND 
@  #04 @017   ----------------------------------------
Label_0100082C:
 .byte   N23 ,An2 ,v100
 .byte   W24
 .byte   Bn2
 .byte   W24
 .byte   Dn3
 .byte   W24
 .byte   Bn2
 .byte   W24
 .byte   PEND 
@  #04 @018   ----------------------------------------
Label_01000837:
 .byte   N44 ,En3 ,v100
 .byte   W48
 .byte   N23 ,Fs3
 .byte   W24
 .byte   En3
 .byte   W24
 .byte   PEND 
@  #04 @019   ----------------------------------------
Label_01000841:
 .byte   N23 ,Gn3 ,v100
 .byte   W24
 .byte   Fs3
 .byte   W24
 .byte   An3
 .byte   W24
 .byte   Bn3
 .byte   W24
 .byte   PEND 
@  #04 @020   ----------------------------------------
 .byte   N92 ,Dn4
 .byte   W96
@  #04 @021   ----------------------------------------
 .byte   Ds4
 .byte   W96
@  #04 @022   ----------------------------------------
 .byte   N11 ,En4
 .byte   W96
@  #04 @023   ----------------------------------------
 .byte   W96
@  #04 @024   ----------------------------------------
 .byte   W96
@  #04 @025   ----------------------------------------
 .byte   W96
@  #04 @026   ----------------------------------------
 .byte   W96
@  #04 @027   ----------------------------------------
 .byte   W96
@  #04 @028   ----------------------------------------
 .byte   W96
@  #04 @029   ----------------------------------------
 .byte   W96
@  #04 @030   ----------------------------------------
 .byte   N05 ,Bn2
 .byte   W06
 .byte   N11 ,En3
 .byte   W12
 .byte   N05 ,Bn2
 .byte   W06
 .byte   N11 ,En3
 .byte   W12
 .byte   N05 ,Bn2
 .byte   W06
 .byte   N76 ,En3
 .byte   W54
@  #04 @031   ----------------------------------------
 .byte   W24
 .byte   N05 ,Gn3
 .byte   W06
 .byte   Fs3
 .byte   W06
 .byte   Gn3
 .byte   W06
 .byte   En3
 .byte   W06
 .byte   Fs3
 .byte   W06
 .byte   En3
 .byte   W06
 .byte   Fs3
 .byte   W06
 .byte   Dn3
 .byte   W06
 .byte   En3
 .byte   W06
 .byte   Dn3
 .byte   W06
 .byte   En3
 .byte   W06
 .byte   Bn2
 .byte   W06
@  #04 @032   ----------------------------------------
 .byte   N11 ,Dn3
 .byte   W12
 .byte   En3
 .byte   W12
 .byte   N92 ,Fs3
 .byte   W72
@  #04 @033   ----------------------------------------
 .byte   W24
 .byte   N23 ,Gn3
 .byte   W24
 .byte   An3
 .byte   W24
 .byte   Bn3
 .byte   W24
@  #04 @034   ----------------------------------------
 .byte   An3
 .byte   W24
 .byte   N11 ,Gn3
 .byte   W12
 .byte   Fs3
 .byte   W12
 .byte   N23 ,Gn3
 .byte   W24
 .byte   N11 ,Fs3
 .byte   W12
 .byte   En3
 .byte   W12
@  #04 @035   ----------------------------------------
 .byte   N05 ,Fs3
 .byte   W06
 .byte   Gn3
 .byte   W06
 .byte   Fs3
 .byte   W06
 .byte   Gn3
 .byte   W06
 .byte   Fs3
 .byte   W06
 .byte   En3
 .byte   W06
 .byte   Dn3
 .byte   W06
 .byte   Bn2
 .byte   W06
 .byte   Fs3
 .byte   W06
 .byte   Gn3
 .byte   W06
 .byte   Fs3
 .byte   W06
 .byte   Gn3
 .byte   W06
 .byte   An3
 .byte   W06
 .byte   Bn3
 .byte   W06
 .byte   Dn4
 .byte   W06
 .byte   Cn4
 .byte   W06
@  #04 @036   ----------------------------------------
 .byte   N44 ,Bn3
 .byte   W48
 .byte   N11
 .byte   W12
 .byte   An3
 .byte   W12
 .byte   N05 ,Bn3
 .byte   W06
 .byte   Cn4
 .byte   W06
 .byte   Bn3
 .byte   W06
 .byte   Cn4
 .byte   W06
@  #04 @037   ----------------------------------------
 .byte   Bn3
 .byte   W06
 .byte   An3
 .byte   W06
 .byte   Gn3
 .byte   W06
 .byte   Fs3
 .byte   W06
 .byte   En3
 .byte   W06
 .byte   Dn3
 .byte   W06
 .byte   Cn3
 .byte   W06
 .byte   Bn2
 .byte   W06
 .byte   Cn3
 .byte   W06
 .byte   Dn3
 .byte   W06
 .byte   Cn3
 .byte   W06
 .byte   Dn3
 .byte   W06
 .byte   En3
 .byte   W06
 .byte   Dn3
 .byte   W06
 .byte   En3
 .byte   W06
 .byte   Fs3
 .byte   W06
@  #04 @038   ----------------------------------------
 .byte   PATT
  .word Label_010007A8
@  #04 @039   ----------------------------------------
 .byte   PATT
  .word Label_010007B3
@  #04 @040   ----------------------------------------
 .byte   TIE ,Fs3 ,v100
 .byte   W96
@  #04 @041   ----------------------------------------
 .byte   W23
 .byte   EOT
 .byte   W01
 .byte   N23 ,Gn3
 .byte   W24
 .byte   N05 ,Fs3
 .byte   W06
 .byte   Gn3
 .byte   W06
 .byte   Fs3
 .byte   W06
 .byte   Gn3
 .byte   W06
 .byte   Fs3
 .byte   W06
 .byte   En3
 .byte   W06
 .byte   Dn3
 .byte   W06
 .byte   Bn2
 .byte   W06
@  #04 @042   ----------------------------------------
 .byte   PATT
  .word Label_010007D8
@  #04 @043   ----------------------------------------
 .byte   PATT
  .word Label_010007EE
@  #04 @044   ----------------------------------------
 .byte   PATT
  .word Label_010007F8
@  #04 @045   ----------------------------------------
 .byte   PATT
  .word Label_01000805
@  #04 @046   ----------------------------------------
 .byte   PATT
  .word Label_010007A8
@  #04 @047   ----------------------------------------
 .byte   PATT
  .word Label_010007B3
@  #04 @048   ----------------------------------------
 .byte   PATT
  .word Label_01000822
@  #04 @049   ----------------------------------------
 .byte   PATT
  .word Label_0100082C
@  #04 @050   ----------------------------------------
 .byte   PATT
  .word Label_01000837
@  #04 @051   ----------------------------------------
 .byte   PATT
  .word Label_01000841
@  #04 @052   ----------------------------------------
 .byte   N92 ,Dn4 ,v100
 .byte   W96
@  #04 @053   ----------------------------------------
 .byte   Ds4
 .byte   W96
@  #04 @054   ----------------------------------------
 .byte   N11 ,En4
 .byte   W96
@  #04 @055   ----------------------------------------
 .byte   W96
@  #04 @056   ----------------------------------------
 .byte   W96
@  #04 @057   ----------------------------------------
 .byte   W96
@  #04 @058   ----------------------------------------
 .byte   W96
@  #04 @059   ----------------------------------------
 .byte   W96
@  #04 @060   ----------------------------------------
 .byte   W96
@  #04 @061   ----------------------------------------
 .byte   W96
@  #04 @062   ----------------------------------------
 .byte   W96
@  #04 @063   ----------------------------------------
 .byte   W96
@  #04 @064   ----------------------------------------
 .byte   W96
@  #04 @065   ----------------------------------------
 .byte   W96
@  #04 @066   ----------------------------------------
 .byte   W96
@  #04 @067   ----------------------------------------
 .byte   W96
@  #04 @068   ----------------------------------------
 .byte   W96
@  #04 @069   ----------------------------------------
 .byte   W96
@  #04 @070   ----------------------------------------
 .byte   W96
@  #04 @071   ----------------------------------------
 .byte   W96
@  #04 @072   ----------------------------------------
 .byte   W96
@  #04 @073   ----------------------------------------
 .byte   W96
@  #04 @074   ----------------------------------------
 .byte   W96
@  #04 @075   ----------------------------------------
 .byte   W96
@  #04 @076   ----------------------------------------
 .byte   W96
@  #04 @077   ----------------------------------------
 .byte   W96
@  #04 @078   ----------------------------------------
 .byte   PATT
  .word Label_010007A8
@  #04 @079   ----------------------------------------
 .byte   PATT
  .word Label_010007B3
@  #04 @080   ----------------------------------------
 .byte   PATT
  .word Label_01000822
@  #04 @081   ----------------------------------------
 .byte   PATT
  .word Label_0100082C
@  #04 @082   ----------------------------------------
 .byte   PATT
  .word Label_01000837
@  #04 @083   ----------------------------------------
 .byte   PATT
  .word Label_01000841
@  #04 @084   ----------------------------------------
 .byte   N92 ,Dn4 ,v100
 .byte   W96
@  #04 @085   ----------------------------------------
 .byte   Ds4
 .byte   W96
@  #04 @086   ----------------------------------------
 .byte   GOTO
  .word Label_010007A8
@  #04 @087   ----------------------------------------
 .byte   PAN , c_v+0
 .byte   VOL , 52*Escape_mvl/mxv
 .byte   PAN , c_v+0
 .byte   VOL , 52*Escape_mvl/mxv
 .byte   PAN , c_v+0
 .byte   VOL , 52*Escape_mvl/mxv
 .byte   BEND , c_v+0
 .byte   FINE

@**************** Track 5 (Midi-Chn.4) ****************@

Escape_005:
@  #05 @000   ----------------------------------------
 .byte   KEYSH , Escape_key+0
 .byte   VOICE , 11
 .byte   PAN , c_v+0
 .byte   VOL , 52*Escape_mvl/mxv
 .byte   PAN , c_v+0
 .byte   VOL , 52*Escape_mvl/mxv
 .byte   BEND , c_v+0
 .byte   W96
@  #05 @001   ----------------------------------------
 .byte   W96
@  #05 @002   ----------------------------------------
 .byte   W96
@  #05 @003   ----------------------------------------
 .byte   W96
@  #05 @004   ----------------------------------------
 .byte   W96
@  #05 @005   ----------------------------------------
 .byte   W96
@  #05 @006   ----------------------------------------
Label_C6A6C8:
 .byte   W96
@  #05 @007   ----------------------------------------
 .byte   W96
@  #05 @008   ----------------------------------------
 .byte   W96
@  #05 @009   ----------------------------------------
 .byte   W96
@  #05 @010   ----------------------------------------
 .byte   W96
@  #05 @011   ----------------------------------------
 .byte   W96
@  #05 @012   ----------------------------------------
 .byte   W96
@  #05 @013   ----------------------------------------
 .byte   W96
@  #05 @014   ----------------------------------------
 .byte   W96
@  #05 @015   ----------------------------------------
 .byte   W96
@  #05 @016   ----------------------------------------
 .byte   W96
@  #05 @017   ----------------------------------------
 .byte   W96
@  #05 @018   ----------------------------------------
 .byte   W96
@  #05 @019   ----------------------------------------
 .byte   W96
@  #05 @020   ----------------------------------------
 .byte   W96
@  #05 @021   ----------------------------------------
 .byte   W96
@  #05 @022   ----------------------------------------
 .byte   W96
@  #05 @023   ----------------------------------------
 .byte   W96
@  #05 @024   ----------------------------------------
 .byte   W96
@  #05 @025   ----------------------------------------
 .byte   W96
@  #05 @026   ----------------------------------------
 .byte   W96
@  #05 @027   ----------------------------------------
 .byte   W96
@  #05 @028   ----------------------------------------
 .byte   W96
@  #05 @029   ----------------------------------------
 .byte   W96
@  #05 @030   ----------------------------------------
 .byte   W96
@  #05 @031   ----------------------------------------
 .byte   W96
@  #05 @032   ----------------------------------------
 .byte   W96
@  #05 @033   ----------------------------------------
 .byte   W96
@  #05 @034   ----------------------------------------
 .byte   W96
@  #05 @035   ----------------------------------------
 .byte   W96
@  #05 @036   ----------------------------------------
 .byte   W96
@  #05 @037   ----------------------------------------
 .byte   W96
@  #05 @038   ----------------------------------------
 .byte   W96
@  #05 @039   ----------------------------------------
 .byte   W96
@  #05 @040   ----------------------------------------
 .byte   W96
@  #05 @041   ----------------------------------------
 .byte   W96
@  #05 @042   ----------------------------------------
 .byte   W96
@  #05 @043   ----------------------------------------
 .byte   W96
@  #05 @044   ----------------------------------------
 .byte   W96
@  #05 @045   ----------------------------------------
 .byte   W96
@  #05 @046   ----------------------------------------
 .byte   W96
@  #05 @047   ----------------------------------------
 .byte   W96
@  #05 @048   ----------------------------------------
 .byte   W96
@  #05 @049   ----------------------------------------
 .byte   W96
@  #05 @050   ----------------------------------------
 .byte   W96
@  #05 @051   ----------------------------------------
 .byte   W96
@  #05 @052   ----------------------------------------
 .byte   W96
@  #05 @053   ----------------------------------------
 .byte   W96
@  #05 @054   ----------------------------------------
 .byte   W96
@  #05 @055   ----------------------------------------
 .byte   W96
@  #05 @056   ----------------------------------------
 .byte   W96
@  #05 @057   ----------------------------------------
 .byte   W96
@  #05 @058   ----------------------------------------
 .byte   W96
@  #05 @059   ----------------------------------------
 .byte   W96
@  #05 @060   ----------------------------------------
 .byte   W96
@  #05 @061   ----------------------------------------
 .byte   W96
@  #05 @062   ----------------------------------------
 .byte   W96
@  #05 @063   ----------------------------------------
 .byte   W96
@  #05 @064   ----------------------------------------
 .byte   W96
@  #05 @065   ----------------------------------------
 .byte   W96
@  #05 @066   ----------------------------------------
 .byte   W96
@  #05 @067   ----------------------------------------
 .byte   W96
@  #05 @068   ----------------------------------------
 .byte   W96
@  #05 @069   ----------------------------------------
 .byte   W96
@  #05 @070   ----------------------------------------
Label_C6A708:
 .byte   N23 ,En4 ,v100
 .byte   W24
 .byte   N23
 .byte   W36
 .byte   N23
 .byte   W36
 .byte   PEND 
@  #05 @071   ----------------------------------------
 .byte   PATT
  .word Label_C6A708
@  #05 @072   ----------------------------------------
Label_C6A716:
 .byte   N23 ,Dn4 ,v100
 .byte   W24
 .byte   N23
 .byte   W36
 .byte   N23
 .byte   W36
 .byte   PEND 
@  #05 @073   ----------------------------------------
 .byte   PATT
  .word Label_C6A716
@  #05 @074   ----------------------------------------
Label_C6A724:
 .byte   N23 ,Cn4 ,v100
 .byte   W24
 .byte   N23
 .byte   W36
 .byte   N23
 .byte   W36
 .byte   PEND 
@  #05 @075   ----------------------------------------
 .byte   PATT
  .word Label_C6A724
@  #05 @076   ----------------------------------------
 .byte   PATT
  .word Label_C6A716
@  #05 @077   ----------------------------------------
 .byte   N23 ,Gn4 ,v100
 .byte   W24
 .byte   N23
 .byte   W36
 .byte   Fs4
 .byte   W36
@  #05 @078   ----------------------------------------
 .byte   PATT
  .word Label_C6A708
@  #05 @079   ----------------------------------------
 .byte   PATT
  .word Label_C6A708
@  #05 @080   ----------------------------------------
 .byte   PATT
  .word Label_C6A716
@  #05 @081   ----------------------------------------
 .byte   PATT
  .word Label_C6A716
@  #05 @082   ----------------------------------------
 .byte   PATT
  .word Label_C6A724
@  #05 @083   ----------------------------------------
 .byte   PATT
  .word Label_C6A724
@  #05 @084   ----------------------------------------
 .byte   PATT
  .word Label_C6A716
@  #05 @085   ----------------------------------------
 .byte   N23 ,Ds4 ,v100
 .byte   W24
 .byte   N23
 .byte   W36
 .byte   N23
 .byte   W36
@  #05 @086   ----------------------------------------
 .byte   GOTO
  .word Label_C6A6C8
@  #05 @087   ----------------------------------------
 .byte   VOICE , 11
 .byte   PAN , c_v+0
 .byte   VOL , 52*Escape_mvl/mxv
 .byte   PAN , c_v+0
 .byte   VOL , 52*Escape_mvl/mxv
 .byte   PAN , c_v+0
 .byte   VOL , 52*Escape_mvl/mxv
 .byte   BEND , c_v+0
 .byte   FINE

@******************************************************@
	.align	2

Escape:
	.byte	5	@ NumTrks
	.byte	0	@ NumBlks
	.byte	Escape_pri	@ Priority
	.byte	Escape_rev	@ Reverb.
    
	.word	Escape_grp
    
	.word	Escape_001
	.word	Escape_002
	.word	Escape_003
	.word	Escape_004
	.word	Escape_005

	.end
