	.include "MPlayDef.s"

	.equ	InnocenceGlitched_grp, voicegroup000
	.equ	InnocenceGlitched_pri, 0
	.equ	InnocenceGlitched_rev, 0
	.equ	InnocenceGlitched_mvl, 127
	.equ	InnocenceGlitched_key, 0
	.equ	InnocenceGlitched_tbs, 1
	.equ	InnocenceGlitched_exg, 0
	.equ	InnocenceGlitched_cmp, 1

	.section .rodata
	.global	InnocenceGlitched
	.align	2


@**************** Track 1 (Midi-Chn.0) ****************@

InnocenceGlitched_001:
@  #01 @000   ----------------------------------------
 .byte   VOL , 52*InnocenceGlitched_mvl/mxv
 .byte   KEYSH , InnocenceGlitched_key+0
 .byte   TEMPO , 120*InnocenceGlitched_tbs/2
 .byte   VOICE , 30
 .byte   W96
@  #01 @001   ----------------------------------------
 .byte   W96
@  #01 @002   ----------------------------------------
 .byte   W96
@  #01 @003   ----------------------------------------
 .byte   W96
@  #01 @004   ----------------------------------------
 .byte   W96
@  #01 @005   ----------------------------------------
 .byte   W96
@  #01 @006   ----------------------------------------
 .byte   W96
@  #01 @007   ----------------------------------------
 .byte   W96
@  #01 @008   ----------------------------------------
 .byte   W96
@  #01 @009   ----------------------------------------
 .byte   W96
@  #01 @010   ----------------------------------------
 .byte   W96
@  #01 @011   ----------------------------------------
 .byte   W96
@  #01 @012   ----------------------------------------
 .byte   W96
@  #01 @013   ----------------------------------------
 .byte   W96
@  #01 @014   ----------------------------------------
 .byte   W96
@  #01 @015   ----------------------------------------
 .byte   W96
@  #01 @016   ----------------------------------------
 .byte   W96
@  #01 @017   ----------------------------------------
 .byte   W96
@  #01 @018   ----------------------------------------
 .byte   W96
@  #01 @019   ----------------------------------------
 .byte   W96
@  #01 @020   ----------------------------------------
 .byte   W96
@  #01 @021   ----------------------------------------
 .byte   W96
@  #01 @022   ----------------------------------------
 .byte   W96
@  #01 @023   ----------------------------------------
 .byte   W96
@  #01 @024   ----------------------------------------
 .byte   W96
@  #01 @025   ----------------------------------------
 .byte   W96
@  #01 @026   ----------------------------------------
 .byte   W96
@  #01 @027   ----------------------------------------
 .byte   W72
 .byte   N24 ,Cn3 ,v080
 .byte   W24
@  #01 @028   ----------------------------------------
Label_D40E58:
 .byte   N12 ,Cn1 ,v080
 .byte   N48 ,Gn3
 .byte   W12
 .byte   N12 ,Cn1
 .byte   W12
 .byte   N12
 .byte   W12
 .byte   N12
 .byte   W12
 .byte   N12
 .byte   N12 ,Gn3
 .byte   W12
 .byte   Cn1
 .byte   N12 ,Gs3
 .byte   W12
 .byte   Cn1
 .byte   N24 ,Gn3
 .byte   W12
 .byte   N12 ,Cn1
 .byte   W12
 .byte   PEND 
@  #01 @029   ----------------------------------------
Label_D40E75:
 .byte   N12 ,Ds1 ,v080
 .byte   N12 ,Fn3
 .byte   W12
 .byte   Ds1
 .byte   N12 ,Gn3
 .byte   W12
 .byte   Ds1
 .byte   N24 ,Fn3
 .byte   W12
 .byte   N12 ,Ds1
 .byte   W12
 .byte   N12
 .byte   N12 ,Ds3
 .byte   W12
 .byte   Ds1
 .byte   N12 ,Fn3
 .byte   W12
 .byte   Ds1
 .byte   N24 ,Ds3
 .byte   W12
 .byte   N12 ,Ds1
 .byte   W12
 .byte   PEND 
@  #01 @030   ----------------------------------------
Label_D40E96:
 .byte   N12 ,Gs0 ,v080
 .byte   N48 ,Cn3
 .byte   W12
 .byte   N12 ,Gs0
 .byte   W12
 .byte   N12
 .byte   W12
 .byte   N12
 .byte   W12
 .byte   N12
 .byte   N48 ,Cn4
 .byte   W12
 .byte   N12 ,Gs0
 .byte   W12
 .byte   N12
 .byte   W12
 .byte   N12
 .byte   W12
 .byte   PEND 
@  #01 @031   ----------------------------------------
Label_D40EAF:
 .byte   N12 ,Bn0 ,v080
 .byte   N12 ,Bn3
 .byte   W12
 .byte   Bn0
 .byte   N12 ,Cn4
 .byte   W12
 .byte   Bn0
 .byte   N24 ,Bn3
 .byte   W12
 .byte   N12 ,Bn0
 .byte   W12
 .byte   N12
 .byte   N48 ,Gn3
 .byte   W12
 .byte   N12 ,Bn0
 .byte   W12
 .byte   N12
 .byte   W12
 .byte   N12
 .byte   W12
 .byte   PEND 
@  #01 @032   ----------------------------------------
 .byte   PATT
  .word Label_D40E58
@  #01 @033   ----------------------------------------
 .byte   PATT
  .word Label_D40E75
@  #01 @034   ----------------------------------------
 .byte   PATT
  .word Label_D40E96
@  #01 @035   ----------------------------------------
Label_D40EDB:
 .byte   N12 ,Bn0 ,v080
 .byte   N12 ,Bn3
 .byte   W12
 .byte   Bn0
 .byte   N12 ,Cn4
 .byte   W12
 .byte   Bn0
 .byte   N24 ,Ds4
 .byte   W12
 .byte   N12 ,Bn0
 .byte   W12
 .byte   N12
 .byte   N48 ,Fn4
 .byte   W12
 .byte   N12 ,Bn0
 .byte   W12
 .byte   N12
 .byte   W12
 .byte   N12
 .byte   W12
 .byte   PEND 
@  #01 @036   ----------------------------------------
 .byte   PATT
  .word Label_D40E58
@  #01 @037   ----------------------------------------
 .byte   PATT
  .word Label_D40E75
@  #01 @038   ----------------------------------------
 .byte   PATT
  .word Label_D40E96
@  #01 @039   ----------------------------------------
 .byte   PATT
  .word Label_D40EAF
@  #01 @040   ----------------------------------------
 .byte   PATT
  .word Label_D40E58
@  #01 @041   ----------------------------------------
 .byte   PATT
  .word Label_D40E75
@  #01 @042   ----------------------------------------
 .byte   PATT
  .word Label_D40E96
@  #01 @043   ----------------------------------------
 .byte   PATT
  .word Label_D40EDB
@  #01 @044   ----------------------------------------
 .byte   W96
@  #01 @045   ----------------------------------------
 .byte   W96
@  #01 @046   ----------------------------------------
 .byte   W96
@  #01 @047   ----------------------------------------
 .byte   W96
@  #01 @048   ----------------------------------------
 .byte   W96
@  #01 @049   ----------------------------------------
 .byte   W96
@  #01 @050   ----------------------------------------
 .byte   W96
@  #01 @051   ----------------------------------------
 .byte   W96
@  #01 @052   ----------------------------------------
 .byte   W96
@  #01 @053   ----------------------------------------
 .byte   W96
@  #01 @054   ----------------------------------------
 .byte   W96
@  #01 @055   ----------------------------------------
 .byte   W96
@  #01 @056   ----------------------------------------
 .byte   W96
@  #01 @057   ----------------------------------------
 .byte   W96
@  #01 @058   ----------------------------------------
 .byte   W96
@  #01 @059   ----------------------------------------
 .byte   W96
@  #01 @060   ----------------------------------------
 .byte   W96
@  #01 @061   ----------------------------------------
 .byte   W96
@  #01 @062   ----------------------------------------
 .byte   W96
@  #01 @063   ----------------------------------------
 .byte   W96
@  #01 @064   ----------------------------------------
 .byte   W96
@  #01 @065   ----------------------------------------
 .byte   W96
@  #01 @066   ----------------------------------------
 .byte   W96
@  #01 @067   ----------------------------------------
 .byte   W72
 .byte   N24 ,Cn3 ,v080
 .byte   W24
@  #01 @068   ----------------------------------------
 .byte   PATT
  .word Label_D40E58
@  #01 @069   ----------------------------------------
 .byte   PATT
  .word Label_D40E75
@  #01 @070   ----------------------------------------
 .byte   PATT
  .word Label_D40E96
@  #01 @071   ----------------------------------------
 .byte   PATT
  .word Label_D40EAF
@  #01 @072   ----------------------------------------
 .byte   PATT
  .word Label_D40E58
@  #01 @073   ----------------------------------------
 .byte   PATT
  .word Label_D40E75
@  #01 @074   ----------------------------------------
 .byte   PATT
  .word Label_D40E96
@  #01 @075   ----------------------------------------
 .byte   PATT
  .word Label_D40EDB
@  #01 @076   ----------------------------------------
Label_D40F64:
 .byte   N12 ,Cn1 ,v080
 .byte   W12
 .byte   N12
 .byte   W12
 .byte   N12
 .byte   W12
 .byte   N12
 .byte   W12
 .byte   N12
 .byte   W12
 .byte   N12
 .byte   W12
 .byte   N12
 .byte   W12
 .byte   N12
 .byte   W12
 .byte   PEND 
@  #01 @077   ----------------------------------------
Label_D40F77:
 .byte   N12 ,Ds1 ,v080
 .byte   W12
 .byte   N12
 .byte   W12
 .byte   N12
 .byte   W12
 .byte   N12
 .byte   W12
 .byte   N12
 .byte   W12
 .byte   N12
 .byte   W12
 .byte   N12
 .byte   W12
 .byte   N12
 .byte   W12
 .byte   PEND 
@  #01 @078   ----------------------------------------
Label_D40F8A:
 .byte   N12 ,Gs0 ,v080
 .byte   W12
 .byte   N12
 .byte   W12
 .byte   N12
 .byte   W12
 .byte   N12
 .byte   W12
 .byte   N12
 .byte   W12
 .byte   N12
 .byte   W12
 .byte   N12
 .byte   W12
 .byte   N12
 .byte   W12
 .byte   PEND 
@  #01 @079   ----------------------------------------
Label_D40F9D:
 .byte   N12 ,Bn0 ,v080
 .byte   W12
 .byte   N12
 .byte   W12
 .byte   N12
 .byte   W12
 .byte   N12
 .byte   W12
 .byte   N12
 .byte   W12
 .byte   N12
 .byte   W12
 .byte   N12
 .byte   W12
 .byte   N12
 .byte   W12
 .byte   PEND 
@  #01 @080   ----------------------------------------
 .byte   PATT
  .word Label_D40F64
@  #01 @081   ----------------------------------------
 .byte   PATT
  .word Label_D40F77
@  #01 @082   ----------------------------------------
 .byte   PATT
  .word Label_D40F8A
@  #01 @083   ----------------------------------------
 .byte   PATT
  .word Label_D40F9D
@  #01 @084   ----------------------------------------
 .byte   W96
@  #01 @085   ----------------------------------------
 .byte   W96
@  #01 @086   ----------------------------------------
 .byte   W96
@  #01 @087   ----------------------------------------
 .byte   W96
@  #01 @088   ----------------------------------------
 .byte   W96
@  #01 @089   ----------------------------------------
 .byte   W96
@  #01 @090   ----------------------------------------
 .byte   W96
@  #01 @091   ----------------------------------------
 .byte   W96
@  #01 @092   ----------------------------------------
 .byte   W96
@  #01 @093   ----------------------------------------
 .byte   W96
@  #01 @094   ----------------------------------------
 .byte   W96
@  #01 @095   ----------------------------------------
 .byte   W96
@  #01 @096   ----------------------------------------
 .byte   W96
@  #01 @097   ----------------------------------------
 .byte   W96
@  #01 @098   ----------------------------------------
 .byte   W96
@  #01 @099   ----------------------------------------
 .byte   W96
@  #01 @100   ----------------------------------------
 .byte   W96
@  #01 @101   ----------------------------------------
 .byte   W96
@  #01 @102   ----------------------------------------
 .byte   W96
@  #01 @103   ----------------------------------------
 .byte   W96
@  #01 @104   ----------------------------------------
 .byte   W96
@  #01 @105   ----------------------------------------
 .byte   W96
@  #01 @106   ----------------------------------------
 .byte   W96
@  #01 @107   ----------------------------------------
 .byte   W72
 .byte   N24 ,Cn3 ,v080
 .byte   W24
@  #01 @108   ----------------------------------------
 .byte   GOTO
  .word Label_D40E58
@  #01 @109   ----------------------------------------
 .byte   PATT
  .word Label_D40E58
@  #01 @110   ----------------------------------------
 .byte   PATT
  .word Label_D40E75
@  #01 @111   ----------------------------------------
 .byte   PATT
  .word Label_D40E96
@  #01 @112   ----------------------------------------
 .byte   PATT
  .word Label_D40EAF
@  #01 @113   ----------------------------------------
 .byte   PATT
  .word Label_D40E58
@  #01 @114   ----------------------------------------
 .byte   PATT
  .word Label_D40E75
@  #01 @115   ----------------------------------------
 .byte   PATT
  .word Label_D40E96
@  #01 @116   ----------------------------------------
 .byte   PATT
  .word Label_D40EDB
@  #01 @117   ----------------------------------------
 .byte   PATT
  .word Label_D40E58
@  #01 @118   ----------------------------------------
 .byte   PATT
  .word Label_D40E75
@  #01 @119   ----------------------------------------
 .byte   PATT
  .word Label_D40E96
@  #01 @120   ----------------------------------------
 .byte   PATT
  .word Label_D40EAF
@  #01 @121   ----------------------------------------
 .byte   PATT
  .word Label_D40E58
@  #01 @122   ----------------------------------------
 .byte   PATT
  .word Label_D40E75
@  #01 @123   ----------------------------------------
 .byte   PATT
  .word Label_D40E96
@  #01 @124   ----------------------------------------
 .byte   PATT
  .word Label_D40EDB
@  #01 @125   ----------------------------------------
 .byte   W96
@  #01 @126   ----------------------------------------
 .byte   W96
@  #01 @127   ----------------------------------------
 .byte   W96
@  #01 @128   ----------------------------------------
 .byte   W96
@  #01 @129   ----------------------------------------
 .byte   W96
@  #01 @130   ----------------------------------------
 .byte   W96
@  #01 @131   ----------------------------------------
 .byte   W96
@  #01 @132   ----------------------------------------
 .byte   W96
@  #01 @133   ----------------------------------------
 .byte   W96
@  #01 @134   ----------------------------------------
 .byte   W96
@  #01 @135   ----------------------------------------
 .byte   W96
@  #01 @136   ----------------------------------------
 .byte   W96
@  #01 @137   ----------------------------------------
 .byte   W96
@  #01 @138   ----------------------------------------
 .byte   W96
@  #01 @139   ----------------------------------------
 .byte   W96
@  #01 @140   ----------------------------------------
 .byte   W96
@  #01 @141   ----------------------------------------
 .byte   W96
@  #01 @142   ----------------------------------------
 .byte   W96
@  #01 @143   ----------------------------------------
 .byte   W96
@  #01 @144   ----------------------------------------
 .byte   W96
@  #01 @145   ----------------------------------------
 .byte   W96
@  #01 @146   ----------------------------------------
 .byte   W96
@  #01 @147   ----------------------------------------
 .byte   W96
@  #01 @148   ----------------------------------------
 .byte   W72
 .byte   N24 ,Cn3 ,v080
 .byte   W24
@  #01 @149   ----------------------------------------
 .byte   PATT
  .word Label_D40E58
@  #01 @150   ----------------------------------------
 .byte   PATT
  .word Label_D40E75
@  #01 @151   ----------------------------------------
 .byte   PATT
  .word Label_D40E96
@  #01 @152   ----------------------------------------
 .byte   PATT
  .word Label_D40EAF
@  #01 @153   ----------------------------------------
 .byte   PATT
  .word Label_D40E58
@  #01 @154   ----------------------------------------
 .byte   PATT
  .word Label_D40E75
@  #01 @155   ----------------------------------------
 .byte   PATT
  .word Label_D40E96
@  #01 @156   ----------------------------------------
 .byte   PATT
  .word Label_D40EDB
@  #01 @157   ----------------------------------------
 .byte   PATT
  .word Label_D40F64
@  #01 @158   ----------------------------------------
 .byte   PATT
  .word Label_D40F77
@  #01 @159   ----------------------------------------
 .byte   PATT
  .word Label_D40F8A
@  #01 @160   ----------------------------------------
 .byte   PATT
  .word Label_D40F9D
@  #01 @161   ----------------------------------------
 .byte   PATT
  .word Label_D40F64
@  #01 @162   ----------------------------------------
 .byte   PATT
  .word Label_D40F77
@  #01 @163   ----------------------------------------
 .byte   PATT
  .word Label_D40F8A
@  #01 @164   ----------------------------------------
 .byte   PATT
  .word Label_D40F9D
 .byte   FINE

@**************** Track 2 (Midi-Chn.1) ****************@

InnocenceGlitched_002:
@  #02 @000   ----------------------------------------
 .byte   VOL , 52*InnocenceGlitched_mvl/mxv
 .byte   KEYSH , InnocenceGlitched_key+0
 .byte   VOICE , 38
 .byte   W96
@  #02 @001   ----------------------------------------
 .byte   W96
@  #02 @002   ----------------------------------------
 .byte   W96
@  #02 @003   ----------------------------------------
 .byte   W96
@  #02 @004   ----------------------------------------
 .byte   N96 ,Cn1 ,v080
 .byte   W96
@  #02 @005   ----------------------------------------
 .byte   Ds1
 .byte   W96
@  #02 @006   ----------------------------------------
 .byte   Gs0
 .byte   W96
@  #02 @007   ----------------------------------------
 .byte   Bn0
 .byte   W96
@  #02 @008   ----------------------------------------
Label_D410B8:
 .byte   N12 ,Cn1 ,v080
 .byte   W12
 .byte   N12
 .byte   W12
 .byte   N12
 .byte   W12
 .byte   N12
 .byte   W12
 .byte   N12
 .byte   W12
 .byte   N12
 .byte   W12
 .byte   N12
 .byte   W12
 .byte   N12
 .byte   W12
 .byte   PEND 
@  #02 @009   ----------------------------------------
Label_D410CB:
 .byte   N12 ,Ds1 ,v080
 .byte   W12
 .byte   N12
 .byte   W12
 .byte   N12
 .byte   W12
 .byte   N12
 .byte   W12
 .byte   N12
 .byte   W12
 .byte   N12
 .byte   W12
 .byte   N12
 .byte   W12
 .byte   N12
 .byte   W12
 .byte   PEND 
@  #02 @010   ----------------------------------------
Label_D410DE:
 .byte   N12 ,Gs0 ,v080
 .byte   W12
 .byte   N12
 .byte   W12
 .byte   N12
 .byte   W12
 .byte   N12
 .byte   W12
 .byte   N12
 .byte   W12
 .byte   N12
 .byte   W12
 .byte   N12
 .byte   W12
 .byte   N12
 .byte   W12
 .byte   PEND 
@  #02 @011   ----------------------------------------
Label_D410F1:
 .byte   N12 ,Bn0 ,v080
 .byte   W12
 .byte   N12
 .byte   W12
 .byte   N12
 .byte   W12
 .byte   N12
 .byte   W12
 .byte   N12
 .byte   W12
 .byte   N12
 .byte   W12
 .byte   N12
 .byte   W12
 .byte   N12
 .byte   W12
 .byte   PEND 
@  #02 @012   ----------------------------------------
 .byte   PATT
  .word Label_D410B8
@  #02 @013   ----------------------------------------
 .byte   PATT
  .word Label_D410CB
@  #02 @014   ----------------------------------------
 .byte   PATT
  .word Label_D410DE
@  #02 @015   ----------------------------------------
 .byte   PATT
  .word Label_D410F1
@  #02 @016   ----------------------------------------
 .byte   PATT
  .word Label_D410B8
@  #02 @017   ----------------------------------------
 .byte   PATT
  .word Label_D410CB
@  #02 @018   ----------------------------------------
 .byte   PATT
  .word Label_D410DE
@  #02 @019   ----------------------------------------
 .byte   PATT
  .word Label_D410F1
@  #02 @020   ----------------------------------------
 .byte   W96
@  #02 @021   ----------------------------------------
 .byte   W96
@  #02 @022   ----------------------------------------
 .byte   W96
@  #02 @023   ----------------------------------------
 .byte   W96
@  #02 @024   ----------------------------------------
Label_D41130:
 .byte   N12 ,Cn1 ,v080
 .byte   N12 ,Cn2
 .byte   W12
 .byte   Cn1
 .byte   N12 ,Cn2
 .byte   W12
 .byte   Cn1
 .byte   N12 ,Cn2
 .byte   W12
 .byte   Cn1
 .byte   N12 ,Cn2
 .byte   W24
 .byte   Cn1
 .byte   N12 ,Cn2
 .byte   W12
 .byte   Cn1
 .byte   N12 ,Cn2
 .byte   W12
 .byte   Cn1
 .byte   N12 ,Cn2
 .byte   W12
 .byte   PEND 
@  #02 @025   ----------------------------------------
Label_D4114F:
 .byte   N12 ,Ds1 ,v080
 .byte   N12 ,Ds2
 .byte   W12
 .byte   Ds1
 .byte   N12 ,Ds2
 .byte   W12
 .byte   Ds1
 .byte   N12 ,Ds2
 .byte   W12
 .byte   Ds1
 .byte   N12 ,Ds2
 .byte   W24
 .byte   Ds1
 .byte   N12 ,Ds2
 .byte   W12
 .byte   Ds1
 .byte   N12 ,Ds2
 .byte   W12
 .byte   Ds1
 .byte   N12 ,Ds2
 .byte   W12
 .byte   PEND 
@  #02 @026   ----------------------------------------
Label_D4116E:
 .byte   N12 ,Gs0 ,v080
 .byte   N12 ,Gs1
 .byte   W12
 .byte   Gs0
 .byte   N12 ,Gs1
 .byte   W12
 .byte   Gs0
 .byte   N12 ,Gs1
 .byte   W12
 .byte   Gs0
 .byte   N12 ,Gs1
 .byte   W24
 .byte   Gs0
 .byte   N12 ,Gs1
 .byte   W12
 .byte   Gs0
 .byte   N12 ,Gs1
 .byte   W12
 .byte   Gs0
 .byte   N12 ,Gs1
 .byte   W12
 .byte   PEND 
@  #02 @027   ----------------------------------------
Label_D4118D:
 .byte   N12 ,Bn0 ,v080
 .byte   N12 ,Bn1
 .byte   W12
 .byte   Bn0
 .byte   N12 ,Bn1
 .byte   W12
 .byte   Bn0
 .byte   N12 ,Bn1
 .byte   W12
 .byte   Bn0
 .byte   N12 ,Bn1
 .byte   W24
 .byte   Bn0
 .byte   N12 ,Bn1
 .byte   W12
 .byte   Bn0
 .byte   N12 ,Bn1
 .byte   W12
 .byte   Bn0
 .byte   N12 ,Bn1
 .byte   W12
 .byte   PEND 
@  #02 @028   ----------------------------------------
Label_D411AC:
 .byte   N12 ,Cn1 ,v080
 .byte   N12 ,Cn2
 .byte   W12
 .byte   Cn1
 .byte   N12 ,Cn2
 .byte   W12
 .byte   Cn1
 .byte   N12 ,Cn2
 .byte   W12
 .byte   Cn1
 .byte   N12 ,Cn2
 .byte   W12
 .byte   Cn1
 .byte   N12 ,Cn2
 .byte   W12
 .byte   Cn1
 .byte   N12 ,Cn2
 .byte   W12
 .byte   Cn1
 .byte   N12 ,Cn2
 .byte   W12
 .byte   Cn1
 .byte   N12 ,Cn2
 .byte   W12
 .byte   PEND 
@  #02 @029   ----------------------------------------
Label_D411CF:
 .byte   N12 ,Ds1 ,v080
 .byte   N12 ,Ds2
 .byte   W12
 .byte   Ds1
 .byte   N12 ,Ds2
 .byte   W12
 .byte   Ds1
 .byte   N12 ,Ds2
 .byte   W12
 .byte   Ds1
 .byte   N12 ,Ds2
 .byte   W12
 .byte   Ds1
 .byte   N12 ,Ds2
 .byte   W12
 .byte   Ds1
 .byte   N12 ,Ds2
 .byte   W12
 .byte   Ds1
 .byte   N12 ,Ds2
 .byte   W12
 .byte   Ds1
 .byte   N12 ,Ds2
 .byte   W12
 .byte   PEND 
@  #02 @030   ----------------------------------------
Label_D411F2:
 .byte   N12 ,Gs0 ,v080
 .byte   N12 ,Gs1
 .byte   W12
 .byte   Gs0
 .byte   N12 ,Gs1
 .byte   W12
 .byte   Gs0
 .byte   N12 ,Gs1
 .byte   W12
 .byte   Gs0
 .byte   N12 ,Gs1
 .byte   W12
 .byte   Gs0
 .byte   N12 ,Gs1
 .byte   W12
 .byte   Gs0
 .byte   N12 ,Gs1
 .byte   W12
 .byte   Gs0
 .byte   N12 ,Gs1
 .byte   W12
 .byte   Gs0
 .byte   N12 ,Gs1
 .byte   W12
 .byte   PEND 
@  #02 @031   ----------------------------------------
Label_D41215:
 .byte   N12 ,Bn0 ,v080
 .byte   N12 ,Bn1
 .byte   W12
 .byte   Bn0
 .byte   N12 ,Bn1
 .byte   W12
 .byte   Bn0
 .byte   N12 ,Bn1
 .byte   W12
 .byte   Bn0
 .byte   N12 ,Bn1
 .byte   W12
 .byte   Bn0
 .byte   N12 ,Bn1
 .byte   W12
 .byte   Bn0
 .byte   N12 ,Bn1
 .byte   W12
 .byte   Bn0
 .byte   N12 ,Bn1
 .byte   W12
 .byte   Bn0
 .byte   N12 ,Bn1
 .byte   W12
 .byte   PEND 
@  #02 @032   ----------------------------------------
 .byte   PATT
  .word Label_D411AC
@  #02 @033   ----------------------------------------
 .byte   PATT
  .word Label_D411CF
@  #02 @034   ----------------------------------------
 .byte   PATT
  .word Label_D411F2
@  #02 @035   ----------------------------------------
 .byte   PATT
  .word Label_D41215
@  #02 @036   ----------------------------------------
 .byte   PATT
  .word Label_D411AC
@  #02 @037   ----------------------------------------
 .byte   PATT
  .word Label_D411CF
@  #02 @038   ----------------------------------------
 .byte   PATT
  .word Label_D411F2
@  #02 @039   ----------------------------------------
 .byte   PATT
  .word Label_D41215
@  #02 @040   ----------------------------------------
 .byte   PATT
  .word Label_D411AC
@  #02 @041   ----------------------------------------
 .byte   PATT
  .word Label_D411CF
@  #02 @042   ----------------------------------------
 .byte   PATT
  .word Label_D411F2
@  #02 @043   ----------------------------------------
 .byte   PATT
  .word Label_D41215
@  #02 @044   ----------------------------------------
 .byte   W96
@  #02 @045   ----------------------------------------
 .byte   W96
@  #02 @046   ----------------------------------------
 .byte   W96
@  #02 @047   ----------------------------------------
 .byte   W96
@  #02 @048   ----------------------------------------
 .byte   W96
@  #02 @049   ----------------------------------------
 .byte   W96
@  #02 @050   ----------------------------------------
 .byte   W96
@  #02 @051   ----------------------------------------
 .byte   W96
@  #02 @052   ----------------------------------------
 .byte   W96
@  #02 @053   ----------------------------------------
 .byte   W96
@  #02 @054   ----------------------------------------
 .byte   W96
@  #02 @055   ----------------------------------------
 .byte   W96
@  #02 @056   ----------------------------------------
 .byte   W96
@  #02 @057   ----------------------------------------
 .byte   W96
@  #02 @058   ----------------------------------------
 .byte   W96
@  #02 @059   ----------------------------------------
 .byte   W96
@  #02 @060   ----------------------------------------
 .byte   W96
@  #02 @061   ----------------------------------------
 .byte   W96
@  #02 @062   ----------------------------------------
 .byte   W96
@  #02 @063   ----------------------------------------
 .byte   W96
@  #02 @064   ----------------------------------------
 .byte   W96
@  #02 @065   ----------------------------------------
 .byte   W96
@  #02 @066   ----------------------------------------
 .byte   W96
@  #02 @067   ----------------------------------------
 .byte   W96
@  #02 @068   ----------------------------------------
 .byte   PATT
  .word Label_D411AC
@  #02 @069   ----------------------------------------
 .byte   PATT
  .word Label_D411CF
@  #02 @070   ----------------------------------------
 .byte   PATT
  .word Label_D411F2
@  #02 @071   ----------------------------------------
 .byte   PATT
  .word Label_D41215
@  #02 @072   ----------------------------------------
 .byte   PATT
  .word Label_D411AC
@  #02 @073   ----------------------------------------
 .byte   PATT
  .word Label_D411CF
@  #02 @074   ----------------------------------------
 .byte   PATT
  .word Label_D411F2
@  #02 @075   ----------------------------------------
 .byte   PATT
  .word Label_D41215
@  #02 @076   ----------------------------------------
 .byte   PATT
  .word Label_D411AC
@  #02 @077   ----------------------------------------
 .byte   PATT
  .word Label_D411CF
@  #02 @078   ----------------------------------------
 .byte   PATT
  .word Label_D411F2
@  #02 @079   ----------------------------------------
 .byte   PATT
  .word Label_D41215
@  #02 @080   ----------------------------------------
 .byte   PATT
  .word Label_D411AC
@  #02 @081   ----------------------------------------
 .byte   PATT
  .word Label_D411CF
@  #02 @082   ----------------------------------------
 .byte   PATT
  .word Label_D411F2
@  #02 @083   ----------------------------------------
 .byte   PATT
  .word Label_D41215
@  #02 @084   ----------------------------------------
 .byte   N96 ,Cn1 ,v080
 .byte   W96
@  #02 @085   ----------------------------------------
 .byte   Ds1
 .byte   W96
@  #02 @086   ----------------------------------------
 .byte   Gs0
 .byte   W96
@  #02 @087   ----------------------------------------
 .byte   Bn0
 .byte   W96
@  #02 @088   ----------------------------------------
 .byte   PATT
  .word Label_D410B8
@  #02 @089   ----------------------------------------
 .byte   PATT
  .word Label_D410CB
@  #02 @090   ----------------------------------------
 .byte   PATT
  .word Label_D410DE
@  #02 @091   ----------------------------------------
 .byte   PATT
  .word Label_D410F1
@  #02 @092   ----------------------------------------
 .byte   PATT
  .word Label_D410B8
@  #02 @093   ----------------------------------------
 .byte   PATT
  .word Label_D410CB
@  #02 @094   ----------------------------------------
 .byte   PATT
  .word Label_D410DE
@  #02 @095   ----------------------------------------
 .byte   PATT
  .word Label_D410F1
@  #02 @096   ----------------------------------------
 .byte   PATT
  .word Label_D410B8
@  #02 @097   ----------------------------------------
 .byte   PATT
  .word Label_D410CB
@  #02 @098   ----------------------------------------
 .byte   PATT
  .word Label_D410DE
@  #02 @099   ----------------------------------------
 .byte   PATT
  .word Label_D410F1
@  #02 @100   ----------------------------------------
 .byte   W96
@  #02 @101   ----------------------------------------
 .byte   W96
@  #02 @102   ----------------------------------------
 .byte   W96
@  #02 @103   ----------------------------------------
 .byte   W96
@  #02 @104   ----------------------------------------
 .byte   PATT
  .word Label_D41130
@  #02 @105   ----------------------------------------
 .byte   PATT
  .word Label_D4114F
@  #02 @106   ----------------------------------------
 .byte   PATT
  .word Label_D4116E
@  #02 @107   ----------------------------------------
 .byte   PATT
  .word Label_D4118D
@  #02 @108   ----------------------------------------
 .byte   GOTO
  .word Label_D411AC
@  #02 @109   ----------------------------------------
 .byte   PATT
  .word Label_D411AC
@  #02 @110   ----------------------------------------
 .byte   PATT
  .word Label_D411CF
@  #02 @111   ----------------------------------------
 .byte   PATT
  .word Label_D411F2
@  #02 @112   ----------------------------------------
 .byte   PATT
  .word Label_D41215
@  #02 @113   ----------------------------------------
 .byte   PATT
  .word Label_D411AC
@  #02 @114   ----------------------------------------
 .byte   PATT
  .word Label_D411CF
@  #02 @115   ----------------------------------------
 .byte   PATT
  .word Label_D411F2
@  #02 @116   ----------------------------------------
 .byte   PATT
  .word Label_D41215
@  #02 @117   ----------------------------------------
 .byte   PATT
  .word Label_D411AC
@  #02 @118   ----------------------------------------
 .byte   PATT
  .word Label_D411CF
@  #02 @119   ----------------------------------------
 .byte   PATT
  .word Label_D411F2
@  #02 @120   ----------------------------------------
 .byte   PATT
  .word Label_D41215
@  #02 @121   ----------------------------------------
 .byte   PATT
  .word Label_D411AC
@  #02 @122   ----------------------------------------
 .byte   PATT
  .word Label_D411CF
@  #02 @123   ----------------------------------------
 .byte   PATT
  .word Label_D411F2
@  #02 @124   ----------------------------------------
 .byte   PATT
  .word Label_D41215
@  #02 @125   ----------------------------------------
 .byte   W96
@  #02 @126   ----------------------------------------
 .byte   W96
@  #02 @127   ----------------------------------------
 .byte   W96
@  #02 @128   ----------------------------------------
 .byte   W96
@  #02 @129   ----------------------------------------
 .byte   W96
@  #02 @130   ----------------------------------------
 .byte   W96
@  #02 @131   ----------------------------------------
 .byte   W96
@  #02 @132   ----------------------------------------
 .byte   W96
@  #02 @133   ----------------------------------------
 .byte   W96
@  #02 @134   ----------------------------------------
 .byte   W96
@  #02 @135   ----------------------------------------
 .byte   W96
@  #02 @136   ----------------------------------------
 .byte   W96
@  #02 @137   ----------------------------------------
 .byte   W96
@  #02 @138   ----------------------------------------
 .byte   W96
@  #02 @139   ----------------------------------------
 .byte   W96
@  #02 @140   ----------------------------------------
 .byte   W96
@  #02 @141   ----------------------------------------
 .byte   W96
@  #02 @142   ----------------------------------------
 .byte   W96
@  #02 @143   ----------------------------------------
 .byte   W96
@  #02 @144   ----------------------------------------
 .byte   W96
@  #02 @145   ----------------------------------------
 .byte   W96
@  #02 @146   ----------------------------------------
 .byte   W96
@  #02 @147   ----------------------------------------
 .byte   W96
@  #02 @148   ----------------------------------------
 .byte   W96
@  #02 @149   ----------------------------------------
 .byte   PATT
  .word Label_D411AC
@  #02 @150   ----------------------------------------
 .byte   PATT
  .word Label_D411CF
@  #02 @151   ----------------------------------------
 .byte   PATT
  .word Label_D411F2
@  #02 @152   ----------------------------------------
 .byte   PATT
  .word Label_D41215
@  #02 @153   ----------------------------------------
 .byte   PATT
  .word Label_D411AC
@  #02 @154   ----------------------------------------
 .byte   PATT
  .word Label_D411CF
@  #02 @155   ----------------------------------------
 .byte   PATT
  .word Label_D411F2
@  #02 @156   ----------------------------------------
 .byte   PATT
  .word Label_D41215
@  #02 @157   ----------------------------------------
 .byte   PATT
  .word Label_D411AC
@  #02 @158   ----------------------------------------
 .byte   PATT
  .word Label_D411CF
@  #02 @159   ----------------------------------------
 .byte   PATT
  .word Label_D411F2
@  #02 @160   ----------------------------------------
 .byte   PATT
  .word Label_D41215
@  #02 @161   ----------------------------------------
 .byte   PATT
  .word Label_D411AC
@  #02 @162   ----------------------------------------
 .byte   PATT
  .word Label_D411CF
@  #02 @163   ----------------------------------------
 .byte   PATT
  .word Label_D411F2
@  #02 @164   ----------------------------------------
 .byte   PATT
  .word Label_D41215
 .byte   FINE

@**************** Track 3 (Midi-Chn.2) ****************@

InnocenceGlitched_003:
@  #03 @000   ----------------------------------------
 .byte   VOL , 52*InnocenceGlitched_mvl/mxv
 .byte   KEYSH , InnocenceGlitched_key+0
 .byte   VOICE , 48
 .byte   W96
@  #03 @001   ----------------------------------------
 .byte   W96
@  #03 @002   ----------------------------------------
 .byte   W96
@  #03 @003   ----------------------------------------
 .byte   W96
@  #03 @004   ----------------------------------------
 .byte   W96
@  #03 @005   ----------------------------------------
 .byte   W96
@  #03 @006   ----------------------------------------
 .byte   W96
@  #03 @007   ----------------------------------------
 .byte   W96
@  #03 @008   ----------------------------------------
 .byte   W96
@  #03 @009   ----------------------------------------
 .byte   W96
@  #03 @010   ----------------------------------------
 .byte   W96
@  #03 @011   ----------------------------------------
 .byte   W96
@  #03 @012   ----------------------------------------
 .byte   W96
@  #03 @013   ----------------------------------------
 .byte   W96
@  #03 @014   ----------------------------------------
 .byte   W96
@  #03 @015   ----------------------------------------
 .byte   W96
@  #03 @016   ----------------------------------------
 .byte   W96
@  #03 @017   ----------------------------------------
 .byte   W96
@  #03 @018   ----------------------------------------
 .byte   W96
@  #03 @019   ----------------------------------------
 .byte   W96
@  #03 @020   ----------------------------------------
 .byte   W96
@  #03 @021   ----------------------------------------
 .byte   W96
@  #03 @022   ----------------------------------------
 .byte   W96
@  #03 @023   ----------------------------------------
 .byte   W96
@  #03 @024   ----------------------------------------
 .byte   W96
@  #03 @025   ----------------------------------------
 .byte   W96
@  #03 @026   ----------------------------------------
 .byte   W96
@  #03 @027   ----------------------------------------
 .byte   W96
@  #03 @028   ----------------------------------------
Label_D40616:
 .byte   N24 ,Cn3 ,v080
 .byte   W24
 .byte   N24
 .byte   W24
 .byte   N24
 .byte   W24
 .byte   N24
 .byte   W24
 .byte   PEND 
@  #03 @029   ----------------------------------------
Label_D40621:
 .byte   N24 ,Ds3 ,v080
 .byte   W24
 .byte   N24
 .byte   W24
 .byte   N24
 .byte   W24
 .byte   N24
 .byte   W24
 .byte   PEND 
@  #03 @030   ----------------------------------------
Label_D4062C:
 .byte   N24 ,Gs2 ,v080
 .byte   W24
 .byte   N24
 .byte   W24
 .byte   N24
 .byte   W24
 .byte   N24
 .byte   W24
 .byte   PEND 
@  #03 @031   ----------------------------------------
Label_D40637:
 .byte   N24 ,Bn2 ,v080
 .byte   W24
 .byte   N24
 .byte   W24
 .byte   N24
 .byte   W24
 .byte   N24
 .byte   W24
 .byte   PEND 
@  #03 @032   ----------------------------------------
 .byte   PATT
  .word Label_D40616
@  #03 @033   ----------------------------------------
 .byte   PATT
  .word Label_D40621
@  #03 @034   ----------------------------------------
 .byte   PATT
  .word Label_D4062C
@  #03 @035   ----------------------------------------
 .byte   PATT
  .word Label_D40637
@  #03 @036   ----------------------------------------
 .byte   W96
@  #03 @037   ----------------------------------------
 .byte   W96
@  #03 @038   ----------------------------------------
 .byte   W96
@  #03 @039   ----------------------------------------
 .byte   W96
@  #03 @040   ----------------------------------------
 .byte   W96
@  #03 @041   ----------------------------------------
 .byte   W96
@  #03 @042   ----------------------------------------
 .byte   W96
@  #03 @043   ----------------------------------------
 .byte   W96
@  #03 @044   ----------------------------------------
 .byte   W96
@  #03 @045   ----------------------------------------
Label_D4065F:
 .byte   N96 ,Cn3 ,v080
 .byte   W01
 .byte   Ds3
 .byte   W02
 .byte   Gn3
 .byte   W92
 .byte   W01
 .byte   PEND 
@  #03 @046   ----------------------------------------
Label_D40669:
 .byte   TIE ,Cn3 ,v080
 .byte   W01
 .byte   Fn3
 .byte   W92
 .byte   W03
 .byte   PEND 
@  #03 @047   ----------------------------------------
 .byte   W48
 .byte   EOT
 .byte   Cn3
 .byte   W01
 .byte   Fn3
 .byte   W44
 .byte   W03
@  #03 @048   ----------------------------------------
Label_D40678:
 .byte   N96 ,Ds3 ,v080
 .byte   W01
 .byte   Gn3
 .byte   W02
 .byte   Cn4
 .byte   W92
 .byte   W01
 .byte   PEND 
@  #03 @049   ----------------------------------------
 .byte   PATT
  .word Label_D4065F
@  #03 @050   ----------------------------------------
Label_D40687:
 .byte   N96 ,Bn2 ,v080
 .byte   W01
 .byte   Ds3
 .byte   W02
 .byte   Gn3
 .byte   W92
 .byte   W01
 .byte   PEND 
@  #03 @051   ----------------------------------------
Label_D40691:
 .byte   N96 ,Gn2 ,v080
 .byte   W01
 .byte   Bn2
 .byte   W02
 .byte   Ds3
 .byte   W92
 .byte   W01
 .byte   PEND 
@  #03 @052   ----------------------------------------
 .byte   W96
@  #03 @053   ----------------------------------------
 .byte   W96
@  #03 @054   ----------------------------------------
 .byte   W96
@  #03 @055   ----------------------------------------
 .byte   W96
@  #03 @056   ----------------------------------------
 .byte   W96
@  #03 @057   ----------------------------------------
 .byte   W96
@  #03 @058   ----------------------------------------
 .byte   W96
@  #03 @059   ----------------------------------------
 .byte   W96
@  #03 @060   ----------------------------------------
 .byte   W96
@  #03 @061   ----------------------------------------
 .byte   W96
@  #03 @062   ----------------------------------------
 .byte   W96
@  #03 @063   ----------------------------------------
 .byte   W96
@  #03 @064   ----------------------------------------
 .byte   W96
@  #03 @065   ----------------------------------------
 .byte   W96
@  #03 @066   ----------------------------------------
 .byte   W96
@  #03 @067   ----------------------------------------
 .byte   W96
@  #03 @068   ----------------------------------------
 .byte   PATT
  .word Label_D40616
@  #03 @069   ----------------------------------------
 .byte   PATT
  .word Label_D40621
@  #03 @070   ----------------------------------------
 .byte   PATT
  .word Label_D4062C
@  #03 @071   ----------------------------------------
 .byte   PATT
  .word Label_D40637
@  #03 @072   ----------------------------------------
 .byte   PATT
  .word Label_D40616
@  #03 @073   ----------------------------------------
 .byte   PATT
  .word Label_D40621
@  #03 @074   ----------------------------------------
 .byte   PATT
  .word Label_D4062C
@  #03 @075   ----------------------------------------
 .byte   PATT
  .word Label_D40637
@  #03 @076   ----------------------------------------
 .byte   W96
@  #03 @077   ----------------------------------------
 .byte   W96
@  #03 @078   ----------------------------------------
 .byte   W96
@  #03 @079   ----------------------------------------
 .byte   W96
@  #03 @080   ----------------------------------------
 .byte   W96
@  #03 @081   ----------------------------------------
 .byte   W96
@  #03 @082   ----------------------------------------
 .byte   W96
@  #03 @083   ----------------------------------------
 .byte   W96
@  #03 @084   ----------------------------------------
 .byte   W96
@  #03 @085   ----------------------------------------
 .byte   W96
@  #03 @086   ----------------------------------------
 .byte   W96
@  #03 @087   ----------------------------------------
 .byte   W96
@  #03 @088   ----------------------------------------
 .byte   W96
@  #03 @089   ----------------------------------------
 .byte   W96
@  #03 @090   ----------------------------------------
 .byte   W96
@  #03 @091   ----------------------------------------
 .byte   W96
@  #03 @092   ----------------------------------------
 .byte   W96
@  #03 @093   ----------------------------------------
 .byte   W96
@  #03 @094   ----------------------------------------
 .byte   W96
@  #03 @095   ----------------------------------------
 .byte   W96
@  #03 @096   ----------------------------------------
 .byte   W96
@  #03 @097   ----------------------------------------
 .byte   W96
@  #03 @098   ----------------------------------------
 .byte   W96
@  #03 @099   ----------------------------------------
 .byte   W96
@  #03 @100   ----------------------------------------
 .byte   W96
@  #03 @101   ----------------------------------------
 .byte   W96
@  #03 @102   ----------------------------------------
 .byte   W96
@  #03 @103   ----------------------------------------
 .byte   W96
@  #03 @104   ----------------------------------------
 .byte   W96
@  #03 @105   ----------------------------------------
 .byte   W96
@  #03 @106   ----------------------------------------
 .byte   W96
@  #03 @107   ----------------------------------------
 .byte   W96
@  #03 @108   ----------------------------------------
 .byte   GOTO
  .word Label_D40616
@  #03 @109   ----------------------------------------
 .byte   PATT
  .word Label_D40616
@  #03 @110   ----------------------------------------
 .byte   PATT
  .word Label_D40621
@  #03 @111   ----------------------------------------
 .byte   PATT
  .word Label_D4062C
@  #03 @112   ----------------------------------------
 .byte   PATT
  .word Label_D40637
@  #03 @113   ----------------------------------------
 .byte   PATT
  .word Label_D40616
@  #03 @114   ----------------------------------------
 .byte   PATT
  .word Label_D40621
@  #03 @115   ----------------------------------------
 .byte   PATT
  .word Label_D4062C
@  #03 @116   ----------------------------------------
 .byte   PATT
  .word Label_D40637
@  #03 @117   ----------------------------------------
 .byte   W96
@  #03 @118   ----------------------------------------
 .byte   W96
@  #03 @119   ----------------------------------------
 .byte   W96
@  #03 @120   ----------------------------------------
 .byte   W96
@  #03 @121   ----------------------------------------
 .byte   W96
@  #03 @122   ----------------------------------------
 .byte   W96
@  #03 @123   ----------------------------------------
 .byte   W96
@  #03 @124   ----------------------------------------
 .byte   W96
@  #03 @125   ----------------------------------------
 .byte   W96
@  #03 @126   ----------------------------------------
 .byte   PATT
  .word Label_D4065F
@  #03 @127   ----------------------------------------
 .byte   PATT
  .word Label_D40669
@  #03 @128   ----------------------------------------
 .byte   W48
 .byte   EOT
 .byte   Cn3
 .byte   W01
 .byte   Fn3
 .byte   W44
 .byte   W03
@  #03 @129   ----------------------------------------
 .byte   PATT
  .word Label_D40678
@  #03 @130   ----------------------------------------
 .byte   PATT
  .word Label_D4065F
@  #03 @131   ----------------------------------------
 .byte   PATT
  .word Label_D40687
@  #03 @132   ----------------------------------------
 .byte   PATT
  .word Label_D40691
@  #03 @133   ----------------------------------------
 .byte   W96
@  #03 @134   ----------------------------------------
 .byte   W96
@  #03 @135   ----------------------------------------
 .byte   W96
@  #03 @136   ----------------------------------------
 .byte   W96
@  #03 @137   ----------------------------------------
 .byte   W96
@  #03 @138   ----------------------------------------
 .byte   W96
@  #03 @139   ----------------------------------------
 .byte   W96
@  #03 @140   ----------------------------------------
 .byte   W96
@  #03 @141   ----------------------------------------
 .byte   W96
@  #03 @142   ----------------------------------------
 .byte   W96
@  #03 @143   ----------------------------------------
 .byte   W96
@  #03 @144   ----------------------------------------
 .byte   W96
@  #03 @145   ----------------------------------------
 .byte   W96
@  #03 @146   ----------------------------------------
 .byte   W96
@  #03 @147   ----------------------------------------
 .byte   W96
@  #03 @148   ----------------------------------------
 .byte   W96
@  #03 @149   ----------------------------------------
 .byte   PATT
  .word Label_D40616
@  #03 @150   ----------------------------------------
 .byte   PATT
  .word Label_D40621
@  #03 @151   ----------------------------------------
 .byte   PATT
  .word Label_D4062C
@  #03 @152   ----------------------------------------
 .byte   PATT
  .word Label_D40637
@  #03 @153   ----------------------------------------
 .byte   PATT
  .word Label_D40616
@  #03 @154   ----------------------------------------
 .byte   PATT
  .word Label_D40621
@  #03 @155   ----------------------------------------
 .byte   PATT
  .word Label_D4062C
@  #03 @156   ----------------------------------------
 .byte   PATT
  .word Label_D40637
@  #03 @157   ----------------------------------------
 .byte   W96
@  #03 @158   ----------------------------------------
 .byte   W96
@  #03 @159   ----------------------------------------
 .byte   W96
@  #03 @160   ----------------------------------------
 .byte   W96
@  #03 @161   ----------------------------------------
 .byte   W96
@  #03 @162   ----------------------------------------
 .byte   W96
@  #03 @163   ----------------------------------------
 .byte   W96
@  #03 @164   ----------------------------------------
 .byte   W96
 .byte   FINE

@**************** Track 4 (Midi-Chn.3) ****************@

InnocenceGlitched_004:
@  #04 @000   ----------------------------------------
 .byte   VOL , 52*InnocenceGlitched_mvl/mxv
 .byte   KEYSH , InnocenceGlitched_key+0
 .byte   VOICE , 48
 .byte   W96
@  #04 @001   ----------------------------------------
 .byte   W96
@  #04 @002   ----------------------------------------
 .byte   W96
@  #04 @003   ----------------------------------------
 .byte   W96
@  #04 @004   ----------------------------------------
 .byte   W96
@  #04 @005   ----------------------------------------
 .byte   W96
@  #04 @006   ----------------------------------------
 .byte   W96
@  #04 @007   ----------------------------------------
 .byte   W96
@  #04 @008   ----------------------------------------
 .byte   W96
@  #04 @009   ----------------------------------------
 .byte   W96
@  #04 @010   ----------------------------------------
 .byte   W96
@  #04 @011   ----------------------------------------
 .byte   W96
@  #04 @012   ----------------------------------------
 .byte   W96
@  #04 @013   ----------------------------------------
 .byte   W96
@  #04 @014   ----------------------------------------
 .byte   W96
@  #04 @015   ----------------------------------------
 .byte   W96
@  #04 @016   ----------------------------------------
 .byte   W96
@  #04 @017   ----------------------------------------
 .byte   W96
@  #04 @018   ----------------------------------------
 .byte   W96
@  #04 @019   ----------------------------------------
 .byte   W96
@  #04 @020   ----------------------------------------
 .byte   W96
@  #04 @021   ----------------------------------------
 .byte   W96
@  #04 @022   ----------------------------------------
 .byte   W96
@  #04 @023   ----------------------------------------
 .byte   W96
@  #04 @024   ----------------------------------------
 .byte   W96
@  #04 @025   ----------------------------------------
 .byte   W96
@  #04 @026   ----------------------------------------
 .byte   W96
@  #04 @027   ----------------------------------------
 .byte   W96
@  #04 @028   ----------------------------------------
Label_D402C6:
 .byte   W96
@  #04 @029   ----------------------------------------
 .byte   W96
@  #04 @030   ----------------------------------------
 .byte   W96
@  #04 @031   ----------------------------------------
 .byte   W96
@  #04 @032   ----------------------------------------
 .byte   W96
@  #04 @033   ----------------------------------------
 .byte   W96
@  #04 @034   ----------------------------------------
 .byte   W96
@  #04 @035   ----------------------------------------
 .byte   W96
@  #04 @036   ----------------------------------------
 .byte   W96
@  #04 @037   ----------------------------------------
 .byte   W96
@  #04 @038   ----------------------------------------
 .byte   W96
@  #04 @039   ----------------------------------------
 .byte   W96
@  #04 @040   ----------------------------------------
 .byte   W96
@  #04 @041   ----------------------------------------
 .byte   W96
@  #04 @042   ----------------------------------------
 .byte   W96
@  #04 @043   ----------------------------------------
 .byte   W96
@  #04 @044   ----------------------------------------
 .byte   TIE ,Cn2 ,v080
 .byte   W96
@  #04 @045   ----------------------------------------
 .byte   W96
@  #04 @046   ----------------------------------------
 .byte   W96
@  #04 @047   ----------------------------------------
 .byte   W96
@  #04 @048   ----------------------------------------
 .byte   W96
@  #04 @049   ----------------------------------------
 .byte   W96
@  #04 @050   ----------------------------------------
 .byte   W96
@  #04 @051   ----------------------------------------
 .byte   W96
@  #04 @052   ----------------------------------------
 .byte   EOT
 .byte   N96 ,Cn3
 .byte   W96
@  #04 @053   ----------------------------------------
 .byte   Ds3
 .byte   W96
@  #04 @054   ----------------------------------------
 .byte   Gs2
 .byte   W96
@  #04 @055   ----------------------------------------
 .byte   Bn2
 .byte   W96
@  #04 @056   ----------------------------------------
 .byte   Cn3
 .byte   W96
@  #04 @057   ----------------------------------------
 .byte   Ds3
 .byte   W96
@  #04 @058   ----------------------------------------
 .byte   Gs2
 .byte   W96
@  #04 @059   ----------------------------------------
 .byte   Bn2
 .byte   W96
@  #04 @060   ----------------------------------------
 .byte   Cn3
 .byte   W96
@  #04 @061   ----------------------------------------
 .byte   Ds3
 .byte   W96
@  #04 @062   ----------------------------------------
 .byte   Gs2
 .byte   W96
@  #04 @063   ----------------------------------------
 .byte   Bn2
 .byte   W96
@  #04 @064   ----------------------------------------
 .byte   Cn3
 .byte   W96
@  #04 @065   ----------------------------------------
 .byte   Ds3
 .byte   W96
@  #04 @066   ----------------------------------------
 .byte   Gs2
 .byte   W96
@  #04 @067   ----------------------------------------
 .byte   Bn2
 .byte   W96
@  #04 @068   ----------------------------------------
 .byte   W96
@  #04 @069   ----------------------------------------
 .byte   W96
@  #04 @070   ----------------------------------------
 .byte   W96
@  #04 @071   ----------------------------------------
 .byte   W96
@  #04 @072   ----------------------------------------
 .byte   W96
@  #04 @073   ----------------------------------------
 .byte   W96
@  #04 @074   ----------------------------------------
 .byte   W96
@  #04 @075   ----------------------------------------
 .byte   W96
@  #04 @076   ----------------------------------------
 .byte   W96
@  #04 @077   ----------------------------------------
 .byte   W96
@  #04 @078   ----------------------------------------
 .byte   W96
@  #04 @079   ----------------------------------------
 .byte   W96
@  #04 @080   ----------------------------------------
 .byte   W96
@  #04 @081   ----------------------------------------
 .byte   W96
@  #04 @082   ----------------------------------------
 .byte   W96
@  #04 @083   ----------------------------------------
 .byte   W96
@  #04 @084   ----------------------------------------
 .byte   W96
@  #04 @085   ----------------------------------------
 .byte   W96
@  #04 @086   ----------------------------------------
 .byte   W96
@  #04 @087   ----------------------------------------
 .byte   W96
@  #04 @088   ----------------------------------------
 .byte   W96
@  #04 @089   ----------------------------------------
 .byte   W96
@  #04 @090   ----------------------------------------
 .byte   W96
@  #04 @091   ----------------------------------------
 .byte   W96
@  #04 @092   ----------------------------------------
 .byte   W96
@  #04 @093   ----------------------------------------
 .byte   W96
@  #04 @094   ----------------------------------------
 .byte   W96
@  #04 @095   ----------------------------------------
 .byte   W96
@  #04 @096   ----------------------------------------
 .byte   W96
@  #04 @097   ----------------------------------------
 .byte   W96
@  #04 @098   ----------------------------------------
 .byte   W96
@  #04 @099   ----------------------------------------
 .byte   W96
@  #04 @100   ----------------------------------------
 .byte   W96
@  #04 @101   ----------------------------------------
 .byte   W96
@  #04 @102   ----------------------------------------
 .byte   W96
@  #04 @103   ----------------------------------------
 .byte   W96
@  #04 @104   ----------------------------------------
 .byte   W96
@  #04 @105   ----------------------------------------
 .byte   W96
@  #04 @106   ----------------------------------------
 .byte   W96
@  #04 @107   ----------------------------------------
 .byte   W96
@  #04 @108   ----------------------------------------
 .byte   GOTO
  .word Label_D402C6
@  #04 @109   ----------------------------------------
 .byte   W96
@  #04 @110   ----------------------------------------
 .byte   W96
@  #04 @111   ----------------------------------------
 .byte   W96
@  #04 @112   ----------------------------------------
 .byte   W96
@  #04 @113   ----------------------------------------
 .byte   W96
@  #04 @114   ----------------------------------------
 .byte   W96
@  #04 @115   ----------------------------------------
 .byte   W96
@  #04 @116   ----------------------------------------
 .byte   W96
@  #04 @117   ----------------------------------------
 .byte   W96
@  #04 @118   ----------------------------------------
 .byte   W96
@  #04 @119   ----------------------------------------
 .byte   W96
@  #04 @120   ----------------------------------------
 .byte   W96
@  #04 @121   ----------------------------------------
 .byte   W96
@  #04 @122   ----------------------------------------
 .byte   W96
@  #04 @123   ----------------------------------------
 .byte   W96
@  #04 @124   ----------------------------------------
 .byte   W96
@  #04 @125   ----------------------------------------
 .byte   TIE ,Cn2 ,v080
 .byte   W96
@  #04 @126   ----------------------------------------
 .byte   W96
@  #04 @127   ----------------------------------------
 .byte   W96
@  #04 @128   ----------------------------------------
 .byte   W96
@  #04 @129   ----------------------------------------
 .byte   W96
@  #04 @130   ----------------------------------------
 .byte   W96
@  #04 @131   ----------------------------------------
 .byte   W96
@  #04 @132   ----------------------------------------
 .byte   W96
@  #04 @133   ----------------------------------------
 .byte   EOT
 .byte   N96 ,Cn3
 .byte   W96
@  #04 @134   ----------------------------------------
 .byte   Ds3
 .byte   W96
@  #04 @135   ----------------------------------------
 .byte   Gs2
 .byte   W96
@  #04 @136   ----------------------------------------
 .byte   Bn2
 .byte   W96
@  #04 @137   ----------------------------------------
 .byte   Cn3
 .byte   W96
@  #04 @138   ----------------------------------------
 .byte   Ds3
 .byte   W96
@  #04 @139   ----------------------------------------
 .byte   Gs2
 .byte   W96
@  #04 @140   ----------------------------------------
 .byte   Bn2
 .byte   W96
@  #04 @141   ----------------------------------------
 .byte   Cn3
 .byte   W96
@  #04 @142   ----------------------------------------
 .byte   Ds3
 .byte   W96
@  #04 @143   ----------------------------------------
 .byte   Gs2
 .byte   W96
@  #04 @144   ----------------------------------------
 .byte   Bn2
 .byte   W96
@  #04 @145   ----------------------------------------
 .byte   Cn3
 .byte   W96
@  #04 @146   ----------------------------------------
 .byte   Ds3
 .byte   W96
@  #04 @147   ----------------------------------------
 .byte   Gs2
 .byte   W96
@  #04 @148   ----------------------------------------
 .byte   Bn2
 .byte   W96
@  #04 @149   ----------------------------------------
 .byte   W96
@  #04 @150   ----------------------------------------
 .byte   W96
@  #04 @151   ----------------------------------------
 .byte   W96
@  #04 @152   ----------------------------------------
 .byte   W96
@  #04 @153   ----------------------------------------
 .byte   W96
@  #04 @154   ----------------------------------------
 .byte   W96
@  #04 @155   ----------------------------------------
 .byte   W96
@  #04 @156   ----------------------------------------
 .byte   W96
@  #04 @157   ----------------------------------------
 .byte   W96
@  #04 @158   ----------------------------------------
 .byte   W96
@  #04 @159   ----------------------------------------
 .byte   W96
@  #04 @160   ----------------------------------------
 .byte   W96
@  #04 @161   ----------------------------------------
 .byte   W96
@  #04 @162   ----------------------------------------
 .byte   W96
@  #04 @163   ----------------------------------------
 .byte   W96
@  #04 @164   ----------------------------------------
 .byte   W96
 .byte   FINE

@**************** Track 5 (Midi-Chn.4) ****************@

InnocenceGlitched_005:
@  #05 @000   ----------------------------------------
 .byte   VOL , 52*InnocenceGlitched_mvl/mxv
 .byte   KEYSH , InnocenceGlitched_key+0
 .byte   VOICE , 81
 .byte   N12 ,Cn1 ,v080
 .byte   W12
 .byte   Ds1
 .byte   W12
 .byte   Cn2
 .byte   W12
 .byte   Ds2
 .byte   W12
 .byte   Gn2
 .byte   W12
 .byte   Cn3
 .byte   W12
 .byte   Gn2
 .byte   W12
 .byte   As2
 .byte   W12
@  #05 @001   ----------------------------------------
Label_D41410:
 .byte   N12 ,Ds1 ,v080
 .byte   W12
 .byte   Ds2
 .byte   W12
 .byte   Gn2
 .byte   W12
 .byte   As2
 .byte   W12
 .byte   Ds3
 .byte   W12
 .byte   Gn3
 .byte   W12
 .byte   Ds3
 .byte   W12
 .byte   As2
 .byte   W12
 .byte   PEND 
@  #05 @002   ----------------------------------------
Label_D41423:
 .byte   N12 ,Gs0 ,v080
 .byte   W12
 .byte   Ds1
 .byte   W12
 .byte   Gs1
 .byte   W12
 .byte   Cn2
 .byte   W12
 .byte   Gs2
 .byte   W12
 .byte   Cn3
 .byte   W12
 .byte   Gs2
 .byte   W12
 .byte   Ds2
 .byte   W12
 .byte   PEND 
@  #05 @003   ----------------------------------------
Label_D41436:
 .byte   N12 ,Bn0 ,v080
 .byte   W12
 .byte   Ds1
 .byte   W12
 .byte   Ds2
 .byte   W12
 .byte   Gs2
 .byte   W12
 .byte   Bn2
 .byte   W12
 .byte   Ds3
 .byte   W12
 .byte   Bn2
 .byte   W12
 .byte   Gs2
 .byte   W12
 .byte   PEND 
@  #05 @004   ----------------------------------------
Label_D41449:
 .byte   N12 ,Cn1 ,v080
 .byte   W12
 .byte   Ds1
 .byte   W12
 .byte   Cn2
 .byte   W12
 .byte   Ds2
 .byte   W12
 .byte   Gn2
 .byte   W12
 .byte   Cn3
 .byte   W12
 .byte   Gn2
 .byte   W12
 .byte   As2
 .byte   W12
 .byte   PEND 
@  #05 @005   ----------------------------------------
 .byte   PATT
  .word Label_D41410
@  #05 @006   ----------------------------------------
 .byte   PATT
  .word Label_D41423
@  #05 @007   ----------------------------------------
 .byte   PATT
  .word Label_D41436
@  #05 @008   ----------------------------------------
 .byte   PATT
  .word Label_D41449
@  #05 @009   ----------------------------------------
 .byte   PATT
  .word Label_D41410
@  #05 @010   ----------------------------------------
 .byte   PATT
  .word Label_D41423
@  #05 @011   ----------------------------------------
 .byte   PATT
  .word Label_D41436
@  #05 @012   ----------------------------------------
 .byte   PATT
  .word Label_D41449
@  #05 @013   ----------------------------------------
 .byte   PATT
  .word Label_D41410
@  #05 @014   ----------------------------------------
 .byte   PATT
  .word Label_D41423
@  #05 @015   ----------------------------------------
 .byte   PATT
  .word Label_D41436
@  #05 @016   ----------------------------------------
 .byte   PATT
  .word Label_D41449
@  #05 @017   ----------------------------------------
 .byte   PATT
  .word Label_D41410
@  #05 @018   ----------------------------------------
 .byte   PATT
  .word Label_D41423
@  #05 @019   ----------------------------------------
 .byte   PATT
  .word Label_D41436
@  #05 @020   ----------------------------------------
 .byte   PATT
  .word Label_D41449
@  #05 @021   ----------------------------------------
 .byte   PATT
  .word Label_D41410
@  #05 @022   ----------------------------------------
 .byte   PATT
  .word Label_D41423
@  #05 @023   ----------------------------------------
 .byte   PATT
  .word Label_D41436
@  #05 @024   ----------------------------------------
Label_D414BB:
 .byte   N12 ,Cn1 ,v080
 .byte   W12
 .byte   N12
 .byte   N12 ,Ds1
 .byte   W12
 .byte   Cn1
 .byte   N12 ,Cn2
 .byte   W12
 .byte   Cn1
 .byte   N12 ,Ds2
 .byte   W12
 .byte   Gn2
 .byte   W12
 .byte   Cn1
 .byte   N12 ,Cn3
 .byte   W12
 .byte   Cn1
 .byte   N12 ,Gn2
 .byte   W12
 .byte   Cn1
 .byte   N12 ,As2
 .byte   W12
 .byte   PEND 
@  #05 @025   ----------------------------------------
Label_D414DA:
 .byte   N12 ,Ds1 ,v080
 .byte   W12
 .byte   N12
 .byte   N12 ,Ds2
 .byte   W12
 .byte   Ds1
 .byte   N12 ,Gn2
 .byte   W12
 .byte   Ds1
 .byte   N12 ,As2
 .byte   W12
 .byte   Ds3
 .byte   W12
 .byte   Ds1
 .byte   N12 ,Gn3
 .byte   W12
 .byte   Ds1
 .byte   N12 ,Ds3
 .byte   W12
 .byte   Ds1
 .byte   N12 ,As2
 .byte   W12
 .byte   PEND 
@  #05 @026   ----------------------------------------
Label_D414F9:
 .byte   N12 ,Gs0 ,v080
 .byte   W12
 .byte   N12
 .byte   N12 ,Ds1
 .byte   W12
 .byte   Gs0
 .byte   N12 ,Gs1
 .byte   W12
 .byte   Gs0
 .byte   N12 ,Cn2
 .byte   W12
 .byte   Gs2
 .byte   W12
 .byte   Gs0
 .byte   N12 ,Cn3
 .byte   W12
 .byte   Gs0
 .byte   N12 ,Gs2
 .byte   W12
 .byte   Gs0
 .byte   N12 ,Ds2
 .byte   W12
 .byte   PEND 
@  #05 @027   ----------------------------------------
Label_D41518:
 .byte   N12 ,Bn0 ,v080
 .byte   W12
 .byte   N12
 .byte   N12 ,Ds1
 .byte   W12
 .byte   Bn0
 .byte   N12 ,Ds2
 .byte   W12
 .byte   Bn0
 .byte   N12 ,Gs2
 .byte   W12
 .byte   Bn2
 .byte   W12
 .byte   Bn0
 .byte   N12 ,Ds3
 .byte   W12
 .byte   Bn0
 .byte   N12 ,Bn2
 .byte   W12
 .byte   Bn0
 .byte   N12 ,Gs2
 .byte   W12
 .byte   PEND 
@  #05 @028   ----------------------------------------
Label_D41537:
@  #05 @029   ----------------------------------------
 .byte   PATT
  .word Label_D41449
@  #05 @030   ----------------------------------------
 .byte   PATT
  .word Label_D41410
@  #05 @031   ----------------------------------------
 .byte   PATT
  .word Label_D41423
@  #05 @032   ----------------------------------------
 .byte   PATT
  .word Label_D41436
@  #05 @033   ----------------------------------------
 .byte   PATT
  .word Label_D41449
@  #05 @034   ----------------------------------------
 .byte   PATT
  .word Label_D41410
@  #05 @035   ----------------------------------------
 .byte   PATT
  .word Label_D41423
@  #05 @036   ----------------------------------------
 .byte   PATT
  .word Label_D41436
@  #05 @037   ----------------------------------------
 .byte   PATT
  .word Label_D41449
@  #05 @038   ----------------------------------------
 .byte   PATT
  .word Label_D41410
@  #05 @039   ----------------------------------------
 .byte   PATT
  .word Label_D41423
@  #05 @040   ----------------------------------------
 .byte   PATT
  .word Label_D41436
@  #05 @041   ----------------------------------------
 .byte   PATT
  .word Label_D41449
@  #05 @042   ----------------------------------------
 .byte   PATT
  .word Label_D41410
@  #05 @043   ----------------------------------------
 .byte   PATT
  .word Label_D41423
@  #05 @044   ----------------------------------------
 .byte   PATT
  .word Label_D41436
@  #05 @045   ----------------------------------------
 .byte   W96
@  #05 @046   ----------------------------------------
 .byte   W96
@  #05 @047   ----------------------------------------
 .byte   W96
@  #05 @048   ----------------------------------------
 .byte   W96
@  #05 @049   ----------------------------------------
 .byte   W96
@  #05 @050   ----------------------------------------
 .byte   W96
@  #05 @051   ----------------------------------------
 .byte   W96
@  #05 @052   ----------------------------------------
 .byte   W96
@  #05 @053   ----------------------------------------
 .byte   PATT
  .word Label_D41449
@  #05 @054   ----------------------------------------
 .byte   PATT
  .word Label_D41410
@  #05 @055   ----------------------------------------
 .byte   PATT
  .word Label_D41423
@  #05 @056   ----------------------------------------
 .byte   PATT
  .word Label_D41436
@  #05 @057   ----------------------------------------
 .byte   PATT
  .word Label_D41449
@  #05 @058   ----------------------------------------
 .byte   PATT
  .word Label_D41410
@  #05 @059   ----------------------------------------
 .byte   PATT
  .word Label_D41423
@  #05 @060   ----------------------------------------
 .byte   PATT
  .word Label_D41436
@  #05 @061   ----------------------------------------
 .byte   PATT
  .word Label_D41449
@  #05 @062   ----------------------------------------
 .byte   PATT
  .word Label_D41410
@  #05 @063   ----------------------------------------
 .byte   PATT
  .word Label_D41423
@  #05 @064   ----------------------------------------
 .byte   PATT
  .word Label_D41436
@  #05 @065   ----------------------------------------
 .byte   PATT
  .word Label_D41449
@  #05 @066   ----------------------------------------
 .byte   PATT
  .word Label_D41410
@  #05 @067   ----------------------------------------
 .byte   PATT
  .word Label_D41423
@  #05 @068   ----------------------------------------
 .byte   PATT
  .word Label_D41436
@  #05 @069   ----------------------------------------
 .byte   PATT
  .word Label_D41449
@  #05 @070   ----------------------------------------
 .byte   PATT
  .word Label_D41410
@  #05 @071   ----------------------------------------
 .byte   PATT
  .word Label_D41423
@  #05 @072   ----------------------------------------
 .byte   PATT
  .word Label_D41436
@  #05 @073   ----------------------------------------
 .byte   PATT
  .word Label_D41449
@  #05 @074   ----------------------------------------
 .byte   PATT
  .word Label_D41410
@  #05 @075   ----------------------------------------
 .byte   PATT
  .word Label_D41423
@  #05 @076   ----------------------------------------
 .byte   PATT
  .word Label_D41436
@  #05 @077   ----------------------------------------
 .byte   PATT
  .word Label_D41449
@  #05 @078   ----------------------------------------
 .byte   PATT
  .word Label_D41410
@  #05 @079   ----------------------------------------
 .byte   PATT
  .word Label_D41423
@  #05 @080   ----------------------------------------
 .byte   PATT
  .word Label_D41436
@  #05 @081   ----------------------------------------
 .byte   PATT
  .word Label_D41449
@  #05 @082   ----------------------------------------
 .byte   PATT
  .word Label_D41410
@  #05 @083   ----------------------------------------
 .byte   PATT
  .word Label_D41423
@  #05 @084   ----------------------------------------
 .byte   PATT
  .word Label_D41436
@  #05 @085   ----------------------------------------
 .byte   PATT
  .word Label_D41449
@  #05 @086   ----------------------------------------
 .byte   PATT
  .word Label_D41410
@  #05 @087   ----------------------------------------
 .byte   PATT
  .word Label_D41423
@  #05 @088   ----------------------------------------
 .byte   PATT
  .word Label_D41436
@  #05 @089   ----------------------------------------
 .byte   PATT
  .word Label_D41449
@  #05 @090   ----------------------------------------
 .byte   PATT
  .word Label_D41410
@  #05 @091   ----------------------------------------
 .byte   PATT
  .word Label_D41423
@  #05 @092   ----------------------------------------
 .byte   PATT
  .word Label_D41436
@  #05 @093   ----------------------------------------
 .byte   PATT
  .word Label_D41449
@  #05 @094   ----------------------------------------
 .byte   PATT
  .word Label_D41410
@  #05 @095   ----------------------------------------
 .byte   PATT
  .word Label_D41423
@  #05 @096   ----------------------------------------
 .byte   PATT
  .word Label_D41436
@  #05 @097   ----------------------------------------
 .byte   PATT
  .word Label_D41449
@  #05 @098   ----------------------------------------
 .byte   PATT
  .word Label_D41410
@  #05 @099   ----------------------------------------
 .byte   PATT
  .word Label_D41423
@  #05 @100   ----------------------------------------
 .byte   PATT
  .word Label_D41436
@  #05 @101   ----------------------------------------
 .byte   PATT
  .word Label_D41449
@  #05 @102   ----------------------------------------
 .byte   PATT
  .word Label_D41410
@  #05 @103   ----------------------------------------
 .byte   PATT
  .word Label_D41423
@  #05 @104   ----------------------------------------
 .byte   PATT
  .word Label_D41436
@  #05 @105   ----------------------------------------
 .byte   PATT
  .word Label_D414BB
@  #05 @106   ----------------------------------------
 .byte   PATT
  .word Label_D414DA
@  #05 @107   ----------------------------------------
 .byte   PATT
  .word Label_D414F9
@  #05 @108   ----------------------------------------
 .byte   PATT
  .word Label_D41518
@  #05 @109   ----------------------------------------
 .byte   GOTO
  .word Label_D41537
@  #05 @110   ----------------------------------------
 .byte   PATT
  .word Label_D41449
@  #05 @111   ----------------------------------------
 .byte   PATT
  .word Label_D41410
@  #05 @112   ----------------------------------------
 .byte   PATT
  .word Label_D41423
@  #05 @113   ----------------------------------------
 .byte   PATT
  .word Label_D41436
@  #05 @114   ----------------------------------------
 .byte   PATT
  .word Label_D41449
@  #05 @115   ----------------------------------------
 .byte   PATT
  .word Label_D41410
@  #05 @116   ----------------------------------------
 .byte   PATT
  .word Label_D41423
@  #05 @117   ----------------------------------------
 .byte   PATT
  .word Label_D41436
@  #05 @118   ----------------------------------------
 .byte   PATT
  .word Label_D41449
@  #05 @119   ----------------------------------------
 .byte   PATT
  .word Label_D41410
@  #05 @120   ----------------------------------------
 .byte   PATT
  .word Label_D41423
@  #05 @121   ----------------------------------------
 .byte   PATT
  .word Label_D41436
@  #05 @122   ----------------------------------------
 .byte   PATT
  .word Label_D41449
@  #05 @123   ----------------------------------------
 .byte   PATT
  .word Label_D41410
@  #05 @124   ----------------------------------------
 .byte   PATT
  .word Label_D41423
@  #05 @125   ----------------------------------------
 .byte   PATT
  .word Label_D41436
@  #05 @126   ----------------------------------------
 .byte   W96
@  #05 @127   ----------------------------------------
 .byte   W96
@  #05 @128   ----------------------------------------
 .byte   W96
@  #05 @129   ----------------------------------------
 .byte   W96
@  #05 @130   ----------------------------------------
 .byte   W96
@  #05 @131   ----------------------------------------
 .byte   W96
@  #05 @132   ----------------------------------------
 .byte   W96
@  #05 @133   ----------------------------------------
 .byte   W96
@  #05 @134   ----------------------------------------
 .byte   PATT
  .word Label_D41449
@  #05 @135   ----------------------------------------
 .byte   PATT
  .word Label_D41410
@  #05 @136   ----------------------------------------
 .byte   PATT
  .word Label_D41423
@  #05 @137   ----------------------------------------
 .byte   PATT
  .word Label_D41436
@  #05 @138   ----------------------------------------
 .byte   PATT
  .word Label_D41449
@  #05 @139   ----------------------------------------
 .byte   PATT
  .word Label_D41410
@  #05 @140   ----------------------------------------
 .byte   PATT
  .word Label_D41423
@  #05 @141   ----------------------------------------
 .byte   PATT
  .word Label_D41436
@  #05 @142   ----------------------------------------
 .byte   PATT
  .word Label_D41449
@  #05 @143   ----------------------------------------
 .byte   PATT
  .word Label_D41410
@  #05 @144   ----------------------------------------
 .byte   PATT
  .word Label_D41423
@  #05 @145   ----------------------------------------
 .byte   PATT
  .word Label_D41436
@  #05 @146   ----------------------------------------
 .byte   PATT
  .word Label_D41449
@  #05 @147   ----------------------------------------
 .byte   PATT
  .word Label_D41410
@  #05 @148   ----------------------------------------
 .byte   PATT
  .word Label_D41423
@  #05 @149   ----------------------------------------
 .byte   PATT
  .word Label_D41436
@  #05 @150   ----------------------------------------
 .byte   PATT
  .word Label_D41449
@  #05 @151   ----------------------------------------
 .byte   PATT
  .word Label_D41410
@  #05 @152   ----------------------------------------
 .byte   PATT
  .word Label_D41423
@  #05 @153   ----------------------------------------
 .byte   PATT
  .word Label_D41436
@  #05 @154   ----------------------------------------
 .byte   PATT
  .word Label_D41449
@  #05 @155   ----------------------------------------
 .byte   PATT
  .word Label_D41410
@  #05 @156   ----------------------------------------
 .byte   PATT
  .word Label_D41423
@  #05 @157   ----------------------------------------
 .byte   PATT
  .word Label_D41436
@  #05 @158   ----------------------------------------
 .byte   PATT
  .word Label_D41449
@  #05 @159   ----------------------------------------
 .byte   PATT
  .word Label_D41410
@  #05 @160   ----------------------------------------
 .byte   PATT
  .word Label_D41423
@  #05 @161   ----------------------------------------
 .byte   PATT
  .word Label_D41436
@  #05 @162   ----------------------------------------
 .byte   PATT
  .word Label_D41449
@  #05 @163   ----------------------------------------
 .byte   PATT
  .word Label_D41410
@  #05 @164   ----------------------------------------
 .byte   PATT
  .word Label_D41423
@  #05 @165   ----------------------------------------
 .byte   PATT
  .word Label_D41436
 .byte   FINE

@**************** Track 6 (Midi-Chn.5) ****************@

InnocenceGlitched_006:
@  #06 @000   ----------------------------------------
 .byte   VOL , 52*InnocenceGlitched_mvl/mxv
 .byte   KEYSH , InnocenceGlitched_key+0
 .byte   VOICE , 11
 .byte   W96
@  #06 @001   ----------------------------------------
 .byte   W96
@  #06 @002   ----------------------------------------
 .byte   W96
@  #06 @003   ----------------------------------------
 .byte   W96
@  #06 @004   ----------------------------------------
 .byte   W96
@  #06 @005   ----------------------------------------
 .byte   W96
@  #06 @006   ----------------------------------------
 .byte   W96
@  #06 @007   ----------------------------------------
 .byte   W96
@  #06 @008   ----------------------------------------
 .byte   W96
@  #06 @009   ----------------------------------------
 .byte   W96
@  #06 @010   ----------------------------------------
 .byte   W96
@  #06 @011   ----------------------------------------
 .byte   W96
@  #06 @012   ----------------------------------------
 .byte   W96
@  #06 @013   ----------------------------------------
 .byte   W96
@  #06 @014   ----------------------------------------
 .byte   W96
@  #06 @015   ----------------------------------------
 .byte   W96
@  #06 @016   ----------------------------------------
 .byte   W96
@  #06 @017   ----------------------------------------
 .byte   W96
@  #06 @018   ----------------------------------------
 .byte   W96
@  #06 @019   ----------------------------------------
 .byte   W96
@  #06 @020   ----------------------------------------
Label_0100001A:
 .byte   N24 ,Cn5 ,v080
 .byte   W24
 .byte   N72 ,Fn5
 .byte   W72
 .byte   PEND 
@  #06 @021   ----------------------------------------
Label_01000022:
 .byte   N24 ,As5 ,v080
 .byte   W24
 .byte   N72 ,Ds5
 .byte   W72
 .byte   PEND 
@  #06 @022   ----------------------------------------
Label_0100002A:
 .byte   N24 ,Gn5 ,v080
 .byte   W24
 .byte   N72 ,Cn5
 .byte   W72
 .byte   PEND 
@  #06 @023   ----------------------------------------
Label_01000032:
 .byte   N24 ,Ds5 ,v080
 .byte   W24
 .byte   N72 ,Bn4
 .byte   W72
 .byte   PEND 
@  #06 @024   ----------------------------------------
Label_0100003A:
 .byte   N24 ,Cn5 ,v080
 .byte   W24
 .byte   N72 ,Gn5
 .byte   W72
 .byte   PEND 
@  #06 @025   ----------------------------------------
 .byte   PATT
  .word Label_01000022
@  #06 @026   ----------------------------------------
 .byte   PATT
  .word Label_0100002A
@  #06 @027   ----------------------------------------
 .byte   PATT
  .word Label_01000032
@  #06 @028   ----------------------------------------
Label_01000051:
 .byte   W96
@  #06 @029   ----------------------------------------
 .byte   W96
@  #06 @030   ----------------------------------------
 .byte   W96
@  #06 @031   ----------------------------------------
 .byte   W96
@  #06 @032   ----------------------------------------
 .byte   W96
@  #06 @033   ----------------------------------------
 .byte   W96
@  #06 @034   ----------------------------------------
 .byte   W96
@  #06 @035   ----------------------------------------
 .byte   W96
@  #06 @036   ----------------------------------------
 .byte   W96
@  #06 @037   ----------------------------------------
 .byte   W96
@  #06 @038   ----------------------------------------
 .byte   W96
@  #06 @039   ----------------------------------------
 .byte   W96
@  #06 @040   ----------------------------------------
 .byte   W96
@  #06 @041   ----------------------------------------
 .byte   W96
@  #06 @042   ----------------------------------------
 .byte   W96
@  #06 @043   ----------------------------------------
 .byte   W96
@  #06 @044   ----------------------------------------
 .byte   W96
@  #06 @045   ----------------------------------------
 .byte   W96
@  #06 @046   ----------------------------------------
 .byte   W96
@  #06 @047   ----------------------------------------
 .byte   W96
@  #06 @048   ----------------------------------------
 .byte   W96
@  #06 @049   ----------------------------------------
 .byte   W96
@  #06 @050   ----------------------------------------
 .byte   W96
@  #06 @051   ----------------------------------------
 .byte   W72
 .byte   N24 ,Cn4 ,v080
 .byte   W24
@  #06 @052   ----------------------------------------
 .byte   N72 ,Gn4
 .byte   W96
@  #06 @053   ----------------------------------------
Label_01000070:
 .byte   W48
 .byte   N18 ,Gn4 ,v080
 .byte   W18
 .byte   Ds5
 .byte   W18
 .byte   N12 ,Gn4
 .byte   W12
 .byte   PEND 
@  #06 @054   ----------------------------------------
Label_0100007B:
 .byte   N18 ,Ds4 ,v080
 .byte   W18
 .byte   Gn4
 .byte   W18
 .byte   N12 ,Ds4
 .byte   W12
 .byte   N48 ,As3
 .byte   W48
 .byte   PEND 
@  #06 @055   ----------------------------------------
 .byte   W48
 .byte   Bn3
 .byte   W48
@  #06 @056   ----------------------------------------
Label_0100008B:
 .byte   N36 ,Cn4 ,v080
 .byte   W36
 .byte   N12 ,Dn4
 .byte   W12
 .byte   N36 ,Cn4
 .byte   W36
 .byte   N12 ,Dn4
 .byte   W12
 .byte   PEND 
@  #06 @057   ----------------------------------------
Label_01000099:
 .byte   N84 ,Ds4 ,v080
 .byte   W84
 .byte   N12 ,Dn4
 .byte   W12
 .byte   PEND 
@  #06 @058   ----------------------------------------
Label_010000A1:
 .byte   N12 ,Cn4 ,v080
 .byte   W60
 .byte   N24 ,Gs4
 .byte   W24
 .byte   N12 ,Gn4
 .byte   W12
 .byte   PEND 
@  #06 @059   ----------------------------------------
Label_010000AC:
 .byte   N18 ,Ds4 ,v080
 .byte   W18
 .byte   Fn4
 .byte   W18
 .byte   N12 ,Gn4
 .byte   W12
 .byte   N18 ,Bn4
 .byte   W18
 .byte   Cs5
 .byte   W18
 .byte   N12 ,Ds5
 .byte   W12
 .byte   PEND 
@  #06 @060   ----------------------------------------
Label_010000BE:
 .byte   N48 ,Cn4 ,v080
 .byte   W48
 .byte   N24 ,Fn4
 .byte   W24
 .byte   Cn4
 .byte   W24
 .byte   PEND 
@  #06 @061   ----------------------------------------
Label_010000C8:
 .byte   N48 ,Ds4 ,v080
 .byte   W48
 .byte   N24 ,Fn4
 .byte   W24
 .byte   Cn4
 .byte   W24
 .byte   PEND 
@  #06 @062   ----------------------------------------
 .byte   PATT
  .word Label_010000C8
@  #06 @063   ----------------------------------------
Label_010000D7:
 .byte   N48 ,Bn3 ,v080
 .byte   W48
 .byte   N24 ,Fn4
 .byte   W24
 .byte   Cn4
 .byte   W24
 .byte   PEND 
@  #06 @064   ----------------------------------------
 .byte   PATT
  .word Label_010000C8
@  #06 @065   ----------------------------------------
 .byte   PATT
  .word Label_010000C8
@  #06 @066   ----------------------------------------
 .byte   PATT
  .word Label_010000C8
@  #06 @067   ----------------------------------------
Label_010000F0:
 .byte   N24 ,Bn3 ,v080
 .byte   W24
 .byte   N12
 .byte   W12
 .byte   N12
 .byte   W60
 .byte   PEND 
@  #06 @068   ----------------------------------------
 .byte   W96
@  #06 @069   ----------------------------------------
 .byte   W96
@  #06 @070   ----------------------------------------
 .byte   W96
@  #06 @071   ----------------------------------------
 .byte   W96
@  #06 @072   ----------------------------------------
 .byte   W96
@  #06 @073   ----------------------------------------
 .byte   W96
@  #06 @074   ----------------------------------------
 .byte   W96
@  #06 @075   ----------------------------------------
 .byte   W96
@  #06 @076   ----------------------------------------
 .byte   W96
@  #06 @077   ----------------------------------------
 .byte   W96
@  #06 @078   ----------------------------------------
 .byte   W96
@  #06 @079   ----------------------------------------
 .byte   W96
@  #06 @080   ----------------------------------------
 .byte   W96
@  #06 @081   ----------------------------------------
 .byte   W96
@  #06 @082   ----------------------------------------
 .byte   W96
@  #06 @083   ----------------------------------------
 .byte   W96
@  #06 @084   ----------------------------------------
 .byte   W96
@  #06 @085   ----------------------------------------
 .byte   W96
@  #06 @086   ----------------------------------------
 .byte   W96
@  #06 @087   ----------------------------------------
 .byte   W96
@  #06 @088   ----------------------------------------
 .byte   W96
@  #06 @089   ----------------------------------------
 .byte   W96
@  #06 @090   ----------------------------------------
 .byte   W96
@  #06 @091   ----------------------------------------
 .byte   W96
@  #06 @092   ----------------------------------------
 .byte   W96
@  #06 @093   ----------------------------------------
 .byte   W96
@  #06 @094   ----------------------------------------
 .byte   W96
@  #06 @095   ----------------------------------------
 .byte   W96
@  #06 @096   ----------------------------------------
 .byte   W96
@  #06 @097   ----------------------------------------
 .byte   W96
@  #06 @098   ----------------------------------------
 .byte   W96
@  #06 @099   ----------------------------------------
 .byte   W96
@  #06 @100   ----------------------------------------
 .byte   PATT
  .word Label_0100001A
@  #06 @101   ----------------------------------------
 .byte   PATT
  .word Label_01000022
@  #06 @102   ----------------------------------------
 .byte   PATT
  .word Label_0100002A
@  #06 @103   ----------------------------------------
 .byte   PATT
  .word Label_01000032
@  #06 @104   ----------------------------------------
 .byte   PATT
  .word Label_0100003A
@  #06 @105   ----------------------------------------
 .byte   PATT
  .word Label_01000022
@  #06 @106   ----------------------------------------
 .byte   PATT
  .word Label_0100002A
@  #06 @107   ----------------------------------------
 .byte   PATT
  .word Label_01000032
@  #06 @108   ----------------------------------------
 .byte   GOTO
  .word Label_01000051
@  #06 @109   ----------------------------------------
 .byte   W96
@  #06 @110   ----------------------------------------
 .byte   W96
@  #06 @111   ----------------------------------------
 .byte   W96
@  #06 @112   ----------------------------------------
 .byte   W96
@  #06 @113   ----------------------------------------
 .byte   W96
@  #06 @114   ----------------------------------------
 .byte   W96
@  #06 @115   ----------------------------------------
 .byte   W96
@  #06 @116   ----------------------------------------
 .byte   W96
@  #06 @117   ----------------------------------------
 .byte   W96
@  #06 @118   ----------------------------------------
 .byte   W96
@  #06 @119   ----------------------------------------
 .byte   W96
@  #06 @120   ----------------------------------------
 .byte   W96
@  #06 @121   ----------------------------------------
 .byte   W96
@  #06 @122   ----------------------------------------
 .byte   W96
@  #06 @123   ----------------------------------------
 .byte   W96
@  #06 @124   ----------------------------------------
 .byte   W96
@  #06 @125   ----------------------------------------
 .byte   W96
@  #06 @126   ----------------------------------------
 .byte   W96
@  #06 @127   ----------------------------------------
 .byte   W96
@  #06 @128   ----------------------------------------
 .byte   W96
@  #06 @129   ----------------------------------------
 .byte   W96
@  #06 @130   ----------------------------------------
 .byte   W96
@  #06 @131   ----------------------------------------
 .byte   W96
@  #06 @132   ----------------------------------------
 .byte   W72
 .byte   N24 ,Cn4 ,v080
 .byte   W24
@  #06 @133   ----------------------------------------
 .byte   N72 ,Gn4
 .byte   W96
@  #06 @134   ----------------------------------------
 .byte   PATT
  .word Label_01000070
@  #06 @135   ----------------------------------------
 .byte   PATT
  .word Label_0100007B
@  #06 @136   ----------------------------------------
 .byte   W48
 .byte   N48 ,Bn3 ,v080
 .byte   W48
@  #06 @137   ----------------------------------------
 .byte   PATT
  .word Label_0100008B
@  #06 @138   ----------------------------------------
 .byte   PATT
  .word Label_01000099
@  #06 @139   ----------------------------------------
 .byte   PATT
  .word Label_010000A1
@  #06 @140   ----------------------------------------
 .byte   PATT
  .word Label_010000AC
@  #06 @141   ----------------------------------------
 .byte   PATT
  .word Label_010000BE
@  #06 @142   ----------------------------------------
 .byte   PATT
  .word Label_010000C8
@  #06 @143   ----------------------------------------
 .byte   PATT
  .word Label_010000C8
@  #06 @144   ----------------------------------------
 .byte   PATT
  .word Label_010000D7
@  #06 @145   ----------------------------------------
 .byte   PATT
  .word Label_010000C8
@  #06 @146   ----------------------------------------
 .byte   PATT
  .word Label_010000C8
@  #06 @147   ----------------------------------------
 .byte   PATT
  .word Label_010000C8
@  #06 @148   ----------------------------------------
 .byte   PATT
  .word Label_010000F0
@  #06 @149   ----------------------------------------
 .byte   W96
@  #06 @150   ----------------------------------------
 .byte   W96
@  #06 @151   ----------------------------------------
 .byte   W96
@  #06 @152   ----------------------------------------
 .byte   W96
@  #06 @153   ----------------------------------------
 .byte   W96
@  #06 @154   ----------------------------------------
 .byte   W96
@  #06 @155   ----------------------------------------
 .byte   W96
@  #06 @156   ----------------------------------------
 .byte   W96
@  #06 @157   ----------------------------------------
 .byte   W96
@  #06 @158   ----------------------------------------
 .byte   W96
@  #06 @159   ----------------------------------------
 .byte   W96
@  #06 @160   ----------------------------------------
 .byte   W96
@  #06 @161   ----------------------------------------
 .byte   W96
@  #06 @162   ----------------------------------------
 .byte   W96
@  #06 @163   ----------------------------------------
 .byte   W96
@  #06 @164   ----------------------------------------
 .byte   W96
 .byte   FINE

@**************** Track 7 (Midi-Chn.6) ****************@

InnocenceGlitched_007:
@  #07 @000   ----------------------------------------
 .byte   VOL , 52*InnocenceGlitched_mvl/mxv
 .byte   KEYSH , InnocenceGlitched_key+0
 .byte   VOICE , 30
 .byte   W96
@  #07 @001   ----------------------------------------
 .byte   W96
@  #07 @002   ----------------------------------------
 .byte   W96
@  #07 @003   ----------------------------------------
 .byte   W96
@  #07 @004   ----------------------------------------
 .byte   W96
@  #07 @005   ----------------------------------------
 .byte   W96
@  #07 @006   ----------------------------------------
 .byte   W96
@  #07 @007   ----------------------------------------
 .byte   W96
@  #07 @008   ----------------------------------------
 .byte   W96
@  #07 @009   ----------------------------------------
 .byte   W96
@  #07 @010   ----------------------------------------
 .byte   W96
@  #07 @011   ----------------------------------------
 .byte   W96
@  #07 @012   ----------------------------------------
 .byte   W96
@  #07 @013   ----------------------------------------
 .byte   W96
@  #07 @014   ----------------------------------------
 .byte   W96
@  #07 @015   ----------------------------------------
 .byte   W96
@  #07 @016   ----------------------------------------
 .byte   W96
@  #07 @017   ----------------------------------------
 .byte   W96
@  #07 @018   ----------------------------------------
 .byte   W96
@  #07 @019   ----------------------------------------
 .byte   W96
@  #07 @020   ----------------------------------------
 .byte   W96
@  #07 @021   ----------------------------------------
 .byte   W96
@  #07 @022   ----------------------------------------
 .byte   W96
@  #07 @023   ----------------------------------------
 .byte   W96
@  #07 @024   ----------------------------------------
 .byte   W96
@  #07 @025   ----------------------------------------
 .byte   W96
@  #07 @026   ----------------------------------------
 .byte   W96
@  #07 @027   ----------------------------------------
 .byte   W72
 .byte   N24 ,Cn4 ,v080
 .byte   W24
@  #07 @028   ----------------------------------------
Label_010001EA:
 .byte   N48 ,Gn4 ,v080
 .byte   W48
 .byte   N12
 .byte   W12
 .byte   Gs4
 .byte   W12
 .byte   N24 ,Gn4
 .byte   W24
 .byte   PEND 
@  #07 @029   ----------------------------------------
Label_010001F6:
 .byte   N12 ,Fn4 ,v080
 .byte   W12
 .byte   Gn4
 .byte   W12
 .byte   N24 ,Fn4
 .byte   W24
 .byte   N12 ,Ds4
 .byte   W12
 .byte   Fn4
 .byte   W12
 .byte   N24 ,Ds4
 .byte   W24
 .byte   PEND 
@  #07 @030   ----------------------------------------
Label_01000208:
 .byte   N48 ,Cn4 ,v080
 .byte   W48
 .byte   Cn5
 .byte   W48
 .byte   PEND 
@  #07 @031   ----------------------------------------
Label_0100020F:
 .byte   N12 ,Bn4 ,v080
 .byte   W12
 .byte   Cn5
 .byte   W12
 .byte   N24 ,Bn4
 .byte   W24
 .byte   N48 ,Gn4
 .byte   W48
 .byte   PEND 
@  #07 @032   ----------------------------------------
 .byte   PATT
  .word Label_010001EA
@  #07 @033   ----------------------------------------
 .byte   PATT
  .word Label_010001F6
@  #07 @034   ----------------------------------------
 .byte   PATT
  .word Label_01000208
@  #07 @035   ----------------------------------------
Label_0100022B:
 .byte   N12 ,Bn4 ,v080
 .byte   W12
 .byte   Cn5
 .byte   W12
 .byte   N24 ,Ds5
 .byte   W24
 .byte   N48 ,Fn5
 .byte   W48
 .byte   PEND 
@  #07 @036   ----------------------------------------
 .byte   PATT
  .word Label_010001EA
@  #07 @037   ----------------------------------------
 .byte   PATT
  .word Label_010001F6
@  #07 @038   ----------------------------------------
 .byte   PATT
  .word Label_01000208
@  #07 @039   ----------------------------------------
 .byte   PATT
  .word Label_0100020F
@  #07 @040   ----------------------------------------
 .byte   PATT
  .word Label_010001EA
@  #07 @041   ----------------------------------------
 .byte   PATT
  .word Label_010001F6
@  #07 @042   ----------------------------------------
 .byte   PATT
  .word Label_01000208
@  #07 @043   ----------------------------------------
 .byte   PATT
  .word Label_0100022B
@  #07 @044   ----------------------------------------
 .byte   W96
@  #07 @045   ----------------------------------------
 .byte   W96
@  #07 @046   ----------------------------------------
 .byte   W96
@  #07 @047   ----------------------------------------
 .byte   W96
@  #07 @048   ----------------------------------------
 .byte   W96
@  #07 @049   ----------------------------------------
 .byte   W96
@  #07 @050   ----------------------------------------
 .byte   W96
@  #07 @051   ----------------------------------------
 .byte   W96
@  #07 @052   ----------------------------------------
 .byte   W96
@  #07 @053   ----------------------------------------
 .byte   W96
@  #07 @054   ----------------------------------------
 .byte   W96
@  #07 @055   ----------------------------------------
 .byte   W96
@  #07 @056   ----------------------------------------
 .byte   W96
@  #07 @057   ----------------------------------------
 .byte   W96
@  #07 @058   ----------------------------------------
 .byte   W96
@  #07 @059   ----------------------------------------
 .byte   W96
@  #07 @060   ----------------------------------------
 .byte   W96
@  #07 @061   ----------------------------------------
 .byte   W96
@  #07 @062   ----------------------------------------
 .byte   W96
@  #07 @063   ----------------------------------------
 .byte   W96
@  #07 @064   ----------------------------------------
 .byte   W96
@  #07 @065   ----------------------------------------
 .byte   W96
@  #07 @066   ----------------------------------------
 .byte   W96
@  #07 @067   ----------------------------------------
 .byte   W72
 .byte   N24 ,Cn4 ,v080
 .byte   W24
@  #07 @068   ----------------------------------------
 .byte   PATT
  .word Label_010001EA
@  #07 @069   ----------------------------------------
 .byte   PATT
  .word Label_010001F6
@  #07 @070   ----------------------------------------
 .byte   PATT
  .word Label_01000208
@  #07 @071   ----------------------------------------
 .byte   PATT
  .word Label_0100020F
@  #07 @072   ----------------------------------------
 .byte   PATT
  .word Label_010001EA
@  #07 @073   ----------------------------------------
 .byte   PATT
  .word Label_010001F6
@  #07 @074   ----------------------------------------
 .byte   PATT
  .word Label_01000208
@  #07 @075   ----------------------------------------
 .byte   PATT
  .word Label_0100022B
@  #07 @076   ----------------------------------------
Label_010002A4:
 .byte   N24 ,Gn4 ,v080
 .byte   W24
 .byte   N24
 .byte   W24
 .byte   N24
 .byte   W24
 .byte   N24
 .byte   W24
 .byte   PEND 
@  #07 @077   ----------------------------------------
Label_010002AF:
 .byte   N24 ,Fs4 ,v080
 .byte   W24
 .byte   N24
 .byte   W24
 .byte   Ds4
 .byte   W24
 .byte   N24
 .byte   W24
 .byte   PEND 
@  #07 @078   ----------------------------------------
Label_010002BA:
 .byte   N24 ,Cn4 ,v080
 .byte   W24
 .byte   N24
 .byte   W24
 .byte   N24
 .byte   W24
 .byte   N24
 .byte   W24
 .byte   PEND 
@  #07 @079   ----------------------------------------
Label_010002C5:
 .byte   N24 ,Bn3 ,v080
 .byte   W24
 .byte   N24
 .byte   W24
 .byte   Gn3
 .byte   W24
 .byte   N24
 .byte   W24
 .byte   PEND 
@  #07 @080   ----------------------------------------
 .byte   PATT
  .word Label_010002A4
@  #07 @081   ----------------------------------------
Label_010002D5:
 .byte   N36 ,Fs4 ,v080
 .byte   W36
 .byte   N12 ,Cn5
 .byte   W12
 .byte   N24 ,Fs4
 .byte   W24
 .byte   Ds4
 .byte   W24
 .byte   PEND 
@  #07 @082   ----------------------------------------
 .byte   PATT
  .word Label_010002BA
@  #07 @083   ----------------------------------------
 .byte   PATT
  .word Label_010002C5
@  #07 @084   ----------------------------------------
 .byte   W96
@  #07 @085   ----------------------------------------
 .byte   W96
@  #07 @086   ----------------------------------------
 .byte   W96
@  #07 @087   ----------------------------------------
 .byte   W96
@  #07 @088   ----------------------------------------
 .byte   W96
@  #07 @089   ----------------------------------------
 .byte   W96
@  #07 @090   ----------------------------------------
 .byte   W96
@  #07 @091   ----------------------------------------
 .byte   W96
@  #07 @092   ----------------------------------------
 .byte   W96
@  #07 @093   ----------------------------------------
 .byte   W96
@  #07 @094   ----------------------------------------
 .byte   W96
@  #07 @095   ----------------------------------------
 .byte   W96
@  #07 @096   ----------------------------------------
 .byte   W96
@  #07 @097   ----------------------------------------
 .byte   W96
@  #07 @098   ----------------------------------------
 .byte   W96
@  #07 @099   ----------------------------------------
 .byte   W96
@  #07 @100   ----------------------------------------
 .byte   W96
@  #07 @101   ----------------------------------------
 .byte   W96
@  #07 @102   ----------------------------------------
 .byte   W96
@  #07 @103   ----------------------------------------
 .byte   W96
@  #07 @104   ----------------------------------------
 .byte   W96
@  #07 @105   ----------------------------------------
 .byte   W96
@  #07 @106   ----------------------------------------
 .byte   W96
@  #07 @107   ----------------------------------------
 .byte   W72
 .byte   N24 ,Cn4 ,v080
 .byte   W24
@  #07 @108   ----------------------------------------
 .byte   GOTO
  .word Label_010001EA
@  #07 @109   ----------------------------------------
 .byte   PATT
  .word Label_010001EA
@  #07 @110   ----------------------------------------
 .byte   PATT
  .word Label_010001F6
@  #07 @111   ----------------------------------------
 .byte   PATT
  .word Label_01000208
@  #07 @112   ----------------------------------------
 .byte   PATT
  .word Label_0100020F
@  #07 @113   ----------------------------------------
 .byte   PATT
  .word Label_010001EA
@  #07 @114   ----------------------------------------
 .byte   PATT
  .word Label_010001F6
@  #07 @115   ----------------------------------------
 .byte   PATT
  .word Label_01000208
@  #07 @116   ----------------------------------------
 .byte   PATT
  .word Label_0100022B
@  #07 @117   ----------------------------------------
 .byte   PATT
  .word Label_010001EA
@  #07 @118   ----------------------------------------
 .byte   PATT
  .word Label_010001F6
@  #07 @119   ----------------------------------------
 .byte   PATT
  .word Label_01000208
@  #07 @120   ----------------------------------------
 .byte   PATT
  .word Label_0100020F
@  #07 @121   ----------------------------------------
 .byte   PATT
  .word Label_010001EA
@  #07 @122   ----------------------------------------
 .byte   PATT
  .word Label_010001F6
@  #07 @123   ----------------------------------------
 .byte   PATT
  .word Label_01000208
@  #07 @124   ----------------------------------------
 .byte   PATT
  .word Label_0100022B
@  #07 @125   ----------------------------------------
 .byte   W96
@  #07 @126   ----------------------------------------
 .byte   W96
@  #07 @127   ----------------------------------------
 .byte   W96
@  #07 @128   ----------------------------------------
 .byte   W96
@  #07 @129   ----------------------------------------
 .byte   W96
@  #07 @130   ----------------------------------------
 .byte   W96
@  #07 @131   ----------------------------------------
 .byte   W96
@  #07 @132   ----------------------------------------
 .byte   W96
@  #07 @133   ----------------------------------------
 .byte   W96
@  #07 @134   ----------------------------------------
 .byte   W96
@  #07 @135   ----------------------------------------
 .byte   W96
@  #07 @136   ----------------------------------------
 .byte   W96
@  #07 @137   ----------------------------------------
 .byte   W96
@  #07 @138   ----------------------------------------
 .byte   W96
@  #07 @139   ----------------------------------------
 .byte   W96
@  #07 @140   ----------------------------------------
 .byte   W96
@  #07 @141   ----------------------------------------
 .byte   W96
@  #07 @142   ----------------------------------------
 .byte   W96
@  #07 @143   ----------------------------------------
 .byte   W96
@  #07 @144   ----------------------------------------
 .byte   W96
@  #07 @145   ----------------------------------------
 .byte   W96
@  #07 @146   ----------------------------------------
 .byte   W96
@  #07 @147   ----------------------------------------
 .byte   W96
@  #07 @148   ----------------------------------------
 .byte   W72
 .byte   N24 ,Cn4 ,v080
 .byte   W24
@  #07 @149   ----------------------------------------
 .byte   PATT
  .word Label_010001EA
@  #07 @150   ----------------------------------------
 .byte   PATT
  .word Label_010001F6
@  #07 @151   ----------------------------------------
 .byte   PATT
  .word Label_01000208
@  #07 @152   ----------------------------------------
 .byte   PATT
  .word Label_0100020F
@  #07 @153   ----------------------------------------
 .byte   PATT
  .word Label_010001EA
@  #07 @154   ----------------------------------------
 .byte   PATT
  .word Label_010001F6
@  #07 @155   ----------------------------------------
 .byte   PATT
  .word Label_01000208
@  #07 @156   ----------------------------------------
 .byte   PATT
  .word Label_0100022B
@  #07 @157   ----------------------------------------
 .byte   PATT
  .word Label_010002A4
@  #07 @158   ----------------------------------------
 .byte   PATT
  .word Label_010002AF
@  #07 @159   ----------------------------------------
 .byte   PATT
  .word Label_010002BA
@  #07 @160   ----------------------------------------
 .byte   PATT
  .word Label_010002C5
@  #07 @161   ----------------------------------------
 .byte   PATT
  .word Label_010002A4
@  #07 @162   ----------------------------------------
 .byte   PATT
  .word Label_010002D5
@  #07 @163   ----------------------------------------
 .byte   PATT
  .word Label_010002BA
@  #07 @164   ----------------------------------------
 .byte   PATT
  .word Label_010002C5
 .byte   FINE

@**************** Track 8 (Midi-Chn.7) ****************@

InnocenceGlitched_008:
@  #08 @000   ----------------------------------------
 .byte   VOL , 52*InnocenceGlitched_mvl/mxv
 .byte   KEYSH , InnocenceGlitched_key+0
 .byte   VOICE , 1
 .byte   W96
@  #08 @001   ----------------------------------------
 .byte   W96
@  #08 @002   ----------------------------------------
 .byte   W96
@  #08 @003   ----------------------------------------
 .byte   W72
 .byte   N24 ,Cn4 ,v096
 .byte   W24
@  #08 @004   ----------------------------------------
 .byte   N72 ,Gn4
 .byte   W96
@  #08 @005   ----------------------------------------
Label_010003DD:
 .byte   W48
 .byte   N18 ,Gn4 ,v096
 .byte   W18
 .byte   Gs4
 .byte   W18
 .byte   N12 ,Gn4
 .byte   W12
 .byte   PEND 
@  #08 @006   ----------------------------------------
Label_010003E8:
 .byte   N18 ,Fn4 ,v096
 .byte   W18
 .byte   Gn4
 .byte   W18
 .byte   N12 ,Fn4
 .byte   W12
 .byte   N24 ,Ds4
 .byte   W48
 .byte   PEND 
@  #08 @007   ----------------------------------------
 .byte   W48
 .byte   N48 ,Bn3
 .byte   W48
@  #08 @008   ----------------------------------------
 .byte   TIE ,Fn4
 .byte   W96
@  #08 @009   ----------------------------------------
 .byte   W24
 .byte   EOT
 .byte   W72
@  #08 @010   ----------------------------------------
 .byte   PATT
  .word Label_010003DD
@  #08 @011   ----------------------------------------
Label_01000404:
 .byte   N18 ,Ds4 ,v096
 .byte   W18
 .byte   As4
 .byte   W18
 .byte   N12 ,Gn4
 .byte   W12
 .byte   N18 ,Ds5
 .byte   W18
 .byte   Bn4
 .byte   W18
 .byte   N12 ,Gs4
 .byte   W12
 .byte   PEND 
@  #08 @012   ----------------------------------------
 .byte   N48 ,Cn4
 .byte   N48 ,Cn5
 .byte   W96
@  #08 @013   ----------------------------------------
 .byte   PATT
  .word Label_010003DD
@  #08 @014   ----------------------------------------
Label_01000420:
 .byte   N18 ,Fn4 ,v096
 .byte   W18
 .byte   N12 ,Gn4
 .byte   W12
 .byte   N18 ,Fn4
 .byte   W18
 .byte   N24 ,Gs3
 .byte   W48
 .byte   PEND 
@  #08 @015   ----------------------------------------
 .byte   W48
 .byte   Bn3
 .byte   W48
@  #08 @016   ----------------------------------------
Label_01000431:
 .byte   N48 ,Cn4 ,v096
 .byte   W48
 .byte   N24 ,Gn4
 .byte   W24
 .byte   Cn4
 .byte   W24
 .byte   PEND 
@  #08 @017   ----------------------------------------
 .byte   N48 ,Ds5
 .byte   W96
@  #08 @018   ----------------------------------------
Label_0100043E:
 .byte   W48
 .byte   N18 ,Bn3 ,v096
 .byte   W18
 .byte   N12 ,Cs5
 .byte   W12
 .byte   N18 ,Bn4
 .byte   W18
 .byte   PEND 
@  #08 @019   ----------------------------------------
Label_0100044A:
 .byte   N18 ,Fs4 ,v096
 .byte   W18
 .byte   N12 ,Fn4
 .byte   W12
 .byte   N18 ,Ds4
 .byte   W18
 .byte   N48 ,Bn3
 .byte   W48
 .byte   PEND 
@  #08 @020   ----------------------------------------
 .byte   W96
@  #08 @021   ----------------------------------------
 .byte   W96
@  #08 @022   ----------------------------------------
 .byte   W96
@  #08 @023   ----------------------------------------
 .byte   W96
@  #08 @024   ----------------------------------------
 .byte   W96
@  #08 @025   ----------------------------------------
 .byte   W96
@  #08 @026   ----------------------------------------
 .byte   W96
@  #08 @027   ----------------------------------------
 .byte   W96
@  #08 @028   ----------------------------------------
Label_01000460:
 .byte   W96
@  #08 @029   ----------------------------------------
 .byte   W96
@  #08 @030   ----------------------------------------
 .byte   W96
@  #08 @031   ----------------------------------------
 .byte   W96
@  #08 @032   ----------------------------------------
 .byte   W96
@  #08 @033   ----------------------------------------
 .byte   W96
@  #08 @034   ----------------------------------------
 .byte   W96
@  #08 @035   ----------------------------------------
 .byte   W96
@  #08 @036   ----------------------------------------
 .byte   W96
@  #08 @037   ----------------------------------------
 .byte   W96
@  #08 @038   ----------------------------------------
 .byte   W96
@  #08 @039   ----------------------------------------
 .byte   W96
@  #08 @040   ----------------------------------------
 .byte   W96
@  #08 @041   ----------------------------------------
 .byte   W96
@  #08 @042   ----------------------------------------
 .byte   W96
@  #08 @043   ----------------------------------------
 .byte   W96
@  #08 @044   ----------------------------------------
 .byte   W96
@  #08 @045   ----------------------------------------
 .byte   W96
@  #08 @046   ----------------------------------------
 .byte   W96
@  #08 @047   ----------------------------------------
 .byte   W96
@  #08 @048   ----------------------------------------
 .byte   W96
@  #08 @049   ----------------------------------------
 .byte   W96
@  #08 @050   ----------------------------------------
 .byte   W96
@  #08 @051   ----------------------------------------
 .byte   W96
@  #08 @052   ----------------------------------------
 .byte   W96
@  #08 @053   ----------------------------------------
 .byte   W96
@  #08 @054   ----------------------------------------
 .byte   W96
@  #08 @055   ----------------------------------------
 .byte   W96
@  #08 @056   ----------------------------------------
 .byte   W96
@  #08 @057   ----------------------------------------
 .byte   W96
@  #08 @058   ----------------------------------------
 .byte   W96
@  #08 @059   ----------------------------------------
 .byte   W96
@  #08 @060   ----------------------------------------
Label_01000480:
 .byte   N12 ,Cn5 ,v068
 .byte   W12
 .byte   N12
 .byte   W12
 .byte   N12
 .byte   W12
 .byte   N12
 .byte   W12
 .byte   N12
 .byte   W12
 .byte   N12
 .byte   W12
 .byte   N12
 .byte   W12
 .byte   N12
 .byte   W12
 .byte   PEND 
@  #08 @061   ----------------------------------------
Label_01000493:
 .byte   N12 ,Ds5 ,v068
 .byte   W12
 .byte   N12
 .byte   W12
 .byte   N12
 .byte   W12
 .byte   N12
 .byte   W12
 .byte   N12
 .byte   W12
 .byte   N12
 .byte   W12
 .byte   N12
 .byte   W12
 .byte   N12
 .byte   W12
 .byte   PEND 
@  #08 @062   ----------------------------------------
Label_010004A6:
 .byte   N12 ,Gs4 ,v068
 .byte   W12
 .byte   N12
 .byte   W12
 .byte   N12
 .byte   W12
 .byte   N12
 .byte   W12
 .byte   N12
 .byte   W12
 .byte   N12
 .byte   W12
 .byte   N12
 .byte   W12
 .byte   N12
 .byte   W12
 .byte   PEND 
@  #08 @063   ----------------------------------------
Label_010004B9:
 .byte   N12 ,Bn4 ,v068
 .byte   W12
 .byte   N12
 .byte   W12
 .byte   N12
 .byte   W12
 .byte   N12
 .byte   W12
 .byte   N12
 .byte   W12
 .byte   N12
 .byte   W12
 .byte   N12
 .byte   W12
 .byte   N12
 .byte   W12
 .byte   PEND 
@  #08 @064   ----------------------------------------
 .byte   PATT
  .word Label_01000480
@  #08 @065   ----------------------------------------
 .byte   PATT
  .word Label_01000493
@  #08 @066   ----------------------------------------
 .byte   PATT
  .word Label_010004A6
@  #08 @067   ----------------------------------------
 .byte   PATT
  .word Label_010004B9
@  #08 @068   ----------------------------------------
 .byte   W96
@  #08 @069   ----------------------------------------
 .byte   W96
@  #08 @070   ----------------------------------------
 .byte   W96
@  #08 @071   ----------------------------------------
 .byte   W96
@  #08 @072   ----------------------------------------
 .byte   W96
@  #08 @073   ----------------------------------------
 .byte   W96
@  #08 @074   ----------------------------------------
 .byte   W96
@  #08 @075   ----------------------------------------
 .byte   W96
@  #08 @076   ----------------------------------------
 .byte   W96
@  #08 @077   ----------------------------------------
 .byte   W96
@  #08 @078   ----------------------------------------
 .byte   W96
@  #08 @079   ----------------------------------------
 .byte   W96
@  #08 @080   ----------------------------------------
 .byte   W96
@  #08 @081   ----------------------------------------
 .byte   W96
@  #08 @082   ----------------------------------------
 .byte   W96
@  #08 @083   ----------------------------------------
 .byte   W96
@  #08 @084   ----------------------------------------
 .byte   N72 ,Gn4 ,v096
 .byte   W96
@  #08 @085   ----------------------------------------
 .byte   PATT
  .word Label_010003DD
@  #08 @086   ----------------------------------------
 .byte   PATT
  .word Label_010003E8
@  #08 @087   ----------------------------------------
 .byte   W48
 .byte   N48 ,Bn3 ,v096
 .byte   W48
@  #08 @088   ----------------------------------------
 .byte   TIE ,Fn4
 .byte   W96
@  #08 @089   ----------------------------------------
 .byte   W24
 .byte   EOT
 .byte   W72
@  #08 @090   ----------------------------------------
 .byte   PATT
  .word Label_010003DD
@  #08 @091   ----------------------------------------
 .byte   PATT
  .word Label_01000404
@  #08 @092   ----------------------------------------
 .byte   N48 ,Cn4 ,v096
 .byte   N48 ,Cn5
 .byte   W96
@  #08 @093   ----------------------------------------
 .byte   PATT
  .word Label_010003DD
@  #08 @094   ----------------------------------------
 .byte   PATT
  .word Label_01000420
@  #08 @095   ----------------------------------------
 .byte   W48
 .byte   N24 ,Bn3 ,v096
 .byte   W48
@  #08 @096   ----------------------------------------
 .byte   PATT
  .word Label_01000431
@  #08 @097   ----------------------------------------
 .byte   N48 ,Ds5 ,v096
 .byte   W96
@  #08 @098   ----------------------------------------
 .byte   PATT
  .word Label_0100043E
@  #08 @099   ----------------------------------------
 .byte   PATT
  .word Label_0100044A
@  #08 @100   ----------------------------------------
 .byte   W96
@  #08 @101   ----------------------------------------
 .byte   W96
@  #08 @102   ----------------------------------------
 .byte   W96
@  #08 @103   ----------------------------------------
 .byte   W96
@  #08 @104   ----------------------------------------
 .byte   W96
@  #08 @105   ----------------------------------------
 .byte   W96
@  #08 @106   ----------------------------------------
 .byte   W96
@  #08 @107   ----------------------------------------
 .byte   W96
@  #08 @108   ----------------------------------------
 .byte   GOTO
  .word Label_01000460
@  #08 @109   ----------------------------------------
 .byte   W96
@  #08 @110   ----------------------------------------
 .byte   W96
@  #08 @111   ----------------------------------------
 .byte   W96
@  #08 @112   ----------------------------------------
 .byte   W96
@  #08 @113   ----------------------------------------
 .byte   W96
@  #08 @114   ----------------------------------------
 .byte   W96
@  #08 @115   ----------------------------------------
 .byte   W96
@  #08 @116   ----------------------------------------
 .byte   W96
@  #08 @117   ----------------------------------------
 .byte   W96
@  #08 @118   ----------------------------------------
 .byte   W96
@  #08 @119   ----------------------------------------
 .byte   W96
@  #08 @120   ----------------------------------------
 .byte   W96
@  #08 @121   ----------------------------------------
 .byte   W96
@  #08 @122   ----------------------------------------
 .byte   W96
@  #08 @123   ----------------------------------------
 .byte   W96
@  #08 @124   ----------------------------------------
 .byte   W96
@  #08 @125   ----------------------------------------
 .byte   W96
@  #08 @126   ----------------------------------------
 .byte   W96
@  #08 @127   ----------------------------------------
 .byte   W96
@  #08 @128   ----------------------------------------
 .byte   W96
@  #08 @129   ----------------------------------------
 .byte   W96
@  #08 @130   ----------------------------------------
 .byte   W96
@  #08 @131   ----------------------------------------
 .byte   W96
@  #08 @132   ----------------------------------------
 .byte   W96
@  #08 @133   ----------------------------------------
 .byte   W96
@  #08 @134   ----------------------------------------
 .byte   W96
@  #08 @135   ----------------------------------------
 .byte   W96
@  #08 @136   ----------------------------------------
 .byte   W96
@  #08 @137   ----------------------------------------
 .byte   W96
@  #08 @138   ----------------------------------------
 .byte   W96
@  #08 @139   ----------------------------------------
 .byte   W96
@  #08 @140   ----------------------------------------
 .byte   W96
@  #08 @141   ----------------------------------------
 .byte   PATT
  .word Label_01000480
@  #08 @142   ----------------------------------------
 .byte   PATT
  .word Label_01000493
@  #08 @143   ----------------------------------------
 .byte   PATT
  .word Label_010004A6
@  #08 @144   ----------------------------------------
 .byte   PATT
  .word Label_010004B9
@  #08 @145   ----------------------------------------
 .byte   PATT
  .word Label_01000480
@  #08 @146   ----------------------------------------
 .byte   PATT
  .word Label_01000493
@  #08 @147   ----------------------------------------
 .byte   PATT
  .word Label_010004A6
@  #08 @148   ----------------------------------------
 .byte   PATT
  .word Label_010004B9
@  #08 @149   ----------------------------------------
 .byte   W96
@  #08 @150   ----------------------------------------
 .byte   W96
@  #08 @151   ----------------------------------------
 .byte   W96
@  #08 @152   ----------------------------------------
 .byte   W96
@  #08 @153   ----------------------------------------
 .byte   W96
@  #08 @154   ----------------------------------------
 .byte   W96
@  #08 @155   ----------------------------------------
 .byte   W96
@  #08 @156   ----------------------------------------
 .byte   W96
@  #08 @157   ----------------------------------------
 .byte   W96
@  #08 @158   ----------------------------------------
 .byte   W96
@  #08 @159   ----------------------------------------
 .byte   W96
@  #08 @160   ----------------------------------------
 .byte   W96
@  #08 @161   ----------------------------------------
 .byte   W96
@  #08 @162   ----------------------------------------
 .byte   W96
@  #08 @163   ----------------------------------------
 .byte   W96
@  #08 @164   ----------------------------------------
 .byte   W96
 .byte   FINE

@**************** Track 9 (Midi-Chn.8) ****************@

InnocenceGlitched_009:
@  #09 @000   ----------------------------------------
 .byte   VOL , 52*InnocenceGlitched_mvl/mxv
 .byte   KEYSH , InnocenceGlitched_key+0
 .byte   VOICE , 124
 .byte   N06 ,Cn1 ,v080
 .byte   W24
 .byte   Cs1
 .byte   W12
 .byte   Cn1
 .byte   W36
 .byte   En1
 .byte   W24
@  #09 @001   ----------------------------------------
Label_010005B4:
 .byte   N06 ,Cn1 ,v080
 .byte   W24
 .byte   Cs1
 .byte   W24
 .byte   Cn1
 .byte   W12
 .byte   N06
 .byte   W36
 .byte   PEND 
@  #09 @002   ----------------------------------------
Label_010005BF:
 .byte   N06 ,Cn1 ,v080
 .byte   W24
 .byte   Cs1
 .byte   W12
 .byte   Cn1
 .byte   W24
 .byte   N06
 .byte   W12
 .byte   En1
 .byte   W24
 .byte   PEND 
@  #09 @003   ----------------------------------------
Label_010005CC:
 .byte   N06 ,Cn1 ,v080
 .byte   W12
 .byte   N06
 .byte   W12
 .byte   Cs1
 .byte   W24
 .byte   Cn1
 .byte   W12
 .byte   N06
 .byte   W36
 .byte   PEND 
@  #09 @004   ----------------------------------------
Label_010005D9:
 .byte   N06 ,Cn1 ,v080
 .byte   N06 ,Fs1
 .byte   W12
 .byte   Fn1
 .byte   N06 ,Fs1
 .byte   W12
 .byte   Cn1
 .byte   N06 ,Fs1
 .byte   N06 ,Gn1
 .byte   W24
 .byte   Fs1
 .byte   W24
 .byte   Cn1
 .byte   N06 ,Fn1
 .byte   N06 ,Fs1
 .byte   W24
 .byte   PEND 
@  #09 @005   ----------------------------------------
Label_010005F2:
 .byte   N06 ,Cn1 ,v080
 .byte   N06 ,Fs1
 .byte   W12
 .byte   Fn1
 .byte   W12
 .byte   Cn1
 .byte   N06 ,Fs1
 .byte   N06 ,Gn1
 .byte   W24
 .byte   En1
 .byte   N06 ,Fs1
 .byte   W24
 .byte   Cn1
 .byte   N06 ,Fs1
 .byte   N06 ,Gn1
 .byte   W24
 .byte   PEND 
@  #09 @006   ----------------------------------------
Label_0100060B:
 .byte   N06 ,Cn1 ,v080
 .byte   N06 ,Fs1
 .byte   W12
 .byte   Fn1
 .byte   W12
 .byte   Cn1
 .byte   N06 ,Fs1
 .byte   N06 ,Gn1
 .byte   W24
 .byte   En1
 .byte   N06 ,Fs1
 .byte   W24
 .byte   Cn1
 .byte   N06 ,Fn1
 .byte   N06 ,Fs1
 .byte   W24
 .byte   PEND 
@  #09 @007   ----------------------------------------
Label_01000624:
 .byte   N06 ,Cn1 ,v080
 .byte   N06 ,Fs1
 .byte   W12
 .byte   Fn1
 .byte   W12
 .byte   Cn1
 .byte   N06 ,Fs1
 .byte   N06 ,Gn1
 .byte   W24
 .byte   En1
 .byte   N06 ,Fs1
 .byte   W24
 .byte   Cn1
 .byte   N06 ,Dn1
 .byte   N06 ,Fs1
 .byte   W24
 .byte   PEND 
@  #09 @008   ----------------------------------------
 .byte   PATT
  .word Label_010005D9
@  #09 @009   ----------------------------------------
 .byte   PATT
  .word Label_010005F2
@  #09 @010   ----------------------------------------
 .byte   PATT
  .word Label_0100060B
@  #09 @011   ----------------------------------------
 .byte   PATT
  .word Label_01000624
@  #09 @012   ----------------------------------------
 .byte   PATT
  .word Label_010005D9
@  #09 @013   ----------------------------------------
 .byte   PATT
  .word Label_010005F2
@  #09 @014   ----------------------------------------
 .byte   PATT
  .word Label_0100060B
@  #09 @015   ----------------------------------------
 .byte   PATT
  .word Label_01000624
@  #09 @016   ----------------------------------------
 .byte   PATT
  .word Label_010005D9
@  #09 @017   ----------------------------------------
 .byte   PATT
  .word Label_010005F2
@  #09 @018   ----------------------------------------
Label_0100066F:
 .byte   N06 ,Cn1 ,v080
 .byte   N06 ,Fs1
 .byte   W12
 .byte   Fn1
 .byte   W12
 .byte   Cn1
 .byte   N06 ,Fs1
 .byte   N06 ,Gn1
 .byte   W24
 .byte   En1
 .byte   N06 ,Fs1
 .byte   W24
 .byte   Cn1
 .byte   N06 ,Fs1
 .byte   N06 ,Gn1
 .byte   W12
 .byte   Fn1
 .byte   W12
 .byte   PEND 
@  #09 @019   ----------------------------------------
Label_0100068A:
 .byte   N06 ,Cn1 ,v080
 .byte   N06 ,Fs1
 .byte   W18
 .byte   Fn1
 .byte   W06
 .byte   Cn1
 .byte   N06 ,Fs1
 .byte   N06 ,Gn1
 .byte   W12
 .byte   Fn1
 .byte   W12
 .byte   En1
 .byte   N06 ,Fs1
 .byte   W12
 .byte   Gn1
 .byte   W12
 .byte   Cn1
 .byte   N06 ,Fn1
 .byte   N06 ,Fs1
 .byte   W12
 .byte   Fn1
 .byte   W12
 .byte   PEND 
@  #09 @020   ----------------------------------------
Label_010006A9:
 .byte   N06 ,Fs1 ,v080
 .byte   N96 ,Cs2
 .byte   W24
 .byte   N06 ,Fs1
 .byte   W24
 .byte   N06
 .byte   W24
 .byte   N06
 .byte   W24
 .byte   PEND 
@  #09 @021   ----------------------------------------
Label_010006B7:
 .byte   N06 ,Fs1 ,v080
 .byte   W24
 .byte   N06
 .byte   W24
 .byte   N06
 .byte   W24
 .byte   N06
 .byte   W24
 .byte   PEND 
@  #09 @022   ----------------------------------------
 .byte   PATT
  .word Label_010006B7
@  #09 @023   ----------------------------------------
 .byte   PATT
  .word Label_010006B7
@  #09 @024   ----------------------------------------
 .byte   PATT
  .word Label_010006B7
@  #09 @025   ----------------------------------------
 .byte   PATT
  .word Label_010006B7
@  #09 @026   ----------------------------------------
 .byte   PATT
  .word Label_010006B7
@  #09 @027   ----------------------------------------
Label_010006DB:
 .byte   N06 ,Fn1 ,v080
 .byte   N06 ,Fs1
 .byte   N06 ,Gn1
 .byte   W18
 .byte   Fn1
 .byte   N06 ,Gn1
 .byte   W06
 .byte   Fn1
 .byte   N06 ,Fs1
 .byte   N06 ,Gn1
 .byte   W06
 .byte   Fn1
 .byte   N06 ,Gn1
 .byte   W12
 .byte   Fn1
 .byte   N06 ,Gn1
 .byte   W06
 .byte   Fn1
 .byte   N06 ,Gn1
 .byte   W06
 .byte   Fn1
 .byte   N06 ,Gn1
 .byte   W12
 .byte   Fn1
 .byte   N06 ,Gn1
 .byte   W06
 .byte   Fn1
 .byte   N06 ,Gn1
 .byte   N06 ,An1
 .byte   W06
 .byte   Fn1
 .byte   N06 ,Gn1
 .byte   W06
 .byte   Fn1
 .byte   N06 ,Gn1
 .byte   W06
 .byte   Fn1
 .byte   N06 ,Gn1
 .byte   W06
 .byte   PEND 
@  #09 @028   ----------------------------------------
Label_01000714:
 .byte   N06 ,Cn1 ,v080
 .byte   N06 ,Dn1
 .byte   N12 ,As1
 .byte   N96 ,Cs2
 .byte   W24
 .byte   N12 ,As1
 .byte   W12
 .byte   N06 ,Cn1
 .byte   N06 ,Dn1
 .byte   W12
 .byte   En1
 .byte   N12 ,As1
 .byte   W24
 .byte   N12
 .byte   W12
 .byte   N06 ,En1
 .byte   W12
 .byte   PEND 
@  #09 @029   ----------------------------------------
Label_01000730:
 .byte   N06 ,Cn1 ,v080
 .byte   N06 ,Dn1
 .byte   N12 ,As1
 .byte   W12
 .byte   N06 ,Cn1
 .byte   N06 ,Dn1
 .byte   W12
 .byte   N12 ,As1
 .byte   W12
 .byte   N06 ,Cn1
 .byte   N06 ,Dn1
 .byte   W12
 .byte   En1
 .byte   N12 ,As1
 .byte   W24
 .byte   N12
 .byte   W12
 .byte   N06 ,En1
 .byte   W12
 .byte   PEND 
@  #09 @030   ----------------------------------------
Label_0100074F:
 .byte   N06 ,Cn1 ,v080
 .byte   N06 ,Dn1
 .byte   N12 ,As1
 .byte   W24
 .byte   N12
 .byte   W24
 .byte   N06 ,En1
 .byte   N12 ,As1
 .byte   W24
 .byte   N06 ,Cn1
 .byte   N06 ,Dn1
 .byte   N12 ,As1
 .byte   W12
 .byte   N06 ,En1
 .byte   W06
 .byte   N06
 .byte   W06
 .byte   PEND 
@  #09 @031   ----------------------------------------
Label_0100076B:
 .byte   N06 ,Cn1 ,v080
 .byte   N06 ,Dn1
 .byte   N12 ,As1
 .byte   W24
 .byte   N12
 .byte   W24
 .byte   N06 ,Cn1
 .byte   N06 ,Dn1
 .byte   N12 ,As1
 .byte   W24
 .byte   N06 ,En1
 .byte   N12 ,As1
 .byte   W12
 .byte   N06 ,Cn1
 .byte   N06 ,Dn1
 .byte   W12
 .byte   PEND 
@  #09 @032   ----------------------------------------
Label_01000787:
 .byte   N06 ,Cn1 ,v080
 .byte   N06 ,Dn1
 .byte   N12 ,As1
 .byte   W24
 .byte   N12
 .byte   W12
 .byte   N06 ,Cn1
 .byte   N06 ,Dn1
 .byte   W12
 .byte   En1
 .byte   N12 ,As1
 .byte   W24
 .byte   N12
 .byte   W12
 .byte   N06 ,En1
 .byte   W12
 .byte   PEND 
@  #09 @033   ----------------------------------------
 .byte   PATT
  .word Label_01000730
@  #09 @034   ----------------------------------------
 .byte   PATT
  .word Label_0100074F
@  #09 @035   ----------------------------------------
 .byte   PATT
  .word Label_0100076B
@  #09 @036   ----------------------------------------
 .byte   PATT
  .word Label_01000787
@  #09 @037   ----------------------------------------
 .byte   PATT
  .word Label_01000730
@  #09 @038   ----------------------------------------
 .byte   PATT
  .word Label_0100074F
@  #09 @039   ----------------------------------------
 .byte   PATT
  .word Label_0100076B
@  #09 @040   ----------------------------------------
 .byte   PATT
  .word Label_01000787
@  #09 @041   ----------------------------------------
 .byte   PATT
  .word Label_01000730
@  #09 @042   ----------------------------------------
 .byte   PATT
  .word Label_0100074F
@  #09 @043   ----------------------------------------
 .byte   PATT
  .word Label_0100076B
@  #09 @044   ----------------------------------------
Label_010007D7:
 .byte   N06 ,Fs1 ,v080
 .byte   N06 ,Gn1
 .byte   N06 ,Cs2
 .byte   W12
 .byte   Gn1
 .byte   W06
 .byte   N06
 .byte   W06
 .byte   Fs1
 .byte   W12
 .byte   Gn1
 .byte   W12
 .byte   Fs1
 .byte   W12
 .byte   Gn1
 .byte   W12
 .byte   Fs1
 .byte   N06 ,Gn1
 .byte   W12
 .byte   N06
 .byte   W12
 .byte   PEND 
@  #09 @045   ----------------------------------------
Label_010007F2:
 .byte   N06 ,Fs1 ,v080
 .byte   W12
 .byte   Gn1
 .byte   W12
 .byte   Fs1
 .byte   W24
 .byte   N06
 .byte   N06 ,Gn1
 .byte   W24
 .byte   Fs1
 .byte   N06 ,Gn1
 .byte   W12
 .byte   N06
 .byte   W12
 .byte   PEND 
@  #09 @046   ----------------------------------------
Label_01000805:
 .byte   N06 ,Fs1 ,v080
 .byte   N06 ,Gn1
 .byte   W12
 .byte   N06
 .byte   W06
 .byte   N06
 .byte   W06
 .byte   Fs1
 .byte   W12
 .byte   Gn1
 .byte   W12
 .byte   Fs1
 .byte   W12
 .byte   Gn1
 .byte   W12
 .byte   Fs1
 .byte   N06 ,Gn1
 .byte   W12
 .byte   N06
 .byte   W12
 .byte   PEND 
@  #09 @047   ----------------------------------------
 .byte   PATT
  .word Label_010007F2
@  #09 @048   ----------------------------------------
 .byte   PATT
  .word Label_01000805
@  #09 @049   ----------------------------------------
 .byte   PATT
  .word Label_010007F2
@  #09 @050   ----------------------------------------
 .byte   PATT
  .word Label_01000805
@  #09 @051   ----------------------------------------
 .byte   PATT
  .word Label_010007F2
@  #09 @052   ----------------------------------------
Label_01000837:
 .byte   N06 ,Cn1 ,v080
 .byte   W24
 .byte   Cs1
 .byte   W12
 .byte   Cn1
 .byte   W36
 .byte   En1
 .byte   W24
 .byte   PEND 
@  #09 @053   ----------------------------------------
 .byte   PATT
  .word Label_010005B4
@  #09 @054   ----------------------------------------
 .byte   PATT
  .word Label_010005BF
@  #09 @055   ----------------------------------------
 .byte   PATT
  .word Label_010005CC
@  #09 @056   ----------------------------------------
 .byte   PATT
  .word Label_01000837
@  #09 @057   ----------------------------------------
 .byte   PATT
  .word Label_010005B4
@  #09 @058   ----------------------------------------
 .byte   PATT
  .word Label_010005BF
@  #09 @059   ----------------------------------------
 .byte   PATT
  .word Label_010005CC
@  #09 @060   ----------------------------------------
Label_01000865:
 .byte   N06 ,Cn1 ,v080
 .byte   N06 ,Fs1
 .byte   N06 ,Gn1
 .byte   W12
 .byte   N06
 .byte   W06
 .byte   N06
 .byte   W06
 .byte   Cs1
 .byte   N06 ,Fs1
 .byte   W12
 .byte   Cn1
 .byte   N06 ,Gn1
 .byte   W12
 .byte   Fs1
 .byte   W12
 .byte   Gn1
 .byte   W12
 .byte   En1
 .byte   N06 ,Fs1
 .byte   N06 ,Gn1
 .byte   W12
 .byte   N06
 .byte   W12
 .byte   PEND 
@  #09 @061   ----------------------------------------
Label_01000886:
 .byte   N06 ,Cn1 ,v080
 .byte   N06 ,Fs1
 .byte   W12
 .byte   Gn1
 .byte   W12
 .byte   Cs1
 .byte   N06 ,Fs1
 .byte   W24
 .byte   Cn1
 .byte   N06 ,Fs1
 .byte   N06 ,Gn1
 .byte   W12
 .byte   Cn1
 .byte   W12
 .byte   Fs1
 .byte   N06 ,Gn1
 .byte   W12
 .byte   N06
 .byte   W12
 .byte   PEND 
@  #09 @062   ----------------------------------------
Label_010008A1:
 .byte   N06 ,Cn1 ,v080
 .byte   N06 ,Fs1
 .byte   N06 ,Gn1
 .byte   W12
 .byte   N06
 .byte   W06
 .byte   N06
 .byte   W06
 .byte   Cs1
 .byte   N06 ,Fs1
 .byte   W12
 .byte   Cn1
 .byte   N06 ,Gn1
 .byte   W12
 .byte   Fs1
 .byte   W12
 .byte   Cn1
 .byte   N06 ,Gn1
 .byte   W12
 .byte   En1
 .byte   N06 ,Fs1
 .byte   N06 ,Gn1
 .byte   W12
 .byte   N06
 .byte   W12
 .byte   PEND 
@  #09 @063   ----------------------------------------
Label_010008C4:
 .byte   N06 ,Cn1 ,v080
 .byte   N06 ,Fs1
 .byte   W12
 .byte   Cn1
 .byte   N06 ,Gn1
 .byte   W12
 .byte   Cs1
 .byte   N06 ,Fs1
 .byte   W24
 .byte   Cn1
 .byte   N06 ,Fs1
 .byte   N06 ,Gn1
 .byte   W12
 .byte   Cn1
 .byte   W12
 .byte   Fs1
 .byte   N06 ,Gn1
 .byte   W12
 .byte   N06
 .byte   W12
 .byte   PEND 
@  #09 @064   ----------------------------------------
 .byte   PATT
  .word Label_01000865
@  #09 @065   ----------------------------------------
 .byte   PATT
  .word Label_01000886
@  #09 @066   ----------------------------------------
 .byte   PATT
  .word Label_010008A1
@  #09 @067   ----------------------------------------
 .byte   PATT
  .word Label_010006DB
@  #09 @068   ----------------------------------------
 .byte   PATT
  .word Label_01000714
@  #09 @069   ----------------------------------------
 .byte   PATT
  .word Label_01000730
@  #09 @070   ----------------------------------------
 .byte   PATT
  .word Label_0100074F
@  #09 @071   ----------------------------------------
 .byte   PATT
  .word Label_0100076B
@  #09 @072   ----------------------------------------
 .byte   PATT
  .word Label_01000787
@  #09 @073   ----------------------------------------
 .byte   PATT
  .word Label_01000730
@  #09 @074   ----------------------------------------
 .byte   PATT
  .word Label_0100074F
@  #09 @075   ----------------------------------------
 .byte   PATT
  .word Label_0100076B
@  #09 @076   ----------------------------------------
 .byte   PATT
  .word Label_01000787
@  #09 @077   ----------------------------------------
 .byte   PATT
  .word Label_01000730
@  #09 @078   ----------------------------------------
 .byte   PATT
  .word Label_0100074F
@  #09 @079   ----------------------------------------
 .byte   PATT
  .word Label_0100076B
@  #09 @080   ----------------------------------------
 .byte   PATT
  .word Label_01000787
@  #09 @081   ----------------------------------------
 .byte   PATT
  .word Label_01000730
@  #09 @082   ----------------------------------------
 .byte   PATT
  .word Label_0100074F
@  #09 @083   ----------------------------------------
 .byte   PATT
  .word Label_0100076B
@  #09 @084   ----------------------------------------
 .byte   PATT
  .word Label_010005D9
@  #09 @085   ----------------------------------------
 .byte   PATT
  .word Label_010005F2
@  #09 @086   ----------------------------------------
 .byte   PATT
  .word Label_0100060B
@  #09 @087   ----------------------------------------
 .byte   PATT
  .word Label_01000624
@  #09 @088   ----------------------------------------
 .byte   PATT
  .word Label_010005D9
@  #09 @089   ----------------------------------------
 .byte   PATT
  .word Label_010005F2
@  #09 @090   ----------------------------------------
 .byte   PATT
  .word Label_0100060B
@  #09 @091   ----------------------------------------
 .byte   PATT
  .word Label_01000624
@  #09 @092   ----------------------------------------
 .byte   PATT
  .word Label_010005D9
@  #09 @093   ----------------------------------------
 .byte   PATT
  .word Label_010005F2
@  #09 @094   ----------------------------------------
 .byte   PATT
  .word Label_0100060B
@  #09 @095   ----------------------------------------
 .byte   PATT
  .word Label_01000624
@  #09 @096   ----------------------------------------
 .byte   PATT
  .word Label_010005D9
@  #09 @097   ----------------------------------------
 .byte   PATT
  .word Label_010005F2
@  #09 @098   ----------------------------------------
 .byte   PATT
  .word Label_0100066F
@  #09 @099   ----------------------------------------
 .byte   PATT
  .word Label_0100068A
@  #09 @100   ----------------------------------------
 .byte   PATT
  .word Label_010006A9
@  #09 @101   ----------------------------------------
 .byte   PATT
  .word Label_010006B7
@  #09 @102   ----------------------------------------
 .byte   PATT
  .word Label_010006B7
@  #09 @103   ----------------------------------------
 .byte   PATT
  .word Label_010006B7
@  #09 @104   ----------------------------------------
 .byte   PATT
  .word Label_010006B7
@  #09 @105   ----------------------------------------
 .byte   PATT
  .word Label_010006B7
@  #09 @106   ----------------------------------------
 .byte   PATT
  .word Label_010006B7
@  #09 @107   ----------------------------------------
 .byte   PATT
  .word Label_010006DB
@  #09 @108   ----------------------------------------
 .byte   GOTO
  .word Label_01000714
@  #09 @109   ----------------------------------------
 .byte   PATT
  .word Label_01000714
@  #09 @110   ----------------------------------------
 .byte   PATT
  .word Label_01000730
@  #09 @111   ----------------------------------------
 .byte   PATT
  .word Label_0100074F
@  #09 @112   ----------------------------------------
 .byte   PATT
  .word Label_0100076B
@  #09 @113   ----------------------------------------
 .byte   PATT
  .word Label_01000787
@  #09 @114   ----------------------------------------
 .byte   PATT
  .word Label_01000730
@  #09 @115   ----------------------------------------
 .byte   PATT
  .word Label_0100074F
@  #09 @116   ----------------------------------------
 .byte   PATT
  .word Label_0100076B
@  #09 @117   ----------------------------------------
 .byte   PATT
  .word Label_01000787
@  #09 @118   ----------------------------------------
 .byte   PATT
  .word Label_01000730
@  #09 @119   ----------------------------------------
 .byte   PATT
  .word Label_0100074F
@  #09 @120   ----------------------------------------
 .byte   PATT
  .word Label_0100076B
@  #09 @121   ----------------------------------------
 .byte   PATT
  .word Label_01000787
@  #09 @122   ----------------------------------------
 .byte   PATT
  .word Label_01000730
@  #09 @123   ----------------------------------------
 .byte   PATT
  .word Label_0100074F
@  #09 @124   ----------------------------------------
 .byte   PATT
  .word Label_0100076B
@  #09 @125   ----------------------------------------
 .byte   PATT
  .word Label_010007D7
@  #09 @126   ----------------------------------------
 .byte   PATT
  .word Label_010007F2
@  #09 @127   ----------------------------------------
 .byte   PATT
  .word Label_01000805
@  #09 @128   ----------------------------------------
 .byte   PATT
  .word Label_010007F2
@  #09 @129   ----------------------------------------
 .byte   PATT
  .word Label_01000805
@  #09 @130   ----------------------------------------
 .byte   PATT
  .word Label_010007F2
@  #09 @131   ----------------------------------------
 .byte   PATT
  .word Label_01000805
@  #09 @132   ----------------------------------------
 .byte   PATT
  .word Label_010007F2
@  #09 @133   ----------------------------------------
 .byte   PATT
  .word Label_01000837
@  #09 @134   ----------------------------------------
 .byte   PATT
  .word Label_010005B4
@  #09 @135   ----------------------------------------
 .byte   PATT
  .word Label_010005BF
@  #09 @136   ----------------------------------------
 .byte   PATT
  .word Label_010005CC
@  #09 @137   ----------------------------------------
 .byte   PATT
  .word Label_01000837
@  #09 @138   ----------------------------------------
 .byte   PATT
  .word Label_010005B4
@  #09 @139   ----------------------------------------
 .byte   PATT
  .word Label_010005BF
@  #09 @140   ----------------------------------------
 .byte   PATT
  .word Label_010005CC
@  #09 @141   ----------------------------------------
 .byte   PATT
  .word Label_01000865
@  #09 @142   ----------------------------------------
 .byte   PATT
  .word Label_01000886
@  #09 @143   ----------------------------------------
 .byte   PATT
  .word Label_010008A1
@  #09 @144   ----------------------------------------
 .byte   PATT
  .word Label_010008C4
@  #09 @145   ----------------------------------------
 .byte   PATT
  .word Label_01000865
@  #09 @146   ----------------------------------------
 .byte   PATT
  .word Label_01000886
@  #09 @147   ----------------------------------------
 .byte   PATT
  .word Label_010008A1
@  #09 @148   ----------------------------------------
 .byte   PATT
  .word Label_010006DB
@  #09 @149   ----------------------------------------
 .byte   PATT
  .word Label_01000714
@  #09 @150   ----------------------------------------
 .byte   PATT
  .word Label_01000730
@  #09 @151   ----------------------------------------
 .byte   PATT
  .word Label_0100074F
@  #09 @152   ----------------------------------------
 .byte   PATT
  .word Label_0100076B
@  #09 @153   ----------------------------------------
 .byte   PATT
  .word Label_01000787
@  #09 @154   ----------------------------------------
 .byte   PATT
  .word Label_01000730
@  #09 @155   ----------------------------------------
 .byte   PATT
  .word Label_0100074F
@  #09 @156   ----------------------------------------
 .byte   PATT
  .word Label_0100076B
@  #09 @157   ----------------------------------------
 .byte   PATT
  .word Label_01000787
@  #09 @158   ----------------------------------------
 .byte   PATT
  .word Label_01000730
@  #09 @159   ----------------------------------------
 .byte   PATT
  .word Label_0100074F
@  #09 @160   ----------------------------------------
 .byte   PATT
  .word Label_0100076B
@  #09 @161   ----------------------------------------
 .byte   PATT
  .word Label_01000787
@  #09 @162   ----------------------------------------
 .byte   PATT
  .word Label_01000730
@  #09 @163   ----------------------------------------
 .byte   PATT
  .word Label_0100074F
@  #09 @164   ----------------------------------------
 .byte   PATT
  .word Label_0100076B
 .byte   FINE

@******************************************************@
	.align	2

InnocenceGlitched:
	.byte	9	@ NumTrks
	.byte	0	@ NumBlks
	.byte	InnocenceGlitched_pri	@ Priority
	.byte	InnocenceGlitched_rev	@ Reverb.
    
	.word	InnocenceGlitched_grp
    
	.word	InnocenceGlitched_001
	.word	InnocenceGlitched_002
	.word	InnocenceGlitched_003
	.word	InnocenceGlitched_004
	.word	InnocenceGlitched_005
	.word	InnocenceGlitched_006
	.word	InnocenceGlitched_007
	.word	InnocenceGlitched_008
	.word	InnocenceGlitched_009

	.end
