	.include "MPlayDef.s"

	.equ	UntamedGarden_grp, voicegroup000
	.equ	UntamedGarden_pri, 0
	.equ	UntamedGarden_rev, 0
	.equ	UntamedGarden_mvl, 127
	.equ	UntamedGarden_key, 0
	.equ	UntamedGarden_tbs, 1
	.equ	UntamedGarden_exg, 0
	.equ	UntamedGarden_cmp, 1

	.section .rodata
	.global	UntamedGarden
	.align	2


@**************** Track 1 (Midi-Chn.0) ****************@

UntamedGarden_001:
@  #01 @000   ----------------------------------------
 .byte   KEYSH , UntamedGarden_key+0
 .byte   TEMPO , 134*UntamedGarden_tbs/2
 .byte   VOICE , 11
 .byte   VOL , 46*UntamedGarden_mvl/mxv
 .byte   PAN , c_v+0
 .byte   VOL , 46*UntamedGarden_mvl/mxv
 .byte   PAN , c_v+0
 .byte   N11 ,Gn3 ,v052
 .byte   W12
 .byte   As3
 .byte   W12
 .byte   Cn4
 .byte   W12
 .byte   Fn4
 .byte   W12
 .byte   Gn3
 .byte   W12
 .byte   As3
 .byte   W12
 .byte   Cn4
 .byte   W12
 .byte   Fn4
 .byte   W12
@  #01 @001   ----------------------------------------
Label_01000020:
 .byte   N11 ,As3 ,v052
 .byte   W12
 .byte   Cn4
 .byte   W12
 .byte   Ds4
 .byte   W12
 .byte   Gn4
 .byte   W12
 .byte   As3
 .byte   W12
 .byte   Cn4
 .byte   W12
 .byte   Ds4
 .byte   W12
 .byte   Gn4
 .byte   W12
 .byte   PEND 
@  #01 @002   ----------------------------------------
Label_01000033:
 .byte   N11 ,Cn4 ,v052
 .byte   W12
 .byte   Ds4
 .byte   W12
 .byte   Fn4
 .byte   W12
 .byte   As4
 .byte   W12
 .byte   Cn4
 .byte   W12
 .byte   Ds4
 .byte   W12
 .byte   Fn4
 .byte   W12
 .byte   As4
 .byte   W12
 .byte   PEND 
@  #01 @003   ----------------------------------------
Label_01000046:
 .byte   N11 ,Ds4 ,v052
 .byte   W12
 .byte   Fn4
 .byte   W12
 .byte   As4
 .byte   W12
 .byte   Cn5
 .byte   W12
 .byte   Ds4
 .byte   W12
 .byte   Fn4
 .byte   W12
 .byte   As4
 .byte   W12
 .byte   Cn5
 .byte   W12
 .byte   PEND 
@  #01 @004   ----------------------------------------
Label_01000059:
 .byte   N11 ,Gn3 ,v052
 .byte   W12
 .byte   As3
 .byte   W12
 .byte   Cn4
 .byte   W12
 .byte   Fn4
 .byte   W12
 .byte   Gn3
 .byte   W12
 .byte   As3
 .byte   W12
 .byte   Cn4
 .byte   W12
 .byte   Fn4
 .byte   W12
 .byte   PEND 
@  #01 @005   ----------------------------------------
 .byte   PATT
  .word Label_01000020
@  #01 @006   ----------------------------------------
 .byte   PATT
  .word Label_01000033
@  #01 @007   ----------------------------------------
 .byte   PATT
  .word Label_01000046
@  #01 @008   ----------------------------------------
Label_0100007B:
@  #01 @009   ----------------------------------------
 .byte   PATT
  .word Label_01000059
@  #01 @010   ----------------------------------------
 .byte   PATT
  .word Label_01000020
@  #01 @011   ----------------------------------------
 .byte   PATT
  .word Label_01000033
@  #01 @012   ----------------------------------------
 .byte   PATT
  .word Label_01000046
@  #01 @013   ----------------------------------------
Label_0100008F:
 .byte   N11 ,Gn3 ,v052
 .byte   W12
 .byte   As3
 .byte   W12
 .byte   Cn4
 .byte   W12
 .byte   Fn4
 .byte   W12
 .byte   Gn3
 .byte   W12
 .byte   As3
 .byte   W12
 .byte   Cn4
 .byte   W12
 .byte   Fn4
 .byte   W12
 .byte   PEND 
@  #01 @014   ----------------------------------------
 .byte   PATT
  .word Label_01000020
@  #01 @015   ----------------------------------------
 .byte   PATT
  .word Label_01000033
@  #01 @016   ----------------------------------------
Label_010000AC:
 .byte   N11 ,Ds4 ,v052
 .byte   W12
 .byte   Fn4
 .byte   W12
 .byte   As4
 .byte   W12
 .byte   Cn5
 .byte   W12
 .byte   Ds4
 .byte   W12
 .byte   Fn4
 .byte   W12
 .byte   As4
 .byte   W12
 .byte   Cn5
 .byte   W12
 .byte   PEND 
@  #01 @017   ----------------------------------------
 .byte   PATT
  .word Label_01000059
@  #01 @018   ----------------------------------------
 .byte   PATT
  .word Label_01000020
@  #01 @019   ----------------------------------------
 .byte   PATT
  .word Label_01000033
@  #01 @020   ----------------------------------------
 .byte   PATT
  .word Label_01000046
@  #01 @021   ----------------------------------------
 .byte   PATT
  .word Label_0100008F
@  #01 @022   ----------------------------------------
 .byte   PATT
  .word Label_01000020
@  #01 @023   ----------------------------------------
 .byte   PATT
  .word Label_01000033
@  #01 @024   ----------------------------------------
 .byte   PATT
  .word Label_010000AC
@  #01 @025   ----------------------------------------
Label_010000E7:
 .byte   N11 ,Gn3 ,v064
 .byte   W12
 .byte   As3
 .byte   W12
 .byte   Cn4
 .byte   W12
 .byte   Fn4
 .byte   W12
 .byte   Gn3
 .byte   W12
 .byte   As3
 .byte   W12
 .byte   Cn4
 .byte   W12
 .byte   Fn4
 .byte   W12
 .byte   PEND 
@  #01 @026   ----------------------------------------
Label_010000FA:
 .byte   N11 ,As3 ,v064
 .byte   W12
 .byte   Cn4
 .byte   W12
 .byte   Ds4
 .byte   W12
 .byte   Gn4
 .byte   W12
 .byte   As3
 .byte   W12
 .byte   Cn4
 .byte   W12
 .byte   Ds4
 .byte   W12
 .byte   Gn4
 .byte   W12
 .byte   PEND 
@  #01 @027   ----------------------------------------
Label_0100010D:
 .byte   N11 ,Cn4 ,v064
 .byte   W12
 .byte   Ds4
 .byte   W12
 .byte   Fn4
 .byte   W12
 .byte   As4
 .byte   W12
 .byte   Cn4
 .byte   W12
 .byte   Ds4
 .byte   W12
 .byte   Fn4
 .byte   W12
 .byte   As4
 .byte   W12
 .byte   PEND 
@  #01 @028   ----------------------------------------
Label_01000120:
 .byte   N11 ,Ds4 ,v064
 .byte   W12
 .byte   Fn4
 .byte   W12
 .byte   As4
 .byte   W12
 .byte   Cn5
 .byte   W12
 .byte   Ds4
 .byte   W12
 .byte   Fn4
 .byte   W12
 .byte   As4
 .byte   W12
 .byte   Cn5
 .byte   W12
 .byte   PEND 
@  #01 @029   ----------------------------------------
Label_01000133:
 .byte   N11 ,Gn3 ,v064
 .byte   W12
 .byte   As3
 .byte   W12
 .byte   Cn4
 .byte   W12
 .byte   Fn4
 .byte   W12
 .byte   Gn3
 .byte   W12
 .byte   As3
 .byte   W12
 .byte   Cn4
 .byte   W12
 .byte   Fn4
 .byte   W12
 .byte   PEND 
@  #01 @030   ----------------------------------------
 .byte   PATT
  .word Label_010000FA
@  #01 @031   ----------------------------------------
 .byte   PATT
  .word Label_0100010D
@  #01 @032   ----------------------------------------
Label_01000150:
 .byte   N11 ,Ds4 ,v064
 .byte   W12
 .byte   Fn4
 .byte   W12
 .byte   As4
 .byte   W12
 .byte   Cn5
 .byte   W12
 .byte   Ds4
 .byte   W12
 .byte   Fn4
 .byte   W12
 .byte   As4
 .byte   W12
 .byte   Cn5
 .byte   W12
 .byte   PEND 
@  #01 @033   ----------------------------------------
 .byte   PATT
  .word Label_010000E7
@  #01 @034   ----------------------------------------
 .byte   PATT
  .word Label_010000FA
@  #01 @035   ----------------------------------------
 .byte   PATT
  .word Label_0100010D
@  #01 @036   ----------------------------------------
 .byte   PATT
  .word Label_01000120
@  #01 @037   ----------------------------------------
 .byte   PATT
  .word Label_01000133
@  #01 @038   ----------------------------------------
 .byte   PATT
  .word Label_010000FA
@  #01 @039   ----------------------------------------
 .byte   PATT
  .word Label_0100010D
@  #01 @040   ----------------------------------------
 .byte   PATT
  .word Label_01000150
@  #01 @041   ----------------------------------------
 .byte   PATT
  .word Label_010000E7
@  #01 @042   ----------------------------------------
 .byte   PATT
  .word Label_010000FA
@  #01 @043   ----------------------------------------
 .byte   PATT
  .word Label_0100010D
@  #01 @044   ----------------------------------------
 .byte   PATT
  .word Label_01000120
@  #01 @045   ----------------------------------------
 .byte   N11 ,Gn3 ,v064
 .byte   W12
 .byte   As3
 .byte   W12
 .byte   Cn4
 .byte   W12
 .byte   Fn4
 .byte   W12
 .byte   Gn3
 .byte   W12
 .byte   As3
 .byte   W12
 .byte   Cn4
 .byte   W12
 .byte   Fn4
 .byte   W12
@  #01 @046   ----------------------------------------
 .byte   PATT
  .word Label_010000FA
@  #01 @047   ----------------------------------------
 .byte   PATT
  .word Label_0100010D
@  #01 @048   ----------------------------------------
 .byte   PATT
  .word Label_01000120
@  #01 @049   ----------------------------------------
 .byte   PATT
  .word Label_01000133
@  #01 @050   ----------------------------------------
 .byte   N11 ,Fn3 ,v060
 .byte   W12
 .byte   As3
 .byte   W12
 .byte   Cn4
 .byte   W12
 .byte   Fn4
 .byte   W12
 .byte   Fn3
 .byte   W12
 .byte   As3
 .byte   W12
 .byte   Cn4
 .byte   W12
 .byte   Fn4
 .byte   W12
@  #01 @051   ----------------------------------------
 .byte   Fn3 ,v056
 .byte   W12
 .byte   As3
 .byte   W12
 .byte   Cn4
 .byte   W12
 .byte   Ds4
 .byte   W12
 .byte   Fn3
 .byte   W12
 .byte   As3
 .byte   W12
 .byte   Cn4
 .byte   W12
 .byte   Ds4
 .byte   W12
@  #01 @052   ----------------------------------------
 .byte   Fn3 ,v052
 .byte   W12
 .byte   As3
 .byte   W12
 .byte   Cn4
 .byte   W12
 .byte   Cs4
 .byte   W12
 .byte   Fn3
 .byte   W12
 .byte   As3
 .byte   W12
 .byte   Cn4
 .byte   W12
 .byte   Cs4
 .byte   W12
@  #01 @053   ----------------------------------------
 .byte   W96
@  #01 @054   ----------------------------------------
 .byte   W96
@  #01 @055   ----------------------------------------
 .byte   W96
@  #01 @056   ----------------------------------------
 .byte   W96
@  #01 @057   ----------------------------------------
 .byte   W96
@  #01 @058   ----------------------------------------
 .byte   TEMPO , 140*UntamedGarden_tbs/2
 .byte   W96
@  #01 @059   ----------------------------------------
 .byte   W96
@  #01 @060   ----------------------------------------
 .byte   W96
@  #01 @061   ----------------------------------------
 .byte   W96
@  #01 @062   ----------------------------------------
 .byte   W96
@  #01 @063   ----------------------------------------
 .byte   W96
@  #01 @064   ----------------------------------------
 .byte   W96
@  #01 @065   ----------------------------------------
 .byte   W96
@  #01 @066   ----------------------------------------
 .byte   W96
@  #01 @067   ----------------------------------------
 .byte   W96
@  #01 @068   ----------------------------------------
 .byte   W96
@  #01 @069   ----------------------------------------
 .byte   W96
@  #01 @070   ----------------------------------------
 .byte   W96
@  #01 @071   ----------------------------------------
 .byte   W96
@  #01 @072   ----------------------------------------
 .byte   W96
@  #01 @073   ----------------------------------------
 .byte   W96
@  #01 @074   ----------------------------------------
 .byte   W96
@  #01 @075   ----------------------------------------
 .byte   W96
@  #01 @076   ----------------------------------------
 .byte   W96
@  #01 @077   ----------------------------------------
 .byte   W96
@  #01 @078   ----------------------------------------
 .byte   W96
@  #01 @079   ----------------------------------------
 .byte   W96
@  #01 @080   ----------------------------------------
 .byte   W96
@  #01 @081   ----------------------------------------
 .byte   W96
@  #01 @082   ----------------------------------------
 .byte   W96
@  #01 @083   ----------------------------------------
 .byte   W96
@  #01 @084   ----------------------------------------
 .byte   W96
@  #01 @085   ----------------------------------------
 .byte   W96
@  #01 @086   ----------------------------------------
 .byte   W96
@  #01 @087   ----------------------------------------
 .byte   W96
@  #01 @088   ----------------------------------------
 .byte   W96
@  #01 @089   ----------------------------------------
 .byte   W96
@  #01 @090   ----------------------------------------
 .byte   W96
@  #01 @091   ----------------------------------------
 .byte   W96
@  #01 @092   ----------------------------------------
 .byte   W96
@  #01 @093   ----------------------------------------
 .byte   W96
@  #01 @094   ----------------------------------------
 .byte   W96
@  #01 @095   ----------------------------------------
 .byte   W96
@  #01 @096   ----------------------------------------
 .byte   W96
@  #01 @097   ----------------------------------------
 .byte   TIE ,Cn5 ,v080
 .byte   W01
 .byte   Cn6
 .byte   W92
 .byte   W03
@  #01 @098   ----------------------------------------
 .byte   W92
 .byte   W03
 .byte   EOT
 .byte   Cn5 ,v096
 .byte   W01
@  #01 @099   ----------------------------------------
 .byte   N11 ,As3 ,v064
 .byte   W12
 .byte   Cs4
 .byte   W12
 .byte   As4
 .byte   W12
 .byte   N56 ,Fn4
 .byte   W60
@  #01 @100   ----------------------------------------
 .byte   N11 ,Ds4
 .byte   N11 ,Gn4
 .byte   W12
 .byte   Gn3
 .byte   W12
 .byte   As3
 .byte   W12
 .byte   N44 ,Ds4
 .byte   N44 ,Gn4
 .byte   W48
 .byte   N11 ,Dn4
 .byte   W12
@  #01 @101   ----------------------------------------
 .byte   Ds4
 .byte   W12
 .byte   Gn3
 .byte   W12
 .byte   As3
 .byte   W12
 .byte   N23 ,Ds4
 .byte   W24
 .byte   Fn4
 .byte   W24
 .byte   Cn4
 .byte   W12
@  #01 @102   ----------------------------------------
 .byte   N11 ,Ds2
 .byte   W12
 .byte   Gs2
 .byte   N11 ,Gs3
 .byte   W12
 .byte   Ds3
 .byte   N11 ,Cn4
 .byte   W12
 .byte   Cn3
 .byte   N23 ,Ds4
 .byte   W12
 .byte   Cn3
 .byte   W12
 .byte   N32 ,Fn4
 .byte   W36
@  #01 @103   ----------------------------------------
 .byte   N11 ,Fn3
 .byte   W12
 .byte   As3
 .byte   W12
 .byte   Dn4
 .byte   W12
 .byte   N32 ,Fn4
 .byte   W60
@  #01 @104   ----------------------------------------
 .byte   N11 ,Gn4
 .byte   W12
 .byte   Cn4
 .byte   W12
 .byte   Gn4
 .byte   W12
 .byte   N32 ,Cn5
 .byte   W60
@  #01 @105   ----------------------------------------
 .byte   N11 ,Gs3
 .byte   N11 ,Gn4
 .byte   W12
 .byte   Gn3
 .byte   W12
 .byte   As3
 .byte   W12
 .byte   N23 ,Cn4
 .byte   N23 ,Gn4
 .byte   W24
 .byte   N32 ,Fn4
 .byte   W36
@  #01 @106   ----------------------------------------
 .byte   W12
 .byte   N11 ,Gs3
 .byte   W12
 .byte   Cn4
 .byte   W12
 .byte   N32 ,Ds4
 .byte   W60
@  #01 @107   ----------------------------------------
Label_0100029F:
 .byte   N11 ,Fn4 ,v064
 .byte   N11 ,Gn4
 .byte   W12
 .byte   Gn3
 .byte   W12
 .byte   Bn3
 .byte   W12
 .byte   N32 ,Fn4
 .byte   N32 ,Gn4
 .byte   W60
 .byte   PEND 
@  #01 @108   ----------------------------------------
 .byte   PATT
  .word Label_0100029F
@  #01 @109   ----------------------------------------
 .byte   N11 ,Cn4 ,v064
 .byte   N11 ,Gn4
 .byte   W12
 .byte   Gn3
 .byte   W12
 .byte   N32 ,Cn4
 .byte   W12
 .byte   N23 ,Gn4
 .byte   W24
 .byte   N11 ,Cn4
 .byte   W12
 .byte   Gn3
 .byte   W12
 .byte   Fn3
 .byte   W12
@  #01 @110   ----------------------------------------
 .byte   En3
 .byte   W12
 .byte   Gn3
 .byte   W12
 .byte   Cn4
 .byte   W12
 .byte   N32 ,Gn4
 .byte   W60
@  #01 @111   ----------------------------------------
 .byte   N11 ,Fn4
 .byte   N11 ,Gn4
 .byte   W12
 .byte   Gn3
 .byte   W12
 .byte   Cn4
 .byte   W12
 .byte   N32 ,Fn4
 .byte   N32 ,Gn4
 .byte   W60
@  #01 @112   ----------------------------------------
 .byte   N11 ,Cs4
 .byte   N11 ,Fn4
 .byte   N11 ,Gn4
 .byte   W12
 .byte   Gn3
 .byte   W12
 .byte   Bn3
 .byte   W12
 .byte   N56 ,Cs4
 .byte   N56 ,Fn4
 .byte   N56 ,Gn4
 .byte   W60
@  #01 @113   ----------------------------------------
 .byte   N23
 .byte   W24
 .byte   N11 ,Cn4
 .byte   W12
 .byte   N23 ,Cn5
 .byte   W24
 .byte   Gn4
 .byte   W24
 .byte   N11 ,Cn4
 .byte   W12
@  #01 @114   ----------------------------------------
 .byte   N23 ,Fn4
 .byte   W24
 .byte   N11 ,Gn3
 .byte   W12
 .byte   N23 ,Cn4
 .byte   W24
 .byte   Gn4
 .byte   W24
 .byte   N11 ,Cn3
 .byte   W12
@  #01 @115   ----------------------------------------
 .byte   N23
 .byte   W24
 .byte   N11
 .byte   W12
 .byte   N23 ,Gn4
 .byte   W24
 .byte   Gn3
 .byte   W24
 .byte   N11 ,Gn4
 .byte   W12
@  #01 @116   ----------------------------------------
 .byte   N92 ,Gn5
 .byte   W96
@  #01 @117   ----------------------------------------
 .byte   W96
@  #01 @118   ----------------------------------------
 .byte   W96
@  #01 @119   ----------------------------------------
 .byte   W96
@  #01 @120   ----------------------------------------
 .byte   W96
@  #01 @121   ----------------------------------------
 .byte   W96
@  #01 @122   ----------------------------------------
 .byte   W96
@  #01 @123   ----------------------------------------
 .byte   W96
@  #01 @124   ----------------------------------------
 .byte   W96
@  #01 @125   ----------------------------------------
 .byte   W96
@  #01 @126   ----------------------------------------
 .byte   W96
@  #01 @127   ----------------------------------------
 .byte   W96
@  #01 @128   ----------------------------------------
 .byte   W96
@  #01 @129   ----------------------------------------
 .byte   W96
@  #01 @130   ----------------------------------------
 .byte   W96
@  #01 @131   ----------------------------------------
 .byte   W96
@  #01 @132   ----------------------------------------
 .byte   W96
@  #01 @133   ----------------------------------------
 .byte   W96
@  #01 @134   ----------------------------------------
 .byte   W96
@  #01 @135   ----------------------------------------
 .byte   W96
@  #01 @136   ----------------------------------------
 .byte   W96
@  #01 @137   ----------------------------------------
 .byte   W96
@  #01 @138   ----------------------------------------
 .byte   W96
@  #01 @139   ----------------------------------------
 .byte   W96
@  #01 @140   ----------------------------------------
 .byte   W96
@  #01 @141   ----------------------------------------
 .byte   W96
@  #01 @142   ----------------------------------------
 .byte   W96
@  #01 @143   ----------------------------------------
 .byte   W96
@  #01 @144   ----------------------------------------
 .byte   W96
@  #01 @145   ----------------------------------------
 .byte   W96
@  #01 @146   ----------------------------------------
 .byte   W96
@  #01 @147   ----------------------------------------
 .byte   W96
@  #01 @148   ----------------------------------------
 .byte   W96
@  #01 @149   ----------------------------------------
 .byte   W96
@  #01 @150   ----------------------------------------
 .byte   W96
@  #01 @151   ----------------------------------------
 .byte   W96
@  #01 @152   ----------------------------------------
 .byte   W96
@  #01 @153   ----------------------------------------
 .byte   W96
@  #01 @154   ----------------------------------------
 .byte   W96
@  #01 @155   ----------------------------------------
 .byte   W96
@  #01 @156   ----------------------------------------
 .byte   W96
@  #01 @157   ----------------------------------------
 .byte   W96
@  #01 @158   ----------------------------------------
 .byte   W96
@  #01 @159   ----------------------------------------
 .byte   W96
@  #01 @160   ----------------------------------------
 .byte   W96
@  #01 @161   ----------------------------------------
 .byte   W96
@  #01 @162   ----------------------------------------
 .byte   W96
@  #01 @163   ----------------------------------------
 .byte   W96
@  #01 @164   ----------------------------------------
 .byte   W96
@  #01 @165   ----------------------------------------
 .byte   W96
@  #01 @166   ----------------------------------------
 .byte   W96
@  #01 @167   ----------------------------------------
 .byte   W96
@  #01 @168   ----------------------------------------
 .byte   W96
@  #01 @169   ----------------------------------------
 .byte   W96
@  #01 @170   ----------------------------------------
 .byte   W96
@  #01 @171   ----------------------------------------
 .byte   TEMPO , 134*UntamedGarden_tbs/2
 .byte   N11 ,Gn3 ,v052
 .byte   W12
 .byte   As3
 .byte   W12
 .byte   Cn4
 .byte   W12
 .byte   Fn4
 .byte   W12
 .byte   Gn3
 .byte   W12
 .byte   As3
 .byte   W12
 .byte   Cn4
 .byte   W12
 .byte   Fn4
 .byte   W12
@  #01 @172   ----------------------------------------
 .byte   PATT
  .word Label_01000020
@  #01 @173   ----------------------------------------
 .byte   PATT
  .word Label_01000033
@  #01 @174   ----------------------------------------
 .byte   PATT
  .word Label_01000046
@  #01 @175   ----------------------------------------
 .byte   PATT
  .word Label_0100008F
@  #01 @176   ----------------------------------------
 .byte   PATT
  .word Label_01000020
@  #01 @177   ----------------------------------------
 .byte   PATT
  .word Label_01000033
@  #01 @178   ----------------------------------------
 .byte   PATT
  .word Label_01000046
@  #01 @179   ----------------------------------------
 .byte   GOTO
  .word Label_0100007B
 .byte   FINE

@**************** Track 2 (Midi-Chn.1) ****************@

UntamedGarden_002:
@  #02 @000   ----------------------------------------
 .byte   KEYSH , UntamedGarden_key+0
 .byte   VOICE , 38
 .byte   VOL , 46*UntamedGarden_mvl/mxv
 .byte   PAN , c_v+0
 .byte   VOL , 46*UntamedGarden_mvl/mxv
 .byte   PAN , c_v+0
 .byte   W96
@  #02 @001   ----------------------------------------
 .byte   W96
@  #02 @002   ----------------------------------------
 .byte   W96
@  #02 @003   ----------------------------------------
 .byte   W96
@  #02 @004   ----------------------------------------
 .byte   W96
@  #02 @005   ----------------------------------------
 .byte   W96
@  #02 @006   ----------------------------------------
 .byte   W96
@  #02 @007   ----------------------------------------
 .byte   W96
@  #02 @008   ----------------------------------------
Label_010008CC:
 .byte   W96
@  #02 @009   ----------------------------------------
 .byte   W96
@  #02 @010   ----------------------------------------
 .byte   W96
@  #02 @011   ----------------------------------------
 .byte   W96
@  #02 @012   ----------------------------------------
 .byte   W96
@  #02 @013   ----------------------------------------
 .byte   W96
@  #02 @014   ----------------------------------------
 .byte   W96
@  #02 @015   ----------------------------------------
 .byte   W96
@  #02 @016   ----------------------------------------
 .byte   W96
@  #02 @017   ----------------------------------------
 .byte   W96
@  #02 @018   ----------------------------------------
 .byte   W96
@  #02 @019   ----------------------------------------
 .byte   W96
@  #02 @020   ----------------------------------------
 .byte   W96
@  #02 @021   ----------------------------------------
 .byte   W96
@  #02 @022   ----------------------------------------
 .byte   W96
@  #02 @023   ----------------------------------------
 .byte   W96
@  #02 @024   ----------------------------------------
 .byte   W96
@  #02 @025   ----------------------------------------
 .byte   W96
@  #02 @026   ----------------------------------------
 .byte   W96
@  #02 @027   ----------------------------------------
 .byte   W96
@  #02 @028   ----------------------------------------
 .byte   W96
@  #02 @029   ----------------------------------------
 .byte   W96
@  #02 @030   ----------------------------------------
 .byte   W96
@  #02 @031   ----------------------------------------
 .byte   W96
@  #02 @032   ----------------------------------------
 .byte   W96
@  #02 @033   ----------------------------------------
 .byte   W96
@  #02 @034   ----------------------------------------
 .byte   W96
@  #02 @035   ----------------------------------------
 .byte   W96
@  #02 @036   ----------------------------------------
 .byte   W96
@  #02 @037   ----------------------------------------
 .byte   W96
@  #02 @038   ----------------------------------------
 .byte   W96
@  #02 @039   ----------------------------------------
 .byte   W96
@  #02 @040   ----------------------------------------
 .byte   W96
@  #02 @041   ----------------------------------------
 .byte   W96
@  #02 @042   ----------------------------------------
 .byte   W96
@  #02 @043   ----------------------------------------
 .byte   W96
@  #02 @044   ----------------------------------------
 .byte   W96
@  #02 @045   ----------------------------------------
 .byte   W96
@  #02 @046   ----------------------------------------
 .byte   W96
@  #02 @047   ----------------------------------------
 .byte   W96
@  #02 @048   ----------------------------------------
 .byte   W96
@  #02 @049   ----------------------------------------
 .byte   W96
@  #02 @050   ----------------------------------------
 .byte   W96
@  #02 @051   ----------------------------------------
 .byte   W96
@  #02 @052   ----------------------------------------
 .byte   W96
@  #02 @053   ----------------------------------------
 .byte   W96
@  #02 @054   ----------------------------------------
 .byte   W96
@  #02 @055   ----------------------------------------
 .byte   W96
@  #02 @056   ----------------------------------------
 .byte   W96
@  #02 @057   ----------------------------------------
 .byte   W48
 .byte   N11 ,Ds1 ,v080
 .byte   W12
 .byte   N32 ,En1
 .byte   W36
@  #02 @058   ----------------------------------------
 .byte   N44 ,Gn0
 .byte   W72
 .byte   N11 ,Gs0
 .byte   W12
 .byte   As0
 .byte   W12
@  #02 @059   ----------------------------------------
Label_0100090D:
 .byte   N68 ,Cn1 ,v080
 .byte   W72
 .byte   N23
 .byte   W24
 .byte   PEND 
@  #02 @060   ----------------------------------------
 .byte   N68 ,Fn1
 .byte   W72
 .byte   N23
 .byte   W24
@  #02 @061   ----------------------------------------
Label_01000919:
 .byte   N68 ,Ds1 ,v080
 .byte   W72
 .byte   N23
 .byte   W24
 .byte   PEND 
@  #02 @062   ----------------------------------------
Label_01000920:
 .byte   N68 ,Cs1 ,v080
 .byte   W72
 .byte   N23
 .byte   W24
 .byte   PEND 
@  #02 @063   ----------------------------------------
 .byte   N68 ,As0
 .byte   W72
 .byte   N11 ,Gs0
 .byte   W12
 .byte   As0
 .byte   W12
@  #02 @064   ----------------------------------------
Label_0100092F:
 .byte   N68 ,Cn1 ,v080
 .byte   W72
 .byte   N23 ,Gn0
 .byte   W24
 .byte   PEND 
@  #02 @065   ----------------------------------------
 .byte   N68 ,Cn1
 .byte   W72
 .byte   N23 ,Fn0
 .byte   W24
@  #02 @066   ----------------------------------------
 .byte   N68 ,Gn0
 .byte   W72
 .byte   N11 ,Gs0
 .byte   W12
 .byte   As0
 .byte   W12
@  #02 @067   ----------------------------------------
 .byte   PATT
  .word Label_0100090D
@  #02 @068   ----------------------------------------
 .byte   N44 ,Fn1 ,v080
 .byte   W48
 .byte   N23 ,Cn2
 .byte   W24
 .byte   Fn1
 .byte   W24
@  #02 @069   ----------------------------------------
 .byte   PATT
  .word Label_01000919
@  #02 @070   ----------------------------------------
 .byte   N68 ,As0 ,v080
 .byte   W72
 .byte   N23 ,Cs1
 .byte   W24
@  #02 @071   ----------------------------------------
 .byte   PATT
  .word Label_0100090D
@  #02 @072   ----------------------------------------
 .byte   N68 ,Fn0 ,v080
 .byte   W72
 .byte   N23 ,Cn1
 .byte   W24
@  #02 @073   ----------------------------------------
 .byte   PATT
  .word Label_01000919
@  #02 @074   ----------------------------------------
 .byte   PATT
  .word Label_01000920
@  #02 @075   ----------------------------------------
 .byte   N68 ,As0 ,v080
 .byte   W72
 .byte   N23
 .byte   W24
@  #02 @076   ----------------------------------------
 .byte   PATT
  .word Label_0100092F
@  #02 @077   ----------------------------------------
 .byte   N92 ,Cn1 ,v080
 .byte   W96
@  #02 @078   ----------------------------------------
Label_01000984:
 .byte   N68 ,Gn0 ,v080
 .byte   N44 ,As3 ,v112
 .byte   W48
 .byte   N68 ,Gn4
 .byte   W24
 .byte   N11 ,Gs0 ,v080
 .byte   W12
 .byte   As0
 .byte   W12
 .byte   PEND 
@  #02 @079   ----------------------------------------
 .byte   N68 ,Cn1
 .byte   W24
 .byte   N23 ,Gn4 ,v112
 .byte   W24
 .byte   Gs4
 .byte   W24
 .byte   Cn1 ,v080
 .byte   N23 ,Gn4 ,v112
 .byte   W24
@  #02 @080   ----------------------------------------
 .byte   N68 ,Fn1 ,v080
 .byte   N92 ,Cn4 ,v112
 .byte   W72
 .byte   N23 ,Fn1 ,v080
 .byte   W24
@  #02 @081   ----------------------------------------
Label_010009AF:
 .byte   N68 ,Ds1 ,v080
 .byte   W24
 .byte   N23 ,Fn3 ,v112
 .byte   W24
 .byte   Gn3
 .byte   W24
 .byte   Ds1 ,v080
 .byte   N23 ,Gs3 ,v112
 .byte   W24
 .byte   PEND 
@  #02 @082   ----------------------------------------
 .byte   N68 ,Cs1 ,v080
 .byte   N23 ,Cn4 ,v112
 .byte   W24
 .byte   As3
 .byte   W24
 .byte   N23
 .byte   W24
 .byte   Cs1 ,v080
 .byte   N23 ,Fn3 ,v112
 .byte   W24
@  #02 @083   ----------------------------------------
 .byte   N68 ,As0 ,v080
 .byte   N23 ,Ds4 ,v112
 .byte   W24
 .byte   Cs4
 .byte   W24
 .byte   N23
 .byte   W24
 .byte   N11 ,Gs0 ,v080
 .byte   N23 ,Fn3 ,v112
 .byte   W12
 .byte   N11 ,As0 ,v080
 .byte   W12
@  #02 @084   ----------------------------------------
 .byte   N68 ,Cn1
 .byte   TIE ,Cn4 ,v112
 .byte   W72
 .byte   N23 ,Gn0 ,v080
 .byte   W24
@  #02 @085   ----------------------------------------
 .byte   N11 ,Cn1
 .byte   W24
 .byte   N44
 .byte   W23
 .byte   EOT
 .byte   Cn4
 .byte   W24
 .byte   W01
 .byte   N23 ,Fn0
 .byte   W24
@  #02 @086   ----------------------------------------
 .byte   PATT
  .word Label_01000984
@  #02 @087   ----------------------------------------
 .byte   N68 ,Cn1 ,v080
 .byte   W24
 .byte   N23 ,Gn4 ,v112
 .byte   W24
 .byte   Gs4
 .byte   W24
 .byte   Cn1 ,v080
 .byte   N23 ,As4 ,v112
 .byte   W24
@  #02 @088   ----------------------------------------
 .byte   N44 ,Fn1 ,v080
 .byte   N23 ,Gn4 ,v112
 .byte   W24
 .byte   Fn4
 .byte   W24
 .byte   Cn2 ,v080
 .byte   N44 ,Fn4 ,v112
 .byte   W24
 .byte   N23 ,Fn1 ,v080
 .byte   W24
@  #02 @089   ----------------------------------------
 .byte   PATT
  .word Label_010009AF
@  #02 @090   ----------------------------------------
 .byte   N68 ,As0 ,v080
 .byte   N23 ,As3 ,v112
 .byte   W24
 .byte   N44 ,Cn4
 .byte   W48
 .byte   N11 ,As0 ,v080
 .byte   N11 ,As3 ,v112
 .byte   W12
 .byte   Cs1 ,v080
 .byte   N11 ,Gs3 ,v112
 .byte   W12
@  #02 @091   ----------------------------------------
 .byte   N68 ,Cn1 ,v080
 .byte   N23 ,As3 ,v112
 .byte   W24
 .byte   N44 ,Cn4
 .byte   W48
 .byte   N23 ,Cn1 ,v080
 .byte   N23 ,Cn3 ,v112
 .byte   W24
@  #02 @092   ----------------------------------------
 .byte   N68 ,Fn0 ,v080
 .byte   N23 ,Gn3 ,v112
 .byte   W24
 .byte   Fn3
 .byte   W24
 .byte   N44
 .byte   W24
 .byte   N23 ,Cn1 ,v080
 .byte   W24
@  #02 @093   ----------------------------------------
 .byte   PATT
  .word Label_010009AF
@  #02 @094   ----------------------------------------
 .byte   N68 ,Cs1 ,v080
 .byte   N23 ,As3 ,v112
 .byte   W24
 .byte   N44 ,Cn4
 .byte   W48
 .byte   N23 ,Cs1 ,v080
 .byte   N11 ,As3 ,v112
 .byte   W12
 .byte   Gs3
 .byte   W12
@  #02 @095   ----------------------------------------
 .byte   N68 ,As0 ,v080
 .byte   TIE ,Gn3 ,v112
 .byte   W72
 .byte   N23 ,As0 ,v080
 .byte   W24
@  #02 @096   ----------------------------------------
 .byte   TIE ,Cn1
 .byte   W44
 .byte   W03
 .byte   EOT
 .byte   Gn3
 .byte   W48
 .byte   W01
@  #02 @097   ----------------------------------------
 .byte   W92
 .byte   W03
 .byte   Cn1
 .byte   W01
@  #02 @098   ----------------------------------------
 .byte   W96
@  #02 @099   ----------------------------------------
 .byte   W96
@  #02 @100   ----------------------------------------
 .byte   W96
@  #02 @101   ----------------------------------------
 .byte   W96
@  #02 @102   ----------------------------------------
 .byte   W96
@  #02 @103   ----------------------------------------
 .byte   W96
@  #02 @104   ----------------------------------------
 .byte   W96
@  #02 @105   ----------------------------------------
 .byte   W96
@  #02 @106   ----------------------------------------
 .byte   W96
@  #02 @107   ----------------------------------------
 .byte   W96
@  #02 @108   ----------------------------------------
 .byte   W96
@  #02 @109   ----------------------------------------
 .byte   W96
@  #02 @110   ----------------------------------------
 .byte   W96
@  #02 @111   ----------------------------------------
 .byte   W96
@  #02 @112   ----------------------------------------
 .byte   W96
@  #02 @113   ----------------------------------------
 .byte   W96
@  #02 @114   ----------------------------------------
 .byte   W96
@  #02 @115   ----------------------------------------
 .byte   W48
 .byte   N11 ,Fn1
 .byte   W12
 .byte   N32 ,Gn1
 .byte   W36
@  #02 @116   ----------------------------------------
 .byte   N56 ,Gn0
 .byte   W60
 .byte   N11
 .byte   W12
 .byte   As0
 .byte   W12
 .byte   Gn0
 .byte   W12
@  #02 @117   ----------------------------------------
 .byte   Cn1
 .byte   W24
 .byte   N44
 .byte   W48
 .byte   N23
 .byte   W24
@  #02 @118   ----------------------------------------
 .byte   N11 ,Fn1
 .byte   W12
 .byte   Gn1
 .byte   W12
 .byte   N32 ,Fn1
 .byte   W36
 .byte   N11 ,Cn1
 .byte   W12
 .byte   Fn1
 .byte   W12
 .byte   Cn1
 .byte   W12
@  #02 @119   ----------------------------------------
 .byte   Ds1
 .byte   W24
 .byte   N44
 .byte   W48
 .byte   N23
 .byte   W24
@  #02 @120   ----------------------------------------
 .byte   N32 ,Dn1
 .byte   W36
 .byte   N11 ,As0
 .byte   W12
 .byte   Dn1
 .byte   W12
 .byte   As0
 .byte   W12
 .byte   N23 ,Dn1
 .byte   W24
@  #02 @121   ----------------------------------------
 .byte   N32 ,Cn1
 .byte   W36
 .byte   N11 ,Fn0
 .byte   W12
 .byte   Gs0
 .byte   W12
 .byte   Gn0
 .byte   W12
 .byte   N23 ,Fs0
 .byte   W24
@  #02 @122   ----------------------------------------
 .byte   N32 ,Fn0
 .byte   W36
 .byte   N05 ,Gs0
 .byte   W06
 .byte   Cn1
 .byte   W06
 .byte   N11 ,Fn1
 .byte   W12
 .byte   Gn1
 .byte   W12
 .byte   N23 ,Gs1
 .byte   W24
@  #02 @123   ----------------------------------------
 .byte   N56 ,Ds1
 .byte   W60
 .byte   N11 ,As0
 .byte   W12
 .byte   N23 ,Ds1
 .byte   W24
@  #02 @124   ----------------------------------------
 .byte   N44 ,Dn1
 .byte   W36
 .byte   N11 ,Gs1
 .byte   W12
 .byte   N23 ,An1
 .byte   W24
 .byte   N11 ,Gs1
 .byte   W12
 .byte   Dn1
 .byte   W12
@  #02 @125   ----------------------------------------
 .byte   Cs1
 .byte   W24
 .byte   N44
 .byte   W48
 .byte   N11 ,Gn1
 .byte   W12
 .byte   Cs1
 .byte   W12
@  #02 @126   ----------------------------------------
 .byte   N56 ,Cn1
 .byte   W60
 .byte   N11 ,Gn1
 .byte   W24
 .byte   N11
 .byte   W12
@  #02 @127   ----------------------------------------
 .byte   N32 ,Cn2
 .byte   W36
 .byte   N11 ,As1
 .byte   W12
 .byte   Cn2
 .byte   W12
 .byte   As1
 .byte   W12
 .byte   N23 ,Gn1
 .byte   W24
@  #02 @128   ----------------------------------------
 .byte   N56 ,Dn1
 .byte   W60
 .byte   N11 ,Gn0
 .byte   W12
 .byte   Dn1
 .byte   W12
 .byte   Gn0
 .byte   W12
@  #02 @129   ----------------------------------------
 .byte   Cs1
 .byte   W24
 .byte   N23
 .byte   W24
 .byte   Gs1
 .byte   W24
 .byte   Cs1
 .byte   W24
@  #02 @130   ----------------------------------------
 .byte   N56 ,Cn1
 .byte   W60
 .byte   N11 ,Gn1
 .byte   W12
 .byte   Cn2
 .byte   W12
 .byte   Dn2
 .byte   W12
@  #02 @131   ----------------------------------------
 .byte   Cn2
 .byte   W24
 .byte   Bn1
 .byte   W12
 .byte   Gn1
 .byte   W12
 .byte   N44 ,Cn1
 .byte   W48
@  #02 @132   ----------------------------------------
 .byte   N56 ,Gn0
 .byte   N68 ,As3 ,v112
 .byte   W60
 .byte   N11 ,Gn0 ,v080
 .byte   W12
 .byte   As0
 .byte   N11 ,Cn4 ,v112
 .byte   W12
 .byte   Gn0 ,v080
 .byte   N11 ,Cs4 ,v112
 .byte   W12
@  #02 @133   ----------------------------------------
 .byte   N23 ,Cn1 ,v080
 .byte   N68 ,Ds4 ,v112
 .byte   W24
 .byte   N44 ,Cn1 ,v080
 .byte   W48
 .byte   N23 ,Gn0
 .byte   N11 ,Fn4 ,v112
 .byte   W12
 .byte   Gn4
 .byte   W12
@  #02 @134   ----------------------------------------
 .byte   Fn1 ,v080
 .byte   N44 ,Gn4 ,v112
 .byte   W12
 .byte   N11 ,Gn1 ,v080
 .byte   W12
 .byte   N32 ,Fn1
 .byte   W24
 .byte   N44 ,Fn4 ,v112
 .byte   W12
 .byte   N11 ,Gs0 ,v080
 .byte   W12
 .byte   Cn1
 .byte   W12
 .byte   Fn1
 .byte   W12
@  #02 @135   ----------------------------------------
 .byte   N23 ,Ds1
 .byte   N05 ,Fn4 ,v112
 .byte   W12
 .byte   N02 ,En4
 .byte   W06
 .byte   Fn4
 .byte   W06
 .byte   N32 ,Ds1 ,v080
 .byte   N11 ,Gn4 ,v112
 .byte   W12
 .byte   Fn4
 .byte   W12
 .byte   Cn4
 .byte   W12
 .byte   As0 ,v080
 .byte   N11 ,Gs3 ,v112
 .byte   W12
 .byte   N23 ,Ds1 ,v080
 .byte   N11 ,Gn3 ,v112
 .byte   W12
 .byte   Fn3
 .byte   W12
@  #02 @136   ----------------------------------------
 .byte   N44 ,Dn1 ,v080
 .byte   N92 ,As3 ,v112
 .byte   W48
 .byte   N11 ,Ds1 ,v080
 .byte   W11
 .byte   N23 ,As1
 .byte   W24
 .byte   W01
 .byte   N11 ,Dn1
 .byte   W12
@  #02 @137   ----------------------------------------
 .byte   Cn1
 .byte   N68 ,En3 ,v112
 .byte   W24
 .byte   N32 ,Cn1 ,v080
 .byte   W36
 .byte   N11 ,Fn0
 .byte   W12
 .byte   Gs0
 .byte   N11 ,Fn3 ,v112
 .byte   W12
 .byte   Gn0 ,v080
 .byte   N11 ,Gn3 ,v112
 .byte   W12
@  #02 @138   ----------------------------------------
 .byte   Fn0 ,v080
 .byte   N68 ,Gs3 ,v112
 .byte   W12
 .byte   N11 ,Cn1 ,v080
 .byte   W12
 .byte   Fn1
 .byte   W12
 .byte   Gn1
 .byte   W12
 .byte   Gs1
 .byte   W12
 .byte   Gn1
 .byte   W12
 .byte   N23 ,Fn1
 .byte   N11 ,En3 ,v112
 .byte   W12
 .byte   Fn3
 .byte   W12
@  #02 @139   ----------------------------------------
 .byte   Ds1 ,v080
 .byte   N11 ,Gn3 ,v112
 .byte   W12
 .byte   Gs3
 .byte   W12
 .byte   N44 ,Ds1 ,v080
 .byte   N11 ,As3 ,v112
 .byte   W12
 .byte   Cn4
 .byte   W12
 .byte   N06 ,Dn4
 .byte   W06
 .byte   Ds4
 .byte   W07
 .byte   Fn4
 .byte   W07
 .byte   Gn4
 .byte   W04
 .byte   N23 ,Ds1 ,v080
 .byte   W03
 .byte   N06 ,Gs4 ,v112
 .byte   W07
 .byte   As4
 .byte   W07
 .byte   Cn5
 .byte   W07
@  #02 @140   ----------------------------------------
 .byte   N23 ,Dn1 ,v080
 .byte   N92 ,Dn5 ,v112
 .byte   W24
 .byte   N23 ,Bn1 ,v080
 .byte   W24
 .byte   N05 ,En2
 .byte   W06
 .byte   Fs2
 .byte   W06
 .byte   N23 ,Bn1
 .byte   W24
 .byte   N11 ,Dn1
 .byte   W12
@  #02 @141   ----------------------------------------
Label_01000C35:
 .byte   N11 ,Cs1 ,v080
 .byte   TIE ,Gn5 ,v112
 .byte   W24
 .byte   N44 ,Cs1 ,v080
 .byte   W48
 .byte   N11 ,Gs1
 .byte   W12
 .byte   Cs1
 .byte   W12
 .byte   PEND 
@  #02 @142   ----------------------------------------
 .byte   N32 ,Cn1
 .byte   W36
 .byte   N23
 .byte   W24
 .byte   N11 ,Gn1
 .byte   W12
 .byte   Cn2
 .byte   W12
 .byte   Dn2
 .byte   W11
 .byte   EOT
 .byte   Gn5
 .byte   W01
@  #02 @143   ----------------------------------------
 .byte   N32 ,En2
 .byte   N92 ,Gn5 ,v112
 .byte   W36
 .byte   N11 ,Cn2 ,v080
 .byte   W12
 .byte   N44 ,Gn1
 .byte   W48
@  #02 @144   ----------------------------------------
 .byte   Dn1
 .byte   N92 ,Dn5 ,v112
 .byte   W48
 .byte   N23 ,Dn1 ,v080
 .byte   W24
 .byte   N11 ,Gn1
 .byte   W12
 .byte   Dn1
 .byte   W12
@  #02 @145   ----------------------------------------
 .byte   PATT
  .word Label_01000C35
@  #02 @146   ----------------------------------------
 .byte   N32 ,Cn1 ,v080
 .byte   W36
 .byte   N23
 .byte   W24
 .byte   N11
 .byte   W12
 .byte   N23 ,Gn1
 .byte   W23
 .byte   EOT
 .byte   Gn5
 .byte   W01
@  #02 @147   ----------------------------------------
 .byte   N32 ,Cn2
 .byte   N92 ,Gn5 ,v112
 .byte   W36
 .byte   N11 ,Gn1 ,v080
 .byte   W12
 .byte   N44 ,Cn1
 .byte   W48
@  #02 @148   ----------------------------------------
 .byte   TIE ,Fn0
 .byte   W96
@  #02 @149   ----------------------------------------
 .byte   W96
@  #02 @150   ----------------------------------------
 .byte   W96
@  #02 @151   ----------------------------------------
 .byte   W80
 .byte   W03
 .byte   EOT
 .byte   W01
 .byte   N11 ,Cn1
 .byte   W12
@  #02 @152   ----------------------------------------
 .byte   TIE ,Fn1
 .byte   W96
@  #02 @153   ----------------------------------------
 .byte   W96
@  #02 @154   ----------------------------------------
 .byte   W96
@  #02 @155   ----------------------------------------
 .byte   W92
 .byte   W03
 .byte   EOT
 .byte   W01
@  #02 @156   ----------------------------------------
 .byte   TIE ,Fn0
 .byte   W96
@  #02 @157   ----------------------------------------
 .byte   W96
@  #02 @158   ----------------------------------------
 .byte   W96
@  #02 @159   ----------------------------------------
 .byte   W68
 .byte   W03
 .byte   EOT
 .byte   W01
 .byte   N20 ,En1
 .byte   W21
 .byte   N01 ,Dn1
 .byte   N01 ,Ds1
 .byte   W01
 .byte   Cs1
 .byte   W02
@  #02 @160   ----------------------------------------
 .byte   TIE ,Fn0
 .byte   W96
@  #02 @161   ----------------------------------------
 .byte   W96
@  #02 @162   ----------------------------------------
 .byte   W96
@  #02 @163   ----------------------------------------
 .byte   W92
 .byte   W03
 .byte   EOT
 .byte   W01
@  #02 @164   ----------------------------------------
 .byte   W96
@  #02 @165   ----------------------------------------
 .byte   W96
@  #02 @166   ----------------------------------------
 .byte   W96
@  #02 @167   ----------------------------------------
 .byte   W96
@  #02 @168   ----------------------------------------
 .byte   W96
@  #02 @169   ----------------------------------------
 .byte   W96
@  #02 @170   ----------------------------------------
 .byte   W96
@  #02 @171   ----------------------------------------
 .byte   W96
@  #02 @172   ----------------------------------------
 .byte   W96
@  #02 @173   ----------------------------------------
 .byte   W96
@  #02 @174   ----------------------------------------
 .byte   W96
@  #02 @175   ----------------------------------------
 .byte   W96
@  #02 @176   ----------------------------------------
 .byte   W96
@  #02 @177   ----------------------------------------
 .byte   W96
@  #02 @178   ----------------------------------------
 .byte   GOTO
  .word Label_010008CC
 .byte   FINE

@**************** Track 3 (Midi-Chn.2) ****************@

UntamedGarden_003:
@  #03 @000   ----------------------------------------
 .byte   KEYSH , UntamedGarden_key+0
 .byte   VOICE , 48
 .byte   VOL , 46*UntamedGarden_mvl/mxv
 .byte   PAN , c_v+0
 .byte   VOL , 46*UntamedGarden_mvl/mxv
 .byte   PAN , c_v+0
 .byte   W96
@  #03 @001   ----------------------------------------
 .byte   W96
@  #03 @002   ----------------------------------------
 .byte   W96
@  #03 @003   ----------------------------------------
 .byte   W96
@  #03 @004   ----------------------------------------
 .byte   W96
@  #03 @005   ----------------------------------------
 .byte   W96
@  #03 @006   ----------------------------------------
 .byte   W96
@  #03 @007   ----------------------------------------
 .byte   W96
@  #03 @008   ----------------------------------------
Label_D0FFCC:
 .byte   W96
@  #03 @009   ----------------------------------------
 .byte   W96
@  #03 @010   ----------------------------------------
 .byte   W96
@  #03 @011   ----------------------------------------
 .byte   W96
@  #03 @012   ----------------------------------------
 .byte   W96
@  #03 @013   ----------------------------------------
 .byte   W96
@  #03 @014   ----------------------------------------
 .byte   W96
@  #03 @015   ----------------------------------------
 .byte   W96
@  #03 @016   ----------------------------------------
 .byte   W96
@  #03 @017   ----------------------------------------
 .byte   W96
@  #03 @018   ----------------------------------------
 .byte   W96
@  #03 @019   ----------------------------------------
 .byte   W96
@  #03 @020   ----------------------------------------
 .byte   W96
@  #03 @021   ----------------------------------------
 .byte   W96
@  #03 @022   ----------------------------------------
 .byte   W96
@  #03 @023   ----------------------------------------
 .byte   W96
@  #03 @024   ----------------------------------------
Label_D0FFDC:
 .byte   N44 ,Gn2 ,v080
 .byte   W48
 .byte   N92 ,Gn3
 .byte   W48
 .byte   PEND 
@  #03 @025   ----------------------------------------
Label_D0FFE4:
 .byte   W48
 .byte   N44 ,Fn3 ,v080
 .byte   W48
 .byte   PEND 
@  #03 @026   ----------------------------------------
Label_D0FFEA:
 .byte   N92 ,Cn3 ,v080
 .byte   W96
 .byte   PEND 
@  #03 @027   ----------------------------------------
 .byte   Ds3
 .byte   W96
@  #03 @028   ----------------------------------------
 .byte   PATT
  .word Label_D0FFDC
@  #03 @029   ----------------------------------------
 .byte   PATT
  .word Label_D0FFE4
@  #03 @030   ----------------------------------------
 .byte   N92 ,As3 ,v080
 .byte   W96
@  #03 @031   ----------------------------------------
 .byte   Cn4
 .byte   W96
@  #03 @032   ----------------------------------------
 .byte   PATT
  .word Label_D0FFDC
@  #03 @033   ----------------------------------------
 .byte   PATT
  .word Label_D0FFE4
@  #03 @034   ----------------------------------------
 .byte   TIE ,Cn3 ,v080
 .byte   W96
@  #03 @035   ----------------------------------------
Label_D1000F:
 .byte   W92
 .byte   W03
 .byte   PEND 
 .byte   EOT
 .byte   Cn3
 .byte   W01
@  #03 @036   ----------------------------------------
 .byte   PATT
  .word Label_D0FFDC
@  #03 @037   ----------------------------------------
 .byte   PATT
  .word Label_D0FFE4
@  #03 @038   ----------------------------------------
 .byte   PATT
  .word Label_D0FFEA
@  #03 @039   ----------------------------------------
 .byte   N92 ,As2 ,v080
 .byte   W96
@  #03 @040   ----------------------------------------
Label_D10028:
 .byte   N92 ,Gn2 ,v080
 .byte   W96
 .byte   PEND 
@  #03 @041   ----------------------------------------
Label_D1002D:
 .byte   N92 ,Fn3 ,v080
 .byte   W96
 .byte   PEND 
@  #03 @042   ----------------------------------------
Label_D10032:
 .byte   TIE ,Ds3 ,v080
 .byte   W96
 .byte   PEND 
@  #03 @043   ----------------------------------------
 .byte   PATT
  .word Label_D1000F
@  #03 @044   ----------------------------------------
 .byte   EOT
 .byte   Ds3
 .byte   W01
@  #03 @045   ----------------------------------------
 .byte   PATT
  .word Label_D10028
@  #03 @046   ----------------------------------------
 .byte   PATT
  .word Label_D1002D
@  #03 @047   ----------------------------------------
 .byte   PATT
  .word Label_D10032
@  #03 @048   ----------------------------------------
 .byte   W96
@  #03 @049   ----------------------------------------
 .byte   W96
@  #03 @050   ----------------------------------------
 .byte   PATT
  .word Label_D1000F
@  #03 @051   ----------------------------------------
 .byte   EOT
 .byte   Ds3
 .byte   W01
 .byte   W96
@  #03 @052   ----------------------------------------
 .byte   W96
@  #03 @053   ----------------------------------------
 .byte   W96
@  #03 @054   ----------------------------------------
 .byte   W96
@  #03 @055   ----------------------------------------
 .byte   W96
@  #03 @056   ----------------------------------------
 .byte   W96
@  #03 @057   ----------------------------------------
 .byte   W96
@  #03 @058   ----------------------------------------
 .byte   W96
@  #03 @059   ----------------------------------------
 .byte   W96
@  #03 @060   ----------------------------------------
 .byte   W96
@  #03 @061   ----------------------------------------
Label_D10062:
 .byte   N92 ,Fn2 ,v080
 .byte   W96
 .byte   PEND 
@  #03 @062   ----------------------------------------
Label_D10067:
 .byte   N92 ,Ds2 ,v080
 .byte   W96
 .byte   PEND 
@  #03 @063   ----------------------------------------
Label_D1006C:
 .byte   N92 ,Cs2 ,v080
 .byte   N92 ,Fn2
 .byte   W96
 .byte   PEND 
@  #03 @064   ----------------------------------------
Label_D10073:
 .byte   N92 ,Fn2 ,v080
 .byte   N92 ,Gs2
 .byte   W96
 .byte   PEND 
@  #03 @065   ----------------------------------------
Label_D1007A:
 .byte   TIE ,En2 ,v080
 .byte   W96
 .byte   PEND 
@  #03 @066   ----------------------------------------
 .byte   PATT
  .word Label_D1000F
@  #03 @067   ----------------------------------------
 .byte   EOT
 .byte   En2
 .byte   W01
 .byte   W96
@  #03 @068   ----------------------------------------
 .byte   W96
@  #03 @069   ----------------------------------------
 .byte   PATT
  .word Label_D10062
@  #03 @070   ----------------------------------------
 .byte   PATT
  .word Label_D10067
@  #03 @071   ----------------------------------------
 .byte   PATT
  .word Label_D1006C
@  #03 @072   ----------------------------------------
Label_D10098:
 .byte   N92 ,Ds2 ,v080
 .byte   N92 ,Gn2
 .byte   W96
 .byte   PEND 
@  #03 @073   ----------------------------------------
 .byte   PATT
  .word Label_D10062
@  #03 @074   ----------------------------------------
 .byte   PATT
  .word Label_D10067
@  #03 @075   ----------------------------------------
 .byte   PATT
  .word Label_D1006C
@  #03 @076   ----------------------------------------
 .byte   PATT
  .word Label_D10073
@  #03 @077   ----------------------------------------
 .byte   TIE ,Cn2 ,v080
 .byte   TIE ,En2
 .byte   W96
@  #03 @078   ----------------------------------------
 .byte   PATT
  .word Label_D1000F
@  #03 @079   ----------------------------------------
 .byte   EOT
 .byte   Cn2 ,v052
 .byte   W01
 .byte   W96
@  #03 @080   ----------------------------------------
 .byte   W96
@  #03 @081   ----------------------------------------
 .byte   PATT
  .word Label_D10062
@  #03 @082   ----------------------------------------
 .byte   PATT
  .word Label_D10067
@  #03 @083   ----------------------------------------
 .byte   PATT
  .word Label_D1006C
@  #03 @084   ----------------------------------------
 .byte   PATT
  .word Label_D10073
@  #03 @085   ----------------------------------------
 .byte   PATT
  .word Label_D1007A
@  #03 @086   ----------------------------------------
 .byte   PATT
  .word Label_D1000F
@  #03 @087   ----------------------------------------
 .byte   EOT
 .byte   En2
 .byte   W01
 .byte   W96
@  #03 @088   ----------------------------------------
 .byte   W96
@  #03 @089   ----------------------------------------
 .byte   PATT
  .word Label_D10062
@  #03 @090   ----------------------------------------
 .byte   PATT
  .word Label_D10067
@  #03 @091   ----------------------------------------
 .byte   PATT
  .word Label_D1006C
@  #03 @092   ----------------------------------------
 .byte   PATT
  .word Label_D10098
@  #03 @093   ----------------------------------------
 .byte   PATT
  .word Label_D10062
@  #03 @094   ----------------------------------------
 .byte   PATT
  .word Label_D10067
@  #03 @095   ----------------------------------------
 .byte   PATT
  .word Label_D1006C
@  #03 @096   ----------------------------------------
 .byte   TIE ,Cn2 ,v080
 .byte   N92 ,Fn2
 .byte   W96
@  #03 @097   ----------------------------------------
 .byte   En2
 .byte   W92
 .byte   W03
 .byte   EOT
 .byte   Cn2
 .byte   W01
@  #03 @098   ----------------------------------------
 .byte   W96
@  #03 @099   ----------------------------------------
 .byte   W96
@  #03 @100   ----------------------------------------
 .byte   W96
@  #03 @101   ----------------------------------------
 .byte   W96
@  #03 @102   ----------------------------------------
 .byte   W96
@  #03 @103   ----------------------------------------
 .byte   W96
@  #03 @104   ----------------------------------------
 .byte   W96
@  #03 @105   ----------------------------------------
 .byte   W96
@  #03 @106   ----------------------------------------
 .byte   W96
@  #03 @107   ----------------------------------------
 .byte   W96
@  #03 @108   ----------------------------------------
 .byte   W96
@  #03 @109   ----------------------------------------
 .byte   W96
@  #03 @110   ----------------------------------------
 .byte   W96
@  #03 @111   ----------------------------------------
 .byte   W96
@  #03 @112   ----------------------------------------
 .byte   W96
@  #03 @113   ----------------------------------------
 .byte   W96
@  #03 @114   ----------------------------------------
 .byte   W96
@  #03 @115   ----------------------------------------
 .byte   W96
@  #03 @116   ----------------------------------------
 .byte   W96
@  #03 @117   ----------------------------------------
 .byte   W96
@  #03 @118   ----------------------------------------
 .byte   W96
@  #03 @119   ----------------------------------------
 .byte   N23 ,Gn3 ,v096
 .byte   W24
 .byte   En3
 .byte   W24
 .byte   Fn3
 .byte   W24
 .byte   N44 ,Cn3
 .byte   W24
@  #03 @120   ----------------------------------------
 .byte   W24
 .byte   N23 ,Gs2
 .byte   W24
 .byte   Gn2
 .byte   W24
 .byte   Fn2
 .byte   W24
@  #03 @121   ----------------------------------------
 .byte   N92 ,As2
 .byte   W96
@  #03 @122   ----------------------------------------
 .byte   N44 ,En2
 .byte   W48
 .byte   N23 ,Fn2
 .byte   W24
 .byte   Gn2
 .byte   W24
@  #03 @123   ----------------------------------------
 .byte   Fn2
 .byte   W24
 .byte   N44 ,Cn2
 .byte   W48
 .byte   N23 ,Fn2
 .byte   W24
@  #03 @124   ----------------------------------------
Label_D10151:
 .byte   N23 ,Gn2 ,v096
 .byte   W24
 .byte   Gs2
 .byte   W24
 .byte   As2
 .byte   W24
 .byte   Cn3
 .byte   W24
 .byte   PEND 
@  #03 @125   ----------------------------------------
 .byte   N44 ,Dn3
 .byte   W48
 .byte   N92 ,Gn2
 .byte   W48
@  #03 @126   ----------------------------------------
 .byte   W48
 .byte   N44 ,Fn2
 .byte   W48
@  #03 @127   ----------------------------------------
 .byte   TIE ,Cn2
 .byte   W96
@  #03 @128   ----------------------------------------
Label_D10169:
 .byte   W92
 .byte   W03
 .byte   PEND 
 .byte   EOT
 .byte   Cn2
 .byte   W01
@  #03 @129   ----------------------------------------
Label_D1016F:
 .byte   N92 ,Gn2 ,v096
 .byte   W96
 .byte   PEND 
@  #03 @130   ----------------------------------------
 .byte   N68 ,Fn3
 .byte   W72
 .byte   N11 ,Ds3
 .byte   W12
 .byte   Cs3
 .byte   W12
@  #03 @131   ----------------------------------------
 .byte   TIE ,Cn3
 .byte   W96
@  #03 @132   ----------------------------------------
 .byte   W23
 .byte   EOT
 .byte   W01
 .byte   N23 ,Fn2
 .byte   W24
 .byte   Gn2
 .byte   W24
 .byte   Gs2
 .byte   W24
@  #03 @133   ----------------------------------------
 .byte   N44 ,As2
 .byte   W48
 .byte   Fn2
 .byte   W48
@  #03 @134   ----------------------------------------
 .byte   N92 ,Gn2
 .byte   W48
 .byte   N44 ,Ds3
 .byte   W48
@  #03 @135   ----------------------------------------
 .byte   N23 ,As2
 .byte   W24
 .byte   N44 ,Gs2
 .byte   W48
 .byte   Gn2
 .byte   W24
@  #03 @136   ----------------------------------------
 .byte   W24
 .byte   N23 ,Fn2
 .byte   W24
 .byte   Gn2
 .byte   W24
 .byte   Gs2
 .byte   W24
@  #03 @137   ----------------------------------------
 .byte   N44 ,Dn2
 .byte   W48
 .byte   As2
 .byte   W48
@  #03 @138   ----------------------------------------
 .byte   N68 ,En2
 .byte   W72
 .byte   N11 ,Fn2
 .byte   W12
 .byte   Gn2
 .byte   W12
@  #03 @139   ----------------------------------------
 .byte   N23
 .byte   W24
 .byte   En2
 .byte   W24
 .byte   Fn2
 .byte   W24
 .byte   Gn2
 .byte   W24
@  #03 @140   ----------------------------------------
 .byte   PATT
  .word Label_D10151
@  #03 @141   ----------------------------------------
Label_D101BE:
 .byte   N44 ,Dn3 ,v096
 .byte   W48
 .byte   Gn2
 .byte   W48
 .byte   PEND 
@  #03 @142   ----------------------------------------
Label_D101C5:
 .byte   N68 ,Gn3 ,v096
 .byte   W72
 .byte   N23 ,Fn3
 .byte   W24
 .byte   PEND 
@  #03 @143   ----------------------------------------
Label_D101CD:
 .byte   N68 ,Cn3 ,v096
 .byte   W72
 .byte   N11 ,As2
 .byte   W12
 .byte   Gs2
 .byte   W12
 .byte   PEND 
@  #03 @144   ----------------------------------------
 .byte   PATT
  .word Label_D1016F
@  #03 @145   ----------------------------------------
 .byte   PATT
  .word Label_D101BE
@  #03 @146   ----------------------------------------
 .byte   PATT
  .word Label_D101C5
@  #03 @147   ----------------------------------------
 .byte   PATT
  .word Label_D101CD
@  #03 @148   ----------------------------------------
 .byte   PATT
  .word Label_D1016F
@  #03 @149   ----------------------------------------
Label_D101F0:
 .byte   TIE ,Fn1 ,v096
 .byte   W96
 .byte   PEND 
@  #03 @150   ----------------------------------------
 .byte   W96
@  #03 @151   ----------------------------------------
 .byte   W96
@  #03 @152   ----------------------------------------
 .byte   PATT
  .word Label_D10169
@  #03 @153   ----------------------------------------
 .byte   EOT
 .byte   Fn1
 .byte   W01
@  #03 @154   ----------------------------------------
 .byte   PATT
  .word Label_D101F0
@  #03 @155   ----------------------------------------
 .byte   W96
@  #03 @156   ----------------------------------------
 .byte   W96
@  #03 @157   ----------------------------------------
 .byte   W44
 .byte   W03
 .byte   EOT
 .byte   Fn1
 .byte   W01
 .byte   N44 ,Cn2 ,v096
 .byte   W48
@  #03 @158   ----------------------------------------
Label_D1020F:
 .byte   TIE ,Fn2 ,v096
 .byte   W96
 .byte   PEND 
@  #03 @159   ----------------------------------------
 .byte   W96
@  #03 @160   ----------------------------------------
 .byte   W96
@  #03 @161   ----------------------------------------
 .byte   PATT
  .word Label_D10169
@  #03 @162   ----------------------------------------
 .byte   EOT
 .byte   Fn2
 .byte   W01
@  #03 @163   ----------------------------------------
 .byte   PATT
  .word Label_D1020F
@  #03 @164   ----------------------------------------
 .byte   W96
@  #03 @165   ----------------------------------------
 .byte   PATT
  .word Label_D10169
@  #03 @166   ----------------------------------------
 .byte   EOT
 .byte   Fn2
 .byte   W01
 .byte   TIE ,Gn2 ,v096
 .byte   W04
 .byte   W05
 .byte   W05
 .byte   W05
 .byte   W05
 .byte   W04
 .byte   W05
 .byte   W05
 .byte   W05
 .byte   W05
 .byte   W04
 .byte   W05
 .byte   W05
 .byte   W05
 .byte   W05
 .byte   W04
 .byte   W05
 .byte   W05
 .byte   W05
 .byte   W05
@  #03 @167   ----------------------------------------
 .byte   W04
 .byte   W05
 .byte   W05
 .byte   W05
 .byte   W05
 .byte   W04
 .byte   W05
 .byte   W05
 .byte   W05
 .byte   W05
 .byte   W04
 .byte   W05
 .byte   W05
 .byte   W05
 .byte   W05
 .byte   W04
 .byte   W05
 .byte   W05
 .byte   W05
 .byte   W05
@  #03 @168   ----------------------------------------
 .byte   W04
 .byte   W05
 .byte   W05
 .byte   W05
 .byte   W05
 .byte   W04
 .byte   W05
 .byte   W05
 .byte   W05
 .byte   W05
 .byte   W04
 .byte   W05
 .byte   W05
 .byte   W05
 .byte   W05
 .byte   W04
 .byte   W05
 .byte   W05
 .byte   W05
 .byte   W05
@  #03 @169   ----------------------------------------
 .byte   W04
 .byte   W05
 .byte   W05
 .byte   W05
 .byte   W05
 .byte   W04
 .byte   W05
 .byte   W05
 .byte   W05
 .byte   W05
 .byte   W04
 .byte   W05
 .byte   W05
 .byte   W05
 .byte   W05
 .byte   W04
 .byte   W05
 .byte   W05
 .byte   W05
 .byte   W05
@  #03 @170   ----------------------------------------
 .byte   W96
@  #03 @171   ----------------------------------------
 .byte   W96
@  #03 @172   ----------------------------------------
 .byte   W92
 .byte   W03
 .byte   EOT
 .byte   W01
@  #03 @173   ----------------------------------------
 .byte   W96
@  #03 @174   ----------------------------------------
 .byte   W96
@  #03 @175   ----------------------------------------
 .byte   W96
@  #03 @176   ----------------------------------------
 .byte   W96
@  #03 @177   ----------------------------------------
 .byte   W96
@  #03 @178   ----------------------------------------
 .byte   W96
@  #03 @179   ----------------------------------------
 .byte   W96
@  #03 @180   ----------------------------------------
 .byte   W96
@  #03 @181   ----------------------------------------
 .byte   GOTO
  .word Label_D0FFCC
 .byte   FINE

@**************** Track 4 (Midi-Chn.3) ****************@

UntamedGarden_004:
@  #04 @000   ----------------------------------------
 .byte   KEYSH , UntamedGarden_key+0
 .byte   VOICE , 52
 .byte   VOL , 29*UntamedGarden_mvl/mxv
 .byte   PAN , c_v+0
 .byte   PAN , c_v+0
 .byte   W96
@  #04 @001   ----------------------------------------
 .byte   W96
@  #04 @002   ----------------------------------------
 .byte   W96
@  #04 @003   ----------------------------------------
 .byte   W96
@  #04 @004   ----------------------------------------
 .byte   W96
@  #04 @005   ----------------------------------------
 .byte   W96
@  #04 @006   ----------------------------------------
 .byte   W96
@  #04 @007   ----------------------------------------
 .byte   W96
@  #04 @008   ----------------------------------------
Label_D0F926:
 .byte   TIE ,Gn3 ,v052
 .byte   TIE ,Ds4
 .byte   W96
 .byte   PEND 
@  #04 @009   ----------------------------------------
 .byte   W96
@  #04 @010   ----------------------------------------
 .byte   W96
@  #04 @011   ----------------------------------------
Label_D0F92F:
 .byte   W92
 .byte   W03
 .byte   PEND 
 .byte   EOT
 .byte   Gn3 ,v075
 .byte   W01
@  #04 @012   ----------------------------------------
Label_D0F936:
 .byte   TIE ,As3 ,v052
 .byte   TIE ,Fn4
 .byte   W96
 .byte   PEND 
@  #04 @013   ----------------------------------------
 .byte   PATT
  .word Label_D0F92F
@  #04 @014   ----------------------------------------
 .byte   EOT
 .byte   As3 ,v077
 .byte   W01
Label_D0F946:
 .byte   TIE ,Cn4 ,v052
 .byte   TIE ,Gn4
 .byte   W96
 .byte   PEND 
@  #04 @015   ----------------------------------------
 .byte   PATT
  .word Label_D0F92F
@  #04 @016   ----------------------------------------
 .byte   EOT
 .byte   Cn4 ,v079
 .byte   W01
@  #04 @017   ----------------------------------------
 .byte   PATT
  .word Label_D0F926
@  #04 @018   ----------------------------------------
 .byte   W96
@  #04 @019   ----------------------------------------
 .byte   W96
@  #04 @020   ----------------------------------------
 .byte   PATT
  .word Label_D0F92F
@  #04 @021   ----------------------------------------
 .byte   EOT
 .byte   Gn3 ,v075
 .byte   W01
@  #04 @022   ----------------------------------------
 .byte   PATT
  .word Label_D0F936
@  #04 @023   ----------------------------------------
 .byte   PATT
  .word Label_D0F92F
@  #04 @024   ----------------------------------------
 .byte   EOT
 .byte   As3 ,v077
 .byte   W01
@  #04 @025   ----------------------------------------
 .byte   PATT
  .word Label_D0F946
@  #04 @026   ----------------------------------------
 .byte   PATT
  .word Label_D0F92F
@  #04 @027   ----------------------------------------
 .byte   EOT
 .byte   Cn4 ,v079
 .byte   W01
@  #04 @028   ----------------------------------------
 .byte   PATT
  .word Label_D0F926
@  #04 @029   ----------------------------------------
 .byte   W96
@  #04 @030   ----------------------------------------
 .byte   W96
@  #04 @031   ----------------------------------------
 .byte   PATT
  .word Label_D0F92F
@  #04 @032   ----------------------------------------
 .byte   EOT
 .byte   Gn3 ,v075
 .byte   W01
@  #04 @033   ----------------------------------------
 .byte   PATT
  .word Label_D0F936
@  #04 @034   ----------------------------------------
 .byte   PATT
  .word Label_D0F92F
@  #04 @035   ----------------------------------------
 .byte   EOT
 .byte   As3 ,v077
 .byte   W01
@  #04 @036   ----------------------------------------
 .byte   PATT
  .word Label_D0F946
@  #04 @037   ----------------------------------------
 .byte   PATT
  .word Label_D0F92F
@  #04 @038   ----------------------------------------
 .byte   EOT
 .byte   Cn4 ,v079
 .byte   W01
@  #04 @039   ----------------------------------------
 .byte   PATT
  .word Label_D0F926
@  #04 @040   ----------------------------------------
 .byte   W96
@  #04 @041   ----------------------------------------
 .byte   W96
@  #04 @042   ----------------------------------------
 .byte   W96
@  #04 @043   ----------------------------------------
 .byte   W96
@  #04 @044   ----------------------------------------
 .byte   W96
@  #04 @045   ----------------------------------------
 .byte   W96
@  #04 @046   ----------------------------------------
 .byte   PATT
  .word Label_D0F92F
@  #04 @047   ----------------------------------------
 .byte   EOT
 .byte   Gn3 ,v075
 .byte   W01
@  #04 @048   ----------------------------------------
 .byte   PATT
  .word Label_D0F926
@  #04 @049   ----------------------------------------
 .byte   W96
@  #04 @050   ----------------------------------------
 .byte   W96
@  #04 @051   ----------------------------------------
 .byte   W96
@  #04 @052   ----------------------------------------
 .byte   W96
@  #04 @053   ----------------------------------------
 .byte   W96
@  #04 @054   ----------------------------------------
 .byte   W96
@  #04 @055   ----------------------------------------
 .byte   PATT
  .word Label_D0F92F
@  #04 @056   ----------------------------------------
 .byte   EOT
 .byte   Gn3 ,v075
 .byte   W01
 .byte   W96
@  #04 @057   ----------------------------------------
 .byte   W96
@  #04 @058   ----------------------------------------
 .byte   W96
@  #04 @059   ----------------------------------------
 .byte   W96
@  #04 @060   ----------------------------------------
 .byte   W96
@  #04 @061   ----------------------------------------
 .byte   W96
@  #04 @062   ----------------------------------------
 .byte   W96
@  #04 @063   ----------------------------------------
 .byte   W96
@  #04 @064   ----------------------------------------
 .byte   W96
@  #04 @065   ----------------------------------------
 .byte   W96
@  #04 @066   ----------------------------------------
 .byte   W96
@  #04 @067   ----------------------------------------
 .byte   W96
@  #04 @068   ----------------------------------------
 .byte   W96
@  #04 @069   ----------------------------------------
 .byte   W96
@  #04 @070   ----------------------------------------
 .byte   W96
@  #04 @071   ----------------------------------------
 .byte   W96
@  #04 @072   ----------------------------------------
 .byte   W96
@  #04 @073   ----------------------------------------
 .byte   W96
@  #04 @074   ----------------------------------------
 .byte   W96
@  #04 @075   ----------------------------------------
 .byte   W96
@  #04 @076   ----------------------------------------
 .byte   W96
@  #04 @077   ----------------------------------------
 .byte   W96
@  #04 @078   ----------------------------------------
 .byte   W96
@  #04 @079   ----------------------------------------
 .byte   W96
@  #04 @080   ----------------------------------------
 .byte   W96
@  #04 @081   ----------------------------------------
 .byte   W96
@  #04 @082   ----------------------------------------
 .byte   W96
@  #04 @083   ----------------------------------------
 .byte   W96
@  #04 @084   ----------------------------------------
 .byte   W96
@  #04 @085   ----------------------------------------
 .byte   W96
@  #04 @086   ----------------------------------------
 .byte   W96
@  #04 @087   ----------------------------------------
 .byte   W96
@  #04 @088   ----------------------------------------
 .byte   W96
@  #04 @089   ----------------------------------------
 .byte   W96
@  #04 @090   ----------------------------------------
 .byte   W96
@  #04 @091   ----------------------------------------
 .byte   W96
@  #04 @092   ----------------------------------------
 .byte   W96
@  #04 @093   ----------------------------------------
 .byte   W96
@  #04 @094   ----------------------------------------
 .byte   W96
@  #04 @095   ----------------------------------------
 .byte   W96
@  #04 @096   ----------------------------------------
 .byte   W96
@  #04 @097   ----------------------------------------
 .byte   W96
@  #04 @098   ----------------------------------------
 .byte   W96
@  #04 @099   ----------------------------------------
 .byte   W96
@  #04 @100   ----------------------------------------
 .byte   W96
@  #04 @101   ----------------------------------------
 .byte   W96
@  #04 @102   ----------------------------------------
 .byte   W96
@  #04 @103   ----------------------------------------
 .byte   W96
@  #04 @104   ----------------------------------------
 .byte   W96
@  #04 @105   ----------------------------------------
 .byte   W96
@  #04 @106   ----------------------------------------
 .byte   W96
@  #04 @107   ----------------------------------------
 .byte   W96
@  #04 @108   ----------------------------------------
 .byte   W96
@  #04 @109   ----------------------------------------
 .byte   W96
@  #04 @110   ----------------------------------------
 .byte   W96
@  #04 @111   ----------------------------------------
 .byte   W96
@  #04 @112   ----------------------------------------
 .byte   W96
@  #04 @113   ----------------------------------------
 .byte   W96
@  #04 @114   ----------------------------------------
 .byte   W96
@  #04 @115   ----------------------------------------
 .byte   W96
@  #04 @116   ----------------------------------------
 .byte   W96
@  #04 @117   ----------------------------------------
 .byte   W96
@  #04 @118   ----------------------------------------
 .byte   W96
@  #04 @119   ----------------------------------------
 .byte   W96
@  #04 @120   ----------------------------------------
 .byte   W96
@  #04 @121   ----------------------------------------
 .byte   W96
@  #04 @122   ----------------------------------------
 .byte   W96
@  #04 @123   ----------------------------------------
 .byte   W96
@  #04 @124   ----------------------------------------
 .byte   W96
@  #04 @125   ----------------------------------------
 .byte   W96
@  #04 @126   ----------------------------------------
 .byte   W96
@  #04 @127   ----------------------------------------
 .byte   W96
@  #04 @128   ----------------------------------------
 .byte   W96
@  #04 @129   ----------------------------------------
 .byte   W96
@  #04 @130   ----------------------------------------
 .byte   W96
@  #04 @131   ----------------------------------------
 .byte   W96
@  #04 @132   ----------------------------------------
 .byte   W96
@  #04 @133   ----------------------------------------
 .byte   W96
@  #04 @134   ----------------------------------------
 .byte   W96
@  #04 @135   ----------------------------------------
 .byte   W96
@  #04 @136   ----------------------------------------
 .byte   W96
@  #04 @137   ----------------------------------------
 .byte   W96
@  #04 @138   ----------------------------------------
 .byte   W96
@  #04 @139   ----------------------------------------
 .byte   W96
@  #04 @140   ----------------------------------------
 .byte   W96
@  #04 @141   ----------------------------------------
 .byte   W96
@  #04 @142   ----------------------------------------
 .byte   W96
@  #04 @143   ----------------------------------------
 .byte   W96
@  #04 @144   ----------------------------------------
 .byte   W96
@  #04 @145   ----------------------------------------
 .byte   W96
@  #04 @146   ----------------------------------------
 .byte   W96
@  #04 @147   ----------------------------------------
 .byte   W96
@  #04 @148   ----------------------------------------
 .byte   W96
@  #04 @149   ----------------------------------------
 .byte   W96
@  #04 @150   ----------------------------------------
 .byte   W96
@  #04 @151   ----------------------------------------
 .byte   W96
@  #04 @152   ----------------------------------------
 .byte   W96
@  #04 @153   ----------------------------------------
 .byte   W96
@  #04 @154   ----------------------------------------
 .byte   W96
@  #04 @155   ----------------------------------------
 .byte   W96
@  #04 @156   ----------------------------------------
 .byte   W96
@  #04 @157   ----------------------------------------
 .byte   W96
@  #04 @158   ----------------------------------------
 .byte   W96
@  #04 @159   ----------------------------------------
 .byte   W96
@  #04 @160   ----------------------------------------
 .byte   W96
@  #04 @161   ----------------------------------------
 .byte   W96
@  #04 @162   ----------------------------------------
 .byte   W96
@  #04 @163   ----------------------------------------
 .byte   W96
@  #04 @164   ----------------------------------------
 .byte   W96
@  #04 @165   ----------------------------------------
 .byte   W96
@  #04 @166   ----------------------------------------
 .byte   W96
@  #04 @167   ----------------------------------------
 .byte   W96
@  #04 @168   ----------------------------------------
 .byte   W96
@  #04 @169   ----------------------------------------
 .byte   W96
@  #04 @170   ----------------------------------------
 .byte   W96
@  #04 @171   ----------------------------------------
 .byte   W96
@  #04 @172   ----------------------------------------
 .byte   W96
@  #04 @173   ----------------------------------------
 .byte   W96
@  #04 @174   ----------------------------------------
 .byte   W96
@  #04 @175   ----------------------------------------
 .byte   W96
@  #04 @176   ----------------------------------------
 .byte   W96
@  #04 @177   ----------------------------------------
 .byte   W96
@  #04 @178   ----------------------------------------
 .byte   W96
@  #04 @179   ----------------------------------------
 .byte   W96
@  #04 @180   ----------------------------------------
 .byte   W96
@  #04 @181   ----------------------------------------
 .byte   W96
@  #04 @182   ----------------------------------------
 .byte   W96
@  #04 @183   ----------------------------------------
 .byte   W96
@  #04 @184   ----------------------------------------
 .byte   W96
@  #04 @185   ----------------------------------------
 .byte   W96
@  #04 @186   ----------------------------------------
 .byte   GOTO
  .word Label_D0F926
 .byte   FINE

@**************** Track 5 (Midi-Chn.4) ****************@

UntamedGarden_005:
@  #05 @000   ----------------------------------------
 .byte   KEYSH , UntamedGarden_key+0
 .byte   VOICE , 74
 .byte   VOL , 46*UntamedGarden_mvl/mxv
 .byte   PAN , c_v+0
 .byte   VOL , 46*UntamedGarden_mvl/mxv
 .byte   PAN , c_v+0
 .byte   W96
@  #05 @001   ----------------------------------------
 .byte   W96
@  #05 @002   ----------------------------------------
 .byte   W96
@  #05 @003   ----------------------------------------
 .byte   W96
@  #05 @004   ----------------------------------------
 .byte   W96
@  #05 @005   ----------------------------------------
 .byte   W96
@  #05 @006   ----------------------------------------
 .byte   W96
@  #05 @007   ----------------------------------------
 .byte   W96
@  #05 @008   ----------------------------------------
Label_D10858:
 .byte   W96
@  #05 @009   ----------------------------------------
 .byte   W96
@  #05 @010   ----------------------------------------
 .byte   W96
@  #05 @011   ----------------------------------------
 .byte   W96
@  #05 @012   ----------------------------------------
 .byte   W96
@  #05 @013   ----------------------------------------
 .byte   W96
@  #05 @014   ----------------------------------------
 .byte   W96
@  #05 @015   ----------------------------------------
 .byte   W96
@  #05 @016   ----------------------------------------
 .byte   W96
@  #05 @017   ----------------------------------------
 .byte   W96
@  #05 @018   ----------------------------------------
 .byte   W96
@  #05 @019   ----------------------------------------
 .byte   W96
@  #05 @020   ----------------------------------------
 .byte   W96
@  #05 @021   ----------------------------------------
 .byte   W96
@  #05 @022   ----------------------------------------
 .byte   W96
@  #05 @023   ----------------------------------------
 .byte   W96
@  #05 @024   ----------------------------------------
 .byte   W96
@  #05 @025   ----------------------------------------
 .byte   W96
@  #05 @026   ----------------------------------------
 .byte   W96
@  #05 @027   ----------------------------------------
 .byte   W96
@  #05 @028   ----------------------------------------
 .byte   W96
@  #05 @029   ----------------------------------------
 .byte   W96
@  #05 @030   ----------------------------------------
 .byte   W96
@  #05 @031   ----------------------------------------
 .byte   W96
@  #05 @032   ----------------------------------------
 .byte   W96
@  #05 @033   ----------------------------------------
 .byte   W96
@  #05 @034   ----------------------------------------
 .byte   W96
@  #05 @035   ----------------------------------------
 .byte   W96
@  #05 @036   ----------------------------------------
 .byte   W96
@  #05 @037   ----------------------------------------
 .byte   W96
@  #05 @038   ----------------------------------------
 .byte   W96
@  #05 @039   ----------------------------------------
 .byte   W96
@  #05 @040   ----------------------------------------
 .byte   W96
@  #05 @041   ----------------------------------------
 .byte   W96
@  #05 @042   ----------------------------------------
 .byte   W96
@  #05 @043   ----------------------------------------
 .byte   W96
@  #05 @044   ----------------------------------------
 .byte   W96
@  #05 @045   ----------------------------------------
 .byte   W96
@  #05 @046   ----------------------------------------
 .byte   W96
@  #05 @047   ----------------------------------------
 .byte   W96
@  #05 @048   ----------------------------------------
 .byte   W96
@  #05 @049   ----------------------------------------
 .byte   W96
@  #05 @050   ----------------------------------------
 .byte   W96
@  #05 @051   ----------------------------------------
 .byte   W96
@  #05 @052   ----------------------------------------
 .byte   W96
@  #05 @053   ----------------------------------------
 .byte   W96
@  #05 @054   ----------------------------------------
 .byte   W96
@  #05 @055   ----------------------------------------
 .byte   W96
@  #05 @056   ----------------------------------------
 .byte   W96
@  #05 @057   ----------------------------------------
 .byte   W96
@  #05 @058   ----------------------------------------
 .byte   W96
@  #05 @059   ----------------------------------------
 .byte   W96
@  #05 @060   ----------------------------------------
 .byte   W96
@  #05 @061   ----------------------------------------
 .byte   W96
@  #05 @062   ----------------------------------------
 .byte   W96
@  #05 @063   ----------------------------------------
 .byte   W96
@  #05 @064   ----------------------------------------
 .byte   W96
@  #05 @065   ----------------------------------------
 .byte   W96
@  #05 @066   ----------------------------------------
 .byte   W96
@  #05 @067   ----------------------------------------
 .byte   W96
@  #05 @068   ----------------------------------------
 .byte   W96
@  #05 @069   ----------------------------------------
 .byte   W96
@  #05 @070   ----------------------------------------
 .byte   W96
@  #05 @071   ----------------------------------------
 .byte   W96
@  #05 @072   ----------------------------------------
 .byte   W96
@  #05 @073   ----------------------------------------
 .byte   W96
@  #05 @074   ----------------------------------------
 .byte   W96
@  #05 @075   ----------------------------------------
 .byte   W96
@  #05 @076   ----------------------------------------
 .byte   W96
@  #05 @077   ----------------------------------------
 .byte   W96
@  #05 @078   ----------------------------------------
 .byte   W96
@  #05 @079   ----------------------------------------
 .byte   W96
@  #05 @080   ----------------------------------------
 .byte   W96
@  #05 @081   ----------------------------------------
 .byte   W96
@  #05 @082   ----------------------------------------
 .byte   W96
@  #05 @083   ----------------------------------------
 .byte   W96
@  #05 @084   ----------------------------------------
 .byte   W96
@  #05 @085   ----------------------------------------
 .byte   W96
@  #05 @086   ----------------------------------------
 .byte   W96
@  #05 @087   ----------------------------------------
 .byte   W96
@  #05 @088   ----------------------------------------
 .byte   W96
@  #05 @089   ----------------------------------------
 .byte   W96
@  #05 @090   ----------------------------------------
 .byte   W96
@  #05 @091   ----------------------------------------
 .byte   W96
@  #05 @092   ----------------------------------------
 .byte   W96
@  #05 @093   ----------------------------------------
 .byte   W96
@  #05 @094   ----------------------------------------
 .byte   W96
@  #05 @095   ----------------------------------------
 .byte   W96
@  #05 @096   ----------------------------------------
 .byte   W96
@  #05 @097   ----------------------------------------
 .byte   W96
@  #05 @098   ----------------------------------------
 .byte   W96
@  #05 @099   ----------------------------------------
 .byte   W96
@  #05 @100   ----------------------------------------
 .byte   W96
@  #05 @101   ----------------------------------------
 .byte   W96
@  #05 @102   ----------------------------------------
 .byte   W96
@  #05 @103   ----------------------------------------
 .byte   W96
@  #05 @104   ----------------------------------------
 .byte   W96
@  #05 @105   ----------------------------------------
 .byte   W96
@  #05 @106   ----------------------------------------
 .byte   W96
@  #05 @107   ----------------------------------------
 .byte   W96
@  #05 @108   ----------------------------------------
 .byte   W96
@  #05 @109   ----------------------------------------
 .byte   W96
@  #05 @110   ----------------------------------------
 .byte   W96
@  #05 @111   ----------------------------------------
 .byte   W96
@  #05 @112   ----------------------------------------
 .byte   W96
@  #05 @113   ----------------------------------------
 .byte   W96
@  #05 @114   ----------------------------------------
 .byte   W96
@  #05 @115   ----------------------------------------
 .byte   W24
 .byte   N23 ,Fn3 ,v080
 .byte   W24
 .byte   Gn3
 .byte   W24
 .byte   Gs3
 .byte   W24
@  #05 @116   ----------------------------------------
 .byte   N68 ,As3
 .byte   W72
 .byte   N11 ,Cn4 ,v112
 .byte   W12
 .byte   Cs4
 .byte   W12
@  #05 @117   ----------------------------------------
Label_D108D5:
 .byte   N68 ,Ds4 ,v112
 .byte   W72
 .byte   N11 ,Fn4
 .byte   W12
 .byte   Gn4
 .byte   W12
 .byte   PEND 
@  #05 @118   ----------------------------------------
Label_D108DF:
 .byte   N92 ,Cn4 ,v112
 .byte   W96
 .byte   PEND 
@  #05 @119   ----------------------------------------
Label_D108E4:
 .byte   W24
 .byte   N23 ,Fn3 ,v112
 .byte   W24
 .byte   Gn3
 .byte   W24
 .byte   Gs3
 .byte   W24
 .byte   PEND 
@  #05 @120   ----------------------------------------
Label_D108EE:
 .byte   N68 ,As3 ,v112
 .byte   W72
 .byte   N11 ,Cn4
 .byte   W12
 .byte   Cs4
 .byte   W12
 .byte   PEND 
@  #05 @121   ----------------------------------------
Label_D108F8:
 .byte   N56 ,Cn4 ,v112
 .byte   W48
 .byte   W12
 .byte   N11 ,Gn3
 .byte   W12
 .byte   Cn4
 .byte   W12
 .byte   As3
 .byte   W12
 .byte   PEND 
@  #05 @122   ----------------------------------------
 .byte   TIE ,Gs3
 .byte   W96
@  #05 @123   ----------------------------------------
Label_D10908:
 .byte   W44
 .byte   W03
 .byte   PEND 
 .byte   EOT
 .byte   Gs3
 .byte   W24
 .byte   W01
 .byte   N23 ,Gs3 ,v112
 .byte   W24
@  #05 @124   ----------------------------------------
Label_D10913:
 .byte   N68 ,Gn3 ,v112
 .byte   W72
 .byte   N23 ,Fn3
 .byte   W24
 .byte   PEND 
@  #05 @125   ----------------------------------------
Label_D1091B:
 .byte   N68 ,Gn3 ,v112
 .byte   W72
 .byte   N11
 .byte   W12
 .byte   Fn3
 .byte   W12
 .byte   PEND 
@  #05 @126   ----------------------------------------
Label_D10924:
 .byte   TIE ,Gn3 ,v112
 .byte   W96
 .byte   PEND 
@  #05 @127   ----------------------------------------
 .byte   PATT
  .word Label_D10908
@  #05 @128   ----------------------------------------
 .byte   EOT
 .byte   Gn3
 .byte   W24
 .byte   W01
 .byte   N23 ,Dn3 ,v112
 .byte   W24
@  #05 @129   ----------------------------------------
 .byte   PATT
  .word Label_D10913
@  #05 @130   ----------------------------------------
 .byte   N68 ,Gn3 ,v112
 .byte   W72
 .byte   N11 ,Ds4
 .byte   W12
 .byte   Cs4
 .byte   W12
@  #05 @131   ----------------------------------------
 .byte   PATT
  .word Label_D108DF
@  #05 @132   ----------------------------------------
 .byte   PATT
  .word Label_D108E4
@  #05 @133   ----------------------------------------
 .byte   PATT
  .word Label_D108EE
@  #05 @134   ----------------------------------------
 .byte   PATT
  .word Label_D108D5
@  #05 @135   ----------------------------------------
 .byte   PATT
  .word Label_D108DF
@  #05 @136   ----------------------------------------
 .byte   PATT
  .word Label_D108E4
@  #05 @137   ----------------------------------------
 .byte   PATT
  .word Label_D108EE
@  #05 @138   ----------------------------------------
 .byte   PATT
  .word Label_D108F8
@  #05 @139   ----------------------------------------
 .byte   N92 ,Gs3 ,v112
 .byte   W96
@  #05 @140   ----------------------------------------
 .byte   W72
 .byte   N23
 .byte   W24
@  #05 @141   ----------------------------------------
 .byte   PATT
  .word Label_D10913
@  #05 @142   ----------------------------------------
 .byte   PATT
  .word Label_D1091B
@  #05 @143   ----------------------------------------
 .byte   PATT
  .word Label_D10924
@  #05 @144   ----------------------------------------
 .byte   PATT
  .word Label_D10908
@  #05 @145   ----------------------------------------
 .byte   EOT
 .byte   Gn3
 .byte   W24
 .byte   W01
 .byte   N23 ,Cn4 ,v112
 .byte   W24
 .byte   N68 ,Gn4
 .byte   W72
@  #05 @146   ----------------------------------------
 .byte   N23 ,Fn4
 .byte   W24
 .byte   N68 ,Gn4
 .byte   W72
@  #05 @147   ----------------------------------------
 .byte   N11 ,As4
 .byte   W12
 .byte   Gs4
 .byte   W12
 .byte   TIE ,Gn4
 .byte   W96
@  #05 @148   ----------------------------------------
 .byte   W92
 .byte   W03
 .byte   EOT
 .byte   W01
@  #05 @149   ----------------------------------------
 .byte   W96
@  #05 @150   ----------------------------------------
 .byte   W96
@  #05 @151   ----------------------------------------
 .byte   W96
@  #05 @152   ----------------------------------------
 .byte   W96
@  #05 @153   ----------------------------------------
 .byte   W96
@  #05 @154   ----------------------------------------
 .byte   W96
@  #05 @155   ----------------------------------------
 .byte   W96
@  #05 @156   ----------------------------------------
 .byte   W96
@  #05 @157   ----------------------------------------
 .byte   W96
@  #05 @158   ----------------------------------------
 .byte   W96
@  #05 @159   ----------------------------------------
 .byte   W96
@  #05 @160   ----------------------------------------
 .byte   W96
@  #05 @161   ----------------------------------------
 .byte   W96
@  #05 @162   ----------------------------------------
 .byte   W96
@  #05 @163   ----------------------------------------
 .byte   W96
@  #05 @164   ----------------------------------------
 .byte   W96
@  #05 @165   ----------------------------------------
 .byte   W96
@  #05 @166   ----------------------------------------
 .byte   W96
@  #05 @167   ----------------------------------------
 .byte   W96
@  #05 @168   ----------------------------------------
 .byte   W96
@  #05 @169   ----------------------------------------
 .byte   W96
@  #05 @170   ----------------------------------------
 .byte   W96
@  #05 @171   ----------------------------------------
 .byte   W96
@  #05 @172   ----------------------------------------
 .byte   W96
@  #05 @173   ----------------------------------------
 .byte   W96
@  #05 @174   ----------------------------------------
 .byte   W96
@  #05 @175   ----------------------------------------
 .byte   W96
@  #05 @176   ----------------------------------------
 .byte   W96
@  #05 @177   ----------------------------------------
 .byte   W96
@  #05 @178   ----------------------------------------
 .byte   W96
@  #05 @179   ----------------------------------------
 .byte   GOTO
  .word Label_D10858
 .byte   FINE

@**************** Track 6 (Midi-Chn.5) ****************@

UntamedGarden_006:
@  #06 @000   ----------------------------------------
 .byte   KEYSH , UntamedGarden_key+0
 .byte   VOICE , 1
 .byte   VOL , 46*UntamedGarden_mvl/mxv
 .byte   PAN , c_v+0
 .byte   W96
@  #06 @001   ----------------------------------------
 .byte   W96
@  #06 @002   ----------------------------------------
 .byte   W96
@  #06 @003   ----------------------------------------
 .byte   W96
@  #06 @004   ----------------------------------------
 .byte   W96
@  #06 @005   ----------------------------------------
 .byte   W96
@  #06 @006   ----------------------------------------
 .byte   W96
@  #06 @007   ----------------------------------------
 .byte   W96
@  #06 @008   ----------------------------------------
Label_01000F50:
 .byte   W96
@  #06 @009   ----------------------------------------
 .byte   W96
@  #06 @010   ----------------------------------------
 .byte   W96
@  #06 @011   ----------------------------------------
 .byte   W96
@  #06 @012   ----------------------------------------
 .byte   W96
@  #06 @013   ----------------------------------------
 .byte   W96
@  #06 @014   ----------------------------------------
 .byte   W96
@  #06 @015   ----------------------------------------
 .byte   W96
@  #06 @016   ----------------------------------------
 .byte   W96
@  #06 @017   ----------------------------------------
 .byte   W96
@  #06 @018   ----------------------------------------
 .byte   W96
@  #06 @019   ----------------------------------------
 .byte   W96
@  #06 @020   ----------------------------------------
 .byte   W96
@  #06 @021   ----------------------------------------
 .byte   W96
@  #06 @022   ----------------------------------------
 .byte   W96
@  #06 @023   ----------------------------------------
 .byte   W96
@  #06 @024   ----------------------------------------
 .byte   W96
@  #06 @025   ----------------------------------------
 .byte   W96
@  #06 @026   ----------------------------------------
 .byte   W96
@  #06 @027   ----------------------------------------
 .byte   W96
@  #06 @028   ----------------------------------------
 .byte   W96
@  #06 @029   ----------------------------------------
 .byte   W96
@  #06 @030   ----------------------------------------
 .byte   W96
@  #06 @031   ----------------------------------------
 .byte   W96
@  #06 @032   ----------------------------------------
 .byte   W96
@  #06 @033   ----------------------------------------
 .byte   W96
@  #06 @034   ----------------------------------------
 .byte   W96
@  #06 @035   ----------------------------------------
 .byte   W96
@  #06 @036   ----------------------------------------
 .byte   W96
@  #06 @037   ----------------------------------------
 .byte   W96
@  #06 @038   ----------------------------------------
 .byte   W96
@  #06 @039   ----------------------------------------
 .byte   W96
@  #06 @040   ----------------------------------------
 .byte   W96
@  #06 @041   ----------------------------------------
 .byte   W96
@  #06 @042   ----------------------------------------
 .byte   W96
@  #06 @043   ----------------------------------------
 .byte   W96
@  #06 @044   ----------------------------------------
 .byte   W96
@  #06 @045   ----------------------------------------
 .byte   W96
@  #06 @046   ----------------------------------------
 .byte   W96
@  #06 @047   ----------------------------------------
 .byte   W96
@  #06 @048   ----------------------------------------
 .byte   W05
 .byte   N90 ,Cn3 ,v080
 .byte   W05
 .byte   N84 ,Ds3
 .byte   W06
 .byte   N78 ,Gn3
 .byte   W80
@  #06 @049   ----------------------------------------
 .byte   W05
 .byte   N90 ,As2
 .byte   W05
 .byte   N84 ,Cs3
 .byte   W06
 .byte   N78 ,Fn3
 .byte   W80
@  #06 @050   ----------------------------------------
 .byte   W05
 .byte   N90 ,Gs2
 .byte   W05
 .byte   N84 ,Cn3
 .byte   W06
 .byte   N78 ,Ds3
 .byte   W80
@  #06 @051   ----------------------------------------
 .byte   W05
 .byte   N90 ,Gn2
 .byte   W05
 .byte   N84 ,As2
 .byte   W06
 .byte   N78 ,Cs3
 .byte   W80
@  #06 @052   ----------------------------------------
 .byte   W02
 .byte   TIE ,Gs2
 .byte   W03
 .byte   As2
 .byte   W03
 .byte   En3
 .byte   W88
@  #06 @053   ----------------------------------------
 .byte   W92
 .byte   W03
 .byte   EOT
 .byte   Gs2 ,v058
 .byte   En3
 .byte   W01
@  #06 @054   ----------------------------------------
 .byte   W02
 .byte   TIE ,Gn2
 .byte   W03
 .byte   As2
 .byte   W03
 .byte   En3
 .byte   W88
@  #06 @055   ----------------------------------------
 .byte   W92
 .byte   W03
 .byte   EOT
 .byte   Gn2 ,v058
 .byte   En3
 .byte   W01
@  #06 @056   ----------------------------------------
 .byte   W96
@  #06 @057   ----------------------------------------
 .byte   W96
@  #06 @058   ----------------------------------------
 .byte   N92 ,As2
 .byte   N92 ,Cs3
 .byte   N92 ,Gn3
 .byte   W96
@  #06 @059   ----------------------------------------
 .byte   En3
 .byte   N92 ,Gn3
 .byte   N92 ,As3
 .byte   W96
@  #06 @060   ----------------------------------------
Label_01000FCE:
 .byte   N92 ,As2 ,v080
 .byte   N92 ,En3
 .byte   N92 ,Gn3
 .byte   W96
 .byte   PEND 
@  #06 @061   ----------------------------------------
 .byte   Cn3
 .byte   N92 ,Ds3
 .byte   N92 ,Fn3
 .byte   W96
@  #06 @062   ----------------------------------------
Label_01000FDD:
 .byte   N92 ,As2 ,v080
 .byte   N92 ,Cs3
 .byte   N92 ,Fn3
 .byte   W96
 .byte   PEND 
@  #06 @063   ----------------------------------------
 .byte   PATT
  .word Label_01000FDD
@  #06 @064   ----------------------------------------
 .byte   TIE ,As2 ,v080
 .byte   TIE ,Cn3
 .byte   TIE ,En3
 .byte   W96
@  #06 @065   ----------------------------------------
 .byte   W92
 .byte   W03
 .byte   EOT
 .byte   As2 ,v060
 .byte   En3
 .byte   W01
@  #06 @066   ----------------------------------------
 .byte   N92 ,Fn3
 .byte   N92 ,Gs3
 .byte   N92 ,Cn4
 .byte   W96
@  #06 @067   ----------------------------------------
 .byte   Gn3
 .byte   N92 ,As3
 .byte   N92 ,Cn4
 .byte   W96
@  #06 @068   ----------------------------------------
 .byte   N80 ,Ds3
 .byte   N80 ,Gn3
 .byte   N80 ,As3
 .byte   W84
 .byte   N11 ,Gs3
 .byte   W12
@  #06 @069   ----------------------------------------
 .byte   N92 ,Gs2
 .byte   N92 ,Cn3
 .byte   N32 ,Gn3
 .byte   W36
 .byte   Ds3
 .byte   W60
@  #06 @070   ----------------------------------------
 .byte   PATT
  .word Label_01000FDD
@  #06 @071   ----------------------------------------
 .byte   N92 ,As2 ,v080
 .byte   N92 ,Cn3
 .byte   N92 ,Gn3
 .byte   W96
@  #06 @072   ----------------------------------------
 .byte   N68 ,Gs2
 .byte   N68 ,Cn3
 .byte   N68 ,Fn3
 .byte   W72
 .byte   N11
 .byte   W12
 .byte   Fn4
 .byte   W12
@  #06 @073   ----------------------------------------
 .byte   N92 ,Ds1
 .byte   N44 ,Gn3
 .byte   N44 ,Ds4
 .byte   W48
 .byte   Ds3
 .byte   N44 ,Cn4
 .byte   W48
@  #06 @074   ----------------------------------------
 .byte   N92 ,Cs3
 .byte   N92 ,Fn3
 .byte   N92 ,Gs3
 .byte   W96
@  #06 @075   ----------------------------------------
 .byte   Dn3
 .byte   N92 ,Fn3
 .byte   N92 ,Gs3
 .byte   W96
@  #06 @076   ----------------------------------------
 .byte   N56 ,Cn3
 .byte   N56 ,En3
 .byte   N56 ,Gn3
 .byte   W60
 .byte   N11 ,Cn3
 .byte   W12
 .byte   Fn3
 .byte   W12
 .byte   Gn3
 .byte   W12
@  #06 @077   ----------------------------------------
 .byte   N92 ,Gn2
 .byte   N92 ,Cn3
 .byte   N92 ,En3
 .byte   W96
@  #06 @078   ----------------------------------------
 .byte   Cs3
 .byte   N92 ,Fn3
 .byte   N92 ,Cn4
 .byte   W96
@  #06 @079   ----------------------------------------
 .byte   Cn3
 .byte   N92 ,En3
 .byte   N92 ,Cn4
 .byte   W96
@  #06 @080   ----------------------------------------
 .byte   N80 ,Cn3
 .byte   N80 ,Ds3
 .byte   N80 ,As3
 .byte   W84
 .byte   N11
 .byte   W12
@  #06 @081   ----------------------------------------
 .byte   N92 ,Cn3
 .byte   N92 ,Ds3
 .byte   N23 ,Gn3
 .byte   W24
 .byte   N68 ,Gs3
 .byte   W72
@  #06 @082   ----------------------------------------
 .byte   N92 ,Fn3
 .byte   N92 ,Gs3
 .byte   N92 ,Ds4
 .byte   W96
@  #06 @083   ----------------------------------------
 .byte   Gn3
 .byte   N92 ,As3
 .byte   N92 ,Cs4
 .byte   W96
@  #06 @084   ----------------------------------------
 .byte   N68 ,En3
 .byte   N68 ,Fs3
 .byte   N68 ,Cn4
 .byte   W72
 .byte   N23 ,En3
 .byte   W24
@  #06 @085   ----------------------------------------
 .byte   N32 ,Cn3
 .byte   N32 ,En3
 .byte   N32 ,Gn3
 .byte   W36
 .byte   N56 ,Cn3
 .byte   N56 ,En3
 .byte   N56 ,Gn3
 .byte   W60
@  #06 @086   ----------------------------------------
 .byte   N92 ,Cs3
 .byte   N92 ,Fn3
 .byte   N92 ,As3
 .byte   W96
@  #06 @087   ----------------------------------------
 .byte   N44
 .byte   N44 ,Cs4
 .byte   N44 ,Ds4
 .byte   W48
 .byte   Gn2
 .byte   N44 ,Cn3
 .byte   N44 ,En3
 .byte   W48
@  #06 @088   ----------------------------------------
 .byte   N56 ,As2
 .byte   N56 ,Fn3
 .byte   N56 ,As3
 .byte   W72
 .byte   N11 ,Gn4
 .byte   W12
 .byte   N05 ,Gs4
 .byte   W06
 .byte   Fs4
 .byte   W06
@  #06 @089   ----------------------------------------
 .byte   N92 ,Ds1
 .byte   N23 ,Gn4
 .byte   W24
 .byte   N68 ,Ds4
 .byte   W72
@  #06 @090   ----------------------------------------
 .byte   N56 ,As2
 .byte   N56 ,Fn3
 .byte   N56 ,Gs3
 .byte   W60
 .byte   N11 ,Cn3
 .byte   W12
 .byte   Fn3
 .byte   W12
 .byte   Gs3
 .byte   W12
@  #06 @091   ----------------------------------------
 .byte   N92 ,Cn1
 .byte   N11 ,Gn3
 .byte   W12
 .byte   En3
 .byte   W12
 .byte   N23 ,Cn3
 .byte   W24
 .byte   N44 ,As2
 .byte   N44 ,Gn3
 .byte   W48
@  #06 @092   ----------------------------------------
 .byte   N92 ,Fn1
 .byte   N56 ,Gs2
 .byte   N56 ,Fn3
 .byte   W60
 .byte   N11 ,Gs2
 .byte   W12
 .byte   Cn3
 .byte   W12
 .byte   Ds3
 .byte   W12
@  #06 @093   ----------------------------------------
 .byte   N92 ,Ds1
 .byte   N32 ,Gn2
 .byte   N32 ,Ds3
 .byte   W36
 .byte   N56 ,Cn3
 .byte   W60
@  #06 @094   ----------------------------------------
 .byte   N92 ,Gs2
 .byte   N92 ,Cs3
 .byte   N92 ,Fn3
 .byte   W96
@  #06 @095   ----------------------------------------
 .byte   TIE ,As2
 .byte   TIE ,Cn3
 .byte   TIE ,En3
 .byte   W96
@  #06 @096   ----------------------------------------
 .byte   W92
 .byte   W03
 .byte   EOT
 .byte   As2 ,v060
 .byte   En3
 .byte   W01
@  #06 @097   ----------------------------------------
 .byte   W24
 .byte   N23 ,Fn3
 .byte   W24
 .byte   Gn3
 .byte   W24
 .byte   Gs3
 .byte   W24
@  #06 @098   ----------------------------------------
 .byte   N92 ,Cs3
 .byte   N92 ,Gn3
 .byte   N68 ,As3
 .byte   W72
 .byte   N11 ,Cn4
 .byte   W12
 .byte   Cs4
 .byte   W12
@  #06 @099   ----------------------------------------
 .byte   N92 ,As2
 .byte   N68 ,Ds3
 .byte   N68 ,Ds4
 .byte   W72
 .byte   N11 ,Gs3
 .byte   N11 ,Fn4
 .byte   W12
 .byte   As3
 .byte   N11 ,Gn4
 .byte   W12
@  #06 @100   ----------------------------------------
 .byte   N92 ,Ds3
 .byte   N92 ,Fn3
 .byte   N92 ,Cn4
 .byte   W96
@  #06 @101   ----------------------------------------
 .byte   Gs2
 .byte   N92 ,Cn3
 .byte   W24
 .byte   N23 ,Fn3
 .byte   W24
 .byte   Gn3
 .byte   W24
 .byte   Gs3
 .byte   W24
@  #06 @102   ----------------------------------------
 .byte   N68 ,Dn3
 .byte   N68 ,As3
 .byte   W07
 .byte   N88 ,As2
 .byte   W64
 .byte   W01
 .byte   N11 ,Cn4
 .byte   W12
 .byte   Cs4
 .byte   W12
@  #06 @103   ----------------------------------------
 .byte   N44 ,En3
 .byte   N44 ,Cn4
 .byte   W07
 .byte   N88 ,Cn3
 .byte   W40
 .byte   W01
 .byte   N11 ,En3
 .byte   W12
 .byte   Gn3
 .byte   W12
 .byte   Cn4
 .byte   W12
 .byte   As3
 .byte   W12
@  #06 @104   ----------------------------------------
 .byte   TIE ,Ds3
 .byte   TIE ,Fn3
 .byte   TIE ,Gs3
 .byte   W96
@  #06 @105   ----------------------------------------
 .byte   W68
 .byte   W03
 .byte   EOT
 .byte   Ds3 ,v065
 .byte   Gs3
 .byte   W01
 .byte   N23
 .byte   W24
@  #06 @106   ----------------------------------------
Label_0100117D:
 .byte   N92 ,Fn2 ,v080
 .byte   N92 ,Gn2
 .byte   N68 ,Gn3
 .byte   W72
 .byte   N23 ,Fn3
 .byte   W24
 .byte   PEND 
@  #06 @107   ----------------------------------------
 .byte   N92 ,Fn2
 .byte   N92 ,Gn2
 .byte   N68 ,Gn3
 .byte   W72
 .byte   N11
 .byte   W12
 .byte   Fn3
 .byte   W12
@  #06 @108   ----------------------------------------
 .byte   N92 ,Dn3
 .byte   N92 ,Fn3
 .byte   TIE ,Gn3
 .byte   W96
@  #06 @109   ----------------------------------------
 .byte   N68 ,Cn3
 .byte   N68 ,En3
 .byte   W68
 .byte   W03
 .byte   EOT
 .byte   Gn3
 .byte   W01
 .byte   N23 ,Cn3
 .byte   W24
@  #06 @110   ----------------------------------------
 .byte   PATT
  .word Label_0100117D
@  #06 @111   ----------------------------------------
 .byte   N92 ,Fn2 ,v080
 .byte   N92 ,Gn2
 .byte   N68 ,Gn3
 .byte   W72
 .byte   N11 ,Ds4
 .byte   W12
 .byte   Cs4
 .byte   W12
@  #06 @112   ----------------------------------------
 .byte   TIE ,Cn3
 .byte   TIE ,Fn3
 .byte   TIE ,Cn4
 .byte   W96
@  #06 @113   ----------------------------------------
 .byte   W92
 .byte   W03
 .byte   EOT
 .byte   Cn3 ,v065
 .byte   Cn4
 .byte   W01
@  #06 @114   ----------------------------------------
 .byte   TIE ,Gn2 ,v064
 .byte   TIE ,Cn3
 .byte   TIE ,En3
 .byte   W96
@  #06 @115   ----------------------------------------
 .byte   W92
 .byte   W03
 .byte   EOT
 .byte   Gn2 ,v060
 .byte   En3
 .byte   W01
@  #06 @116   ----------------------------------------
 .byte   N92 ,Fn3 ,v080
 .byte   N92 ,Gn3
 .byte   N92 ,As3
 .byte   W96
@  #06 @117   ----------------------------------------
 .byte   PATT
  .word Label_01000FCE
@  #06 @118   ----------------------------------------
 .byte   N68 ,Ds3 ,v080
 .byte   N68 ,Fn3
 .byte   N68 ,Gs3
 .byte   W72
 .byte   N11 ,Fn3
 .byte   W12
 .byte   Gn3
 .byte   W12
@  #06 @119   ----------------------------------------
 .byte   N92 ,Cn3
 .byte   N92 ,Fn3
 .byte   N32 ,Gs3
 .byte   W36
 .byte   As3
 .byte   W36
 .byte   N23 ,Cn4
 .byte   W24
@  #06 @120   ----------------------------------------
 .byte   N92 ,Dn3
 .byte   N92 ,Fn3
 .byte   N92 ,As3
 .byte   W96
@  #06 @121   ----------------------------------------
 .byte   Cn2
 .byte   N44 ,Cn3
 .byte   N44 ,Gn3
 .byte   W48
 .byte   En3
 .byte   W48
@  #06 @122   ----------------------------------------
 .byte   TIE ,Cn3
 .byte   TIE ,Ds3
 .byte   TIE ,Fn3
 .byte   W96
@  #06 @123   ----------------------------------------
 .byte   W92
 .byte   W03
 .byte   EOT
 .byte   Cn3 ,v063
 .byte   Fn3
 .byte   W01
@  #06 @124   ----------------------------------------
 .byte   N92 ,Dn3
 .byte   N92 ,Fn3
 .byte   N92 ,Gn3
 .byte   W96
@  #06 @125   ----------------------------------------
 .byte   Cs3
 .byte   N92 ,Fn3
 .byte   N92 ,Gn3
 .byte   W96
@  #06 @126   ----------------------------------------
 .byte   TIE ,Dn3
 .byte   N92 ,Fn3
 .byte   W96
@  #06 @127   ----------------------------------------
 .byte   En3
 .byte   W92
 .byte   W03
 .byte   EOT
 .byte   Dn3
 .byte   W01
@  #06 @128   ----------------------------------------
Label_01001231:
 .byte   N92 ,Dn4 ,v080
 .byte   N92 ,Fn4
 .byte   N92 ,Gn4
 .byte   W96
 .byte   PEND 
@  #06 @129   ----------------------------------------
Label_0100123A:
 .byte   N92 ,Cs4 ,v080
 .byte   N92 ,Fn4
 .byte   N92 ,Gn4
 .byte   W96
 .byte   PEND 
@  #06 @130   ----------------------------------------
 .byte   TIE ,Cn3
 .byte   N56 ,Fn4
 .byte   N56 ,Cn5
 .byte   W60
 .byte   N11 ,Cn4
 .byte   W12
 .byte   Fn4
 .byte   W12
 .byte   Gn4
 .byte   W12
@  #06 @131   ----------------------------------------
 .byte   N92 ,En4
 .byte   N92 ,Cn5
 .byte   W92
 .byte   W03
 .byte   EOT
 .byte   Cn3
 .byte   W01
@  #06 @132   ----------------------------------------
 .byte   N92 ,Fn3
 .byte   N92 ,Gs3
 .byte   N92 ,Cs4
 .byte   W96
@  #06 @133   ----------------------------------------
 .byte   Ds3
 .byte   N92 ,Gn3
 .byte   N92 ,As3
 .byte   W96
@  #06 @134   ----------------------------------------
Label_01001267:
 .byte   N92 ,Cn3 ,v080
 .byte   N92 ,Fn3
 .byte   N92 ,Gs3
 .byte   W96
 .byte   PEND 
@  #06 @135   ----------------------------------------
 .byte   PATT
  .word Label_01001267
@  #06 @136   ----------------------------------------
 .byte   N68 ,Dn3 ,v080
 .byte   N68 ,Fn3
 .byte   N68 ,As3
 .byte   W72
 .byte   N11 ,Cn5
 .byte   W12
 .byte   Cs5
 .byte   W12
@  #06 @137   ----------------------------------------
 .byte   N56 ,En4
 .byte   N56 ,Gn4
 .byte   N56 ,Cn5
 .byte   W60
 .byte   N11 ,Gn4
 .byte   W12
 .byte   Cn5
 .byte   W12
 .byte   As4
 .byte   W12
@  #06 @138   ----------------------------------------
 .byte   N92 ,Cn4
 .byte   N92 ,Fn4
 .byte   N92 ,Gs4
 .byte   W96
@  #06 @139   ----------------------------------------
 .byte   N68 ,Cn4
 .byte   N68 ,Fn4
 .byte   N68 ,Gs4
 .byte   W72
 .byte   N23
 .byte   W24
@  #06 @140   ----------------------------------------
 .byte   N68 ,Dn4
 .byte   N68 ,Fn4
 .byte   N68 ,Gn4
 .byte   W72
 .byte   N11
 .byte   W12
 .byte   Fn4
 .byte   W12
@  #06 @141   ----------------------------------------
 .byte   N68 ,Cs4
 .byte   N68 ,Fn4
 .byte   N68 ,Gn4
 .byte   W72
 .byte   N11
 .byte   W12
 .byte   Fn4
 .byte   W12
@  #06 @142   ----------------------------------------
 .byte   N68 ,Cn4
 .byte   N68 ,Fn4
 .byte   N68 ,Gn4
 .byte   W72
 .byte   N11 ,As4
 .byte   W12
 .byte   Gs4
 .byte   W12
@  #06 @143   ----------------------------------------
 .byte   N92 ,Cn4
 .byte   N92 ,En4
 .byte   N92 ,Gn4
 .byte   W96
@  #06 @144   ----------------------------------------
 .byte   PATT
  .word Label_01001231
@  #06 @145   ----------------------------------------
 .byte   PATT
  .word Label_0100123A
@  #06 @146   ----------------------------------------
Label_010012D3:
 .byte   N92 ,Cn4 ,v080
 .byte   N92 ,Fn4
 .byte   N92 ,Cn5
 .byte   W96
 .byte   PEND 
@  #06 @147   ----------------------------------------
 .byte   Cn4
 .byte   N92 ,En4
 .byte   N92 ,Cn5
 .byte   W96
@  #06 @148   ----------------------------------------
 .byte   N11 ,Fn1
 .byte   N92 ,Cn4
 .byte   N92 ,Cn5
 .byte   W12
 .byte   N11 ,Cn2
 .byte   W12
 .byte   Gn2
 .byte   W12
 .byte   N56 ,Gs2
 .byte   W60
@  #06 @149   ----------------------------------------
 .byte   N11 ,As1
 .byte   N68 ,As3
 .byte   N68 ,As4
 .byte   W12
 .byte   N11 ,Fn2
 .byte   W12
 .byte   Cn3
 .byte   W12
 .byte   N32 ,As2
 .byte   W36
 .byte   N11 ,Ds3
 .byte   N11 ,Gs3
 .byte   N11 ,Gs4
 .byte   W12
 .byte   Dn3
 .byte   N11 ,Gn3
 .byte   N11 ,Gn4
 .byte   W12
@  #06 @150   ----------------------------------------
 .byte   N44 ,Ds3
 .byte   N44 ,Gs3
 .byte   N44 ,Gs4
 .byte   W48
 .byte   Cn3
 .byte   TIE ,Fn3
 .byte   TIE ,Fn4
 .byte   W48
@  #06 @151   ----------------------------------------
 .byte   N92 ,Dn3
 .byte   W92
 .byte   W03
 .byte   EOT
 .byte   Fn3 ,v077
 .byte   W01
@  #06 @152   ----------------------------------------
 .byte   PATT
  .word Label_010012D3
@  #06 @153   ----------------------------------------
Label_01001327:
 .byte   N68 ,Dn4 ,v080
 .byte   N68 ,Fn4
 .byte   N68 ,As4
 .byte   W72
 .byte   N11 ,Gs3
 .byte   N11 ,Gs4
 .byte   W12
 .byte   As3
 .byte   N11 ,As4
 .byte   W12
 .byte   PEND 
@  #06 @154   ----------------------------------------
 .byte   N44 ,Fn4
 .byte   N44 ,Gs4
 .byte   N44 ,Cn5
 .byte   W48
 .byte   TIE ,As4
 .byte   W48
@  #06 @155   ----------------------------------------
 .byte   N92 ,Dn4
 .byte   N92 ,Fn4
 .byte   W92
 .byte   W03
 .byte   EOT
 .byte   As4
 .byte   W01
@  #06 @156   ----------------------------------------
 .byte   PATT
  .word Label_010012D3
@  #06 @157   ----------------------------------------
 .byte   N68 ,Dn4 ,v080
 .byte   N68 ,Fn4
 .byte   N68 ,As4
 .byte   W72
 .byte   N11 ,Gs3
 .byte   N11 ,Gs4
 .byte   W12
 .byte   Gn3
 .byte   N11 ,Gn4
 .byte   W12
@  #06 @158   ----------------------------------------
 .byte   N44 ,Cn4
 .byte   N44 ,Fn4
 .byte   N44 ,Gs4
 .byte   W48
 .byte   TIE ,Fn4
 .byte   W48
@  #06 @159   ----------------------------------------
 .byte   N92 ,As3
 .byte   N92 ,Dn4
 .byte   W92
 .byte   W03
 .byte   EOT
 .byte   Fn4
 .byte   W01
@  #06 @160   ----------------------------------------
 .byte   PATT
  .word Label_010012D3
@  #06 @161   ----------------------------------------
 .byte   PATT
  .word Label_01001327
@  #06 @162   ----------------------------------------
 .byte   N44 ,Fn4 ,v080
 .byte   N44 ,Gs4
 .byte   N44 ,Cn5
 .byte   W48
 .byte   TIE ,Gn5
 .byte   W48
@  #06 @163   ----------------------------------------
 .byte   W92
 .byte   W03
 .byte   EOT
 .byte   W01
@  #06 @164   ----------------------------------------
 .byte   W07
 .byte   TIE ,Ds5 ,v064
 .byte   W88
 .byte   W01
@  #06 @165   ----------------------------------------
 .byte   W92
 .byte   W03
 .byte   EOT
 .byte   W01
@  #06 @166   ----------------------------------------
 .byte   W01
 .byte   TIE ,Ds5 ,v036
 .byte   W01
 .byte   Gn5
 .byte   W01
 .byte   As5
 .byte   W92
 .byte   W01
@  #06 @167   ----------------------------------------
 .byte   W96
@  #06 @168   ----------------------------------------
 .byte   W96
@  #06 @169   ----------------------------------------
 .byte   W92
 .byte   W03
 .byte   EOT
 .byte   Ds5 ,v091
 .byte   As5
 .byte   W01
@  #06 @170   ----------------------------------------
 .byte   W96
@  #06 @171   ----------------------------------------
 .byte   W96
@  #06 @172   ----------------------------------------
 .byte   W96
@  #06 @173   ----------------------------------------
 .byte   W96
@  #06 @174   ----------------------------------------
 .byte   W96
@  #06 @175   ----------------------------------------
 .byte   W96
@  #06 @176   ----------------------------------------
 .byte   W96
@  #06 @177   ----------------------------------------
 .byte   W96
@  #06 @178   ----------------------------------------
 .byte   GOTO
  .word Label_01000F50
 .byte   FINE

@**************** Track 7 (Midi-Chn.6) ****************@

UntamedGarden_007:
@  #07 @000   ----------------------------------------
 .byte   KEYSH , UntamedGarden_key+0
 .byte   VOICE , 100
 .byte   VOL , 46*UntamedGarden_mvl/mxv
 .byte   PAN , c_v+0
 .byte   VOL , 46*UntamedGarden_mvl/mxv
 .byte   PAN , c_v+0
 .byte   W96
@  #07 @001   ----------------------------------------
 .byte   W96
@  #07 @002   ----------------------------------------
 .byte   W96
@  #07 @003   ----------------------------------------
 .byte   W96
@  #07 @004   ----------------------------------------
 .byte   W96
@  #07 @005   ----------------------------------------
 .byte   W96
@  #07 @006   ----------------------------------------
 .byte   W96
@  #07 @007   ----------------------------------------
 .byte   W96
@  #07 @008   ----------------------------------------
Label_010013D0:
 .byte   N44 ,Gn3 ,v080
 .byte   W48
 .byte   N92 ,Gn4
 .byte   W48
 .byte   PEND 
@  #07 @009   ----------------------------------------
Label_010013D8:
 .byte   W48
 .byte   N44 ,Fn4 ,v080
 .byte   W48
 .byte   PEND 
@  #07 @010   ----------------------------------------
Label_010013DE:
 .byte   N92 ,Cn4 ,v080
 .byte   W96
 .byte   PEND 
@  #07 @011   ----------------------------------------
Label_010013E3:
 .byte   N92 ,Ds4 ,v080
 .byte   W96
 .byte   PEND 
@  #07 @012   ----------------------------------------
 .byte   PATT
  .word Label_010013D0
@  #07 @013   ----------------------------------------
 .byte   PATT
  .word Label_010013D8
@  #07 @014   ----------------------------------------
Label_010013F2:
 .byte   N92 ,As4 ,v080
 .byte   W96
 .byte   PEND 
@  #07 @015   ----------------------------------------
Label_010013F7:
 .byte   N92 ,Cn5 ,v080
 .byte   W96
 .byte   PEND 
@  #07 @016   ----------------------------------------
 .byte   PATT
  .word Label_010013D0
@  #07 @017   ----------------------------------------
 .byte   PATT
  .word Label_010013D8
@  #07 @018   ----------------------------------------
 .byte   PATT
  .word Label_010013DE
@  #07 @019   ----------------------------------------
 .byte   PATT
  .word Label_010013E3
@  #07 @020   ----------------------------------------
 .byte   PATT
  .word Label_010013D0
@  #07 @021   ----------------------------------------
 .byte   PATT
  .word Label_010013D8
@  #07 @022   ----------------------------------------
 .byte   PATT
  .word Label_010013F2
@  #07 @023   ----------------------------------------
 .byte   PATT
  .word Label_010013F7
@  #07 @024   ----------------------------------------
Label_01001424:
 .byte   TIE ,Cn5 ,v064
 .byte   W96
 .byte   PEND 
@  #07 @025   ----------------------------------------
Label_01001429:
 .byte   W44
 .byte   W03
 .byte   PEND 
 .byte   EOT
 .byte   Cn5
 .byte   W01
 .byte   N44 ,As4 ,v064
 .byte   W48
@  #07 @026   ----------------------------------------
Label_01001433:
 .byte   TIE ,Gn4 ,v064
 .byte   W96
 .byte   PEND 
@  #07 @027   ----------------------------------------
Label_01001438:
 .byte   W92
 .byte   W03
 .byte   PEND 
 .byte   EOT
 .byte   Gn4
 .byte   W01
@  #07 @028   ----------------------------------------
 .byte   PATT
  .word Label_01001424
@  #07 @029   ----------------------------------------
 .byte   PATT
  .word Label_01001429
@  #07 @030   ----------------------------------------
 .byte   EOT
 .byte   Cn5
 .byte   W01
 .byte   N44 ,As4 ,v064
 .byte   W48
@  #07 @031   ----------------------------------------
 .byte   PATT
  .word Label_01001433
@  #07 @032   ----------------------------------------
 .byte   PATT
  .word Label_01001438
@  #07 @033   ----------------------------------------
 .byte   EOT
 .byte   Gn4
 .byte   W01
Label_0100145C:
 .byte   N44 ,Fn4 ,v064
 .byte   W48
 .byte   TIE ,Ds4
 .byte   W48
 .byte   PEND 
@  #07 @034   ----------------------------------------
 .byte   PATT
  .word Label_01001438
@  #07 @035   ----------------------------------------
 .byte   EOT
 .byte   Ds4
 .byte   W01
@  #07 @036   ----------------------------------------
 .byte   PATT
  .word Label_0100145C
@  #07 @037   ----------------------------------------
 .byte   PATT
  .word Label_01001438
@  #07 @038   ----------------------------------------
 .byte   EOT
 .byte   Ds4
 .byte   W01
Label_01001479:
 .byte   TIE ,As3 ,v064
 .byte   W96
 .byte   PEND 
@  #07 @039   ----------------------------------------
 .byte   PATT
  .word Label_01001438
@  #07 @040   ----------------------------------------
 .byte   EOT
 .byte   As3
 .byte   W01
Label_01001486:
 .byte   TIE ,Cn4 ,v064
 .byte   W96
 .byte   PEND 
@  #07 @041   ----------------------------------------
 .byte   PATT
  .word Label_01001438
@  #07 @042   ----------------------------------------
 .byte   EOT
 .byte   Cn4
 .byte   W01
@  #07 @043   ----------------------------------------
 .byte   PATT
  .word Label_01001479
@  #07 @044   ----------------------------------------
 .byte   PATT
  .word Label_01001438
@  #07 @045   ----------------------------------------
 .byte   EOT
 .byte   As3
 .byte   W01
@  #07 @046   ----------------------------------------
 .byte   PATT
  .word Label_01001486
@  #07 @047   ----------------------------------------
 .byte   W96
@  #07 @048   ----------------------------------------
 .byte   W96
@  #07 @049   ----------------------------------------
 .byte   W96
@  #07 @050   ----------------------------------------
 .byte   W60
 .byte   W36
@  #07 @051   ----------------------------------------
 .byte   W24
 .byte   W60
 .byte   W12
@  #07 @052   ----------------------------------------
 .byte   W48
 .byte   W48
@  #07 @053   ----------------------------------------
 .byte   W12
 .byte   W60
 .byte   W24
@  #07 @054   ----------------------------------------
 .byte   W36
 .byte   W60
@  #07 @055   ----------------------------------------
 .byte   W60
 .byte   W36
@  #07 @056   ----------------------------------------
 .byte   W24
 .byte   W60
 .byte   W12
@  #07 @057   ----------------------------------------
 .byte   W48
 .byte   W48
@  #07 @058   ----------------------------------------
 .byte   W12
 .byte   W60
 .byte   W24
@  #07 @059   ----------------------------------------
 .byte   W36
 .byte   W56
 .byte   W03
 .byte   EOT
 .byte   Cn4
 .byte   W01
@  #07 @060   ----------------------------------------
 .byte   W96
@  #07 @061   ----------------------------------------
 .byte   W96
@  #07 @062   ----------------------------------------
Label_010014C6:
 .byte   N92 ,Gn2 ,v080
 .byte   N92 ,Cs3
 .byte   N92 ,Fn3
 .byte   N44 ,As3 ,v112
 .byte   W48
 .byte   N68 ,Gn4
 .byte   W48
 .byte   PEND 
@  #07 @063   ----------------------------------------
Label_010014D5:
 .byte   N92 ,Gn2 ,v080
 .byte   N92 ,Cn3
 .byte   N92 ,En3
 .byte   W24
 .byte   N23 ,Gn4 ,v112
 .byte   W24
 .byte   Gs4
 .byte   W24
 .byte   Gn4
 .byte   W24
 .byte   PEND 
@  #07 @064   ----------------------------------------
Label_010014E6:
 .byte   N92 ,Gs2 ,v080
 .byte   TIE ,Cn3
 .byte   TIE ,Ds3
 .byte   N92 ,Cn4 ,v112
 .byte   W96
 .byte   PEND 
@  #07 @065   ----------------------------------------
Label_010014F2:
 .byte   N92 ,Gn2 ,v080
 .byte   W24
 .byte   N23 ,Fn3 ,v112
 .byte   W24
 .byte   Gn3
 .byte   W24
 .byte   Gs3
 .byte   W23
 .byte   PEND 
 .byte   EOT
 .byte   Cn3 ,v063
 .byte   W01
@  #07 @066   ----------------------------------------
Label_01001503:
 .byte   N92 ,Gs2 ,v080
 .byte   N92 ,Ds3
 .byte   N23 ,Cn4 ,v112
 .byte   W24
 .byte   As3
 .byte   W24
 .byte   N23
 .byte   W24
 .byte   Fn3
 .byte   W24
 .byte   PEND 
@  #07 @067   ----------------------------------------
 .byte   N92 ,Gs2 ,v080
 .byte   N92 ,Cs3
 .byte   N72 ,Fn3
 .byte   N23 ,Ds4 ,v112
 .byte   W24
 .byte   Cs4
 .byte   W24
 .byte   N23
 .byte   W24
 .byte   Fn3
 .byte   W24
@  #07 @068   ----------------------------------------
Label_01001524:
 .byte   TIE ,Gn2 ,v080
 .byte   TIE ,As2
 .byte   TIE ,En3
 .byte   TIE ,Cn4 ,v112
 .byte   W96
 .byte   PEND 
@  #07 @069   ----------------------------------------
Label_01001530:
 .byte   W44
 .byte   W03
 .byte   PEND 
 .byte   EOT
 .byte   Cn4
 .byte   W48
 .byte   Gn2 ,v058
 .byte   En3
 .byte   W01
@  #07 @070   ----------------------------------------
 .byte   PATT
  .word Label_010014C6
@  #07 @071   ----------------------------------------
 .byte   N92 ,Gn2 ,v080
 .byte   N92 ,Cn3
 .byte   N92 ,En3
 .byte   W24
 .byte   N23 ,En4 ,v112
 .byte   W24
 .byte   Cn4
 .byte   W24
 .byte   Gn3
 .byte   W24
@  #07 @072   ----------------------------------------
 .byte   N92 ,Gs2 ,v080
 .byte   TIE ,Cn3
 .byte   TIE ,Ds3
 .byte   N23 ,Gn3 ,v112
 .byte   W24
 .byte   Gs3
 .byte   W24
 .byte   N44 ,Fn4
 .byte   W48
@  #07 @073   ----------------------------------------
 .byte   PATT
  .word Label_010014F2
@  #07 @074   ----------------------------------------
 .byte   EOT
 .byte   Cn3 ,v063
 .byte   W01
Label_01001568:
 .byte   N92 ,Cs3 ,v080
 .byte   N92 ,Fn3
 .byte   N23 ,As3 ,v112
 .byte   W24
 .byte   N44 ,Cn4
 .byte   W48
 .byte   N11 ,As3
 .byte   W12
 .byte   Gs3
 .byte   W12
 .byte   PEND 
@  #07 @075   ----------------------------------------
Label_0100157A:
 .byte   N72 ,Cn3 ,v080
 .byte   N92 ,Ds3
 .byte   N23 ,As3 ,v112
 .byte   W24
 .byte   N44 ,Cn4
 .byte   W48
 .byte   N23 ,Cn3
 .byte   W24
 .byte   PEND 
@  #07 @076   ----------------------------------------
Label_0100158A:
 .byte   TIE ,Gs2 ,v080
 .byte   TIE ,Cn3
 .byte   N24 ,Fn3
 .byte   N23 ,Gn3 ,v112
 .byte   W24
 .byte   Fn3
 .byte   W24
 .byte   N44
 .byte   W48
 .byte   PEND 
@  #07 @077   ----------------------------------------
Label_0100159A:
 .byte   W24
 .byte   N23 ,Fn3 ,v112
 .byte   W24
 .byte   Gn3
 .byte   W24
 .byte   Gs3
 .byte   W23
 .byte   PEND 
 .byte   EOT
 .byte   Gs2 ,v060
 .byte   W01
@  #07 @078   ----------------------------------------
Label_010015A8:
 .byte   N92 ,Cn3 ,v080
 .byte   N92 ,Fn3
 .byte   N23 ,As3 ,v112
 .byte   W24
 .byte   N44 ,Cn4
 .byte   W48
 .byte   N11 ,As3
 .byte   W12
 .byte   Gs3
 .byte   W12
 .byte   PEND 
@  #07 @079   ----------------------------------------
 .byte   N92 ,Cs3 ,v080
 .byte   N92 ,Fn3
 .byte   N23 ,As3 ,v112
 .byte   W24
 .byte   N44 ,Cn4
 .byte   W48
 .byte   N11 ,Cs4
 .byte   W12
 .byte   Ds4
 .byte   W12
@  #07 @080   ----------------------------------------
 .byte   PATT
  .word Label_01001524
@  #07 @081   ----------------------------------------
 .byte   PATT
  .word Label_01001530
@  #07 @082   ----------------------------------------
 .byte   EOT
 .byte   Cn4
 .byte   W48
 .byte   Gn2 ,v058
 .byte   En3
 .byte   W01
@  #07 @083   ----------------------------------------
 .byte   PATT
  .word Label_010014C6
@  #07 @084   ----------------------------------------
 .byte   PATT
  .word Label_010014D5
@  #07 @085   ----------------------------------------
 .byte   PATT
  .word Label_010014E6
@  #07 @086   ----------------------------------------
 .byte   PATT
  .word Label_010014F2
@  #07 @087   ----------------------------------------
 .byte   EOT
 .byte   Cn3 ,v063
 .byte   W01
@  #07 @088   ----------------------------------------
 .byte   PATT
  .word Label_01001503
@  #07 @089   ----------------------------------------
 .byte   N92 ,Cs3 ,v080
 .byte   N72 ,Fn3
 .byte   N23 ,Ds4 ,v112
 .byte   W24
 .byte   Cs4
 .byte   W24
 .byte   N23
 .byte   W24
 .byte   Fn3
 .byte   W24
@  #07 @090   ----------------------------------------
 .byte   TIE ,Gn2 ,v080
 .byte   TIE ,As2
 .byte   TIE ,En3
 .byte   TIE ,Gn3
 .byte   TIE ,Cn4 ,v112
 .byte   W96
@  #07 @091   ----------------------------------------
 .byte   PATT
  .word Label_01001530
@  #07 @092   ----------------------------------------
 .byte   EOT
 .byte   Cn4
 .byte   W48
 .byte   Gn2 ,v058
 .byte   En3 ,v067
 .byte   W01
@  #07 @093   ----------------------------------------
 .byte   PATT
  .word Label_010014C6
@  #07 @094   ----------------------------------------
 .byte   N92 ,Gn2 ,v080
 .byte   N92 ,Cn3
 .byte   N92 ,En3
 .byte   W24
 .byte   N23 ,Gn4 ,v112
 .byte   W24
 .byte   Gs4
 .byte   W24
 .byte   As4
 .byte   W24
@  #07 @095   ----------------------------------------
 .byte   N92 ,Gs2 ,v080
 .byte   TIE ,Cn3
 .byte   TIE ,Ds3
 .byte   N23 ,Gn4 ,v112
 .byte   W24
 .byte   Fn4
 .byte   W24
 .byte   N44
 .byte   W48
@  #07 @096   ----------------------------------------
 .byte   PATT
  .word Label_010014F2
@  #07 @097   ----------------------------------------
 .byte   EOT
 .byte   Cn3 ,v063
 .byte   W01
@  #07 @098   ----------------------------------------
 .byte   PATT
  .word Label_01001568
@  #07 @099   ----------------------------------------
 .byte   PATT
  .word Label_0100157A
@  #07 @100   ----------------------------------------
 .byte   PATT
  .word Label_0100158A
@  #07 @101   ----------------------------------------
 .byte   PATT
  .word Label_0100159A
@  #07 @102   ----------------------------------------
 .byte   EOT
 .byte   Gs2 ,v060
 .byte   W01
@  #07 @103   ----------------------------------------
 .byte   PATT
  .word Label_010015A8
@  #07 @104   ----------------------------------------
 .byte   N92 ,Gn2 ,v080
 .byte   N92 ,Cn3
 .byte   N92 ,Fn3
 .byte   TIE ,Gn3 ,v112
 .byte   W96
@  #07 @105   ----------------------------------------
 .byte   N92 ,Gn2 ,v080
 .byte   N92 ,Cn3
 .byte   N92 ,En3
 .byte   W44
 .byte   W03
 .byte   EOT
 .byte   Gn3
 .byte   W48
 .byte   W01
@  #07 @106   ----------------------------------------
 .byte   W96
@  #07 @107   ----------------------------------------
 .byte   W96
@  #07 @108   ----------------------------------------
 .byte   W96
@  #07 @109   ----------------------------------------
 .byte   W96
@  #07 @110   ----------------------------------------
 .byte   W96
@  #07 @111   ----------------------------------------
 .byte   W96
@  #07 @112   ----------------------------------------
 .byte   W96
@  #07 @113   ----------------------------------------
 .byte   W96
@  #07 @114   ----------------------------------------
 .byte   W96
@  #07 @115   ----------------------------------------
 .byte   W96
@  #07 @116   ----------------------------------------
 .byte   W96
@  #07 @117   ----------------------------------------
 .byte   W96
@  #07 @118   ----------------------------------------
 .byte   W96
@  #07 @119   ----------------------------------------
 .byte   W96
@  #07 @120   ----------------------------------------
 .byte   W96
@  #07 @121   ----------------------------------------
 .byte   W96
@  #07 @122   ----------------------------------------
 .byte   W96
@  #07 @123   ----------------------------------------
 .byte   W96
@  #07 @124   ----------------------------------------
 .byte   W96
@  #07 @125   ----------------------------------------
 .byte   N92 ,As2
 .byte   N92 ,Cs3
 .byte   N92 ,Fn3
 .byte   W96
@  #07 @126   ----------------------------------------
 .byte   Cn3
 .byte   N92 ,Ds3
 .byte   N92 ,Gn3
 .byte   W96
@  #07 @127   ----------------------------------------
 .byte   TIE ,Cn3
 .byte   TIE ,Fn3
 .byte   TIE ,Gs3
 .byte   W96
@  #07 @128   ----------------------------------------
Label_010016AB:
 .byte   W92
 .byte   W03
 .byte   PEND 
 .byte   EOT
 .byte   Cn3 ,v065
 .byte   Gs3
 .byte   W01
@  #07 @129   ----------------------------------------
 .byte   N92 ,Dn3 ,v080
 .byte   N92 ,Fn3
 .byte   N92 ,As3
 .byte   W96
@  #07 @130   ----------------------------------------
 .byte   En3
 .byte   N92 ,Gn3
 .byte   N92 ,Cn4
 .byte   W96
@  #07 @131   ----------------------------------------
 .byte   TIE ,Gs2
 .byte   TIE ,Cn3
 .byte   N23 ,Fn3
 .byte   W24
 .byte   Gn3
 .byte   W24
 .byte   En3
 .byte   W24
 .byte   Fn3
 .byte   W24
@  #07 @132   ----------------------------------------
 .byte   Gn3
 .byte   W24
 .byte   Gs3
 .byte   W24
 .byte   As3
 .byte   W24
 .byte   Cn4
 .byte   W23
 .byte   EOT
 .byte   Gs2 ,v060
 .byte   W01
@  #07 @133   ----------------------------------------
 .byte   TIE ,Dn3
 .byte   N92 ,Gn3
 .byte   N44 ,Dn4
 .byte   W48
 .byte   N92 ,Gn4
 .byte   W48
@  #07 @134   ----------------------------------------
 .byte   Gn3
 .byte   W48
 .byte   N44 ,Fn4
 .byte   W44
 .byte   W03
 .byte   EOT
 .byte   Dn3
 .byte   W01
@  #07 @135   ----------------------------------------
 .byte   TIE ,Cn3
 .byte   TIE ,Gn3
 .byte   N92 ,Gn4
 .byte   W96
@  #07 @136   ----------------------------------------
 .byte   Cn4
 .byte   W92
 .byte   W03
 .byte   EOT
 .byte   Cn3 ,v067
 .byte   W01
@  #07 @137   ----------------------------------------
 .byte   N92
 .byte   N92 ,Bn3
 .byte   N44 ,Dn4
 .byte   W48
 .byte   N92 ,Gn4
 .byte   W48
@  #07 @138   ----------------------------------------
 .byte   Cs3
 .byte   N92 ,Gs3
 .byte   W48
 .byte   N44 ,Fn4
 .byte   W48
@  #07 @139   ----------------------------------------
 .byte   TIE ,Cn3
 .byte   TIE ,Gn3
 .byte   TIE ,Cn4
 .byte   TIE ,Gn4
 .byte   W96
@  #07 @140   ----------------------------------------
 .byte   PATT
  .word Label_010016AB
@  #07 @141   ----------------------------------------
 .byte   EOT
 .byte   Cn3 ,v067
 .byte   Cn4 ,v079
 .byte   W01
 .byte   N68 ,As3 ,v080
 .byte   W72
 .byte   N11 ,Cn4
 .byte   W12
 .byte   Cs4
 .byte   W12
@  #07 @142   ----------------------------------------
 .byte   N68 ,Ds4
 .byte   W72
 .byte   N11 ,Fn4
 .byte   W12
 .byte   Gn4
 .byte   W12
@  #07 @143   ----------------------------------------
 .byte   N44
 .byte   W48
 .byte   N92 ,Fn4
 .byte   W48
@  #07 @144   ----------------------------------------
 .byte   W48
 .byte   N23 ,Cn4
 .byte   W24
 .byte   Gs3
 .byte   W24
@  #07 @145   ----------------------------------------
 .byte   N92 ,As3
 .byte   W96
@  #07 @146   ----------------------------------------
 .byte   N68 ,En3
 .byte   W72
 .byte   N11 ,Fn3
 .byte   W12
 .byte   Gn3
 .byte   W12
@  #07 @147   ----------------------------------------
 .byte   N44 ,Cn3
 .byte   W72
 .byte   N11 ,En3
 .byte   W12
 .byte   Fn3
 .byte   W12
@  #07 @148   ----------------------------------------
 .byte   Gn3
 .byte   W12
 .byte   Gs3
 .byte   W12
 .byte   As3
 .byte   W12
 .byte   Cn4
 .byte   W12
 .byte   N06 ,Dn4
 .byte   W06
 .byte   Ds4
 .byte   W07
 .byte   Fn4
 .byte   W07
 .byte   Gn4
 .byte   W07
 .byte   Gs4
 .byte   W07
 .byte   As4
 .byte   W07
 .byte   Cn5
 .byte   W07
@  #07 @149   ----------------------------------------
 .byte   N92 ,Dn5
 .byte   W02
 .byte   W02
 .byte   W02
 .byte   W02
 .byte   W02
 .byte   W02
 .byte   W02
 .byte   W02
 .byte   W02
 .byte   W02
 .byte   W02
 .byte   W02
 .byte   W02
 .byte   W02
 .byte   W02
 .byte   W02
 .byte   W02
 .byte   W02
 .byte   W02
 .byte   W02
 .byte   W02
 .byte   W02
 .byte   W03
 .byte   W02
 .byte   W02
 .byte   W02
 .byte   W02
 .byte   W02
 .byte   W02
 .byte   W02
 .byte   W02
 .byte   W02
 .byte   W02
 .byte   W02
 .byte   W02
 .byte   W02
 .byte   W02
 .byte   W02
 .byte   W02
 .byte   W02
 .byte   W02
 .byte   W02
 .byte   W02
 .byte   W02
 .byte   W02
 .byte   W03
 .byte   W02
@  #07 @150   ----------------------------------------
 .byte   TIE ,Gn5
 .byte   W96
@  #07 @151   ----------------------------------------
Label_01001799:
 .byte   W68
 .byte   W03
 .byte   PEND 
 .byte   EOT
 .byte   Gn5
 .byte   W01
 .byte   N11 ,As5 ,v080
 .byte   W12
 .byte   Gs5
 .byte   W12
@  #07 @152   ----------------------------------------
 .byte   N92 ,Gn5
 .byte   W72
 .byte   N23 ,Cn4 ,v112
 .byte   W24
@  #07 @153   ----------------------------------------
 .byte   N92 ,Dn4
 .byte   N92 ,Dn5 ,v080
 .byte   W96
@  #07 @154   ----------------------------------------
 .byte   TIE ,Gn4 ,v112
 .byte   TIE ,Gn5 ,v080
 .byte   W96
@  #07 @155   ----------------------------------------
 .byte   PATT
  .word Label_01001799
@  #07 @156   ----------------------------------------
 .byte   EOT
 .byte   Gn4 ,v091
 .byte   W01
 .byte   N23 ,Fn4 ,v112
 .byte   N23 ,Fn5 ,v080
 .byte   W24
 .byte   N84 ,En4 ,v112
 .byte   N68 ,En5 ,v080
 .byte   W72
@  #07 @157   ----------------------------------------
 .byte   N05 ,Cn5
 .byte   W06
 .byte   Gn4
 .byte   W06
 .byte   En4
 .byte   W06
 .byte   Cn4
 .byte   W06
Label_010017D9:
 .byte   N92 ,Fn3 ,v080
 .byte   N92 ,Gs3
 .byte   N92 ,Cn4
 .byte   W96
 .byte   PEND 
@  #07 @158   ----------------------------------------
 .byte   Dn3
 .byte   N92 ,Fn3
 .byte   N68 ,As3 ,v112
 .byte   W72
 .byte   N11 ,Gs3
 .byte   W12
 .byte   Gn3
 .byte   W12
@  #07 @159   ----------------------------------------
 .byte   N48 ,Fn3 ,v080
 .byte   N44 ,Gs3
 .byte   W48
 .byte   Fn3 ,v112
 .byte   W48
@  #07 @160   ----------------------------------------
 .byte   N92 ,Dn3 ,v080
 .byte   N68 ,Fn3
 .byte   N92 ,As3
 .byte   W96
@  #07 @161   ----------------------------------------
 .byte   PATT
  .word Label_010017D9
@  #07 @162   ----------------------------------------
 .byte   N92 ,Dn3 ,v080
 .byte   N92 ,Fn3
 .byte   N68 ,As3 ,v112
 .byte   W72
 .byte   N11 ,Gs3
 .byte   W12
 .byte   As3
 .byte   W12
@  #07 @163   ----------------------------------------
 .byte   N92 ,Fn3 ,v080
 .byte   N92 ,Gs3
 .byte   N44 ,Cn4 ,v112
 .byte   W48
 .byte   N48 ,As3
 .byte   W48
@  #07 @164   ----------------------------------------
 .byte   N92 ,Dn3 ,v080
 .byte   N92 ,Fn3
 .byte   N44 ,As3
 .byte   W48
 .byte   Fn4
 .byte   W48
@  #07 @165   ----------------------------------------
Label_01001828:
 .byte   N92 ,Cn4 ,v112
 .byte   N92 ,Fn4 ,v080
 .byte   N92 ,Gs4
 .byte   TIE ,Cn5
 .byte   W96
 .byte   PEND 
@  #07 @166   ----------------------------------------
 .byte   N68 ,As3 ,v112
 .byte   N92 ,Dn4 ,v080
 .byte   N92 ,Fn4
 .byte   W72
 .byte   N11 ,Gs3 ,v112
 .byte   W12
 .byte   Gn3
 .byte   W12
@  #07 @167   ----------------------------------------
 .byte   N44 ,Gs3
 .byte   N92 ,Fn4 ,v080
 .byte   N92 ,Gs4
 .byte   W48
 .byte   TIE ,Fn3 ,v112
 .byte   W44
 .byte   W03
 .byte   EOT
 .byte   Cn5
 .byte   W01
@  #07 @168   ----------------------------------------
 .byte   N92 ,Dn4 ,v080
 .byte   N92 ,Fn4
 .byte   N92 ,As4
 .byte   W68
 .byte   W03
 .byte   EOT
 .byte   Fn3
 .byte   W24
 .byte   W01
@  #07 @169   ----------------------------------------
 .byte   PATT
  .word Label_01001828
@  #07 @170   ----------------------------------------
 .byte   N68 ,As3 ,v112
 .byte   N92 ,Dn4 ,v080
 .byte   N92 ,Fn4
 .byte   W72
 .byte   N11 ,Gs3 ,v112
 .byte   W12
 .byte   As3
 .byte   W11
 .byte   EOT
 .byte   Cn5
 .byte   W01
@  #07 @171   ----------------------------------------
 .byte   N44 ,Cn4
 .byte   N92 ,Fn4 ,v080
 .byte   N92 ,Gs4
 .byte   N92 ,Fn5
 .byte   W48
 .byte   N48 ,Gn4 ,v112
 .byte   W48
@  #07 @172   ----------------------------------------
 .byte   TIE ,Ds4 ,v080
 .byte   TIE ,Gn4
 .byte   TIE ,Ds5
 .byte   TIE ,Gn5
 .byte   W04
 .byte   W02
 .byte   W02
 .byte   W04
 .byte   W04
 .byte   W02
 .byte   W02
 .byte   W04
 .byte   W04
 .byte   W02
 .byte   W02
 .byte   W04
 .byte   W04
 .byte   W02
 .byte   W02
 .byte   W04
 .byte   W04
 .byte   W02
 .byte   W02
 .byte   W04
 .byte   W04
 .byte   W02
 .byte   W02
 .byte   W04
 .byte   W04
 .byte   W02
 .byte   W02
 .byte   W04
 .byte   W04
 .byte   W02
 .byte   W02
 .byte   W04
@  #07 @173   ----------------------------------------
 .byte   W04
 .byte   W02
 .byte   W02
 .byte   W04
 .byte   W04
 .byte   W02
 .byte   W02
 .byte   W04
 .byte   W04
 .byte   W02
 .byte   W02
 .byte   W04
 .byte   W04
 .byte   W02
 .byte   W02
 .byte   W04
 .byte   W04
 .byte   W02
 .byte   W02
 .byte   W04
 .byte   W04
 .byte   W02
 .byte   W02
 .byte   W04
 .byte   W04
 .byte   W02
 .byte   W02
 .byte   W04
 .byte   W04
 .byte   W02
 .byte   W02
 .byte   W04
@  #07 @174   ----------------------------------------
 .byte   W04
 .byte   W02
 .byte   W02
 .byte   W04
 .byte   W04
 .byte   W02
 .byte   W02
 .byte   W04
 .byte   W04
 .byte   W02
 .byte   W02
 .byte   W04
 .byte   W04
 .byte   W02
 .byte   W02
 .byte   W04
 .byte   W04
 .byte   W02
 .byte   W02
 .byte   W04
 .byte   W04
 .byte   W02
 .byte   W02
 .byte   W04
 .byte   W04
 .byte   W02
 .byte   W02
 .byte   W04
 .byte   W04
 .byte   W02
 .byte   W02
 .byte   W04
@  #07 @175   ----------------------------------------
 .byte   W04
 .byte   W02
 .byte   W02
 .byte   W04
 .byte   W04
 .byte   W02
 .byte   W02
 .byte   W04
 .byte   W04
 .byte   W02
 .byte   W02
 .byte   W04
 .byte   W04
 .byte   W02
 .byte   W02
 .byte   W04
 .byte   W04
 .byte   W02
 .byte   W02
 .byte   W04
 .byte   W04
 .byte   W02
 .byte   W02
 .byte   W04
 .byte   W04
 .byte   W02
 .byte   W02
 .byte   W04
 .byte   W04
 .byte   W02
 .byte   W02
 .byte   W04
@  #07 @176   ----------------------------------------
 .byte   W96
@  #07 @177   ----------------------------------------
 .byte   W96
@  #07 @178   ----------------------------------------
 .byte   W92
 .byte   W03
 .byte   EOT
 .byte   Ds4 ,v079
 .byte   Ds5 ,v091
 .byte   W01
@  #07 @179   ----------------------------------------
 .byte   W96
@  #07 @180   ----------------------------------------
 .byte   W96
@  #07 @181   ----------------------------------------
 .byte   W96
@  #07 @182   ----------------------------------------
 .byte   W96
@  #07 @183   ----------------------------------------
 .byte   W96
@  #07 @184   ----------------------------------------
 .byte   W96
@  #07 @185   ----------------------------------------
 .byte   W96
@  #07 @186   ----------------------------------------
 .byte   W96
@  #07 @187   ----------------------------------------
 .byte   GOTO
  .word Label_010013D0
 .byte   FINE

@**************** Track 8 (Midi-Chn.7) ****************@

UntamedGarden_008:
@  #08 @000   ----------------------------------------
 .byte   KEYSH , UntamedGarden_key+0
 .byte   VOICE , 18
 .byte   VOL , 46*UntamedGarden_mvl/mxv
 .byte   PAN , c_v+0
 .byte   W96
@  #08 @001   ----------------------------------------
 .byte   W96
@  #08 @002   ----------------------------------------
 .byte   W96
@  #08 @003   ----------------------------------------
 .byte   W96
@  #08 @004   ----------------------------------------
 .byte   W96
@  #08 @005   ----------------------------------------
 .byte   W96
@  #08 @006   ----------------------------------------
 .byte   W96
@  #08 @007   ----------------------------------------
 .byte   W96
@  #08 @008   ----------------------------------------
Label_01001938:
 .byte   W96
@  #08 @009   ----------------------------------------
 .byte   W96
@  #08 @010   ----------------------------------------
 .byte   W96
@  #08 @011   ----------------------------------------
 .byte   W96
@  #08 @012   ----------------------------------------
 .byte   W96
@  #08 @013   ----------------------------------------
 .byte   W96
@  #08 @014   ----------------------------------------
 .byte   W96
@  #08 @015   ----------------------------------------
 .byte   W96
@  #08 @016   ----------------------------------------
 .byte   W96
@  #08 @017   ----------------------------------------
 .byte   W96
@  #08 @018   ----------------------------------------
 .byte   W96
@  #08 @019   ----------------------------------------
 .byte   W96
@  #08 @020   ----------------------------------------
 .byte   W96
@  #08 @021   ----------------------------------------
 .byte   W96
@  #08 @022   ----------------------------------------
 .byte   W96
@  #08 @023   ----------------------------------------
 .byte   W96
@  #08 @024   ----------------------------------------
 .byte   W96
@  #08 @025   ----------------------------------------
 .byte   W96
@  #08 @026   ----------------------------------------
 .byte   W96
@  #08 @027   ----------------------------------------
 .byte   W96
@  #08 @028   ----------------------------------------
 .byte   W96
@  #08 @029   ----------------------------------------
 .byte   W96
@  #08 @030   ----------------------------------------
 .byte   W96
@  #08 @031   ----------------------------------------
 .byte   W96
@  #08 @032   ----------------------------------------
 .byte   W96
@  #08 @033   ----------------------------------------
 .byte   W96
@  #08 @034   ----------------------------------------
 .byte   W96
@  #08 @035   ----------------------------------------
 .byte   W96
@  #08 @036   ----------------------------------------
 .byte   W96
@  #08 @037   ----------------------------------------
 .byte   W96
@  #08 @038   ----------------------------------------
 .byte   W96
@  #08 @039   ----------------------------------------
 .byte   W96
@  #08 @040   ----------------------------------------
 .byte   W96
@  #08 @041   ----------------------------------------
 .byte   W96
@  #08 @042   ----------------------------------------
 .byte   W96
@  #08 @043   ----------------------------------------
 .byte   W96
@  #08 @044   ----------------------------------------
 .byte   W96
@  #08 @045   ----------------------------------------
 .byte   W96
@  #08 @046   ----------------------------------------
 .byte   W96
@  #08 @047   ----------------------------------------
 .byte   W96
@  #08 @048   ----------------------------------------
 .byte   W96
@  #08 @049   ----------------------------------------
 .byte   W96
@  #08 @050   ----------------------------------------
 .byte   W96
@  #08 @051   ----------------------------------------
 .byte   W96
@  #08 @052   ----------------------------------------
 .byte   W96
@  #08 @053   ----------------------------------------
 .byte   W96
@  #08 @054   ----------------------------------------
 .byte   W96
@  #08 @055   ----------------------------------------
 .byte   W96
@  #08 @056   ----------------------------------------
 .byte   W96
@  #08 @057   ----------------------------------------
 .byte   W96
@  #08 @058   ----------------------------------------
 .byte   N11 ,Gn1 ,v096
 .byte   W12
 .byte   Cs2
 .byte   W12
 .byte   As2
 .byte   W12
 .byte   Cs3
 .byte   W12
 .byte   N44 ,Fn3
 .byte   W48
@  #08 @059   ----------------------------------------
 .byte   N11 ,Gn1
 .byte   W12
 .byte   Cn2
 .byte   W12
 .byte   Gn2
 .byte   W12
 .byte   Cn3
 .byte   W12
 .byte   N44 ,En3
 .byte   W48
@  #08 @060   ----------------------------------------
 .byte   N11 ,Fn1
 .byte   W12
 .byte   Fn2
 .byte   W12
 .byte   Cn3
 .byte   W12
 .byte   N32 ,Fn3
 .byte   W36
 .byte   N23 ,Cn3
 .byte   W24
@  #08 @061   ----------------------------------------
 .byte   Gn3
 .byte   W24
 .byte   Fn3
 .byte   W24
 .byte   Cn3
 .byte   W24
 .byte   Gs2
 .byte   W24
@  #08 @062   ----------------------------------------
 .byte   N11 ,Fn2
 .byte   W12
 .byte   Cn3
 .byte   W12
 .byte   N68 ,Fn3
 .byte   W72
@  #08 @063   ----------------------------------------
 .byte   N11 ,Fn2
 .byte   W12
 .byte   Cs3
 .byte   W12
 .byte   N68 ,Fn3
 .byte   W72
@  #08 @064   ----------------------------------------
 .byte   N11 ,Cn2
 .byte   W12
 .byte   Gn2
 .byte   W12
 .byte   Cn3
 .byte   W12
 .byte   N32 ,En3
 .byte   W36
 .byte   N23 ,Cn3
 .byte   W24
@  #08 @065   ----------------------------------------
Label_010019B5:
 .byte   N11 ,Gn2 ,v096
 .byte   W12
 .byte   Cn3
 .byte   W12
 .byte   N68 ,Gn3
 .byte   W72
 .byte   PEND 
@  #08 @066   ----------------------------------------
 .byte   N11 ,As1
 .byte   W12
 .byte   As2
 .byte   W12
 .byte   N68 ,Cs3
 .byte   W72
@  #08 @067   ----------------------------------------
Label_010019C7:
 .byte   N11 ,Cn2 ,v096
 .byte   W12
 .byte   Gn2
 .byte   W12
 .byte   As2
 .byte   W12
 .byte   N56 ,Cs3
 .byte   W60
 .byte   PEND 
@  #08 @068   ----------------------------------------
 .byte   N23 ,Fn2
 .byte   W24
 .byte   Cn3
 .byte   W24
 .byte   Gn3
 .byte   W24
 .byte   Fn3
 .byte   W24
@  #08 @069   ----------------------------------------
Label_010019DC:
 .byte   N11 ,Fn2 ,v096
 .byte   W12
 .byte   Gs2
 .byte   W12
 .byte   Cn3
 .byte   W12
 .byte   N56 ,Fn3
 .byte   W60
 .byte   PEND 
@  #08 @070   ----------------------------------------
 .byte   N11 ,As2
 .byte   W12
 .byte   Fn3
 .byte   W12
 .byte   N68 ,As3
 .byte   W72
@  #08 @071   ----------------------------------------
Label_010019F0:
 .byte   N11 ,Cn3 ,v096
 .byte   W12
 .byte   Gn3
 .byte   W12
 .byte   N68 ,Cn4
 .byte   W72
 .byte   PEND 
@  #08 @072   ----------------------------------------
Label_010019FA:
 .byte   W48
 .byte   N23 ,Cn4 ,v096
 .byte   W24
 .byte   Fn3
 .byte   W24
 .byte   PEND 
@  #08 @073   ----------------------------------------
Label_01001A02:
 .byte   N11 ,Ds3 ,v096
 .byte   W12
 .byte   Fn3
 .byte   W12
 .byte   N68 ,Cn4
 .byte   W72
 .byte   PEND 
@  #08 @074   ----------------------------------------
 .byte   N11 ,As2
 .byte   W12
 .byte   Cs3
 .byte   W12
 .byte   Fn3
 .byte   W12
 .byte   N56 ,As3
 .byte   W60
@  #08 @075   ----------------------------------------
 .byte   N11 ,Cs3
 .byte   W12
 .byte   Cs2
 .byte   W12
 .byte   Gn2
 .byte   W12
 .byte   Cs3
 .byte   W12
 .byte   N44 ,Fn3
 .byte   W48
@  #08 @076   ----------------------------------------
 .byte   N23
 .byte   W24
 .byte   N68 ,Gn3
 .byte   W72
@  #08 @077   ----------------------------------------
 .byte   N92
 .byte   W96
@  #08 @078   ----------------------------------------
 .byte   PATT
  .word Label_010019C7
@  #08 @079   ----------------------------------------
 .byte   N11 ,En2 ,v096
 .byte   W12
 .byte   Gn2
 .byte   W12
 .byte   As2
 .byte   W12
 .byte   N56 ,Cs3
 .byte   W60
@  #08 @080   ----------------------------------------
 .byte   N23 ,Fn2
 .byte   W24
 .byte   Cn3
 .byte   W24
 .byte   N07 ,Gn3
 .byte   W08
 .byte   Gs3
 .byte   W08
 .byte   Gn3
 .byte   W08
 .byte   N23 ,Fn3
 .byte   W24
@  #08 @081   ----------------------------------------
 .byte   PATT
  .word Label_010019DC
@  #08 @082   ----------------------------------------
 .byte   N11 ,Fn2 ,v096
 .byte   W12
 .byte   Cn3
 .byte   W12
 .byte   Fn3
 .byte   W12
 .byte   Gs3
 .byte   W12
 .byte   N44
 .byte   W48
@  #08 @083   ----------------------------------------
Label_01001A59:
 .byte   N23 ,Cn4 ,v096
 .byte   W24
 .byte   N07 ,As3
 .byte   W08
 .byte   Cn4
 .byte   W08
 .byte   As3
 .byte   W08
 .byte   N23 ,Gn3
 .byte   W24
 .byte   Fn3
 .byte   W24
 .byte   PEND 
@  #08 @084   ----------------------------------------
 .byte   N11 ,Fs2
 .byte   W12
 .byte   Cn3
 .byte   W12
 .byte   En3
 .byte   W12
 .byte   N32 ,Fs3
 .byte   W36
 .byte   N23 ,Gs2
 .byte   W24
@  #08 @085   ----------------------------------------
 .byte   PATT
  .word Label_010019B5
@  #08 @086   ----------------------------------------
 .byte   N11 ,As1 ,v096
 .byte   W12
 .byte   As2
 .byte   W12
 .byte   Fn3
 .byte   W12
 .byte   N56 ,As3
 .byte   W60
@  #08 @087   ----------------------------------------
 .byte   PATT
  .word Label_010019F0
@  #08 @088   ----------------------------------------
 .byte   N11 ,Fn2 ,v096
 .byte   W12
 .byte   Gs2
 .byte   W12
 .byte   Cn3
 .byte   W12
 .byte   Gn3
 .byte   W12
 .byte   N44 ,Gs3
 .byte   W48
@  #08 @089   ----------------------------------------
 .byte   N23 ,Cn4
 .byte   W24
 .byte   N68 ,Fn3
 .byte   W72
@  #08 @090   ----------------------------------------
 .byte   PATT
  .word Label_01001A59
@  #08 @091   ----------------------------------------
 .byte   N11 ,Cn3 ,v096
 .byte   W12
 .byte   En3
 .byte   W12
 .byte   N68 ,Cn4
 .byte   W72
@  #08 @092   ----------------------------------------
 .byte   PATT
  .word Label_010019FA
@  #08 @093   ----------------------------------------
 .byte   PATT
  .word Label_01001A02
@  #08 @094   ----------------------------------------
 .byte   N11 ,As2 ,v096
 .byte   W12
 .byte   Cs3
 .byte   W12
 .byte   Fn3
 .byte   W12
 .byte   N56 ,Gs3
 .byte   W60
@  #08 @095   ----------------------------------------
 .byte   PATT
  .word Label_010019B5
@  #08 @096   ----------------------------------------
 .byte   W96
@  #08 @097   ----------------------------------------
 .byte   W96
@  #08 @098   ----------------------------------------
 .byte   W96
@  #08 @099   ----------------------------------------
 .byte   W96
@  #08 @100   ----------------------------------------
 .byte   W96
@  #08 @101   ----------------------------------------
 .byte   W96
@  #08 @102   ----------------------------------------
 .byte   W96
@  #08 @103   ----------------------------------------
 .byte   W96
@  #08 @104   ----------------------------------------
 .byte   W96
@  #08 @105   ----------------------------------------
 .byte   W96
@  #08 @106   ----------------------------------------
 .byte   W96
@  #08 @107   ----------------------------------------
 .byte   W96
@  #08 @108   ----------------------------------------
 .byte   W96
@  #08 @109   ----------------------------------------
 .byte   W96
@  #08 @110   ----------------------------------------
 .byte   W96
@  #08 @111   ----------------------------------------
 .byte   W96
@  #08 @112   ----------------------------------------
 .byte   W96
@  #08 @113   ----------------------------------------
 .byte   W96
@  #08 @114   ----------------------------------------
 .byte   W96
@  #08 @115   ----------------------------------------
 .byte   W96
@  #08 @116   ----------------------------------------
 .byte   N11 ,As1 ,v096
 .byte   W12
 .byte   Fn2
 .byte   W12
 .byte   As2
 .byte   W12
 .byte   N56 ,Cs3
 .byte   W60
@  #08 @117   ----------------------------------------
 .byte   N11 ,Gn2
 .byte   W12
 .byte   As2
 .byte   W12
 .byte   Ds3
 .byte   W12
 .byte   N56 ,Gn3
 .byte   W60
@  #08 @118   ----------------------------------------
 .byte   N11 ,Fn2
 .byte   W12
 .byte   Cn3
 .byte   W12
 .byte   Fn3
 .byte   W12
 .byte   N23 ,Gs3
 .byte   W24
 .byte   Fn3
 .byte   W24
 .byte   N11 ,Cn3
 .byte   W12
@  #08 @119   ----------------------------------------
 .byte   N23 ,Gs3
 .byte   W24
 .byte   Fn3
 .byte   W24
 .byte   N44 ,Cn3
 .byte   W48
@  #08 @120   ----------------------------------------
Label_01001B07:
 .byte   N11 ,Dn2 ,v096
 .byte   W12
 .byte   As2
 .byte   W12
 .byte   Dn3
 .byte   W12
 .byte   N23 ,As3
 .byte   W24
 .byte   Fn3
 .byte   W24
 .byte   N08 ,Dn3
 .byte   W09
 .byte   N01 ,Ds3
 .byte   N01 ,En3
 .byte   W01
 .byte   Fn3
 .byte   W02
 .byte   PEND 
@  #08 @121   ----------------------------------------
 .byte   N11 ,En3
 .byte   W12
 .byte   N23 ,Cn4
 .byte   W24
 .byte   N56 ,En3
 .byte   W60
@  #08 @122   ----------------------------------------
 .byte   N11 ,Fn2
 .byte   W12
 .byte   Gs2
 .byte   W12
 .byte   Cn3
 .byte   W12
 .byte   N56 ,Cn4
 .byte   W60
@  #08 @123   ----------------------------------------
 .byte   N23 ,Ds3
 .byte   W24
 .byte   Cn4
 .byte   W24
 .byte   N44 ,Ds3
 .byte   W48
@  #08 @124   ----------------------------------------
 .byte   N23 ,Gn2
 .byte   W24
 .byte   N08 ,Dn2
 .byte   W09
 .byte   N01 ,Ds2
 .byte   N01 ,En2
 .byte   W01
 .byte   Fn2
 .byte   W02
 .byte   N56 ,Gn2
 .byte   W60
@  #08 @125   ----------------------------------------
 .byte   N23
 .byte   W24
 .byte   N08 ,Cs2
 .byte   W09
 .byte   N01 ,Dn2
 .byte   N01 ,Ds2
 .byte   W01
 .byte   En2
 .byte   W02
 .byte   N56 ,Gn2
 .byte   W60
@  #08 @126   ----------------------------------------
Label_01001B59:
 .byte   N11 ,Cn3 ,v096
 .byte   W12
 .byte   Gn3
 .byte   W12
 .byte   N32 ,Cn4
 .byte   W36
 .byte   Gn3
 .byte   W36
 .byte   PEND 
@  #08 @127   ----------------------------------------
Label_01001B65:
 .byte   N92 ,En3 ,v096
 .byte   W03
 .byte   Gn3
 .byte   W04
 .byte   N88 ,Cn4
 .byte   W88
 .byte   W01
 .byte   PEND 
@  #08 @128   ----------------------------------------
Label_01001B70:
 .byte   N23 ,Dn3 ,v096
 .byte   W24
 .byte   N11 ,Fn3
 .byte   W12
 .byte   N23 ,Gn3
 .byte   W24
 .byte   N32 ,Fn3
 .byte   W36
 .byte   PEND 
@  #08 @129   ----------------------------------------
Label_01001B7E:
 .byte   N23 ,Cs3 ,v096
 .byte   W24
 .byte   N11 ,Fn3
 .byte   W12
 .byte   N23 ,Bn3
 .byte   W24
 .byte   N32 ,Fn3
 .byte   W36
 .byte   PEND 
@  #08 @130   ----------------------------------------
 .byte   N11 ,Cn3
 .byte   W12
 .byte   Dn3
 .byte   W12
 .byte   Fn3
 .byte   W12
 .byte   Gn3
 .byte   W12
 .byte   Cn4
 .byte   W12
 .byte   Gn3
 .byte   W12
 .byte   Fn3
 .byte   W12
 .byte   Gn3
 .byte   W12
@  #08 @131   ----------------------------------------
 .byte   PATT
  .word Label_01001B65
@  #08 @132   ----------------------------------------
 .byte   N11 ,Gn1 ,v096
 .byte   W12
 .byte   Cs2
 .byte   W12
 .byte   Cs3
 .byte   W12
 .byte   N23 ,Gn3
 .byte   W24
 .byte   N32 ,Cs3
 .byte   W36
@  #08 @133   ----------------------------------------
 .byte   N23 ,Cn3
 .byte   W03
 .byte   N20 ,Ds3
 .byte   W04
 .byte   N16 ,Gn3
 .byte   W17
 .byte   N11 ,Ds3
 .byte   W12
 .byte   N56 ,Gn3
 .byte   W60
@  #08 @134   ----------------------------------------
 .byte   N11 ,Fn2
 .byte   W12
 .byte   Cn3
 .byte   W12
 .byte   Fn3
 .byte   W12
 .byte   Gn3
 .byte   W12
 .byte   Cn4
 .byte   W12
 .byte   Gn3
 .byte   W12
 .byte   Fn3
 .byte   W12
 .byte   Gn3
 .byte   W12
@  #08 @135   ----------------------------------------
 .byte   N23 ,Cn4
 .byte   W24
 .byte   Gn3
 .byte   W24
 .byte   N44 ,Fn3
 .byte   W48
@  #08 @136   ----------------------------------------
 .byte   PATT
  .word Label_01001B07
@  #08 @137   ----------------------------------------
 .byte   N11 ,En3 ,v096
 .byte   W12
 .byte   Cn4
 .byte   W12
 .byte   N08 ,En3
 .byte   W09
 .byte   N01 ,Fn3
 .byte   N01 ,Fs3
 .byte   W01
 .byte   Gn3
 .byte   W02
 .byte   N11
 .byte   W12
 .byte   En4
 .byte   W12
 .byte   Gn3
 .byte   W12
 .byte   N08 ,Gs3
 .byte   W09
 .byte   N01 ,An3
 .byte   N01 ,As3
 .byte   W01
 .byte   Bn3
 .byte   W02
 .byte   N11 ,As3
 .byte   W12
@  #08 @138   ----------------------------------------
 .byte   N23 ,Cn3
 .byte   W24
 .byte   N11 ,Fn3
 .byte   W12
 .byte   N23 ,Gn3
 .byte   W24
 .byte   N11 ,Cn3
 .byte   W12
 .byte   Fn3
 .byte   W12
 .byte   Gn3
 .byte   W12
@  #08 @139   ----------------------------------------
 .byte   N23 ,Gn4
 .byte   W24
 .byte   N07 ,Fn4
 .byte   W08
 .byte   Gn4
 .byte   W08
 .byte   Fn4
 .byte   W08
 .byte   N23 ,Dn4
 .byte   W24
 .byte   Gs3
 .byte   W24
@  #08 @140   ----------------------------------------
 .byte   PATT
  .word Label_01001B70
@  #08 @141   ----------------------------------------
 .byte   PATT
  .word Label_01001B7E
@  #08 @142   ----------------------------------------
 .byte   PATT
  .word Label_01001B59
@  #08 @143   ----------------------------------------
 .byte   PATT
  .word Label_01001B65
@  #08 @144   ----------------------------------------
 .byte   PATT
  .word Label_01001B70
@  #08 @145   ----------------------------------------
 .byte   N23 ,Fn3 ,v096
 .byte   W24
 .byte   N11 ,Gn3
 .byte   W12
 .byte   N23 ,Bn3
 .byte   W24
 .byte   N32 ,Gn3
 .byte   W36
@  #08 @146   ----------------------------------------
 .byte   N23 ,Cn3
 .byte   N23 ,Gn3
 .byte   W24
 .byte   N11 ,Cn4
 .byte   W12
 .byte   Gn3
 .byte   W12
 .byte   Fn3
 .byte   W12
 .byte   Cn3
 .byte   W12
 .byte   Fn3
 .byte   W12
 .byte   Gn3
 .byte   W12
@  #08 @147   ----------------------------------------
 .byte   N92 ,Cn4
 .byte   W96
@  #08 @148   ----------------------------------------
Label_01001C5A:
 .byte   N92 ,Cn3 ,v096
 .byte   W03
 .byte   Fn3
 .byte   W04
 .byte   N88 ,Gs3
 .byte   W04
 .byte   N84 ,Cn4
 .byte   W84
 .byte   W01
 .byte   PEND 
@  #08 @149   ----------------------------------------
Label_01001C68:
 .byte   N92 ,As2 ,v096
 .byte   W03
 .byte   Dn3
 .byte   W04
 .byte   N88 ,Fn3
 .byte   W04
 .byte   N84 ,As3
 .byte   W84
 .byte   W01
 .byte   PEND 
@  #08 @150   ----------------------------------------
 .byte   PATT
  .word Label_01001C5A
@  #08 @151   ----------------------------------------
 .byte   PATT
  .word Label_01001C68
@  #08 @152   ----------------------------------------
 .byte   PATT
  .word Label_01001C5A
@  #08 @153   ----------------------------------------
 .byte   N92 ,As2 ,v092
 .byte   W03
 .byte   Dn3
 .byte   W04
 .byte   N88 ,Fn3
 .byte   W04
 .byte   N84 ,As3
 .byte   W84
 .byte   W01
@  #08 @154   ----------------------------------------
 .byte   N92 ,Cn3 ,v084
 .byte   W03
 .byte   Fn3
 .byte   W04
 .byte   N88 ,Gs3
 .byte   W04
 .byte   N84 ,Cn4
 .byte   W84
 .byte   W01
@  #08 @155   ----------------------------------------
 .byte   N92 ,As2 ,v080
 .byte   W03
 .byte   Dn3
 .byte   W04
 .byte   N88 ,Fn3
 .byte   W04
 .byte   N84 ,As3
 .byte   W84
 .byte   W01
@  #08 @156   ----------------------------------------
 .byte   N92 ,Cn3 ,v072
 .byte   W03
 .byte   Fn3
 .byte   W04
 .byte   N88 ,Gs3
 .byte   W04
 .byte   N84 ,Cn4
 .byte   W84
 .byte   W01
@  #08 @157   ----------------------------------------
 .byte   N92 ,As2 ,v068
 .byte   W03
 .byte   Dn3
 .byte   W04
 .byte   N88 ,Fn3
 .byte   W04
 .byte   N84 ,As3 ,v064
 .byte   W84
 .byte   W01
@  #08 @158   ----------------------------------------
 .byte   N92 ,Cn3 ,v060
 .byte   W03
 .byte   Fn3
 .byte   W04
 .byte   N88 ,Gs3
 .byte   W04
 .byte   N84 ,Cn4
 .byte   W84
 .byte   W01
@  #08 @159   ----------------------------------------
 .byte   N92 ,As2 ,v052
 .byte   W03
 .byte   Dn3
 .byte   W04
 .byte   N88 ,Fn3
 .byte   W04
 .byte   N84 ,As3
 .byte   W84
 .byte   W01
@  #08 @160   ----------------------------------------
 .byte   N92 ,Cn3 ,v048
 .byte   W03
 .byte   Fn3
 .byte   W04
 .byte   N88 ,Gs3
 .byte   W04
 .byte   N84 ,Cn4
 .byte   W84
 .byte   W01
@  #08 @161   ----------------------------------------
 .byte   N92 ,As2 ,v040
 .byte   W03
 .byte   Dn3
 .byte   W04
 .byte   N88 ,Fn3
 .byte   W04
 .byte   N84 ,As3
 .byte   W84
 .byte   W01
@  #08 @162   ----------------------------------------
 .byte   W96
@  #08 @163   ----------------------------------------
 .byte   W96
@  #08 @164   ----------------------------------------
 .byte   W96
@  #08 @165   ----------------------------------------
 .byte   W96
@  #08 @166   ----------------------------------------
 .byte   W96
@  #08 @167   ----------------------------------------
 .byte   W96
@  #08 @168   ----------------------------------------
 .byte   W96
@  #08 @169   ----------------------------------------
 .byte   W96
@  #08 @170   ----------------------------------------
 .byte   W96
@  #08 @171   ----------------------------------------
 .byte   W96
@  #08 @172   ----------------------------------------
 .byte   W96
@  #08 @173   ----------------------------------------
 .byte   W96
@  #08 @174   ----------------------------------------
 .byte   W96
@  #08 @175   ----------------------------------------
 .byte   W96
@  #08 @176   ----------------------------------------
 .byte   W96
@  #08 @177   ----------------------------------------
 .byte   W96
@  #08 @178   ----------------------------------------
 .byte   GOTO
  .word Label_01001938
 .byte   FINE

@**************** Track 9 (Midi-Chn.8) ****************@

UntamedGarden_009:
@  #09 @000   ----------------------------------------
 .byte   KEYSH , UntamedGarden_key+0
 .byte   VOICE , 124
 .byte   VOL , 46*UntamedGarden_mvl/mxv
 .byte   PAN , c_v+0
 .byte   W96
@  #09 @001   ----------------------------------------
 .byte   W96
@  #09 @002   ----------------------------------------
 .byte   W96
@  #09 @003   ----------------------------------------
 .byte   W96
@  #09 @004   ----------------------------------------
 .byte   W96
@  #09 @005   ----------------------------------------
 .byte   W96
@  #09 @006   ----------------------------------------
 .byte   W96
@  #09 @007   ----------------------------------------
 .byte   W96
@  #09 @008   ----------------------------------------
Label_01001D24:
 .byte   W96
@  #09 @009   ----------------------------------------
 .byte   W96
@  #09 @010   ----------------------------------------
 .byte   W96
@  #09 @011   ----------------------------------------
 .byte   W96
@  #09 @012   ----------------------------------------
 .byte   W96
@  #09 @013   ----------------------------------------
 .byte   W96
@  #09 @014   ----------------------------------------
 .byte   W96
@  #09 @015   ----------------------------------------
 .byte   W96
@  #09 @016   ----------------------------------------
 .byte   W96
@  #09 @017   ----------------------------------------
 .byte   W96
@  #09 @018   ----------------------------------------
 .byte   W96
@  #09 @019   ----------------------------------------
 .byte   W96
@  #09 @020   ----------------------------------------
 .byte   W96
@  #09 @021   ----------------------------------------
 .byte   W96
@  #09 @022   ----------------------------------------
 .byte   W96
@  #09 @023   ----------------------------------------
 .byte   W96
@  #09 @024   ----------------------------------------
 .byte   W96
@  #09 @025   ----------------------------------------
 .byte   W96
@  #09 @026   ----------------------------------------
 .byte   W96
@  #09 @027   ----------------------------------------
 .byte   W96
@  #09 @028   ----------------------------------------
 .byte   W96
@  #09 @029   ----------------------------------------
 .byte   W96
@  #09 @030   ----------------------------------------
 .byte   W96
@  #09 @031   ----------------------------------------
 .byte   W96
@  #09 @032   ----------------------------------------
 .byte   W96
@  #09 @033   ----------------------------------------
 .byte   W96
@  #09 @034   ----------------------------------------
 .byte   W96
@  #09 @035   ----------------------------------------
 .byte   W96
@  #09 @036   ----------------------------------------
 .byte   W96
@  #09 @037   ----------------------------------------
 .byte   W96
@  #09 @038   ----------------------------------------
 .byte   W96
@  #09 @039   ----------------------------------------
 .byte   W96
@  #09 @040   ----------------------------------------
 .byte   W96
@  #09 @041   ----------------------------------------
 .byte   W96
@  #09 @042   ----------------------------------------
 .byte   W96
@  #09 @043   ----------------------------------------
 .byte   W96
@  #09 @044   ----------------------------------------
 .byte   W96
@  #09 @045   ----------------------------------------
 .byte   W96
@  #09 @046   ----------------------------------------
 .byte   W96
@  #09 @047   ----------------------------------------
 .byte   W96
@  #09 @048   ----------------------------------------
 .byte   W96
@  #09 @049   ----------------------------------------
 .byte   W96
@  #09 @050   ----------------------------------------
 .byte   W96
@  #09 @051   ----------------------------------------
 .byte   W96
@  #09 @052   ----------------------------------------
 .byte   W96
@  #09 @053   ----------------------------------------
 .byte   W96
@  #09 @054   ----------------------------------------
 .byte   W96
@  #09 @055   ----------------------------------------
 .byte   W96
@  #09 @056   ----------------------------------------
 .byte   W96
@  #09 @057   ----------------------------------------
 .byte   W36
 .byte   N11 ,Cn1 ,v080
 .byte   N12 ,Dn1
 .byte   W12
 .byte   N23
 .byte   W24
 .byte   As1
 .byte   W24
@  #09 @058   ----------------------------------------
Label_01001D60:
 .byte   N23 ,Cn1 ,v080
 .byte   N23 ,Fs1
 .byte   N23 ,An2
 .byte   W24
 .byte   Fs1
 .byte   W24
 .byte   Dn1
 .byte   N23 ,Fs1
 .byte   W24
 .byte   Cn1
 .byte   N23 ,Fs1
 .byte   W24
 .byte   PEND 
@  #09 @059   ----------------------------------------
Label_01001D73:
 .byte   N23 ,Cn1 ,v080
 .byte   N23 ,Fs1
 .byte   W24
 .byte   N23
 .byte   W24
 .byte   Dn1
 .byte   N23 ,Fs1
 .byte   W24
 .byte   N23
 .byte   W24
 .byte   PEND 
@  #09 @060   ----------------------------------------
Label_01001D82:
 .byte   N23 ,Cn1 ,v080
 .byte   N23 ,Fs1
 .byte   W24
 .byte   N23
 .byte   W24
 .byte   Dn1
 .byte   N23 ,Fs1
 .byte   W24
 .byte   Cn1
 .byte   N23 ,Fs1
 .byte   W24
 .byte   PEND 
@  #09 @061   ----------------------------------------
 .byte   PATT
  .word Label_01001D73
@  #09 @062   ----------------------------------------
 .byte   PATT
  .word Label_01001D82
@  #09 @063   ----------------------------------------
 .byte   PATT
  .word Label_01001D73
@  #09 @064   ----------------------------------------
 .byte   PATT
  .word Label_01001D82
@  #09 @065   ----------------------------------------
Label_01001DA7:
 .byte   N23 ,Cn1 ,v080
 .byte   N23 ,Fs1
 .byte   W24
 .byte   N23
 .byte   W24
 .byte   Dn1
 .byte   N23 ,Fs1
 .byte   W24
 .byte   As1
 .byte   W24
 .byte   PEND 
@  #09 @066   ----------------------------------------
 .byte   PATT
  .word Label_01001D82
@  #09 @067   ----------------------------------------
 .byte   PATT
  .word Label_01001D73
@  #09 @068   ----------------------------------------
 .byte   PATT
  .word Label_01001D82
@  #09 @069   ----------------------------------------
 .byte   PATT
  .word Label_01001DA7
@  #09 @070   ----------------------------------------
 .byte   PATT
  .word Label_01001D82
@  #09 @071   ----------------------------------------
 .byte   PATT
  .word Label_01001D73
@  #09 @072   ----------------------------------------
 .byte   PATT
  .word Label_01001D82
@  #09 @073   ----------------------------------------
 .byte   N23 ,Cn1 ,v080
 .byte   N23 ,Fs1
 .byte   W24
 .byte   As1
 .byte   W24
 .byte   Dn1
 .byte   N23 ,Fs1
 .byte   W24
 .byte   N23
 .byte   W24
@  #09 @074   ----------------------------------------
 .byte   PATT
  .word Label_01001D82
@  #09 @075   ----------------------------------------
 .byte   PATT
  .word Label_01001D73
@  #09 @076   ----------------------------------------
 .byte   PATT
  .word Label_01001D82
@  #09 @077   ----------------------------------------
 .byte   N23 ,Cn1 ,v080
 .byte   N32 ,An2
 .byte   W36
 .byte   N11 ,An1
 .byte   W12
 .byte   N23 ,Bn1
 .byte   W24
 .byte   An1
 .byte   W24
@  #09 @078   ----------------------------------------
 .byte   PATT
  .word Label_01001D82
@  #09 @079   ----------------------------------------
 .byte   PATT
  .word Label_01001D73
@  #09 @080   ----------------------------------------
 .byte   PATT
  .word Label_01001D82
@  #09 @081   ----------------------------------------
 .byte   PATT
  .word Label_01001DA7
@  #09 @082   ----------------------------------------
 .byte   PATT
  .word Label_01001D82
@  #09 @083   ----------------------------------------
 .byte   PATT
  .word Label_01001D73
@  #09 @084   ----------------------------------------
 .byte   PATT
  .word Label_01001D82
@  #09 @085   ----------------------------------------
 .byte   PATT
  .word Label_01001DA7
@  #09 @086   ----------------------------------------
 .byte   PATT
  .word Label_01001D82
@  #09 @087   ----------------------------------------
 .byte   PATT
  .word Label_01001D73
@  #09 @088   ----------------------------------------
 .byte   PATT
  .word Label_01001D82
@  #09 @089   ----------------------------------------
 .byte   PATT
  .word Label_01001DA7
@  #09 @090   ----------------------------------------
 .byte   PATT
  .word Label_01001D82
@  #09 @091   ----------------------------------------
 .byte   PATT
  .word Label_01001D73
@  #09 @092   ----------------------------------------
 .byte   PATT
  .word Label_01001D82
@  #09 @093   ----------------------------------------
 .byte   N23 ,Cn1 ,v080
 .byte   N23 ,Fs1
 .byte   W24
 .byte   As1
 .byte   W24
 .byte   Dn1
 .byte   N23 ,Fs1
 .byte   W24
 .byte   Fn1
 .byte   W24
@  #09 @094   ----------------------------------------
 .byte   PATT
  .word Label_01001D60
@  #09 @095   ----------------------------------------
 .byte   N23 ,Cn1 ,v080
 .byte   N23 ,Fs1
 .byte   W24
 .byte   As1
 .byte   W24
 .byte   Dn1
 .byte   N23 ,Fs1
 .byte   W24
 .byte   Fn1
 .byte   N23 ,Fs1
 .byte   W24
@  #09 @096   ----------------------------------------
 .byte   Cn1
 .byte   N23 ,An2
 .byte   W96
@  #09 @097   ----------------------------------------
 .byte   W96
@  #09 @098   ----------------------------------------
 .byte   W96
@  #09 @099   ----------------------------------------
 .byte   W96
@  #09 @100   ----------------------------------------
 .byte   W96
@  #09 @101   ----------------------------------------
 .byte   W96
@  #09 @102   ----------------------------------------
 .byte   W96
@  #09 @103   ----------------------------------------
 .byte   W96
@  #09 @104   ----------------------------------------
 .byte   W96
@  #09 @105   ----------------------------------------
 .byte   W96
@  #09 @106   ----------------------------------------
 .byte   W96
@  #09 @107   ----------------------------------------
 .byte   W96
@  #09 @108   ----------------------------------------
 .byte   W96
@  #09 @109   ----------------------------------------
 .byte   W96
@  #09 @110   ----------------------------------------
 .byte   W96
@  #09 @111   ----------------------------------------
 .byte   W96
@  #09 @112   ----------------------------------------
 .byte   W96
@  #09 @113   ----------------------------------------
 .byte   W96
@  #09 @114   ----------------------------------------
 .byte   W96
@  #09 @115   ----------------------------------------
 .byte   W36
 .byte   N12 ,Dn1
 .byte   W12
 .byte   N23
 .byte   W24
 .byte   Cn2
 .byte   W24
@  #09 @116   ----------------------------------------
 .byte   PATT
  .word Label_01001D60
@  #09 @117   ----------------------------------------
Label_01001E95:
 .byte   N23 ,Cn1 ,v080
 .byte   N23 ,Fs1
 .byte   W24
 .byte   Cn1
 .byte   N23 ,Fs1
 .byte   W24
 .byte   Dn1
 .byte   N23 ,Fs1
 .byte   W24
 .byte   N23
 .byte   W24
 .byte   PEND 
@  #09 @118   ----------------------------------------
 .byte   PATT
  .word Label_01001D82
@  #09 @119   ----------------------------------------
 .byte   PATT
  .word Label_01001E95
@  #09 @120   ----------------------------------------
 .byte   PATT
  .word Label_01001D82
@  #09 @121   ----------------------------------------
 .byte   PATT
  .word Label_01001E95
@  #09 @122   ----------------------------------------
 .byte   PATT
  .word Label_01001D82
@  #09 @123   ----------------------------------------
 .byte   N23 ,Cn1 ,v080
 .byte   N23 ,Fs1
 .byte   W24
 .byte   Cn1
 .byte   N23 ,Fs1
 .byte   W24
 .byte   Dn1
 .byte   N23 ,Cs2
 .byte   W24
 .byte   Fs1
 .byte   W24
@  #09 @124   ----------------------------------------
Label_01001ECF:
 .byte   N23 ,Cn1 ,v080
 .byte   N23 ,An2
 .byte   W24
 .byte   Fs1
 .byte   W24
 .byte   Dn1
 .byte   N23 ,Fs1
 .byte   W24
 .byte   Cn1
 .byte   N23 ,Fs1
 .byte   W24
 .byte   PEND 
@  #09 @125   ----------------------------------------
 .byte   PATT
  .word Label_01001D73
@  #09 @126   ----------------------------------------
 .byte   PATT
  .word Label_01001D82
@  #09 @127   ----------------------------------------
 .byte   PATT
  .word Label_01001DA7
@  #09 @128   ----------------------------------------
 .byte   PATT
  .word Label_01001ECF
@  #09 @129   ----------------------------------------
 .byte   PATT
  .word Label_01001D73
@  #09 @130   ----------------------------------------
 .byte   N23 ,Cn1 ,v080
 .byte   N23 ,Fs1
 .byte   W24
 .byte   N23
 .byte   W24
 .byte   Cn2
 .byte   N23 ,An2
 .byte   W24
 .byte   Cn1
 .byte   N23 ,Fs1
 .byte   W24
@  #09 @131   ----------------------------------------
 .byte   Cn1
 .byte   N23 ,Cn2
 .byte   N23 ,Cs2
 .byte   W24
 .byte   N11 ,Fs1
 .byte   W12
 .byte   An1
 .byte   W12
 .byte   Fs1
 .byte   W12
 .byte   Cn2
 .byte   W12
 .byte   N23 ,Fs1
 .byte   N23 ,An1
 .byte   W24
@  #09 @132   ----------------------------------------
 .byte   Cn1
 .byte   N23 ,Fs1
 .byte   N23 ,Cs2
 .byte   W24
 .byte   Fs1
 .byte   W24
 .byte   Dn1
 .byte   N23 ,As1
 .byte   W24
 .byte   Cn1
 .byte   N23 ,Fs1
 .byte   W24
@  #09 @133   ----------------------------------------
 .byte   PATT
  .word Label_01001E95
@  #09 @134   ----------------------------------------
 .byte   PATT
  .word Label_01001D82
@  #09 @135   ----------------------------------------
 .byte   PATT
  .word Label_01001E95
@  #09 @136   ----------------------------------------
 .byte   PATT
  .word Label_01001D82
@  #09 @137   ----------------------------------------
 .byte   PATT
  .word Label_01001E95
@  #09 @138   ----------------------------------------
 .byte   PATT
  .word Label_01001D82
@  #09 @139   ----------------------------------------
Label_01001F4B:
 .byte   N23 ,Cn1 ,v080
 .byte   N23 ,Fs1
 .byte   W24
 .byte   Cn1
 .byte   N23 ,Fs1
 .byte   W24
 .byte   Dn1
 .byte   N23 ,Fs1
 .byte   N23 ,An2
 .byte   W24
 .byte   Fs1
 .byte   W24
 .byte   PEND 
@  #09 @140   ----------------------------------------
Label_01001F5E:
 .byte   N23 ,Cn1 ,v080
 .byte   N23 ,Fs1
 .byte   N23 ,Cs2
 .byte   W24
 .byte   Fs1
 .byte   W24
 .byte   Dn1
 .byte   N23 ,Fs1
 .byte   W24
 .byte   Cn1
 .byte   N23 ,Fs1
 .byte   W24
 .byte   PEND 
@  #09 @141   ----------------------------------------
 .byte   PATT
  .word Label_01001E95
@  #09 @142   ----------------------------------------
 .byte   PATT
  .word Label_01001D82
@  #09 @143   ----------------------------------------
 .byte   PATT
  .word Label_01001F4B
@  #09 @144   ----------------------------------------
 .byte   PATT
  .word Label_01001F5E
@  #09 @145   ----------------------------------------
 .byte   PATT
  .word Label_01001D82
@  #09 @146   ----------------------------------------
 .byte   N23 ,Cn1 ,v080
 .byte   N23 ,As1
 .byte   N23 ,Cs2
 .byte   W24
 .byte   Cn1
 .byte   N23 ,Fs1
 .byte   W24
 .byte   Dn1
 .byte   N23 ,Cs2
 .byte   W24
 .byte   Cn1
 .byte   N23 ,Fs1
 .byte   W24
@  #09 @147   ----------------------------------------
 .byte   Cn1
 .byte   N23 ,As1
 .byte   W24
 .byte   Cn1
 .byte   W12
 .byte   N12 ,Dn1
 .byte   W12
 .byte   N11
 .byte   W12
 .byte   N11
 .byte   W12
 .byte   N23 ,Fn1
 .byte   W24
@  #09 @148   ----------------------------------------
Label_01001FAE:
 .byte   N92 ,Cn1 ,v080
 .byte   TIE ,Cs2
 .byte   W96
 .byte   PEND 
@  #09 @149   ----------------------------------------
 .byte   W92
 .byte   W03
 .byte   EOT
 .byte   W01
@  #09 @150   ----------------------------------------
 .byte   W96
@  #09 @151   ----------------------------------------
 .byte   W96
@  #09 @152   ----------------------------------------
Label_01001FBB:
 .byte   N92 ,Cn1 ,v080
 .byte   TIE ,An2
 .byte   W96
 .byte   PEND 
@  #09 @153   ----------------------------------------
 .byte   W92
 .byte   W03
 .byte   EOT
 .byte   W01
@  #09 @154   ----------------------------------------
 .byte   W96
@  #09 @155   ----------------------------------------
 .byte   W96
@  #09 @156   ----------------------------------------
 .byte   PATT
  .word Label_01001FAE
@  #09 @157   ----------------------------------------
 .byte   W92
 .byte   W03
 .byte   EOT
 .byte   Cs2
 .byte   W01
@  #09 @158   ----------------------------------------
 .byte   W96
@  #09 @159   ----------------------------------------
 .byte   W96
@  #09 @160   ----------------------------------------
 .byte   PATT
  .word Label_01001FBB
@  #09 @161   ----------------------------------------
 .byte   W92
 .byte   W03
 .byte   EOT
 .byte   An2
 .byte   W01
@  #09 @162   ----------------------------------------
 .byte   W96
@  #09 @163   ----------------------------------------
 .byte   W96
@  #09 @164   ----------------------------------------
 .byte   W96
@  #09 @165   ----------------------------------------
 .byte   W96
@  #09 @166   ----------------------------------------
 .byte   W96
@  #09 @167   ----------------------------------------
 .byte   W96
@  #09 @168   ----------------------------------------
 .byte   W96
@  #09 @169   ----------------------------------------
 .byte   W96
@  #09 @170   ----------------------------------------
 .byte   W96
@  #09 @171   ----------------------------------------
 .byte   W96
@  #09 @172   ----------------------------------------
 .byte   W96
@  #09 @173   ----------------------------------------
 .byte   W96
@  #09 @174   ----------------------------------------
 .byte   W96
@  #09 @175   ----------------------------------------
 .byte   W96
@  #09 @176   ----------------------------------------
 .byte   W96
@  #09 @177   ----------------------------------------
 .byte   W96
@  #09 @178   ----------------------------------------
 .byte   GOTO
  .word Label_01001D24
 .byte   FINE

@******************************************************@
	.align	2

UntamedGarden:
	.byte	9	@ NumTrks
	.byte	0	@ NumBlks
	.byte	UntamedGarden_pri	@ Priority
	.byte	UntamedGarden_rev	@ Reverb.
    
	.word	UntamedGarden_grp
    
	.word	UntamedGarden_001
	.word	UntamedGarden_002
	.word	UntamedGarden_003
	.word	UntamedGarden_004
	.word	UntamedGarden_005
	.word	UntamedGarden_006
	.word	UntamedGarden_007
	.word	UntamedGarden_008
	.word	UntamedGarden_009

	.end
