//Event file generated from Sappy .s format.
	#include "MPlayDef.event"

	#define	Biggering_grp  voicegroup000
	#define	Biggering_pri  0
	#define	Biggering_rev  0
	#define	Biggering_mvl  127
	#define	Biggering_key  0
	#define	Biggering_tbs  1
	#define	Biggering_exg  0
	#define	Biggering_cmp  1

	// .rodata
	//	Biggering
	ALIGN 4


//**************** Track 1 (Midi-Chn.0) ****************//

Biggering_001:
//  #01 //000   ----------------------------------------
 BYTE   KEYSH   Biggering_key+0
Label_EDD3DE:
 BYTE   TEMPO   108*Biggering_tbs/2
 BYTE   VOICE   20
 BYTE   VOL   37*Biggering_mvl/mxv
 BYTE   PAN   c_v+0
 BYTE   VOL   37*Biggering_mvl/mxv
 BYTE   PAN   c_v+0
 BYTE   W96
//  #01 //001   ----------------------------------------
 BYTE   W96
//  #01 //002   ----------------------------------------
 BYTE   W96
//  #01 //003   ----------------------------------------
 BYTE   W96
//  #01 //004   ----------------------------------------
 BYTE   W96
//  #01 //005   ----------------------------------------
 BYTE   W96
//  #01 //006   ----------------------------------------
 BYTE   W96
//  #01 //007   ----------------------------------------
 BYTE   W96
//  #01 //008   ----------------------------------------
 BYTE   W96
//  #01 //009   ----------------------------------------
 BYTE   W96
//  #01 //010   ----------------------------------------
 BYTE   W96
//  #01 //011   ----------------------------------------
 BYTE   W96
//  #01 //012   ----------------------------------------
 BYTE   W96
//  #01 //013   ----------------------------------------
 BYTE   W96
//  #01 //014   ----------------------------------------
 BYTE   W96
//  #01 //015   ----------------------------------------
 BYTE   W96
//  #01 //016   ----------------------------------------
 BYTE   N92  Cs3  v064
 BYTE   N92  En3
 BYTE   N92  An3
 BYTE   W96
//  #01 //017   ----------------------------------------
 BYTE   An2
 BYTE   N92  Dn3
 BYTE   N92  Fn3
 BYTE   W96
//  #01 //018   ----------------------------------------
 BYTE   Dn3
 BYTE   N92  Gn3
 BYTE   N92  As3
 BYTE   W03
 BYTE   W03
 BYTE   W03
 BYTE   W03
 BYTE   W03
 BYTE   W03
 BYTE   W03
 BYTE   W03
 BYTE   W03
 BYTE   W03
 BYTE   W03
 BYTE   W03
 BYTE   W03
 BYTE   W03
 BYTE   W03
 BYTE   W03
 BYTE   W03
 BYTE   W03
 BYTE   W03
 BYTE   W03
 BYTE   W03
 BYTE   W03
 BYTE   W03
 BYTE   W03
 BYTE   W03
 BYTE   W03
 BYTE   W03
 BYTE   W03
 BYTE   W03
 BYTE   W03
 BYTE   W03
 BYTE   W03
//  #01 //019   ----------------------------------------
 BYTE   N11  Cn3  v096
 BYTE   N11  Fn3
 BYTE   N11  An3
 BYTE   W96
//  #01 //020   ----------------------------------------
Label_EDD435:
 BYTE   N68  As2  v052
 BYTE   N68  Ds3
 BYTE   N68  Gn3
 BYTE   W72
 BYTE   N23  As2
 BYTE   N23  Ds3
 BYTE   N23  Fn3
 BYTE   W24
 BYTE   PEND 
//  #01 //021   ----------------------------------------
Label_EDD445:
 BYTE   N92  As2  v052
 BYTE   N92  Ds3
 BYTE   N92  Gn3
 BYTE   W96
 BYTE   PEND 
//  #01 //022   ----------------------------------------
 BYTE   PATT
  POIN2 Label_EDD435
//  #01 //023   ----------------------------------------
 BYTE   PATT
  POIN2 Label_EDD445
//  #01 //024   ----------------------------------------
 BYTE   PATT
  POIN2 Label_EDD435
//  #01 //025   ----------------------------------------
 BYTE   PATT
  POIN2 Label_EDD445
//  #01 //026   ----------------------------------------
 BYTE   PATT
  POIN2 Label_EDD435
//  #01 //027   ----------------------------------------
 BYTE   N92  As2  v052
 BYTE   N92  Ds3
 BYTE   N92  Gn3
 BYTE   W06
 BYTE   W06
 BYTE   W07
 BYTE   W06
 BYTE   W07
 BYTE   W06
 BYTE   W06
 BYTE   W07
 BYTE   W06
 BYTE   W07
 BYTE   W06
 BYTE   W06
 BYTE   W07
 BYTE   W06
 BYTE   W07
//  #01 //028   ----------------------------------------
Label_EDD47D:
 BYTE   N68  Cn3  v064
 BYTE   N68  Ds3
 BYTE   N68  Gn3
 BYTE   W72
 BYTE   N23  Cn3
 BYTE   N23  Dn3
 BYTE   N23  Gn3
 BYTE   W24
 BYTE   PEND 
//  #01 //029   ----------------------------------------
 BYTE   N92  Gs2
 BYTE   N92  Cn3
 BYTE   N92  Ds3
 BYTE   W96
//  #01 //030   ----------------------------------------
 BYTE   PATT
  POIN2 Label_EDD47D
//  #01 //031   ----------------------------------------
 BYTE   N92  As2  v064
 BYTE   N92  Dn3
 BYTE   N92  Fn3
 BYTE   W96
//  #01 //032   ----------------------------------------
 BYTE   N68  Gs2
 BYTE   N68  Cn3
 BYTE   N68  Ds3
 BYTE   W72
 BYTE   N23  Gs2
 BYTE   N23  Cn3
 BYTE   N23  Dn3
 BYTE   W24
//  #01 //033   ----------------------------------------
 BYTE   N92  Fn2
 BYTE   N92  Gs2
 BYTE   N92  Cn3
 BYTE   W96
//  #01 //034   ----------------------------------------
 BYTE   TIE  Bn2
 BYTE   TIE  Dn3
 BYTE   TIE  Gn3
 BYTE   W96
//  #01 //035   ----------------------------------------
 BYTE   W96
//  #01 //036   ----------------------------------------
 BYTE   W12
 BYTE   W12
 BYTE   W12
 BYTE   W12
 BYTE   W12
 BYTE   W12
 BYTE   W12
 BYTE   W11
 BYTE   EOT
 BYTE   Bn2  v062
 BYTE   Gn3
 BYTE   W01
//  #01 //037   ----------------------------------------
 BYTE   W96
//  #01 //038   ----------------------------------------
 BYTE   W96
//  #01 //039   ----------------------------------------
Label_EDD4CD:
 BYTE   N92  Cn3  v052
 BYTE   N92  Ds3
 BYTE   N92  Gn3
 BYTE   W96
 BYTE   PEND 
//  #01 //040   ----------------------------------------
 BYTE   Cn3
 BYTE   N92  Ds3
 BYTE   N92  Gs3
 BYTE   W96
//  #01 //041   ----------------------------------------
 BYTE   As2
 BYTE   N92  Dn3
 BYTE   N92  Fn3
 BYTE   W96
//  #01 //042   ----------------------------------------
 BYTE   N44  Cn3
 BYTE   N44  Ds3
 BYTE   N44  Gs3
 BYTE   W48
 BYTE   As2
 BYTE   N44  Dn3
 BYTE   N44  Gn3
 BYTE   W48
//  #01 //043   ----------------------------------------
 BYTE   PATT
  POIN2 Label_EDD4CD
//  #01 //044   ----------------------------------------
 BYTE   N92  Cn3  v052
 BYTE   N92  Ds3
 BYTE   N92  Fn3
 BYTE   W96
//  #01 //045   ----------------------------------------
 BYTE   Bn2
 BYTE   N92  Dn3
 BYTE   N92  Gn3
 BYTE   W96
//  #01 //046   ----------------------------------------
 BYTE   TIE  Cn3
 BYTE   TIE  Ds3
 BYTE   TIE  Gn3
 BYTE   W03
 BYTE   W03
 BYTE   W03
 BYTE   W03
 BYTE   W03
 BYTE   W03
 BYTE   W03
 BYTE   W03
 BYTE   W03
 BYTE   W04
 BYTE   W03
 BYTE   W03
 BYTE   W03
 BYTE   W03
 BYTE   W03
 BYTE   W03
 BYTE   W03
 BYTE   W03
 BYTE   W03
 BYTE   W03
 BYTE   W04
 BYTE   W03
 BYTE   W03
 BYTE   W03
 BYTE   W03
 BYTE   W03
 BYTE   W03
 BYTE   W03
 BYTE   W03
 BYTE   W03
 BYTE   W04
//  #01 //047   ----------------------------------------
 BYTE   W92
 BYTE   W03
 BYTE   EOT
 BYTE   Cn3  v063
 BYTE   Gn3
 BYTE   W01
//  #01 //048   ----------------------------------------
 BYTE   N92  Cn3  v080
 BYTE   N92  Ds3
 BYTE   N92  Gs3
 BYTE   W96
//  #01 //049   ----------------------------------------
 BYTE   As2
 BYTE   N92  Dn3
 BYTE   N92  Fn3
 BYTE   W96
//  #01 //050   ----------------------------------------
 BYTE   N44  Cn3
 BYTE   N44  Ds3
 BYTE   N44  Gs3
 BYTE   W48
 BYTE   As2
 BYTE   N44  Dn3
 BYTE   N44  Gn3
 BYTE   W48
//  #01 //051   ----------------------------------------
 BYTE   N92  Bn2
 BYTE   N92  Ds3
 BYTE   N92  Gn3
 BYTE   W96
//  #01 //052   ----------------------------------------
 BYTE   Cn3
 BYTE   N92  Ds3
 BYTE   N92  Fn3
 BYTE   W96
//  #01 //053   ----------------------------------------
 BYTE   N44  Cn3
 BYTE   N44  Ds3
 BYTE   N44  Gs3
 BYTE   W06
 BYTE   W06
 BYTE   W06
 BYTE   W06
 BYTE   W06
 BYTE   W06
 BYTE   W06
 BYTE   W06
 BYTE   As2  v088
 BYTE   N44  Ds3
 BYTE   N44  Gn3
 BYTE   W06
 BYTE   W06
 BYTE   W06
 BYTE   W06
 BYTE   W06
 BYTE   W06
 BYTE   W06
 BYTE   W06
//  #01 //054   ----------------------------------------
 BYTE   TEMPO   82*Biggering_tbs/2
 BYTE   N11  As2  v096
 BYTE   N11  Ds3
 BYTE   W72
 BYTE   N56  Gs2
 BYTE   N56  Cs3
 BYTE   N56  Fn3
 BYTE   W24
//  #01 //055   ----------------------------------------
Label_EDD581:
 BYTE   W24
 BYTE   W12
 BYTE   N11  Cs3  v096
 BYTE   N11  Ds3
 BYTE   W12
 BYTE   N68  Cs3
 BYTE   N68  Fn3
 BYTE   N68  Gs3
 BYTE   W48
 BYTE   PEND 
//  #01 //056   ----------------------------------------
 BYTE   W24
 BYTE   N56  Fn3
 BYTE   N56  Gs3
 BYTE   N56  Cn4
 BYTE   W48
 BYTE   W12
 BYTE   N11  Cn3
 BYTE   N11  Ds3
 BYTE   W12
//  #01 //057   ----------------------------------------
 BYTE   N68  Fn3
 BYTE   N68  Gs3
 BYTE   N68  Cn4
 BYTE   W72
 BYTE   N56  Gs2
 BYTE   N56  Cs3
 BYTE   N56  Fn3
 BYTE   W24
//  #01 //058   ----------------------------------------
 BYTE   PATT
  POIN2 Label_EDD581
//  #01 //059   ----------------------------------------
 BYTE   W24
 BYTE   N56  Fn3  v096
 BYTE   N56  Gs3
 BYTE   N56  Cn4
 BYTE   W48
 BYTE   W12
 BYTE   N11  Ds3
 BYTE   N11  Cn4
 BYTE   W12
//  #01 //060   ----------------------------------------
 BYTE   N44  Fn3
 BYTE   N44  Gs3
 BYTE   N44  Cn4
 BYTE   W36
 BYTE   W12
 BYTE   N11  Fn3
 BYTE   N11  Gs3
 BYTE   N11  As3
 BYTE   W12
 BYTE   Fn3
 BYTE   N11  Gs3
 BYTE   N11  Cn4
 BYTE   W12
 BYTE   N68  Cs3
 BYTE   N68  Fs3
 BYTE   N68  As3
 BYTE   W24
//  #01 //061   ----------------------------------------
Label_EDD5DD:
 BYTE   W48
 BYTE   N68  Fs2  v096
 BYTE   N68  As2
 BYTE   N68  Ds3
 BYTE   W48
 BYTE   PEND 
//  #01 //062   ----------------------------------------
 BYTE   W24
 BYTE   As2
 BYTE   N68  Cs3
 BYTE   N68  Fs3
 BYTE   W72
//  #01 //063   ----------------------------------------
 BYTE   Cn3
 BYTE   N68  Fn3
 BYTE   N68  Gs3
 BYTE   W72
 BYTE   Cs3
 BYTE   N68  Fs3
 BYTE   N68  As3
 BYTE   W24
//  #01 //064   ----------------------------------------
 BYTE   PATT
  POIN2 Label_EDD5DD
//  #01 //065   ----------------------------------------
 BYTE   W24
 BYTE   TIE  Cn3  v096
 BYTE   TIE  Fn3
 BYTE   TIE  An3
 BYTE   W72
//  #01 //066   ----------------------------------------
 BYTE   W68
 BYTE   W03
 BYTE   EOT
 BYTE   Cn3  v065
 BYTE   An3
 BYTE   W01
 BYTE   N48  An2
 BYTE   N48  Cn3
 BYTE   TIE  En3
 BYTE   W24
//  #01 //067   ----------------------------------------
Label_EDD616:
 BYTE   W24
 BYTE   N12  An2  v096
 BYTE   N92  Cn3
 BYTE   W12
 BYTE   N11  En2
 BYTE   N80  An2
 BYTE   W12
 BYTE   W48
 BYTE   PEND 
//  #01 //068   ----------------------------------------
 BYTE   W23
 BYTE   EOT
 BYTE   En3
 BYTE   W01
 BYTE   N32  Ds3
 BYTE   N12  Gs3
 BYTE   N32  Cn4
 BYTE   W12
 BYTE   N23  Gs3
 BYTE   W12
 BYTE   N11  Fn3
 BYTE   W12
 BYTE   N18  Cn3
 BYTE   N32  Ds3
 BYTE   N32  Gs3
 BYTE   W12
 BYTE   N05  Dn3
 BYTE   W06
 BYTE   N17  Cn3
 BYTE   W18
//  #01 //069   ----------------------------------------
 BYTE   N32  Gs2
 BYTE   N32  Cn3
 BYTE   N32  Ds3
 BYTE   W36
 BYTE   Cn3
 BYTE   N32  Ds3
 BYTE   N32  Gs3
 BYTE   W36
 BYTE   N48  An2
 BYTE   N48  Cn3
 BYTE   TIE  En3
 BYTE   W24
//  #01 //070   ----------------------------------------
 BYTE   PATT
  POIN2 Label_EDD616
//  #01 //071   ----------------------------------------
 BYTE   W23
 BYTE   EOT
 BYTE   En3
 BYTE   W01
 BYTE   N32  Cn3  v096
 BYTE   N32  Ds3
 BYTE   N32  Gs3
 BYTE   W36
 BYTE   Gs2
 BYTE   N32  Cn3
 BYTE   N32  Ds3
 BYTE   W36
//  #01 //072   ----------------------------------------
 BYTE   TIE  Dn2
 BYTE   TIE  Gn2
 BYTE   TIE  Bn2
 BYTE   W72
 BYTE   W04
 BYTE   W05
 BYTE   W04
 BYTE   W05
 BYTE   W04
 BYTE   W02
//  #01 //073   ----------------------------------------
 BYTE   W03
 BYTE   W04
 BYTE   W05
 BYTE   W04
 BYTE   W05
 BYTE   W04
 BYTE   W05
 BYTE   W04
 BYTE   W05
 BYTE   W04
 BYTE   W05
 BYTE   W44
 BYTE   W03
 BYTE   EOT
 BYTE   Dn2  v055
 BYTE   Bn2
 BYTE   W01
//  #01 //074   ----------------------------------------
 BYTE   TEMPO   72*Biggering_tbs/2
 BYTE   W96
//  #01 //075   ----------------------------------------
 BYTE   W96
//  #01 //076   ----------------------------------------
 BYTE   W96
//  #01 //077   ----------------------------------------
 BYTE   W96
//  #01 //078   ----------------------------------------
 BYTE   W96
//  #01 //079   ----------------------------------------
 BYTE   W96
//  #01 //080   ----------------------------------------
 BYTE   W96
//  #01 //081   ----------------------------------------
 BYTE   W96
//  #01 //082   ----------------------------------------
 BYTE   W96
//  #01 //083   ----------------------------------------
 BYTE   W96
//  #01 //084   ----------------------------------------
 BYTE   W96
//  #01 //085   ----------------------------------------
 BYTE   W96
//  #01 //086   ----------------------------------------
 BYTE   W96
//  #01 //087   ----------------------------------------
 BYTE   W96
//  #01 //088   ----------------------------------------
 BYTE   W96
//  #01 //089   ----------------------------------------
 BYTE   W96
//  #01 //090   ----------------------------------------
 BYTE   W96
//  #01 //091   ----------------------------------------
 BYTE   W96
//  #01 //092   ----------------------------------------
 BYTE   W96
//  #01 //093   ----------------------------------------
 BYTE   W96
//  #01 //094   ----------------------------------------
 BYTE   W96
//  #01 //095   ----------------------------------------
 BYTE   W96
//  #01 //096   ----------------------------------------
 BYTE   W96
//  #01 //097   ----------------------------------------
 BYTE   W96
//  #01 //098   ----------------------------------------
 BYTE   W96
//  #01 //099   ----------------------------------------
 BYTE   W96
//  #01 //100   ----------------------------------------
 BYTE   W96
//  #01 //101   ----------------------------------------
 BYTE   W96
//  #01 //102   ----------------------------------------
 BYTE   W96
//  #01 //103   ----------------------------------------
 BYTE   W96
//  #01 //104   ----------------------------------------
 BYTE   W96
//  #01 //105   ----------------------------------------
 BYTE   W96
//  #01 //106   ----------------------------------------
 BYTE   W96
//  #01 //107   ----------------------------------------
 BYTE   W96
//  #01 //108   ----------------------------------------
 BYTE   W96
//  #01 //109   ----------------------------------------
 BYTE   W96
//  #01 //110   ----------------------------------------
 BYTE   GoTo
  POIN2 Label_EDD3DE
 BYTE   FINE

//**************** Track 2 (Midi-Chn.1) ****************//

Biggering_002:
//  #02 //000   ----------------------------------------
 BYTE   KEYSH   Biggering_key+0
Label_EDC7F2:
 BYTE   VOICE   48
 BYTE   VOL   37*Biggering_mvl/mxv
 BYTE   PAN   c_v+0
 BYTE   VOL   37*Biggering_mvl/mxv
 BYTE   PAN   c_v+0
 BYTE   W96
//  #02 //001   ----------------------------------------
 BYTE   W96
//  #02 //002   ----------------------------------------
 BYTE   W96
//  #02 //003   ----------------------------------------
 BYTE   W96
//  #02 //004   ----------------------------------------
 BYTE   W96
//  #02 //005   ----------------------------------------
 BYTE   W96
//  #02 //006   ----------------------------------------
 BYTE   W96
//  #02 //007   ----------------------------------------
 BYTE   W96
//  #02 //008   ----------------------------------------
 BYTE   W96
//  #02 //009   ----------------------------------------
 BYTE   W96
//  #02 //010   ----------------------------------------
 BYTE   W96
//  #02 //011   ----------------------------------------
 BYTE   W96
//  #02 //012   ----------------------------------------
 BYTE   W96
//  #02 //013   ----------------------------------------
 BYTE   W96
//  #02 //014   ----------------------------------------
 BYTE   W96
//  #02 //015   ----------------------------------------
 BYTE   W96
//  #02 //016   ----------------------------------------
 BYTE   W96
//  #02 //017   ----------------------------------------
 BYTE   W96
//  #02 //018   ----------------------------------------
 BYTE   W96
//  #02 //019   ----------------------------------------
 BYTE   W96
//  #02 //020   ----------------------------------------
 BYTE   W96
//  #02 //021   ----------------------------------------
 BYTE   W96
//  #02 //022   ----------------------------------------
 BYTE   W96
//  #02 //023   ----------------------------------------
 BYTE   W96
//  #02 //024   ----------------------------------------
 BYTE   W96
//  #02 //025   ----------------------------------------
 BYTE   W96
//  #02 //026   ----------------------------------------
 BYTE   W96
//  #02 //027   ----------------------------------------
 BYTE   W96
//  #02 //028   ----------------------------------------
 BYTE   W72
 BYTE   N23  Cn4  v080
 BYTE   N23  Dn4
 BYTE   N23  Fn4
 BYTE   W24
//  #02 //029   ----------------------------------------
 BYTE   N11  Cn4
 BYTE   N11  Dn4
 BYTE   W12
 BYTE   Gs3
 BYTE   N11  Cn4
 BYTE   N11  Ds4
 BYTE   W12
 BYTE   N68  Gs3
 BYTE   N68  Cn4
 BYTE   N68  Ds4
 BYTE   W72
//  #02 //030   ----------------------------------------
 BYTE   W96
//  #02 //031   ----------------------------------------
 BYTE   W96
//  #02 //032   ----------------------------------------
 BYTE   W72
 BYTE   N23  Dn3
 BYTE   N23  Gs3
 BYTE   N23  Cn4
 BYTE   W24
//  #02 //033   ----------------------------------------
 BYTE   N92  Cn3
 BYTE   N92  Fn3
 BYTE   N92  Gs3
 BYTE   W96
//  #02 //034   ----------------------------------------
 BYTE   TIE  Dn3
 BYTE   TIE  Gn3
 BYTE   TIE  Bn3
 BYTE   W96
//  #02 //035   ----------------------------------------
 BYTE   W96
//  #02 //036   ----------------------------------------
 BYTE   W92
 BYTE   W03
 BYTE   EOT
 BYTE   Dn3  v067
 BYTE   Bn3
 BYTE   W01
//  #02 //037   ----------------------------------------
 BYTE   W96
//  #02 //038   ----------------------------------------
 BYTE   W96
//  #02 //039   ----------------------------------------
 BYTE   W36
 BYTE   N11  Cn4
 BYTE   N11  Ds4
 BYTE   W12
 BYTE   Cn4
 BYTE   N11  Ds4
 BYTE   W12
 BYTE   Cn4
 BYTE   N11  Ds4
 BYTE   W12
 BYTE   Cn4
 BYTE   N11  Ds4
 BYTE   W24
//  #02 //040   ----------------------------------------
 BYTE   Cn4
 BYTE   N11  Ds4
 BYTE   W12
 BYTE   Cn4
 BYTE   N11  Ds4
 BYTE   W12
 BYTE   Cn4
 BYTE   N11  Ds4
 BYTE   W12
 BYTE   Gs3
 BYTE   N11  Cn4
 BYTE   W12
 BYTE   N23  Dn4
 BYTE   N23  Fn4
 BYTE   W24
 BYTE   Cn4
 BYTE   N23  Ds4
 BYTE   W24
//  #02 //041   ----------------------------------------
 BYTE   W72
 BYTE   N11  Cn4
 BYTE   N11  Dn4
 BYTE   W12
 BYTE   Cn4
 BYTE   N11  Ds4
 BYTE   W12
//  #02 //042   ----------------------------------------
 BYTE   N23
 BYTE   N23  Gs4
 BYTE   W24
 BYTE   Ds4
 BYTE   N23  Gn4
 BYTE   W24
 BYTE   N44  Dn4
 BYTE   N44  Gn4
 BYTE   W48
//  #02 //043   ----------------------------------------
 BYTE   W36
 BYTE   N11  Cn4
 BYTE   N11  Ds4
 BYTE   W12
 BYTE   Cn4
 BYTE   N11  Ds4
 BYTE   W12
 BYTE   Cn4
 BYTE   N11  Ds4
 BYTE   W12
 BYTE   Cn4
 BYTE   N11  Ds4
 BYTE   W12
 BYTE   Cn4
 BYTE   N11  Ds4
 BYTE   W12
//  #02 //044   ----------------------------------------
 BYTE   N23  Cn4
 BYTE   N23  Ds4
 BYTE   W24
 BYTE   Dn4
 BYTE   N23  Fn4
 BYTE   W24
 BYTE   Dn4
 BYTE   N23  Fn4
 BYTE   W24
 BYTE   Cn4
 BYTE   N23  Ds4
 BYTE   W24
//  #02 //045   ----------------------------------------
 BYTE   Bn3
 BYTE   N23  Dn4
 BYTE   W24
 BYTE   Bn3
 BYTE   N23  Dn4
 BYTE   W24
 BYTE   Bn3
 BYTE   N23  Dn4
 BYTE   W24
 BYTE   Bn3
 BYTE   N23  Ds4
 BYTE   W24
//  #02 //046   ----------------------------------------
 BYTE   Bn3
 BYTE   N23  Dn4
 BYTE   W24
 BYTE   Gn3
 BYTE   N23  Cn4
 BYTE   W24
 BYTE   Gn3
 BYTE   N23  Cn4
 BYTE   W48
//  #02 //047   ----------------------------------------
 BYTE   W60
 BYTE   N11  Cn4  v096
 BYTE   N11  Ds4
 BYTE   W12
 BYTE   Cn4
 BYTE   N11  Ds4
 BYTE   W12
 BYTE   Cn4
 BYTE   N11  Ds4
 BYTE   W12
//  #02 //048   ----------------------------------------
 BYTE   N23  Cn4
 BYTE   N23  Ds4
 BYTE   W24
 BYTE   Dn4
 BYTE   N23  Fn4
 BYTE   W24
 BYTE   Dn4
 BYTE   N23  Fn4
 BYTE   W24
 BYTE   Cn4
 BYTE   N23  Ds4
 BYTE   W24
//  #02 //049   ----------------------------------------
 BYTE   W72
 BYTE   N11  Cn4
 BYTE   N11  Dn4
 BYTE   W12
 BYTE   Cn4
 BYTE   N11  Ds4
 BYTE   W12
//  #02 //050   ----------------------------------------
 BYTE   N23
 BYTE   N23  Gs4
 BYTE   W24
 BYTE   Ds4
 BYTE   N23  Gn4
 BYTE   W24
 BYTE   N44  Dn4
 BYTE   N44  Gn4
 BYTE   W48
//  #02 //051   ----------------------------------------
 BYTE   W60
 BYTE   N11  Bn3
 BYTE   N11  Ds4
 BYTE   W12
 BYTE   Bn3
 BYTE   N11  Ds4
 BYTE   W12
 BYTE   Bn3
 BYTE   N11  Ds4
 BYTE   W12
//  #02 //052   ----------------------------------------
 BYTE   N23  Cn4
 BYTE   N23  Ds4
 BYTE   W24
 BYTE   N23
 BYTE   N23  Fn4
 BYTE   W24
 BYTE   Ds4
 BYTE   N23  Fn4
 BYTE   W24
 BYTE   N11  Cn4
 BYTE   N11  Dn4
 BYTE   W12
 BYTE   Cn4
 BYTE   N11  Ds4
 BYTE   W12
//  #02 //053   ----------------------------------------
 BYTE   N11
 BYTE   N11  Gs4
 BYTE   W05
 BYTE   W05
 BYTE   W02
 BYTE   N23  Ds4  v100
 BYTE   N23  Gn4
 BYTE   W03
 BYTE   W06
 BYTE   W05
 BYTE   W05
 BYTE   W05
 BYTE   Dn4  v104
 BYTE   N23  Fn4
 BYTE   W06
 BYTE   W05
 BYTE   W05
 BYTE   W05
 BYTE   W03
 BYTE   As3  v108
 BYTE   N23  Ds4
 BYTE   W03
 BYTE   W05
 BYTE   W05
 BYTE   W05
 BYTE   W06
 BYTE   N11  As3  v112
 BYTE   N11  Ds4
 BYTE   W12
//  #02 //054   ----------------------------------------
 BYTE   W72
 BYTE   N56  Fn3  v096
 BYTE   N56  Gs3
 BYTE   N56  Cs4
 BYTE   W24
//  #02 //055   ----------------------------------------
Label_EDC966:
 BYTE   W24
 BYTE   W12
 BYTE   N11  Cs4  v096
 BYTE   N11  Ds4
 BYTE   W12
 BYTE   N68  Fn3
 BYTE   N68  Gs3
 BYTE   N68  Cs4
 BYTE   W48
 BYTE   PEND 
//  #02 //056   ----------------------------------------
Label_EDC976:
 BYTE   W24
 BYTE   N56  Gs3  v096
 BYTE   N56  Cn4
 BYTE   N56  Fn4
 BYTE   W48
 BYTE   W12
 BYTE   N11  Cn4
 BYTE   N11  Ds4
 BYTE   W12
 BYTE   PEND 
//  #02 //057   ----------------------------------------
 BYTE   N68  Gs3
 BYTE   N68  Cn4
 BYTE   N68  Fn4
 BYTE   W72
 BYTE   N56  Fn3
 BYTE   N56  Gs3
 BYTE   N56  Cs4
 BYTE   W24
//  #02 //058   ----------------------------------------
 BYTE   PATT
  POIN2 Label_EDC966
//  #02 //059   ----------------------------------------
 BYTE   PATT
  POIN2 Label_EDC976
//  #02 //060   ----------------------------------------
 BYTE   N44  Gs3  v096
 BYTE   N44  Cn4
 BYTE   N44  Fn4
 BYTE   W36
 BYTE   W12
 BYTE   N11  Fn3
 BYTE   N11  Gs3
 BYTE   N11  As3
 BYTE   W12
 BYTE   Fn3
 BYTE   N11  Gs3
 BYTE   N11  Cn4
 BYTE   W12
 BYTE   N05  Fs3
 BYTE   N05  As3
 BYTE   N05  Cs4
 BYTE   W06
 BYTE   Fs3
 BYTE   N05  As3
 BYTE   N05  Cs4
 BYTE   W06
 BYTE   N44  Fs3
 BYTE   N44  As3
 BYTE   N44  Cs4
 BYTE   W12
//  #02 //061   ----------------------------------------
Label_EDC9C8:
 BYTE   W36
 BYTE   N11  Gs3  v096
 BYTE   N11  Cn4
 BYTE   N11  Ds4
 BYTE   W12
 BYTE   N05  Fs3
 BYTE   N05  As3
 BYTE   N05  Cs4
 BYTE   W06
 BYTE   Fs3
 BYTE   N05  As3
 BYTE   N05  Cs4
 BYTE   W06
 BYTE   N44  Fs3
 BYTE   N44  As3
 BYTE   N44  Cs4
 BYTE   W36
 BYTE   PEND 
//  #02 //062   ----------------------------------------
 BYTE   W12
 BYTE   N11  Gs3
 BYTE   N11  Cn4
 BYTE   N11  Ds4
 BYTE   W12
 BYTE   N05  Fs3
 BYTE   N05  As3
 BYTE   N05  Cs4
 BYTE   W06
 BYTE   Fs3
 BYTE   N05  As3
 BYTE   N05  Cs4
 BYTE   W06
 BYTE   N44  Fs3
 BYTE   N44  As3
 BYTE   N44  Cs4
 BYTE   W48
 BYTE   N11  Ds3
 BYTE   N11  Fs3
 BYTE   N11  As3
 BYTE   W12
//  #02 //063   ----------------------------------------
 BYTE   N05  Fs3
 BYTE   N05  As3
 BYTE   N05  Cs4
 BYTE   W06
 BYTE   Fn3
 BYTE   N05  Gs3
 BYTE   N05  Cn4
 BYTE   W06
 BYTE   N23  Fn3
 BYTE   N23  Gs3
 BYTE   N23  Cn4
 BYTE   W36
 BYTE   N11  Fn3
 BYTE   N11  Gs3
 BYTE   N11  As3
 BYTE   W12
 BYTE   Fn3
 BYTE   N11  Gs3
 BYTE   N11  Cn4
 BYTE   W12
 BYTE   N05  Fs3
 BYTE   N05  As3
 BYTE   N05  Cs4
 BYTE   W06
 BYTE   Fs3
 BYTE   N05  As3
 BYTE   N05  Cs4
 BYTE   W06
 BYTE   N44  Fs3
 BYTE   N44  As3
 BYTE   N44  Cs4
 BYTE   W12
//  #02 //064   ----------------------------------------
 BYTE   PATT
  POIN2 Label_EDC9C8
//  #02 //065   ----------------------------------------
 BYTE   W12
 BYTE   N11  Gs3  v096
 BYTE   N11  Cn4
 BYTE   N11  Ds4
 BYTE   W12
 BYTE   N05  Ds3
 BYTE   N05  Fs3
 BYTE   N05  As3
 BYTE   W06
 BYTE   Fn3
 BYTE   N05  An3
 BYTE   N05  Cn4
 BYTE   W06
 BYTE   TIE  Fn3
 BYTE   TIE  An3
 BYTE   TIE  Cn4
 BYTE   W48
 BYTE   W12
//  #02 //066   ----------------------------------------
 BYTE   W68
 BYTE   W03
 BYTE   EOT
 BYTE   Fn3  v069
 BYTE   Cn4
 BYTE   An3
 BYTE   W24
 BYTE   W01
//  #02 //067   ----------------------------------------
 BYTE   W96
//  #02 //068   ----------------------------------------
 BYTE   W96
//  #02 //069   ----------------------------------------
 BYTE   W96
//  #02 //070   ----------------------------------------
 BYTE   W96
//  #02 //071   ----------------------------------------
 BYTE   W96
//  #02 //072   ----------------------------------------
 BYTE   W96
//  #02 //073   ----------------------------------------
 BYTE   W96
//  #02 //074   ----------------------------------------
 BYTE   W96
//  #02 //075   ----------------------------------------
 BYTE   W96
//  #02 //076   ----------------------------------------
 BYTE   W96
//  #02 //077   ----------------------------------------
 BYTE   W96
//  #02 //078   ----------------------------------------
 BYTE   W96
//  #02 //079   ----------------------------------------
 BYTE   W96
//  #02 //080   ----------------------------------------
 BYTE   W96
//  #02 //081   ----------------------------------------
 BYTE   W96
//  #02 //082   ----------------------------------------
 BYTE   W96
//  #02 //083   ----------------------------------------
 BYTE   W96
//  #02 //084   ----------------------------------------
 BYTE   W48
 BYTE   N05  Cn4  v112
 BYTE   N05  En4
 BYTE   W06
 BYTE   Cn4
 BYTE   N05  Fn4
 BYTE   W06
 BYTE   N32  Cn4
 BYTE   N32  Fn4
 BYTE   W36
//  #02 //085   ----------------------------------------
 BYTE   W36
 BYTE   N11  An3
 BYTE   N11  Dn4
 BYTE   W12
 BYTE   N17  Cn4
 BYTE   N17  En4
 BYTE   W18
 BYTE   N11  An3
 BYTE   N11  Dn4
 BYTE   W12
 BYTE   N05  An3
 BYTE   N05  Cn4
 BYTE   W06
 BYTE   N11  En3
 BYTE   N11  An3
 BYTE   W12
//  #02 //086   ----------------------------------------
 BYTE   W60
 BYTE   N11
 BYTE   N11  Cn4
 BYTE   W12
 BYTE   N23  Fn3
 BYTE   N23  An3
 BYTE   W24
//  #02 //087   ----------------------------------------
 BYTE   W24
 BYTE   N05  En4
 BYTE   W06
 BYTE   N05
 BYTE   W06
 BYTE   Dn4
 BYTE   W06
 BYTE   Cn4
 BYTE   W06
 BYTE   N44
 BYTE   N44  En4
 BYTE   W48
//  #02 //088   ----------------------------------------
Label_EDCABC:
 BYTE   W24
 BYTE   N11  As3  v127
 BYTE   N11  Dn4
 BYTE   W12
 BYTE   N11
 BYTE   N11  Fn4
 BYTE   W12
 BYTE   N44  Dn4
 BYTE   N44  Gn4
 BYTE   W48
 BYTE   PEND 
//  #02 //089   ----------------------------------------
Label_EDCACD:
 BYTE   W24
 BYTE   N11  As3  v127
 BYTE   N11  Dn4
 BYTE   W12
 BYTE   N11
 BYTE   N11  Fn4
 BYTE   W12
 BYTE   N23  Dn4
 BYTE   N23  Gn4
 BYTE   W24
 BYTE   En4
 BYTE   N23  An4
 BYTE   W24
 BYTE   PEND 
//  #02 //090   ----------------------------------------
Label_EDCAE2:
 BYTE   W12
 BYTE   N11  As3  v127
 BYTE   N11  Dn4
 BYTE   W12
 BYTE   Cn4
 BYTE   N11  En4
 BYTE   W12
 BYTE   Dn4
 BYTE   N11  Fn4
 BYTE   W24
 BYTE   As3
 BYTE   N11  Dn4
 BYTE   W12
 BYTE   Cn4
 BYTE   N11  En4
 BYTE   W12
 BYTE   Dn4
 BYTE   N11  Gn4
 BYTE   W12
 BYTE   PEND 
//  #02 //091   ----------------------------------------
 BYTE   W12
 BYTE   As3
 BYTE   N11  Dn4
 BYTE   W12
 BYTE   N11
 BYTE   N11  Fn4
 BYTE   W12
 BYTE   Dn4
 BYTE   N11  Gn4
 BYTE   W12
 BYTE   En4
 BYTE   N11  Gs4
 BYTE   W12
 BYTE   En4
 BYTE   N11  Gs4
 BYTE   W12
 BYTE   En4
 BYTE   N11  Gs4
 BYTE   W12
 BYTE   En4
 BYTE   N11  Gs4
 BYTE   W12
//  #02 //092   ----------------------------------------
 BYTE   PATT
  POIN2 Label_EDCABC
//  #02 //093   ----------------------------------------
 BYTE   PATT
  POIN2 Label_EDCACD
//  #02 //094   ----------------------------------------
 BYTE   PATT
  POIN2 Label_EDCAE2
//  #02 //095   ----------------------------------------
Label_EDCB2A:
 BYTE   W12
 BYTE   N11  As3  v127
 BYTE   N11  Dn4
 BYTE   W12
 BYTE   N11
 BYTE   N11  Fn4
 BYTE   W12
 BYTE   Dn4
 BYTE   N11  Gn4
 BYTE   W12
 BYTE   N44  En4
 BYTE   N44  Gs4
 BYTE   W48
 BYTE   PEND 
//  #02 //096   ----------------------------------------
 BYTE   PATT
  POIN2 Label_EDCABC
//  #02 //097   ----------------------------------------
 BYTE   PATT
  POIN2 Label_EDCACD
//  #02 //098   ----------------------------------------
 BYTE   PATT
  POIN2 Label_EDCAE2
//  #02 //099   ----------------------------------------
 BYTE   PATT
  POIN2 Label_EDCB2A
//  #02 //100   ----------------------------------------
 BYTE   PATT
  POIN2 Label_EDCABC
//  #02 //101   ----------------------------------------
 BYTE   PATT
  POIN2 Label_EDCACD
//  #02 //102   ----------------------------------------
 BYTE   PATT
  POIN2 Label_EDCAE2
//  #02 //103   ----------------------------------------
 BYTE   W12
 BYTE   N11  As3  v127
 BYTE   N11  Dn4
 BYTE   W12
 BYTE   N11
 BYTE   N11  Fn4
 BYTE   W12
 BYTE   Dn4
 BYTE   N11  Gn4
 BYTE   W12
 BYTE   N44  En4
 BYTE   N44  An4
 BYTE   W48
//  #02 //104   ----------------------------------------
 BYTE   W96
//  #02 //105   ----------------------------------------
 BYTE   W96
//  #02 //106   ----------------------------------------
 BYTE   W96
//  #02 //107   ----------------------------------------
 BYTE   TIE  Gs4
 BYTE   W48
 BYTE   W09
 BYTE   W09
 BYTE   W09
 BYTE   W09
 BYTE   W09
 BYTE   W03
//  #02 //108   ----------------------------------------
 BYTE   W06
 BYTE   W09
 BYTE   W09
 BYTE   W09
 BYTE   W09
 BYTE   W09
 BYTE   W09
 BYTE   W09
 BYTE   W09
 BYTE   W09
 BYTE   W09
//  #02 //109   ----------------------------------------
 BYTE   W92
 BYTE   W03
 BYTE   EOT
 BYTE   W01
//  #02 //110   ----------------------------------------
 BYTE   GoTo
  POIN2 Label_EDC7F2
 BYTE   FINE

//**************** Track 3 (Midi-Chn.2) ****************//

Biggering_003:
//  #03 //000   ----------------------------------------
 BYTE   KEYSH   Biggering_key+0
Label_01059746:
 BYTE   VOICE   30
 BYTE   VOL   37*Biggering_mvl/mxv
 BYTE   PAN   c_v+0
 BYTE   VOL   37*Biggering_mvl/mxv
 BYTE   PAN   c_v+0
 BYTE   N32  Dn1  v080
 BYTE   W36
 BYTE   N32
 BYTE   W36
 BYTE   N23  An0
 BYTE   W24
//  #03 //001   ----------------------------------------
Label_01059759:
 BYTE   N32  Dn1  v080
 BYTE   W36
 BYTE   N32
 BYTE   W36
 BYTE   N23  An0
 BYTE   W24
 BYTE   PEND 
//  #03 //002   ----------------------------------------
 BYTE   PATT
  POIN2 Label_01059759
//  #03 //003   ----------------------------------------
 BYTE   PATT
  POIN2 Label_01059759
//  #03 //004   ----------------------------------------
 BYTE   PATT
  POIN2 Label_01059759
//  #03 //005   ----------------------------------------
Label_01059772:
 BYTE   N32  As0  v080
 BYTE   W36
 BYTE   N32
 BYTE   W36
 BYTE   N23  Gn0
 BYTE   W24
 BYTE   PEND 
//  #03 //006   ----------------------------------------
 BYTE   N32  Cn1
 BYTE   W36
 BYTE   N32
 BYTE   W36
 BYTE   N23  En1
 BYTE   W24
//  #03 //007   ----------------------------------------
Label_01059784:
 BYTE   N44  Fn1  v080
 BYTE   W48
 BYTE   N23  En1
 BYTE   W24
 BYTE   N23
 BYTE   W24
 BYTE   PEND 
//  #03 //008   ----------------------------------------
 BYTE   PATT
  POIN2 Label_01059759
//  #03 //009   ----------------------------------------
 BYTE   PATT
  POIN2 Label_01059772
//  #03 //010   ----------------------------------------
 BYTE   N32  An0  v080
 BYTE   W36
 BYTE   N32
 BYTE   W36
 BYTE   N23  Cs1
 BYTE   W24
//  #03 //011   ----------------------------------------
 BYTE   PATT
  POIN2 Label_01059759
//  #03 //012   ----------------------------------------
Label_010597A6:
 BYTE   N36  Dn1  v080
 BYTE   W36
 BYTE   N56
 BYTE   W36
 BYTE   N23  An0
 BYTE   W24
 BYTE   PEND 
//  #03 //013   ----------------------------------------
 BYTE   N36  As0
 BYTE   W36
 BYTE   N56
 BYTE   W36
 BYTE   N23  Gn0
 BYTE   W24
//  #03 //014   ----------------------------------------
 BYTE   N32  Cn1
 BYTE   N72  En1
 BYTE   W36
 BYTE   N32  Cn1
 BYTE   W36
 BYTE   N23  En1
 BYTE   W24
//  #03 //015   ----------------------------------------
 BYTE   PATT
  POIN2 Label_01059784
//  #03 //016   ----------------------------------------
 BYTE   N36  An0  v080
 BYTE   W36
 BYTE   N56
 BYTE   W36
 BYTE   N23  Cs1
 BYTE   W24
//  #03 //017   ----------------------------------------
 BYTE   PATT
  POIN2 Label_010597A6
//  #03 //018   ----------------------------------------
 BYTE   N32  Gn1  v080
 BYTE   W36
 BYTE   Gn1  v088
 BYTE   W36
 BYTE   N23  Gn1  v092
 BYTE   W24
//  #03 //019   ----------------------------------------
 BYTE   N11  Cn1  v096
 BYTE   N11  Fn1
 BYTE   W96
//  #03 //020   ----------------------------------------
Label_010597E7:
 BYTE   N32  Ds1  v096
 BYTE   W36
 BYTE   N11
 BYTE   W12
 BYTE   N23
 BYTE   W24
 BYTE   As0
 BYTE   W24
 BYTE   PEND 
//  #03 //021   ----------------------------------------
Label_010597F2:
 BYTE   N32  Ds1  v096
 BYTE   W36
 BYTE   N11
 BYTE   W12
 BYTE   N23
 BYTE   W24
 BYTE   Fn1
 BYTE   W24
 BYTE   PEND 
//  #03 //022   ----------------------------------------
Label_010597FD:
 BYTE   N32  Gn1  v096
 BYTE   W36
 BYTE   N11
 BYTE   W12
 BYTE   N23
 BYTE   W24
 BYTE   Fn1
 BYTE   W24
 BYTE   PEND 
//  #03 //023   ----------------------------------------
 BYTE   N32  Gn1
 BYTE   W36
 BYTE   N11
 BYTE   W12
 BYTE   N23  Fn1
 BYTE   W24
 BYTE   N23
 BYTE   W24
//  #03 //024   ----------------------------------------
 BYTE   PATT
  POIN2 Label_010597E7
//  #03 //025   ----------------------------------------
 BYTE   PATT
  POIN2 Label_010597F2
//  #03 //026   ----------------------------------------
 BYTE   PATT
  POIN2 Label_010597FD
//  #03 //027   ----------------------------------------
 BYTE   N32  Gn1  v096
 BYTE   W36
 BYTE   N11  Gn1  v104
 BYTE   W12
 BYTE   N23  Fn1
 BYTE   W24
 BYTE   Fn1  v108
 BYTE   W24
//  #03 //028   ----------------------------------------
 BYTE   N32  Gs1  v112
 BYTE   W36
 BYTE   N11
 BYTE   W12
 BYTE   N23
 BYTE   W24
 BYTE   Gn1
 BYTE   W24
//  #03 //029   ----------------------------------------
Label_01059839:
 BYTE   N32  Fn1  v112
 BYTE   W36
 BYTE   N11  Ds1
 BYTE   W12
 BYTE   Fn1
 BYTE   W12
 BYTE   Gn1
 BYTE   W12
 BYTE   Fn1
 BYTE   W12
 BYTE   Ds1
 BYTE   W12
 BYTE   PEND 
//  #03 //030   ----------------------------------------
 BYTE   N32  Cn1
 BYTE   W36
 BYTE   N11
 BYTE   W12
 BYTE   N23
 BYTE   W24
 BYTE   N23
 BYTE   W24
//  #03 //031   ----------------------------------------
 BYTE   N11  As0
 BYTE   W12
 BYTE   N11
 BYTE   W12
 BYTE   N11
 BYTE   W12
 BYTE   N11
 BYTE   W12
 BYTE   N23
 BYTE   W24
 BYTE   N23
 BYTE   W24
//  #03 //032   ----------------------------------------
 BYTE   Gs1
 BYTE   W24
 BYTE   N11
 BYTE   W12
 BYTE   N11
 BYTE   W12
 BYTE   N23
 BYTE   W24
 BYTE   Gn1
 BYTE   W24
//  #03 //033   ----------------------------------------
 BYTE   PATT
  POIN2 Label_01059839
//  #03 //034   ----------------------------------------
 BYTE   N32  Gn1  v112
 BYTE   W36
 BYTE   N11
 BYTE   W12
 BYTE   N23
 BYTE   W24
 BYTE   Dn1
 BYTE   W24
//  #03 //035   ----------------------------------------
 BYTE   N11  Gn0
 BYTE   W12
 BYTE   N11
 BYTE   W12
 BYTE   N11
 BYTE   W12
 BYTE   N11
 BYTE   W12
 BYTE   N11
 BYTE   W12
 BYTE   N11
 BYTE   W12
 BYTE   N11
 BYTE   W12
 BYTE   N11
 BYTE   W12
//  #03 //036   ----------------------------------------
 BYTE   N11
 BYTE   N92  Gn4  v096
 BYTE   W12
 BYTE   N11  Gn0  v116
 BYTE   W12
 BYTE   N11
 BYTE   W12
 BYTE   N11
 BYTE   W12
 BYTE   Gn0  v120
 BYTE   W12
 BYTE   N11
 BYTE   W12
 BYTE   Gn0  v124
 BYTE   W12
 BYTE   N11
 BYTE   W12
//  #03 //037   ----------------------------------------
 BYTE   Cn1
 BYTE   N11  Cn4  v096
 BYTE   N11  Ds4
 BYTE   W12
 BYTE   Cn1  v127
 BYTE   W12
 BYTE   N11
 BYTE   N11  Cn4  v096
 BYTE   N11  Ds4
 BYTE   W12
 BYTE   Cn1  v127
 BYTE   W12
 BYTE   N11
 BYTE   N11  Cn4  v096
 BYTE   N11  Ds4
 BYTE   W12
 BYTE   Cn1  v127
 BYTE   W12
 BYTE   N11
 BYTE   N11  Cn4  v096
 BYTE   N11  Ds4
 BYTE   W12
 BYTE   Cn1  v127
 BYTE   W12
//  #03 //038   ----------------------------------------
 BYTE   N11
 BYTE   N11  Cn4  v096
 BYTE   N11  Ds4
 BYTE   W03
 BYTE   W03
 BYTE   W03
 BYTE   W03
 BYTE   Cn1  v120
 BYTE   W12
 BYTE   Cn1  v112
 BYTE   N11  Cn4  v088
 BYTE   N11  Ds4
 BYTE   W03
 BYTE   W03
 BYTE   W03
 BYTE   W03
 BYTE   Cn1  v104
 BYTE   W03
 BYTE   W03
 BYTE   W03
 BYTE   W03
 BYTE   Cn1  v096
 BYTE   N11  Cn4  v080
 BYTE   N11  Ds4
 BYTE   W03
 BYTE   W03
 BYTE   W03
 BYTE   W03
 BYTE   Cn1  v088
 BYTE   W03
 BYTE   W03
 BYTE   W03
 BYTE   W03
 BYTE   Cn1  v080
 BYTE   N11  Cn4  v072
 BYTE   N11  Ds4
 BYTE   W03
 BYTE   W03
 BYTE   W03
 BYTE   W03
 BYTE   Cn1
 BYTE   W03
 BYTE   W03
 BYTE   W03
 BYTE   W03
//  #03 //039   ----------------------------------------
 BYTE   Cn1  v064
 BYTE   N11  Cn4
 BYTE   N11  Ds4
 BYTE   W12
 BYTE   Cn1
 BYTE   W12
 BYTE   N11
 BYTE   N11  Cn4
 BYTE   N11  Ds4
 BYTE   W12
 BYTE   Cn1
 BYTE   W12
 BYTE   N11
 BYTE   N11  Cn4
 BYTE   N11  Ds4
 BYTE   W12
 BYTE   Cn1
 BYTE   W12
 BYTE   N11
 BYTE   N11  Cn4
 BYTE   N11  Ds4
 BYTE   W12
 BYTE   Cn1
 BYTE   W12
//  #03 //040   ----------------------------------------
 BYTE   N11
 BYTE   N11  Ds4
 BYTE   N11  Gs4
 BYTE   W12
 BYTE   Cn1
 BYTE   W12
 BYTE   N11
 BYTE   N11  Ds4
 BYTE   N11  Gs4
 BYTE   W12
 BYTE   Cn1
 BYTE   W12
 BYTE   N11
 BYTE   N11  Ds4
 BYTE   N11  Gs4
 BYTE   W12
 BYTE   Cn1
 BYTE   W12
 BYTE   N11
 BYTE   N11  Ds4
 BYTE   N11  Gs4
 BYTE   W12
 BYTE   Cn1
 BYTE   W12
//  #03 //041   ----------------------------------------
 BYTE   Dn1
 BYTE   N11  Dn4
 BYTE   N11  Fn4
 BYTE   W12
 BYTE   Dn1
 BYTE   W12
 BYTE   N11
 BYTE   N11  Dn4
 BYTE   N11  Fn4
 BYTE   W12
 BYTE   Dn1
 BYTE   W12
 BYTE   N11
 BYTE   N11  Dn4
 BYTE   N11  Fn4
 BYTE   W12
 BYTE   Dn1
 BYTE   W12
 BYTE   N11
 BYTE   N11  Dn4
 BYTE   N11  Fn4
 BYTE   W12
 BYTE   Dn1
 BYTE   W12
//  #03 //042   ----------------------------------------
 BYTE   Ds1
 BYTE   N11  Ds4
 BYTE   N11  Gs4
 BYTE   W12
 BYTE   Ds1
 BYTE   W12
 BYTE   N11
 BYTE   N11  Ds4
 BYTE   N11  Gs4
 BYTE   W12
 BYTE   Ds1
 BYTE   W12
 BYTE   Dn1
 BYTE   N11  Dn4
 BYTE   N11  Fn4
 BYTE   W12
 BYTE   Dn1
 BYTE   W12
 BYTE   N11
 BYTE   N11  Dn4
 BYTE   N11  Fn4
 BYTE   W12
 BYTE   Dn1
 BYTE   W12
//  #03 //043   ----------------------------------------
 BYTE   Cn1
 BYTE   N11  Ds4
 BYTE   N11  Gn4
 BYTE   W12
 BYTE   Cn1
 BYTE   W12
 BYTE   N11
 BYTE   N11  Ds4
 BYTE   N11  Gn4
 BYTE   W12
 BYTE   Cn1
 BYTE   W12
 BYTE   N11
 BYTE   N11  Ds4
 BYTE   N11  Gn4
 BYTE   W12
 BYTE   Cn1
 BYTE   W12
 BYTE   N11
 BYTE   N11  Ds4
 BYTE   N11  Gn4
 BYTE   W12
 BYTE   Cn1
 BYTE   W12
//  #03 //044   ----------------------------------------
 BYTE   Fn0
 BYTE   N11  Ds4
 BYTE   N11  Fn4
 BYTE   W12
 BYTE   Fn0
 BYTE   W12
 BYTE   N11
 BYTE   N11  Ds4
 BYTE   N11  Fn4
 BYTE   W12
 BYTE   Fn0
 BYTE   W12
 BYTE   N11
 BYTE   N11  Ds4
 BYTE   N11  Fn4
 BYTE   W12
 BYTE   Fn0
 BYTE   W12
 BYTE   N11
 BYTE   N11  Ds4
 BYTE   N11  Fn4
 BYTE   W12
 BYTE   Fn0
 BYTE   W12
//  #03 //045   ----------------------------------------
 BYTE   Gn0
 BYTE   N11  Ds4
 BYTE   N11  Gn4
 BYTE   W12
 BYTE   Gn0
 BYTE   W12
 BYTE   N11
 BYTE   N11  Ds4
 BYTE   N11  Gn4
 BYTE   W12
 BYTE   Gn0
 BYTE   W12
 BYTE   An0
 BYTE   N11  Ds4
 BYTE   N11  Gn4
 BYTE   W12
 BYTE   An0
 BYTE   W12
 BYTE   Bn0
 BYTE   N11  Ds4
 BYTE   N11  Gn4
 BYTE   W12
 BYTE   Bn0
 BYTE   W12
//  #03 //046   ----------------------------------------
 BYTE   Cn1
 BYTE   N11  Ds4
 BYTE   N11  Gn4
 BYTE   W06
 BYTE   W06
 BYTE   Cn1
 BYTE   W12
 BYTE   N11
 BYTE   N11  Ds4  v068
 BYTE   N11  Gn4
 BYTE   W06
 BYTE   W06
 BYTE   Cn1  v064
 BYTE   W06
 BYTE   W06
 BYTE   N11
 BYTE   N11  Ds4  v072
 BYTE   N11  Gn4
 BYTE   W06
 BYTE   W06
 BYTE   Cn1  v064
 BYTE   W06
 BYTE   W06
 BYTE   N23  Gn1
 BYTE   N11  Ds4  v076
 BYTE   N11  Gn4
 BYTE   W06
 BYTE   W06
 BYTE   W06
 BYTE   W06
//  #03 //047   ----------------------------------------
 BYTE   Cn1  v064
 BYTE   N11  Ds4  v080
 BYTE   N11  Gn4
 BYTE   W12
 BYTE   Cn1  v064
 BYTE   W12
 BYTE   N11
 BYTE   N11  Ds4  v080
 BYTE   N11  Gn4
 BYTE   W12
 BYTE   Cn1  v064
 BYTE   W12
 BYTE   N11
 BYTE   N11  Ds4  v080
 BYTE   N11  Gn4
 BYTE   W12
 BYTE   Cn1  v064
 BYTE   W12
 BYTE   N11
 BYTE   N11  Ds4  v080
 BYTE   N11  Gn4
 BYTE   W12
 BYTE   Cn1  v064
 BYTE   W12
//  #03 //048   ----------------------------------------
 BYTE   N11
 BYTE   N11  Ds4  v080
 BYTE   N11  Gs4
 BYTE   W12
 BYTE   Cn1  v064
 BYTE   W12
 BYTE   N11
 BYTE   N11  Ds4  v080
 BYTE   N11  Gs4
 BYTE   W12
 BYTE   Cn1  v064
 BYTE   W12
 BYTE   N11
 BYTE   N11  Ds4  v080
 BYTE   N11  Gs4
 BYTE   W12
 BYTE   Cn1  v064
 BYTE   W12
 BYTE   N11
 BYTE   N11  Ds4  v080
 BYTE   N11  Gs4
 BYTE   W12
 BYTE   Cn1  v064
 BYTE   W12
//  #03 //049   ----------------------------------------
 BYTE   Dn1
 BYTE   N11  Dn4  v080
 BYTE   N11  Fn4
 BYTE   W12
 BYTE   Dn1  v064
 BYTE   W12
 BYTE   N11
 BYTE   N11  Dn4  v080
 BYTE   N11  Fn4
 BYTE   W12
 BYTE   Dn1  v064
 BYTE   W12
 BYTE   N11
 BYTE   N11  Dn4  v080
 BYTE   N11  Fn4
 BYTE   W12
 BYTE   Dn1  v064
 BYTE   W12
 BYTE   N11
 BYTE   N11  Dn4  v080
 BYTE   N11  Fn4
 BYTE   W12
 BYTE   Dn1  v064
 BYTE   W12
//  #03 //050   ----------------------------------------
 BYTE   Ds1
 BYTE   N11  Ds4  v080
 BYTE   N11  Gs4
 BYTE   W12
 BYTE   Ds1  v064
 BYTE   W12
 BYTE   N11
 BYTE   N11  Ds4  v080
 BYTE   N11  Gs4
 BYTE   W12
 BYTE   Ds1  v064
 BYTE   W12
 BYTE   Dn1
 BYTE   N11  Dn4  v080
 BYTE   N11  Fn4
 BYTE   W12
 BYTE   Dn1  v064
 BYTE   W12
 BYTE   N11
 BYTE   N11  Dn4  v080
 BYTE   N11  Fn4
 BYTE   W12
 BYTE   Dn1  v064
 BYTE   W12
//  #03 //051   ----------------------------------------
 BYTE   Gn0
 BYTE   N11  Bn3  v080
 BYTE   N11  Gn4
 BYTE   W12
 BYTE   Gn0  v064
 BYTE   W12
 BYTE   N11
 BYTE   N11  Bn3  v080
 BYTE   N11  Gn4
 BYTE   W12
 BYTE   Gn0  v064
 BYTE   W12
 BYTE   An0
 BYTE   N11  Bn3  v080
 BYTE   N11  Gn4
 BYTE   W12
 BYTE   An0  v064
 BYTE   W12
 BYTE   Bn0
 BYTE   N11  Bn3  v080
 BYTE   N11  Gn4
 BYTE   W12
 BYTE   Bn0  v064
 BYTE   W12
//  #03 //052   ----------------------------------------
 BYTE   Cn1
 BYTE   N11  Cn4  v080
 BYTE   N11  Gn4
 BYTE   W12
 BYTE   Cn1  v064
 BYTE   W12
 BYTE   N11
 BYTE   N11  Cn4  v080
 BYTE   N11  Gn4
 BYTE   W12
 BYTE   Cn1  v064
 BYTE   W12
 BYTE   N11
 BYTE   N11  Cn4  v080
 BYTE   N11  Gn4
 BYTE   W12
 BYTE   Cn1  v064
 BYTE   W12
 BYTE   As0
 BYTE   N11  Cn4  v080
 BYTE   N11  Gn4
 BYTE   W12
 BYTE   As0  v064
 BYTE   W12
//  #03 //053   ----------------------------------------
 BYTE   Gs0
 BYTE   N11  Ds4  v080
 BYTE   N11  Gs4
 BYTE   W06
 BYTE   W06
 BYTE   Gs0  v068
 BYTE   W12
 BYTE   N11
 BYTE   N11  Ds4  v084
 BYTE   N11  Gn4
 BYTE   W06
 BYTE   W06
 BYTE   Gs0  v072
 BYTE   W06
 BYTE   W06
 BYTE   N11
 BYTE   N11  As3  v088
 BYTE   N11  Ds4
 BYTE   W06
 BYTE   W06
 BYTE   Gs0  v076
 BYTE   W06
 BYTE   W06
 BYTE   N11
 BYTE   N11  As3  v092
 BYTE   N11  Ds4
 BYTE   W06
 BYTE   W06
 BYTE   Gs0  v080
 BYTE   W06
 BYTE   W06
//  #03 //054   ----------------------------------------
 BYTE   As0
 BYTE   N11  Ds1
 BYTE   W72
 BYTE   N44  Cs1  v096
 BYTE   W24
//  #03 //055   ----------------------------------------
 BYTE   W12
 BYTE   N23  Cs4  v127
 BYTE   W12
 BYTE   N11  Cs1  v096
 BYTE   W12
 BYTE   Gs0
 BYTE   N11  Cn4  v127
 BYTE   W12
 BYTE   N32  Cs1  v096
 BYTE   N05  As3  v127
 BYTE   W06
 BYTE   Gs3
 BYTE   W06
 BYTE   N32  Fn3
 BYTE   W24
 BYTE   N11  Cs1  v096
 BYTE   W12
//  #03 //056   ----------------------------------------
 BYTE   N11
 BYTE   N23  Gs3  v127
 BYTE   W12
 BYTE   N11  Ds1  v096
 BYTE   W12
 BYTE   N23  Fn1
 BYTE   W24
 BYTE   N11
 BYTE   N05  Ds4  v127
 BYTE   W06
 BYTE   Cn4
 BYTE   W06
 BYTE   N11  Fn1  v096
 BYTE   N17  Fn4  v127
 BYTE   W12
 BYTE   N11  Cn1  v096
 BYTE   W06
 BYTE   N05  Ds4  v127
 BYTE   W06
 BYTE   N11  Ds1  v096
 BYTE   N05  Cn4  v127
 BYTE   W06
 BYTE   As3
 BYTE   W06
//  #03 //057   ----------------------------------------
 BYTE   N44  Fn1  v096
 BYTE   N44  Gs3  v127
 BYTE   W48
 BYTE   N11  Ds1  v096
 BYTE   W12
 BYTE   Dn1
 BYTE   W12
 BYTE   N32  Cs1
 BYTE   W24
//  #03 //058   ----------------------------------------
 BYTE   W12
 BYTE   N11
 BYTE   N23  Gs4  v127
 BYTE   W12
 BYTE   N11  Cs1  v096
 BYTE   W12
 BYTE   Gs0
 BYTE   N11  Fn4  v127
 BYTE   W12
 BYTE   N32  Cs1  v096
 BYTE   N11  As4  v127
 BYTE   W12
 BYTE   N17  Gs4
 BYTE   W18
 BYTE   N05  Fn4
 BYTE   W06
 BYTE   N11  Cs1  v096
 BYTE   N05  Ds4  v127
 BYTE   W06
 BYTE   N23  Fn4
 BYTE   W06
//  #03 //059   ----------------------------------------
 BYTE   N11  Cs1  v096
 BYTE   W12
 BYTE   Ds1
 BYTE   W06
 BYTE   N05  Gs4  v127
 BYTE   W06
 BYTE   N23  Fn1  v096
 BYTE   W24
 BYTE   N11
 BYTE   W12
 BYTE   N11
 BYTE   N17  Cn5  v127
 BYTE   W12
 BYTE   N11  Cn1  v096
 BYTE   W06
 BYTE   N05  As4  v127
 BYTE   W06
 BYTE   N11  Ds1  v096
 BYTE   N05  Gs4  v127
 BYTE   W06
 BYTE   As4
 BYTE   W06
//  #03 //060   ----------------------------------------
 BYTE   N68  Fn1  v096
 BYTE   N23  Gs4  v127
 BYTE   W24
 BYTE   N44  Fn4
 BYTE   W48
 BYTE   N32  Fs1  v096
 BYTE   W24
//  #03 //061   ----------------------------------------
 BYTE   W12
 BYTE   N11
 BYTE   W12
 BYTE   N11
 BYTE   W12
 BYTE   Fn1
 BYTE   W12
 BYTE   N32  Ds1
 BYTE   W36
 BYTE   N11  Fn1
 BYTE   N23  As4  v127
 BYTE   W12
//  #03 //062   ----------------------------------------
 BYTE   N11  Ds1  v096
 BYTE   W12
 BYTE   Cs1
 BYTE   N11  Cn5  v127
 BYTE   W12
 BYTE   N56  As0  v096
 BYTE   N11  Cs5  v127
 BYTE   W12
 BYTE   Cn5
 BYTE   W12
 BYTE   N17  As4
 BYTE   W18
 BYTE   N05  Gs4
 BYTE   W06
 BYTE   N11  Fn4
 BYTE   W12
 BYTE   Fs1  v096
 BYTE   N11  As4  v127
 BYTE   W12
//  #03 //063   ----------------------------------------
 BYTE   Gs1  v096
 BYTE   N17  Gs4  v127
 BYTE   W12
 BYTE   N11  Gs1  v096
 BYTE   W06
 BYTE   N05  Fn4  v127
 BYTE   W06
 BYTE   N11  Gs1  v096
 BYTE   N11  As4  v127
 BYTE   W12
 BYTE   Gs1  v096
 BYTE   N23  Gs4  v127
 BYTE   W12
 BYTE   N11  Gs1  v096
 BYTE   W12
 BYTE   N11
 BYTE   N11  Fn4  v127
 BYTE   W12
 BYTE   N32  Fs1  v096
 BYTE   N44  As4  v127
 BYTE   W24
//  #03 //064   ----------------------------------------
 BYTE   W12
 BYTE   N11  Fs1  v096
 BYTE   W12
 BYTE   N11
 BYTE   W12
 BYTE   Fn1
 BYTE   W12
 BYTE   N32  Ds1
 BYTE   W36
 BYTE   N11
 BYTE   W12
//  #03 //065   ----------------------------------------
 BYTE   N11
 BYTE   W12
 BYTE   Fs1
 BYTE   N11  As4  v127
 BYTE   W12
 BYTE   Fn1  v096
 BYTE   N44  Cn5  v127
 BYTE   W12
 BYTE   N11  Fn1  v096
 BYTE   W12
 BYTE   N11
 BYTE   W12
 BYTE   N11
 BYTE   W12
 BYTE   N11
 BYTE   N05  Cs5  v127
 BYTE   W06
 BYTE   N11  Cn5
 BYTE   W06
 BYTE   Fn1  v096
 BYTE   W06
 BYTE   N05  Cs5  v127
 BYTE   W06
//  #03 //066   ----------------------------------------
 BYTE   N11  Fn1  v096
 BYTE   N11  Cn5  v127
 BYTE   W12
 BYTE   Fn1  v096
 BYTE   N05  Cs5  v127
 BYTE   W06
 BYTE   N11  Cn5
 BYTE   W06
 BYTE   Fn1  v096
 BYTE   W06
 BYTE   N05  Cs5  v127
 BYTE   W06
 BYTE   N11  Fn1  v096
 BYTE   N11  Cn5  v127
 BYTE   W12
 BYTE   Fn1  v096
 BYTE   N05  Cs5  v127
 BYTE   W06
 BYTE   N17  Cn5
 BYTE   W06
 BYTE   N11  Fn1  v096
 BYTE   W12
 BYTE   N32  An0  v080
 BYTE   W24
//  #03 //067   ----------------------------------------
 BYTE   W12
 BYTE   En1
 BYTE   W36
 BYTE   N11  An1
 BYTE   W12
 BYTE   En1
 BYTE   W12
 BYTE   As1
 BYTE   W12
 BYTE   N32  An1
 BYTE   W12
//  #03 //068   ----------------------------------------
 BYTE   W24
 BYTE   Gs1
 BYTE   W36
 BYTE   Ds1
 BYTE   W36
//  #03 //069   ----------------------------------------
 BYTE   N17  Gs0
 BYTE   W18
 BYTE   N17
 BYTE   W18
 BYTE   N17
 BYTE   W18
 BYTE   N17
 BYTE   W18
 BYTE   N32  An0
 BYTE   W24
//  #03 //070   ----------------------------------------
 BYTE   W12
 BYTE   En1
 BYTE   W36
 BYTE   An0
 BYTE   W36
 BYTE   N23  En1
 BYTE   W12
//  #03 //071   ----------------------------------------
 BYTE   W12
 BYTE   N11
 BYTE   W12
 BYTE   N17  Gs0
 BYTE   W18
 BYTE   N17
 BYTE   W18
 BYTE   N17
 BYTE   W18
 BYTE   N17
 BYTE   W18
//  #03 //072   ----------------------------------------
 BYTE   TIE  Gn0
 BYTE   TIE  Dn1
 BYTE   W96
//  #03 //073   ----------------------------------------
 BYTE   W92
 BYTE   W03
 BYTE   EOT
 BYTE   Gn0  v038
 BYTE   W01
//  #03 //074   ----------------------------------------
 BYTE   N32  Bn0
 BYTE   N32  En1
 BYTE   W36
 BYTE   N05  Dn1
 BYTE   W06
 BYTE   N11  Bn0
 BYTE   N11  En1
 BYTE   W12
 BYTE   N05  Dn1
 BYTE   W06
 BYTE   N11  Bn0
 BYTE   N11  En1
 BYTE   W12
 BYTE   Bn0
 BYTE   N11  En1
 BYTE   W12
 BYTE   N05  Bn0
 BYTE   N05  En1
 BYTE   W06
 BYTE   Dn1
 BYTE   W06
//  #03 //075   ----------------------------------------
 BYTE   Bn0
 BYTE   N05  En1
 BYTE   W06
 BYTE   Dn1
 BYTE   W06
 BYTE   N11  Bn0
 BYTE   N11  En1
 BYTE   W12
 BYTE   Bn0
 BYTE   N11  En1
 BYTE   W12
 BYTE   N05  Dn1
 BYTE   W06
 BYTE   N11  Bn0
 BYTE   N11  En1
 BYTE   W12
 BYTE   N05  Dn1
 BYTE   W06
 BYTE   N11  Bn0
 BYTE   N11  En1
 BYTE   W12
 BYTE   N23  Bn0
 BYTE   N23  Gn1
 BYTE   W24
//  #03 //076   ----------------------------------------
 BYTE   N32  Bn0
 BYTE   N32  En1
 BYTE   N44  Gn3  v096
 BYTE   N44  Bn3
 BYTE   N44  En4
 BYTE   W36
 BYTE   N05  Dn1  v080
 BYTE   W06
 BYTE   Bn0
 BYTE   N05  En1
 BYTE   W06
 BYTE   Bn0
 BYTE   N05  En1
 BYTE   N44  Cn4  v096
 BYTE   N44  En4
 BYTE   N44  Gn4
 BYTE   W06
 BYTE   N05  Dn1  v080
 BYTE   W06
 BYTE   N11  Bn0
 BYTE   N11  En1
 BYTE   W12
 BYTE   Bn0
 BYTE   N11  En1
 BYTE   W12
 BYTE   N05  Bn0
 BYTE   N05  En1
 BYTE   W06
 BYTE   Dn1
 BYTE   W06
//  #03 //077   ----------------------------------------
Label_01059D60:
 BYTE   N05  Bn0  v080
 BYTE   N05  En1
 BYTE   N44  Cn4  v096
 BYTE   N44  En4
 BYTE   N44  An4
 BYTE   W06
 BYTE   N05  Dn1  v080
 BYTE   W06
 BYTE   N11  Bn0
 BYTE   N11  En1
 BYTE   W12
 BYTE   Bn0
 BYTE   N11  En1
 BYTE   W12
 BYTE   N05  Dn1
 BYTE   W06
 BYTE   N11  Bn0
 BYTE   N11  En1
 BYTE   W06
 BYTE   N23  Cn4  v096
 BYTE   N23  En4
 BYTE   N23  Gn4
 BYTE   W06
 BYTE   N05  Dn1  v080
 BYTE   W06
 BYTE   N11  Bn0
 BYTE   N11  En1
 BYTE   W12
 BYTE   N23  Bn0
 BYTE   N23  Gn1
 BYTE   N23  Bn3  v096
 BYTE   N23  En4
 BYTE   N23  Gn4
 BYTE   W24
 BYTE   PEND 
//  #03 //078   ----------------------------------------
 BYTE   N05  Bn0  v080
 BYTE   N05  En1
 BYTE   N44  Gn3  v096
 BYTE   N44  Bn3
 BYTE   N44  En4
 BYTE   W06
 BYTE   N05  Bn0  v080
 BYTE   N05  En1
 BYTE   W06
 BYTE   Bn0
 BYTE   N05  En1
 BYTE   W06
 BYTE   Bn0
 BYTE   N05  En1
 BYTE   W06
 BYTE   Bn0
 BYTE   N05  En1
 BYTE   W06
 BYTE   Bn0
 BYTE   N05  En1
 BYTE   W06
 BYTE   Dn1
 BYTE   W06
 BYTE   N11  Bn0
 BYTE   N11  En1
 BYTE   W06
 BYTE   N44  Cn4  v096
 BYTE   N44  En4
 BYTE   N44  Gn4
 BYTE   W06
 BYTE   N05  Dn1  v080
 BYTE   W06
 BYTE   N11  Bn0
 BYTE   N11  En1
 BYTE   W12
 BYTE   N05  Bn0
 BYTE   N05  En1
 BYTE   W06
 BYTE   Bn0
 BYTE   N05  En1
 BYTE   W06
 BYTE   Bn0
 BYTE   N05  En1
 BYTE   W06
 BYTE   Bn0
 BYTE   N05  En1
 BYTE   W06
//  #03 //079   ----------------------------------------
Label_01059DEC:
 BYTE   N05  Bn0  v080
 BYTE   N44  Bn3  v096
 BYTE   N44  Ds4
 BYTE   N44  Fs4
 BYTE   W06
 BYTE   N05  Bn0  v080
 BYTE   W06
 BYTE   N05
 BYTE   W06
 BYTE   N05
 BYTE   W06
 BYTE   N05
 BYTE   W06
 BYTE   N05
 BYTE   W06
 BYTE   N05
 BYTE   W06
 BYTE   Dn1
 BYTE   W06
 BYTE   Bn0
 BYTE   N05  En1
 BYTE   N44  Bn3  v096
 BYTE   N44  En4
 BYTE   N44  Gn4
 BYTE   W06
 BYTE   N05  Bn0  v080
 BYTE   N05  En1
 BYTE   W06
 BYTE   Bn0
 BYTE   N05  En1
 BYTE   W06
 BYTE   Bn0
 BYTE   N05  En1
 BYTE   W06
 BYTE   Bn0
 BYTE   N05  En1
 BYTE   W06
 BYTE   Bn0
 BYTE   N05  En1
 BYTE   W06
 BYTE   Bn0
 BYTE   W06
 BYTE   Dn1
 BYTE   W06
 BYTE   PEND 
//  #03 //080   ----------------------------------------
 BYTE   N32  Bn0
 BYTE   N32  En1
 BYTE   N44  Gn3  v096
 BYTE   N44  Bn3
 BYTE   N44  En4
 BYTE   W36
 BYTE   N05  Gn0  v080
 BYTE   W06
 BYTE   N11  Bn0
 BYTE   N11  En1
 BYTE   W06
 BYTE   N44  Cn4  v096
 BYTE   N44  En4
 BYTE   N44  Gn4
 BYTE   W06
 BYTE   N05  Gn0  v080
 BYTE   W06
 BYTE   N11  Bn0
 BYTE   N11  En1
 BYTE   W12
 BYTE   Bn0
 BYTE   N11  En1
 BYTE   W12
 BYTE   N05  Bn0
 BYTE   N05  En1
 BYTE   W06
 BYTE   Dn1
 BYTE   W06
//  #03 //081   ----------------------------------------
 BYTE   PATT
  POIN2 Label_01059D60
//  #03 //082   ----------------------------------------
 BYTE   PATT
  POIN2 Label_01059DEC
//  #03 //083   ----------------------------------------
 BYTE   N05  Gn0  v080
 BYTE   N05  Cn1
 BYTE   N44  Cn4  v096
 BYTE   N44  En4
 BYTE   N44  Gn4
 BYTE   W06
 BYTE   N05  Gn0  v080
 BYTE   N05  Cn1
 BYTE   W06
 BYTE   Gn0
 BYTE   N05  Cn1
 BYTE   W06
 BYTE   Gn0
 BYTE   N05  Cn1
 BYTE   W06
 BYTE   Gn0
 BYTE   N05  Cn1
 BYTE   W06
 BYTE   Gn0
 BYTE   N05  Cn1
 BYTE   W06
 BYTE   Gn0
 BYTE   N05  Cn1
 BYTE   W06
 BYTE   Gn0
 BYTE   N05  Cn1
 BYTE   W06
 BYTE   N11  Gn1
 BYTE   N11  Bn3  v096
 BYTE   N11  Dn4
 BYTE   N11  Gn4
 BYTE   W48
//  #03 //084   ----------------------------------------
 BYTE   N05  Fn1
 BYTE   N11  En3  v112
 BYTE   N11  Gn3
 BYTE   N11  Cn4
 BYTE   W06
 BYTE   N05  Fn1  v096
 BYTE   W06
 BYTE   N05
 BYTE   N05  Fn3  v112
 BYTE   N05  An3
 BYTE   N05  Cn4
 BYTE   W06
 BYTE   Fn1  v096
 BYTE   N68  Fn3  v112
 BYTE   N68  An3
 BYTE   N68  Cn4
 BYTE   W06
 BYTE   N05  Fn1  v096
 BYTE   W06
 BYTE   N05
 BYTE   W06
 BYTE   N05
 BYTE   W06
 BYTE   N05
 BYTE   W06
 BYTE   N05
 BYTE   W06
 BYTE   N05
 BYTE   W06
 BYTE   N05
 BYTE   W06
 BYTE   Ds1
 BYTE   W06
 BYTE   Fn1
 BYTE   W06
 BYTE   N05
 BYTE   W06
 BYTE   N05
 BYTE   W06
 BYTE   Gn1
 BYTE   W06
//  #03 //085   ----------------------------------------
 BYTE   An1
 BYTE   N92  An3  v112
 BYTE   N92  Cn4
 BYTE   N92  En4
 BYTE   W06
 BYTE   N05  An1  v096
 BYTE   W06
 BYTE   N05
 BYTE   W06
 BYTE   N05
 BYTE   W06
 BYTE   N05
 BYTE   W06
 BYTE   N05
 BYTE   W06
 BYTE   N05
 BYTE   W06
 BYTE   N05
 BYTE   W06
 BYTE   N05
 BYTE   W06
 BYTE   N05
 BYTE   W06
 BYTE   N05
 BYTE   W06
 BYTE   Gn1
 BYTE   W06
 BYTE   An1
 BYTE   W06
 BYTE   N05
 BYTE   W06
 BYTE   N05
 BYTE   W06
 BYTE   Gn1
 BYTE   W06
//  #03 //086   ----------------------------------------
 BYTE   Fn1
 BYTE   N92  An3  v112
 BYTE   N92  Cn4
 BYTE   N92  Fn4
 BYTE   W06
 BYTE   N05  Fn1  v096
 BYTE   W06
 BYTE   N05
 BYTE   W06
 BYTE   N05
 BYTE   W06
 BYTE   N05
 BYTE   W06
 BYTE   N05
 BYTE   W06
 BYTE   N05
 BYTE   W06
 BYTE   N05
 BYTE   W06
 BYTE   N05
 BYTE   W06
 BYTE   N05
 BYTE   W06
 BYTE   N05
 BYTE   W06
 BYTE   Ds1
 BYTE   W06
 BYTE   Fn1
 BYTE   W06
 BYTE   N05
 BYTE   W06
 BYTE   N05
 BYTE   W06
 BYTE   Gn1
 BYTE   W06
//  #03 //087   ----------------------------------------
 BYTE   An1
 BYTE   N44  An3  v112
 BYTE   N44  Cn4
 BYTE   N44  En4
 BYTE   W06
 BYTE   N05  An1  v096
 BYTE   W06
 BYTE   N05
 BYTE   W06
 BYTE   N05
 BYTE   W06
 BYTE   N05
 BYTE   W06
 BYTE   N05
 BYTE   W06
 BYTE   N05
 BYTE   W06
 BYTE   N05
 BYTE   W06
 BYTE   N05
 BYTE   N05  Cn4  v112
 BYTE   N05  En4
 BYTE   W03
 BYTE   W03
 BYTE   An1  v096
 BYTE   N05  Cn4  v116
 BYTE   N05  En4
 BYTE   W04
 BYTE   W02
 BYTE   An1  v096
 BYTE   N05  Bn3  v116
 BYTE   N05  Dn4
 BYTE   W01
 BYTE   W04
 BYTE   W01
 BYTE   Gn1  v096
 BYTE   N05  An3  v120
 BYTE   N05  Cn4
 BYTE   W02
 BYTE   W04
 BYTE   An1  v096
 BYTE   N05  Bn3  v120
 BYTE   N05  Dn4
 BYTE   W03
 BYTE   W03
 BYTE   An1  v096
 BYTE   N05  An3  v120
 BYTE   N05  Cn4
 BYTE   W04
 BYTE   W02
 BYTE   An1  v096
 BYTE   N11  Fn3  v124
 BYTE   N11  An3
 BYTE   W01
 BYTE   W04
 BYTE   W01
 BYTE   N05  Gn1  v096
 BYTE   W02
 BYTE   W04
//  #03 //088   ----------------------------------------
Label_01059F88:
 BYTE   N11  As1  v112
 BYTE   N05  As3  v127
 BYTE   N05  Fn4
 BYTE   W06
 BYTE   As3
 BYTE   N05  Fn4
 BYTE   W06
 BYTE   N11  As1  v112
 BYTE   N32  As3  v127
 BYTE   N32  Fn4
 BYTE   W12
 BYTE   N11  As1  v112
 BYTE   W12
 BYTE   N11
 BYTE   W12
 BYTE   Gn1
 BYTE   N05  As3  v127
 BYTE   N05  Fn4
 BYTE   W06
 BYTE   As3
 BYTE   N05  Fn4
 BYTE   W06
 BYTE   N11  Gn1  v112
 BYTE   N32  As3  v127
 BYTE   N32  Fn4
 BYTE   W12
 BYTE   N11  Gn1  v112
 BYTE   W12
 BYTE   N11
 BYTE   W12
 BYTE   PEND 
//  #03 //089   ----------------------------------------
Label_01059FBF:
 BYTE   N11  Dn1  v112
 BYTE   N05  As3  v127
 BYTE   N05  Dn4
 BYTE   W06
 BYTE   As3
 BYTE   N05  Dn4
 BYTE   W06
 BYTE   N11  Dn1  v112
 BYTE   N32  As3  v127
 BYTE   N32  Dn4
 BYTE   W12
 BYTE   N11  Dn1  v112
 BYTE   W12
 BYTE   N11
 BYTE   W12
 BYTE   Cn1
 BYTE   N05  An3  v127
 BYTE   N05  Cn4
 BYTE   W06
 BYTE   An3
 BYTE   N05  Cn4
 BYTE   W06
 BYTE   N11  Cn1  v112
 BYTE   N23  An3  v127
 BYTE   N23  Cn4
 BYTE   W12
 BYTE   N11  Cn1  v112
 BYTE   W12
 BYTE   N11
 BYTE   N11  Cn4  v127
 BYTE   N11  En4
 BYTE   W12
 BYTE   PEND 
//  #03 //090   ----------------------------------------
 BYTE   As1  v112
 BYTE   N05  As3  v127
 BYTE   N05  Fn4
 BYTE   W06
 BYTE   As3
 BYTE   N05  Fn4
 BYTE   W06
 BYTE   N11  As1  v112
 BYTE   N32  As3  v127
 BYTE   N32  Fn4
 BYTE   W12
 BYTE   N11  As1  v112
 BYTE   W12
 BYTE   N11
 BYTE   W12
 BYTE   Gn1
 BYTE   N05  As3  v127
 BYTE   N05  Fn4
 BYTE   W06
 BYTE   As3
 BYTE   N05  Fn4
 BYTE   W06
 BYTE   N11  Gn1  v112
 BYTE   N23  As3  v127
 BYTE   N23  Fn4
 BYTE   W12
 BYTE   N11  Gn1  v112
 BYTE   W12
 BYTE   N11
 BYTE   N11  Gn3  v127
 BYTE   N11  Dn4
 BYTE   W12
//  #03 //091   ----------------------------------------
Label_0105A035:
 BYTE   N11  Dn1  v112
 BYTE   N05  As3  v127
 BYTE   N05  Dn4
 BYTE   W06
 BYTE   As3
 BYTE   N05  Dn4
 BYTE   W06
 BYTE   N11  Dn1  v112
 BYTE   N32  As3  v127
 BYTE   N32  Dn4
 BYTE   W12
 BYTE   N11  Dn1  v112
 BYTE   W12
 BYTE   N11
 BYTE   W12
 BYTE   En1
 BYTE   N44  Gs3  v127
 BYTE   N44  Cn4
 BYTE   W12
 BYTE   N11  En1  v112
 BYTE   W12
 BYTE   N11
 BYTE   W12
 BYTE   N11
 BYTE   W12
 BYTE   PEND 
//  #03 //092   ----------------------------------------
 BYTE   PATT
  POIN2 Label_01059F88
//  #03 //093   ----------------------------------------
 BYTE   N11  Dn1  v112
 BYTE   N05  As3  v127
 BYTE   N05  Dn4
 BYTE   W06
 BYTE   As3
 BYTE   N05  Dn4
 BYTE   W06
 BYTE   N11  Dn1  v112
 BYTE   N32  As3  v127
 BYTE   N32  Dn4
 BYTE   W12
 BYTE   N11  Dn1  v112
 BYTE   W12
 BYTE   N11
 BYTE   W12
 BYTE   Cn1
 BYTE   N05  An3  v127
 BYTE   N05  Cn4
 BYTE   W06
 BYTE   An3
 BYTE   N05  Cn4
 BYTE   W06
 BYTE   N11  Cn1  v112
 BYTE   N32  An3  v127
 BYTE   N32  Cn4
 BYTE   W12
 BYTE   N11  Cn1  v112
 BYTE   W12
 BYTE   N11
 BYTE   W12
//  #03 //094   ----------------------------------------
 BYTE   PATT
  POIN2 Label_01059F88
//  #03 //095   ----------------------------------------
 BYTE   PATT
  POIN2 Label_0105A035
//  #03 //096   ----------------------------------------
 BYTE   PATT
  POIN2 Label_01059F88
//  #03 //097   ----------------------------------------
 BYTE   PATT
  POIN2 Label_01059FBF
//  #03 //098   ----------------------------------------
Label_0105A0B0:
 BYTE   N05  As1  v112
 BYTE   N05  As3  v127
 BYTE   N05  Fn4
 BYTE   W06
 BYTE   As1  v112
 BYTE   N05  As3  v127
 BYTE   N05  Fn4
 BYTE   W06
 BYTE   As1  v112
 BYTE   N32  As3  v127
 BYTE   N32  Fn4
 BYTE   W06
 BYTE   N05  As1  v112
 BYTE   W06
 BYTE   N05
 BYTE   W06
 BYTE   N05
 BYTE   W06
 BYTE   N05
 BYTE   W06
 BYTE   N05
 BYTE   W06
 BYTE   Gn1
 BYTE   N05  As3  v127
 BYTE   N05  Fn4
 BYTE   W06
 BYTE   Gn1  v112
 BYTE   N05  As3  v127
 BYTE   N05  Fn4
 BYTE   W06
 BYTE   Gn1  v112
 BYTE   N32  As3  v127
 BYTE   N32  Fn4
 BYTE   W06
 BYTE   N05  Gn1  v112
 BYTE   W06
 BYTE   N05
 BYTE   W06
 BYTE   N05
 BYTE   W06
 BYTE   N05
 BYTE   W06
 BYTE   N05
 BYTE   W06
 BYTE   PEND 
//  #03 //099   ----------------------------------------
 BYTE   Dn1
 BYTE   N05  As3  v127
 BYTE   N05  Dn4
 BYTE   W06
 BYTE   Dn1  v112
 BYTE   N05  As3  v127
 BYTE   N05  Dn4
 BYTE   W06
 BYTE   Dn1  v112
 BYTE   N32  As3  v127
 BYTE   N32  Dn4
 BYTE   W06
 BYTE   N05  Dn1  v112
 BYTE   W06
 BYTE   N05
 BYTE   W06
 BYTE   N05
 BYTE   W06
 BYTE   N05
 BYTE   W06
 BYTE   N05
 BYTE   W06
 BYTE   En1
 BYTE   N44  Gs3  v127
 BYTE   N44  Cn4
 BYTE   W06
 BYTE   N05  En1  v112
 BYTE   W06
 BYTE   N05
 BYTE   W06
 BYTE   N05
 BYTE   W06
 BYTE   N05
 BYTE   W06
 BYTE   N05
 BYTE   W06
 BYTE   N05
 BYTE   W06
 BYTE   N05
 BYTE   W06
//  #03 //100   ----------------------------------------
 BYTE   PATT
  POIN2 Label_0105A0B0
//  #03 //101   ----------------------------------------
 BYTE   N05  Dn1  v112
 BYTE   N05  As3  v127
 BYTE   N05  Dn4
 BYTE   W06
 BYTE   Dn1  v112
 BYTE   N05  As3  v127
 BYTE   N05  Dn4
 BYTE   W06
 BYTE   Dn1  v112
 BYTE   N32  As3  v127
 BYTE   N32  Dn4
 BYTE   W06
 BYTE   N05  Dn1  v112
 BYTE   W06
 BYTE   N05
 BYTE   W06
 BYTE   N05
 BYTE   W06
 BYTE   N05
 BYTE   W06
 BYTE   N05
 BYTE   W06
 BYTE   Cn1
 BYTE   N05  An3  v127
 BYTE   N05  Cn4
 BYTE   W06
 BYTE   Cn1  v112
 BYTE   N05  An3  v127
 BYTE   N05  Cn4
 BYTE   W06
 BYTE   Cn1  v112
 BYTE   N23  An3  v127
 BYTE   N23  Cn4
 BYTE   W06
 BYTE   N05  Cn1  v112
 BYTE   W06
 BYTE   N05
 BYTE   W06
 BYTE   N05
 BYTE   W06
 BYTE   N05
 BYTE   N11  Cn4  v127
 BYTE   N11  En4
 BYTE   W06
 BYTE   N05  Cn1  v112
 BYTE   W06
//  #03 //102   ----------------------------------------
 BYTE   PATT
  POIN2 Label_0105A0B0
//  #03 //103   ----------------------------------------
 BYTE   N05  Dn1  v112
 BYTE   N05  As3  v127
 BYTE   N05  Dn4
 BYTE   W06
 BYTE   Dn1  v112
 BYTE   N05  As3  v127
 BYTE   N05  Dn4
 BYTE   W06
 BYTE   Dn1  v112
 BYTE   N32  As3  v127
 BYTE   N32  Dn4
 BYTE   W06
 BYTE   N05  Dn1  v112
 BYTE   W06
 BYTE   N05
 BYTE   W06
 BYTE   N05
 BYTE   W06
 BYTE   N05
 BYTE   W06
 BYTE   N05
 BYTE   W06
 BYTE   En1
 BYTE   N44  An3  v127
 BYTE   N44  Cs4
 BYTE   W06
 BYTE   N05  En1  v112
 BYTE   W06
 BYTE   N05
 BYTE   W06
 BYTE   N05
 BYTE   W06
 BYTE   N05
 BYTE   W06
 BYTE   N05
 BYTE   W06
 BYTE   N11  Dn2
 BYTE   W12
//  #03 //104   ----------------------------------------
 BYTE   N32  Fn2
 BYTE   N44  Gs3  v127
 BYTE   N44  Cn4
 BYTE   N44  Fn4
 BYTE   W36
 BYTE   N11  Dn2  v112
 BYTE   W12
 BYTE   En2
 BYTE   N44  Gs3  v127
 BYTE   N44  Bn3
 BYTE   N44  En4
 BYTE   W12
 BYTE   N11  Bn1  v112
 BYTE   W12
 BYTE   N23
 BYTE   W24
//  #03 //105   ----------------------------------------
 BYTE   N17  Cs2
 BYTE   N44  Bn3  v127
 BYTE   N44  Cs4
 BYTE   N44  En4
 BYTE   W18
 BYTE   N17  Cs2  v112
 BYTE   W18
 BYTE   N11
 BYTE   W12
 BYTE   N17  Cn2
 BYTE   N44  Gn3  v127
 BYTE   N44  Cn4
 BYTE   N44  En4
 BYTE   W24
 BYTE   N11  Cn1  v112
 BYTE   W12
 BYTE   Cn2
 BYTE   W12
//  #03 //106   ----------------------------------------
 BYTE   N23  An1
 BYTE   N44  Gn3  v127
 BYTE   N44  Cn4
 BYTE   N44  En4
 BYTE   W24
 BYTE   N07  An1  v112
 BYTE   W08
 BYTE   N07
 BYTE   W08
 BYTE   N07
 BYTE   W08
 BYTE   N23  Fs1
 BYTE   N44  An3  v127
 BYTE   N44  Cs4
 BYTE   N44  Fs4
 BYTE   W24
 BYTE   N07  Fs1  v112
 BYTE   W08
 BYTE   N07
 BYTE   W08
 BYTE   N07
 BYTE   W08
//  #03 //107   ----------------------------------------
 BYTE   TIE  Gs1
 BYTE   TIE  Gs3  v127
 BYTE   TIE  Cn4
 BYTE   TIE  Ds4
 BYTE   W48
 BYTE   W09
 BYTE   W09
 BYTE   W09
 BYTE   W09
 BYTE   W09
 BYTE   W03
//  #03 //108   ----------------------------------------
 BYTE   W06
 BYTE   W09
 BYTE   W09
 BYTE   W09
 BYTE   W09
 BYTE   W09
 BYTE   W09
 BYTE   W09
 BYTE   W09
 BYTE   W09
 BYTE   W08
 BYTE   EOT
 BYTE   Gs1
 BYTE   W01
//  #03 //109   ----------------------------------------
 BYTE   W92
 BYTE   W03
 BYTE   Gs3  v072
 BYTE   Ds4
 BYTE   W01
//  #03 //110   ----------------------------------------
 BYTE   GoTo
  POIN2 Label_01059746
 BYTE   FINE

//**************** Track 4 (Midi-Chn.3) ****************//

Biggering_004:
//  #04 //000   ----------------------------------------
 BYTE   KEYSH   Biggering_key+0
Label_0105A256:
 BYTE   VOICE   100
 BYTE   VOL   37*Biggering_mvl/mxv
 BYTE   PAN   c_v+0
 BYTE   N32  An2  v064
 BYTE   N32  Dn3
 BYTE   N32  Fn3
 BYTE   W36
 BYTE   An2
 BYTE   N32  Dn3
 BYTE   N32  Fn3
 BYTE   W36
 BYTE   N23  An2
 BYTE   N23  Dn3
 BYTE   N23  En3
 BYTE   W24
//  #04 //001   ----------------------------------------
Label_0105A271:
 BYTE   N32  An2  v064
 BYTE   N32  Dn3
 BYTE   N32  Fn3
 BYTE   W36
 BYTE   An2
 BYTE   N32  Dn3
 BYTE   N32  Fn3
 BYTE   W36
 BYTE   N23  An2
 BYTE   N23  Dn3
 BYTE   N23  En3
 BYTE   W24
 BYTE   PEND 
//  #04 //002   ----------------------------------------
 BYTE   PATT
  POIN2 Label_0105A271
//  #04 //003   ----------------------------------------
 BYTE   PATT
  POIN2 Label_0105A271
//  #04 //004   ----------------------------------------
 BYTE   PATT
  POIN2 Label_0105A271
//  #04 //005   ----------------------------------------
Label_0105A296:
 BYTE   N32  Gn2  v064
 BYTE   N32  As2
 BYTE   N32  Dn3
 BYTE   W36
 BYTE   Gn2
 BYTE   N32  As2
 BYTE   N32  Dn3
 BYTE   W36
 BYTE   N23  Gn2
 BYTE   N23  As2
 BYTE   N23  Dn3
 BYTE   W24
 BYTE   PEND 
//  #04 //006   ----------------------------------------
Label_0105A2AC:
 BYTE   N32  Gn2  v064
 BYTE   N32  Cn3
 BYTE   N32  En3
 BYTE   W36
 BYTE   Gn2
 BYTE   N32  Cn3
 BYTE   N32  En3
 BYTE   W36
 BYTE   N23  Gn2
 BYTE   N23  Cn3
 BYTE   N23  En3
 BYTE   W24
 BYTE   PEND 
//  #04 //007   ----------------------------------------
Label_0105A2C2:
 BYTE   N44  An2  v064
 BYTE   N44  Cn3
 BYTE   N44  Fn3
 BYTE   W48
 BYTE   N23  Gn2
 BYTE   N23  Cn3
 BYTE   N23  En3
 BYTE   W24
 BYTE   Gn2
 BYTE   N23  Cn3
 BYTE   N23  En3
 BYTE   W24
 BYTE   PEND 
//  #04 //008   ----------------------------------------
 BYTE   PATT
  POIN2 Label_0105A271
//  #04 //009   ----------------------------------------
 BYTE   N32  As2  v064
 BYTE   N32  Dn3
 BYTE   N32  Gn3
 BYTE   W36
 BYTE   As2
 BYTE   N32  Dn3
 BYTE   N32  Gn3
 BYTE   W36
 BYTE   N23  As2
 BYTE   N23  Dn3
 BYTE   N23  Gn3
 BYTE   W24
//  #04 //010   ----------------------------------------
Label_0105A2F2:
 BYTE   N32  Cs3  v064
 BYTE   N32  En3
 BYTE   N32  An3
 BYTE   W36
 BYTE   Cs3
 BYTE   N32  En3
 BYTE   N32  An3
 BYTE   W36
 BYTE   N23  Cs3
 BYTE   N23  En3
 BYTE   N23  An3
 BYTE   W24
 BYTE   PEND 
//  #04 //011   ----------------------------------------
 BYTE   PATT
  POIN2 Label_0105A271
//  #04 //012   ----------------------------------------
 BYTE   PATT
  POIN2 Label_0105A271
//  #04 //013   ----------------------------------------
 BYTE   PATT
  POIN2 Label_0105A296
//  #04 //014   ----------------------------------------
 BYTE   PATT
  POIN2 Label_0105A2AC
//  #04 //015   ----------------------------------------
 BYTE   PATT
  POIN2 Label_0105A2C2
//  #04 //016   ----------------------------------------
 BYTE   PATT
  POIN2 Label_0105A2F2
//  #04 //017   ----------------------------------------
 BYTE   PATT
  POIN2 Label_0105A271
//  #04 //018   ----------------------------------------
 BYTE   N32  Gn2  v064
 BYTE   N32  As2
 BYTE   N32  Dn3
 BYTE   W36
 BYTE   Gn2  v072
 BYTE   N32  As2
 BYTE   N32  Dn3
 BYTE   W36
 BYTE   N23  Gn2  v076
 BYTE   N23  As2
 BYTE   N23  Dn3
 BYTE   W24
//  #04 //019   ----------------------------------------
 BYTE   N11  Cn3  v080
 BYTE   N11  Fn3
 BYTE   N11  An3
 BYTE   W96
//  #04 //020   ----------------------------------------
Label_0105A34A:
 BYTE   N32  As2  v080
 BYTE   N32  Ds3
 BYTE   W36
 BYTE   N11  As2
 BYTE   N11  Ds3
 BYTE   W12
 BYTE   N23  As2
 BYTE   N23  Ds3
 BYTE   W24
 BYTE   Gn2
 BYTE   N23  As2
 BYTE   W24
 BYTE   PEND 
//  #04 //021   ----------------------------------------
Label_0105A35F:
 BYTE   N32  As2  v080
 BYTE   N32  Ds3
 BYTE   W36
 BYTE   N11  As2
 BYTE   N11  Ds3
 BYTE   W12
 BYTE   N23  As2
 BYTE   N23  Ds3
 BYTE   W24
 BYTE   Dn3
 BYTE   N23  Fn3
 BYTE   W24
 BYTE   PEND 
//  #04 //022   ----------------------------------------
Label_0105A374:
 BYTE   N32  Ds3  v080
 BYTE   N32  Gn3
 BYTE   W36
 BYTE   N11  Ds3
 BYTE   N11  Gn3
 BYTE   W12
 BYTE   N23  Ds3
 BYTE   N23  Gn3
 BYTE   W24
 BYTE   Ds3
 BYTE   N23  Fn3
 BYTE   W24
 BYTE   PEND 
//  #04 //023   ----------------------------------------
 BYTE   N32  Ds3
 BYTE   N32  Gn3
 BYTE   W36
 BYTE   N11  Ds3
 BYTE   N11  Gn3
 BYTE   W12
 BYTE   N23  Dn3
 BYTE   N23  Fn3
 BYTE   W24
 BYTE   Dn3
 BYTE   N23  Fn3
 BYTE   W24
//  #04 //024   ----------------------------------------
 BYTE   PATT
  POIN2 Label_0105A34A
//  #04 //025   ----------------------------------------
 BYTE   PATT
  POIN2 Label_0105A35F
//  #04 //026   ----------------------------------------
 BYTE   PATT
  POIN2 Label_0105A374
//  #04 //027   ----------------------------------------
 BYTE   N32  Ds3  v080
 BYTE   N32  Gn3
 BYTE   W36
 BYTE   N11  Ds3  v088
 BYTE   N11  Gn3
 BYTE   W12
 BYTE   N23  Dn3
 BYTE   N23  Fn3
 BYTE   W24
 BYTE   Dn3  v092
 BYTE   N23  Fn3
 BYTE   W24
//  #04 //028   ----------------------------------------
Label_0105A3C1:
 BYTE   N32  Cn3  v096
 BYTE   N32  Ds3
 BYTE   W36
 BYTE   N11  Cn3
 BYTE   N11  Ds3
 BYTE   W12
 BYTE   N23  Cn3
 BYTE   N23  Ds3
 BYTE   W24
 BYTE   Cn3
 BYTE   N23  Dn3
 BYTE   W24
 BYTE   PEND 
//  #04 //029   ----------------------------------------
Label_0105A3D6:
 BYTE   N32  Gs2  v096
 BYTE   N32  Cn3
 BYTE   W36
 BYTE   N11  Gs2
 BYTE   N11  Cn3
 BYTE   W12
 BYTE   N23  Gs2
 BYTE   N23  Cn3
 BYTE   W24
 BYTE   N23
 BYTE   N23  Dn3
 BYTE   W24
 BYTE   PEND 
//  #04 //030   ----------------------------------------
 BYTE   PATT
  POIN2 Label_0105A3C1
//  #04 //031   ----------------------------------------
 BYTE   N32  As2  v096
 BYTE   N32  Dn3
 BYTE   W36
 BYTE   N11  As2
 BYTE   N11  Dn3
 BYTE   W12
 BYTE   N23  As2
 BYTE   N23  Dn3
 BYTE   W24
 BYTE   As2
 BYTE   N23  Dn3
 BYTE   W24
//  #04 //032   ----------------------------------------
 BYTE   PATT
  POIN2 Label_0105A3C1
//  #04 //033   ----------------------------------------
 BYTE   PATT
  POIN2 Label_0105A3D6
//  #04 //034   ----------------------------------------
 BYTE   N32  Dn3  v096
 BYTE   N32  Gn3
 BYTE   W36
 BYTE   N11  Dn3
 BYTE   N11  Gn3
 BYTE   W12
 BYTE   N23  Dn3
 BYTE   N23  Gn3
 BYTE   W24
 BYTE   Dn3
 BYTE   N23  Gn3
 BYTE   W24
//  #04 //035   ----------------------------------------
 BYTE   N11  Dn3
 BYTE   N11  Gn3
 BYTE   W12
 BYTE   Dn3
 BYTE   N11  Gn3
 BYTE   W12
 BYTE   Dn3
 BYTE   N11  Gn3
 BYTE   W12
 BYTE   Dn3
 BYTE   N11  Gn3
 BYTE   W12
 BYTE   Dn3
 BYTE   N11  Gn3
 BYTE   W12
 BYTE   Dn3
 BYTE   N11  Gn3
 BYTE   W12
 BYTE   Dn3
 BYTE   N11  Gn3
 BYTE   W12
 BYTE   Dn3
 BYTE   N11  Gn3
 BYTE   W12
//  #04 //036   ----------------------------------------
 BYTE   Dn3
 BYTE   N11  Gn3
 BYTE   W12
 BYTE   Dn3  v100
 BYTE   N11  Gn3
 BYTE   W12
 BYTE   Dn3
 BYTE   N11  Gn3
 BYTE   W12
 BYTE   Dn3
 BYTE   N11  Gn3
 BYTE   W12
 BYTE   Dn3  v104
 BYTE   N11  Gn3
 BYTE   W12
 BYTE   Dn3
 BYTE   N11  Gn3
 BYTE   W12
 BYTE   Dn3  v108
 BYTE   N11  Gn3
 BYTE   W12
 BYTE   Dn3
 BYTE   N11  Gn3
 BYTE   W12
//  #04 //037   ----------------------------------------
 BYTE   Ds3
 BYTE   N11  Gn3
 BYTE   W24
 BYTE   Ds3  v112
 BYTE   N11  Gn3
 BYTE   W24
 BYTE   Ds3
 BYTE   N11  Gn3
 BYTE   W24
 BYTE   Ds3
 BYTE   N11  Gn3
 BYTE   W24
//  #04 //038   ----------------------------------------
 BYTE   Ds3
 BYTE   N11  Gn3
 BYTE   W24
 BYTE   Ds3  v100
 BYTE   N11  Gn3
 BYTE   W24
 BYTE   Ds3  v084
 BYTE   N11  Gn3
 BYTE   W24
 BYTE   Ds3  v068
 BYTE   N11  Gn3
 BYTE   W24
//  #04 //039   ----------------------------------------
Label_0105A48A:
 BYTE   N11  Ds3  v052
 BYTE   N11  Gn3
 BYTE   W24
 BYTE   Ds3
 BYTE   N11  Gn3
 BYTE   W24
 BYTE   Ds3
 BYTE   N11  Gn3
 BYTE   W24
 BYTE   Ds3
 BYTE   N11  Gn3
 BYTE   W24
 BYTE   PEND 
//  #04 //040   ----------------------------------------
 BYTE   Ds3
 BYTE   N11  Gs3
 BYTE   W24
 BYTE   Ds3
 BYTE   N11  Gs3
 BYTE   W24
 BYTE   Ds3
 BYTE   N11  Gs3
 BYTE   W24
 BYTE   Ds3
 BYTE   N11  Gs3
 BYTE   W24
//  #04 //041   ----------------------------------------
 BYTE   Dn3
 BYTE   N11  Fn3
 BYTE   W24
 BYTE   Dn3
 BYTE   N11  Fn3
 BYTE   W24
 BYTE   Dn3
 BYTE   N11  Fn3
 BYTE   W24
 BYTE   Dn3
 BYTE   N11  Fn3
 BYTE   W24
//  #04 //042   ----------------------------------------
 BYTE   Ds3
 BYTE   N11  Gs3
 BYTE   W24
 BYTE   Ds3
 BYTE   N11  Gs3
 BYTE   W24
 BYTE   Dn3
 BYTE   N11  Fn3
 BYTE   W24
 BYTE   Dn3
 BYTE   N11  Fn3
 BYTE   W24
//  #04 //043   ----------------------------------------
 BYTE   PATT
  POIN2 Label_0105A48A
//  #04 //044   ----------------------------------------
 BYTE   N11  Ds3  v052
 BYTE   N11  Fn3
 BYTE   W24
 BYTE   Ds3
 BYTE   N11  Fn3
 BYTE   W24
 BYTE   Ds3
 BYTE   N11  Fn3
 BYTE   W24
 BYTE   Ds3
 BYTE   N11  Fn3
 BYTE   W24
//  #04 //045   ----------------------------------------
 BYTE   PATT
  POIN2 Label_0105A48A
//  #04 //046   ----------------------------------------
 BYTE   N11  Ds3  v052
 BYTE   N11  Gn3
 BYTE   W24
 BYTE   Ds3  v056
 BYTE   N11  Gn3
 BYTE   W24
 BYTE   Ds3  v064
 BYTE   N11  Gn3
 BYTE   W24
 BYTE   Ds3  v072
 BYTE   N11  Gn3
 BYTE   W24
//  #04 //047   ----------------------------------------
Label_0105A4FE:
 BYTE   N11  Ds3  v080
 BYTE   N11  Gn3
 BYTE   W12
 BYTE   Ds3
 BYTE   N11  Gn3
 BYTE   W12
 BYTE   Ds3
 BYTE   N11  Gn3
 BYTE   W12
 BYTE   Ds3
 BYTE   N11  Gn3
 BYTE   W12
 BYTE   Ds3
 BYTE   N11  Gn3
 BYTE   W12
 BYTE   Ds3
 BYTE   N11  Gn3
 BYTE   W12
 BYTE   Ds3
 BYTE   N11  Gn3
 BYTE   W12
 BYTE   Ds3
 BYTE   N11  Gn3
 BYTE   W12
 BYTE   PEND 
//  #04 //048   ----------------------------------------
 BYTE   Ds3
 BYTE   N11  Gs3
 BYTE   W12
 BYTE   Ds3
 BYTE   N11  Gs3
 BYTE   W12
 BYTE   Ds3
 BYTE   N11  Gs3
 BYTE   W12
 BYTE   Ds3
 BYTE   N11  Gs3
 BYTE   W12
 BYTE   Ds3
 BYTE   N11  Gs3
 BYTE   W12
 BYTE   Ds3
 BYTE   N11  Gs3
 BYTE   W12
 BYTE   Ds3
 BYTE   N11  Gs3
 BYTE   W12
 BYTE   Ds3
 BYTE   N11  Gs3
 BYTE   W12
//  #04 //049   ----------------------------------------
 BYTE   Dn3
 BYTE   N11  Fn3
 BYTE   W12
 BYTE   Dn3
 BYTE   N11  Fn3
 BYTE   W12
 BYTE   Dn3
 BYTE   N11  Fn3
 BYTE   W12
 BYTE   Dn3
 BYTE   N11  Fn3
 BYTE   W12
 BYTE   Dn3
 BYTE   N11  Fn3
 BYTE   W12
 BYTE   Dn3
 BYTE   N11  Fn3
 BYTE   W12
 BYTE   Dn3
 BYTE   N11  Fn3
 BYTE   W12
 BYTE   Dn3
 BYTE   N11  Fn3
 BYTE   W12
//  #04 //050   ----------------------------------------
 BYTE   Ds3
 BYTE   N11  Gs3
 BYTE   W12
 BYTE   Ds3
 BYTE   N11  Gs3
 BYTE   W12
 BYTE   Ds3
 BYTE   N11  Gs3
 BYTE   W12
 BYTE   Ds3
 BYTE   N11  Gs3
 BYTE   W12
 BYTE   Dn3
 BYTE   N11  Fn3
 BYTE   W12
 BYTE   Dn3
 BYTE   N11  Fn3
 BYTE   W12
 BYTE   Dn3
 BYTE   N11  Fn3
 BYTE   W12
 BYTE   Dn3
 BYTE   N11  Fn3
 BYTE   W12
//  #04 //051   ----------------------------------------
 BYTE   Bn2
 BYTE   N11  Gn3
 BYTE   W12
 BYTE   Bn2
 BYTE   N11  Gn3
 BYTE   W12
 BYTE   Bn2
 BYTE   N11  Gn3
 BYTE   W12
 BYTE   Bn2
 BYTE   N11  Gn3
 BYTE   W12
 BYTE   Bn2
 BYTE   N11  Gn3
 BYTE   W12
 BYTE   Bn2
 BYTE   N11  Gn3
 BYTE   W12
 BYTE   Bn2
 BYTE   N11  Gn3
 BYTE   W12
 BYTE   Bn2
 BYTE   N11  Gn3
 BYTE   W12
//  #04 //052   ----------------------------------------
 BYTE   PATT
  POIN2 Label_0105A4FE
//  #04 //053   ----------------------------------------
 BYTE   N11  Ds3  v080
 BYTE   N11  Gs3
 BYTE   W12
 BYTE   Ds3  v084
 BYTE   N11  Gs3
 BYTE   W12
 BYTE   Ds3  v088
 BYTE   N11  Gn3
 BYTE   W12
 BYTE   Ds3  v092
 BYTE   N11  Gn3
 BYTE   W12
 BYTE   As2  v096
 BYTE   N11  Ds3
 BYTE   W12
 BYTE   As2  v100
 BYTE   N11  Ds3
 BYTE   W12
 BYTE   As2  v104
 BYTE   N11  Ds3
 BYTE   W12
 BYTE   As2  v108
 BYTE   N11  Ds3
 BYTE   W12
//  #04 //054   ----------------------------------------
 BYTE   As2  v112
 BYTE   N11  Ds3
 BYTE   N11  Gn3
 BYTE   W36
 BYTE   N11
 BYTE   W12
 BYTE   As3
 BYTE   W12
 BYTE   Ds4
 BYTE   W12
 BYTE   N56  Fn4
 BYTE   W24
//  #04 //055   ----------------------------------------
 BYTE   W36
 BYTE   N11  Ds4
 BYTE   W12
 BYTE   N68  Cs4
 BYTE   W48
//  #04 //056   ----------------------------------------
 BYTE   W96
//  #04 //057   ----------------------------------------
 BYTE   W96
//  #04 //058   ----------------------------------------
 BYTE   W96
//  #04 //059   ----------------------------------------
 BYTE   W24
 BYTE   N23  As4  v096
 BYTE   W24
 BYTE   N11  Gs4
 BYTE   W12
 BYTE   N32  Fn4
 BYTE   W36
//  #04 //060   ----------------------------------------
 BYTE   W96
//  #04 //061   ----------------------------------------
 BYTE   W96
//  #04 //062   ----------------------------------------
 BYTE   W96
//  #04 //063   ----------------------------------------
 BYTE   W96
//  #04 //064   ----------------------------------------
 BYTE   W96
//  #04 //065   ----------------------------------------
 BYTE   W96
//  #04 //066   ----------------------------------------
 BYTE   W54
 BYTE   N05  Cn3  v112
 BYTE   N05  En3
 BYTE   W06
 BYTE   Cs3
 BYTE   N05  Fn3
 BYTE   W06
 BYTE   En3
 BYTE   N05  Gs3
 BYTE   W06
 BYTE   N32  Cn3  v096
 BYTE   N32  En3
 BYTE   N32  An3
 BYTE   W24
//  #04 //067   ----------------------------------------
 BYTE   W12
 BYTE   N68  Cn3
 BYTE   N68  En3
 BYTE   N68  An3
 BYTE   W72
 BYTE   N11  En3
 BYTE   N11  An3
 BYTE   N11  Cn4
 BYTE   W12
//  #04 //068   ----------------------------------------
 BYTE   En3
 BYTE   N11  Gn3
 BYTE   N11  Bn3
 BYTE   W12
 BYTE   Cn3
 BYTE   N11  En3
 BYTE   N11  An3
 BYTE   W12
 BYTE   N32  Ds3
 BYTE   N32  Gs3
 BYTE   N32  Cn4
 BYTE   W36
 BYTE   N68  Cn3
 BYTE   N68  Ds3
 BYTE   N68  Gs3
 BYTE   W36
//  #04 //069   ----------------------------------------
 BYTE   W36
 BYTE   N05  Gs2
 BYTE   N05  Cn3
 BYTE   W06
 BYTE   Gs2
 BYTE   N05  Cs3
 BYTE   W06
 BYTE   Cn3
 BYTE   N05  Ds3
 BYTE   W06
 BYTE   Cn3
 BYTE   N05  En3
 BYTE   W06
 BYTE   Cs3
 BYTE   N05  Fn3
 BYTE   W06
 BYTE   En3
 BYTE   N05  Gs3
 BYTE   W06
 BYTE   N68  Cn3
 BYTE   N68  En3
 BYTE   N24  An3
 BYTE   W24
//  #04 //070   ----------------------------------------
 BYTE   N44  An3  v112
 BYTE   W06
 BYTE   N05  En4
 BYTE   W06
 BYTE   N23  An4
 BYTE   W36
 BYTE   N05  En4
 BYTE   W06
 BYTE   Cn4
 BYTE   W06
 BYTE   N23  An3
 BYTE   W24
 BYTE   N11  Gn3  v096
 BYTE   N11  Cn4
 BYTE   N11  En4
 BYTE   W12
//  #04 //071   ----------------------------------------
 BYTE   Gn3
 BYTE   N11  Cn4
 BYTE   N11  Dn4
 BYTE   W12
 BYTE   En3
 BYTE   N11  An3
 BYTE   N11  Cn4
 BYTE   W12
 BYTE   N32  Gs3
 BYTE   N32  Cn4
 BYTE   N32  Ds4
 BYTE   W36
 BYTE   Ds3
 BYTE   N32  Gs3
 BYTE   N32  Cn4
 BYTE   W36
//  #04 //072   ----------------------------------------
 BYTE   TIE  Bn2
 BYTE   TIE  Dn3
 BYTE   TIE  Gn3
 BYTE   W96
//  #04 //073   ----------------------------------------
 BYTE   W92
 BYTE   W03
 BYTE   EOT
 BYTE   Bn2  v062
 BYTE   Gn3
 BYTE   W01
//  #04 //074   ----------------------------------------
 BYTE   N05  Gn2  v080
 BYTE   N05  Bn2
 BYTE   N05  Dn3
 BYTE   W06
 BYTE   N68  Gn2
 BYTE   N68  Bn2
 BYTE   N68  En3
 BYTE   W90
//  #04 //075   ----------------------------------------
 BYTE   W24
 BYTE   N07  As2  v112
 BYTE   W08
 BYTE   N07
 BYTE   W08
 BYTE   N07
 BYTE   W08
 BYTE   N07
 BYTE   W08
 BYTE   N07
 BYTE   W08
 BYTE   N07
 BYTE   W08
 BYTE   N11  An2
 BYTE   W12
 BYTE   Gn2
 BYTE   W12
//  #04 //076   ----------------------------------------
 BYTE   W96
//  #04 //077   ----------------------------------------
 BYTE   W96
//  #04 //078   ----------------------------------------
 BYTE   N07  Bn3
 BYTE   W08
 BYTE   N07
 BYTE   W08
 BYTE   N07
 BYTE   W08
 BYTE   N07
 BYTE   W08
 BYTE   An3
 BYTE   W08
 BYTE   N07
 BYTE   W08
 BYTE   N05  Gn3
 BYTE   W06
 BYTE   N11  En3
 BYTE   W42
//  #04 //079   ----------------------------------------
 BYTE   W72
 BYTE   N05  En2
 BYTE   N05  An2
 BYTE   W06
 BYTE   N11  En2
 BYTE   N11  An2
 BYTE   W12
 BYTE   N05  Dn2
 BYTE   N05  Gn2
 BYTE   W06
//  #04 //080   ----------------------------------------
 BYTE   N23  Bn1
 BYTE   N23  En2
 BYTE   W96
//  #04 //081   ----------------------------------------
 BYTE   W96
//  #04 //082   ----------------------------------------
 BYTE   N05  Fs2  v096
 BYTE   N05  Bn2
 BYTE   W06
 BYTE   Fs2
 BYTE   N05  Bn2
 BYTE   W06
 BYTE   Fs2
 BYTE   N05  Bn2
 BYTE   W06
 BYTE   Fs2
 BYTE   N05  Bn2
 BYTE   W06
 BYTE   Fs2
 BYTE   N05  Bn2
 BYTE   W06
 BYTE   Fs2
 BYTE   N05  Bn2
 BYTE   W06
 BYTE   Fs2
 BYTE   N05  Bn2
 BYTE   W06
 BYTE   N05
 BYTE   N05  Dn3
 BYTE   W06
 BYTE   Bn2
 BYTE   N05  En3
 BYTE   W06
 BYTE   Bn2
 BYTE   N05  En3
 BYTE   W06
 BYTE   Bn2
 BYTE   N05  En3
 BYTE   W06
 BYTE   Bn2
 BYTE   N05  En3
 BYTE   W06
 BYTE   Bn2
 BYTE   N05  En3
 BYTE   W06
 BYTE   Bn2
 BYTE   N05  En3
 BYTE   W06
 BYTE   Gn2
 BYTE   N05  Bn2
 BYTE   W06
 BYTE   Gn2
 BYTE   N05  Dn3
 BYTE   W06
//  #04 //083   ----------------------------------------
 BYTE   Gn2
 BYTE   N05  Cn3
 BYTE   W06
 BYTE   Gn2
 BYTE   N05  Cn3
 BYTE   W06
 BYTE   Gn2
 BYTE   N05  Cn3
 BYTE   W06
 BYTE   Gn2
 BYTE   N05  Cn3
 BYTE   W06
 BYTE   Gn2
 BYTE   N05  Cn3
 BYTE   W06
 BYTE   Gn2
 BYTE   N05  Cn3
 BYTE   W06
 BYTE   Gn2
 BYTE   N05  Cn3
 BYTE   W06
 BYTE   Gn2
 BYTE   N05  Cn3
 BYTE   W06
 BYTE   N11  Gn2
 BYTE   N11  Bn2
 BYTE   W48
//  #04 //084   ----------------------------------------
 BYTE   W96
//  #04 //085   ----------------------------------------
 BYTE   N32  En4  v127
 BYTE   W36
 BYTE   N05  Dn4
 BYTE   W06
 BYTE   En4
 BYTE   W06
 BYTE   Cn4
 BYTE   W06
 BYTE   N40  An3
 BYTE   W42
//  #04 //086   ----------------------------------------
 BYTE   W96
//  #04 //087   ----------------------------------------
 BYTE   W96
//  #04 //088   ----------------------------------------
 BYTE   W96
//  #04 //089   ----------------------------------------
 BYTE   W96
//  #04 //090   ----------------------------------------
 BYTE   W96
//  #04 //091   ----------------------------------------
 BYTE   W96
//  #04 //092   ----------------------------------------
 BYTE   W96
//  #04 //093   ----------------------------------------
 BYTE   W96
//  #04 //094   ----------------------------------------
 BYTE   W96
//  #04 //095   ----------------------------------------
 BYTE   W96
//  #04 //096   ----------------------------------------
 BYTE   W96
//  #04 //097   ----------------------------------------
 BYTE   W96
//  #04 //098   ----------------------------------------
 BYTE   W96
//  #04 //099   ----------------------------------------
 BYTE   W96
//  #04 //100   ----------------------------------------
Label_0105A76E:
 BYTE   N02  Fn4  v127
 BYTE   W03
 BYTE   Dn4
 BYTE   W03
 BYTE   Fn4
 BYTE   W03
 BYTE   Dn4
 BYTE   W03
 BYTE   Fn4
 BYTE   W03
 BYTE   Dn4
 BYTE   W03
 BYTE   Fn4
 BYTE   W03
 BYTE   Dn4
 BYTE   W03
 BYTE   Fn4
 BYTE   W03
 BYTE   Dn4
 BYTE   W03
 BYTE   Fn4
 BYTE   W03
 BYTE   Dn4
 BYTE   W03
 BYTE   Fn4
 BYTE   W03
 BYTE   Dn4
 BYTE   W03
 BYTE   Fn4
 BYTE   W03
 BYTE   Dn4
 BYTE   W03
 BYTE   Fn4
 BYTE   W03
 BYTE   Dn4
 BYTE   W03
 BYTE   Fn4
 BYTE   W03
 BYTE   Dn4
 BYTE   W03
 BYTE   Fn4
 BYTE   W03
 BYTE   Dn4
 BYTE   W03
 BYTE   Fn4
 BYTE   W03
 BYTE   Dn4
 BYTE   W03
 BYTE   Fn4
 BYTE   W03
 BYTE   Dn4
 BYTE   W03
 BYTE   Fn4
 BYTE   W03
 BYTE   Dn4
 BYTE   W03
 BYTE   Fn4
 BYTE   W03
 BYTE   Dn4
 BYTE   W03
 BYTE   Fn4
 BYTE   W03
 BYTE   Dn4
 BYTE   W03
 BYTE   PEND 
//  #04 //101   ----------------------------------------
 BYTE   Fn4
 BYTE   W03
 BYTE   Dn4
 BYTE   W03
 BYTE   Fn4
 BYTE   W03
 BYTE   Dn4
 BYTE   W03
 BYTE   Fn4
 BYTE   W03
 BYTE   Dn4
 BYTE   W03
 BYTE   Fn4
 BYTE   W03
 BYTE   Dn4
 BYTE   W03
 BYTE   Fn4
 BYTE   W03
 BYTE   Dn4
 BYTE   W03
 BYTE   Fn4
 BYTE   W03
 BYTE   Dn4
 BYTE   W03
 BYTE   Fn4
 BYTE   W03
 BYTE   Dn4
 BYTE   W03
 BYTE   Fn4
 BYTE   W03
 BYTE   Dn4
 BYTE   W03
 BYTE   Gn4
 BYTE   W03
 BYTE   En4
 BYTE   W03
 BYTE   Gn4
 BYTE   W03
 BYTE   En4
 BYTE   W03
 BYTE   Gn4
 BYTE   W03
 BYTE   En4
 BYTE   W03
 BYTE   Gn4
 BYTE   W03
 BYTE   En4
 BYTE   W03
 BYTE   Gn4
 BYTE   W03
 BYTE   En4
 BYTE   W03
 BYTE   Gn4
 BYTE   W03
 BYTE   En4
 BYTE   W03
 BYTE   Gn4
 BYTE   W03
 BYTE   En4
 BYTE   W03
 BYTE   Gn4
 BYTE   W03
 BYTE   En4
 BYTE   W03
//  #04 //102   ----------------------------------------
 BYTE   PATT
  POIN2 Label_0105A76E
//  #04 //103   ----------------------------------------
 BYTE   W72
 BYTE   N07  An2  v127
 BYTE   N07  Cs3
 BYTE   W08
 BYTE   As2
 BYTE   N07  Dn3
 BYTE   W08
 BYTE   As2
 BYTE   N07  En3
 BYTE   W08
//  #04 //104   ----------------------------------------
 BYTE   N23  Cn3
 BYTE   N23  Fn3
 BYTE   W24
 BYTE   N07
 BYTE   N07  An3
 BYTE   W08
 BYTE   Cn3
 BYTE   N07  Gn3
 BYTE   W08
 BYTE   Fn3
 BYTE   W08
 BYTE   N11  Bn2
 BYTE   N11  En3
 BYTE   W12
 BYTE   Gs2
 BYTE   N11  Bn2
 BYTE   W12
 BYTE   N23  Gs1
 BYTE   N23  En2
 BYTE   W24
//  #04 //105   ----------------------------------------
 BYTE   N17  Bn2
 BYTE   N17  En3
 BYTE   W18
 BYTE   N11  Bn2
 BYTE   N11  Ds3
 BYTE   W12
 BYTE   N05  Bn2
 BYTE   N05  Ds3
 BYTE   W06
 BYTE   N11  An2
 BYTE   N11  Cs3
 BYTE   W12
 BYTE   Gn2
 BYTE   N11  Cn3
 BYTE   W12
 BYTE   N11
 BYTE   N11  En3
 BYTE   W12
 BYTE   N11
 BYTE   N11  Gn3
 BYTE   W12
 BYTE   N11
 BYTE   N11  As3
 BYTE   W12
//  #04 //106   ----------------------------------------
 BYTE   N30  En3
 BYTE   N30  An3
 BYTE   W32
 BYTE   N07  En3
 BYTE   N07  Gs3
 BYTE   W08
 BYTE   En3
 BYTE   N07  An3
 BYTE   W08
 BYTE   N23
 BYTE   N23  Cs4
 BYTE   W24
 BYTE   N07  An3
 BYTE   N07  Cs4
 BYTE   W08
 BYTE   Gs3
 BYTE   N07  Cn4
 BYTE   W08
 BYTE   An3
 BYTE   N07  Cs4
 BYTE   W08
//  #04 //107   ----------------------------------------
 BYTE   TIE  Cn4
 BYTE   TIE  Ds4
 BYTE   W96
//  #04 //108   ----------------------------------------
 BYTE   W92
 BYTE   W03
 BYTE   EOT
 BYTE   Cn4  v075
 BYTE   W01
//  #04 //109   ----------------------------------------
 BYTE   W96
//  #04 //110   ----------------------------------------
 BYTE   GoTo
  POIN2 Label_0105A256
 BYTE   FINE

//**************** Track 5 (Midi-Chn.4) ****************//

Biggering_005:
//  #05 //000   ----------------------------------------
 BYTE   KEYSH   Biggering_key+0
Label_0105A87A:
 BYTE   VOICE   28
 BYTE   VOL   37*Biggering_mvl/mxv
 BYTE   PAN   c_v+0
 BYTE   N32  Fn2  v064
 BYTE   W36
 BYTE   N32
 BYTE   W36
 BYTE   N23  En2
 BYTE   W24
//  #05 //001   ----------------------------------------
Label_0105A889:
 BYTE   N32  Fn2  v064
 BYTE   W36
 BYTE   N32
 BYTE   W36
 BYTE   N23  En2
 BYTE   W24
 BYTE   PEND 
//  #05 //002   ----------------------------------------
 BYTE   PATT
  POIN2 Label_0105A889
//  #05 //003   ----------------------------------------
 BYTE   PATT
  POIN2 Label_0105A889
//  #05 //004   ----------------------------------------
 BYTE   PATT
  POIN2 Label_0105A889
//  #05 //005   ----------------------------------------
Label_0105A8A2:
 BYTE   N32  Gn2  v064
 BYTE   W36
 BYTE   N32
 BYTE   W36
 BYTE   N23  Dn2
 BYTE   W24
 BYTE   PEND 
//  #05 //006   ----------------------------------------
Label_0105A8AC:
 BYTE   N32  En2  v064
 BYTE   W36
 BYTE   N32
 BYTE   W36
 BYTE   N23  Gn2
 BYTE   W24
 BYTE   PEND 
//  #05 //007   ----------------------------------------
Label_0105A8B6:
 BYTE   N44  Fn2  v064
 BYTE   W48
 BYTE   En2
 BYTE   W48
 BYTE   PEND 
//  #05 //008   ----------------------------------------
 BYTE   PATT
  POIN2 Label_0105A889
//  #05 //009   ----------------------------------------
 BYTE   PATT
  POIN2 Label_0105A8A2
//  #05 //010   ----------------------------------------
Label_0105A8C7:
 BYTE   N32  An2  v064
 BYTE   W36
 BYTE   N32
 BYTE   W36
 BYTE   N23  En2
 BYTE   W24
 BYTE   PEND 
//  #05 //011   ----------------------------------------
 BYTE   PATT
  POIN2 Label_0105A889
//  #05 //012   ----------------------------------------
 BYTE   PATT
  POIN2 Label_0105A889
//  #05 //013   ----------------------------------------
 BYTE   PATT
  POIN2 Label_0105A8A2
//  #05 //014   ----------------------------------------
 BYTE   PATT
  POIN2 Label_0105A8AC
//  #05 //015   ----------------------------------------
 BYTE   PATT
  POIN2 Label_0105A8B6
//  #05 //016   ----------------------------------------
 BYTE   PATT
  POIN2 Label_0105A8C7
//  #05 //017   ----------------------------------------
 BYTE   N32  Dn2  v064
 BYTE   W36
 BYTE   N32
 BYTE   W36
 BYTE   N23  An1
 BYTE   W24
//  #05 //018   ----------------------------------------
 BYTE   N32  As2
 BYTE   W36
 BYTE   As2  v072
 BYTE   W36
 BYTE   N23  As2  v076
 BYTE   W24
//  #05 //019   ----------------------------------------
 BYTE   N11  Fn2  v080
 BYTE   N11  An2
 BYTE   W96
//  #05 //020   ----------------------------------------
Label_0105A908:
 BYTE   N44  Gn3  v064
 BYTE   W48
 BYTE   N23
 BYTE   W24
 BYTE   Ds3
 BYTE   W24
 BYTE   PEND 
//  #05 //021   ----------------------------------------
 BYTE   N92  Gn3
 BYTE   W96
//  #05 //022   ----------------------------------------
 BYTE   N44
 BYTE   W48
 BYTE   N23
 BYTE   W24
 BYTE   Fn3
 BYTE   W24
//  #05 //023   ----------------------------------------
 BYTE   N44  Ds3
 BYTE   W48
 BYTE   N23  Dn3
 BYTE   W24
 BYTE   N23
 BYTE   W24
//  #05 //024   ----------------------------------------
 BYTE   PATT
  POIN2 Label_0105A908
//  #05 //025   ----------------------------------------
 BYTE   N32  As2  v064
 BYTE   W36
 BYTE   N11
 BYTE   W12
 BYTE   N23
 BYTE   W24
 BYTE   Dn3
 BYTE   W24
//  #05 //026   ----------------------------------------
 BYTE   N44  As2
 BYTE   W48
 BYTE   N23
 BYTE   W24
 BYTE   Ds3
 BYTE   W24
//  #05 //027   ----------------------------------------
 BYTE   N44
 BYTE   W48
 BYTE   N23  Dn3  v080
 BYTE   W24
 BYTE   Dn3  v088
 BYTE   W24
//  #05 //028   ----------------------------------------
 BYTE   N44  Ds3  v096
 BYTE   W48
 BYTE   N23
 BYTE   W24
 BYTE   Fn3
 BYTE   W24
//  #05 //029   ----------------------------------------
 BYTE   N44  Ds3
 BYTE   W48
 BYTE   N23
 BYTE   W24
 BYTE   N23
 BYTE   N23  Fn3
 BYTE   W24
//  #05 //030   ----------------------------------------
 BYTE   N44  Gn3
 BYTE   W48
 BYTE   N23
 BYTE   W24
 BYTE   Ds3
 BYTE   N23  Fn3
 BYTE   W24
//  #05 //031   ----------------------------------------
 BYTE   N44
 BYTE   W48
 BYTE   N23
 BYTE   W24
 BYTE   N23
 BYTE   W24
//  #05 //032   ----------------------------------------
 BYTE   N44  Gs3
 BYTE   W48
 BYTE   N44
 BYTE   W48
//  #05 //033   ----------------------------------------
 BYTE   Fn3
 BYTE   W48
 BYTE   N23
 BYTE   W24
 BYTE   Cn3
 BYTE   N23  Dn3
 BYTE   W24
//  #05 //034   ----------------------------------------
 BYTE   N44  Bn2
 BYTE   N44  Dn3
 BYTE   W48
 BYTE   N23  Bn2
 BYTE   N23  Dn3
 BYTE   W24
 BYTE   Bn2
 BYTE   N23  Dn3
 BYTE   W24
//  #05 //035   ----------------------------------------
 BYTE   N11  Bn2
 BYTE   N11  Dn3
 BYTE   W12
 BYTE   Bn2
 BYTE   N11  Dn3
 BYTE   W12
 BYTE   Bn2
 BYTE   N11  Dn3
 BYTE   W12
 BYTE   Bn2
 BYTE   N11  Dn3
 BYTE   W12
 BYTE   Bn2
 BYTE   N11  Dn3
 BYTE   W12
 BYTE   Bn2
 BYTE   N11  Dn3
 BYTE   W12
 BYTE   Bn2
 BYTE   N11  Dn3
 BYTE   W12
 BYTE   Bn2
 BYTE   N11  Dn3
 BYTE   W12
//  #05 //036   ----------------------------------------
 BYTE   Bn2
 BYTE   N11  Dn3
 BYTE   W12
 BYTE   Bn2  v100
 BYTE   N11  Dn3
 BYTE   W12
 BYTE   Bn2
 BYTE   N11  Dn3
 BYTE   W12
 BYTE   Bn2
 BYTE   N11  Dn3
 BYTE   W12
 BYTE   Bn2
 BYTE   N11  Dn3
 BYTE   W12
 BYTE   Bn2  v104
 BYTE   N11  Dn3
 BYTE   W12
 BYTE   Bn2
 BYTE   N11  Dn3
 BYTE   W12
 BYTE   Bn2
 BYTE   N11  Dn3
 BYTE   W12
//  #05 //037   ----------------------------------------
 BYTE   Cn3
 BYTE   W24
 BYTE   Cn3  v108
 BYTE   W24
 BYTE   N11
 BYTE   W24
 BYTE   Cn3  v112
 BYTE   W24
//  #05 //038   ----------------------------------------
 BYTE   N11
 BYTE   W24
 BYTE   Cn3  v100
 BYTE   W24
 BYTE   Cn3  v084
 BYTE   W24
 BYTE   Cn3  v068
 BYTE   W24
//  #05 //039   ----------------------------------------
Label_0105A9D4:
 BYTE   N11  Cn3  v052
 BYTE   W24
 BYTE   N11
 BYTE   W24
 BYTE   N11
 BYTE   W24
 BYTE   N11
 BYTE   W24
 BYTE   PEND 
//  #05 //040   ----------------------------------------
 BYTE   PATT
  POIN2 Label_0105A9D4
//  #05 //041   ----------------------------------------
 BYTE   N11  As2  v052
 BYTE   W24
 BYTE   N11
 BYTE   W24
 BYTE   N11
 BYTE   W24
 BYTE   N11
 BYTE   W24
//  #05 //042   ----------------------------------------
 BYTE   Cn3
 BYTE   W24
 BYTE   N11
 BYTE   W24
 BYTE   As2
 BYTE   W24
 BYTE   N11
 BYTE   W24
//  #05 //043   ----------------------------------------
 BYTE   PATT
  POIN2 Label_0105A9D4
//  #05 //044   ----------------------------------------
 BYTE   N11  Ds3  v052
 BYTE   W24
 BYTE   N11
 BYTE   W24
 BYTE   N11
 BYTE   W24
 BYTE   N11
 BYTE   W24
//  #05 //045   ----------------------------------------
 BYTE   Bn2
 BYTE   W24
 BYTE   N11
 BYTE   W24
 BYTE   N11
 BYTE   W24
 BYTE   N11
 BYTE   W24
//  #05 //046   ----------------------------------------
 BYTE   Cn3
 BYTE   W24
 BYTE   N11
 BYTE   W24
 BYTE   Cn3  v056
 BYTE   W24
 BYTE   Cn3  v060
 BYTE   W24
//  #05 //047   ----------------------------------------
Label_0105AA17:
 BYTE   N11  Cn3  v064
 BYTE   W24
 BYTE   N11
 BYTE   W24
 BYTE   N11
 BYTE   W24
 BYTE   N11
 BYTE   W24
 BYTE   PEND 
//  #05 //048   ----------------------------------------
 BYTE   PATT
  POIN2 Label_0105AA17
//  #05 //049   ----------------------------------------
 BYTE   N11  As2  v064
 BYTE   W24
 BYTE   N11
 BYTE   W24
 BYTE   N11
 BYTE   W24
 BYTE   N11
 BYTE   W24
//  #05 //050   ----------------------------------------
 BYTE   Cn3
 BYTE   W24
 BYTE   N11
 BYTE   W24
 BYTE   As2
 BYTE   W24
 BYTE   N11
 BYTE   W24
//  #05 //051   ----------------------------------------
 BYTE   Bn2
 BYTE   W24
 BYTE   N11
 BYTE   W24
 BYTE   N11
 BYTE   W24
 BYTE   N11
 BYTE   W24
//  #05 //052   ----------------------------------------
 BYTE   Dn3
 BYTE   W24
 BYTE   N11
 BYTE   W24
 BYTE   N11
 BYTE   W24
 BYTE   N11
 BYTE   W24
//  #05 //053   ----------------------------------------
 BYTE   Cn3
 BYTE   W24
 BYTE   Cn3  v068
 BYTE   W24
 BYTE   Cn3  v072
 BYTE   W24
 BYTE   Cn3  v076
 BYTE   W24
//  #05 //054   ----------------------------------------
 BYTE   As2  v080
 BYTE   W72
 BYTE   N32  Gs2  v096
 BYTE   N32  Cs3
 BYTE   W24
//  #05 //055   ----------------------------------------
Label_0105AA5D:
 BYTE   W12
 BYTE   N11  Gs2  v096
 BYTE   N11  Cs3
 BYTE   W24
 BYTE   N11
 BYTE   N11  Fn3
 BYTE   W12
 BYTE   N32  Gs2
 BYTE   N32  Cs3
 BYTE   W36
 BYTE   N11  Gs2
 BYTE   N11  Cs3
 BYTE   W12
 BYTE   PEND 
//  #05 //056   ----------------------------------------
Label_0105AA73:
 BYTE   W12
 BYTE   N11  Cs3  v096
 BYTE   N11  Fn3
 BYTE   W12
 BYTE   N32  Cn3
 BYTE   N32  Fn3
 BYTE   W36
 BYTE   N11  Cn3
 BYTE   N11  Fn3
 BYTE   W24
 BYTE   Cn3
 BYTE   N11  Fn3
 BYTE   W12
 BYTE   PEND 
//  #05 //057   ----------------------------------------
 BYTE   N32  Cn3
 BYTE   N32  Fn3
 BYTE   W36
 BYTE   N11  Cn3
 BYTE   N11  Fn3
 BYTE   W24
 BYTE   Cn3
 BYTE   N11  Fn3
 BYTE   W12
 BYTE   N32  Gs2
 BYTE   N32  Cs3
 BYTE   W24
//  #05 //058   ----------------------------------------
 BYTE   PATT
  POIN2 Label_0105AA5D
//  #05 //059   ----------------------------------------
 BYTE   PATT
  POIN2 Label_0105AA73
//  #05 //060   ----------------------------------------
 BYTE   N32  Cn3  v096
 BYTE   N32  Fn3
 BYTE   W36
 BYTE   N11  Cn3
 BYTE   N11  Fn3
 BYTE   W24
 BYTE   Cn3
 BYTE   N11  Fn3
 BYTE   W12
 BYTE   N32  Cs3
 BYTE   N32  Fs3
 BYTE   W24
//  #05 //061   ----------------------------------------
 BYTE   W12
 BYTE   N11  Cs3
 BYTE   N11  Fs3
 BYTE   W24
 BYTE   Cs3
 BYTE   N11  Fn3
 BYTE   W12
 BYTE   N32  As2
 BYTE   N32  Ds3
 BYTE   W36
 BYTE   N11  As2
 BYTE   N11  Ds3
 BYTE   W12
//  #05 //062   ----------------------------------------
 BYTE   W12
 BYTE   As2
 BYTE   N11  Ds3
 BYTE   W12
 BYTE   N32  As2
 BYTE   N32  Cs3
 BYTE   W36
 BYTE   N11  As2
 BYTE   N11  Cs3
 BYTE   W24
 BYTE   Cn3
 BYTE   N11  Ds3
 BYTE   W12
//  #05 //063   ----------------------------------------
 BYTE   N32  Gs2
 BYTE   N32  Cn3
 BYTE   W36
 BYTE   N11  Gs2
 BYTE   N11  Cn3
 BYTE   W24
 BYTE   Gs2
 BYTE   N11  Cn3
 BYTE   W12
 BYTE   N32  As2
 BYTE   N32  Cs3
 BYTE   W24
//  #05 //064   ----------------------------------------
 BYTE   W12
 BYTE   N11  As2
 BYTE   N11  Cs3
 BYTE   W24
 BYTE   Cn3
 BYTE   N11  Ds3
 BYTE   W12
 BYTE   N32  As2
 BYTE   N32  Ds3
 BYTE   W36
 BYTE   N11  As2
 BYTE   N11  Ds3
 BYTE   W12
//  #05 //065   ----------------------------------------
 BYTE   W12
 BYTE   As2
 BYTE   N11  Ds3
 BYTE   W12
 BYTE   N32  Cn3
 BYTE   N32  Fn3
 BYTE   W36
 BYTE   N11  Cn3
 BYTE   N11  Fn3
 BYTE   W24
 BYTE   N80  Cn3
 BYTE   N80  Fn3
 BYTE   W12
//  #05 //066   ----------------------------------------
 BYTE   W72
 BYTE   N32  En2  v080
 BYTE   N32  An2
 BYTE   W24
//  #05 //067   ----------------------------------------
Label_0105AB23:
 BYTE   W12
 BYTE   N11  En2  v080
 BYTE   N11  An2
 BYTE   W24
 BYTE   En2
 BYTE   N11  An2
 BYTE   W12
 BYTE   N32  En2
 BYTE   N32  An2
 BYTE   W36
 BYTE   N11  En2
 BYTE   N11  An2
 BYTE   W12
 BYTE   PEND 
//  #05 //068   ----------------------------------------
Label_0105AB39:
 BYTE   W12
 BYTE   N11  En2  v080
 BYTE   N11  An2
 BYTE   W12
 BYTE   N32  Ds2
 BYTE   N32  Cn3
 BYTE   W36
 BYTE   Cn2
 BYTE   N32  Gs2
 BYTE   W36
 BYTE   PEND 
//  #05 //069   ----------------------------------------
 BYTE   N17
 BYTE   N17  Cn3
 BYTE   W18
 BYTE   Gs2
 BYTE   N17  Cn3
 BYTE   W18
 BYTE   Gs2
 BYTE   N17  Cn3
 BYTE   W18
 BYTE   Gs2
 BYTE   N17  Cn3
 BYTE   W18
 BYTE   N32  En2
 BYTE   N32  An2
 BYTE   W24
//  #05 //070   ----------------------------------------
 BYTE   PATT
  POIN2 Label_0105AB23
//  #05 //071   ----------------------------------------
 BYTE   PATT
  POIN2 Label_0105AB39
//  #05 //072   ----------------------------------------
 BYTE   N92  Gn2  v080
 BYTE   W96
//  #05 //073   ----------------------------------------
 BYTE   N02  En2  v112
 BYTE   W03
 BYTE   Dn2
 BYTE   W03
 BYTE   En2
 BYTE   W03
 BYTE   Dn2
 BYTE   W03
 BYTE   En2  v116
 BYTE   W03
 BYTE   Dn2
 BYTE   W03
 BYTE   En2
 BYTE   W03
 BYTE   Dn2
 BYTE   W03
 BYTE   En2
 BYTE   W03
 BYTE   Dn2
 BYTE   W03
 BYTE   En2
 BYTE   W03
 BYTE   Dn2
 BYTE   W03
 BYTE   En2  v120
 BYTE   W03
 BYTE   Dn2
 BYTE   W03
 BYTE   En2
 BYTE   W03
 BYTE   Dn2
 BYTE   W03
 BYTE   En2
 BYTE   W03
 BYTE   Dn2
 BYTE   W03
 BYTE   En2
 BYTE   W03
 BYTE   Dn2
 BYTE   W03
 BYTE   En2  v124
 BYTE   W03
 BYTE   Dn2
 BYTE   W03
 BYTE   En2
 BYTE   W03
 BYTE   Dn2
 BYTE   W03
 BYTE   En2
 BYTE   W03
 BYTE   Dn2
 BYTE   W03
 BYTE   En2
 BYTE   W03
 BYTE   Dn2
 BYTE   W03
 BYTE   En2  v127
 BYTE   W03
 BYTE   Dn2
 BYTE   W03
 BYTE   En2
 BYTE   W03
 BYTE   Dn2
 BYTE   W03
//  #05 //074   ----------------------------------------
Label_0105ABB3:
 BYTE   N32  Bn1  v080
 BYTE   N32  En2
 BYTE   W36
 BYTE   N05  Dn2
 BYTE   W06
 BYTE   N28  Bn1
 BYTE   N28  En2
 BYTE   W30
 BYTE   N11
 BYTE   N11  Bn2
 BYTE   W12
 BYTE   En2
 BYTE   N11  Bn2
 BYTE   W12
 BYTE   PEND 
//  #05 //075   ----------------------------------------
Label_0105ABCA:
 BYTE   N32  Bn1  v080
 BYTE   N32  En2
 BYTE   W36
 BYTE   N05  Dn2
 BYTE   W06
 BYTE   N28  Bn1
 BYTE   N28  En2
 BYTE   W30
 BYTE   N11
 BYTE   N11  An2
 BYTE   W12
 BYTE   Dn2
 BYTE   N11  Gn2
 BYTE   W12
 BYTE   PEND 
//  #05 //076   ----------------------------------------
 BYTE   PATT
  POIN2 Label_0105ABCA
//  #05 //077   ----------------------------------------
 BYTE   PATT
  POIN2 Label_0105ABB3
//  #05 //078   ----------------------------------------
 BYTE   PATT
  POIN2 Label_0105ABCA
//  #05 //079   ----------------------------------------
Label_0105ABF0:
 BYTE   N32  Bn1  v080
 BYTE   N32  Ds2
 BYTE   W36
 BYTE   N05  Dn2
 BYTE   W06
 BYTE   N28  Bn1
 BYTE   N28  En2
 BYTE   W30
 BYTE   N11
 BYTE   N11  An2
 BYTE   W12
 BYTE   Dn2
 BYTE   N11  Gn2
 BYTE   W12
 BYTE   PEND 
//  #05 //080   ----------------------------------------
 BYTE   PATT
  POIN2 Label_0105ABCA
//  #05 //081   ----------------------------------------
 BYTE   PATT
  POIN2 Label_0105ABCA
//  #05 //082   ----------------------------------------
 BYTE   PATT
  POIN2 Label_0105ABF0
//  #05 //083   ----------------------------------------
 BYTE   N23  Gn2  v080
 BYTE   N23  Cn3
 BYTE   W24
 BYTE   Gn2
 BYTE   N23  Cn3
 BYTE   W24
 BYTE   N11  Gn2
 BYTE   N11  Bn2
 BYTE   W48
//  #05 //084   ----------------------------------------
Label_0105AC25:
 BYTE   N32  An1  v127
 BYTE   N32  Cn2
 BYTE   N32  Fn2
 BYTE   W36
 BYTE   N11  Cn2
 BYTE   N11  Fn2
 BYTE   N11  Gn2
 BYTE   W12
 BYTE   N17  An1
 BYTE   N17  Cn2
 BYTE   N17  Fn2
 BYTE   W18
 BYTE   N05  Cn2
 BYTE   N05  Fn2
 BYTE   N05  Gn2
 BYTE   W06
 BYTE   N11  An1
 BYTE   N11  Cn2
 BYTE   N11  Fn2
 BYTE   W12
 BYTE   Bn1
 BYTE   N11  Dn2
 BYTE   N11  Gn2
 BYTE   W12
 BYTE   PEND 
//  #05 //085   ----------------------------------------
Label_0105AC50:
 BYTE   N17  Cn2  v127
 BYTE   N17  En2
 BYTE   N17  An2
 BYTE   W18
 BYTE   N05  Cn2
 BYTE   N05  En2
 BYTE   N05  An2
 BYTE   W06
 BYTE   N11  Cn2
 BYTE   N11  En2
 BYTE   N11  An2
 BYTE   W12
 BYTE   Bn1
 BYTE   N11  Dn2
 BYTE   N11  Gn2
 BYTE   W12
 BYTE   N17  Cn2
 BYTE   N17  En2
 BYTE   N17  An2
 BYTE   W18
 BYTE   N05  Cn2
 BYTE   N05  En2
 BYTE   N05  An2
 BYTE   W06
 BYTE   N11  Bn1
 BYTE   N11  Dn2
 BYTE   N11  Gn2
 BYTE   W12
 BYTE   Bn1
 BYTE   N11  Dn2
 BYTE   N11  Gn2
 BYTE   W12
 BYTE   PEND 
//  #05 //086   ----------------------------------------
 BYTE   PATT
  POIN2 Label_0105AC25
//  #05 //087   ----------------------------------------
 BYTE   PATT
  POIN2 Label_0105AC50
//  #05 //088   ----------------------------------------
Label_0105AC92:
 BYTE   N05  Dn2  v127
 BYTE   N05  Gn2
 BYTE   N05  As2
 BYTE   W06
 BYTE   Dn2
 BYTE   N05  Gn2
 BYTE   N05  As2
 BYTE   W06
 BYTE   Dn2
 BYTE   N05  Gn2
 BYTE   N05  As2
 BYTE   W06
 BYTE   Dn2
 BYTE   N05  Gn2
 BYTE   N05  As2
 BYTE   W06
 BYTE   Dn2
 BYTE   N05  Gn2
 BYTE   N05  As2
 BYTE   W06
 BYTE   Dn2
 BYTE   N05  Gn2
 BYTE   N05  As2
 BYTE   W06
 BYTE   Dn2
 BYTE   N05  Gn2
 BYTE   N05  As2
 BYTE   W06
 BYTE   Dn2
 BYTE   N05  Gn2
 BYTE   N05  As2
 BYTE   W06
 BYTE   As1
 BYTE   N05  Dn2
 BYTE   N05  Gn2
 BYTE   W06
 BYTE   As1
 BYTE   N05  Dn2
 BYTE   N05  Gn2
 BYTE   W06
 BYTE   As1
 BYTE   N05  Dn2
 BYTE   N05  Gn2
 BYTE   W06
 BYTE   As1
 BYTE   N05  Dn2
 BYTE   N05  Gn2
 BYTE   W06
 BYTE   As1
 BYTE   N05  Dn2
 BYTE   N05  Gn2
 BYTE   W06
 BYTE   As1
 BYTE   N05  Dn2
 BYTE   N05  Gn2
 BYTE   W06
 BYTE   As1
 BYTE   N05  Dn2
 BYTE   N05  Gn2
 BYTE   W06
 BYTE   As1
 BYTE   N05  Dn2
 BYTE   N05  Gn2
 BYTE   W06
 BYTE   PEND 
//  #05 //089   ----------------------------------------
Label_0105ACF5:
 BYTE   N05  Gn2  v127
 BYTE   N05  As2
 BYTE   N05  Dn3
 BYTE   W06
 BYTE   Gn2
 BYTE   N05  As2
 BYTE   N05  Dn3
 BYTE   W06
 BYTE   Gn2
 BYTE   N05  As2
 BYTE   N05  Dn3
 BYTE   W06
 BYTE   Gn2
 BYTE   N05  As2
 BYTE   N05  Dn3
 BYTE   W06
 BYTE   Gn2
 BYTE   N05  As2
 BYTE   N05  Dn3
 BYTE   W06
 BYTE   Gn2
 BYTE   N05  As2
 BYTE   N05  Dn3
 BYTE   W06
 BYTE   Gn2
 BYTE   N05  As2
 BYTE   N05  Dn3
 BYTE   W06
 BYTE   Gn2
 BYTE   N05  As2
 BYTE   N05  Dn3
 BYTE   W06
 BYTE   En2
 BYTE   N05  Gn2
 BYTE   N05  Cn3
 BYTE   W06
 BYTE   En2
 BYTE   N05  Gn2
 BYTE   N05  Cn3
 BYTE   W06
 BYTE   En2
 BYTE   N05  Gn2
 BYTE   N05  Cn3
 BYTE   W06
 BYTE   En2
 BYTE   N05  Gn2
 BYTE   N05  Cn3
 BYTE   W06
 BYTE   En2
 BYTE   N05  Gn2
 BYTE   N05  Cn3
 BYTE   W06
 BYTE   En2
 BYTE   N05  Gn2
 BYTE   N05  Cn3
 BYTE   W06
 BYTE   En2
 BYTE   N05  Gn2
 BYTE   N05  Cn3
 BYTE   W06
 BYTE   En2
 BYTE   N05  Gn2
 BYTE   N05  Cn3
 BYTE   W06
 BYTE   PEND 
//  #05 //090   ----------------------------------------
 BYTE   PATT
  POIN2 Label_0105AC92
//  #05 //091   ----------------------------------------
Label_0105AD5D:
 BYTE   N05  Gn2  v127
 BYTE   N05  As2
 BYTE   N05  Dn3
 BYTE   W06
 BYTE   Gn2
 BYTE   N05  As2
 BYTE   N05  Dn3
 BYTE   W06
 BYTE   Gn2
 BYTE   N05  As2
 BYTE   N05  Dn3
 BYTE   W06
 BYTE   Gn2
 BYTE   N05  As2
 BYTE   N05  Dn3
 BYTE   W06
 BYTE   Gn2
 BYTE   N05  As2
 BYTE   N05  Dn3
 BYTE   W06
 BYTE   Gn2
 BYTE   N05  As2
 BYTE   N05  Dn3
 BYTE   W06
 BYTE   Gn2
 BYTE   N05  As2
 BYTE   N05  Dn3
 BYTE   W06
 BYTE   Gn2
 BYTE   N05  As2
 BYTE   N05  Dn3
 BYTE   W06
 BYTE   En2
 BYTE   N05  Gs2
 BYTE   N05  Cn3
 BYTE   W06
 BYTE   En2
 BYTE   N05  Gs2
 BYTE   N05  Cn3
 BYTE   W06
 BYTE   En2
 BYTE   N05  Gs2
 BYTE   N05  Cn3
 BYTE   W06
 BYTE   En2
 BYTE   N05  Gs2
 BYTE   N05  Cn3
 BYTE   W06
 BYTE   En2
 BYTE   N05  Gs2
 BYTE   N05  Cn3
 BYTE   W06
 BYTE   En2
 BYTE   N05  Gs2
 BYTE   N05  Cn3
 BYTE   W06
 BYTE   En2
 BYTE   N05  Gs2
 BYTE   N05  Cn3
 BYTE   W06
 BYTE   En2
 BYTE   N05  Gs2
 BYTE   N05  Cn3
 BYTE   W06
 BYTE   PEND 
//  #05 //092   ----------------------------------------
 BYTE   PATT
  POIN2 Label_0105AC92
//  #05 //093   ----------------------------------------
 BYTE   PATT
  POIN2 Label_0105ACF5
//  #05 //094   ----------------------------------------
 BYTE   PATT
  POIN2 Label_0105AC92
//  #05 //095   ----------------------------------------
 BYTE   PATT
  POIN2 Label_0105AD5D
//  #05 //096   ----------------------------------------
Label_0105ADD4:
 BYTE   N11  Dn2  v127
 BYTE   N11  Gn2
 BYTE   N11  As2
 BYTE   W12
 BYTE   Dn2
 BYTE   N11  Gn2
 BYTE   N11  As2
 BYTE   W12
 BYTE   Dn2
 BYTE   N11  Gn2
 BYTE   N11  As2
 BYTE   W12
 BYTE   Dn2
 BYTE   N11  Gn2
 BYTE   N11  As2
 BYTE   W12
 BYTE   As1
 BYTE   N11  Dn2
 BYTE   N11  Gn2
 BYTE   W12
 BYTE   As1
 BYTE   N11  Dn2
 BYTE   N11  Gn2
 BYTE   W12
 BYTE   As1
 BYTE   N11  Dn2
 BYTE   N11  Gn2
 BYTE   W12
 BYTE   As1
 BYTE   N11  Dn2
 BYTE   N11  Gn2
 BYTE   W12
 BYTE   PEND 
//  #05 //097   ----------------------------------------
Label_0105AE07:
 BYTE   N11  Gn2  v127
 BYTE   N11  As2
 BYTE   N11  Dn3
 BYTE   W12
 BYTE   Gn2
 BYTE   N11  As2
 BYTE   N11  Dn3
 BYTE   W12
 BYTE   Gn2
 BYTE   N11  As2
 BYTE   N11  Dn3
 BYTE   W12
 BYTE   Gn2
 BYTE   N11  As2
 BYTE   N11  Dn3
 BYTE   W12
 BYTE   En2
 BYTE   N11  Gn2
 BYTE   N11  Cn3
 BYTE   W12
 BYTE   En2
 BYTE   N11  Gn2
 BYTE   N11  Cn3
 BYTE   W12
 BYTE   En2
 BYTE   N11  Gn2
 BYTE   N11  Cn3
 BYTE   W12
 BYTE   En2
 BYTE   N11  Gn2
 BYTE   N11  Cn3
 BYTE   W12
 BYTE   PEND 
//  #05 //098   ----------------------------------------
 BYTE   PATT
  POIN2 Label_0105ADD4
//  #05 //099   ----------------------------------------
 BYTE   N11  Gn2  v127
 BYTE   N11  As2
 BYTE   N11  Dn3
 BYTE   W12
 BYTE   Gn2
 BYTE   N11  As2
 BYTE   N11  Dn3
 BYTE   W12
 BYTE   Gn2
 BYTE   N11  As2
 BYTE   N11  Dn3
 BYTE   W12
 BYTE   Gn2
 BYTE   N11  As2
 BYTE   N11  Dn3
 BYTE   W12
 BYTE   En2
 BYTE   N11  Gs2
 BYTE   N11  Cn3
 BYTE   W12
 BYTE   En2
 BYTE   N11  Gs2
 BYTE   N11  Cn3
 BYTE   W12
 BYTE   En2
 BYTE   N11  Gs2
 BYTE   N11  Cn3
 BYTE   W12
 BYTE   En2
 BYTE   N11  Gs2
 BYTE   N11  Cn3
 BYTE   W12
//  #05 //100   ----------------------------------------
 BYTE   PATT
  POIN2 Label_0105ADD4
//  #05 //101   ----------------------------------------
 BYTE   PATT
  POIN2 Label_0105AE07
//  #05 //102   ----------------------------------------
 BYTE   PATT
  POIN2 Label_0105ADD4
//  #05 //103   ----------------------------------------
 BYTE   N11  Gn2  v127
 BYTE   N11  As2
 BYTE   N11  Dn3
 BYTE   W12
 BYTE   Gn2
 BYTE   N11  As2
 BYTE   N11  Dn3
 BYTE   W12
 BYTE   Gn2
 BYTE   N11  As2
 BYTE   N11  Dn3
 BYTE   W12
 BYTE   Gn2
 BYTE   N11  As2
 BYTE   N11  Dn3
 BYTE   W12
 BYTE   En2
 BYTE   N11  An2
 BYTE   N11  Cs3
 BYTE   W12
 BYTE   En2
 BYTE   N11  An2
 BYTE   N11  Cs3
 BYTE   W12
 BYTE   En2
 BYTE   N11  An2
 BYTE   N11  Cs3
 BYTE   W12
 BYTE   En2
 BYTE   N11  An2
 BYTE   N11  Cs3
 BYTE   W12
//  #05 //104   ----------------------------------------
 BYTE   N32  Gs2
 BYTE   N32  Cn3
 BYTE   N32  Fn3
 BYTE   W36
 BYTE   N11  Gs2
 BYTE   N11  Cn3
 BYTE   N11  Fn3
 BYTE   W12
 BYTE   Gs2
 BYTE   N11  Bn2
 BYTE   N11  En3
 BYTE   W12
 BYTE   Gs2
 BYTE   N11  Bn2
 BYTE   N11  En3
 BYTE   W12
 BYTE   Gs2
 BYTE   N11  Bn2
 BYTE   N11  En3
 BYTE   W12
 BYTE   Gs2
 BYTE   N11  Bn2
 BYTE   N11  En3
 BYTE   W12
//  #05 //105   ----------------------------------------
 BYTE   N17  En2
 BYTE   N17  Bn2
 BYTE   N17  Cs3
 BYTE   W18
 BYTE   En2
 BYTE   N17  Bn2
 BYTE   N17  Cs3
 BYTE   W18
 BYTE   N11  En2
 BYTE   N11  Bn2
 BYTE   N11  Cs3
 BYTE   W12
 BYTE   En2
 BYTE   N11  Gn2
 BYTE   N11  Cn3
 BYTE   W12
 BYTE   En2
 BYTE   N11  Gn2
 BYTE   N11  Cn3
 BYTE   W12
 BYTE   En2
 BYTE   N11  Gn2
 BYTE   N11  Cn3
 BYTE   W12
 BYTE   En2
 BYTE   N11  Gn2
 BYTE   N11  Cn3
 BYTE   W12
//  #05 //106   ----------------------------------------
 BYTE   N23  Cn2
 BYTE   N23  En2
 BYTE   N23  An2
 BYTE   W24
 BYTE   N07  Cn2
 BYTE   N07  En2
 BYTE   N07  An2
 BYTE   W08
 BYTE   Cn2
 BYTE   N07  En2
 BYTE   N07  An2
 BYTE   W08
 BYTE   Cn2
 BYTE   N07  En2
 BYTE   N07  An2
 BYTE   W08
 BYTE   N23  Cs2
 BYTE   N23  Fs2
 BYTE   N23  An2
 BYTE   W24
 BYTE   N07  Cs2
 BYTE   N07  Fs2
 BYTE   N07  An2
 BYTE   W08
 BYTE   Cs2
 BYTE   N07  Fs2
 BYTE   N07  An2
 BYTE   W08
 BYTE   Cs2
 BYTE   N07  Fs2
 BYTE   N07  An2
 BYTE   W08
//  #05 //107   ----------------------------------------
 BYTE   TIE  Ds2
 BYTE   TIE  Gs2
 BYTE   TIE  Cn3
 BYTE   W96
//  #05 //108   ----------------------------------------
 BYTE   W92
 BYTE   W03
 BYTE   EOT
 BYTE   Ds2  v056
 BYTE   Cn3
 BYTE   W01
//  #05 //109   ----------------------------------------
 BYTE   W96
//  #05 //110   ----------------------------------------
 BYTE   GoTo
  POIN2 Label_0105A87A
 BYTE   FINE

//**************** Track 6 (Midi-Chn.5) ****************//

Biggering_006:
//  #06 //000   ----------------------------------------
 BYTE   KEYSH   Biggering_key+0
Label_0105AF52:
 BYTE   VOICE   124
 BYTE   VOL   37*Biggering_mvl/mxv
 BYTE   PAN   c_v+0
 BYTE   VOL   37*Biggering_mvl/mxv
 BYTE   PAN   c_v+0
 BYTE   W96
//  #06 //001   ----------------------------------------
 BYTE   W96
//  #06 //002   ----------------------------------------
 BYTE   W96
//  #06 //003   ----------------------------------------
 BYTE   W96
//  #06 //004   ----------------------------------------
 BYTE   W96
//  #06 //005   ----------------------------------------
 BYTE   W96
//  #06 //006   ----------------------------------------
 BYTE   W96
//  #06 //007   ----------------------------------------
 BYTE   W96
//  #06 //008   ----------------------------------------
 BYTE   W96
//  #06 //009   ----------------------------------------
 BYTE   W96
//  #06 //010   ----------------------------------------
 BYTE   W96
//  #06 //011   ----------------------------------------
 BYTE   W96
//  #06 //012   ----------------------------------------
Label_0105AF68:
 BYTE   N24  Bn0  v052
 BYTE   W24
 BYTE   N24
 BYTE   W24
 BYTE   N24
 BYTE   W24
 BYTE   N24
 BYTE   W24
 BYTE   PEND 
//  #06 //013   ----------------------------------------
 BYTE   PATT
  POIN2 Label_0105AF68
//  #06 //014   ----------------------------------------
 BYTE   N24  Bn0  v052
 BYTE   W24
 BYTE   N24
 BYTE   W24
 BYTE   Bn0  v056
 BYTE   W24
 BYTE   N24
 BYTE   W24
//  #06 //015   ----------------------------------------
 BYTE   Bn0  v060
 BYTE   W24
 BYTE   N24
 BYTE   W24
 BYTE   Bn0  v064
 BYTE   W24
 BYTE   N24
 BYTE   W24
//  #06 //016   ----------------------------------------
 BYTE   N24
 BYTE   W24
 BYTE   Bn0  v068
 BYTE   W24
 BYTE   Bn0  v072
 BYTE   W24
 BYTE   N24
 BYTE   W24
//  #06 //017   ----------------------------------------
 BYTE   Bn0  v076
 BYTE   W24
 BYTE   Bn0  v080
 BYTE   W24
 BYTE   N24
 BYTE   W24
 BYTE   Bn0  v084
 BYTE   W24
//  #06 //018   ----------------------------------------
 BYTE   Bn0  v088
 BYTE   W24
 BYTE   N24
 BYTE   W24
 BYTE   Bn0  v092
 BYTE   W24
 BYTE   TIE  Bn0  v096
 BYTE   W24
//  #06 //019   ----------------------------------------
 BYTE   Dn1
 BYTE   W96
//  #06 //020   ----------------------------------------
 BYTE   EOT
 BYTE   Bn0
 BYTE   N48  Bn0  v064
 BYTE   W24
 BYTE   EOT
 BYTE   Dn1
 BYTE   N48
 BYTE   W24
 BYTE   Bn0
 BYTE   W24
 BYTE   Dn1
 BYTE   N48  Fs1  v052
 BYTE   W24
//  #06 //021   ----------------------------------------
Label_0105AFC1:
 BYTE   N48  Bn0  v064
 BYTE   W24
 BYTE   N12  Dn1
 BYTE   N48  Fs1  v052
 BYTE   W12
 BYTE   N12  Dn1  v064
 BYTE   W12
 BYTE   N48  Bn0
 BYTE   N24  Dn1
 BYTE   W24
 BYTE   N48
 BYTE   N96  Fs1  v052
 BYTE   W24
 BYTE   PEND 
//  #06 //022   ----------------------------------------
Label_0105AFDA:
 BYTE   N48  Bn0  v064
 BYTE   W24
 BYTE   Dn1
 BYTE   W24
 BYTE   Bn0
 BYTE   W24
 BYTE   Dn1
 BYTE   N48  Fs1  v052
 BYTE   W24
 BYTE   PEND 
//  #06 //023   ----------------------------------------
 BYTE   PATT
  POIN2 Label_0105AFC1
//  #06 //024   ----------------------------------------
 BYTE   PATT
  POIN2 Label_0105AFDA
//  #06 //025   ----------------------------------------
 BYTE   PATT
  POIN2 Label_0105AFC1
//  #06 //026   ----------------------------------------
 BYTE   N48  Bn0  v064
 BYTE   W24
 BYTE   Dn1  v068
 BYTE   W24
 BYTE   Bn0
 BYTE   W24
 BYTE   Dn1  v072
 BYTE   N48  Fs1  v052
 BYTE   W24
//  #06 //027   ----------------------------------------
 BYTE   Bn0  v076
 BYTE   W24
 BYTE   N12  Dn1
 BYTE   N48  Fs1  v056
 BYTE   W12
 BYTE   N12  Dn1  v080
 BYTE   W12
 BYTE   N48  Bn0
 BYTE   N24  Dn1
 BYTE   W12
 BYTE   N12  An1
 BYTE   W12
 BYTE   N48  Dn1
 BYTE   N96  Fs1  v064
 BYTE   TIE  An1  v080
 BYTE   W24
//  #06 //028   ----------------------------------------
Label_0105B024:
 BYTE   N48  Bn0  v080
 BYTE   W24
 BYTE   Dn1
 BYTE   W24
 BYTE   Bn0
 BYTE   W24
 BYTE   Dn1
 BYTE   N48  Fs1  v064
 BYTE   W24
 BYTE   PEND 
//  #06 //029   ----------------------------------------
Label_0105B032:
 BYTE   N48  Bn0  v080
 BYTE   W24
 BYTE   N12  Dn1
 BYTE   N48  Fs1  v064
 BYTE   W12
 BYTE   N12  Dn1  v080
 BYTE   W12
 BYTE   N48  Bn0
 BYTE   N24  Dn1
 BYTE   W24
 BYTE   N48
 BYTE   N96  Fs1  v064
 BYTE   W24
 BYTE   PEND 
//  #06 //030   ----------------------------------------
 BYTE   PATT
  POIN2 Label_0105B024
//  #06 //031   ----------------------------------------
 BYTE   N48  Bn0  v080
 BYTE   W24
 BYTE   N12  Dn1
 BYTE   N48  Fs1  v064
 BYTE   W12
 BYTE   N12  Dn1  v080
 BYTE   W12
 BYTE   N48  Bn0
 BYTE   N24  Dn1
 BYTE   W12
 BYTE   EOT
 BYTE   An1
 BYTE   N12
 BYTE   W12
 BYTE   N48  Dn1
 BYTE   N96  Fs1  v064
 BYTE   TIE  An1  v080
 BYTE   W24
//  #06 //032   ----------------------------------------
 BYTE   PATT
  POIN2 Label_0105B024
//  #06 //033   ----------------------------------------
 BYTE   PATT
  POIN2 Label_0105B032
//  #06 //034   ----------------------------------------
 BYTE   PATT
  POIN2 Label_0105B024
//  #06 //035   ----------------------------------------
 BYTE   N48  Bn0  v080
 BYTE   W24
 BYTE   N12  Dn1
 BYTE   N48  Fs1  v064
 BYTE   W12
 BYTE   N12  Dn1  v080
 BYTE   W12
 BYTE   TIE  Bn0
 BYTE   N24  Dn1
 BYTE   W24
 BYTE   N24
 BYTE   W24
//  #06 //036   ----------------------------------------
 BYTE   Cn1
 BYTE   N24  Dn1
 BYTE   N24  Cs2
 BYTE   W24
 BYTE   Cn1  v084
 BYTE   N24  Dn1
 BYTE   N24  Cs2
 BYTE   W24
 BYTE   Cn1  v088
 BYTE   N24  Dn1
 BYTE   N24  Cs2
 BYTE   W24
 BYTE   Cn1  v092
 BYTE   N24  Dn1
 BYTE   N24  Cs2
 BYTE   W24
//  #06 //037   ----------------------------------------
 BYTE   Cn1  v096
 BYTE   N12  Dn1
 BYTE   TIE  Cs2
 BYTE   W12
 BYTE   N12  Dn1
 BYTE   W12
 BYTE   N24  Cn1
 BYTE   N12  Dn1
 BYTE   W12
 BYTE   N12
 BYTE   W12
 BYTE   N24  Cn1
 BYTE   N12  Dn1
 BYTE   W12
 BYTE   N12
 BYTE   W12
 BYTE   N24  Cn1
 BYTE   N12  Dn1
 BYTE   W12
 BYTE   N12
 BYTE   W12
//  #06 //038   ----------------------------------------
 BYTE   N24  Cn1
 BYTE   N12  Dn1
 BYTE   W12
 BYTE   Dn1  v092
 BYTE   W12
 BYTE   N24  Cn1  v088
 BYTE   N12  Dn1
 BYTE   W12
 BYTE   Dn1  v080
 BYTE   W12
 BYTE   N24  Cn1  v076
 BYTE   N12  Dn1
 BYTE   W12
 BYTE   Dn1  v068
 BYTE   W12
 BYTE   N24  Cn1  v064
 BYTE   N12  Dn1
 BYTE   W12
 BYTE   Dn1  v056
 BYTE   W12
//  #06 //039   ----------------------------------------
Label_0105B0F1:
 BYTE   N24  Cn1  v052
 BYTE   N12  Dn1
 BYTE   W12
 BYTE   N12
 BYTE   W12
 BYTE   N24  Cn1
 BYTE   N12  Dn1
 BYTE   W12
 BYTE   N12
 BYTE   W12
 BYTE   N24  Cn1
 BYTE   N12  Dn1
 BYTE   W12
 BYTE   N12
 BYTE   W12
 BYTE   N24  Cn1
 BYTE   N12  Dn1
 BYTE   W12
 BYTE   N12
 BYTE   W12
 BYTE   PEND 
//  #06 //040   ----------------------------------------
 BYTE   PATT
  POIN2 Label_0105B0F1
//  #06 //041   ----------------------------------------
 BYTE   PATT
  POIN2 Label_0105B0F1
//  #06 //042   ----------------------------------------
 BYTE   PATT
  POIN2 Label_0105B0F1
//  #06 //043   ----------------------------------------
 BYTE   PATT
  POIN2 Label_0105B0F1
//  #06 //044   ----------------------------------------
 BYTE   PATT
  POIN2 Label_0105B0F1
//  #06 //045   ----------------------------------------
 BYTE   PATT
  POIN2 Label_0105B0F1
//  #06 //046   ----------------------------------------
 BYTE   N24  Cn1  v052
 BYTE   N12  Dn1
 BYTE   W12
 BYTE   N12
 BYTE   W12
 BYTE   N24  Cn1
 BYTE   N12  Dn1  v056
 BYTE   W12
 BYTE   N12
 BYTE   W12
 BYTE   N24  Cn1  v052
 BYTE   N12  Dn1  v060
 BYTE   W12
 BYTE   N12
 BYTE   W12
 BYTE   N24  Cn1  v052
 BYTE   N12  Dn1  v064
 BYTE   W12
 BYTE   Dn1  v068
 BYTE   W12
//  #06 //047   ----------------------------------------
 BYTE   EOT
 BYTE   Cs2
 BYTE   N24  Cn1  v052
 BYTE   N12  Dn1  v068
 BYTE   TIE  Cs2
 BYTE   W12
 BYTE   N12  Dn1  v064
 BYTE   W12
 BYTE   N24  Cn1  v052
 BYTE   N12  Dn1  v064
 BYTE   W12
 BYTE   N12
 BYTE   W12
 BYTE   N24  Cn1  v052
 BYTE   N12  Dn1  v064
 BYTE   W12
 BYTE   N12
 BYTE   W12
 BYTE   N24  Cn1  v052
 BYTE   N12  Dn1  v064
 BYTE   W12
 BYTE   N12
 BYTE   W12
//  #06 //048   ----------------------------------------
Label_0105B17A:
 BYTE   N24  Cn1  v052
 BYTE   N12  Dn1  v064
 BYTE   W12
 BYTE   N12
 BYTE   W12
 BYTE   N24  Cn1  v052
 BYTE   N12  Dn1  v064
 BYTE   W12
 BYTE   N12
 BYTE   W12
 BYTE   N24  Cn1  v052
 BYTE   N12  Dn1  v064
 BYTE   W12
 BYTE   N12
 BYTE   W12
 BYTE   N24  Cn1  v052
 BYTE   N12  Dn1  v064
 BYTE   W12
 BYTE   N12
 BYTE   W12
 BYTE   PEND 
//  #06 //049   ----------------------------------------
 BYTE   PATT
  POIN2 Label_0105B17A
//  #06 //050   ----------------------------------------
 BYTE   PATT
  POIN2 Label_0105B17A
//  #06 //051   ----------------------------------------
 BYTE   PATT
  POIN2 Label_0105B17A
//  #06 //052   ----------------------------------------
 BYTE   PATT
  POIN2 Label_0105B17A
//  #06 //053   ----------------------------------------
 BYTE   N24  Cn1  v052
 BYTE   N12  Dn1  v064
 BYTE   W12
 BYTE   Dn1  v068
 BYTE   W12
 BYTE   N24  Cn1  v052
 BYTE   N12  Dn1  v072
 BYTE   W12
 BYTE   Dn1  v076
 BYTE   W12
 BYTE   N24  Cn1  v052
 BYTE   N12  Dn1  v080
 BYTE   W12
 BYTE   Dn1  v084
 BYTE   W12
 BYTE   TIE  Cn1  v052
 BYTE   N12  Dn1  v088
 BYTE   W12
 BYTE   Dn1  v092
 BYTE   W12
//  #06 //054   ----------------------------------------
 BYTE   N24  Dn1  v096
 BYTE   W24
 BYTE   N06
 BYTE   N12  Bn1
 BYTE   W06
 BYTE   N06  Dn1
 BYTE   W06
 BYTE   N12
 BYTE   N06  Bn1
 BYTE   W06
 BYTE   N06
 BYTE   W06
 BYTE   N12  Dn1
 BYTE   N12  Bn1
 BYTE   W12
 BYTE   Dn1
 BYTE   TIE  Bn1
 BYTE   W12
 BYTE   EOT
 BYTE   Cs2
 BYTE   N12  Dn1
 BYTE   N12  Gs1  v080
 BYTE   N60  Cs2  v096
 BYTE   W12
 BYTE   N12  Dn1
 BYTE   N12  Gs1  v080
 BYTE   W12
//  #06 //055   ----------------------------------------
Label_0105B206:
 BYTE   N12  Dn1  v096
 BYTE   N12  Gs1  v080
 BYTE   W12
 BYTE   Dn1  v096
 BYTE   N12  Gs1  v080
 BYTE   W12
 BYTE   Dn1  v096
 BYTE   N12  Gs1  v080
 BYTE   W12
 BYTE   Dn1  v096
 BYTE   N12  Gs1  v080
 BYTE   N12  Cs2  v096
 BYTE   W12
 BYTE   N24  Dn1
 BYTE   N12  Gs1  v080
 BYTE   N48  Cs2  v096
 BYTE   W12
 BYTE   N12  Gs1  v080
 BYTE   W12
 BYTE   N06  Dn1  v096
 BYTE   N12  Gs1  v080
 BYTE   W06
 BYTE   N06  Dn1  v096
 BYTE   W06
 BYTE   N12
 BYTE   N12  Gs1  v080
 BYTE   W12
 BYTE   PEND 
//  #06 //056   ----------------------------------------
 BYTE   EOT
 BYTE   Bn1
Label_0105B242:
 BYTE   N12  Dn1  v096
 BYTE   N12  Gs1  v080
 BYTE   N12  Bn1  v096
 BYTE   N12  Cs2
 BYTE   W12
 BYTE   Dn1
 BYTE   N12  Gs1  v080
 BYTE   TIE  Bn1  v096
 BYTE   N12  Cs2
 BYTE   W12
 BYTE   Dn1
 BYTE   N12  Gs1  v080
 BYTE   N60  Cs2  v096
 BYTE   W12
 BYTE   N12  Dn1
 BYTE   N12  Gs1  v080
 BYTE   W12
 BYTE   Dn1  v096
 BYTE   N12  Gs1  v080
 BYTE   W12
 BYTE   Dn1  v096
 BYTE   N12  Gs1  v080
 BYTE   W12
 BYTE   Dn1  v096
 BYTE   N12  Gs1  v080
 BYTE   W12
 BYTE   Dn1  v096
 BYTE   N12  Gs1  v080
 BYTE   N12  Cs2  v096
 BYTE   W12
 BYTE   PEND 
//  #06 //057   ----------------------------------------
 BYTE   N72  Dn1
 BYTE   N12  Gs1  v080
 BYTE   N48  Cs2  v096
 BYTE   W12
 BYTE   N12  Gs1  v080
 BYTE   W12
 BYTE   N12
 BYTE   W12
 BYTE   N12
 BYTE   N04  Dn2  v096
 BYTE   W04
 BYTE   N04
 BYTE   W04
 BYTE   TIE
 BYTE   W04
 BYTE   EOT
 BYTE   Bn1
 BYTE   N12  Gs1  v080
 BYTE   N12  Bn1  v096
 BYTE   N04  Cn2
 BYTE   N12  Cs2
 BYTE   W04
 BYTE   N04  Cn2
 BYTE   W04
 BYTE   TIE
 BYTE   W04
 BYTE   N12  Gs1  v080
 BYTE   N04  Bn1  v096
 BYTE   N12  Cs2
 BYTE   W04
 BYTE   N04  Bn1
 BYTE   W04
 BYTE   TIE
 BYTE   W04
 BYTE   N12  Dn1
 BYTE   N12  Gs1  v080
 BYTE   N60  Cs2  v096
 BYTE   W12
 BYTE   N12  Dn1
 BYTE   N12  Gs1  v080
 BYTE   W12
//  #06 //058   ----------------------------------------
 BYTE   PATT
  POIN2 Label_0105B206
//  #06 //059   ----------------------------------------
 BYTE   EOT
 BYTE   Bn1
//  #06 //060   ----------------------------------------
 BYTE   PATT
  POIN2 Label_0105B242
//  #06 //061   ----------------------------------------
 BYTE   N72  Dn1  v096
 BYTE   N12  Gs1  v080
 BYTE   N48  Cs2  v096
 BYTE   W12
 BYTE   N12  Gs1  v080
 BYTE   W12
 BYTE   N12
 BYTE   W12
 BYTE   EOT
 BYTE   Dn2
 BYTE   N12  Gs1
 BYTE   N04  Dn2  v096
 BYTE   W04
 BYTE   N04
 BYTE   W04
 BYTE   TIE
 BYTE   W04
 BYTE   EOT
 BYTE   Bn1  v048
 BYTE   N12  Gs1  v080
 BYTE   N12  Bn1  v096
 BYTE   N04  Cn2
 BYTE   N12  Cs2
 BYTE   W04
 BYTE   N04  Cn2
 BYTE   W04
 BYTE   TIE
 BYTE   W04
 BYTE   N12  Gs1  v080
 BYTE   N04  Bn1  v096
 BYTE   N12  Cs2
 BYTE   W04
 BYTE   N04  Bn1
 BYTE   W04
 BYTE   TIE
 BYTE   W04
 BYTE   N12  Dn1
 BYTE   N12  Gs1  v080
 BYTE   N48  Cs2  v096
 BYTE   W12
 BYTE   N12  Dn1
 BYTE   N12  Gs1  v080
 BYTE   W12
//  #06 //062   ----------------------------------------
 BYTE   Dn1  v096
 BYTE   N12  Gs1  v080
 BYTE   W12
 BYTE   Dn1  v096
 BYTE   N12  Gs1  v080
 BYTE   W12
 BYTE   Dn1  v096
 BYTE   N12  Gs1  v080
 BYTE   N12  Cs2  v096
 BYTE   W12
 BYTE   Dn1
 BYTE   N12  Gs1  v080
 BYTE   N12  Cs2  v096
 BYTE   W12
 BYTE   N24  Dn1
 BYTE   N12  Gs1  v080
 BYTE   N48  Cs2  v096
 BYTE   W12
 BYTE   N12  Gs1  v080
 BYTE   W12
 BYTE   N06  Dn1  v096
 BYTE   N12  Gs1  v080
 BYTE   W06
 BYTE   N06  Dn1  v096
 BYTE   W06
 BYTE   N12
 BYTE   N12  Gs1  v080
 BYTE   W12
//  #06 //063   ----------------------------------------
 BYTE   EOT
 BYTE   Bn1
 BYTE   N12  Dn1  v096
 BYTE   N12  Gs1  v080
 BYTE   N12  Bn1  v096
 BYTE   N12  Cs2
 BYTE   W12
 BYTE   Dn1
 BYTE   N12  Gs1  v080
 BYTE   TIE  Bn1  v096
 BYTE   N12  Cs2
 BYTE   W12
 BYTE   Dn1
 BYTE   N12  Gs1  v080
 BYTE   N48  Cs2  v096
 BYTE   W12
 BYTE   N12  Dn1
 BYTE   N12  Gs1  v080
 BYTE   W12
 BYTE   Dn1  v096
 BYTE   N12  Gs1  v080
 BYTE   W12
 BYTE   Dn1  v096
 BYTE   N12  Gs1  v080
 BYTE   W12
 BYTE   Dn1  v096
 BYTE   N12  Gs1  v080
 BYTE   N12  Cs2  v096
 BYTE   W12
 BYTE   Dn1
 BYTE   N12  Gs1  v080
 BYTE   N12  Cs2  v096
 BYTE   W12
//  #06 //064   ----------------------------------------
 BYTE   N72  Dn1
 BYTE   N12  Gs1  v080
 BYTE   N18  Cs2  v096
 BYTE   W12
 BYTE   N12  Gs1  v080
 BYTE   W06
 BYTE   N18  Cs2  v096
 BYTE   W06
 BYTE   N12  Gs1  v080
 BYTE   W12
 BYTE   EOT
 BYTE   Dn2
 BYTE   N12  Gs1
 BYTE   N12  Cs2  v096
 BYTE   N04  Dn2
 BYTE   W04
 BYTE   N04
 BYTE   W04
 BYTE   TIE
 BYTE   W04
 BYTE   EOT
 BYTE   Bn1  v048
 BYTE   N12  Gs1  v080
 BYTE   N12  Bn1  v096
 BYTE   N04  Cn2
 BYTE   N12  Cs2
 BYTE   W04
 BYTE   N04  Cn2
 BYTE   W04
 BYTE   TIE
 BYTE   W04
 BYTE   N12  Gs1  v080
 BYTE   N04  Bn1  v096
 BYTE   N12  Cs2
 BYTE   W04
 BYTE   N04  Bn1
 BYTE   W04
 BYTE   TIE
 BYTE   W04
 BYTE   N12  Dn1
 BYTE   N12  Gs1  v080
 BYTE   N36  Cs2  v096
 BYTE   W12
 BYTE   N12  Dn1
 BYTE   N12  Gs1  v080
 BYTE   W12
//  #06 //065   ----------------------------------------
 BYTE   Dn1  v096
 BYTE   N12  Gs1  v080
 BYTE   W12
 BYTE   Dn1  v096
 BYTE   N12  Gs1  v080
 BYTE   N24  Cs2  v096
 BYTE   W12
 BYTE   N12  Dn1
 BYTE   N12  Gs1  v080
 BYTE   W12
 BYTE   Dn1  v096
 BYTE   N12  Gs1  v080
 BYTE   N12  Cs2  v096
 BYTE   W12
 BYTE   N24  Dn1
 BYTE   N12  Gs1  v080
 BYTE   N18  Cs2  v096
 BYTE   W12
 BYTE   N12  Gs1  v080
 BYTE   W06
 BYTE   N18  Cs2  v096
 BYTE   W06
 BYTE   N06  Dn1
 BYTE   N12  Gs1  v080
 BYTE   W06
 BYTE   N06  Dn1  v096
 BYTE   W06
 BYTE   N12
 BYTE   N12  Gs1  v080
 BYTE   N12  Cs2  v096
 BYTE   W12
//  #06 //066   ----------------------------------------
 BYTE   EOT
 BYTE   Bn1
 BYTE   N12  Dn1
 BYTE   N12  Gs1  v080
 BYTE   N12  Bn1  v096
 BYTE   N12  Cs2
 BYTE   W12
 BYTE   Dn1
 BYTE   N12  Gs1  v080
 BYTE   TIE  Bn1  v096
 BYTE   N12  Cs2
 BYTE   W12
 BYTE   Dn1
 BYTE   N12  Gs1  v080
 BYTE   N18  Cs2  v096
 BYTE   W12
 BYTE   N12  Dn1
 BYTE   N12  Gs1  v080
 BYTE   W06
 BYTE   N18  Cs2  v096
 BYTE   W06
 BYTE   N12  Dn1
 BYTE   N12  Gs1  v080
 BYTE   W12
 BYTE   Dn1  v096
 BYTE   N12  Gs1  v080
 BYTE   N12  Cs2  v096
 BYTE   W12
 BYTE   Dn1
 BYTE   N12  Gs1  v080
 BYTE   N12  Cs2  v096
 BYTE   W12
 BYTE   Dn1
 BYTE   N12  Gs1  v080
 BYTE   N12  Cs2  v096
 BYTE   W12
//  #06 //067   ----------------------------------------
 BYTE   N72  Dn1
 BYTE   N12  Gs1  v080
 BYTE   N12  Cs2  v096
 BYTE   W12
 BYTE   Gs1  v080
 BYTE   N12  Cs2  v096
 BYTE   W12
 BYTE   Gs1  v080
 BYTE   N12  Cs2  v096
 BYTE   W12
 BYTE   EOT
 BYTE   Dn2
 BYTE   N12  Gs1  v080
 BYTE   N12  Cs2  v096
 BYTE   N04  Dn2
 BYTE   W04
 BYTE   N04
 BYTE   W04
 BYTE   TIE
 BYTE   W04
 BYTE   EOT
 BYTE   Cn2
 BYTE   N12  Gs1  v080
 BYTE   N04  Cn2  v096
 BYTE   N12  Cs2
 BYTE   W04
 BYTE   N04  Cn2
 BYTE   W04
 BYTE   TIE
 BYTE   W04
 BYTE   EOT
 BYTE   Bn1
 BYTE   TIE  Gs1  v080
 BYTE   N04  Bn1  v096
 BYTE   N12  Cs2
 BYTE   W04
 BYTE   N04  Bn1
 BYTE   W04
 BYTE   TIE
 BYTE   W04
 BYTE   N12  Dn1  v080
 BYTE   TIE  Cs2
 BYTE   W12
 BYTE   N04  Dn1
 BYTE   W04
 BYTE   N04
 BYTE   W04
 BYTE   N04
 BYTE   W04
//  #06 //068   ----------------------------------------
 BYTE   N12
 BYTE   W12
 BYTE   N12
 BYTE   W12
 BYTE   N06
 BYTE   W06
 BYTE   N06
 BYTE   W06
 BYTE   N12
 BYTE   W12
 BYTE   N12
 BYTE   W12
 BYTE   N04
 BYTE   W04
 BYTE   N04
 BYTE   W04
 BYTE   N04
 BYTE   W04
 BYTE   N12
 BYTE   W12
 BYTE   N04
 BYTE   W04
 BYTE   N04
 BYTE   W04
 BYTE   N04
 BYTE   W04
//  #06 //069   ----------------------------------------
 BYTE   N04
 BYTE   W04
 BYTE   N04
 BYTE   W04
 BYTE   N04
 BYTE   W04
 BYTE   N04
 BYTE   W04
 BYTE   N04
 BYTE   W04
 BYTE   N04
 BYTE   W04
 BYTE   N12
 BYTE   W12
 BYTE   N04
 BYTE   W04
 BYTE   N04
 BYTE   W04
 BYTE   N04
 BYTE   W04
 BYTE   N12
 BYTE   W12
 BYTE   N12
 BYTE   W12
 BYTE   N06
 BYTE   W06
 BYTE   N06
 BYTE   W06
 BYTE   N12
 BYTE   W12
//  #06 //070   ----------------------------------------
 BYTE   EOT
 BYTE   Cs2
 BYTE   N12  Dn1
 BYTE   N18  Cs2
 BYTE   W12
 BYTE   N04  Dn1
 BYTE   W04
 BYTE   N04
 BYTE   W02
 BYTE   N18  Cs2
 BYTE   W02
 BYTE   N04  Dn1
 BYTE   W04
 BYTE   N12
 BYTE   W12
 BYTE   N12
 BYTE   N18  Cs2
 BYTE   W12
 BYTE   N06  Dn1
 BYTE   W06
 BYTE   N06
 BYTE   N18  Cs2
 BYTE   W06
 BYTE   N12  Dn1
 BYTE   W12
 BYTE   N12
 BYTE   TIE  Cs2
 BYTE   W12
 BYTE   N04  Dn1
 BYTE   W04
 BYTE   N04
 BYTE   W04
 BYTE   N04
 BYTE   W04
//  #06 //071   ----------------------------------------
 BYTE   N12
 BYTE   W12
 BYTE   N12
 BYTE   W12
 BYTE   N06
 BYTE   W06
 BYTE   N06
 BYTE   W06
 BYTE   N12
 BYTE   W12
 BYTE   N12
 BYTE   W12
 BYTE   N04
 BYTE   W04
 BYTE   N04
 BYTE   W04
 BYTE   N04
 BYTE   W04
 BYTE   N12
 BYTE   W12
 BYTE   N12
 BYTE   W12
//  #06 //072   ----------------------------------------
 BYTE   N06
 BYTE   W06
 BYTE   N06
 BYTE   W06
 BYTE   N12
 BYTE   W12
 BYTE   EOT
 BYTE   Cs2
 BYTE   N12  Dn1
 BYTE   N18  Cs2
 BYTE   W12
 BYTE   N04  Dn1
 BYTE   W04
 BYTE   N04
 BYTE   W02
 BYTE   N18  Cs2
 BYTE   W02
 BYTE   N04  Dn1
 BYTE   W04
 BYTE   N12
 BYTE   W12
 BYTE   N12
 BYTE   N18  Cs2
 BYTE   W12
 BYTE   N06  Dn1
 BYTE   W06
 BYTE   N06
 BYTE   N18  Cs2
 BYTE   W06
 BYTE   TIE  Dn1
 BYTE   W12
//  #06 //073   ----------------------------------------
 BYTE   Cs2
 BYTE   W96
//  #06 //074   ----------------------------------------
 BYTE   W96
//  #06 //075   ----------------------------------------
 BYTE   EOT
 BYTE   Cn1  v044
 BYTE   Cs2
 BYTE   N06  Cn1  v096
 BYTE   N12  Gs1  v112
 BYTE   TIE  Cs2  v096
 BYTE   W06
 BYTE   N90  Cn1
 BYTE   W06
 BYTE   N12  Gs1  v112
 BYTE   W12
 BYTE   EOT
 BYTE   Bn0  v038
 BYTE   N48  Bn0  v096
 BYTE   N48  Dn1
 BYTE   N12  Gs1  v112
 BYTE   W12
 BYTE   N12
 BYTE   W12
 BYTE   N12
 BYTE   W12
 BYTE   N12
 BYTE   W12
 BYTE   N48  Bn0  v096
 BYTE   N48  Dn1
 BYTE   N12  Gs1  v112
 BYTE   W12
 BYTE   N12
 BYTE   W12
//  #06 //076   ----------------------------------------
Label_0105B5A3:
 BYTE   N06  Cn1  v096
 BYTE   N12  Gs1  v112
 BYTE   W06
 BYTE   N90  Cn1  v096
 BYTE   W06
 BYTE   N12  Gs1  v112
 BYTE   W12
 BYTE   N48  Bn0  v096
 BYTE   N48  Dn1
 BYTE   N12  Gs1  v112
 BYTE   W12
 BYTE   N12
 BYTE   W12
 BYTE   N12
 BYTE   W12
 BYTE   N12
 BYTE   W12
 BYTE   N48  Bn0  v096
 BYTE   N48  Dn1
 BYTE   N12  Gs1  v112
 BYTE   W12
 BYTE   N12
 BYTE   W12
 BYTE   PEND 
//  #06 //077   ----------------------------------------
 BYTE   PATT
  POIN2 Label_0105B5A3
//  #06 //078   ----------------------------------------
 BYTE   PATT
  POIN2 Label_0105B5A3
//  #06 //079   ----------------------------------------
 BYTE   PATT
  POIN2 Label_0105B5A3
//  #06 //080   ----------------------------------------
 BYTE   PATT
  POIN2 Label_0105B5A3
//  #06 //081   ----------------------------------------
 BYTE   PATT
  POIN2 Label_0105B5A3
//  #06 //082   ----------------------------------------
 BYTE   PATT
  POIN2 Label_0105B5A3
//  #06 //083   ----------------------------------------
 BYTE   PATT
  POIN2 Label_0105B5A3
//  #06 //084   ----------------------------------------
 BYTE   N06  Cn1  v096
 BYTE   N12  Gs1  v112
 BYTE   W06
 BYTE   N42  Cn1  v096
 BYTE   W06
 BYTE   N12  Gs1  v112
 BYTE   W12
 BYTE   N96  Bn0  v096
 BYTE   N24  Dn1
 BYTE   N12  Gs1  v112
 BYTE   W12
 BYTE   N60
 BYTE   W12
 BYTE   N48  Cn1  v096
 BYTE   N72  Dn1
 BYTE   W48
//  #06 //085   ----------------------------------------
Label_0105B610:
 BYTE   N06  Cn1  v112
 BYTE   N12  Gs1  v127
 BYTE   W06
 BYTE   N90  Cn1  v112
 BYTE   W06
 BYTE   N12  Gs1  v127
 BYTE   W12
 BYTE   N48  Bn0  v112
 BYTE   N48  Dn1
 BYTE   N12  Gs1  v127
 BYTE   W12
 BYTE   N12
 BYTE   W12
 BYTE   N12
 BYTE   W12
 BYTE   N12
 BYTE   W12
 BYTE   N48  Bn0  v112
 BYTE   N48  Dn1
 BYTE   N12  Gs1  v127
 BYTE   W12
 BYTE   N12
 BYTE   W12
 BYTE   PEND 
//  #06 //086   ----------------------------------------
 BYTE   PATT
  POIN2 Label_0105B610
//  #06 //087   ----------------------------------------
 BYTE   PATT
  POIN2 Label_0105B610
//  #06 //088   ----------------------------------------
 BYTE   N06  Cn1  v112
 BYTE   N12  Gs1  v127
 BYTE   W06
 BYTE   N90  Cn1  v112
 BYTE   W06
 BYTE   N12  Gs1  v127
 BYTE   W12
 BYTE   N36  Bn0  v112
 BYTE   N36  Dn1
 BYTE   N12  Gs1  v127
 BYTE   W12
 BYTE   N12
 BYTE   W12
 BYTE   N12
 BYTE   W12
 BYTE   N18  Bn0  v112
 BYTE   N18  Dn1
 BYTE   N12  Gs1  v127
 BYTE   W12
 BYTE   N12
 BYTE   W06
 BYTE   N42  Bn0  v112
 BYTE   N42  Dn1
 BYTE   W06
 BYTE   N12  Gs1  v127
 BYTE   W12
//  #06 //089   ----------------------------------------
 BYTE   PATT
  POIN2 Label_0105B610
//  #06 //090   ----------------------------------------
Label_0105B67A:
 BYTE   N06  Cn1  v112
 BYTE   N12  Gs1  v127
 BYTE   W06
 BYTE   N42  Cn1  v112
 BYTE   W06
 BYTE   N12  Gs1  v127
 BYTE   W12
 BYTE   N48  Bn0  v112
 BYTE   N48  Dn1
 BYTE   N12  Gs1  v127
 BYTE   W12
 BYTE   N12
 BYTE   W12
 BYTE   N06  Cn1  v112
 BYTE   N12  Gs1  v127
 BYTE   W06
 BYTE   Cn1  v112
 BYTE   W06
 BYTE   Gs1  v127
 BYTE   W06
 BYTE   N30  Cn1  v112
 BYTE   W06
 BYTE   N12  Bn0
 BYTE   N12  Dn1
 BYTE   N12  Gs1  v127
 BYTE   W12
 BYTE   N36  Bn0  v112
 BYTE   N36  Dn1
 BYTE   N12  Gs1  v127
 BYTE   W12
 BYTE   PEND 
//  #06 //091   ----------------------------------------
 BYTE   N06  Cn1  v112
 BYTE   N12  Gs1  v127
 BYTE   W06
 BYTE   N90  Cn1  v112
 BYTE   W06
 BYTE   N12  Gs1  v127
 BYTE   W12
 BYTE   N48  Bn0  v112
 BYTE   N48  Dn1
 BYTE   N12  Gs1  v127
 BYTE   W12
 BYTE   N12
 BYTE   W12
 BYTE   N12
 BYTE   W12
 BYTE   N12
 BYTE   W12
 BYTE   N48  Bn0  v112
 BYTE   N18  Dn1
 BYTE   N12  Gs1  v127
 BYTE   W12
 BYTE   N12
 BYTE   W06
 BYTE   N03  Dn1  v112
 BYTE   W03
 BYTE   N24
 BYTE   W03
//  #06 //092   ----------------------------------------
 BYTE   PATT
  POIN2 Label_0105B67A
//  #06 //093   ----------------------------------------
 BYTE   PATT
  POIN2 Label_0105B610
//  #06 //094   ----------------------------------------
 BYTE   PATT
  POIN2 Label_0105B67A
//  #06 //095   ----------------------------------------
 BYTE   N06  Cn1  v112
 BYTE   N12  Gs1  v127
 BYTE   W06
 BYTE   N90  Cn1  v112
 BYTE   W06
 BYTE   N12  Gs1  v127
 BYTE   W12
 BYTE   N48  Bn0  v112
 BYTE   N48  Dn1
 BYTE   N12  Gs1  v127
 BYTE   W12
 BYTE   N12
 BYTE   W12
 BYTE   N12
 BYTE   W12
 BYTE   N12
 BYTE   W12
 BYTE   TIE  Bn0  v112
 BYTE   N36  Dn1
 BYTE   N12  Gs1  v127
 BYTE   W12
 BYTE   N12
 BYTE   W12
//  #06 //096   ----------------------------------------
Label_0105B71E:
 BYTE   N24  Cn1  v112
 BYTE   N12  Gs1  v127
 BYTE   N24  Gn2
 BYTE   W12
 BYTE   Dn1  v112
 BYTE   N12  Gs1  v127
 BYTE   W12
 BYTE   N24  Cn1  v112
 BYTE   N12  Gs1  v127
 BYTE   N24  Gn2
 BYTE   W12
 BYTE   Dn1  v112
 BYTE   N12  Gs1  v127
 BYTE   W12
 BYTE   TIE  Cn1  v112
 BYTE   N12  Gs1  v127
 BYTE   N24  Gn2
 BYTE   W12
 BYTE   N12  Dn1  v112
 BYTE   N12  Gs1  v127
 BYTE   W12
 BYTE   N03  Dn1  v112
 BYTE   N12  Gs1  v127
 BYTE   N24  Gn2
 BYTE   W03
 BYTE   N03  Dn1  v112
 BYTE   W03
 BYTE   N06
 BYTE   W06
 BYTE   N06
 BYTE   N12  Gs1  v127
 BYTE   W06
 BYTE   N18  Dn1  v112
 BYTE   W06
 BYTE   PEND 
//  #06 //097   ----------------------------------------
Label_0105B765:
 BYTE   N12  Gs1  v127
 BYTE   N24  Gn2
 BYTE   W12
 BYTE   N09  Dn1  v112
 BYTE   N12  Gs1  v127
 BYTE   W09
 BYTE   N03  Dn1  v112
 BYTE   W03
 BYTE   N03
 BYTE   N12  Gs1  v127
 BYTE   N24  Gn2
 BYTE   W03
 BYTE   N03  Dn1  v112
 BYTE   W03
 BYTE   N03
 BYTE   W03
 BYTE   N03
 BYTE   W03
 BYTE   N03
 BYTE   N12  Gs1  v127
 BYTE   W03
 BYTE   N03  Dn1  v112
 BYTE   W03
 BYTE   N06
 BYTE   W06
 BYTE   N12
 BYTE   N12  Gs1  v127
 BYTE   N24  Gn2
 BYTE   W12
 BYTE   N09  Dn1  v112
 BYTE   N12  Gs1  v127
 BYTE   W09
 BYTE   N03  Dn1  v112
 BYTE   W03
 BYTE   N03
 BYTE   N12  Gs1  v127
 BYTE   N24  Gn2
 BYTE   W03
 BYTE   N03  Dn1  v112
 BYTE   W03
 BYTE   N03
 BYTE   W03
 BYTE   N03
 BYTE   W03
 BYTE   N03
 BYTE   N12  Gs1  v127
 BYTE   W03
 BYTE   N03  Dn1  v112
 BYTE   W03
 BYTE   N18
 BYTE   W06
 BYTE   PEND 
//  #06 //098   ----------------------------------------
 BYTE   EOT
 BYTE   Cn1
//  #06 //099   ----------------------------------------
 BYTE   PATT
  POIN2 Label_0105B71E
//  #06 //100   ----------------------------------------
 BYTE   PATT
  POIN2 Label_0105B765
//  #06 //101   ----------------------------------------
 BYTE   EOT
 BYTE   Cn1
//  #06 //102   ----------------------------------------
 BYTE   PATT
  POIN2 Label_0105B71E
//  #06 //103   ----------------------------------------
 BYTE   PATT
  POIN2 Label_0105B765
//  #06 //104   ----------------------------------------
 BYTE   EOT
 BYTE   Cn1
//  #06 //105   ----------------------------------------
 BYTE   PATT
  POIN2 Label_0105B71E
//  #06 //106   ----------------------------------------
 BYTE   PATT
  POIN2 Label_0105B765
//  #06 //107   ----------------------------------------
 BYTE   EOT
 BYTE   Cn1
 BYTE   N24  Cn1  v112
 BYTE   N12  Gs1  v127
 BYTE   N24  Gn2
 BYTE   W12
 BYTE   Dn1  v112
 BYTE   N12  Gs1  v127
 BYTE   W12
 BYTE   N24  Cn1  v112
 BYTE   N12  Gs1  v127
 BYTE   N24  Gn2
 BYTE   W12
 BYTE   Dn1  v112
 BYTE   N12  Gs1  v127
 BYTE   W12
 BYTE   N12
 BYTE   N24  Gn2
 BYTE   W12
 BYTE   N12  Dn1  v112
 BYTE   N12  Gs1  v127
 BYTE   W12
 BYTE   N03  Dn1  v112
 BYTE   N12  Gs1  v127
 BYTE   N72  Gn2
 BYTE   W03
 BYTE   N03  Dn1  v112
 BYTE   W03
 BYTE   N06
 BYTE   W06
 BYTE   N06
 BYTE   N36  Gs1  v127
 BYTE   W06
 BYTE   N30  Dn1  v112
 BYTE   W06
//  #06 //108   ----------------------------------------
 BYTE   EOT
 BYTE   Bn0
 BYTE   N48
 BYTE   W24
 BYTE   N06  Dn1
 BYTE   N06  Gs1  v127
 BYTE   W06
 BYTE   TIE  Dn1  v112
 BYTE   W18
 BYTE   N24  Bn0
 BYTE   N24  Gn2
 BYTE   W24
 BYTE   Bn0
 BYTE   TIE  Gn2
 BYTE   W24
//  #06 //109   ----------------------------------------
 BYTE   EOT
 BYTE   Cs2
 BYTE   N18  Bn0
 BYTE   N18  Cs2
 BYTE   W18
 BYTE   Bn0
 BYTE   N18  Cs2
 BYTE   W18
 BYTE   Bn0
 BYTE   N18  Cs2
 BYTE   W18
 BYTE   N42  Bn0
 BYTE   N42  Cs2
 BYTE   W18
 BYTE   EOT
 BYTE   Dn1  v050
 BYTE   N03  Dn1  v127
 BYTE   N03  Dn2  v112
 BYTE   W03
 BYTE   Dn1  v127
 BYTE   N68  Dn2  v112
 BYTE   W03
 BYTE   EOT
 BYTE   Cn2
 BYTE   N03  Dn1  v127
 BYTE   N03  Cn2  v112
 BYTE   W03
 BYTE   Dn1  v127
 BYTE   W03
 BYTE   EOT
 BYTE   Bn1
 BYTE   N03  Dn1
 BYTE   N03  Bn1  v112
 BYTE   W03
 BYTE   Dn1  v127
 BYTE   W03
 BYTE   EOT
 BYTE   An1
 BYTE   N03  Dn1
 BYTE   N03  An1  v112
 BYTE   W03
 BYTE   Dn1  v127
 BYTE   W03
//  #06 //110   ----------------------------------------
 BYTE   EOT
 BYTE   Gn2
 BYTE   N48  Bn0  v112
 BYTE   N24  Dn1
 BYTE   N24  Cs2
 BYTE   N48  Gn2  v127
 BYTE   W24
 BYTE   N08  Dn1  v112
 BYTE   N08  Cs2
 BYTE   W08
 BYTE   Dn1
 BYTE   N08  Cs2
 BYTE   W08
 BYTE   Dn1
 BYTE   N08  Cs2
 BYTE   W08
 BYTE   N48  Bn0
 BYTE   N24  Dn1
 BYTE   N24  Cs2
 BYTE   W24
 BYTE   N08  Dn1
 BYTE   N08  Cs2
 BYTE   W08
 BYTE   Dn1
 BYTE   N08  Cs2
 BYTE   W08
 BYTE   Dn1
 BYTE   N08  Cs2
 BYTE   W08
//  #06 //111   ----------------------------------------
 BYTE   W96
//  #06 //112   ----------------------------------------
 BYTE   W96
//  #06 //113   ----------------------------------------
 BYTE   W96
//  #06 //114   ----------------------------------------
 BYTE   GoTo
  POIN2 Label_0105AF52
 BYTE   FINE

//******************************************************//
	ALIGN 4

Biggering:
	BYTE	6	// NumTrks
	BYTE	0	// NumBlks
	BYTE	Biggering_pri	// Priority
	BYTE	Biggering_rev	// Reverb.
    
	POIN2	Biggering_grp
    
	POIN2	Biggering_001
	POIN2	Biggering_002
	POIN2	Biggering_003
	POIN2	Biggering_004
	POIN2	Biggering_005
	POIN2	Biggering_006

	
