//Event file generated from Sappy .s format.
	#include "MPlayDef.event"

	#define	DiscoDescent_grp  voicegroup000
	#define	DiscoDescent_pri  0
	#define	DiscoDescent_rev  0
	#define	DiscoDescent_mvl  127
	#define	DiscoDescent_key  0
	#define	DiscoDescent_tbs  1
	#define	DiscoDescent_exg  0
	#define	DiscoDescent_cmp  1

	// .rodata
	//	DiscoDescent
	ALIGN 4


//**************** Track 1 (Midi-Chn.0) ****************//

DiscoDescent_001:
//  #01 //000   ----------------------------------------
 BYTE   KEYSH   DiscoDescent_key+0
 BYTE   TEMPO   114*DiscoDescent_tbs/2
 BYTE   VOICE   7
 BYTE   VOL   37*DiscoDescent_mvl/mxv
 BYTE   N06  An0  v127
 BYTE   W06
 BYTE   N06
 BYTE   W30
 BYTE   N06
 BYTE   W06
 BYTE   N06
 BYTE   W30
 BYTE   Cn1
 BYTE   W06
 BYTE   N06
 BYTE   W18
//  #01 //001   ----------------------------------------
 BYTE   An0
 BYTE   W06
 BYTE   N06
 BYTE   W30
 BYTE   N06
 BYTE   W06
 BYTE   N06
 BYTE   W30
 BYTE   N06
 BYTE   W06
 BYTE   N06
 BYTE   W18
//  #01 //002   ----------------------------------------
 BYTE   N06
 BYTE   W06
 BYTE   N06
 BYTE   W30
 BYTE   N06
 BYTE   W06
 BYTE   N06
 BYTE   W30
 BYTE   Cn1
 BYTE   W06
 BYTE   N06
 BYTE   W18
//  #01 //003   ----------------------------------------
 BYTE   An0
 BYTE   W06
 BYTE   N06
 BYTE   W30
 BYTE   N06
 BYTE   W06
 BYTE   N06
 BYTE   W54
//  #01 //004   ----------------------------------------
Label_CF6EE6:
 BYTE   N24  An0  v127
 BYTE   W12
 BYTE   An1
 BYTE   W12
 BYTE   An0
 BYTE   W12
 BYTE   An1
 BYTE   W12
 BYTE   An0
 BYTE   W12
 BYTE   An1
 BYTE   W12
 BYTE   An0
 BYTE   W12
 BYTE   N12  An1
 BYTE   W12
 BYTE   PEND 
//  #01 //005   ----------------------------------------
Label_CF6EFA:
 BYTE   N24  Gn0  v127
 BYTE   W12
 BYTE   Gn1
 BYTE   W12
 BYTE   Gn0
 BYTE   W12
 BYTE   Gn1
 BYTE   W12
 BYTE   Gn0
 BYTE   W12
 BYTE   Gn1
 BYTE   W12
 BYTE   Gn0
 BYTE   W12
 BYTE   N12  Gn1
 BYTE   W12
 BYTE   PEND 
//  #01 //006   ----------------------------------------
Label_CF6F0E:
 BYTE   N24  Fn0  v127
 BYTE   W12
 BYTE   Fn1
 BYTE   W12
 BYTE   Fn0
 BYTE   W12
 BYTE   Fn1
 BYTE   W12
 BYTE   Fn0
 BYTE   W12
 BYTE   Fn1
 BYTE   W12
 BYTE   Fn0
 BYTE   W12
 BYTE   N12  Fn1
 BYTE   W12
 BYTE   PEND 
//  #01 //007   ----------------------------------------
Label_CF6F22:
 BYTE   N24  Dn0  v127
 BYTE   W12
 BYTE   Dn1
 BYTE   W12
 BYTE   Dn0
 BYTE   W12
 BYTE   N12  Dn1
 BYTE   W12
 BYTE   N24  En0
 BYTE   W12
 BYTE   En1
 BYTE   W12
 BYTE   En0
 BYTE   W12
 BYTE   N12  En1
 BYTE   W12
 BYTE   PEND 
//  #01 //008   ----------------------------------------
 BYTE   PATT
  POIN2 Label_CF6EE6
//  #01 //009   ----------------------------------------
 BYTE   PATT
  POIN2 Label_CF6EFA
//  #01 //010   ----------------------------------------
 BYTE   PATT
  POIN2 Label_CF6F0E
//  #01 //011   ----------------------------------------
 BYTE   PATT
  POIN2 Label_CF6F22
//  #01 //012   ----------------------------------------
Label_CF6F4C:
 BYTE   N24  An0  v127
 BYTE   W12
 BYTE   An1
 BYTE   W12
 BYTE   An0
 BYTE   W12
 BYTE   An1
 BYTE   W12
 BYTE   An0
 BYTE   W12
 BYTE   An1
 BYTE   W12
 BYTE   An0
 BYTE   W12
 BYTE   An1
 BYTE   W12
 BYTE   PEND 
//  #01 //013   ----------------------------------------
 BYTE   PATT
  POIN2 Label_CF6F4C
//  #01 //014   ----------------------------------------
 BYTE   PATT
  POIN2 Label_CF6F4C
//  #01 //015   ----------------------------------------
 BYTE   PATT
  POIN2 Label_CF6F4C
//  #01 //016   ----------------------------------------
 BYTE   PATT
  POIN2 Label_CF6EE6
//  #01 //017   ----------------------------------------
 BYTE   PATT
  POIN2 Label_CF6EFA
//  #01 //018   ----------------------------------------
 BYTE   PATT
  POIN2 Label_CF6F0E
//  #01 //019   ----------------------------------------
 BYTE   PATT
  POIN2 Label_CF6F22
//  #01 //020   ----------------------------------------
 BYTE   PATT
  POIN2 Label_CF6EE6
//  #01 //021   ----------------------------------------
 BYTE   PATT
  POIN2 Label_CF6EFA
//  #01 //022   ----------------------------------------
 BYTE   PATT
  POIN2 Label_CF6F0E
//  #01 //023   ----------------------------------------
 BYTE   PATT
  POIN2 Label_CF6F22
//  #01 //024   ----------------------------------------
Label_CF6F96:
 BYTE   N24  Cn1  v127
 BYTE   W12
 BYTE   Cn2
 BYTE   W12
 BYTE   Cn1
 BYTE   W12
 BYTE   Cn2
 BYTE   W12
 BYTE   Cn1
 BYTE   W12
 BYTE   Cn2
 BYTE   W12
 BYTE   Cn1
 BYTE   W12
 BYTE   N12  Cn2
 BYTE   W12
 BYTE   PEND 
//  #01 //025   ----------------------------------------
Label_CF6FAA:
 BYTE   N24  An0  v127
 BYTE   W12
 BYTE   An1
 BYTE   W12
 BYTE   An0
 BYTE   W12
 BYTE   An1
 BYTE   W12
 BYTE   N12  An0
 BYTE   W12
 BYTE   En2
 BYTE   W12
 BYTE   N12
 BYTE   W12
 BYTE   Dn2
 BYTE   W12
 BYTE   PEND 
//  #01 //026   ----------------------------------------
 BYTE   PATT
  POIN2 Label_CF6F0E
//  #01 //027   ----------------------------------------
Label_CF6FC3:
 BYTE   N24  Cn0  v127
 BYTE   W12
 BYTE   Cn1
 BYTE   W12
 BYTE   Cn0
 BYTE   W12
 BYTE   Cn1
 BYTE   W12
 BYTE   N12  Cn0
 BYTE   W12
 BYTE   Bn1
 BYTE   W12
 BYTE   Cn2
 BYTE   W12
 BYTE   Bn1
 BYTE   W12
 BYTE   PEND 
//  #01 //028   ----------------------------------------
 BYTE   PATT
  POIN2 Label_CF6F4C
//  #01 //029   ----------------------------------------
 BYTE   PATT
  POIN2 Label_CF6F4C
//  #01 //030   ----------------------------------------
 BYTE   PATT
  POIN2 Label_CF6F4C
//  #01 //031   ----------------------------------------
 BYTE   PATT
  POIN2 Label_CF6F4C
//  #01 //032   ----------------------------------------
 BYTE   PATT
  POIN2 Label_CF6EE6
//  #01 //033   ----------------------------------------
 BYTE   PATT
  POIN2 Label_CF6F0E
//  #01 //034   ----------------------------------------
 BYTE   PATT
  POIN2 Label_CF6EE6
//  #01 //035   ----------------------------------------
 BYTE   N24  Ds0  v127
 BYTE   W12
 BYTE   Ds1
 BYTE   W12
 BYTE   Ds0
 BYTE   W12
 BYTE   Ds1
 BYTE   W12
 BYTE   Ds0
 BYTE   W12
 BYTE   Ds1
 BYTE   W12
 BYTE   Ds0
 BYTE   W12
 BYTE   N12  Ds1
 BYTE   W12
//  #01 //036   ----------------------------------------
 BYTE   PATT
  POIN2 Label_CF6EE6
//  #01 //037   ----------------------------------------
 BYTE   PATT
  POIN2 Label_CF6F0E
//  #01 //038   ----------------------------------------
 BYTE   PATT
  POIN2 Label_CF6EE6
//  #01 //039   ----------------------------------------
 BYTE   N24  Ds0  v127
 BYTE   W12
 BYTE   Ds1
 BYTE   W12
 BYTE   Ds0
 BYTE   W12
 BYTE   N12  Ds1
 BYTE   W12
 BYTE   N24  Fn0
 BYTE   W12
 BYTE   Fn1
 BYTE   W12
 BYTE   Fn0
 BYTE   W12
 BYTE   N12  Fn1
 BYTE   W12
//  #01 //040   ----------------------------------------
 BYTE   PATT
  POIN2 Label_CF6EE6
//  #01 //041   ----------------------------------------
 BYTE   N24  Cn1  v127
 BYTE   W12
 BYTE   Cn2
 BYTE   W12
 BYTE   Cn1
 BYTE   W12
 BYTE   N12  Cn2
 BYTE   W12
 BYTE   N24  Dn1
 BYTE   W12
 BYTE   Dn2
 BYTE   W12
 BYTE   Dn1
 BYTE   W12
 BYTE   N12  Dn2
 BYTE   W12
//  #01 //042   ----------------------------------------
 BYTE   PATT
  POIN2 Label_CF6EE6
//  #01 //043   ----------------------------------------
 BYTE   N24  En1  v127
 BYTE   W12
 BYTE   En2
 BYTE   W12
 BYTE   En1
 BYTE   W12
 BYTE   N12  En2
 BYTE   W12
 BYTE   N24  Dn1
 BYTE   W12
 BYTE   Dn2
 BYTE   W12
 BYTE   Dn1
 BYTE   W12
 BYTE   N12  Dn2
 BYTE   W12
//  #01 //044   ----------------------------------------
 BYTE   N24  Cn1
 BYTE   W12
 BYTE   Cn2
 BYTE   W12
 BYTE   Cn1
 BYTE   W12
 BYTE   N12  Cn2
 BYTE   W12
 BYTE   N24  Bn0
 BYTE   W12
 BYTE   Bn1
 BYTE   W12
 BYTE   Bn0
 BYTE   W12
 BYTE   N12  Bn1
 BYTE   W12
//  #01 //045   ----------------------------------------
 BYTE   PATT
  POIN2 Label_CF6F0E
//  #01 //046   ----------------------------------------
 BYTE   N24  An0  v127
 BYTE   W12
 BYTE   An1
 BYTE   W12
 BYTE   An0
 BYTE   W12
 BYTE   N12  An1
 BYTE   W12
 BYTE   N24  Ds0
 BYTE   W12
 BYTE   Ds1
 BYTE   W12
 BYTE   Ds0
 BYTE   W12
 BYTE   Ds1
 BYTE   W12
//  #01 //047   ----------------------------------------
 BYTE   Ds0
 BYTE   W12
 BYTE   Ds1
 BYTE   W12
 BYTE   Ds0
 BYTE   W12
 BYTE   N12  Ds1
 BYTE   W12
 BYTE   N24  An0
 BYTE   W12
 BYTE   An1
 BYTE   W12
 BYTE   An0
 BYTE   W12
 BYTE   N12  An1
 BYTE   W12
//  #01 //048   ----------------------------------------
 BYTE   PATT
  POIN2 Label_CF6F96
//  #01 //049   ----------------------------------------
 BYTE   N24  An0  v127
 BYTE   W12
 BYTE   An1
 BYTE   W12
 BYTE   An0
 BYTE   W12
 BYTE   N12  An1
 BYTE   W12
 BYTE   N24  En0
 BYTE   W12
 BYTE   En1
 BYTE   W12
 BYTE   En0
 BYTE   W12
 BYTE   En1
 BYTE   W12
//  #01 //050   ----------------------------------------
 BYTE   En0
 BYTE   W12
 BYTE   En1
 BYTE   W12
 BYTE   En0
 BYTE   W12
 BYTE   N12  En1
 BYTE   W12
 BYTE   N24  Fn0
 BYTE   W12
 BYTE   Fn1
 BYTE   W12
 BYTE   Fn0
 BYTE   W12
 BYTE   N12  Fn1
 BYTE   W12
//  #01 //051   ----------------------------------------
 BYTE   PATT
  POIN2 Label_CF6F4C
//  #01 //052   ----------------------------------------
 BYTE   PATT
  POIN2 Label_CF6F4C
//  #01 //053   ----------------------------------------
 BYTE   PATT
  POIN2 Label_CF6F4C
//  #01 //054   ----------------------------------------
 BYTE   PATT
  POIN2 Label_CF6F4C
//  #01 //055   ----------------------------------------
 BYTE   PATT
  POIN2 Label_CF6F4C
//  #01 //056   ----------------------------------------
 BYTE   PATT
  POIN2 Label_CF6EE6
//  #01 //057   ----------------------------------------
 BYTE   PATT
  POIN2 Label_CF6EFA
//  #01 //058   ----------------------------------------
 BYTE   PATT
  POIN2 Label_CF6F0E
//  #01 //059   ----------------------------------------
Label_CF70F9:
 BYTE   N24  En0  v127
 BYTE   W12
 BYTE   En1
 BYTE   W12
 BYTE   En0
 BYTE   W12
 BYTE   En1
 BYTE   W12
 BYTE   En0
 BYTE   W12
 BYTE   En1
 BYTE   W12
 BYTE   En0
 BYTE   W12
 BYTE   N12  En1
 BYTE   W12
 BYTE   PEND 
//  #01 //060   ----------------------------------------
 BYTE   PATT
  POIN2 Label_CF6EE6
//  #01 //061   ----------------------------------------
 BYTE   PATT
  POIN2 Label_CF6EFA
//  #01 //062   ----------------------------------------
 BYTE   PATT
  POIN2 Label_CF6F0E
//  #01 //063   ----------------------------------------
 BYTE   PATT
  POIN2 Label_CF70F9
//  #01 //064   ----------------------------------------
 BYTE   PATT
  POIN2 Label_CF6F96
//  #01 //065   ----------------------------------------
 BYTE   PATT
  POIN2 Label_CF6FAA
//  #01 //066   ----------------------------------------
 BYTE   PATT
  POIN2 Label_CF6F0E
//  #01 //067   ----------------------------------------
 BYTE   PATT
  POIN2 Label_CF6FC3
//  #01 //068   ----------------------------------------
 BYTE   PATT
  POIN2 Label_CF6F4C
//  #01 //069   ----------------------------------------
 BYTE   PATT
  POIN2 Label_CF6F4C
//  #01 //070   ----------------------------------------
 BYTE   PATT
  POIN2 Label_CF6F4C
//  #01 //071   ----------------------------------------
 BYTE   PATT
  POIN2 Label_CF6EE6
//  #01 //072   ----------------------------------------
 BYTE   W12
 BYTE   N12  An2  v127
 BYTE   W24
 BYTE   N12
 BYTE   W24
 BYTE   N12
 BYTE   W24
 BYTE   N12
 BYTE   W12
//  #01 //073   ----------------------------------------
 BYTE   W12
 BYTE   Gs2
 BYTE   W24
 BYTE   N12
 BYTE   W24
 BYTE   N12
 BYTE   W24
 BYTE   N12
 BYTE   W12
//  #01 //074   ----------------------------------------
 BYTE   W12
 BYTE   Fn2
 BYTE   W24
 BYTE   N12
 BYTE   W24
 BYTE   N12
 BYTE   W24
 BYTE   N12
 BYTE   W12
//  #01 //075   ----------------------------------------
 BYTE   W12
 BYTE   En2
 BYTE   W24
 BYTE   N12
 BYTE   W24
 BYTE   Dn2
 BYTE   W24
 BYTE   N12
 BYTE   W12
//  #01 //076   ----------------------------------------
 BYTE   W12
 BYTE   Cn2
 BYTE   W24
 BYTE   N12
 BYTE   W24
 BYTE   N12
 BYTE   W24
 BYTE   N12
 BYTE   W12
//  #01 //077   ----------------------------------------
 BYTE   W12
 BYTE   Bn1
 BYTE   W24
 BYTE   N12
 BYTE   W24
 BYTE   N12
 BYTE   W24
 BYTE   N12
 BYTE   W12
//  #01 //078   ----------------------------------------
 BYTE   W12
 BYTE   An1
 BYTE   W24
 BYTE   N12
 BYTE   W24
 BYTE   N12
 BYTE   W24
 BYTE   N12
 BYTE   W12
//  #01 //079   ----------------------------------------
 BYTE   W12
 BYTE   Gs1
 BYTE   W24
 BYTE   N12
 BYTE   W24
 BYTE   Fn1
 BYTE   W24
 BYTE   N12
 BYTE   W12
//  #01 //080   ----------------------------------------
 BYTE   W12
 BYTE   En1
 BYTE   W24
 BYTE   N12
 BYTE   W24
 BYTE   N12
 BYTE   W24
 BYTE   N12
 BYTE   W12
//  #01 //081   ----------------------------------------
 BYTE   W12
 BYTE   Dn1
 BYTE   W24
 BYTE   N12
 BYTE   W24
 BYTE   N12
 BYTE   W24
 BYTE   N12
 BYTE   W12
//  #01 //082   ----------------------------------------
 BYTE   W12
 BYTE   Cn1
 BYTE   W24
 BYTE   N12
 BYTE   W24
 BYTE   N12
 BYTE   W24
 BYTE   N12
 BYTE   W12
//  #01 //083   ----------------------------------------
 BYTE   W12
 BYTE   Bn0
 BYTE   W24
 BYTE   N12
 BYTE   W24
 BYTE   N12
 BYTE   W24
 BYTE   An0
 BYTE   W12
//  #01 //084   ----------------------------------------
 BYTE   GoTo
  POIN2 Label_CF6EE6
 BYTE   FINE

//**************** Track 2 (Midi-Chn.1) ****************//

DiscoDescent_002:
//  #02 //000   ----------------------------------------
 BYTE   KEYSH   DiscoDescent_key+0
 BYTE   VOICE   57
 BYTE   VOL   32*DiscoDescent_mvl/mxv
 BYTE   N06  En2  v127
 BYTE   W06
 BYTE   N06
 BYTE   W30
 BYTE   N06
 BYTE   W06
 BYTE   N06
 BYTE   W30
 BYTE   Gn2
 BYTE   W06
 BYTE   N06
 BYTE   W18
//  #02 //001   ----------------------------------------
 BYTE   En2
 BYTE   W06
 BYTE   N06
 BYTE   W30
 BYTE   N06
 BYTE   W06
 BYTE   N06
 BYTE   W30
 BYTE   N06
 BYTE   W06
 BYTE   N06
 BYTE   W18
//  #02 //002   ----------------------------------------
 BYTE   N06
 BYTE   W06
 BYTE   N06
 BYTE   W30
 BYTE   N06
 BYTE   W06
 BYTE   N06
 BYTE   W30
 BYTE   Gn2
 BYTE   W06
 BYTE   N06
 BYTE   W18
//  #02 //003   ----------------------------------------
 BYTE   En2
 BYTE   W06
 BYTE   N06
 BYTE   W30
 BYTE   N06
 BYTE   W06
 BYTE   N06
 BYTE   W54
//  #02 //004   ----------------------------------------
Label_CF69D0:
 BYTE   W96
//  #02 //005   ----------------------------------------
 BYTE   W96
//  #02 //006   ----------------------------------------
 BYTE   W96
//  #02 //007   ----------------------------------------
 BYTE   W96
//  #02 //008   ----------------------------------------
 BYTE   W96
//  #02 //009   ----------------------------------------
 BYTE   W96
//  #02 //010   ----------------------------------------
 BYTE   W96
//  #02 //011   ----------------------------------------
 BYTE   W96
//  #02 //012   ----------------------------------------
 BYTE   W96
//  #02 //013   ----------------------------------------
 BYTE   W96
//  #02 //014   ----------------------------------------
 BYTE   W96
//  #02 //015   ----------------------------------------
 BYTE   W96
//  #02 //016   ----------------------------------------
 BYTE   W96
//  #02 //017   ----------------------------------------
 BYTE   W96
//  #02 //018   ----------------------------------------
 BYTE   W96
//  #02 //019   ----------------------------------------
 BYTE   W96
//  #02 //020   ----------------------------------------
 BYTE   W96
//  #02 //021   ----------------------------------------
 BYTE   W96
//  #02 //022   ----------------------------------------
 BYTE   W96
//  #02 //023   ----------------------------------------
 BYTE   W96
//  #02 //024   ----------------------------------------
 BYTE   W96
//  #02 //025   ----------------------------------------
 BYTE   W96
//  #02 //026   ----------------------------------------
 BYTE   W96
//  #02 //027   ----------------------------------------
 BYTE   W96
//  #02 //028   ----------------------------------------
 BYTE   W96
//  #02 //029   ----------------------------------------
 BYTE   W96
//  #02 //030   ----------------------------------------
 BYTE   W96
//  #02 //031   ----------------------------------------
 BYTE   W96
//  #02 //032   ----------------------------------------
 BYTE   W96
//  #02 //033   ----------------------------------------
 BYTE   W96
//  #02 //034   ----------------------------------------
 BYTE   W96
//  #02 //035   ----------------------------------------
 BYTE   W96
//  #02 //036   ----------------------------------------
 BYTE   W96
//  #02 //037   ----------------------------------------
 BYTE   W96
//  #02 //038   ----------------------------------------
 BYTE   W96
//  #02 //039   ----------------------------------------
 BYTE   W96
//  #02 //040   ----------------------------------------
 BYTE   W96
//  #02 //041   ----------------------------------------
 BYTE   W96
//  #02 //042   ----------------------------------------
 BYTE   W96
//  #02 //043   ----------------------------------------
 BYTE   W96
//  #02 //044   ----------------------------------------
 BYTE   W96
//  #02 //045   ----------------------------------------
 BYTE   W96
//  #02 //046   ----------------------------------------
 BYTE   W96
//  #02 //047   ----------------------------------------
 BYTE   W96
//  #02 //048   ----------------------------------------
 BYTE   W96
//  #02 //049   ----------------------------------------
 BYTE   W96
//  #02 //050   ----------------------------------------
 BYTE   W96
//  #02 //051   ----------------------------------------
 BYTE   W96
//  #02 //052   ----------------------------------------
 BYTE   W96
//  #02 //053   ----------------------------------------
 BYTE   W96
//  #02 //054   ----------------------------------------
 BYTE   W96
//  #02 //055   ----------------------------------------
 BYTE   W96
//  #02 //056   ----------------------------------------
 BYTE   W96
//  #02 //057   ----------------------------------------
 BYTE   W96
//  #02 //058   ----------------------------------------
 BYTE   W96
//  #02 //059   ----------------------------------------
 BYTE   W96
//  #02 //060   ----------------------------------------
 BYTE   W96
//  #02 //061   ----------------------------------------
 BYTE   W96
//  #02 //062   ----------------------------------------
 BYTE   W96
//  #02 //063   ----------------------------------------
 BYTE   W96
//  #02 //064   ----------------------------------------
 BYTE   W96
//  #02 //065   ----------------------------------------
 BYTE   W96
//  #02 //066   ----------------------------------------
 BYTE   W96
//  #02 //067   ----------------------------------------
 BYTE   W96
//  #02 //068   ----------------------------------------
Label_CF6A10:
 BYTE   W12
 BYTE   N12  An2  v127
 BYTE   W24
 BYTE   N12
 BYTE   W24
 BYTE   N12
 BYTE   W24
 BYTE   N12
 BYTE   W12
 BYTE   PEND 
//  #02 //069   ----------------------------------------
 BYTE   PATT
  POIN2 Label_CF6A10
//  #02 //070   ----------------------------------------
 BYTE   PATT
  POIN2 Label_CF6A10
//  #02 //071   ----------------------------------------
 BYTE   PATT
  POIN2 Label_CF6A10
//  #02 //072   ----------------------------------------
 BYTE   W96
//  #02 //073   ----------------------------------------
 BYTE   W96
//  #02 //074   ----------------------------------------
 BYTE   W96
//  #02 //075   ----------------------------------------
 BYTE   W96
//  #02 //076   ----------------------------------------
 BYTE   W96
//  #02 //077   ----------------------------------------
 BYTE   W96
//  #02 //078   ----------------------------------------
 BYTE   W96
//  #02 //079   ----------------------------------------
 BYTE   W96
//  #02 //080   ----------------------------------------
 BYTE   W96
//  #02 //081   ----------------------------------------
 BYTE   W96
//  #02 //082   ----------------------------------------
 BYTE   W96
//  #02 //083   ----------------------------------------
 BYTE   W96
//  #02 //084   ----------------------------------------
 BYTE   GoTo
  POIN2 Label_CF69D0
 BYTE   FINE

//**************** Track 3 (Midi-Chn.2) ****************//

DiscoDescent_003:
//  #03 //000   ----------------------------------------
 BYTE   KEYSH   DiscoDescent_key+0
 BYTE   VOICE   81
 BYTE   VOL   47*DiscoDescent_mvl/mxv
 BYTE   W96
//  #03 //001   ----------------------------------------
 BYTE   W96
//  #03 //002   ----------------------------------------
 BYTE   W96
//  #03 //003   ----------------------------------------
 BYTE   W96
//  #03 //004   ----------------------------------------
Label_CF6A4A:
 BYTE   W12
 BYTE   N12  Cn3  v127
 BYTE   W24
 BYTE   N12
 BYTE   W24
 BYTE   N12
 BYTE   W24
 BYTE   N12
 BYTE   W12
 BYTE   PEND 
//  #03 //005   ----------------------------------------
 BYTE   W12
 BYTE   N12
 BYTE   W24
 BYTE   N12
 BYTE   W24
 BYTE   Bn2
 BYTE   W24
 BYTE   N12
 BYTE   W12
//  #03 //006   ----------------------------------------
Label_CF6A5F:
 BYTE   W12
 BYTE   N12  An2  v127
 BYTE   W24
 BYTE   N12
 BYTE   W24
 BYTE   N12
 BYTE   W24
 BYTE   N12
 BYTE   W12
 BYTE   PEND 
//  #03 //007   ----------------------------------------
 BYTE   W12
 BYTE   N12
 BYTE   W24
 BYTE   N12
 BYTE   W24
 BYTE   Gs2
 BYTE   W24
 BYTE   N12
 BYTE   W12
//  #03 //008   ----------------------------------------
Label_CF6A74:
 BYTE   W12
 BYTE   N12  Cn3  v127
 BYTE   N12  En3
 BYTE   W24
 BYTE   Cn3
 BYTE   N12  En3
 BYTE   W24
 BYTE   Cn3
 BYTE   N12  En3
 BYTE   W24
 BYTE   Cn3
 BYTE   N12  En3
 BYTE   W12
 BYTE   PEND 
//  #03 //009   ----------------------------------------
 BYTE   PATT
  POIN2 Label_CF6A74
//  #03 //010   ----------------------------------------
 BYTE   W12
 BYTE   N12  Cn3  v127
 BYTE   N12  Fn3
 BYTE   W24
 BYTE   Cn3
 BYTE   N12  Fn3
 BYTE   W24
 BYTE   Cn3
 BYTE   N12  Fn3
 BYTE   W24
 BYTE   Cn3
 BYTE   N12  Fn3
 BYTE   W12
//  #03 //011   ----------------------------------------
 BYTE   W12
 BYTE   Cn3
 BYTE   N12  En3
 BYTE   W24
 BYTE   Cn3
 BYTE   N12  En3
 BYTE   W24
 BYTE   N12
 BYTE   N12  Gs3
 BYTE   W24
 BYTE   En3
 BYTE   N12  Gs3
 BYTE   W12
//  #03 //012   ----------------------------------------
 BYTE   W96
//  #03 //013   ----------------------------------------
 BYTE   W96
//  #03 //014   ----------------------------------------
 BYTE   W96
//  #03 //015   ----------------------------------------
 BYTE   W96
//  #03 //016   ----------------------------------------
 BYTE   W36
 BYTE   An2
 BYTE   W24
 BYTE   N12
 BYTE   W24
 BYTE   N12
 BYTE   W12
//  #03 //017   ----------------------------------------
 BYTE   W12
 BYTE   Gn2
 BYTE   W24
 BYTE   N12
 BYTE   W24
 BYTE   N12
 BYTE   W24
 BYTE   N12
 BYTE   W12
//  #03 //018   ----------------------------------------
 BYTE   W24
 BYTE   N24  Fn2
 BYTE   W24
 BYTE   An2
 BYTE   W24
 BYTE   En3
 BYTE   W24
//  #03 //019   ----------------------------------------
 BYTE   W24
 BYTE   En2
 BYTE   W24
 BYTE   Gs2
 BYTE   W24
 BYTE   N12  En3
 BYTE   W12
 BYTE   N06
 BYTE   W06
 BYTE   N06
 BYTE   W06
//  #03 //020   ----------------------------------------
 BYTE   W12
 BYTE   N12  An2
 BYTE   W24
 BYTE   N06
 BYTE   W06
 BYTE   Bn2
 BYTE   W06
 BYTE   N36  Cn3
 BYTE   W36
 BYTE   N06  Bn2
 BYTE   W06
 BYTE   Cn3
 BYTE   W06
//  #03 //021   ----------------------------------------
 BYTE   N36  Dn3
 BYTE   W36
 BYTE   N06  Cn3
 BYTE   W06
 BYTE   Dn3
 BYTE   W06
 BYTE   N24  En3
 BYTE   W24
 BYTE   Fn3
 BYTE   W24
//  #03 //022   ----------------------------------------
 BYTE   N48  Cn3
 BYTE   W48
 BYTE   N36  An2
 BYTE   W36
 BYTE   N06  Gn2
 BYTE   W06
 BYTE   An2
 BYTE   W06
//  #03 //023   ----------------------------------------
 BYTE   N48  Bn2
 BYTE   W48
 BYTE   N30  Gs2
 BYTE   W30
 BYTE   N06  An2
 BYTE   W06
 BYTE   Bn2
 BYTE   W06
 BYTE   Dn3
 BYTE   W06
//  #03 //024   ----------------------------------------
 BYTE   N48  En3
 BYTE   W48
 BYTE   Dn3
 BYTE   W48
//  #03 //025   ----------------------------------------
 BYTE   Cn3
 BYTE   W48
 BYTE   Bn2
 BYTE   W48
//  #03 //026   ----------------------------------------
 BYTE   N24  An2
 BYTE   W24
 BYTE   Bn2
 BYTE   W24
 BYTE   Cn3
 BYTE   W24
 BYTE   Fn3
 BYTE   W24
//  #03 //027   ----------------------------------------
 BYTE   N36  Dn3
 BYTE   W36
 BYTE   N06
 BYTE   W06
 BYTE   Ds3
 BYTE   W06
 BYTE   N48  En3
 BYTE   W48
//  #03 //028   ----------------------------------------
 BYTE   W96
//  #03 //029   ----------------------------------------
 BYTE   W96
//  #03 //030   ----------------------------------------
 BYTE   W96
//  #03 //031   ----------------------------------------
 BYTE   W96
//  #03 //032   ----------------------------------------
 BYTE   W96
//  #03 //033   ----------------------------------------
 BYTE   W96
//  #03 //034   ----------------------------------------
 BYTE   W96
//  #03 //035   ----------------------------------------
 BYTE   W96
//  #03 //036   ----------------------------------------
 BYTE   W96
//  #03 //037   ----------------------------------------
 BYTE   W96
//  #03 //038   ----------------------------------------
 BYTE   W96
//  #03 //039   ----------------------------------------
 BYTE   W96
//  #03 //040   ----------------------------------------
 BYTE   W96
//  #03 //041   ----------------------------------------
 BYTE   W96
//  #03 //042   ----------------------------------------
 BYTE   W96
//  #03 //043   ----------------------------------------
 BYTE   W96
//  #03 //044   ----------------------------------------
 BYTE   W96
//  #03 //045   ----------------------------------------
 BYTE   W96
//  #03 //046   ----------------------------------------
 BYTE   W96
//  #03 //047   ----------------------------------------
 BYTE   W96
//  #03 //048   ----------------------------------------
 BYTE   W96
//  #03 //049   ----------------------------------------
 BYTE   W96
//  #03 //050   ----------------------------------------
 BYTE   W96
//  #03 //051   ----------------------------------------
 BYTE   W96
//  #03 //052   ----------------------------------------
 BYTE   W96
//  #03 //053   ----------------------------------------
 BYTE   W96
//  #03 //054   ----------------------------------------
 BYTE   W96
//  #03 //055   ----------------------------------------
 BYTE   W96
//  #03 //056   ----------------------------------------
 BYTE   W96
//  #03 //057   ----------------------------------------
 BYTE   W96
//  #03 //058   ----------------------------------------
 BYTE   W96
//  #03 //059   ----------------------------------------
 BYTE   W96
//  #03 //060   ----------------------------------------
 BYTE   W96
//  #03 //061   ----------------------------------------
 BYTE   W96
//  #03 //062   ----------------------------------------
 BYTE   W96
//  #03 //063   ----------------------------------------
 BYTE   W96
//  #03 //064   ----------------------------------------
 BYTE   W96
//  #03 //065   ----------------------------------------
 BYTE   W96
//  #03 //066   ----------------------------------------
 BYTE   W96
//  #03 //067   ----------------------------------------
 BYTE   W96
//  #03 //068   ----------------------------------------
Label_CF6B52:
 BYTE   W12
 BYTE   N12  An3  v127
 BYTE   W24
 BYTE   N12
 BYTE   W24
 BYTE   N12
 BYTE   W24
 BYTE   N12
 BYTE   W12
 BYTE   PEND 
//  #03 //069   ----------------------------------------
 BYTE   PATT
  POIN2 Label_CF6B52
//  #03 //070   ----------------------------------------
 BYTE   PATT
  POIN2 Label_CF6B52
//  #03 //071   ----------------------------------------
 BYTE   PATT
  POIN2 Label_CF6B52
//  #03 //072   ----------------------------------------
 BYTE   PATT
  POIN2 Label_CF6B52
//  #03 //073   ----------------------------------------
 BYTE   W12
 BYTE   N12  Gs3  v127
 BYTE   W24
 BYTE   N12
 BYTE   W24
 BYTE   N12
 BYTE   W24
 BYTE   N12
 BYTE   W12
//  #03 //074   ----------------------------------------
 BYTE   W12
 BYTE   Fn3
 BYTE   W24
 BYTE   N12
 BYTE   W24
 BYTE   N12
 BYTE   W24
 BYTE   N12
 BYTE   W12
//  #03 //075   ----------------------------------------
 BYTE   W12
 BYTE   En3
 BYTE   W24
 BYTE   N12
 BYTE   W24
 BYTE   Dn3
 BYTE   W24
 BYTE   N12
 BYTE   W12
//  #03 //076   ----------------------------------------
 BYTE   PATT
  POIN2 Label_CF6A4A
//  #03 //077   ----------------------------------------
 BYTE   W12
 BYTE   N12  Bn2  v127
 BYTE   W24
 BYTE   N12
 BYTE   W24
 BYTE   N12
 BYTE   W24
 BYTE   N12
 BYTE   W12
//  #03 //078   ----------------------------------------
 BYTE   PATT
  POIN2 Label_CF6A5F
//  #03 //079   ----------------------------------------
 BYTE   W12
 BYTE   N12  Gs2  v127
 BYTE   W24
 BYTE   N12
 BYTE   W24
 BYTE   Fn2
 BYTE   W24
 BYTE   N12
 BYTE   W12
//  #03 //080   ----------------------------------------
 BYTE   W12
 BYTE   En2
 BYTE   W24
 BYTE   N12
 BYTE   W24
 BYTE   N12
 BYTE   W24
 BYTE   N12
 BYTE   W12
//  #03 //081   ----------------------------------------
 BYTE   W12
 BYTE   Dn2
 BYTE   W24
 BYTE   N12
 BYTE   W24
 BYTE   N12
 BYTE   W24
 BYTE   N12
 BYTE   W12
//  #03 //082   ----------------------------------------
 BYTE   W12
 BYTE   Cn2
 BYTE   W24
 BYTE   N12
 BYTE   W24
 BYTE   N12
 BYTE   W24
 BYTE   N12
 BYTE   W12
//  #03 //083   ----------------------------------------
 BYTE   W12
 BYTE   Bn1
 BYTE   W24
 BYTE   N12
 BYTE   W24
 BYTE   N12
 BYTE   W24
 BYTE   An1
 BYTE   W12
//  #03 //084   ----------------------------------------
 BYTE   GoTo
  POIN2 Label_CF6A4A
 BYTE   FINE

//**************** Track 4 (Midi-Chn.3) ****************//

DiscoDescent_004:
//  #04 //000   ----------------------------------------
 BYTE   KEYSH   DiscoDescent_key+0
 BYTE   VOICE   11
 BYTE   VOL   29*DiscoDescent_mvl/mxv
 BYTE   N06  An2  v127
 BYTE   W06
 BYTE   N06
 BYTE   W30
 BYTE   N06
 BYTE   W06
 BYTE   N06
 BYTE   W30
 BYTE   Cn3
 BYTE   W06
 BYTE   N06
 BYTE   W18
//  #04 //001   ----------------------------------------
 BYTE   An2
 BYTE   W06
 BYTE   N06
 BYTE   W30
 BYTE   N06
 BYTE   W06
 BYTE   N06
 BYTE   W30
 BYTE   N06
 BYTE   W06
 BYTE   N06
 BYTE   W18
//  #04 //002   ----------------------------------------
 BYTE   N06
 BYTE   W06
 BYTE   N06
 BYTE   W30
 BYTE   N06
 BYTE   W06
 BYTE   N06
 BYTE   W30
 BYTE   Cn3
 BYTE   W06
 BYTE   N06
 BYTE   W18
//  #04 //003   ----------------------------------------
 BYTE   An2
 BYTE   W06
 BYTE   N06
 BYTE   W30
 BYTE   N06
 BYTE   W06
 BYTE   N06
 BYTE   W54
//  #04 //004   ----------------------------------------
Label_CF5B5C:
 BYTE   W96
//  #04 //005   ----------------------------------------
 BYTE   W96
//  #04 //006   ----------------------------------------
 BYTE   W96
//  #04 //007   ----------------------------------------
 BYTE   W96
//  #04 //008   ----------------------------------------
 BYTE   W96
//  #04 //009   ----------------------------------------
 BYTE   W96
//  #04 //010   ----------------------------------------
 BYTE   W96
//  #04 //011   ----------------------------------------
 BYTE   W96
//  #04 //012   ----------------------------------------
 BYTE   W96
//  #04 //013   ----------------------------------------
 BYTE   W96
//  #04 //014   ----------------------------------------
 BYTE   W96
//  #04 //015   ----------------------------------------
 BYTE   W96
//  #04 //016   ----------------------------------------
 BYTE   W96
//  #04 //017   ----------------------------------------
 BYTE   W96
//  #04 //018   ----------------------------------------
 BYTE   W96
//  #04 //019   ----------------------------------------
 BYTE   W96
//  #04 //020   ----------------------------------------
 BYTE   W96
//  #04 //021   ----------------------------------------
 BYTE   W96
//  #04 //022   ----------------------------------------
 BYTE   W96
//  #04 //023   ----------------------------------------
 BYTE   W96
//  #04 //024   ----------------------------------------
 BYTE   W24
 BYTE   N03  Cn4  v127
 BYTE   W06
 BYTE   N03
 BYTE   W42
 BYTE   N03
 BYTE   W06
 BYTE   N03
 BYTE   W06
 BYTE   An4
 BYTE   W03
 BYTE   Cn5
 BYTE   W03
 BYTE   An4
 BYTE   W03
 BYTE   Cn4
 BYTE   W03
//  #04 //025   ----------------------------------------
 BYTE   W12
 BYTE   En4
 BYTE   W06
 BYTE   N03
 BYTE   W18
 BYTE   N03
 BYTE   W06
 BYTE   N03
 BYTE   W18
 BYTE   Dn4
 BYTE   W06
 BYTE   N03
 BYTE   W18
 BYTE   Cn4
 BYTE   W06
 BYTE   Bn3
 BYTE   W06
//  #04 //026   ----------------------------------------
 BYTE   An3
 BYTE   W06
 BYTE   N03
 BYTE   W30
 BYTE   N03
 BYTE   W06
 BYTE   N03
 BYTE   W30
 BYTE   N03
 BYTE   W06
 BYTE   N03
 BYTE   W06
 BYTE   En4
 BYTE   W03
 BYTE   An4
 BYTE   W03
 BYTE   En4
 BYTE   W03
 BYTE   An3
 BYTE   W03
//  #04 //027   ----------------------------------------
 BYTE   N03
 BYTE   W06
 BYTE   N03
 BYTE   W42
 BYTE   Cn4
 BYTE   W06
 BYTE   N03
 BYTE   W42
//  #04 //028   ----------------------------------------
 BYTE   W12
 BYTE   N06  An3
 BYTE   W06
 BYTE   Cn4
 BYTE   W18
 BYTE   N06
 BYTE   W06
 BYTE   N06
 BYTE   W18
 BYTE   N06
 BYTE   W06
 BYTE   N06
 BYTE   W18
 BYTE   Bn3
 BYTE   W06
 BYTE   An3
 BYTE   W06
//  #04 //029   ----------------------------------------
 BYTE   W12
 BYTE   N06
 BYTE   W06
 BYTE   N06
 BYTE   W18
 BYTE   N06
 BYTE   W06
 BYTE   N06
 BYTE   W18
 BYTE   N06
 BYTE   W06
 BYTE   N06
 BYTE   W18
 BYTE   N06
 BYTE   W06
 BYTE   En3
 BYTE   W06
//  #04 //030   ----------------------------------------
 BYTE   W12
 BYTE   N06
 BYTE   W06
 BYTE   N06
 BYTE   W18
 BYTE   N06
 BYTE   W06
 BYTE   N06
 BYTE   W18
 BYTE   N06
 BYTE   W06
 BYTE   N06
 BYTE   W18
 BYTE   Ds3
 BYTE   W06
 BYTE   Bn2
 BYTE   W06
//  #04 //031   ----------------------------------------
 BYTE   W12
 BYTE   N06
 BYTE   W06
 BYTE   N06
 BYTE   W18
 BYTE   N06
 BYTE   W06
 BYTE   N06
 BYTE   W18
 BYTE   N06
 BYTE   W06
 BYTE   N06
 BYTE   W18
 BYTE   N06
 BYTE   W06
 BYTE   An2
 BYTE   W06
//  #04 //032   ----------------------------------------
 BYTE   W96
//  #04 //033   ----------------------------------------
 BYTE   W96
//  #04 //034   ----------------------------------------
 BYTE   W96
//  #04 //035   ----------------------------------------
 BYTE   W96
//  #04 //036   ----------------------------------------
 BYTE   W96
//  #04 //037   ----------------------------------------
 BYTE   W96
//  #04 //038   ----------------------------------------
 BYTE   W96
//  #04 //039   ----------------------------------------
 BYTE   W96
//  #04 //040   ----------------------------------------
 BYTE   W96
//  #04 //041   ----------------------------------------
 BYTE   W96
//  #04 //042   ----------------------------------------
 BYTE   W96
//  #04 //043   ----------------------------------------
 BYTE   W96
//  #04 //044   ----------------------------------------
 BYTE   W96
//  #04 //045   ----------------------------------------
 BYTE   W96
//  #04 //046   ----------------------------------------
 BYTE   W96
//  #04 //047   ----------------------------------------
 BYTE   W96
//  #04 //048   ----------------------------------------
 BYTE   W96
//  #04 //049   ----------------------------------------
 BYTE   W96
//  #04 //050   ----------------------------------------
 BYTE   W96
//  #04 //051   ----------------------------------------
 BYTE   W96
//  #04 //052   ----------------------------------------
 BYTE   W96
//  #04 //053   ----------------------------------------
 BYTE   W96
//  #04 //054   ----------------------------------------
 BYTE   W96
//  #04 //055   ----------------------------------------
 BYTE   W96
//  #04 //056   ----------------------------------------
 BYTE   W96
//  #04 //057   ----------------------------------------
 BYTE   W96
//  #04 //058   ----------------------------------------
 BYTE   W96
//  #04 //059   ----------------------------------------
 BYTE   W96
//  #04 //060   ----------------------------------------
 BYTE   W96
//  #04 //061   ----------------------------------------
 BYTE   W96
//  #04 //062   ----------------------------------------
 BYTE   W96
//  #04 //063   ----------------------------------------
 BYTE   W96
//  #04 //064   ----------------------------------------
 BYTE   W96
//  #04 //065   ----------------------------------------
 BYTE   W96
//  #04 //066   ----------------------------------------
 BYTE   W96
//  #04 //067   ----------------------------------------
 BYTE   W96
//  #04 //068   ----------------------------------------
 BYTE   W96
//  #04 //069   ----------------------------------------
 BYTE   W96
//  #04 //070   ----------------------------------------
 BYTE   W96
//  #04 //071   ----------------------------------------
 BYTE   W96
//  #04 //072   ----------------------------------------
Label_CF5C1D:
 BYTE   W12
 BYTE   N06  An3  v127
 BYTE   W06
 BYTE   N06
 BYTE   W18
 BYTE   Fn4
 BYTE   W06
 BYTE   N06
 BYTE   W06
 BYTE   N06
 BYTE   W12
 BYTE   N12  Dn4
 BYTE   W24
 BYTE   N03  Fn4
 BYTE   W03
 BYTE   N03
 BYTE   W03
 BYTE   N03
 BYTE   W03
 BYTE   N03
 BYTE   W03
 BYTE   PEND 
//  #04 //073   ----------------------------------------
Label_CF5C37:
 BYTE   W12
 BYTE   N06  An3  v127
 BYTE   W06
 BYTE   N06
 BYTE   W18
 BYTE   En4
 BYTE   W06
 BYTE   N06
 BYTE   W06
 BYTE   N06
 BYTE   W12
 BYTE   N12  Dn4
 BYTE   W24
 BYTE   N03  En4
 BYTE   W03
 BYTE   N03
 BYTE   W03
 BYTE   N03
 BYTE   W03
 BYTE   N03
 BYTE   W03
 BYTE   PEND 
//  #04 //074   ----------------------------------------
 BYTE   PATT
  POIN2 Label_CF5C1D
//  #04 //075   ----------------------------------------
 BYTE   PATT
  POIN2 Label_CF5C37
//  #04 //076   ----------------------------------------
 BYTE   PATT
  POIN2 Label_CF5C1D
//  #04 //077   ----------------------------------------
 BYTE   PATT
  POIN2 Label_CF5C37
//  #04 //078   ----------------------------------------
 BYTE   PATT
  POIN2 Label_CF5C1D
//  #04 //079   ----------------------------------------
 BYTE   PATT
  POIN2 Label_CF5C37
//  #04 //080   ----------------------------------------
 BYTE   PATT
  POIN2 Label_CF5C1D
//  #04 //081   ----------------------------------------
 BYTE   PATT
  POIN2 Label_CF5C37
//  #04 //082   ----------------------------------------
 BYTE   PATT
  POIN2 Label_CF5C1D
//  #04 //083   ----------------------------------------
 BYTE   PATT
  POIN2 Label_CF5C37
//  #04 //084   ----------------------------------------
 BYTE   GoTo
  POIN2 Label_CF5B5C
 BYTE   FINE

//**************** Track 5 (Midi-Chn.4) ****************//

DiscoDescent_005:
//  #05 //000   ----------------------------------------
 BYTE   KEYSH   DiscoDescent_key+0
 BYTE   VOICE   48
 BYTE   VOL   35*DiscoDescent_mvl/mxv
 BYTE   W96
//  #05 //001   ----------------------------------------
 BYTE   W96
//  #05 //002   ----------------------------------------
 BYTE   W96
//  #05 //003   ----------------------------------------
 BYTE   W96
//  #05 //004   ----------------------------------------
Label_CF6BE6:
 BYTE   W96
//  #05 //005   ----------------------------------------
 BYTE   W96
//  #05 //006   ----------------------------------------
 BYTE   W96
//  #05 //007   ----------------------------------------
 BYTE   W96
//  #05 //008   ----------------------------------------
 BYTE   W96
//  #05 //009   ----------------------------------------
 BYTE   W96
//  #05 //010   ----------------------------------------
 BYTE   W96
//  #05 //011   ----------------------------------------
 BYTE   W96
//  #05 //012   ----------------------------------------
 BYTE   W96
//  #05 //013   ----------------------------------------
 BYTE   W96
//  #05 //014   ----------------------------------------
 BYTE   N06  En3  v127
 BYTE   W06
 BYTE   Cn3
 BYTE   W06
 BYTE   An2
 BYTE   W06
 BYTE   En2
 BYTE   W06
 BYTE   Cn2
 BYTE   W06
 BYTE   An1
 BYTE   W18
 BYTE   An3
 BYTE   W06
 BYTE   En3
 BYTE   W06
 BYTE   Cn3
 BYTE   W06
 BYTE   An2
 BYTE   W06
 BYTE   En2
 BYTE   W06
 BYTE   Cn2
 BYTE   W18
//  #05 //015   ----------------------------------------
 BYTE   En4
 BYTE   W06
 BYTE   Cn4
 BYTE   W06
 BYTE   An3
 BYTE   W06
 BYTE   En3
 BYTE   W06
 BYTE   Cn3
 BYTE   W06
 BYTE   An2
 BYTE   W18
 BYTE   An4
 BYTE   W06
 BYTE   En4
 BYTE   W06
 BYTE   Cn4
 BYTE   W06
 BYTE   An3
 BYTE   W06
 BYTE   An4
 BYTE   W06
 BYTE   Gs4
 BYTE   W06
 BYTE   Cn5
 BYTE   W06
 BYTE   An4
 BYTE   W06
//  #05 //016   ----------------------------------------
 BYTE   W96
//  #05 //017   ----------------------------------------
 BYTE   W96
//  #05 //018   ----------------------------------------
 BYTE   W96
//  #05 //019   ----------------------------------------
 BYTE   W96
//  #05 //020   ----------------------------------------
 BYTE   W96
//  #05 //021   ----------------------------------------
 BYTE   W96
//  #05 //022   ----------------------------------------
 BYTE   W96
//  #05 //023   ----------------------------------------
 BYTE   W96
//  #05 //024   ----------------------------------------
 BYTE   W96
//  #05 //025   ----------------------------------------
 BYTE   W96
//  #05 //026   ----------------------------------------
 BYTE   W96
//  #05 //027   ----------------------------------------
 BYTE   W96
//  #05 //028   ----------------------------------------
 BYTE   W96
//  #05 //029   ----------------------------------------
 BYTE   W96
//  #05 //030   ----------------------------------------
 BYTE   W96
//  #05 //031   ----------------------------------------
 BYTE   W96
//  #05 //032   ----------------------------------------
 BYTE   W96
//  #05 //033   ----------------------------------------
 BYTE   W96
//  #05 //034   ----------------------------------------
 BYTE   W96
//  #05 //035   ----------------------------------------
 BYTE   W96
//  #05 //036   ----------------------------------------
 BYTE   W96
//  #05 //037   ----------------------------------------
 BYTE   W96
//  #05 //038   ----------------------------------------
 BYTE   W96
//  #05 //039   ----------------------------------------
 BYTE   W96
//  #05 //040   ----------------------------------------
 BYTE   W96
//  #05 //041   ----------------------------------------
 BYTE   W96
//  #05 //042   ----------------------------------------
 BYTE   W96
//  #05 //043   ----------------------------------------
 BYTE   W96
//  #05 //044   ----------------------------------------
 BYTE   W96
//  #05 //045   ----------------------------------------
 BYTE   W96
//  #05 //046   ----------------------------------------
 BYTE   W96
//  #05 //047   ----------------------------------------
 BYTE   W96
//  #05 //048   ----------------------------------------
 BYTE   W96
//  #05 //049   ----------------------------------------
 BYTE   W96
//  #05 //050   ----------------------------------------
 BYTE   W96
//  #05 //051   ----------------------------------------
 BYTE   W96
//  #05 //052   ----------------------------------------
 BYTE   W96
//  #05 //053   ----------------------------------------
 BYTE   W96
//  #05 //054   ----------------------------------------
 BYTE   W96
//  #05 //055   ----------------------------------------
 BYTE   W96
//  #05 //056   ----------------------------------------
 BYTE   W96
//  #05 //057   ----------------------------------------
 BYTE   W96
//  #05 //058   ----------------------------------------
 BYTE   W96
//  #05 //059   ----------------------------------------
 BYTE   W96
//  #05 //060   ----------------------------------------
 BYTE   W96
//  #05 //061   ----------------------------------------
 BYTE   W96
//  #05 //062   ----------------------------------------
 BYTE   W96
//  #05 //063   ----------------------------------------
 BYTE   W96
//  #05 //064   ----------------------------------------
 BYTE   W96
//  #05 //065   ----------------------------------------
 BYTE   W96
//  #05 //066   ----------------------------------------
 BYTE   W96
//  #05 //067   ----------------------------------------
 BYTE   W96
//  #05 //068   ----------------------------------------
 BYTE   W96
//  #05 //069   ----------------------------------------
 BYTE   W96
//  #05 //070   ----------------------------------------
 BYTE   W96
//  #05 //071   ----------------------------------------
 BYTE   W96
//  #05 //072   ----------------------------------------
 BYTE   W96
//  #05 //073   ----------------------------------------
 BYTE   W96
//  #05 //074   ----------------------------------------
 BYTE   W96
//  #05 //075   ----------------------------------------
 BYTE   W96
//  #05 //076   ----------------------------------------
 BYTE   W96
//  #05 //077   ----------------------------------------
 BYTE   W96
//  #05 //078   ----------------------------------------
 BYTE   W96
//  #05 //079   ----------------------------------------
 BYTE   W96
//  #05 //080   ----------------------------------------
 BYTE   W96
//  #05 //081   ----------------------------------------
 BYTE   W96
//  #05 //082   ----------------------------------------
 BYTE   W96
//  #05 //083   ----------------------------------------
 BYTE   W96
//  #05 //084   ----------------------------------------
 BYTE   GoTo
  POIN2 Label_CF6BE6
 BYTE   FINE

//**************** Track 6 (Midi-Chn.5) ****************//

DiscoDescent_006:
//  #06 //000   ----------------------------------------
 BYTE   KEYSH   DiscoDescent_key+0
 BYTE   VOICE   81
 BYTE   VOL   44*DiscoDescent_mvl/mxv
 BYTE   W96
//  #06 //001   ----------------------------------------
 BYTE   W96
//  #06 //002   ----------------------------------------
 BYTE   W96
//  #06 //003   ----------------------------------------
 BYTE   W96
//  #06 //004   ----------------------------------------
Label_CF5C96:
 BYTE   N12  An2  v096
 BYTE   W24
 BYTE   N12
 BYTE   W24
 BYTE   N12
 BYTE   W24
 BYTE   N12
 BYTE   W24
 BYTE   PEND 
//  #06 //005   ----------------------------------------
Label_CF5CA1:
 BYTE   N12  Gn2  v096
 BYTE   W24
 BYTE   N12
 BYTE   W24
 BYTE   N12
 BYTE   W24
 BYTE   N12
 BYTE   W24
 BYTE   PEND 
//  #06 //006   ----------------------------------------
Label_CF5CAC:
 BYTE   N12  Fn2  v096
 BYTE   W24
 BYTE   N12
 BYTE   W24
 BYTE   N12
 BYTE   W24
 BYTE   N12
 BYTE   W24
 BYTE   PEND 
//  #06 //007   ----------------------------------------
Label_CF5CB7:
 BYTE   N12  Dn2  v096
 BYTE   W24
 BYTE   N12
 BYTE   W24
 BYTE   En2
 BYTE   W24
 BYTE   N12
 BYTE   W24
 BYTE   PEND 
//  #06 //008   ----------------------------------------
 BYTE   PATT
  POIN2 Label_CF5C96
//  #06 //009   ----------------------------------------
 BYTE   PATT
  POIN2 Label_CF5CA1
//  #06 //010   ----------------------------------------
 BYTE   PATT
  POIN2 Label_CF5CAC
//  #06 //011   ----------------------------------------
 BYTE   PATT
  POIN2 Label_CF5CB7
//  #06 //012   ----------------------------------------
 BYTE   W96
//  #06 //013   ----------------------------------------
 BYTE   W96
//  #06 //014   ----------------------------------------
 BYTE   W96
//  #06 //015   ----------------------------------------
 BYTE   W96
//  #06 //016   ----------------------------------------
 BYTE   N06  En3  v096
 BYTE   W18
 BYTE   N06
 BYTE   W06
 BYTE   N60  An3
 BYTE   W60
 BYTE   N06  Gn3
 BYTE   W06
 BYTE   An3
 BYTE   W06
//  #06 //017   ----------------------------------------
 BYTE   N12  Bn3
 BYTE   W12
 BYTE   Cn4
 BYTE   W12
 BYTE   N06  Bn3
 BYTE   W06
 BYTE   Cn4
 BYTE   W06
 BYTE   Bn3
 BYTE   W06
 BYTE   Gn3
 BYTE   W06
 BYTE   N12  Bn3
 BYTE   W12
 BYTE   Cn4
 BYTE   W12
 BYTE   N06  Bn3
 BYTE   W06
 BYTE   N18  Gn3
 BYTE   W18
//  #06 //018   ----------------------------------------
 BYTE   N84  An3
 BYTE   W84
 BYTE   N06  Fn3
 BYTE   W06
 BYTE   Gn3
 BYTE   W06
//  #06 //019   ----------------------------------------
 BYTE   N48  An3
 BYTE   W48
 BYTE   Gs3
 BYTE   W48
//  #06 //020   ----------------------------------------
 BYTE   N06  An3
 BYTE   W18
 BYTE   N06
 BYTE   W06
 BYTE   N60  En4
 BYTE   W60
 BYTE   N06  Dn4
 BYTE   W06
 BYTE   En4
 BYTE   W06
//  #06 //021   ----------------------------------------
 BYTE   N12  Fn4
 BYTE   W12
 BYTE   N06  En4
 BYTE   W06
 BYTE   Fn4
 BYTE   W06
 BYTE   N12  Gn4
 BYTE   W12
 BYTE   N06  Fn4
 BYTE   W06
 BYTE   Gn4
 BYTE   W06
 BYTE   N12  Cn5
 BYTE   W12
 BYTE   Bn4
 BYTE   W12
 BYTE   An4
 BYTE   W12
 BYTE   Gn4
 BYTE   W12
//  #06 //022   ----------------------------------------
 BYTE   N84  An4
 BYTE   W84
 BYTE   N06  Fn4
 BYTE   W06
 BYTE   Gn4
 BYTE   W06
//  #06 //023   ----------------------------------------
 BYTE   N36  An4
 BYTE   W36
 BYTE   N06  Gs4
 BYTE   W06
 BYTE   An4
 BYTE   W06
 BYTE   N24  Bn4
 BYTE   W24
 BYTE   En4
 BYTE   W24
//  #06 //024   ----------------------------------------
 BYTE   N48
 BYTE   W48
 BYTE   N36  Dn4
 BYTE   W36
 BYTE   N06  En4
 BYTE   W06
 BYTE   Dn4
 BYTE   W06
//  #06 //025   ----------------------------------------
 BYTE   N48  Cn4
 BYTE   W48
 BYTE   N24  Bn3
 BYTE   W24
 BYTE   En3
 BYTE   W24
//  #06 //026   ----------------------------------------
 BYTE   An3
 BYTE   W24
 BYTE   Fn3
 BYTE   W24
 BYTE   An3
 BYTE   W24
 BYTE   N12  Cn4
 BYTE   W12
 BYTE   N06  Bn3
 BYTE   W06
 BYTE   An3
 BYTE   W06
//  #06 //027   ----------------------------------------
 BYTE   N36  Bn3
 BYTE   W36
 BYTE   N06  An3
 BYTE   W06
 BYTE   Gs3
 BYTE   W06
 BYTE   N24  An3
 BYTE   W24
 BYTE   N12  Gs3
 BYTE   W12
 BYTE   En3
 BYTE   W12
//  #06 //028   ----------------------------------------
 BYTE   TIE  An3
 BYTE   W96
//  #06 //029   ----------------------------------------
 BYTE   W96
//  #06 //030   ----------------------------------------
 BYTE   EOT
 BYTE   W96
//  #06 //031   ----------------------------------------
 BYTE   W96
//  #06 //032   ----------------------------------------
 BYTE   W96
//  #06 //033   ----------------------------------------
 BYTE   W96
//  #06 //034   ----------------------------------------
 BYTE   W96
//  #06 //035   ----------------------------------------
 BYTE   W96
//  #06 //036   ----------------------------------------
 BYTE   W96
//  #06 //037   ----------------------------------------
 BYTE   W96
//  #06 //038   ----------------------------------------
 BYTE   W96
//  #06 //039   ----------------------------------------
 BYTE   W96
//  #06 //040   ----------------------------------------
 BYTE   N60
 BYTE   W60
 BYTE   N12  En3
 BYTE   W12
 BYTE   N24  En4
 BYTE   W24
//  #06 //041   ----------------------------------------
 BYTE   Gn4
 BYTE   W24
 BYTE   En4
 BYTE   W24
 BYTE   An4
 BYTE   W24
 BYTE   En4
 BYTE   W24
//  #06 //042   ----------------------------------------
 BYTE   N60  Ds4
 BYTE   W60
 BYTE   N12  Cn4
 BYTE   W12
 BYTE   N24  En4
 BYTE   W24
//  #06 //043   ----------------------------------------
 BYTE   Ds4
 BYTE   W24
 BYTE   Bn3
 BYTE   W24
 BYTE   Cn4
 BYTE   W24
 BYTE   Bn3
 BYTE   W24
//  #06 //044   ----------------------------------------
 BYTE   An3
 BYTE   W24
 BYTE   Bn3
 BYTE   W24
 BYTE   N12  An3
 BYTE   W12
 BYTE   Bn3
 BYTE   W12
 BYTE   An3
 BYTE   W12
 BYTE   En3
 BYTE   W12
//  #06 //045   ----------------------------------------
 BYTE   N72  Fn4
 BYTE   W72
 BYTE   N24  Gn4
 BYTE   W24
//  #06 //046   ----------------------------------------
 BYTE   N12  An4
 BYTE   W12
 BYTE   En4
 BYTE   W12
 BYTE   An4
 BYTE   W12
 BYTE   En4
 BYTE   W12
 BYTE   N36  Ds4
 BYTE   W36
 BYTE   N60  An3
 BYTE   W12
//  #06 //047   ----------------------------------------
 BYTE   W48
 BYTE   N12
 BYTE   W12
 BYTE   En3
 BYTE   W12
 BYTE   En4
 BYTE   W12
 BYTE   Cn4
 BYTE   W12
//  #06 //048   ----------------------------------------
 BYTE   N36  Dn4
 BYTE   W36
 BYTE   Cn4
 BYTE   W36
 BYTE   N24  Dn4
 BYTE   W24
//  #06 //049   ----------------------------------------
 BYTE   N12  An3
 BYTE   W12
 BYTE   En3
 BYTE   W12
 BYTE   An4
 BYTE   W12
 BYTE   En4
 BYTE   W12
 BYTE   N36  Ds4
 BYTE   W36
 BYTE   An3
 BYTE   W12
//  #06 //050   ----------------------------------------
 BYTE   W24
 BYTE   N24  Ds4
 BYTE   W24
 BYTE   En4
 BYTE   W24
 BYTE   N12  Gs4
 BYTE   W12
 BYTE   En4
 BYTE   W12
//  #06 //051   ----------------------------------------
 BYTE   TIE  An4
 BYTE   W96
//  #06 //052   ----------------------------------------
 BYTE   W12
 BYTE   EOT
 BYTE   W84
//  #06 //053   ----------------------------------------
 BYTE   W96
//  #06 //054   ----------------------------------------
 BYTE   W96
//  #06 //055   ----------------------------------------
 BYTE   W96
//  #06 //056   ----------------------------------------
Label_CF5DFE:
 BYTE   N06  An2  v096
 BYTE   W18
 BYTE   N06
 BYTE   W06
 BYTE   N60  En3
 BYTE   W60
 BYTE   N06  Cn3
 BYTE   W06
 BYTE   Dn3
 BYTE   W06
 BYTE   PEND 
//  #06 //057   ----------------------------------------
 BYTE   N12  En3
 BYTE   W12
 BYTE   Fn3
 BYTE   W12
 BYTE   N06  En3
 BYTE   W06
 BYTE   Fn3
 BYTE   W06
 BYTE   En3
 BYTE   W06
 BYTE   Cn3
 BYTE   W06
 BYTE   N12  En3
 BYTE   W12
 BYTE   Fn3
 BYTE   W12
 BYTE   N06  En3
 BYTE   W06
 BYTE   N18  Cn3
 BYTE   W18
//  #06 //058   ----------------------------------------
 BYTE   N48  Dn3
 BYTE   W48
 BYTE   N24  Cn3
 BYTE   W24
 BYTE   N12  An2
 BYTE   W12
 BYTE   Cn3
 BYTE   W12
//  #06 //059   ----------------------------------------
 BYTE   N36  Bn2
 BYTE   W36
 BYTE   N06  An2
 BYTE   W06
 BYTE   Gs2
 BYTE   W06
 BYTE   N24  An2
 BYTE   W24
 BYTE   N12  Gs2
 BYTE   W12
 BYTE   En2
 BYTE   W12
//  #06 //060   ----------------------------------------
 BYTE   PATT
  POIN2 Label_CF5DFE
//  #06 //061   ----------------------------------------
 BYTE   N12  En3  v096
 BYTE   W12
 BYTE   N06  Dn3
 BYTE   W06
 BYTE   En3
 BYTE   W06
 BYTE   N12  Fn3
 BYTE   W12
 BYTE   N06  En3
 BYTE   W06
 BYTE   Fn3
 BYTE   W06
 BYTE   N12  Gn3
 BYTE   W12
 BYTE   N06  Fn3
 BYTE   W06
 BYTE   Gn3
 BYTE   W06
 BYTE   N12  Cn4
 BYTE   W12
 BYTE   Bn3
 BYTE   W12
//  #06 //062   ----------------------------------------
 BYTE   N48  An3
 BYTE   W48
 BYTE   N30  Fn3
 BYTE   W30
 BYTE   N06
 BYTE   W06
 BYTE   N12  An3
 BYTE   W12
//  #06 //063   ----------------------------------------
 BYTE   N30  Gs3
 BYTE   W30
 BYTE   N06  Fn3
 BYTE   W06
 BYTE   Gs3
 BYTE   W06
 BYTE   An3
 BYTE   W06
 BYTE   N24  Bn3
 BYTE   W24
 BYTE   Dn4
 BYTE   W24
//  #06 //064   ----------------------------------------
 BYTE   N48  En4
 BYTE   W48
 BYTE   N24  Gn4
 BYTE   W24
 BYTE   N12  En4
 BYTE   W12
 BYTE   Gn4
 BYTE   W12
//  #06 //065   ----------------------------------------
 BYTE   N36  An4
 BYTE   W36
 BYTE   N06  Gs4
 BYTE   W06
 BYTE   Fs4
 BYTE   W06
 BYTE   N24  Gs4
 BYTE   W24
 BYTE   N12  En4
 BYTE   W12
 BYTE   Gs4
 BYTE   W12
//  #06 //066   ----------------------------------------
 BYTE   N24  An4
 BYTE   W24
 BYTE   En4
 BYTE   W24
 BYTE   An4
 BYTE   W24
 BYTE   Cn5
 BYTE   W24
//  #06 //067   ----------------------------------------
 BYTE   N36  Dn5
 BYTE   W36
 BYTE   N06  Cn5
 BYTE   W06
 BYTE   Dn5
 BYTE   W06
 BYTE   N48  En5
 BYTE   W48
//  #06 //068   ----------------------------------------
 BYTE   W96
//  #06 //069   ----------------------------------------
 BYTE   W96
//  #06 //070   ----------------------------------------
 BYTE   W96
//  #06 //071   ----------------------------------------
 BYTE   W96
//  #06 //072   ----------------------------------------
 BYTE   W96
//  #06 //073   ----------------------------------------
 BYTE   W96
//  #06 //074   ----------------------------------------
 BYTE   W96
//  #06 //075   ----------------------------------------
 BYTE   W96
//  #06 //076   ----------------------------------------
 BYTE   W96
//  #06 //077   ----------------------------------------
 BYTE   W96
//  #06 //078   ----------------------------------------
 BYTE   W96
//  #06 //079   ----------------------------------------
 BYTE   W96
//  #06 //080   ----------------------------------------
 BYTE   W96
//  #06 //081   ----------------------------------------
 BYTE   W96
//  #06 //082   ----------------------------------------
 BYTE   W96
//  #06 //083   ----------------------------------------
 BYTE   W96
//  #06 //084   ----------------------------------------
 BYTE   GoTo
  POIN2 Label_CF5C96
 BYTE   FINE

//**************** Track 7 (Midi-Chn.6) ****************//

DiscoDescent_007:
//  #07 //000   ----------------------------------------
 BYTE   KEYSH   DiscoDescent_key+0
 BYTE   VOICE   4
 BYTE   VOL   17*DiscoDescent_mvl/mxv
 BYTE   W96
//  #07 //001   ----------------------------------------
 BYTE   W96
//  #07 //002   ----------------------------------------
 BYTE   W96
//  #07 //003   ----------------------------------------
 BYTE   W96
//  #07 //004   ----------------------------------------
Label_CF62CE:
 BYTE   W96
//  #07 //005   ----------------------------------------
 BYTE   W96
//  #07 //006   ----------------------------------------
 BYTE   W96
//  #07 //007   ----------------------------------------
 BYTE   W96
//  #07 //008   ----------------------------------------
 BYTE   W96
//  #07 //009   ----------------------------------------
 BYTE   W96
//  #07 //010   ----------------------------------------
 BYTE   W96
//  #07 //011   ----------------------------------------
 BYTE   W96
//  #07 //012   ----------------------------------------
 BYTE   W96
//  #07 //013   ----------------------------------------
 BYTE   W96
//  #07 //014   ----------------------------------------
 BYTE   W96
//  #07 //015   ----------------------------------------
 BYTE   W96
//  #07 //016   ----------------------------------------
 BYTE   W96
//  #07 //017   ----------------------------------------
 BYTE   W96
//  #07 //018   ----------------------------------------
 BYTE   W96
//  #07 //019   ----------------------------------------
 BYTE   W96
//  #07 //020   ----------------------------------------
 BYTE   W96
//  #07 //021   ----------------------------------------
 BYTE   W96
//  #07 //022   ----------------------------------------
 BYTE   W96
//  #07 //023   ----------------------------------------
 BYTE   W96
//  #07 //024   ----------------------------------------
 BYTE   W24
 BYTE   N03  Cn4  v127
 BYTE   W06
 BYTE   N03
 BYTE   W42
 BYTE   N03
 BYTE   W06
 BYTE   N03
 BYTE   W06
 BYTE   An4
 BYTE   W03
 BYTE   Cn5  v096
 BYTE   W03
 BYTE   An4
 BYTE   W03
 BYTE   Cn4  v127
 BYTE   W03
//  #07 //025   ----------------------------------------
 BYTE   W12
 BYTE   En4
 BYTE   W06
 BYTE   N03
 BYTE   W18
 BYTE   N03
 BYTE   W06
 BYTE   N03
 BYTE   W18
 BYTE   Dn4
 BYTE   W06
 BYTE   N03
 BYTE   W18
 BYTE   Cn4
 BYTE   W06
 BYTE   Bn3
 BYTE   W06
//  #07 //026   ----------------------------------------
 BYTE   An3
 BYTE   W06
 BYTE   N03
 BYTE   W30
 BYTE   N03
 BYTE   W06
 BYTE   N03
 BYTE   W30
 BYTE   N03
 BYTE   W06
 BYTE   N03
 BYTE   W06
 BYTE   En4
 BYTE   W03
 BYTE   An4
 BYTE   W03
 BYTE   En4
 BYTE   W03
 BYTE   An3
 BYTE   W03
//  #07 //027   ----------------------------------------
 BYTE   N03
 BYTE   W06
 BYTE   N03
 BYTE   W42
 BYTE   Cn4
 BYTE   W06
 BYTE   N03
 BYTE   W42
//  #07 //028   ----------------------------------------
 BYTE   W12
 BYTE   N06  An3
 BYTE   W06
 BYTE   Cn4
 BYTE   W18
 BYTE   N06
 BYTE   W06
 BYTE   N06
 BYTE   W18
 BYTE   N06
 BYTE   W06
 BYTE   N06
 BYTE   W18
 BYTE   Bn3
 BYTE   W06
 BYTE   An3
 BYTE   W06
//  #07 //029   ----------------------------------------
 BYTE   W12
 BYTE   N06
 BYTE   W06
 BYTE   N06
 BYTE   W18
 BYTE   N06
 BYTE   W06
 BYTE   N06
 BYTE   W18
 BYTE   N06
 BYTE   W06
 BYTE   N06
 BYTE   W18
 BYTE   N06
 BYTE   W06
 BYTE   En3
 BYTE   W06
//  #07 //030   ----------------------------------------
 BYTE   W12
 BYTE   N06
 BYTE   W06
 BYTE   N06
 BYTE   W18
 BYTE   N06
 BYTE   W06
 BYTE   N06
 BYTE   W18
 BYTE   N06
 BYTE   W06
 BYTE   N06
 BYTE   W18
 BYTE   Ds3
 BYTE   W06
 BYTE   Bn2
 BYTE   W06
//  #07 //031   ----------------------------------------
 BYTE   W12
 BYTE   N06
 BYTE   W06
 BYTE   N06
 BYTE   W18
 BYTE   N06
 BYTE   W06
 BYTE   N06
 BYTE   W18
 BYTE   N06
 BYTE   W06
 BYTE   N06
 BYTE   W18
 BYTE   N06
 BYTE   W06
 BYTE   An2
 BYTE   W06
//  #07 //032   ----------------------------------------
 BYTE   W96
//  #07 //033   ----------------------------------------
 BYTE   W96
//  #07 //034   ----------------------------------------
 BYTE   W96
//  #07 //035   ----------------------------------------
 BYTE   W96
//  #07 //036   ----------------------------------------
 BYTE   W96
//  #07 //037   ----------------------------------------
 BYTE   W96
//  #07 //038   ----------------------------------------
 BYTE   W96
//  #07 //039   ----------------------------------------
 BYTE   W96
//  #07 //040   ----------------------------------------
 BYTE   W96
//  #07 //041   ----------------------------------------
 BYTE   W96
//  #07 //042   ----------------------------------------
 BYTE   W96
//  #07 //043   ----------------------------------------
 BYTE   W96
//  #07 //044   ----------------------------------------
 BYTE   W96
//  #07 //045   ----------------------------------------
 BYTE   W96
//  #07 //046   ----------------------------------------
 BYTE   W96
//  #07 //047   ----------------------------------------
 BYTE   W96
//  #07 //048   ----------------------------------------
 BYTE   W96
//  #07 //049   ----------------------------------------
 BYTE   W96
//  #07 //050   ----------------------------------------
 BYTE   W96
//  #07 //051   ----------------------------------------
 BYTE   W96
//  #07 //052   ----------------------------------------
Label_CF637D:
 BYTE   W12
 BYTE   N06  An3  v127
 BYTE   W06
 BYTE   N06
 BYTE   W18
 BYTE   N06
 BYTE   W06
 BYTE   N06
 BYTE   W18
 BYTE   N06
 BYTE   W06
 BYTE   N06
 BYTE   W18
 BYTE   N06
 BYTE   W06
 BYTE   N06
 BYTE   W06
 BYTE   PEND 
//  #07 //053   ----------------------------------------
 BYTE   W12
 BYTE   Cn4
 BYTE   W06
 BYTE   N06
 BYTE   W18
 BYTE   N06
 BYTE   W06
 BYTE   N06
 BYTE   W18
 BYTE   Bn3
 BYTE   W06
 BYTE   N06
 BYTE   W18
 BYTE   N06
 BYTE   W06
 BYTE   N06
 BYTE   W06
//  #07 //054   ----------------------------------------
 BYTE   PATT
  POIN2 Label_CF637D
//  #07 //055   ----------------------------------------
 BYTE   W12
 BYTE   N06  Gs3  v127
 BYTE   W06
 BYTE   N06
 BYTE   W18
 BYTE   N06
 BYTE   W06
 BYTE   N06
 BYTE   W18
 BYTE   En3
 BYTE   W06
 BYTE   N06
 BYTE   W18
 BYTE   N06
 BYTE   W06
 BYTE   N06
 BYTE   W06
//  #07 //056   ----------------------------------------
 BYTE   W96
//  #07 //057   ----------------------------------------
 BYTE   W96
//  #07 //058   ----------------------------------------
 BYTE   W96
//  #07 //059   ----------------------------------------
 BYTE   W96
//  #07 //060   ----------------------------------------
 BYTE   W96
//  #07 //061   ----------------------------------------
 BYTE   W96
//  #07 //062   ----------------------------------------
 BYTE   W96
//  #07 //063   ----------------------------------------
 BYTE   W96
//  #07 //064   ----------------------------------------
 BYTE   W96
//  #07 //065   ----------------------------------------
 BYTE   W96
//  #07 //066   ----------------------------------------
 BYTE   W96
//  #07 //067   ----------------------------------------
 BYTE   W96
//  #07 //068   ----------------------------------------
 BYTE   W96
//  #07 //069   ----------------------------------------
 BYTE   W96
//  #07 //070   ----------------------------------------
 BYTE   W96
//  #07 //071   ----------------------------------------
 BYTE   W96
//  #07 //072   ----------------------------------------
 BYTE   W96
//  #07 //073   ----------------------------------------
 BYTE   W96
//  #07 //074   ----------------------------------------
 BYTE   W96
//  #07 //075   ----------------------------------------
 BYTE   W96
//  #07 //076   ----------------------------------------
 BYTE   W96
//  #07 //077   ----------------------------------------
 BYTE   W96
//  #07 //078   ----------------------------------------
 BYTE   W96
//  #07 //079   ----------------------------------------
 BYTE   W96
//  #07 //080   ----------------------------------------
 BYTE   W96
//  #07 //081   ----------------------------------------
 BYTE   W96
//  #07 //082   ----------------------------------------
 BYTE   W96
//  #07 //083   ----------------------------------------
 BYTE   W96
//  #07 //084   ----------------------------------------
 BYTE   GoTo
  POIN2 Label_CF62CE
 BYTE   FINE

//**************** Track 8 (Midi-Chn.7) ****************//

DiscoDescent_008:
//  #08 //000   ----------------------------------------
 BYTE   KEYSH   DiscoDescent_key+0
 BYTE   VOICE   30
 BYTE   VOL   50*DiscoDescent_mvl/mxv
 BYTE   W96
//  #08 //001   ----------------------------------------
 BYTE   W96
//  #08 //002   ----------------------------------------
 BYTE   W96
//  #08 //003   ----------------------------------------
 BYTE   W96
//  #08 //004   ----------------------------------------
Label_CF63E6:
 BYTE   W96
//  #08 //005   ----------------------------------------
 BYTE   W96
//  #08 //006   ----------------------------------------
 BYTE   W96
//  #08 //007   ----------------------------------------
 BYTE   W96
//  #08 //008   ----------------------------------------
 BYTE   W96
//  #08 //009   ----------------------------------------
 BYTE   W96
//  #08 //010   ----------------------------------------
 BYTE   W96
//  #08 //011   ----------------------------------------
 BYTE   W96
//  #08 //012   ----------------------------------------
 BYTE   W96
//  #08 //013   ----------------------------------------
 BYTE   W96
//  #08 //014   ----------------------------------------
 BYTE   W96
//  #08 //015   ----------------------------------------
 BYTE   W96
//  #08 //016   ----------------------------------------
 BYTE   W96
//  #08 //017   ----------------------------------------
 BYTE   W96
//  #08 //018   ----------------------------------------
 BYTE   W96
//  #08 //019   ----------------------------------------
 BYTE   W96
//  #08 //020   ----------------------------------------
 BYTE   W96
//  #08 //021   ----------------------------------------
 BYTE   W96
//  #08 //022   ----------------------------------------
 BYTE   W96
//  #08 //023   ----------------------------------------
 BYTE   W96
//  #08 //024   ----------------------------------------
 BYTE   W96
//  #08 //025   ----------------------------------------
 BYTE   W96
//  #08 //026   ----------------------------------------
 BYTE   W96
//  #08 //027   ----------------------------------------
 BYTE   W96
//  #08 //028   ----------------------------------------
 BYTE   W96
//  #08 //029   ----------------------------------------
 BYTE   W96
//  #08 //030   ----------------------------------------
 BYTE   W96
//  #08 //031   ----------------------------------------
 BYTE   W96
//  #08 //032   ----------------------------------------
 BYTE   N36  An1  v108
 BYTE   W42
 BYTE   N06
 BYTE   W06
 BYTE   N42  En2
 BYTE   W42
 BYTE   N03  Cn2
 BYTE   W03
 BYTE   Dn2  v092
 BYTE   W03
//  #08 //033   ----------------------------------------
 BYTE   N48  En2  v108
 BYTE   W48
 BYTE   N24  Dn2
 BYTE   W24
 BYTE   N12  Gn2
 BYTE   W12
 BYTE   N06  Fs2
 BYTE   W06
 BYTE   Fn2
 BYTE   W06
//  #08 //034   ----------------------------------------
 BYTE   N48  En2
 BYTE   W48
 BYTE   N36  Cn2
 BYTE   W36
 BYTE   N06  Bn1
 BYTE   W06
 BYTE   Cn2
 BYTE   W06
//  #08 //035   ----------------------------------------
 BYTE   Ds2
 BYTE   W12
 BYTE   Bn1  v092
 BYTE   W06
 BYTE   Ds2  v108
 BYTE   W12
 BYTE   Bn1
 BYTE   W06
 BYTE   N12  Ds2
 BYTE   W12
 BYTE   N06  Ds2  v092
 BYTE   W06
 BYTE   Ds2  v108
 BYTE   W06
 BYTE   Bn1
 BYTE   W06
 BYTE   Cn2
 BYTE   W06
 BYTE   Ds2  v092
 BYTE   W06
 BYTE   Ds2  v108
 BYTE   W06
 BYTE   Bn1  v092
 BYTE   W06
 BYTE   Ds2  v108
 BYTE   W06
//  #08 //036   ----------------------------------------
 BYTE   N12  An1
 BYTE   W12
 BYTE   N06
 BYTE   W06
 BYTE   An1  v092
 BYTE   W06
 BYTE   An2  v108
 BYTE   W06
 BYTE   Bn1
 BYTE   W06
 BYTE   An1
 BYTE   W06
 BYTE   An1  v092
 BYTE   W06
 BYTE   An2  v108
 BYTE   W06
 BYTE   Bn1
 BYTE   W06
 BYTE   An1
 BYTE   W06
 BYTE   An2
 BYTE   W12
 BYTE   An1
 BYTE   W06
 BYTE   N03  An2
 BYTE   W06
 BYTE   N03
 BYTE   W03
 BYTE   Bn2  v092
 BYTE   W03
//  #08 //037   ----------------------------------------
 BYTE   N42  An2  v108
 BYTE   W42
 BYTE   N03
 BYTE   W03
 BYTE   Bn2  v092
 BYTE   W03
 BYTE   N12  Gs2  v108
 BYTE   W12
 BYTE   N06  En2
 BYTE   W06
 BYTE   N12  An2
 BYTE   W12
 BYTE   N06  Gs2
 BYTE   W06
 BYTE   Bn2
 BYTE   W06
 BYTE   An2
 BYTE   W06
//  #08 //038   ----------------------------------------
 BYTE   N24  Cn3
 BYTE   W24
 BYTE   N30  An2
 BYTE   W30
 BYTE   N03
 BYTE   W03
 BYTE   En3  v092
 BYTE   W03
 BYTE   N12  An3  v108
 BYTE   W12
 BYTE   N24  En3
 BYTE   W24
//  #08 //039   ----------------------------------------
 BYTE   N42  Ds3
 BYTE   W42
 BYTE   N03  Dn3  v092
 BYTE   W03
 BYTE   Ds3
 BYTE   W03
 BYTE   N24  Fn3  v108
 BYTE   W24
 BYTE   N12  An2
 BYTE   W12
 BYTE   N06  An3
 BYTE   W06
 BYTE   An2  v092
 BYTE   W06
//  #08 //040   ----------------------------------------
 BYTE   N60  An2  v108
 BYTE   W60
 BYTE   N12  En2
 BYTE   W12
 BYTE   N24  En3
 BYTE   W24
//  #08 //041   ----------------------------------------
 BYTE   Gn3
 BYTE   W24
 BYTE   En3
 BYTE   W24
 BYTE   An3
 BYTE   W24
 BYTE   En3
 BYTE   W24
//  #08 //042   ----------------------------------------
 BYTE   N60  Ds3
 BYTE   W60
 BYTE   N12  Cn3
 BYTE   W12
 BYTE   N24  En3
 BYTE   W24
//  #08 //043   ----------------------------------------
 BYTE   Ds3
 BYTE   W24
 BYTE   Bn2
 BYTE   W24
 BYTE   Cn3
 BYTE   W24
 BYTE   Bn2
 BYTE   W24
//  #08 //044   ----------------------------------------
 BYTE   An2
 BYTE   W24
 BYTE   Bn2
 BYTE   W24
 BYTE   N12  An2
 BYTE   W12
 BYTE   Bn2
 BYTE   W12
 BYTE   An2
 BYTE   W12
 BYTE   En2
 BYTE   W12
//  #08 //045   ----------------------------------------
 BYTE   N72  Fn3
 BYTE   W72
 BYTE   N24  Gn3
 BYTE   W24
//  #08 //046   ----------------------------------------
 BYTE   N12  An3
 BYTE   W12
 BYTE   En3
 BYTE   W12
 BYTE   An3
 BYTE   W12
 BYTE   En3
 BYTE   W12
 BYTE   N36  Ds3
 BYTE   W36
 BYTE   N60  An2
 BYTE   W12
//  #08 //047   ----------------------------------------
 BYTE   W48
 BYTE   N12
 BYTE   W12
 BYTE   En2
 BYTE   W12
 BYTE   En3
 BYTE   W12
 BYTE   Cn3
 BYTE   W12
//  #08 //048   ----------------------------------------
 BYTE   N36  Dn3
 BYTE   W36
 BYTE   Cn3
 BYTE   W36
 BYTE   N24  Dn3
 BYTE   W24
//  #08 //049   ----------------------------------------
 BYTE   N12  An2
 BYTE   W12
 BYTE   En2
 BYTE   W12
 BYTE   An3
 BYTE   W12
 BYTE   En3
 BYTE   W12
 BYTE   N36  Ds3
 BYTE   W36
 BYTE   An2
 BYTE   W12
//  #08 //050   ----------------------------------------
 BYTE   W24
 BYTE   N24  Ds3
 BYTE   W24
 BYTE   En3
 BYTE   W24
 BYTE   N12  Gs3
 BYTE   W12
 BYTE   En3
 BYTE   W12
//  #08 //051   ----------------------------------------
 BYTE   N96  An3
 BYTE   W96
//  #08 //052   ----------------------------------------
Label_CF6528:
 BYTE   N06  An1  v084
 BYTE   N06  En2
 BYTE   W06
 BYTE   An1
 BYTE   N06  En2
 BYTE   W06
 BYTE   N12  An1
 BYTE   N12  En2
 BYTE   W24
 BYTE   An1
 BYTE   N12  En2
 BYTE   W24
 BYTE   An1
 BYTE   N12  En2
 BYTE   W24
 BYTE   An1
 BYTE   N12  En2
 BYTE   W12
 BYTE   PEND 
//  #08 //053   ----------------------------------------
 BYTE   PATT
  POIN2 Label_CF6528
//  #08 //054   ----------------------------------------
 BYTE   PATT
  POIN2 Label_CF6528
//  #08 //055   ----------------------------------------
 BYTE   PATT
  POIN2 Label_CF6528
//  #08 //056   ----------------------------------------
 BYTE   PATT
  POIN2 Label_CF6528
//  #08 //057   ----------------------------------------
Label_CF6558:
 BYTE   N06  Gn1  v084
 BYTE   N06  Dn2
 BYTE   W06
 BYTE   Gn1
 BYTE   N06  Dn2
 BYTE   W06
 BYTE   N12  Gn1
 BYTE   N12  Dn2
 BYTE   W24
 BYTE   Gn1
 BYTE   N12  Dn2
 BYTE   W24
 BYTE   Gn1
 BYTE   N12  Dn2
 BYTE   W24
 BYTE   Gn1
 BYTE   N12  Dn2
 BYTE   W12
 BYTE   PEND 
//  #08 //058   ----------------------------------------
Label_CF6574:
 BYTE   N06  Fn1  v084
 BYTE   N06  Cn2
 BYTE   W06
 BYTE   Fn1
 BYTE   N06  Cn2
 BYTE   W06
 BYTE   N12  Fn1
 BYTE   N12  Cn2
 BYTE   W24
 BYTE   Fn1
 BYTE   N12  Cn2
 BYTE   W24
 BYTE   Fn1
 BYTE   N12  Cn2
 BYTE   W24
 BYTE   Fn1
 BYTE   N12  Cn2
 BYTE   W12
 BYTE   PEND 
//  #08 //059   ----------------------------------------
Label_CF6590:
 BYTE   N06  En1  v084
 BYTE   N06  Bn1
 BYTE   W06
 BYTE   En1
 BYTE   N06  Bn1
 BYTE   W06
 BYTE   N12  En1
 BYTE   N12  Bn1
 BYTE   W24
 BYTE   En1
 BYTE   N12  Bn1
 BYTE   W24
 BYTE   En1
 BYTE   N12  Bn1
 BYTE   W24
 BYTE   En1
 BYTE   N12  Bn1
 BYTE   W12
 BYTE   PEND 
//  #08 //060   ----------------------------------------
 BYTE   PATT
  POIN2 Label_CF6528
//  #08 //061   ----------------------------------------
 BYTE   PATT
  POIN2 Label_CF6558
//  #08 //062   ----------------------------------------
 BYTE   PATT
  POIN2 Label_CF6574
//  #08 //063   ----------------------------------------
 BYTE   PATT
  POIN2 Label_CF6590
//  #08 //064   ----------------------------------------
 BYTE   W96
//  #08 //065   ----------------------------------------
 BYTE   W96
//  #08 //066   ----------------------------------------
 BYTE   W96
//  #08 //067   ----------------------------------------
 BYTE   W96
//  #08 //068   ----------------------------------------
 BYTE   W96
//  #08 //069   ----------------------------------------
 BYTE   W96
//  #08 //070   ----------------------------------------
 BYTE   W96
//  #08 //071   ----------------------------------------
 BYTE   W96
//  #08 //072   ----------------------------------------
Label_CF65C8:
 BYTE   N06  An1  v092
 BYTE   N06  An2  v088
 BYTE   W06
 BYTE   An1  v092
 BYTE   N06  An2  v088
 BYTE   W06
 BYTE   N12  An1  v108
 BYTE   N12  An2
 BYTE   W24
 BYTE   An1
 BYTE   N12  An2
 BYTE   W24
 BYTE   An1
 BYTE   N12  An2
 BYTE   W24
 BYTE   An1
 BYTE   N12  An2
 BYTE   W12
 BYTE   PEND 
//  #08 //073   ----------------------------------------
 BYTE   PATT
  POIN2 Label_CF65C8
//  #08 //074   ----------------------------------------
 BYTE   PATT
  POIN2 Label_CF65C8
//  #08 //075   ----------------------------------------
 BYTE   PATT
  POIN2 Label_CF65C8
//  #08 //076   ----------------------------------------
 BYTE   PATT
  POIN2 Label_CF65C8
//  #08 //077   ----------------------------------------
 BYTE   PATT
  POIN2 Label_CF65C8
//  #08 //078   ----------------------------------------
 BYTE   PATT
  POIN2 Label_CF65C8
//  #08 //079   ----------------------------------------
 BYTE   PATT
  POIN2 Label_CF65C8
//  #08 //080   ----------------------------------------
 BYTE   PATT
  POIN2 Label_CF65C8
//  #08 //081   ----------------------------------------
 BYTE   PATT
  POIN2 Label_CF65C8
//  #08 //082   ----------------------------------------
 BYTE   PATT
  POIN2 Label_CF65C8
//  #08 //083   ----------------------------------------
 BYTE   PATT
  POIN2 Label_CF65C8
//  #08 //084   ----------------------------------------
 BYTE   GoTo
  POIN2 Label_CF63E6
 BYTE   FINE

//**************** Track 9 (Midi-Chn.8) ****************//

DiscoDescent_009:
//  #09 //000   ----------------------------------------
 BYTE   KEYSH   DiscoDescent_key+0
 BYTE   VOICE   2
 BYTE   VOL   30*DiscoDescent_mvl/mxv
 BYTE   W96
//  #09 //001   ----------------------------------------
 BYTE   W96
//  #09 //002   ----------------------------------------
 BYTE   W96
//  #09 //003   ----------------------------------------
 BYTE   W96
//  #09 //004   ----------------------------------------
Label_0100000A:
 BYTE   W96
//  #09 //005   ----------------------------------------
 BYTE   W96
//  #09 //006   ----------------------------------------
 BYTE   W96
//  #09 //007   ----------------------------------------
 BYTE   W96
//  #09 //008   ----------------------------------------
 BYTE   W96
//  #09 //009   ----------------------------------------
 BYTE   W96
//  #09 //010   ----------------------------------------
 BYTE   W96
//  #09 //011   ----------------------------------------
 BYTE   W96
//  #09 //012   ----------------------------------------
 BYTE   W96
//  #09 //013   ----------------------------------------
 BYTE   W96
//  #09 //014   ----------------------------------------
 BYTE   W96
//  #09 //015   ----------------------------------------
 BYTE   W96
//  #09 //016   ----------------------------------------
 BYTE   W96
//  #09 //017   ----------------------------------------
 BYTE   W96
//  #09 //018   ----------------------------------------
 BYTE   W96
//  #09 //019   ----------------------------------------
 BYTE   W96
//  #09 //020   ----------------------------------------
 BYTE   W96
//  #09 //021   ----------------------------------------
 BYTE   W96
//  #09 //022   ----------------------------------------
 BYTE   W96
//  #09 //023   ----------------------------------------
 BYTE   W96
//  #09 //024   ----------------------------------------
 BYTE   W96
//  #09 //025   ----------------------------------------
 BYTE   W96
//  #09 //026   ----------------------------------------
 BYTE   W96
//  #09 //027   ----------------------------------------
 BYTE   W96
//  #09 //028   ----------------------------------------
 BYTE   W96
//  #09 //029   ----------------------------------------
 BYTE   W96
//  #09 //030   ----------------------------------------
 BYTE   W96
//  #09 //031   ----------------------------------------
 BYTE   W96
//  #09 //032   ----------------------------------------
 BYTE   W96
//  #09 //033   ----------------------------------------
 BYTE   W96
//  #09 //034   ----------------------------------------
 BYTE   W96
//  #09 //035   ----------------------------------------
 BYTE   W96
//  #09 //036   ----------------------------------------
 BYTE   W96
//  #09 //037   ----------------------------------------
 BYTE   W96
//  #09 //038   ----------------------------------------
 BYTE   W96
//  #09 //039   ----------------------------------------
 BYTE   W96
//  #09 //040   ----------------------------------------
Label_0100002E:
 BYTE   N06  An3  v127
 BYTE   W12
 BYTE   Cn4
 BYTE   W06
 BYTE   An3
 BYTE   W06
 BYTE   N12  Ds4
 BYTE   W12
 BYTE   Dn4
 BYTE   W12
 BYTE   N06  Cn4
 BYTE   W06
 BYTE   Dn4
 BYTE   W06
 BYTE   Cn4
 BYTE   W06
 BYTE   An3
 BYTE   W12
 BYTE   Gn3
 BYTE   W06
 BYTE   An3
 BYTE   W12
 BYTE   PEND 
//  #09 //041   ----------------------------------------
 BYTE   N06
 BYTE   W12
 BYTE   Cn4
 BYTE   W06
 BYTE   An3
 BYTE   W06
 BYTE   N12  Ds4
 BYTE   W12
 BYTE   Dn4
 BYTE   W12
 BYTE   N06  Cn4
 BYTE   W06
 BYTE   Dn4
 BYTE   W06
 BYTE   Cn4
 BYTE   W06
 BYTE   An3
 BYTE   W06
 BYTE   An4
 BYTE   W06
 BYTE   An3
 BYTE   W06
 BYTE   Ds4
 BYTE   W06
 BYTE   En4
 BYTE   W06
//  #09 //042   ----------------------------------------
 BYTE   PATT
  POIN2 Label_0100002E
//  #09 //043   ----------------------------------------
 BYTE   N06  An3  v127
 BYTE   W12
 BYTE   Bn3
 BYTE   W06
 BYTE   An3
 BYTE   W06
 BYTE   N12  Cn4
 BYTE   W12
 BYTE   Bn3
 BYTE   W12
 BYTE   N06
 BYTE   W06
 BYTE   An3
 BYTE   W06
 BYTE   Dn4
 BYTE   W06
 BYTE   An3
 BYTE   W06
 BYTE   En4
 BYTE   W06
 BYTE   Cn4
 BYTE   W06
 BYTE   Bn3
 BYTE   W06
 BYTE   An3
 BYTE   W06
//  #09 //044   ----------------------------------------
 BYTE   En4
 BYTE   W06
 BYTE   Cn4
 BYTE   W06
 BYTE   Gn4
 BYTE   W06
 BYTE   En4
 BYTE   W06
 BYTE   Cn5
 BYTE   W06
 BYTE   En4
 BYTE   W06
 BYTE   Gn4
 BYTE   W06
 BYTE   En4
 BYTE   W06
 BYTE   Ds4
 BYTE   W06
 BYTE   Bn3
 BYTE   W06
 BYTE   Fs4
 BYTE   W06
 BYTE   Ds4
 BYTE   W06
 BYTE   Bn4
 BYTE   W06
 BYTE   Ds4
 BYTE   W06
 BYTE   Fs4
 BYTE   W06
 BYTE   Ds4
 BYTE   W06
//  #09 //045   ----------------------------------------
 BYTE   Bn3
 BYTE   W06
 BYTE   An3
 BYTE   W06
 BYTE   Bn3
 BYTE   W06
 BYTE   En4
 BYTE   W06
 BYTE   Bn3
 BYTE   W06
 BYTE   An3
 BYTE   W06
 BYTE   Cn4
 BYTE   W06
 BYTE   An3
 BYTE   W06
 BYTE   Bn3
 BYTE   W06
 BYTE   An3
 BYTE   W06
 BYTE   Bn3
 BYTE   W06
 BYTE   En4
 BYTE   W06
 BYTE   Bn3
 BYTE   W06
 BYTE   An3
 BYTE   W06
 BYTE   Cn4
 BYTE   W06
 BYTE   An3
 BYTE   W06
//  #09 //046   ----------------------------------------
 BYTE   Bn3
 BYTE   W06
 BYTE   An3
 BYTE   W06
 BYTE   Bn3
 BYTE   W06
 BYTE   Ds4
 BYTE   W06
 BYTE   En4
 BYTE   W06
 BYTE   An4
 BYTE   W06
 BYTE   En4
 BYTE   W06
 BYTE   Cn4
 BYTE   W06
 BYTE   Ds4
 BYTE   W06
 BYTE   Dn4
 BYTE   W06
 BYTE   Cn4
 BYTE   W06
 BYTE   An3
 BYTE   W06
 BYTE   Cn4
 BYTE   W06
 BYTE   An3
 BYTE   W06
 BYTE   Ds4
 BYTE   W06
 BYTE   En4
 BYTE   W06
//  #09 //047   ----------------------------------------
 BYTE   Cn4
 BYTE   W06
 BYTE   An3
 BYTE   W06
 BYTE   Gn3
 BYTE   W06
 BYTE   En3
 BYTE   W06
 BYTE   Gn3
 BYTE   W06
 BYTE   An3
 BYTE   W06
 BYTE   Cn4
 BYTE   W06
 BYTE   En4
 BYTE   W06
 BYTE   An3
 BYTE   W06
 BYTE   En3
 BYTE   W06
 BYTE   An3
 BYTE   W06
 BYTE   Cn4
 BYTE   W06
 BYTE   En4
 BYTE   W06
 BYTE   Dn4
 BYTE   W06
 BYTE   Cn4
 BYTE   W06
 BYTE   An3
 BYTE   W06
//  #09 //048   ----------------------------------------
 BYTE   Dn4
 BYTE   W06
 BYTE   Cn4
 BYTE   W06
 BYTE   An3
 BYTE   W06
 BYTE   Gn3
 BYTE   W06
 BYTE   An3
 BYTE   W06
 BYTE   Gn3
 BYTE   W06
 BYTE   Cn4
 BYTE   W06
 BYTE   Dn4
 BYTE   W06
 BYTE   Cn4  v116
 BYTE   W06
 BYTE   An3  v127
 BYTE   W06
 BYTE   Cn4
 BYTE   W06
 BYTE   Dn4
 BYTE   W06
 BYTE   Cn4
 BYTE   W06
 BYTE   An3
 BYTE   W06
 BYTE   Gn3
 BYTE   W06
 BYTE   An3
 BYTE   W06
//  #09 //049   ----------------------------------------
 BYTE   Cn4
 BYTE   W06
 BYTE   An3
 BYTE   W06
 BYTE   Cn4
 BYTE   W06
 BYTE   En4
 BYTE   W06
 BYTE   An4
 BYTE   W06
 BYTE   En4
 BYTE   W06
 BYTE   Dn4
 BYTE   W06
 BYTE   Cn4
 BYTE   W06
 BYTE   Ds4
 BYTE   W06
 BYTE   Dn4
 BYTE   W06
 BYTE   Cn4
 BYTE   W06
 BYTE   An3
 BYTE   W06
 BYTE   Cn4
 BYTE   W06
 BYTE   An3
 BYTE   W06
 BYTE   Ds4
 BYTE   W06
 BYTE   En4
 BYTE   W06
//  #09 //050   ----------------------------------------
 BYTE   Gs4
 BYTE   W06
 BYTE   En4
 BYTE   W06
 BYTE   Bn3
 BYTE   W06
 BYTE   An3
 BYTE   W06
 BYTE   Bn3
 BYTE   W06
 BYTE   Dn4
 BYTE   W06
 BYTE   Ds4
 BYTE   W06
 BYTE   En4
 BYTE   W06
 BYTE   Gn4
 BYTE   W06
 BYTE   En4
 BYTE   W06
 BYTE   Bn3
 BYTE   W06
 BYTE   Gs3
 BYTE   W06
 BYTE   En3
 BYTE   W06
 BYTE   Gs3
 BYTE   W06
 BYTE   Bn3
 BYTE   W06
 BYTE   En4
 BYTE   W06
//  #09 //051   ----------------------------------------
 BYTE   An4
 BYTE   W06
 BYTE   En4
 BYTE   W06
 BYTE   Cn4
 BYTE   W06
 BYTE   En4
 BYTE   W06
 BYTE   Fn4
 BYTE   W12
 BYTE   En4
 BYTE   W06
 BYTE   Dn4
 BYTE   W06
 BYTE   Cn4
 BYTE   W12
 BYTE   N06
 BYTE   W06
 BYTE   Dn4
 BYTE   W06
 BYTE   Ds4
 BYTE   W06
 BYTE   Dn4
 BYTE   W06
 BYTE   Cn4
 BYTE   W06
 BYTE   An3
 BYTE   W06
//  #09 //052   ----------------------------------------
 BYTE   W96
//  #09 //053   ----------------------------------------
 BYTE   W96
//  #09 //054   ----------------------------------------
 BYTE   W96
//  #09 //055   ----------------------------------------
 BYTE   W96
//  #09 //056   ----------------------------------------
 BYTE   W96
//  #09 //057   ----------------------------------------
 BYTE   W96
//  #09 //058   ----------------------------------------
 BYTE   W96
//  #09 //059   ----------------------------------------
 BYTE   W96
//  #09 //060   ----------------------------------------
 BYTE   W96
//  #09 //061   ----------------------------------------
 BYTE   W96
//  #09 //062   ----------------------------------------
 BYTE   W96
//  #09 //063   ----------------------------------------
 BYTE   W96
//  #09 //064   ----------------------------------------
 BYTE   W96
//  #09 //065   ----------------------------------------
 BYTE   W96
//  #09 //066   ----------------------------------------
 BYTE   W96
//  #09 //067   ----------------------------------------
 BYTE   W96
//  #09 //068   ----------------------------------------
 BYTE   W96
//  #09 //069   ----------------------------------------
 BYTE   W96
//  #09 //070   ----------------------------------------
 BYTE   W96
//  #09 //071   ----------------------------------------
 BYTE   W96
//  #09 //072   ----------------------------------------
 BYTE   W96
//  #09 //073   ----------------------------------------
 BYTE   W96
//  #09 //074   ----------------------------------------
 BYTE   W96
//  #09 //075   ----------------------------------------
 BYTE   W96
//  #09 //076   ----------------------------------------
 BYTE   W96
//  #09 //077   ----------------------------------------
 BYTE   W96
//  #09 //078   ----------------------------------------
 BYTE   W96
//  #09 //079   ----------------------------------------
 BYTE   W96
//  #09 //080   ----------------------------------------
 BYTE   W96
//  #09 //081   ----------------------------------------
 BYTE   W96
//  #09 //082   ----------------------------------------
 BYTE   W96
//  #09 //083   ----------------------------------------
 BYTE   W96
//  #09 //084   ----------------------------------------
 BYTE   GoTo
  POIN2 Label_0100000A
 BYTE   FINE

//**************** Track 10 (Midi-Chn.9) ****************//

DiscoDescent_010:
//  #10 //000   ----------------------------------------
 BYTE   KEYSH   DiscoDescent_key+0
 BYTE   VOICE   102
 BYTE   VOL   27*DiscoDescent_mvl/mxv
 BYTE   W96
//  #10 //001   ----------------------------------------
 BYTE   W96
//  #10 //002   ----------------------------------------
 BYTE   W96
//  #10 //003   ----------------------------------------
 BYTE   W96
//  #10 //004   ----------------------------------------
Label_CF6C7A:
 BYTE   W96
//  #10 //005   ----------------------------------------
 BYTE   W96
//  #10 //006   ----------------------------------------
 BYTE   W96
//  #10 //007   ----------------------------------------
 BYTE   W96
//  #10 //008   ----------------------------------------
 BYTE   W96
//  #10 //009   ----------------------------------------
 BYTE   W96
//  #10 //010   ----------------------------------------
 BYTE   W96
//  #10 //011   ----------------------------------------
 BYTE   W96
//  #10 //012   ----------------------------------------
 BYTE   W96
//  #10 //013   ----------------------------------------
 BYTE   W96
//  #10 //014   ----------------------------------------
 BYTE   W96
//  #10 //015   ----------------------------------------
 BYTE   W96
//  #10 //016   ----------------------------------------
 BYTE   W96
//  #10 //017   ----------------------------------------
 BYTE   W96
//  #10 //018   ----------------------------------------
 BYTE   W96
//  #10 //019   ----------------------------------------
 BYTE   W96
//  #10 //020   ----------------------------------------
 BYTE   W96
//  #10 //021   ----------------------------------------
 BYTE   W96
//  #10 //022   ----------------------------------------
 BYTE   W96
//  #10 //023   ----------------------------------------
 BYTE   W96
//  #10 //024   ----------------------------------------
 BYTE   W96
//  #10 //025   ----------------------------------------
 BYTE   W96
//  #10 //026   ----------------------------------------
 BYTE   W96
//  #10 //027   ----------------------------------------
 BYTE   W96
//  #10 //028   ----------------------------------------
 BYTE   W96
//  #10 //029   ----------------------------------------
 BYTE   W96
//  #10 //030   ----------------------------------------
 BYTE   W96
//  #10 //031   ----------------------------------------
 BYTE   W96
//  #10 //032   ----------------------------------------
 BYTE   W96
//  #10 //033   ----------------------------------------
 BYTE   W96
//  #10 //034   ----------------------------------------
 BYTE   W96
//  #10 //035   ----------------------------------------
 BYTE   W96
//  #10 //036   ----------------------------------------
 BYTE   W96
//  #10 //037   ----------------------------------------
 BYTE   W96
//  #10 //038   ----------------------------------------
 BYTE   W96
//  #10 //039   ----------------------------------------
 BYTE   W96
//  #10 //040   ----------------------------------------
 BYTE   W96
//  #10 //041   ----------------------------------------
 BYTE   W96
//  #10 //042   ----------------------------------------
 BYTE   W96
//  #10 //043   ----------------------------------------
 BYTE   W96
//  #10 //044   ----------------------------------------
 BYTE   W96
//  #10 //045   ----------------------------------------
 BYTE   W96
//  #10 //046   ----------------------------------------
 BYTE   W96
//  #10 //047   ----------------------------------------
 BYTE   W96
//  #10 //048   ----------------------------------------
 BYTE   W96
//  #10 //049   ----------------------------------------
 BYTE   W96
//  #10 //050   ----------------------------------------
 BYTE   W96
//  #10 //051   ----------------------------------------
 BYTE   W96
//  #10 //052   ----------------------------------------
 BYTE   W96
//  #10 //053   ----------------------------------------
 BYTE   W96
//  #10 //054   ----------------------------------------
 BYTE   W96
//  #10 //055   ----------------------------------------
 BYTE   W96
//  #10 //056   ----------------------------------------
 BYTE   W96
//  #10 //057   ----------------------------------------
 BYTE   W96
//  #10 //058   ----------------------------------------
 BYTE   W96
//  #10 //059   ----------------------------------------
 BYTE   W96
//  #10 //060   ----------------------------------------
 BYTE   W42
 BYTE   N06  An1  v127
 BYTE   W06
 BYTE   N48  En2
 BYTE   W48
//  #10 //061   ----------------------------------------
 BYTE   W36
 BYTE   N12  An1
 BYTE   W12
 BYTE   N24  En2
 BYTE   W24
 BYTE   Fn2
 BYTE   W24
//  #10 //062   ----------------------------------------
 BYTE   N48  Cn2
 BYTE   W48
 BYTE   An1
 BYTE   W48
//  #10 //063   ----------------------------------------
 BYTE   N36  Cn2
 BYTE   W36
 BYTE   N06  Bn1
 BYTE   W06
 BYTE   An1
 BYTE   W06
 BYTE   N24  Bn1
 BYTE   W24
 BYTE   Gs1
 BYTE   W24
//  #10 //064   ----------------------------------------
 BYTE   N48  Cn2
 BYTE   W48
 BYTE   Gn2
 BYTE   W48
//  #10 //065   ----------------------------------------
 BYTE   An2
 BYTE   W48
 BYTE   N24  Cn3
 BYTE   W24
 BYTE   En3
 BYTE   W24
//  #10 //066   ----------------------------------------
 BYTE   Fn3
 BYTE   W24
 BYTE   Cn3
 BYTE   W24
 BYTE   Fn3
 BYTE   W24
 BYTE   Cn4
 BYTE   W24
//  #10 //067   ----------------------------------------
 BYTE   N36  An3
 BYTE   W36
 BYTE   N06  Gs3
 BYTE   W06
 BYTE   An3
 BYTE   W06
 BYTE   N48  Bn3
 BYTE   W48
//  #10 //068   ----------------------------------------
 BYTE   W96
//  #10 //069   ----------------------------------------
 BYTE   W96
//  #10 //070   ----------------------------------------
 BYTE   W96
//  #10 //071   ----------------------------------------
 BYTE   W96
//  #10 //072   ----------------------------------------
 BYTE   W96
//  #10 //073   ----------------------------------------
 BYTE   W96
//  #10 //074   ----------------------------------------
 BYTE   W96
//  #10 //075   ----------------------------------------
 BYTE   W96
//  #10 //076   ----------------------------------------
 BYTE   W96
//  #10 //077   ----------------------------------------
 BYTE   W96
//  #10 //078   ----------------------------------------
 BYTE   W96
//  #10 //079   ----------------------------------------
 BYTE   W96
//  #10 //080   ----------------------------------------
 BYTE   W96
//  #10 //081   ----------------------------------------
 BYTE   W96
//  #10 //082   ----------------------------------------
 BYTE   W96
//  #10 //083   ----------------------------------------
 BYTE   W96
//  #10 //084   ----------------------------------------
 BYTE   GoTo
  POIN2 Label_CF6C7A
 BYTE   FINE

//**************** Track 11 (Midi-Chn.10) ****************//

DiscoDescent_011:
//  #11 //000   ----------------------------------------
 BYTE   KEYSH   DiscoDescent_key+0
 BYTE   VOICE   30
 BYTE   VOL   50*DiscoDescent_mvl/mxv
 BYTE   N06  An1  v124
 BYTE   N06  An2
 BYTE   W06
 BYTE   An1  v096
 BYTE   N06  An2
 BYTE   W06
 BYTE   An1  v108
 BYTE   N06  An2
 BYTE   W06
 BYTE   An1  v084
 BYTE   N06  An2
 BYTE   W06
 BYTE   An1  v096
 BYTE   N06  An2
 BYTE   W06
 BYTE   An1  v084
 BYTE   N06  An2
 BYTE   W06
 BYTE   An1  v124
 BYTE   N06  An2
 BYTE   W06
 BYTE   An1  v096
 BYTE   N06  An2
 BYTE   W06
 BYTE   An1  v108
 BYTE   N06  An2
 BYTE   W06
 BYTE   An1  v084
 BYTE   N06  An2
 BYTE   W06
 BYTE   An1  v096
 BYTE   N06  An2
 BYTE   W06
 BYTE   An1  v084
 BYTE   N06  An2
 BYTE   W06
 BYTE   Cn2  v124
 BYTE   N06  Cn3
 BYTE   W06
 BYTE   Cn2  v096
 BYTE   N06  Cn3
 BYTE   W06
 BYTE   Cn2  v104
 BYTE   N06  Cn3
 BYTE   W06
 BYTE   Cn2  v084
 BYTE   N06  Cn3
 BYTE   W06
//  #11 //001   ----------------------------------------
 BYTE   An1  v124
 BYTE   N06  An2
 BYTE   W06
 BYTE   An1  v096
 BYTE   N06  An2
 BYTE   W06
 BYTE   An1  v108
 BYTE   N06  An2
 BYTE   W06
 BYTE   An1  v084
 BYTE   N06  An2
 BYTE   W06
 BYTE   An1  v096
 BYTE   N06  An2
 BYTE   W06
 BYTE   An1  v084
 BYTE   N06  An2
 BYTE   W06
 BYTE   An1  v124
 BYTE   N06  An2
 BYTE   W06
 BYTE   An1  v096
 BYTE   N06  An2
 BYTE   W06
 BYTE   An1  v108
 BYTE   N06  An2
 BYTE   W06
 BYTE   An1  v084
 BYTE   N06  An2
 BYTE   W06
 BYTE   An1  v096
 BYTE   N06  An2
 BYTE   W06
 BYTE   An1  v084
 BYTE   N06  An2
 BYTE   W06
 BYTE   An1  v124
 BYTE   N06  An2
 BYTE   W06
 BYTE   An1  v096
 BYTE   N06  An2
 BYTE   W06
 BYTE   An1  v104
 BYTE   N06  An2
 BYTE   W06
 BYTE   An1  v084
 BYTE   N06  An2
 BYTE   W06
//  #11 //002   ----------------------------------------
 BYTE   An1  v124
 BYTE   N06  An2
 BYTE   W06
 BYTE   An1  v096
 BYTE   N06  An2
 BYTE   W06
 BYTE   An1  v108
 BYTE   N06  An2
 BYTE   W06
 BYTE   An1  v084
 BYTE   N06  An2
 BYTE   W06
 BYTE   An1  v096
 BYTE   N06  An2
 BYTE   W06
 BYTE   An1  v084
 BYTE   N06  An2
 BYTE   W06
 BYTE   An1  v124
 BYTE   N06  An2
 BYTE   W06
 BYTE   An1  v096
 BYTE   N06  An2
 BYTE   W06
 BYTE   An1  v108
 BYTE   N06  An2
 BYTE   W06
 BYTE   An1  v084
 BYTE   N06  An2
 BYTE   W06
 BYTE   An1  v096
 BYTE   N06  An2
 BYTE   W06
 BYTE   An1  v084
 BYTE   N06  An2
 BYTE   W06
 BYTE   Cn2  v124
 BYTE   N06  Cn3
 BYTE   W06
 BYTE   Cn2  v096
 BYTE   N06  Cn3
 BYTE   W06
 BYTE   Cn2  v104
 BYTE   N06  Cn3
 BYTE   W06
 BYTE   Cn2  v084
 BYTE   N06  Cn3
 BYTE   W06
//  #11 //003   ----------------------------------------
 BYTE   An1  v124
 BYTE   N06  An2
 BYTE   W06
 BYTE   An1  v096
 BYTE   N06  An2
 BYTE   W06
 BYTE   An1  v108
 BYTE   N06  An2
 BYTE   W06
 BYTE   An1  v084
 BYTE   N06  An2
 BYTE   W06
 BYTE   An1  v096
 BYTE   N06  An2
 BYTE   W06
 BYTE   An1  v084
 BYTE   N06  An2
 BYTE   W06
 BYTE   An1  v124
 BYTE   N06  An2
 BYTE   W06
 BYTE   An1  v096
 BYTE   N06  An2
 BYTE   W06
 BYTE   An1  v108
 BYTE   N06  An2
 BYTE   W06
 BYTE   An1  v084
 BYTE   N06  An2
 BYTE   W06
 BYTE   An1  v096
 BYTE   N06  An2
 BYTE   W06
 BYTE   An1  v084
 BYTE   N06  An2
 BYTE   W06
 BYTE   An1
 BYTE   N06  An2
 BYTE   W06
 BYTE   An1  v072
 BYTE   N06  An2
 BYTE   W06
 BYTE   An1  v076
 BYTE   N06  An2
 BYTE   W06
 BYTE   An1  v064
 BYTE   N06  An2
 BYTE   W06
//  #11 //004   ----------------------------------------
Label_010002F2:
 BYTE   W96
//  #11 //005   ----------------------------------------
 BYTE   W96
//  #11 //006   ----------------------------------------
 BYTE   W96
//  #11 //007   ----------------------------------------
 BYTE   W96
//  #11 //008   ----------------------------------------
 BYTE   W96
//  #11 //009   ----------------------------------------
 BYTE   W96
//  #11 //010   ----------------------------------------
 BYTE   W96
//  #11 //011   ----------------------------------------
 BYTE   W96
//  #11 //012   ----------------------------------------
 BYTE   W96
//  #11 //013   ----------------------------------------
 BYTE   W96
//  #11 //014   ----------------------------------------
 BYTE   W96
//  #11 //015   ----------------------------------------
 BYTE   W96
//  #11 //016   ----------------------------------------
 BYTE   W96
//  #11 //017   ----------------------------------------
 BYTE   W96
//  #11 //018   ----------------------------------------
 BYTE   W96
//  #11 //019   ----------------------------------------
 BYTE   W96
//  #11 //020   ----------------------------------------
 BYTE   W96
//  #11 //021   ----------------------------------------
 BYTE   W96
//  #11 //022   ----------------------------------------
 BYTE   W96
//  #11 //023   ----------------------------------------
 BYTE   W96
//  #11 //024   ----------------------------------------
 BYTE   W96
//  #11 //025   ----------------------------------------
 BYTE   W96
//  #11 //026   ----------------------------------------
 BYTE   W96
//  #11 //027   ----------------------------------------
 BYTE   W96
//  #11 //028   ----------------------------------------
 BYTE   W96
//  #11 //029   ----------------------------------------
 BYTE   W96
//  #11 //030   ----------------------------------------
 BYTE   W96
//  #11 //031   ----------------------------------------
 BYTE   W96
//  #11 //032   ----------------------------------------
 BYTE   W96
//  #11 //033   ----------------------------------------
 BYTE   W96
//  #11 //034   ----------------------------------------
 BYTE   W96
//  #11 //035   ----------------------------------------
 BYTE   W96
//  #11 //036   ----------------------------------------
 BYTE   W96
//  #11 //037   ----------------------------------------
 BYTE   W96
//  #11 //038   ----------------------------------------
 BYTE   W96
//  #11 //039   ----------------------------------------
 BYTE   W96
//  #11 //040   ----------------------------------------
 BYTE   W96
//  #11 //041   ----------------------------------------
 BYTE   W96
//  #11 //042   ----------------------------------------
 BYTE   W96
//  #11 //043   ----------------------------------------
 BYTE   W96
//  #11 //044   ----------------------------------------
 BYTE   W96
//  #11 //045   ----------------------------------------
 BYTE   W96
//  #11 //046   ----------------------------------------
 BYTE   W96
//  #11 //047   ----------------------------------------
 BYTE   W96
//  #11 //048   ----------------------------------------
 BYTE   W96
//  #11 //049   ----------------------------------------
 BYTE   W96
//  #11 //050   ----------------------------------------
 BYTE   W96
//  #11 //051   ----------------------------------------
 BYTE   W96
//  #11 //052   ----------------------------------------
 BYTE   W96
//  #11 //053   ----------------------------------------
 BYTE   W96
//  #11 //054   ----------------------------------------
 BYTE   W96
//  #11 //055   ----------------------------------------
 BYTE   W96
//  #11 //056   ----------------------------------------
 BYTE   W96
//  #11 //057   ----------------------------------------
 BYTE   W96
//  #11 //058   ----------------------------------------
 BYTE   W96
//  #11 //059   ----------------------------------------
 BYTE   W96
//  #11 //060   ----------------------------------------
 BYTE   W96
//  #11 //061   ----------------------------------------
 BYTE   W96
//  #11 //062   ----------------------------------------
 BYTE   W96
//  #11 //063   ----------------------------------------
 BYTE   W96
//  #11 //064   ----------------------------------------
 BYTE   W96
//  #11 //065   ----------------------------------------
 BYTE   W96
//  #11 //066   ----------------------------------------
 BYTE   W96
//  #11 //067   ----------------------------------------
 BYTE   W96
//  #11 //068   ----------------------------------------
 BYTE   W96
//  #11 //069   ----------------------------------------
 BYTE   W96
//  #11 //070   ----------------------------------------
 BYTE   W96
//  #11 //071   ----------------------------------------
 BYTE   W96
//  #11 //072   ----------------------------------------
 BYTE   W96
//  #11 //073   ----------------------------------------
 BYTE   W96
//  #11 //074   ----------------------------------------
 BYTE   W96
//  #11 //075   ----------------------------------------
 BYTE   W96
//  #11 //076   ----------------------------------------
 BYTE   W96
//  #11 //077   ----------------------------------------
 BYTE   W96
//  #11 //078   ----------------------------------------
 BYTE   W96
//  #11 //079   ----------------------------------------
 BYTE   W96
//  #11 //080   ----------------------------------------
 BYTE   W96
//  #11 //081   ----------------------------------------
 BYTE   W96
//  #11 //082   ----------------------------------------
 BYTE   W96
//  #11 //083   ----------------------------------------
 BYTE   W96
//  #11 //084   ----------------------------------------
 BYTE   GoTo
  POIN2 Label_010002F2
 BYTE   FINE

//**************** Track 12 (Midi-Chn.11) ****************//

DiscoDescent_012:
//  #12 //000   ----------------------------------------
 BYTE   KEYSH   DiscoDescent_key+0
 BYTE   VOICE   56
 BYTE   VOL   32*DiscoDescent_mvl/mxv
 BYTE   N06  An3  v127
 BYTE   W06
 BYTE   N06
 BYTE   W30
 BYTE   N06
 BYTE   W06
 BYTE   N06
 BYTE   W30
 BYTE   Cn4
 BYTE   W06
 BYTE   N06
 BYTE   W18
//  #12 //001   ----------------------------------------
 BYTE   An3
 BYTE   W06
 BYTE   N06
 BYTE   W30
 BYTE   N06
 BYTE   W06
 BYTE   N06
 BYTE   W30
 BYTE   N06
 BYTE   W06
 BYTE   N06
 BYTE   W18
//  #12 //002   ----------------------------------------
 BYTE   N06
 BYTE   W06
 BYTE   N06
 BYTE   W30
 BYTE   N06
 BYTE   W06
 BYTE   N06
 BYTE   W30
 BYTE   Cn4
 BYTE   W06
 BYTE   N06
 BYTE   W18
//  #12 //003   ----------------------------------------
 BYTE   An3
 BYTE   W06
 BYTE   N06
 BYTE   W30
 BYTE   N06
 BYTE   W06
 BYTE   N06
 BYTE   W54
//  #12 //004   ----------------------------------------
Label_CF665C:
 BYTE   W96
//  #12 //005   ----------------------------------------
 BYTE   W96
//  #12 //006   ----------------------------------------
 BYTE   W96
//  #12 //007   ----------------------------------------
 BYTE   W96
//  #12 //008   ----------------------------------------
 BYTE   W96
//  #12 //009   ----------------------------------------
 BYTE   W96
//  #12 //010   ----------------------------------------
 BYTE   W96
//  #12 //011   ----------------------------------------
 BYTE   W96
//  #12 //012   ----------------------------------------
 BYTE   W96
//  #12 //013   ----------------------------------------
 BYTE   W96
//  #12 //014   ----------------------------------------
 BYTE   W96
//  #12 //015   ----------------------------------------
 BYTE   W96
//  #12 //016   ----------------------------------------
 BYTE   W96
//  #12 //017   ----------------------------------------
 BYTE   W96
//  #12 //018   ----------------------------------------
 BYTE   W96
//  #12 //019   ----------------------------------------
 BYTE   W96
//  #12 //020   ----------------------------------------
 BYTE   W96
//  #12 //021   ----------------------------------------
 BYTE   W96
//  #12 //022   ----------------------------------------
 BYTE   W96
//  #12 //023   ----------------------------------------
 BYTE   W96
//  #12 //024   ----------------------------------------
 BYTE   W96
//  #12 //025   ----------------------------------------
 BYTE   W96
//  #12 //026   ----------------------------------------
 BYTE   W96
//  #12 //027   ----------------------------------------
 BYTE   W96
//  #12 //028   ----------------------------------------
 BYTE   W96
//  #12 //029   ----------------------------------------
 BYTE   W96
//  #12 //030   ----------------------------------------
 BYTE   W96
//  #12 //031   ----------------------------------------
 BYTE   W96
//  #12 //032   ----------------------------------------
 BYTE   W96
//  #12 //033   ----------------------------------------
 BYTE   W96
//  #12 //034   ----------------------------------------
 BYTE   W96
//  #12 //035   ----------------------------------------
 BYTE   W96
//  #12 //036   ----------------------------------------
 BYTE   W96
//  #12 //037   ----------------------------------------
 BYTE   W96
//  #12 //038   ----------------------------------------
 BYTE   W96
//  #12 //039   ----------------------------------------
 BYTE   W96
//  #12 //040   ----------------------------------------
 BYTE   W96
//  #12 //041   ----------------------------------------
 BYTE   W96
//  #12 //042   ----------------------------------------
 BYTE   W96
//  #12 //043   ----------------------------------------
 BYTE   W96
//  #12 //044   ----------------------------------------
 BYTE   W96
//  #12 //045   ----------------------------------------
 BYTE   W96
//  #12 //046   ----------------------------------------
 BYTE   W96
//  #12 //047   ----------------------------------------
 BYTE   W96
//  #12 //048   ----------------------------------------
 BYTE   W96
//  #12 //049   ----------------------------------------
 BYTE   W96
//  #12 //050   ----------------------------------------
 BYTE   W96
//  #12 //051   ----------------------------------------
 BYTE   W96
//  #12 //052   ----------------------------------------
 BYTE   W96
//  #12 //053   ----------------------------------------
 BYTE   W96
//  #12 //054   ----------------------------------------
 BYTE   W96
//  #12 //055   ----------------------------------------
 BYTE   W96
//  #12 //056   ----------------------------------------
 BYTE   W96
//  #12 //057   ----------------------------------------
 BYTE   W96
//  #12 //058   ----------------------------------------
 BYTE   W96
//  #12 //059   ----------------------------------------
 BYTE   W96
//  #12 //060   ----------------------------------------
 BYTE   W96
//  #12 //061   ----------------------------------------
 BYTE   W96
//  #12 //062   ----------------------------------------
 BYTE   W96
//  #12 //063   ----------------------------------------
 BYTE   W96
//  #12 //064   ----------------------------------------
 BYTE   W96
//  #12 //065   ----------------------------------------
 BYTE   W96
//  #12 //066   ----------------------------------------
 BYTE   W96
//  #12 //067   ----------------------------------------
 BYTE   W96
//  #12 //068   ----------------------------------------
Label_CF669C:
 BYTE   W12
 BYTE   N12  En3  v127
 BYTE   W24
 BYTE   N12
 BYTE   W24
 BYTE   N12
 BYTE   W24
 BYTE   N12
 BYTE   W12
 BYTE   PEND 
//  #12 //069   ----------------------------------------
 BYTE   PATT
  POIN2 Label_CF669C
//  #12 //070   ----------------------------------------
 BYTE   PATT
  POIN2 Label_CF669C
//  #12 //071   ----------------------------------------
 BYTE   PATT
  POIN2 Label_CF669C
//  #12 //072   ----------------------------------------
 BYTE   W96
//  #12 //073   ----------------------------------------
 BYTE   W96
//  #12 //074   ----------------------------------------
 BYTE   W96
//  #12 //075   ----------------------------------------
 BYTE   W96
//  #12 //076   ----------------------------------------
 BYTE   W96
//  #12 //077   ----------------------------------------
 BYTE   W96
//  #12 //078   ----------------------------------------
 BYTE   W96
//  #12 //079   ----------------------------------------
 BYTE   W96
//  #12 //080   ----------------------------------------
 BYTE   W96
//  #12 //081   ----------------------------------------
 BYTE   W96
//  #12 //082   ----------------------------------------
 BYTE   W96
//  #12 //083   ----------------------------------------
 BYTE   W96
//  #12 //084   ----------------------------------------
 BYTE   GoTo
  POIN2 Label_CF665C
 BYTE   FINE

//**************** Track 13 (Midi-Chn.12) ****************//

DiscoDescent_013:
//  #13 //000   ----------------------------------------
 BYTE   VOL   42*DiscoDescent_mvl/mxv
 BYTE   KEYSH   DiscoDescent_key+0
 BYTE   VOICE   104
 BYTE   W96
//  #13 //001   ----------------------------------------
 BYTE   W96
//  #13 //002   ----------------------------------------
 BYTE   W96
//  #13 //003   ----------------------------------------
 BYTE   W96
//  #13 //004   ----------------------------------------
Label_01000352:
 BYTE   W96
//  #13 //005   ----------------------------------------
 BYTE   W96
//  #13 //006   ----------------------------------------
 BYTE   W96
//  #13 //007   ----------------------------------------
 BYTE   W96
//  #13 //008   ----------------------------------------
 BYTE   W96
//  #13 //009   ----------------------------------------
 BYTE   W96
//  #13 //010   ----------------------------------------
 BYTE   W96
//  #13 //011   ----------------------------------------
 BYTE   W96
//  #13 //012   ----------------------------------------
 BYTE   W96
//  #13 //013   ----------------------------------------
 BYTE   W96
//  #13 //014   ----------------------------------------
 BYTE   W96
//  #13 //015   ----------------------------------------
 BYTE   W96
//  #13 //016   ----------------------------------------
 BYTE   W96
//  #13 //017   ----------------------------------------
 BYTE   W96
//  #13 //018   ----------------------------------------
 BYTE   W96
//  #13 //019   ----------------------------------------
 BYTE   W96
//  #13 //020   ----------------------------------------
 BYTE   W96
//  #13 //021   ----------------------------------------
 BYTE   W96
//  #13 //022   ----------------------------------------
 BYTE   W96
//  #13 //023   ----------------------------------------
 BYTE   W96
//  #13 //024   ----------------------------------------
 BYTE   W96
//  #13 //025   ----------------------------------------
 BYTE   W96
//  #13 //026   ----------------------------------------
 BYTE   W96
//  #13 //027   ----------------------------------------
 BYTE   W96
//  #13 //028   ----------------------------------------
 BYTE   W96
//  #13 //029   ----------------------------------------
 BYTE   W96
//  #13 //030   ----------------------------------------
 BYTE   W96
//  #13 //031   ----------------------------------------
 BYTE   W96
//  #13 //032   ----------------------------------------
 BYTE   N36  An1  v120
 BYTE   W42
 BYTE   N06
 BYTE   W06
 BYTE   N42  En2
 BYTE   W42
 BYTE   N03  Cn2
 BYTE   W03
 BYTE   Dn2  v104
 BYTE   W03
//  #13 //033   ----------------------------------------
 BYTE   N48  En2  v120
 BYTE   W48
 BYTE   N24  Dn2
 BYTE   W24
 BYTE   N12  Gn2
 BYTE   W12
 BYTE   N06  Fs2
 BYTE   W06
 BYTE   Fn2
 BYTE   W06
//  #13 //034   ----------------------------------------
 BYTE   N48  En2
 BYTE   W48
 BYTE   N36  Cn2
 BYTE   W36
 BYTE   N06  Bn1
 BYTE   W06
 BYTE   Cn2
 BYTE   W06
//  #13 //035   ----------------------------------------
 BYTE   Ds2
 BYTE   W12
 BYTE   Bn1  v104
 BYTE   W06
 BYTE   Ds2  v120
 BYTE   W12
 BYTE   Bn1
 BYTE   W06
 BYTE   N12  Ds2
 BYTE   W12
 BYTE   N06  Ds2  v104
 BYTE   W06
 BYTE   Ds2  v120
 BYTE   W06
 BYTE   Bn1
 BYTE   W06
 BYTE   Cn2
 BYTE   W06
 BYTE   Ds2  v104
 BYTE   W06
 BYTE   Ds2  v120
 BYTE   W06
 BYTE   Bn1  v104
 BYTE   W06
 BYTE   Ds2  v120
 BYTE   W06
//  #13 //036   ----------------------------------------
 BYTE   N12  An1
 BYTE   W12
 BYTE   N06
 BYTE   W06
 BYTE   An1  v104
 BYTE   W06
 BYTE   An2  v120
 BYTE   W06
 BYTE   Bn1
 BYTE   W06
 BYTE   An1
 BYTE   W06
 BYTE   An1  v104
 BYTE   W06
 BYTE   An2  v120
 BYTE   W06
 BYTE   Bn1
 BYTE   W06
 BYTE   An1
 BYTE   W06
 BYTE   An2
 BYTE   W12
 BYTE   An1
 BYTE   W06
 BYTE   N03  An2
 BYTE   W06
 BYTE   N03
 BYTE   W03
 BYTE   Bn2  v104
 BYTE   W03
//  #13 //037   ----------------------------------------
 BYTE   N42  An2  v120
 BYTE   W42
 BYTE   N03
 BYTE   W03
 BYTE   Bn2  v104
 BYTE   W03
 BYTE   N12  Gs2  v120
 BYTE   W12
 BYTE   N06  En2
 BYTE   W06
 BYTE   N12  An2
 BYTE   W12
 BYTE   N06  Gs2
 BYTE   W06
 BYTE   Bn2
 BYTE   W06
 BYTE   An2
 BYTE   W06
//  #13 //038   ----------------------------------------
 BYTE   N24  Cn3
 BYTE   W24
 BYTE   N30  An2
 BYTE   W30
 BYTE   N03
 BYTE   W03
 BYTE   En3  v104
 BYTE   W03
 BYTE   N12  An3  v120
 BYTE   W12
 BYTE   N24  En3
 BYTE   W24
//  #13 //039   ----------------------------------------
 BYTE   N42  Ds3
 BYTE   W42
 BYTE   N03  Dn3  v104
 BYTE   W03
 BYTE   Ds3
 BYTE   W03
 BYTE   N24  Fn3  v120
 BYTE   W24
 BYTE   N12  An2
 BYTE   W12
 BYTE   N06  An3
 BYTE   W06
 BYTE   An2  v104
 BYTE   W06
//  #13 //040   ----------------------------------------
 BYTE   N60  An2  v120
 BYTE   W60
 BYTE   N12  En2
 BYTE   W12
 BYTE   N24  En3
 BYTE   W24
//  #13 //041   ----------------------------------------
 BYTE   Gn3
 BYTE   W24
 BYTE   En3
 BYTE   W24
 BYTE   An3
 BYTE   W24
 BYTE   En3
 BYTE   W24
//  #13 //042   ----------------------------------------
 BYTE   N60  Ds3
 BYTE   W60
 BYTE   N12  Cn3
 BYTE   W12
 BYTE   N24  En3
 BYTE   W24
//  #13 //043   ----------------------------------------
 BYTE   Ds3
 BYTE   W24
 BYTE   Bn2
 BYTE   W24
 BYTE   Cn3
 BYTE   W24
 BYTE   Bn2
 BYTE   W24
//  #13 //044   ----------------------------------------
 BYTE   An2
 BYTE   W24
 BYTE   Bn2
 BYTE   W24
 BYTE   N12  An2
 BYTE   W12
 BYTE   Bn2
 BYTE   W12
 BYTE   An2
 BYTE   W12
 BYTE   En2
 BYTE   W12
//  #13 //045   ----------------------------------------
 BYTE   N72  Fn3
 BYTE   W72
 BYTE   N24  Gn3
 BYTE   W24
//  #13 //046   ----------------------------------------
 BYTE   N12  An3
 BYTE   W12
 BYTE   En3
 BYTE   W12
 BYTE   An3
 BYTE   W12
 BYTE   En3
 BYTE   W12
 BYTE   N36  Ds3
 BYTE   W36
 BYTE   N60  An2
 BYTE   W12
//  #13 //047   ----------------------------------------
 BYTE   W48
 BYTE   N12
 BYTE   W12
 BYTE   En2
 BYTE   W12
 BYTE   En3
 BYTE   W12
 BYTE   Cn3
 BYTE   W12
//  #13 //048   ----------------------------------------
 BYTE   N36  Dn3
 BYTE   W36
 BYTE   Cn3
 BYTE   W36
 BYTE   N24  Dn3
 BYTE   W24
//  #13 //049   ----------------------------------------
 BYTE   N12  An2
 BYTE   W12
 BYTE   En2
 BYTE   W12
 BYTE   An3
 BYTE   W12
 BYTE   En3
 BYTE   W12
 BYTE   N36  Ds3
 BYTE   W36
 BYTE   An2
 BYTE   W12
//  #13 //050   ----------------------------------------
 BYTE   W24
 BYTE   N24  Ds3
 BYTE   W24
 BYTE   En3
 BYTE   W24
 BYTE   N12  Gs3
 BYTE   W12
 BYTE   En3
 BYTE   W12
//  #13 //051   ----------------------------------------
 BYTE   N96  An3
 BYTE   W96
//  #13 //052   ----------------------------------------
 BYTE   W96
//  #13 //053   ----------------------------------------
 BYTE   W96
//  #13 //054   ----------------------------------------
 BYTE   W96
//  #13 //055   ----------------------------------------
 BYTE   W96
//  #13 //056   ----------------------------------------
 BYTE   W96
//  #13 //057   ----------------------------------------
 BYTE   W96
//  #13 //058   ----------------------------------------
 BYTE   W96
//  #13 //059   ----------------------------------------
 BYTE   W96
//  #13 //060   ----------------------------------------
 BYTE   W96
//  #13 //061   ----------------------------------------
 BYTE   W96
//  #13 //062   ----------------------------------------
 BYTE   W96
//  #13 //063   ----------------------------------------
 BYTE   W96
//  #13 //064   ----------------------------------------
 BYTE   W96
//  #13 //065   ----------------------------------------
 BYTE   W96
//  #13 //066   ----------------------------------------
 BYTE   W96
//  #13 //067   ----------------------------------------
 BYTE   W96
//  #13 //068   ----------------------------------------
 BYTE   W96
//  #13 //069   ----------------------------------------
 BYTE   W96
//  #13 //070   ----------------------------------------
 BYTE   W96
//  #13 //071   ----------------------------------------
 BYTE   W96
//  #13 //072   ----------------------------------------
 BYTE   W96
//  #13 //073   ----------------------------------------
 BYTE   W96
//  #13 //074   ----------------------------------------
 BYTE   W96
//  #13 //075   ----------------------------------------
 BYTE   W96
//  #13 //076   ----------------------------------------
 BYTE   W96
//  #13 //077   ----------------------------------------
 BYTE   W96
//  #13 //078   ----------------------------------------
 BYTE   W96
//  #13 //079   ----------------------------------------
 BYTE   W96
//  #13 //080   ----------------------------------------
 BYTE   W96
//  #13 //081   ----------------------------------------
 BYTE   W96
//  #13 //082   ----------------------------------------
 BYTE   W96
//  #13 //083   ----------------------------------------
 BYTE   W96
//  #13 //084   ----------------------------------------
 BYTE   GoTo
  POIN2 Label_01000352
 BYTE   FINE

//**************** Track 14 (Midi-Chn.13) ****************//

DiscoDescent_014:
//  #14 //000   ----------------------------------------
 BYTE   KEYSH   DiscoDescent_key+0
 BYTE   VOICE   4
 BYTE   VOL   55*DiscoDescent_mvl/mxv
 BYTE   W96
//  #14 //001   ----------------------------------------
 BYTE   W96
//  #14 //002   ----------------------------------------
 BYTE   W96
//  #14 //003   ----------------------------------------
 BYTE   W96
//  #14 //004   ----------------------------------------
Label_010004C6:
 BYTE   W96
//  #14 //005   ----------------------------------------
 BYTE   W96
//  #14 //006   ----------------------------------------
 BYTE   W96
//  #14 //007   ----------------------------------------
 BYTE   W96
//  #14 //008   ----------------------------------------
 BYTE   W96
//  #14 //009   ----------------------------------------
 BYTE   W96
//  #14 //010   ----------------------------------------
 BYTE   W96
//  #14 //011   ----------------------------------------
 BYTE   W96
//  #14 //012   ----------------------------------------
 BYTE   W12
 BYTE   N12  An2  v048
 BYTE   W24
 BYTE   An2  v052
 BYTE   W24
 BYTE   An2  v064
 BYTE   W24
 BYTE   An2  v076
 BYTE   W12
//  #14 //013   ----------------------------------------
 BYTE   W12
 BYTE   An2  v088
 BYTE   W24
 BYTE   An2  v096
 BYTE   W24
 BYTE   An2  v088
 BYTE   W24
 BYTE   An2  v072
 BYTE   W12
//  #14 //014   ----------------------------------------
 BYTE   W12
 BYTE   An2  v056
 BYTE   W24
 BYTE   An2  v068
 BYTE   W24
 BYTE   An2  v084
 BYTE   W24
 BYTE   An2  v092
 BYTE   W12
//  #14 //015   ----------------------------------------
 BYTE   W12
 BYTE   An2  v084
 BYTE   W24
 BYTE   An2  v064
 BYTE   W24
 BYTE   An2  v056
 BYTE   W24
 BYTE   An2  v036
 BYTE   W12
//  #14 //016   ----------------------------------------
Label_01000503:
 BYTE   VOL   24*DiscoDescent_mvl/mxv
 BYTE   W44
 BYTE   W02
 BYTE   VOL   2*DiscoDescent_mvl/mxv
 BYTE   W01
 BYTE   VOL   2*DiscoDescent_mvl/mxv
 BYTE   W01
 BYTE   VOL   2*DiscoDescent_mvl/mxv
 BYTE   N06  En4  v127
 BYTE   W01
 BYTE   VOL   2*DiscoDescent_mvl/mxv
 BYTE   W01
 BYTE   VOL   2*DiscoDescent_mvl/mxv
 BYTE   W01
 BYTE   VOL   2*DiscoDescent_mvl/mxv
 BYTE   N06  An3
 BYTE   W01
 BYTE   VOL   2*DiscoDescent_mvl/mxv
 BYTE   W01
 BYTE   VOL   2*DiscoDescent_mvl/mxv
 BYTE   W01
 BYTE   VOL   2*DiscoDescent_mvl/mxv
 BYTE   N06  En4
 BYTE   W01
 BYTE   VOL   2*DiscoDescent_mvl/mxv
 BYTE   W01
 BYTE   VOL   2*DiscoDescent_mvl/mxv
 BYTE   W01
 BYTE   VOL   2*DiscoDescent_mvl/mxv
 BYTE   N06  An3
 BYTE   W01
 BYTE   VOL   2*DiscoDescent_mvl/mxv
 BYTE   W01
 BYTE   VOL   2*DiscoDescent_mvl/mxv
 BYTE   W01
 BYTE   VOL   2*DiscoDescent_mvl/mxv
 BYTE   N06  En4
 BYTE   W01
 BYTE   VOL   2*DiscoDescent_mvl/mxv
 BYTE   W01
 BYTE   VOL   2*DiscoDescent_mvl/mxv
 BYTE   W01
 BYTE   VOL   3*DiscoDescent_mvl/mxv
 BYTE   N06  An3
 BYTE   W01
 BYTE   VOL   5*DiscoDescent_mvl/mxv
 BYTE   W01
 BYTE   VOL   6*DiscoDescent_mvl/mxv
 BYTE   W01
 BYTE   VOL   8*DiscoDescent_mvl/mxv
 BYTE   N06  En4
 BYTE   W01
 BYTE   VOL   9*DiscoDescent_mvl/mxv
 BYTE   W01
 BYTE   VOL   11*DiscoDescent_mvl/mxv
 BYTE   W01
 BYTE   VOL   12*DiscoDescent_mvl/mxv
 BYTE   N06  An3
 BYTE   W01
 BYTE   VOL   14*DiscoDescent_mvl/mxv
 BYTE   W01
 BYTE   VOL   16*DiscoDescent_mvl/mxv
 BYTE   W01
 BYTE   VOL   17*DiscoDescent_mvl/mxv
 BYTE   N06  En4
 BYTE   W01
 BYTE   VOL   19*DiscoDescent_mvl/mxv
 BYTE   W01
 BYTE   VOL   20*DiscoDescent_mvl/mxv
 BYTE   W01
 BYTE   VOL   22*DiscoDescent_mvl/mxv
 BYTE   N06  An3
 BYTE   W01
 BYTE   VOL   24*DiscoDescent_mvl/mxv
 BYTE   W01
 BYTE   VOL   25*DiscoDescent_mvl/mxv
 BYTE   W01
 BYTE   VOL   26*DiscoDescent_mvl/mxv
 BYTE   N06  En4
 BYTE   W02
 BYTE   VOL   27*DiscoDescent_mvl/mxv
 BYTE   W01
 BYTE   VOL   28*DiscoDescent_mvl/mxv
 BYTE   N06  An3
 BYTE   W01
 BYTE   VOL   29*DiscoDescent_mvl/mxv
 BYTE   W02
 BYTE   VOL   28*DiscoDescent_mvl/mxv
 BYTE   N06  En4
 BYTE   W02
 BYTE   VOL   27*DiscoDescent_mvl/mxv
 BYTE   W01
 BYTE   N06  An3
 BYTE   W01
 BYTE   VOL   26*DiscoDescent_mvl/mxv
 BYTE   W02
 BYTE   VOL   25*DiscoDescent_mvl/mxv
 BYTE   N06  En4
 BYTE   W01
 BYTE   VOL   23*DiscoDescent_mvl/mxv
 BYTE   W01
 BYTE   VOL   20*DiscoDescent_mvl/mxv
 BYTE   W01
 BYTE   VOL   17*DiscoDescent_mvl/mxv
 BYTE   N03  An3
 BYTE   W01
 BYTE   VOL   15*DiscoDescent_mvl/mxv
 BYTE   W01
 BYTE   VOL   13*DiscoDescent_mvl/mxv
 BYTE   W01
 BYTE   PEND 
//  #14 //017   ----------------------------------------
Label_010005B1:
 BYTE   VOL   6*DiscoDescent_mvl/mxv
 BYTE   N03  An2  v127
 BYTE   W01
 BYTE   VOL   2*DiscoDescent_mvl/mxv
 BYTE   W01
 BYTE   VOL   2*DiscoDescent_mvl/mxv
 BYTE   W01
 BYTE   VOL   2*DiscoDescent_mvl/mxv
 BYTE   W01
 BYTE   VOL   24*DiscoDescent_mvl/mxv
 BYTE   W92
 BYTE   PEND 
//  #14 //018   ----------------------------------------
 BYTE   PATT
  POIN2 Label_01000503
//  #14 //019   ----------------------------------------
 BYTE   PATT
  POIN2 Label_010005B1
//  #14 //020   ----------------------------------------
 BYTE   PATT
  POIN2 Label_01000503
//  #14 //021   ----------------------------------------
 BYTE   PATT
  POIN2 Label_010005B1
//  #14 //022   ----------------------------------------
 BYTE   PATT
  POIN2 Label_01000503
//  #14 //023   ----------------------------------------
 BYTE   PATT
  POIN2 Label_010005B1
//  #14 //024   ----------------------------------------
 BYTE   W96
//  #14 //025   ----------------------------------------
 BYTE   W96
//  #14 //026   ----------------------------------------
 BYTE   W96
//  #14 //027   ----------------------------------------
 BYTE   W96
//  #14 //028   ----------------------------------------
 BYTE   W96
//  #14 //029   ----------------------------------------
 BYTE   W96
//  #14 //030   ----------------------------------------
 BYTE   W96
//  #14 //031   ----------------------------------------
 BYTE   W96
//  #14 //032   ----------------------------------------
 BYTE   W96
//  #14 //033   ----------------------------------------
 BYTE   W96
//  #14 //034   ----------------------------------------
 BYTE   W96
//  #14 //035   ----------------------------------------
 BYTE   W96
//  #14 //036   ----------------------------------------
 BYTE   W96
//  #14 //037   ----------------------------------------
 BYTE   W96
//  #14 //038   ----------------------------------------
 BYTE   W96
//  #14 //039   ----------------------------------------
 BYTE   W96
//  #14 //040   ----------------------------------------
 BYTE   W96
//  #14 //041   ----------------------------------------
 BYTE   W96
//  #14 //042   ----------------------------------------
 BYTE   W96
//  #14 //043   ----------------------------------------
 BYTE   W96
//  #14 //044   ----------------------------------------
 BYTE   W96
//  #14 //045   ----------------------------------------
 BYTE   W96
//  #14 //046   ----------------------------------------
 BYTE   W96
//  #14 //047   ----------------------------------------
 BYTE   W96
//  #14 //048   ----------------------------------------
 BYTE   W96
//  #14 //049   ----------------------------------------
 BYTE   W96
//  #14 //050   ----------------------------------------
 BYTE   W96
//  #14 //051   ----------------------------------------
 BYTE   W96
//  #14 //052   ----------------------------------------
 BYTE   W96
//  #14 //053   ----------------------------------------
 BYTE   W96
//  #14 //054   ----------------------------------------
 BYTE   W96
//  #14 //055   ----------------------------------------
 BYTE   W96
//  #14 //056   ----------------------------------------
 BYTE   W96
//  #14 //057   ----------------------------------------
 BYTE   W96
//  #14 //058   ----------------------------------------
 BYTE   W96
//  #14 //059   ----------------------------------------
 BYTE   W96
//  #14 //060   ----------------------------------------
 BYTE   W42
 BYTE   N06  An1  v127
 BYTE   W06
 BYTE   N48  En2
 BYTE   W48
//  #14 //061   ----------------------------------------
 BYTE   W36
 BYTE   N12  An1
 BYTE   W12
 BYTE   N24  En2
 BYTE   W24
 BYTE   Fn2
 BYTE   W24
//  #14 //062   ----------------------------------------
 BYTE   N48  Cn2
 BYTE   W48
 BYTE   An1
 BYTE   W48
//  #14 //063   ----------------------------------------
 BYTE   N36  Cn2
 BYTE   W36
 BYTE   N06  Bn1
 BYTE   W06
 BYTE   An1
 BYTE   W06
 BYTE   N24  Bn1
 BYTE   W24
 BYTE   Gs1
 BYTE   W24
//  #14 //064   ----------------------------------------
 BYTE   N48  Cn2
 BYTE   W96
//  #14 //065   ----------------------------------------
 BYTE   W96
//  #14 //066   ----------------------------------------
 BYTE   W96
//  #14 //067   ----------------------------------------
 BYTE   W96
//  #14 //068   ----------------------------------------
 BYTE   W96
//  #14 //069   ----------------------------------------
 BYTE   W96
//  #14 //070   ----------------------------------------
 BYTE   W96
//  #14 //071   ----------------------------------------
 BYTE   W96
//  #14 //072   ----------------------------------------
 BYTE   W96
//  #14 //073   ----------------------------------------
 BYTE   W96
//  #14 //074   ----------------------------------------
 BYTE   W96
//  #14 //075   ----------------------------------------
 BYTE   W96
//  #14 //076   ----------------------------------------
 BYTE   W96
//  #14 //077   ----------------------------------------
 BYTE   W96
//  #14 //078   ----------------------------------------
 BYTE   W96
//  #14 //079   ----------------------------------------
 BYTE   W96
//  #14 //080   ----------------------------------------
 BYTE   W96
//  #14 //081   ----------------------------------------
 BYTE   W96
//  #14 //082   ----------------------------------------
 BYTE   W96
//  #14 //083   ----------------------------------------
 BYTE   W96
//  #14 //084   ----------------------------------------
 BYTE   GoTo
  POIN2 Label_010004C6
 BYTE   FINE

//**************** Track 15 (Midi-Chn.14) ****************//

DiscoDescent_015:
//  #15 //000   ----------------------------------------
 BYTE   KEYSH   DiscoDescent_key+0
 BYTE   VOICE   124
 BYTE   VOL   50*DiscoDescent_mvl/mxv
 BYTE   N06  Cn1  v127
 BYTE   TIE  An2  v112
 BYTE   W06
 BYTE   N18  Cn1  v127
 BYTE   N06  Fs1  v108
 BYTE   W06
 BYTE   Fs1  v127
 BYTE   W06
 BYTE   N18  Fs1  v120
 BYTE   W06
 BYTE   N12  Dn1  v127
 BYTE   W12
 BYTE   N06  Cn1
 BYTE   N06  Fs1
 BYTE   W06
 BYTE   N18  Cn1
 BYTE   N06  Fs1  v108
 BYTE   W06
 BYTE   As1
 BYTE   W06
 BYTE   Gs1  v100
 BYTE   W06
 BYTE   Fs1  v116
 BYTE   W06
 BYTE   N18  Fs1  v100
 BYTE   W06
 BYTE   N06  Dn1  v127
 BYTE   W06
 BYTE   N18  Cn1
 BYTE   W06
 BYTE   N06  Fs1
 BYTE   W06
 BYTE   N06
 BYTE   W06
//  #15 //001   ----------------------------------------
 BYTE   Cn1
 BYTE   N06  Fs1
 BYTE   W06
 BYTE   N18  Cn1
 BYTE   N06  Fs1  v108
 BYTE   W06
 BYTE   Fs1  v127
 BYTE   W06
 BYTE   N12  Fs1  v120
 BYTE   W06
 BYTE   Dn1  v127
 BYTE   W06
 BYTE   N06  Fs1
 BYTE   W06
 BYTE   Cn1
 BYTE   N06  Fs1
 BYTE   W06
 BYTE   N18  Cn1
 BYTE   N06  Fs1  v108
 BYTE   W06
 BYTE   As1
 BYTE   W06
 BYTE   Gs1  v100
 BYTE   W06
 BYTE   Fs1  v116
 BYTE   W06
 BYTE   N18  Fs1  v100
 BYTE   W06
 BYTE   N06  Dn1  v127
 BYTE   W06
 BYTE   N18  Cn1
 BYTE   W06
 BYTE   N06  Fs1
 BYTE   W06
 BYTE   N06
 BYTE   W06
//  #15 //002   ----------------------------------------
 BYTE   EOT
 BYTE   An2
 BYTE   N06  Cn1
 BYTE   N06  Fs1
 BYTE   W06
 BYTE   N18  Cn1
 BYTE   N06  Fs1  v108
 BYTE   W06
 BYTE   Fs1  v127
 BYTE   W06
 BYTE   N18  Fs1  v120
 BYTE   W06
 BYTE   N24  Dn1  v127
 BYTE   W12
 BYTE   N06  Cn1
 BYTE   N06  Fs1
 BYTE   W06
 BYTE   N18  Cn1
 BYTE   N06  Fs1  v108
 BYTE   W06
 BYTE   As1
 BYTE   N02  An2  v028
 BYTE   W02
 BYTE   N02
 BYTE   W02
 BYTE   N02
 BYTE   W02
 BYTE   N06  Gs1  v100
 BYTE   N02  An2  v032
 BYTE   W02
 BYTE   N02
 BYTE   W02
 BYTE   N02
 BYTE   W02
 BYTE   N06  Fs1  v116
 BYTE   N02  An2  v036
 BYTE   W02
 BYTE   N02
 BYTE   W02
 BYTE   N02
 BYTE   W02
 BYTE   N18  Fs1  v100
 BYTE   N02  An2  v040
 BYTE   W02
 BYTE   N02
 BYTE   W02
 BYTE   N02
 BYTE   W02
 BYTE   N06  Dn1  v127
 BYTE   N02  An2  v044
 BYTE   W02
 BYTE   N02
 BYTE   W02
 BYTE   N02
 BYTE   W02
 BYTE   N18  Cn1  v127
 BYTE   N02  An2  v048
 BYTE   W02
 BYTE   N02
 BYTE   W02
 BYTE   N02
 BYTE   W02
 BYTE   N06  Fs1  v127
 BYTE   N02  An2  v052
 BYTE   W02
 BYTE   N02
 BYTE   W02
 BYTE   N02
 BYTE   W02
 BYTE   N06  Fs1  v127
 BYTE   N02  An2  v056
 BYTE   W02
 BYTE   N02
 BYTE   W02
 BYTE   N02
 BYTE   W02
//  #15 //003   ----------------------------------------
 BYTE   N06  Cn1  v127
 BYTE   N06  Fs1
 BYTE   N02  An2  v060
 BYTE   W02
 BYTE   N02
 BYTE   W02
 BYTE   N02
 BYTE   W02
 BYTE   N18  Cn1  v127
 BYTE   N06  Fs1  v108
 BYTE   N02  An2  v064
 BYTE   W02
 BYTE   N02
 BYTE   W02
 BYTE   N02
 BYTE   W02
 BYTE   N06  Fs1  v127
 BYTE   N02  An2  v064
 BYTE   W02
 BYTE   N02
 BYTE   W02
 BYTE   N02
 BYTE   W02
 BYTE   N12  Fs1  v120
 BYTE   N02  An2  v072
 BYTE   W02
 BYTE   N02
 BYTE   W02
 BYTE   N02
 BYTE   W02
 BYTE   N24  Dn1  v127
 BYTE   N02  An2  v076
 BYTE   W02
 BYTE   N02
 BYTE   W02
 BYTE   N02
 BYTE   W02
 BYTE   N06  Fs1  v127
 BYTE   N02  An2  v080
 BYTE   W02
 BYTE   N02
 BYTE   W02
 BYTE   N02
 BYTE   W02
 BYTE   N06  Fs1  v127
 BYTE   N02  An2  v084
 BYTE   W02
 BYTE   N02
 BYTE   W02
 BYTE   N02
 BYTE   W02
 BYTE   N06  Fs1  v108
 BYTE   N02  An2  v084
 BYTE   W02
 BYTE   N02
 BYTE   W02
 BYTE   N02
 BYTE   W02
 BYTE   N12  Dn1
 BYTE   N04  An2  v088
 BYTE   W04
 BYTE   N04
 BYTE   W04
 BYTE   N04
 BYTE   W04
 BYTE   N12  Dn1  v100
 BYTE   N04  An2
 BYTE   W04
 BYTE   N04
 BYTE   W04
 BYTE   N04
 BYTE   W04
 BYTE   N06  Dn1  v104
 BYTE   N04  An2  v112
 BYTE   W04
 BYTE   N04
 BYTE   W02
 BYTE   N06  Dn1  v116
 BYTE   W02
 BYTE   N04  An2  v112
 BYTE   W04
 BYTE   N06  Dn1  v116
 BYTE   N04  Fn2
 BYTE   N04  An2  v120
 BYTE   W04
 BYTE   Fn2  v116
 BYTE   N04  An2  v120
 BYTE   W02
 BYTE   N06  Dn1  v127
 BYTE   W02
 BYTE   N04  Fn2  v116
 BYTE   N04  An2  v120
 BYTE   W04
//  #15 //004   ----------------------------------------
Label_010007D8:
 BYTE   N12  Cn1  v127
 BYTE   N96  Cs2
 BYTE   N96  An2
 BYTE   W12
 BYTE   N06  Fs1
 BYTE   W06
 BYTE   N06
 BYTE   W06
 BYTE   N12  Dn1
 BYTE   W12
 BYTE   N06  Fs1  v104
 BYTE   W06
 BYTE   Fs1  v127
 BYTE   W06
 BYTE   N12  Cn1
 BYTE   W12
 BYTE   N06  Fs1
 BYTE   W06
 BYTE   N06
 BYTE   W06
 BYTE   N12  Dn1
 BYTE   W12
 BYTE   N06  Fs1  v104
 BYTE   W06
 BYTE   Fs1  v127
 BYTE   W06
 BYTE   PEND 
//  #15 //005   ----------------------------------------
Label_01000802:
 BYTE   N12  Cn1  v127
 BYTE   W12
 BYTE   N06  Fs1
 BYTE   W06
 BYTE   N06
 BYTE   W06
 BYTE   N12  Dn1
 BYTE   W06
 BYTE   N06  Fs1  v084
 BYTE   W06
 BYTE   Fs1  v104
 BYTE   W06
 BYTE   Fs1  v127
 BYTE   W06
 BYTE   N12  Cn1
 BYTE   W12
 BYTE   N06  Fs1
 BYTE   W06
 BYTE   N06
 BYTE   W06
 BYTE   N12  Dn1
 BYTE   W06
 BYTE   N06  Fs1  v084
 BYTE   W06
 BYTE   Fs1  v104
 BYTE   W06
 BYTE   Fs1  v127
 BYTE   W06
 BYTE   PEND 
//  #15 //006   ----------------------------------------
 BYTE   PATT
  POIN2 Label_01000802
//  #15 //007   ----------------------------------------
 BYTE   N12  Cn1  v127
 BYTE   W12
 BYTE   N06  Fs1
 BYTE   W06
 BYTE   N06
 BYTE   W06
 BYTE   N12  Dn1
 BYTE   W06
 BYTE   N06  Fs1  v084
 BYTE   W06
 BYTE   Fs1  v104
 BYTE   W06
 BYTE   Fs1  v127
 BYTE   W06
 BYTE   N12  Cn1
 BYTE   W06
 BYTE   N06  Dn1  v060
 BYTE   W06
 BYTE   Dn1  v076
 BYTE   N06  Fs1  v127
 BYTE   W06
 BYTE   Dn1  v084
 BYTE   N06  Fs1  v127
 BYTE   W06
 BYTE   Dn1  v100
 BYTE   W06
 BYTE   Dn1  v108
 BYTE   N06  Fs1  v088
 BYTE   W06
 BYTE   Dn1  v116
 BYTE   N06  Fs1  v104
 BYTE   W06
 BYTE   Dn1  v127
 BYTE   N06  Fs1
 BYTE   W06
//  #15 //008   ----------------------------------------
 BYTE   PATT
  POIN2 Label_01000802
//  #15 //009   ----------------------------------------
 BYTE   PATT
  POIN2 Label_01000802
//  #15 //010   ----------------------------------------
 BYTE   PATT
  POIN2 Label_01000802
//  #15 //011   ----------------------------------------
 BYTE   N12  Cn1  v127
 BYTE   N02  An2  v032
 BYTE   W02
 BYTE   N02
 BYTE   W02
 BYTE   N02
 BYTE   W02
 BYTE   An2  v036
 BYTE   W02
 BYTE   N02
 BYTE   W02
 BYTE   N02
 BYTE   W02
 BYTE   N06  Fs1  v127
 BYTE   N02  An2  v040
 BYTE   W02
 BYTE   N02
 BYTE   W02
 BYTE   N02
 BYTE   W02
 BYTE   N06  Fs1  v127
 BYTE   N02  An2  v048
 BYTE   W02
 BYTE   N02
 BYTE   W02
 BYTE   N02
 BYTE   W02
 BYTE   N12  Dn1  v127
 BYTE   N02  An2  v048
 BYTE   W02
 BYTE   N02
 BYTE   W02
 BYTE   N02
 BYTE   W02
 BYTE   N06  Fs1  v084
 BYTE   N02  An2  v056
 BYTE   W02
 BYTE   N02
 BYTE   W02
 BYTE   N02
 BYTE   W02
 BYTE   N06  Fs1  v104
 BYTE   N02  An2  v060
 BYTE   W02
 BYTE   N02
 BYTE   W02
 BYTE   N02
 BYTE   W02
 BYTE   N06  Fs1  v127
 BYTE   N02  An2  v072
 BYTE   W02
 BYTE   N02
 BYTE   W02
 BYTE   N02
 BYTE   W02
 BYTE   N12  Cn1  v127
 BYTE   N03  An2  v080
 BYTE   W03
 BYTE   N03
 BYTE   W03
 BYTE   An2  v088
 BYTE   W03
 BYTE   N03
 BYTE   W03
 BYTE   N06  Fs1  v127
 BYTE   N03  An2  v092
 BYTE   W03
 BYTE   N03
 BYTE   W03
 BYTE   N06  Fs1  v127
 BYTE   N03  An2  v096
 BYTE   W03
 BYTE   N03
 BYTE   W03
 BYTE   N12  Dn1  v127
 BYTE   N04  An2  v100
 BYTE   W04
 BYTE   N04
 BYTE   W02
 BYTE   N06  Fs1  v084
 BYTE   W02
 BYTE   N04  An2  v112
 BYTE   W04
 BYTE   N06  Fs1  v104
 BYTE   N04  Fn2  v112
 BYTE   N04  An2
 BYTE   W04
 BYTE   Fn2
 BYTE   N04  An2  v120
 BYTE   W02
 BYTE   N06  Fs1  v127
 BYTE   W02
 BYTE   N04  Fn2  v112
 BYTE   N04  An2  v120
 BYTE   W04
//  #15 //012   ----------------------------------------
 BYTE   N96  Cs2  v127
 BYTE   N96  An2
 BYTE   W96
//  #15 //013   ----------------------------------------
 BYTE   W96
//  #15 //014   ----------------------------------------
 BYTE   W96
//  #15 //015   ----------------------------------------
 BYTE   W84
 BYTE   N06  Dn1
 BYTE   W06
 BYTE   N06
 BYTE   W06
//  #15 //016   ----------------------------------------
 BYTE   PATT
  POIN2 Label_010007D8
//  #15 //017   ----------------------------------------
Label_01000930:
 BYTE   N12  Cn1  v127
 BYTE   W12
 BYTE   N06  Fs1
 BYTE   W06
 BYTE   N06
 BYTE   W06
 BYTE   N12  Dn1
 BYTE   W12
 BYTE   N06  Fs1  v104
 BYTE   W06
 BYTE   Fs1  v127
 BYTE   W06
 BYTE   N12  Cn1
 BYTE   W12
 BYTE   N06  Fs1
 BYTE   W06
 BYTE   N06
 BYTE   W06
 BYTE   N12  Dn1
 BYTE   W06
 BYTE   N06  Fs1  v084
 BYTE   W06
 BYTE   Fs1  v104
 BYTE   W06
 BYTE   Fs1  v127
 BYTE   W06
 BYTE   PEND 
//  #15 //018   ----------------------------------------
Label_01000959:
 BYTE   N12  Cn1  v127
 BYTE   W12
 BYTE   N06  Fs1
 BYTE   W06
 BYTE   N06
 BYTE   W06
 BYTE   N12  Dn1
 BYTE   W12
 BYTE   N06  Fs1  v104
 BYTE   W06
 BYTE   Fs1  v127
 BYTE   W06
 BYTE   N12  Cn1
 BYTE   W12
 BYTE   N06  Fs1
 BYTE   W06
 BYTE   N06
 BYTE   W06
 BYTE   N12  Dn1
 BYTE   W12
 BYTE   N06  Fs1  v104
 BYTE   W06
 BYTE   Fs1  v127
 BYTE   W06
 BYTE   PEND 
//  #15 //019   ----------------------------------------
 BYTE   PATT
  POIN2 Label_01000930
//  #15 //020   ----------------------------------------
 BYTE   PATT
  POIN2 Label_01000959
//  #15 //021   ----------------------------------------
 BYTE   PATT
  POIN2 Label_01000930
//  #15 //022   ----------------------------------------
 BYTE   PATT
  POIN2 Label_01000959
//  #15 //023   ----------------------------------------
 BYTE   PATT
  POIN2 Label_01000930
//  #15 //024   ----------------------------------------
 BYTE   N12  Cn1  v127
 BYTE   N96  An2
 BYTE   W12
 BYTE   N06  Fs1
 BYTE   W06
 BYTE   N06
 BYTE   W06
 BYTE   N12  Dn1
 BYTE   N06  Fs1
 BYTE   W06
 BYTE   Fs1  v084
 BYTE   W06
 BYTE   Fs1  v104
 BYTE   W12
 BYTE   N12  Cn1  v127
 BYTE   W12
 BYTE   N06  Fs1
 BYTE   W06
 BYTE   N06
 BYTE   W06
 BYTE   N12  Dn1
 BYTE   N06  Fs1
 BYTE   W06
 BYTE   Fs1  v084
 BYTE   W06
 BYTE   Fs1  v104
 BYTE   W12
//  #15 //025   ----------------------------------------
Label_010009C2:
 BYTE   N12  Cn1  v127
 BYTE   W12
 BYTE   N06  Fs1
 BYTE   W06
 BYTE   N06
 BYTE   W06
 BYTE   N12  Dn1
 BYTE   W12
 BYTE   N06  Fs1  v104
 BYTE   W06
 BYTE   Fs1  v127
 BYTE   W06
 BYTE   N12  Cn1
 BYTE   W12
 BYTE   N06  Fs1
 BYTE   W06
 BYTE   N06
 BYTE   W06
 BYTE   N12  Dn1
 BYTE   N06  Fs1
 BYTE   W06
 BYTE   Fs1  v084
 BYTE   W06
 BYTE   Fs1  v104
 BYTE   W06
 BYTE   Fs1  v127
 BYTE   W06
 BYTE   PEND 
//  #15 //026   ----------------------------------------
 BYTE   N12  Cn1
 BYTE   W12
 BYTE   N06  Fs1
 BYTE   W06
 BYTE   N06
 BYTE   W06
 BYTE   N12  Dn1
 BYTE   N06  Fs1
 BYTE   W06
 BYTE   Fs1  v084
 BYTE   W06
 BYTE   Fs1  v104
 BYTE   W12
 BYTE   N12  Cn1  v127
 BYTE   W12
 BYTE   N06  Fs1
 BYTE   W06
 BYTE   N06
 BYTE   W06
 BYTE   N12  Dn1
 BYTE   N06  Fs1
 BYTE   W06
 BYTE   Fs1  v084
 BYTE   W06
 BYTE   Fs1  v104
 BYTE   W12
//  #15 //027   ----------------------------------------
 BYTE   PATT
  POIN2 Label_010009C2
//  #15 //028   ----------------------------------------
 BYTE   N12  Cn1  v127
 BYTE   N96  Cs2
 BYTE   N96  An2
 BYTE   W12
 BYTE   N06  Fs1  v116
 BYTE   W06
 BYTE   Fs1  v108
 BYTE   W06
 BYTE   N12  Dn1  v127
 BYTE   W12
 BYTE   N06  Fs1  v116
 BYTE   W06
 BYTE   Fs1  v108
 BYTE   W06
 BYTE   N12  Cn1  v127
 BYTE   W12
 BYTE   N06  Fs1  v116
 BYTE   W06
 BYTE   Fs1  v108
 BYTE   W06
 BYTE   N12  Dn1  v127
 BYTE   W12
 BYTE   N06  Fs1  v116
 BYTE   W06
 BYTE   Fs1  v108
 BYTE   W06
//  #15 //029   ----------------------------------------
 BYTE   N12  Cn1  v127
 BYTE   N06  Fs1
 BYTE   W06
 BYTE   Fs1  v108
 BYTE   W06
 BYTE   Fs1  v116
 BYTE   W06
 BYTE   Fs1  v108
 BYTE   W06
 BYTE   N12  Dn1  v127
 BYTE   N06  Fs1
 BYTE   W06
 BYTE   Fs1  v108
 BYTE   W06
 BYTE   Fs1  v116
 BYTE   W06
 BYTE   Fs1  v108
 BYTE   W06
 BYTE   N12  Cn1  v127
 BYTE   N06  Fs1
 BYTE   W06
 BYTE   Fs1  v108
 BYTE   W06
 BYTE   Fs1  v116
 BYTE   W06
 BYTE   Fs1  v108
 BYTE   W06
 BYTE   N12  Dn1  v127
 BYTE   N06  Fs1
 BYTE   W06
 BYTE   Fs1  v108
 BYTE   W06
 BYTE   Fs1  v116
 BYTE   W06
 BYTE   As1  v108
 BYTE   W06
//  #15 //030   ----------------------------------------
 BYTE   N12  Cn1  v127
 BYTE   N06  Gs1
 BYTE   W06
 BYTE   Fs1  v108
 BYTE   W06
 BYTE   Fs1  v116
 BYTE   W06
 BYTE   Fs1  v108
 BYTE   W06
 BYTE   N12  Dn1  v127
 BYTE   N06  Fs1
 BYTE   W06
 BYTE   Fs1  v108
 BYTE   W06
 BYTE   Fs1  v116
 BYTE   W06
 BYTE   Fs1  v108
 BYTE   W06
 BYTE   N12  Cn1  v127
 BYTE   N06  Fs1
 BYTE   W06
 BYTE   Fs1  v108
 BYTE   W06
 BYTE   Fs1  v116
 BYTE   W06
 BYTE   Fs1  v108
 BYTE   W06
 BYTE   N12  Dn1  v127
 BYTE   N06  Fs1
 BYTE   W06
 BYTE   Fs1  v108
 BYTE   W06
 BYTE   Fs1  v116
 BYTE   W06
 BYTE   Fs1  v108
 BYTE   W06
//  #15 //031   ----------------------------------------
 BYTE   N12  Cn1  v127
 BYTE   N06  Fs1
 BYTE   W06
 BYTE   Fs1  v108
 BYTE   W06
 BYTE   Fs1  v116
 BYTE   W06
 BYTE   Fs1  v108
 BYTE   W06
 BYTE   N12  Dn1  v127
 BYTE   N06  Fs1
 BYTE   W06
 BYTE   Fs1  v108
 BYTE   W06
 BYTE   Fs1  v116
 BYTE   W06
 BYTE   Fs1  v108
 BYTE   W06
 BYTE   N12  Cn1  v127
 BYTE   N06  Fs1
 BYTE   W06
 BYTE   Fs1  v108
 BYTE   W06
 BYTE   As1  v116
 BYTE   W06
 BYTE   Gs1  v108
 BYTE   W06
 BYTE   N12  Dn1  v127
 BYTE   N06  Fs1
 BYTE   W06
 BYTE   Fs1  v108
 BYTE   W06
 BYTE   As1  v116
 BYTE   W06
 BYTE   Gs1  v108
 BYTE   W06
//  #15 //032   ----------------------------------------
 BYTE   N24  Cn1  v127
 BYTE   W12
 BYTE   N06  As1  v104
 BYTE   W06
 BYTE   N18  Gs1  v127
 BYTE   W06
 BYTE   N24  Cn1
 BYTE   N48  Dn1
 BYTE   W12
 BYTE   N24  Fs1
 BYTE   W12
 BYTE   Cn1
 BYTE   W12
 BYTE   N06  Fs1
 BYTE   W06
 BYTE   N18  Fs1  v108
 BYTE   W06
 BYTE   N24  Cn1  v127
 BYTE   N48  Dn1
 BYTE   W12
 BYTE   N24  Fs1
 BYTE   W12
//  #15 //033   ----------------------------------------
 BYTE   Cn1
 BYTE   W12
 BYTE   N06  Fs1
 BYTE   W06
 BYTE   N18  Fs1  v108
 BYTE   W06
 BYTE   N24  Cn1  v127
 BYTE   N48  Dn1
 BYTE   W12
 BYTE   N06  As1  v100
 BYTE   W06
 BYTE   N18  Gs1  v096
 BYTE   W06
 BYTE   N24  Cn1  v127
 BYTE   W12
 BYTE   N06  Fs1
 BYTE   W06
 BYTE   N18  Fs1  v104
 BYTE   W06
 BYTE   N24  Cn1  v127
 BYTE   N24  Dn1
 BYTE   W12
 BYTE   N06  As1
 BYTE   W06
 BYTE   N18  Gs1
 BYTE   W06
//  #15 //034   ----------------------------------------
 BYTE   N24  Cn1
 BYTE   W12
 BYTE   N06  Fs1
 BYTE   W06
 BYTE   N18
 BYTE   W06
 BYTE   N24  Cn1
 BYTE   N48  Dn1
 BYTE   W12
 BYTE   N24  Fs1
 BYTE   W12
 BYTE   Cn1
 BYTE   W12
 BYTE   N06  Fs1
 BYTE   W06
 BYTE   N18  Fs1  v108
 BYTE   W06
 BYTE   N24  Cn1  v127
 BYTE   N48  Dn1
 BYTE   W12
 BYTE   N24  Fs1
 BYTE   W12
//  #15 //035   ----------------------------------------
 BYTE   Cn1
 BYTE   W12
 BYTE   N06  Fs1
 BYTE   W06
 BYTE   N18  Fs1  v108
 BYTE   W06
 BYTE   N24  Cn1  v127
 BYTE   N48  Dn1
 BYTE   W12
 BYTE   N06  As1  v100
 BYTE   W06
 BYTE   N18  Gs1  v096
 BYTE   W06
 BYTE   N24  Cn1  v127
 BYTE   W12
 BYTE   N06  Fs1
 BYTE   W06
 BYTE   N12  Fs1  v104
 BYTE   W06
 BYTE   N24  Cn1  v127
 BYTE   N24  Dn1
 BYTE   W06
 BYTE   N06  Fs1  v104
 BYTE   W06
 BYTE   As1
 BYTE   W06
 BYTE   Gs1
 BYTE   W06
//  #15 //036   ----------------------------------------
 BYTE   N24  Cn1  v127
 BYTE   W12
 BYTE   N06  As1  v104
 BYTE   W06
 BYTE   N12  Gs1  v127
 BYTE   W06
 BYTE   N24  Cn1
 BYTE   N48  Dn1
 BYTE   W06
 BYTE   N06  Fs1  v104
 BYTE   W06
 BYTE   As1
 BYTE   W06
 BYTE   N18  Gs1
 BYTE   W06
 BYTE   N24  Cn1  v127
 BYTE   W12
 BYTE   N06  Fs1
 BYTE   W06
 BYTE   N18  Fs1  v108
 BYTE   W06
 BYTE   N24  Cn1  v127
 BYTE   N48  Dn1
 BYTE   W12
 BYTE   N24  Fs1
 BYTE   W12
//  #15 //037   ----------------------------------------
Label_01000BD0:
 BYTE   N24  Cn1  v127
 BYTE   W12
 BYTE   N06  Fs1
 BYTE   W06
 BYTE   As1  v108
 BYTE   W06
 BYTE   N24  Cn1  v127
 BYTE   N48  Dn1
 BYTE   N12  Gs1  v104
 BYTE   W12
 BYTE   N06  As1  v100
 BYTE   W06
 BYTE   N18  Gs1  v096
 BYTE   W06
 BYTE   N24  Cn1  v127
 BYTE   W12
 BYTE   N06  Fs1
 BYTE   W06
 BYTE   N18  Fs1  v104
 BYTE   W06
 BYTE   N24  Cn1  v127
 BYTE   N24  Dn1
 BYTE   W12
 BYTE   N06  As1  v104
 BYTE   W06
 BYTE   Gs1
 BYTE   W06
 BYTE   PEND 
//  #15 //038   ----------------------------------------
 BYTE   N24  Cn1  v127
 BYTE   W06
 BYTE   N06  Fs1  v104
 BYTE   W06
 BYTE   As1
 BYTE   W06
 BYTE   N12  Gs1  v127
 BYTE   W06
 BYTE   N24  Cn1
 BYTE   N48  Dn1
 BYTE   W06
 BYTE   N06  Fs1  v104
 BYTE   W06
 BYTE   As1
 BYTE   W06
 BYTE   N12  Gs1
 BYTE   W06
 BYTE   N24  Cn1  v127
 BYTE   W06
 BYTE   N06  Fs1  v104
 BYTE   W06
 BYTE   Fs1  v127
 BYTE   W06
 BYTE   Fs1  v108
 BYTE   W06
 BYTE   N24  Cn1  v127
 BYTE   N48  Dn1
 BYTE   W06
 BYTE   N06  Fs1  v104
 BYTE   W06
 BYTE   As1
 BYTE   W06
 BYTE   Gs1
 BYTE   W06
//  #15 //039   ----------------------------------------
 BYTE   PATT
  POIN2 Label_01000BD0
//  #15 //040   ----------------------------------------
 BYTE   N12  Cn1  v127
 BYTE   N96  Cs2  v108
 BYTE   N96  An2
 BYTE   W12
 BYTE   N06  Fs1  v127
 BYTE   W06
 BYTE   Fs1  v108
 BYTE   W06
 BYTE   N12  Dn1  v127
 BYTE   W12
 BYTE   N06  Fs1
 BYTE   W06
 BYTE   Fs1  v108
 BYTE   W06
 BYTE   N12  Cn1  v127
 BYTE   W12
 BYTE   N06  Fs1
 BYTE   W06
 BYTE   Fs1  v108
 BYTE   W06
 BYTE   N12  Dn1  v127
 BYTE   W12
 BYTE   N06  Fs1
 BYTE   W06
 BYTE   N06
 BYTE   W06
//  #15 //041   ----------------------------------------
Label_01000C6D:
 BYTE   N24  Cn1  v127
 BYTE   W12
 BYTE   N06  Fs1
 BYTE   W06
 BYTE   Fs1  v108
 BYTE   W06
 BYTE   N24  Cn1  v127
 BYTE   N24  Dn1
 BYTE   W12
 BYTE   N06  Fs1
 BYTE   W06
 BYTE   Fs1  v108
 BYTE   W06
 BYTE   N24  Cn1  v127
 BYTE   W12
 BYTE   N06  Fs1
 BYTE   W06
 BYTE   Fs1  v108
 BYTE   W06
 BYTE   N24  Cn1  v127
 BYTE   N24  Dn1
 BYTE   W12
 BYTE   N06  Fs1
 BYTE   W12
 BYTE   PEND 
//  #15 //042   ----------------------------------------
 BYTE   PATT
  POIN2 Label_01000C6D
//  #15 //043   ----------------------------------------
 BYTE   PATT
  POIN2 Label_01000C6D
//  #15 //044   ----------------------------------------
 BYTE   PATT
  POIN2 Label_01000C6D
//  #15 //045   ----------------------------------------
 BYTE   PATT
  POIN2 Label_01000C6D
//  #15 //046   ----------------------------------------
 BYTE   PATT
  POIN2 Label_01000C6D
//  #15 //047   ----------------------------------------
 BYTE   PATT
  POIN2 Label_01000C6D
//  #15 //048   ----------------------------------------
 BYTE   PATT
  POIN2 Label_01000C6D
//  #15 //049   ----------------------------------------
 BYTE   PATT
  POIN2 Label_01000C6D
//  #15 //050   ----------------------------------------
 BYTE   PATT
  POIN2 Label_01000C6D
//  #15 //051   ----------------------------------------
 BYTE   N24  Cn1  v127
 BYTE   W12
 BYTE   N06  Fs1
 BYTE   W06
 BYTE   Fs1  v108
 BYTE   W06
 BYTE   N24  Cn1  v127
 BYTE   N24  Dn1
 BYTE   W12
 BYTE   N06  Fs1
 BYTE   W06
 BYTE   Fs1  v108
 BYTE   W06
 BYTE   N24  Cn1  v127
 BYTE   W12
 BYTE   N06  Fs1
 BYTE   W06
 BYTE   Fs1  v108
 BYTE   W06
 BYTE   N24  Cn1  v127
 BYTE   N06  Dn1
 BYTE   W06
 BYTE   Dn1  v108
 BYTE   W06
 BYTE   N06
 BYTE   N06  Fs1  v127
 BYTE   W06
 BYTE   Dn1  v108
 BYTE   W06
//  #15 //052   ----------------------------------------
 BYTE   N24  Cn1  v127
 BYTE   N24  An2
 BYTE   W12
 BYTE   Fs1
 BYTE   W12
 BYTE   Cn1
 BYTE   N24  Dn1
 BYTE   W12
 BYTE   Fs1
 BYTE   W12
 BYTE   Cn1
 BYTE   N06  As1
 BYTE   W06
 BYTE   N18  Gs1
 BYTE   W06
 BYTE   N24  Fs1
 BYTE   W12
 BYTE   Cn1
 BYTE   N24  Dn1
 BYTE   W12
 BYTE   N06  Fs1
 BYTE   W06
 BYTE   N18
 BYTE   W06
//  #15 //053   ----------------------------------------
Label_01000D16:
 BYTE   N24  Cn1  v127
 BYTE   W12
 BYTE   Fs1
 BYTE   W12
 BYTE   Cn1
 BYTE   N24  Dn1
 BYTE   W12
 BYTE   Fs1
 BYTE   W12
 BYTE   Cn1
 BYTE   N06  As1
 BYTE   W06
 BYTE   N18  Gs1
 BYTE   W06
 BYTE   N24  Fs1
 BYTE   W12
 BYTE   Cn1
 BYTE   N24  Dn1
 BYTE   W12
 BYTE   N06  Fs1
 BYTE   W06
 BYTE   N18
 BYTE   W06
 BYTE   PEND 
//  #15 //054   ----------------------------------------
 BYTE   PATT
  POIN2 Label_01000D16
//  #15 //055   ----------------------------------------
 BYTE   PATT
  POIN2 Label_01000D16
//  #15 //056   ----------------------------------------
Label_01000D40:
 BYTE   N24  Cn1  v127
 BYTE   W12
 BYTE   Fs1
 BYTE   W12
 BYTE   Cn1
 BYTE   N24  Dn1
 BYTE   W12
 BYTE   Fs1
 BYTE   W12
 BYTE   Cn1
 BYTE   W12
 BYTE   Fs1
 BYTE   W12
 BYTE   Cn1
 BYTE   N24  Dn1
 BYTE   W12
 BYTE   Fs1
 BYTE   W12
 BYTE   PEND 
//  #15 //057   ----------------------------------------
Label_01000D57:
 BYTE   N24  Cn1  v127
 BYTE   W12
 BYTE   Fs1
 BYTE   W12
 BYTE   Cn1
 BYTE   N24  Dn1
 BYTE   W12
 BYTE   Fs1
 BYTE   W12
 BYTE   Cn1
 BYTE   W12
 BYTE   Fs1
 BYTE   W12
 BYTE   Cn1
 BYTE   N12  Dn1
 BYTE   W12
 BYTE   N06  As1
 BYTE   W06
 BYTE   N18  Gs1
 BYTE   W06
 BYTE   PEND 
//  #15 //058   ----------------------------------------
 BYTE   PATT
  POIN2 Label_01000D40
//  #15 //059   ----------------------------------------
 BYTE   PATT
  POIN2 Label_01000D57
//  #15 //060   ----------------------------------------
 BYTE   PATT
  POIN2 Label_01000D40
//  #15 //061   ----------------------------------------
 BYTE   PATT
  POIN2 Label_01000D57
//  #15 //062   ----------------------------------------
 BYTE   PATT
  POIN2 Label_01000D40
//  #15 //063   ----------------------------------------
 BYTE   N24  Cn1  v127
 BYTE   W12
 BYTE   Fs1
 BYTE   W12
 BYTE   Cn1
 BYTE   N24  Dn1
 BYTE   W12
 BYTE   Fs1
 BYTE   W12
 BYTE   Cn1
 BYTE   W12
 BYTE   Fs1
 BYTE   W12
 BYTE   Cn1
 BYTE   N24  Dn1
 BYTE   W12
 BYTE   N06  As1
 BYTE   W06
 BYTE   N18  Gs1
 BYTE   W06
//  #15 //064   ----------------------------------------
 BYTE   PATT
  POIN2 Label_01000802
//  #15 //065   ----------------------------------------
 BYTE   PATT
  POIN2 Label_01000802
//  #15 //066   ----------------------------------------
 BYTE   PATT
  POIN2 Label_01000802
//  #15 //067   ----------------------------------------
 BYTE   N12  Cn1  v127
 BYTE   N06  Cs1  v020
 BYTE   N06  Ds1
 BYTE   W06
 BYTE   Cs1  v024
 BYTE   N06  Ds1
 BYTE   W06
 BYTE   Cs1  v032
 BYTE   N06  Ds1
 BYTE   N06  Fs1  v127
 BYTE   W06
 BYTE   Cs1  v036
 BYTE   N06  Ds1
 BYTE   N06  Fs1  v127
 BYTE   W06
 BYTE   N12  Dn1
 BYTE   N06  Ds1  v044
 BYTE   W06
 BYTE   Ds1  v048
 BYTE   N06  Fs1  v084
 BYTE   W06
 BYTE   Cs1  v052
 BYTE   N06  Ds1
 BYTE   N06  Fs1  v104
 BYTE   W06
 BYTE   Cs1  v060
 BYTE   N06  Ds1
 BYTE   N06  Fs1  v127
 BYTE   W06
 BYTE   N12  Cn1
 BYTE   N06  Cs1  v064
 BYTE   N06  Ds1
 BYTE   W06
 BYTE   Cs1  v068
 BYTE   N06  Ds1
 BYTE   W06
 BYTE   Cs1
 BYTE   N06  Ds1
 BYTE   N06  Fs1  v127
 BYTE   W06
 BYTE   Cs1  v076
 BYTE   N06  Ds1
 BYTE   N06  Fs1  v127
 BYTE   W06
 BYTE   Cs1  v084
 BYTE   N06  Dn1
 BYTE   N06  Ds1
 BYTE   W06
 BYTE   Dn1  v096
 BYTE   N06  Ds1  v092
 BYTE   N06  Fs1  v084
 BYTE   W06
 BYTE   Dn1  v108
 BYTE   N06  Ds1  v100
 BYTE   N06  Fs1  v104
 BYTE   W06
 BYTE   Dn1  v127
 BYTE   N06  Ds1  v112
 BYTE   N06  Fs1  v127
 BYTE   W06
//  #15 //068   ----------------------------------------
 BYTE   N24  Cn1
 BYTE   N06  Fs1  v024
 BYTE   N06  Gn2
 BYTE   W06
 BYTE   Fs1
 BYTE   N06  Gn2
 BYTE   W06
 BYTE   Fs1  v032
 BYTE   N06  Gn2  v028
 BYTE   W06
 BYTE   Fs1  v032
 BYTE   N06  Gn2  v028
 BYTE   W06
 BYTE   N24  Cn1  v127
 BYTE   N06  Fs1  v040
 BYTE   N06  Gn2  v036
 BYTE   W06
 BYTE   Fs1  v040
 BYTE   N06  Gn2  v036
 BYTE   W06
 BYTE   Fs1  v040
 BYTE   N06  Gn2  v044
 BYTE   W06
 BYTE   Fs1  v040
 BYTE   N06  Gn2  v044
 BYTE   W06
 BYTE   N24  Cn1  v127
 BYTE   N06  Fs1  v040
 BYTE   N06  Gn2  v060
 BYTE   W06
 BYTE   Fs1  v040
 BYTE   N06  Gn2  v060
 BYTE   W06
 BYTE   Fs1  v040
 BYTE   N06  Gn2  v060
 BYTE   W06
 BYTE   Fs1  v040
 BYTE   N06  Gn2  v060
 BYTE   W06
 BYTE   N24  Cn1  v127
 BYTE   N06  Fs1  v040
 BYTE   N06  Gn2  v060
 BYTE   W06
 BYTE   Fs1  v040
 BYTE   N06  Gn2  v060
 BYTE   W06
 BYTE   Fs1  v040
 BYTE   N06  Gn2  v060
 BYTE   W06
 BYTE   Fs1  v040
 BYTE   N06  Gn2  v060
 BYTE   W06
//  #15 //069   ----------------------------------------
 BYTE   N24  Cn1  v127
 BYTE   N06  Fs1  v040
 BYTE   N06  Gn2  v060
 BYTE   W06
 BYTE   Fs1  v040
 BYTE   N06  Gn2  v060
 BYTE   W06
 BYTE   Fs1  v044
 BYTE   N06  Gn2  v060
 BYTE   W06
 BYTE   Fs1  v044
 BYTE   N06  Gn2  v060
 BYTE   W06
 BYTE   N24  Cn1  v127
 BYTE   N06  Fs1  v044
 BYTE   N06  Gn2  v060
 BYTE   W06
 BYTE   Fs1  v044
 BYTE   N06  Gn2  v060
 BYTE   W06
 BYTE   Fs1  v044
 BYTE   N06  Gn2  v060
 BYTE   W06
 BYTE   Fs1  v044
 BYTE   N06  Gn2  v060
 BYTE   W06
 BYTE   N24  Cn1  v127
 BYTE   N06  Fs1  v044
 BYTE   N06  Gn2  v060
 BYTE   W06
 BYTE   Fs1  v044
 BYTE   N06  Gn2  v060
 BYTE   W06
 BYTE   Fs1  v044
 BYTE   N06  Gn2  v060
 BYTE   W06
 BYTE   Fs1  v044
 BYTE   N06  Gn2  v060
 BYTE   W06
 BYTE   N24  Cn1  v127
 BYTE   N06  Fs1  v044
 BYTE   N06  Gn2  v068
 BYTE   W06
 BYTE   Fs1  v044
 BYTE   N06  Gn2  v068
 BYTE   W06
 BYTE   Fs1  v044
 BYTE   N06  Gn2  v080
 BYTE   W06
 BYTE   Fs1  v044
 BYTE   N06  Gn2  v080
 BYTE   W06
//  #15 //070   ----------------------------------------
 BYTE   N24  Cn1  v127
 BYTE   N06  Fs1  v044
 BYTE   N06  Gn2  v088
 BYTE   W06
 BYTE   Fs1  v044
 BYTE   N06  Gn2  v088
 BYTE   W06
 BYTE   Fs1  v044
 BYTE   N06  Gn2  v088
 BYTE   W06
 BYTE   Fs1  v044
 BYTE   N06  Gn2  v088
 BYTE   W06
 BYTE   N24  Cn1  v127
 BYTE   N06  Fs1  v044
 BYTE   N06  Gn2  v088
 BYTE   W06
 BYTE   Fs1  v044
 BYTE   N06  Gn2  v088
 BYTE   W06
 BYTE   Fs1  v044
 BYTE   N06  Gn2  v088
 BYTE   W06
 BYTE   Fs1  v044
 BYTE   N06  Gn2  v088
 BYTE   W06
 BYTE   N24  Cn1  v127
 BYTE   N06  Fs1  v044
 BYTE   N06  Gn2  v076
 BYTE   W06
 BYTE   Fs1  v044
 BYTE   N06  Gn2  v076
 BYTE   W06
 BYTE   Fs1  v044
 BYTE   N06  Gn2  v068
 BYTE   W06
 BYTE   Fs1  v044
 BYTE   N06  Gn2  v068
 BYTE   W06
 BYTE   N24  Cn1  v127
 BYTE   N06  Fs1  v044
 BYTE   N06  Gn2  v060
 BYTE   W06
 BYTE   Fs1  v044
 BYTE   N06  Gn2  v060
 BYTE   W06
 BYTE   Fs1  v044
 BYTE   N06  Gn2  v048
 BYTE   W06
 BYTE   Fs1  v044
 BYTE   N06  Gn2  v040
 BYTE   W06
//  #15 //071   ----------------------------------------
 BYTE   N24  Cn1  v127
 BYTE   N06  Fs1  v040
 BYTE   W06
 BYTE   N06
 BYTE   W06
 BYTE   N06
 BYTE   W06
 BYTE   N06
 BYTE   W06
 BYTE   N24  Cn1  v127
 BYTE   N06  Fs1  v040
 BYTE   W06
 BYTE   N06
 BYTE   W06
 BYTE   N06
 BYTE   W06
 BYTE   N06
 BYTE   W06
 BYTE   N24  Cn1  v127
 BYTE   N06  Fs1  v040
 BYTE   N06  An2  v020
 BYTE   W06
 BYTE   Fs1  v040
 BYTE   N06  An2  v028
 BYTE   W06
 BYTE   Fs1  v040
 BYTE   N06  An2  v036
 BYTE   W06
 BYTE   Fs1  v040
 BYTE   N06  An2  v052
 BYTE   W06
 BYTE   N24  Cn1  v127
 BYTE   N06  Fs1  v040
 BYTE   N06  An2  v068
 BYTE   W06
 BYTE   Fs1  v040
 BYTE   N06  An2  v084
 BYTE   W06
 BYTE   Fs1  v040
 BYTE   N06  An2  v100
 BYTE   W06
 BYTE   Fs1  v040
 BYTE   N06  An2  v112
 BYTE   W06
//  #15 //072   ----------------------------------------
 BYTE   N24  Cn1  v127
 BYTE   N24  An2  v096
 BYTE   W12
 BYTE   Fs1  v127
 BYTE   W12
 BYTE   Cn1
 BYTE   N24  Dn1
 BYTE   W12
 BYTE   Fs1
 BYTE   W12
 BYTE   Cn1
 BYTE   W12
 BYTE   Fs1
 BYTE   W12
 BYTE   Cn1
 BYTE   N24  Dn1
 BYTE   W12
 BYTE   N12  Fs1
 BYTE   W12
//  #15 //073   ----------------------------------------
Label_01000FE5:
 BYTE   N24  Cn1  v127
 BYTE   W12
 BYTE   Fs1
 BYTE   W12
 BYTE   Cn1
 BYTE   N24  Dn1
 BYTE   W12
 BYTE   Fs1
 BYTE   W12
 BYTE   Cn1
 BYTE   W12
 BYTE   Fs1
 BYTE   W12
 BYTE   Cn1
 BYTE   N24  Dn1
 BYTE   W12
 BYTE   N12  Fs1
 BYTE   W12
 BYTE   PEND 
//  #15 //074   ----------------------------------------
 BYTE   PATT
  POIN2 Label_01000FE5
//  #15 //075   ----------------------------------------
 BYTE   PATT
  POIN2 Label_01000FE5
//  #15 //076   ----------------------------------------
 BYTE   PATT
  POIN2 Label_01000FE5
//  #15 //077   ----------------------------------------
 BYTE   PATT
  POIN2 Label_01000FE5
//  #15 //078   ----------------------------------------
 BYTE   PATT
  POIN2 Label_01000FE5
//  #15 //079   ----------------------------------------
 BYTE   PATT
  POIN2 Label_01000FE5
//  #15 //080   ----------------------------------------
 BYTE   N24  Cn1  v127
 BYTE   N06  Dn1  v044
 BYTE   W06
 BYTE   N06
 BYTE   W06
 BYTE   Dn1  v048
 BYTE   N24  Fs1  v127
 BYTE   W06
 BYTE   N06  Dn1  v048
 BYTE   W06
 BYTE   N24  Cn1  v127
 BYTE   N06  Dn1
 BYTE   W06
 BYTE   Dn1  v056
 BYTE   W06
 BYTE   N06
 BYTE   N24  Fs1  v127
 BYTE   W06
 BYTE   N06  Dn1  v056
 BYTE   W06
 BYTE   N24  Cn1  v127
 BYTE   N06  Dn1  v060
 BYTE   W06
 BYTE   N06
 BYTE   W06
 BYTE   N06
 BYTE   N24  Fs1  v127
 BYTE   W06
 BYTE   N06  Dn1  v060
 BYTE   W06
 BYTE   N24  Cn1  v127
 BYTE   N06  Dn1
 BYTE   W06
 BYTE   Dn1  v064
 BYTE   W06
 BYTE   N06
 BYTE   N24  Fs1  v127
 BYTE   W06
 BYTE   N06  Dn1  v064
 BYTE   W06
//  #15 //081   ----------------------------------------
Label_01001064:
 BYTE   N24  Cn1  v127
 BYTE   N06  Dn1  v064
 BYTE   W06
 BYTE   N06
 BYTE   W06
 BYTE   N06
 BYTE   N24  Fs1  v127
 BYTE   W06
 BYTE   N06  Dn1  v064
 BYTE   W06
 BYTE   N24  Cn1  v127
 BYTE   N06  Dn1
 BYTE   W06
 BYTE   Dn1  v064
 BYTE   W06
 BYTE   N06
 BYTE   N24  Fs1  v127
 BYTE   W06
 BYTE   N06  Dn1  v064
 BYTE   W06
 BYTE   N24  Cn1  v127
 BYTE   N06  Dn1  v064
 BYTE   W06
 BYTE   N06
 BYTE   W06
 BYTE   N06
 BYTE   N24  Fs1  v127
 BYTE   W06
 BYTE   N06  Dn1  v064
 BYTE   W06
 BYTE   N24  Cn1  v127
 BYTE   N06  Dn1
 BYTE   W06
 BYTE   Dn1  v064
 BYTE   W06
 BYTE   N06
 BYTE   N24  Fs1  v127
 BYTE   W06
 BYTE   N06  Dn1  v064
 BYTE   W06
 BYTE   PEND 
//  #15 //082   ----------------------------------------
 BYTE   PATT
  POIN2 Label_01001064
//  #15 //083   ----------------------------------------
 BYTE   N24  Cn1  v127
 BYTE   N06  Dn1  v072
 BYTE   W06
 BYTE   N06
 BYTE   W06
 BYTE   Dn1  v080
 BYTE   N12  Fs1  v127
 BYTE   W06
 BYTE   N06  Dn1  v080
 BYTE   W06
 BYTE   N24  Cn1  v127
 BYTE   N06  Dn1  v084
 BYTE   N12  Fs1  v127
 BYTE   W06
 BYTE   N06  Dn1  v084
 BYTE   W06
 BYTE   Dn1  v096
 BYTE   N12  Fs1  v127
 BYTE   W06
 BYTE   N06  Dn1  v096
 BYTE   W06
 BYTE   N24  Cn1  v127
 BYTE   N06  Dn1  v096
 BYTE   N04  An2  v012
 BYTE   W04
 BYTE   An2  v020
 BYTE   W02
 BYTE   N06  Dn1  v096
 BYTE   W02
 BYTE   N04  An2  v028
 BYTE   W04
 BYTE   N06  Dn1  v096
 BYTE   N04  An2  v036
 BYTE   W04
 BYTE   An2  v048
 BYTE   W02
 BYTE   N06  Dn1  v096
 BYTE   W02
 BYTE   N04  An2  v056
 BYTE   W04
 BYTE   N24  Cn1  v127
 BYTE   N06  Dn1  v104
 BYTE   N04  An2  v068
 BYTE   W04
 BYTE   An2  v076
 BYTE   W02
 BYTE   N06  Dn1  v104
 BYTE   W02
 BYTE   N04  An2  v084
 BYTE   W04
 BYTE   N06  Dn1  v116
 BYTE   N04  An2  v092
 BYTE   W04
 BYTE   An2  v100
 BYTE   W02
 BYTE   N06  Dn1  v116
 BYTE   W02
 BYTE   N04  An2  v112
 BYTE   W04
//  #15 //084   ----------------------------------------
 BYTE   GoTo
  POIN2 Label_010007D8
//  #15 //085   ----------------------------------------
 BYTE   TIE  Ds2  v096
 BYTE   TIE  Gn2
 BYTE   TIE  An2  v127
 BYTE   W96
//  #15 //086   ----------------------------------------
 BYTE   W96
//  #15 //087   ----------------------------------------
 BYTE   EOT
 BYTE   Ds2  v055
 BYTE   An2
 BYTE   FINE

//******************************************************//
	ALIGN 4

DiscoDescent:
	BYTE	15	// NumTrks
	BYTE	0	// NumBlks
	BYTE	DiscoDescent_pri	// Priority
	BYTE	DiscoDescent_rev	// Reverb.
    
	POIN2	DiscoDescent_grp
    
	POIN2	DiscoDescent_001
	POIN2	DiscoDescent_002
	POIN2	DiscoDescent_003
	POIN2	DiscoDescent_004
	POIN2	DiscoDescent_005
	POIN2	DiscoDescent_006
	POIN2	DiscoDescent_007
	POIN2	DiscoDescent_008
	POIN2	DiscoDescent_009
	POIN2	DiscoDescent_010
	POIN2	DiscoDescent_011
	POIN2	DiscoDescent_012
	POIN2	DiscoDescent_013
	POIN2	DiscoDescent_014
	POIN2	DiscoDescent_015

	
