//Event file generated from Sappy .s format.
	#include "MPlayDef.event"

	#define	EO1Guild_grp  voicegroup000
	#define	EO1Guild_pri  0
	#define	EO1Guild_rev  0
	#define	EO1Guild_mvl  127
	#define	EO1Guild_key  0
	#define	EO1Guild_tbs  1
	#define	EO1Guild_exg  0
	#define	EO1Guild_cmp  1

	// .rodata
	//	EO1Guild
	ALIGN 4


//**************** Track 1 (Midi-Chn.0) ****************//

EO1Guild_001:
//  #01 //000   ----------------------------------------
 BYTE   KEYSH   EO1Guild_key+0
 BYTE   TEMPO   116*EO1Guild_tbs/2
 BYTE   VOICE   1
 BYTE   VOL   51*EO1Guild_mvl/mxv
 BYTE   PAN   c_v-20
 BYTE   W96
//  #01 //001   ----------------------------------------
 BYTE   W96
//  #01 //002   ----------------------------------------
Label_CF95AC:
 BYTE   W96
//  #01 //003   ----------------------------------------
 BYTE   W96
//  #01 //004   ----------------------------------------
 BYTE   W96
//  #01 //005   ----------------------------------------
 BYTE   W96
//  #01 //006   ----------------------------------------
 BYTE   W96
//  #01 //007   ----------------------------------------
 BYTE   W96
//  #01 //008   ----------------------------------------
 BYTE   W96
//  #01 //009   ----------------------------------------
 BYTE   W96
//  #01 //010   ----------------------------------------
 BYTE   W96
//  #01 //011   ----------------------------------------
 BYTE   W96
//  #01 //012   ----------------------------------------
 BYTE   W96
//  #01 //013   ----------------------------------------
 BYTE   W96
//  #01 //014   ----------------------------------------
 BYTE   W96
//  #01 //015   ----------------------------------------
 BYTE   W96
//  #01 //016   ----------------------------------------
 BYTE   W96
//  #01 //017   ----------------------------------------
 BYTE   W96
//  #01 //018   ----------------------------------------
 BYTE   W96
//  #01 //019   ----------------------------------------
 BYTE   W96
//  #01 //020   ----------------------------------------
 BYTE   W96
//  #01 //021   ----------------------------------------
 BYTE   W96
//  #01 //022   ----------------------------------------
 BYTE   W24
 BYTE   N05  Ds5  v072
 BYTE   W12
 BYTE   As4
 BYTE   W12
 BYTE   N44  Ds5
 BYTE   W48
//  #01 //023   ----------------------------------------
 BYTE   W24
 BYTE   N05  Fs5
 BYTE   W12
 BYTE   Cs5
 BYTE   W12
 BYTE   N44  Fs5
 BYTE   W48
//  #01 //024   ----------------------------------------
 BYTE   N56  Gs5
 BYTE   W60
 BYTE   N05  Gs4
 BYTE   W12
 BYTE   Ds5
 BYTE   W12
 BYTE   Gs5
 BYTE   W12
//  #01 //025   ----------------------------------------
 BYTE   N40
 BYTE   W48
 BYTE   N32  As5
 BYTE   W48
//  #01 //026   ----------------------------------------
 BYTE   W96
//  #01 //027   ----------------------------------------
 BYTE   W96
//  #01 //028   ----------------------------------------
 BYTE   W96
//  #01 //029   ----------------------------------------
 BYTE   W96
//  #01 //030   ----------------------------------------
 BYTE   W96
//  #01 //031   ----------------------------------------
 BYTE   W96
//  #01 //032   ----------------------------------------
 BYTE   W96
//  #01 //033   ----------------------------------------
 BYTE   W96
//  #01 //034   ----------------------------------------
Label_CF95EA:
 BYTE   N03  Fs5  v036
 BYTE   W04
 BYTE   TIE  Gn5  v052
 BYTE   W92
 BYTE   PEND 
//  #01 //035   ----------------------------------------
 BYTE   W15
 BYTE   EOT
 BYTE   W05
 BYTE   N03  Fs4
 BYTE   W04
 BYTE   N23  Gn4
 BYTE   W24
 BYTE   Dn5
 BYTE   W24
 BYTE   N15  Gn5
 BYTE   W16
 BYTE   N04  Gs5
 BYTE   W05
 BYTE   N02  Gn5
 BYTE   W03
//  #01 //036   ----------------------------------------
 BYTE   TIE  Fn5
 BYTE   W96
//  #01 //037   ----------------------------------------
 BYTE   W88
 BYTE   W01
 BYTE   EOT
 BYTE   W07
//  #01 //038   ----------------------------------------
 BYTE   PATT
  POIN2 Label_CF95EA
//  #01 //039   ----------------------------------------
 BYTE   W15
 BYTE   EOT
 BYTE   Gn5
 BYTE   W05
 BYTE   N03  Fs4  v052
 BYTE   W04
 BYTE   N23  Gn4
 BYTE   W24
 BYTE   Dn5
 BYTE   W24
 BYTE   N15  Gn5
 BYTE   W16
 BYTE   N04  Gs5
 BYTE   W04
 BYTE   N03  An5
 BYTE   W04
//  #01 //040   ----------------------------------------
 BYTE   TIE  As5
 BYTE   W96
//  #01 //041   ----------------------------------------
 BYTE   W88
 BYTE   W01
 BYTE   EOT
 BYTE   W07
//  #01 //042   ----------------------------------------
 BYTE   GoTo
  POIN2 Label_CF95AC
//  #01 //043   ----------------------------------------
 BYTE   W28
 BYTE   W01
 BYTE   FINE

//**************** Track 2 (Midi-Chn.1) ****************//

EO1Guild_002:
//  #02 //000   ----------------------------------------
 BYTE   KEYSH   EO1Guild_key+0
 BYTE   VOICE   4
 BYTE   VOL   59*EO1Guild_mvl/mxv
 BYTE   PAN   c_v+0
 BYTE   W96
//  #02 //001   ----------------------------------------
 BYTE   W96
//  #02 //002   ----------------------------------------
Label_CF98FA:
 BYTE   W96
//  #02 //003   ----------------------------------------
 BYTE   W96
//  #02 //004   ----------------------------------------
 BYTE   W96
//  #02 //005   ----------------------------------------
 BYTE   W96
//  #02 //006   ----------------------------------------
 BYTE   W96
//  #02 //007   ----------------------------------------
 BYTE   W96
//  #02 //008   ----------------------------------------
 BYTE   W96
//  #02 //009   ----------------------------------------
 BYTE   W96
//  #02 //010   ----------------------------------------
 BYTE   W96
//  #02 //011   ----------------------------------------
 BYTE   W96
//  #02 //012   ----------------------------------------
 BYTE   W96
//  #02 //013   ----------------------------------------
 BYTE   W96
//  #02 //014   ----------------------------------------
 BYTE   W96
//  #02 //015   ----------------------------------------
 BYTE   W96
//  #02 //016   ----------------------------------------
 BYTE   W96
//  #02 //017   ----------------------------------------
 BYTE   W96
//  #02 //018   ----------------------------------------
 BYTE   W96
//  #02 //019   ----------------------------------------
 BYTE   W96
//  #02 //020   ----------------------------------------
 BYTE   W96
//  #02 //021   ----------------------------------------
 BYTE   W96
//  #02 //022   ----------------------------------------
 BYTE   W96
//  #02 //023   ----------------------------------------
 BYTE   W96
//  #02 //024   ----------------------------------------
 BYTE   W96
//  #02 //025   ----------------------------------------
 BYTE   W96
//  #02 //026   ----------------------------------------
Label_CF9912:
 BYTE   TIE  Gn2  v080
 BYTE   TIE  Gn4  v064
 BYTE   TIE  Gn5
 BYTE   W96
 BYTE   PEND 
//  #02 //027   ----------------------------------------
 BYTE   W92
 BYTE   W03
 BYTE   EOT
 BYTE   Gn2  v079
 BYTE   Gn5
 BYTE   W01
//  #02 //028   ----------------------------------------
Label_CF9923:
 BYTE   TIE  Ds3  v080
 BYTE   TIE  As4  v064
 BYTE   TIE  Fn5
 BYTE   W96
 BYTE   PEND 
//  #02 //029   ----------------------------------------
 BYTE   W92
 BYTE   W03
 BYTE   EOT
 BYTE   Ds3  v082
 BYTE   Fn5
 BYTE   W01
//  #02 //030   ----------------------------------------
 BYTE   PATT
  POIN2 Label_CF9912
//  #02 //031   ----------------------------------------
 BYTE   W92
 BYTE   W03
 BYTE   EOT
 BYTE   Gn2  v079
 BYTE   Gn5
 BYTE   W01
//  #02 //032   ----------------------------------------
 BYTE   PATT
  POIN2 Label_CF9923
//  #02 //033   ----------------------------------------
 BYTE   W92
 BYTE   W03
 BYTE   EOT
 BYTE   Ds3  v082
 BYTE   Fn5
 BYTE   W01
//  #02 //034   ----------------------------------------
 BYTE   PATT
  POIN2 Label_CF9912
//  #02 //035   ----------------------------------------
 BYTE   W92
 BYTE   W03
 BYTE   EOT
 BYTE   Gn2  v079
 BYTE   Gn5
 BYTE   W01
//  #02 //036   ----------------------------------------
 BYTE   PATT
  POIN2 Label_CF9923
//  #02 //037   ----------------------------------------
 BYTE   W92
 BYTE   W03
 BYTE   EOT
 BYTE   Ds3  v082
 BYTE   Fn5
 BYTE   W01
//  #02 //038   ----------------------------------------
 BYTE   PATT
  POIN2 Label_CF9912
//  #02 //039   ----------------------------------------
 BYTE   W92
 BYTE   W03
 BYTE   EOT
 BYTE   Gn2  v079
 BYTE   Gn5
 BYTE   W01
//  #02 //040   ----------------------------------------
 BYTE   PATT
  POIN2 Label_CF9923
//  #02 //041   ----------------------------------------
 BYTE   W92
 BYTE   W03
 BYTE   EOT
 BYTE   Ds3  v082
 BYTE   Fn5
 BYTE   W01
//  #02 //042   ----------------------------------------
 BYTE   GoTo
  POIN2 Label_CF98FA
//  #02 //043   ----------------------------------------
 BYTE   W28
 BYTE   W01
 BYTE   FINE

//**************** Track 3 (Midi-Chn.2) ****************//

EO1Guild_003:
//  #03 //000   ----------------------------------------
 BYTE   KEYSH   EO1Guild_key+0
 BYTE   VOICE   105
 BYTE   VOL   46*EO1Guild_mvl/mxv
 BYTE   PAN   c_v+25
 BYTE   W96
//  #03 //001   ----------------------------------------
 BYTE   W96
//  #03 //002   ----------------------------------------
Label_CF977A:
 BYTE   N92  Dn3  v072
 BYTE   N92  Gn3
 BYTE   W92
 BYTE   W02
 BYTE   As2
 BYTE   N92  Ds3
 BYTE   W02
//  #03 //003   ----------------------------------------
Label_CF9785:
 BYTE   W92
 BYTE   W02
 BYTE   N92  Dn3  v072
 BYTE   N92  Gn3
 BYTE   W02
 BYTE   PEND 
//  #03 //004   ----------------------------------------
Label_CF978E:
 BYTE   W92
 BYTE   W02
 BYTE   N92  As2  v072
 BYTE   N92  Ds3
 BYTE   W02
 BYTE   PEND 
//  #03 //005   ----------------------------------------
 BYTE   PATT
  POIN2 Label_CF9785
//  #03 //006   ----------------------------------------
 BYTE   PATT
  POIN2 Label_CF978E
//  #03 //007   ----------------------------------------
 BYTE   PATT
  POIN2 Label_CF9785
//  #03 //008   ----------------------------------------
 BYTE   PATT
  POIN2 Label_CF978E
//  #03 //009   ----------------------------------------
Label_CF97AB:
 BYTE   W92
 BYTE   W02
 BYTE   N92  Cn3  v072
 BYTE   N92  Fn3
 BYTE   W02
 BYTE   PEND 
//  #03 //010   ----------------------------------------
Label_CF97B4:
 BYTE   W92
 BYTE   W02
 BYTE   N92  Ds3  v072
 BYTE   N92  Gs3
 BYTE   W02
 BYTE   PEND 
//  #03 //011   ----------------------------------------
 BYTE   W92
 BYTE   W02
 BYTE   Fn3
 BYTE   N92  As3
 BYTE   W02
//  #03 //012   ----------------------------------------
Label_CF97C3:
 BYTE   W92
 BYTE   W02
 BYTE   N44  Gs3  v072
 BYTE   N44  Cs4
 BYTE   W02
 BYTE   PEND 
//  #03 //013   ----------------------------------------
Label_CF97CC:
 BYTE   W44
 BYTE   W02
 BYTE   N44  As3  v072
 BYTE   N44  Ds4
 BYTE   W48
 BYTE   W02
 BYTE   PEND 
//  #03 //014   ----------------------------------------
 BYTE   N92  Cn3
 BYTE   N92  Fn3
 BYTE   W92
 BYTE   W02
 BYTE   Gs2
 BYTE   N92  Cs3
 BYTE   W02
//  #03 //015   ----------------------------------------
 BYTE   PATT
  POIN2 Label_CF97AB
//  #03 //016   ----------------------------------------
Label_CF97E5:
 BYTE   W92
 BYTE   W02
 BYTE   N92  Gs2  v072
 BYTE   N92  Cs3
 BYTE   W02
 BYTE   PEND 
//  #03 //017   ----------------------------------------
 BYTE   PATT
  POIN2 Label_CF97AB
//  #03 //018   ----------------------------------------
 BYTE   PATT
  POIN2 Label_CF97E5
//  #03 //019   ----------------------------------------
 BYTE   PATT
  POIN2 Label_CF97AB
//  #03 //020   ----------------------------------------
 BYTE   PATT
  POIN2 Label_CF97E5
//  #03 //021   ----------------------------------------
 BYTE   PATT
  POIN2 Label_CF978E
//  #03 //022   ----------------------------------------
 BYTE   W92
 BYTE   W02
 BYTE   N92  Cs3  v072
 BYTE   N92  Fs3
 BYTE   W02
//  #03 //023   ----------------------------------------
 BYTE   PATT
  POIN2 Label_CF97B4
//  #03 //024   ----------------------------------------
 BYTE   PATT
  POIN2 Label_CF97C3
//  #03 //025   ----------------------------------------
 BYTE   PATT
  POIN2 Label_CF97CC
//  #03 //026   ----------------------------------------
 BYTE   W96
//  #03 //027   ----------------------------------------
 BYTE   W96
//  #03 //028   ----------------------------------------
 BYTE   W96
//  #03 //029   ----------------------------------------
 BYTE   W96
//  #03 //030   ----------------------------------------
 BYTE   W96
//  #03 //031   ----------------------------------------
 BYTE   W96
//  #03 //032   ----------------------------------------
 BYTE   W96
//  #03 //033   ----------------------------------------
 BYTE   W96
//  #03 //034   ----------------------------------------
 BYTE   W96
//  #03 //035   ----------------------------------------
 BYTE   W96
//  #03 //036   ----------------------------------------
 BYTE   W96
//  #03 //037   ----------------------------------------
 BYTE   W96
//  #03 //038   ----------------------------------------
 BYTE   W96
//  #03 //039   ----------------------------------------
 BYTE   W96
//  #03 //040   ----------------------------------------
 BYTE   W96
//  #03 //041   ----------------------------------------
 BYTE   W96
//  #03 //042   ----------------------------------------
 BYTE   GoTo
  POIN2 Label_CF977A
//  #03 //043   ----------------------------------------
 BYTE   W28
 BYTE   W01
 BYTE   FINE

//**************** Track 4 (Midi-Chn.3) ****************//

EO1Guild_004:
//  #04 //000   ----------------------------------------
 BYTE   KEYSH   EO1Guild_key+0
 BYTE   VOICE   100
 BYTE   VOL   59*EO1Guild_mvl/mxv
 BYTE   PAN   c_v+0
 BYTE   W96
//  #04 //001   ----------------------------------------
 BYTE   W96
//  #04 //002   ----------------------------------------
Label_CF9AB6:
 BYTE   N20  Gn3  v092
 BYTE   N92  Bn3  v076
 BYTE   W24
 BYTE   N20  Gn4  v092
 BYTE   W24
 BYTE   N28  Dn4
 BYTE   W36
 BYTE   N05  En4
 BYTE   W12
 BYTE   PEND 
//  #04 //003   ----------------------------------------
Label_CF9AC8:
 BYTE   N92  Gn3  v076
 BYTE   N02  Fn4  v092
 BYTE   W12
 BYTE   Cn4
 BYTE   W12
 BYTE   N56  Fn4
 BYTE   W72
 BYTE   PEND 
//  #04 //004   ----------------------------------------
Label_CF9AD5:
 BYTE   N20  Gn3  v092
 BYTE   N92  Bn3  v076
 BYTE   W24
 BYTE   N20  Gn4  v092
 BYTE   W24
 BYTE   N28  Dn4
 BYTE   W36
 BYTE   N05  Bn4
 BYTE   W12
 BYTE   PEND 
//  #04 //005   ----------------------------------------
Label_CF9AE7:
 BYTE   N92  Gn3  v076
 BYTE   N02  As4  v092
 BYTE   W12
 BYTE   Fn4
 BYTE   W12
 BYTE   N56  As4
 BYTE   W72
 BYTE   PEND 
//  #04 //006   ----------------------------------------
 BYTE   PATT
  POIN2 Label_CF9AB6
//  #04 //007   ----------------------------------------
 BYTE   PATT
  POIN2 Label_CF9AC8
//  #04 //008   ----------------------------------------
 BYTE   PATT
  POIN2 Label_CF9AD5
//  #04 //009   ----------------------------------------
 BYTE   PATT
  POIN2 Label_CF9AE7
//  #04 //010   ----------------------------------------
 BYTE   N92  An3  v076
 BYTE   N02  An4  v092
 BYTE   W12
 BYTE   Fn4
 BYTE   W12
 BYTE   N40  Cn5
 BYTE   W48
 BYTE   N05  Fn4
 BYTE   W06
 BYTE   An4
 BYTE   W06
 BYTE   Cn5
 BYTE   W06
 BYTE   Dn5
 BYTE   W06
//  #04 //011   ----------------------------------------
 BYTE   N92  As3  v076
 BYTE   N02  Ds5  v092
 BYTE   W12
 BYTE   As4
 BYTE   W12
 BYTE   N40  Ds5
 BYTE   W48
 BYTE   N05  Fn4
 BYTE   W06
 BYTE   As4
 BYTE   W06
 BYTE   Ds5
 BYTE   W06
 BYTE   Fn5
 BYTE   W06
//  #04 //012   ----------------------------------------
 BYTE   N92  Cn4  v076
 BYTE   N76  Fn4
 BYTE   N76  Dn5  v092
 BYTE   W84
 BYTE   N02  Fn4
 BYTE   N02  Dn5
 BYTE   W06
 BYTE   Gn4
 BYTE   N02  Ds5
 BYTE   W06
//  #04 //013   ----------------------------------------
 BYTE   N44  Ds4  v076
 BYTE   N40  Gs4  v092
 BYTE   N40  Fn5
 BYTE   W48
 BYTE   N44  Fn4  v076
 BYTE   N40  As4  v092
 BYTE   N40  Fn5
 BYTE   W48
//  #04 //014   ----------------------------------------
Label_CF9B56:
 BYTE   N20  Fn3  v092
 BYTE   N92  An3  v076
 BYTE   W24
 BYTE   N20  Fn4  v092
 BYTE   W24
 BYTE   N28  Cn4
 BYTE   W36
 BYTE   N05  Dn4
 BYTE   W12
 BYTE   PEND 
//  #04 //015   ----------------------------------------
Label_CF9B68:
 BYTE   N92  Fn3  v076
 BYTE   N02  Ds4  v092
 BYTE   W12
 BYTE   As3
 BYTE   W12
 BYTE   N56  Ds4
 BYTE   W72
 BYTE   PEND 
//  #04 //016   ----------------------------------------
Label_CF9B75:
 BYTE   N20  Fn3  v092
 BYTE   N92  An3  v076
 BYTE   W24
 BYTE   N20  Fn4  v092
 BYTE   W24
 BYTE   N28  Cn4
 BYTE   W36
 BYTE   N05  An4
 BYTE   W12
 BYTE   PEND 
//  #04 //017   ----------------------------------------
Label_CF9B87:
 BYTE   N92  Fn3  v076
 BYTE   N02  Gs4  v092
 BYTE   W12
 BYTE   Ds4
 BYTE   W12
 BYTE   N56  Gs4
 BYTE   W72
 BYTE   PEND 
//  #04 //018   ----------------------------------------
 BYTE   PATT
  POIN2 Label_CF9B56
//  #04 //019   ----------------------------------------
 BYTE   PATT
  POIN2 Label_CF9B68
//  #04 //020   ----------------------------------------
 BYTE   PATT
  POIN2 Label_CF9B75
//  #04 //021   ----------------------------------------
 BYTE   PATT
  POIN2 Label_CF9B87
//  #04 //022   ----------------------------------------
 BYTE   N92  Gn3  v076
 BYTE   N02  Gn4  v092
 BYTE   W12
 BYTE   Ds4
 BYTE   W12
 BYTE   N40  As4
 BYTE   W48
 BYTE   N05  Ds4
 BYTE   W06
 BYTE   Gn4
 BYTE   W06
 BYTE   As4
 BYTE   W06
 BYTE   Cn5
 BYTE   W06
//  #04 //023   ----------------------------------------
 BYTE   N92  Gs3  v076
 BYTE   N02  Cs5  v092
 BYTE   W12
 BYTE   Gs4
 BYTE   W12
 BYTE   N40  Cs5
 BYTE   W48
 BYTE   N05  Ds4
 BYTE   W06
 BYTE   Gs4
 BYTE   W06
 BYTE   Cs5
 BYTE   W06
 BYTE   Ds5
 BYTE   W06
//  #04 //024   ----------------------------------------
 BYTE   N92  As3  v076
 BYTE   N76  Ds4
 BYTE   N76  Cn5  v092
 BYTE   W84
 BYTE   N05  Cs5
 BYTE   W06
 BYTE   Ds5
 BYTE   W06
//  #04 //025   ----------------------------------------
 BYTE   N44  Ds4  v076
 BYTE   N40  Gs4  v092
 BYTE   N40  Fn5
 BYTE   W48
 BYTE   N44  Fn4  v076
 BYTE   N40  Gn4  v092
 BYTE   N40  Fn5
 BYTE   W48
//  #04 //026   ----------------------------------------
 BYTE   W96
//  #04 //027   ----------------------------------------
 BYTE   W96
//  #04 //028   ----------------------------------------
 BYTE   W96
//  #04 //029   ----------------------------------------
 BYTE   W96
//  #04 //030   ----------------------------------------
 BYTE   W96
//  #04 //031   ----------------------------------------
 BYTE   W96
//  #04 //032   ----------------------------------------
 BYTE   W96
//  #04 //033   ----------------------------------------
 BYTE   W96
//  #04 //034   ----------------------------------------
 BYTE   W96
//  #04 //035   ----------------------------------------
 BYTE   W96
//  #04 //036   ----------------------------------------
 BYTE   W96
//  #04 //037   ----------------------------------------
 BYTE   W96
//  #04 //038   ----------------------------------------
 BYTE   W96
//  #04 //039   ----------------------------------------
 BYTE   W96
//  #04 //040   ----------------------------------------
 BYTE   W96
//  #04 //041   ----------------------------------------
 BYTE   W96
//  #04 //042   ----------------------------------------
 BYTE   GoTo
  POIN2 Label_CF9AB6
//  #04 //043   ----------------------------------------
 BYTE   W28
 BYTE   W01
 BYTE   FINE

//**************** Track 5 (Midi-Chn.4) ****************//

EO1Guild_005:
//  #05 //000   ----------------------------------------
 BYTE   KEYSH   EO1Guild_key+0
 BYTE   VOICE   100
 BYTE   VOL   59*EO1Guild_mvl/mxv
 BYTE   PAN   c_v-20
 BYTE   W96
//  #05 //001   ----------------------------------------
 BYTE   W96
//  #05 //002   ----------------------------------------
Label_CF933E:
 BYTE   W18
 BYTE   BEND   c_v+2
 BYTE   N20  Gn3  v068
 BYTE   W24
 BYTE   Gn4
 BYTE   W24
 BYTE   N28  Dn4
 BYTE   W30
//  #05 //003   ----------------------------------------
Label_CF934A:
 BYTE   W06
 BYTE   N05  En4  v068
 BYTE   W12
 BYTE   N02  Fn4
 BYTE   W12
 BYTE   Cn4
 BYTE   W12
 BYTE   N56  Fn4
 BYTE   W54
 BYTE   PEND 
//  #05 //004   ----------------------------------------
Label_CF9358:
 BYTE   W18
 BYTE   N20  Gn3  v068
 BYTE   W24
 BYTE   Gn4
 BYTE   W24
 BYTE   N28  Dn4
 BYTE   W30
 BYTE   PEND 
//  #05 //005   ----------------------------------------
Label_CF9363:
 BYTE   W06
 BYTE   N05  Bn4  v068
 BYTE   W12
 BYTE   N02  As4
 BYTE   W12
 BYTE   Fn4
 BYTE   W12
 BYTE   N56  As4
 BYTE   W54
 BYTE   PEND 
//  #05 //006   ----------------------------------------
 BYTE   PATT
  POIN2 Label_CF9358
//  #05 //007   ----------------------------------------
 BYTE   PATT
  POIN2 Label_CF934A
//  #05 //008   ----------------------------------------
 BYTE   PATT
  POIN2 Label_CF9358
//  #05 //009   ----------------------------------------
 BYTE   PATT
  POIN2 Label_CF9363
//  #05 //010   ----------------------------------------
 BYTE   W18
 BYTE   N02  An4  v068
 BYTE   W12
 BYTE   Fn4
 BYTE   W12
 BYTE   N40  Cn5
 BYTE   W48
 BYTE   N05  Fn4
 BYTE   W06
//  #05 //011   ----------------------------------------
 BYTE   An4
 BYTE   W06
 BYTE   Cn5
 BYTE   W06
 BYTE   Dn5
 BYTE   W06
 BYTE   N02  Ds5
 BYTE   W12
 BYTE   As4
 BYTE   W12
 BYTE   N40  Ds5
 BYTE   W48
 BYTE   N05  Fn4
 BYTE   W06
//  #05 //012   ----------------------------------------
 BYTE   As4
 BYTE   W06
 BYTE   Ds5
 BYTE   W06
 BYTE   Fn5
 BYTE   W06
 BYTE   N76  Dn5
 BYTE   W78
//  #05 //013   ----------------------------------------
 BYTE   W06
 BYTE   N02
 BYTE   W06
 BYTE   Ds5
 BYTE   W06
 BYTE   N40  Fn5
 BYTE   W48
 BYTE   N40
 BYTE   W30
//  #05 //014   ----------------------------------------
Label_CF93B6:
 BYTE   W18
 BYTE   N20  Fn3  v068
 BYTE   W24
 BYTE   Fn4
 BYTE   W24
 BYTE   N28  Cn4
 BYTE   W30
 BYTE   PEND 
//  #05 //015   ----------------------------------------
Label_CF93C1:
 BYTE   W06
 BYTE   N05  Dn4  v068
 BYTE   W12
 BYTE   N02  Ds4
 BYTE   W12
 BYTE   As3
 BYTE   W12
 BYTE   N56  Ds4
 BYTE   W54
 BYTE   PEND 
//  #05 //016   ----------------------------------------
 BYTE   PATT
  POIN2 Label_CF93B6
//  #05 //017   ----------------------------------------
Label_CF93D4:
 BYTE   W06
 BYTE   N05  An4  v068
 BYTE   W12
 BYTE   N02  Gs4
 BYTE   W12
 BYTE   Ds4
 BYTE   W12
 BYTE   N56  Gs4
 BYTE   W54
 BYTE   PEND 
//  #05 //018   ----------------------------------------
 BYTE   PATT
  POIN2 Label_CF93B6
//  #05 //019   ----------------------------------------
 BYTE   PATT
  POIN2 Label_CF93C1
//  #05 //020   ----------------------------------------
 BYTE   PATT
  POIN2 Label_CF93B6
//  #05 //021   ----------------------------------------
 BYTE   PATT
  POIN2 Label_CF93D4
//  #05 //022   ----------------------------------------
 BYTE   W18
 BYTE   N02  Gn4  v068
 BYTE   W12
 BYTE   Ds4
 BYTE   W12
 BYTE   N40  As4
 BYTE   W48
 BYTE   N05  Ds4
 BYTE   W06
//  #05 //023   ----------------------------------------
 BYTE   Gn4
 BYTE   W06
 BYTE   As4
 BYTE   W06
 BYTE   Cn5
 BYTE   W06
 BYTE   N02  Cs5
 BYTE   W12
 BYTE   Gs4
 BYTE   W12
 BYTE   N40  Cs5
 BYTE   W48
 BYTE   N05  Ds4
 BYTE   W06
//  #05 //024   ----------------------------------------
 BYTE   Gs4
 BYTE   W06
 BYTE   Cs5
 BYTE   W06
 BYTE   Ds5
 BYTE   W06
 BYTE   N76  Cn5
 BYTE   W78
//  #05 //025   ----------------------------------------
 BYTE   W06
 BYTE   N05  Cs5
 BYTE   W06
 BYTE   Ds5
 BYTE   W06
 BYTE   N40  Fn5
 BYTE   W48
 BYTE   N40
 BYTE   W30
//  #05 //026   ----------------------------------------
 BYTE   W96
//  #05 //027   ----------------------------------------
 BYTE   W96
//  #05 //028   ----------------------------------------
 BYTE   W96
//  #05 //029   ----------------------------------------
 BYTE   W96
//  #05 //030   ----------------------------------------
 BYTE   W96
//  #05 //031   ----------------------------------------
 BYTE   W96
//  #05 //032   ----------------------------------------
 BYTE   W96
//  #05 //033   ----------------------------------------
 BYTE   W96
//  #05 //034   ----------------------------------------
 BYTE   W96
//  #05 //035   ----------------------------------------
 BYTE   W96
//  #05 //036   ----------------------------------------
 BYTE   W96
//  #05 //037   ----------------------------------------
 BYTE   W96
//  #05 //038   ----------------------------------------
 BYTE   W96
//  #05 //039   ----------------------------------------
 BYTE   W96
//  #05 //040   ----------------------------------------
 BYTE   W96
//  #05 //041   ----------------------------------------
 BYTE   W96
//  #05 //042   ----------------------------------------
 BYTE   GoTo
  POIN2 Label_CF933E
//  #05 //043   ----------------------------------------
 BYTE   W28
 BYTE   W01
 BYTE   FINE

//**************** Track 6 (Midi-Chn.5) ****************//

EO1Guild_006:
//  #06 //000   ----------------------------------------
 BYTE   KEYSH   EO1Guild_key+0
 BYTE   VOICE   30
 BYTE   VOL   66*EO1Guild_mvl/mxv
 BYTE   PAN   c_v+0
 BYTE   W96
//  #06 //001   ----------------------------------------
 BYTE   W96
//  #06 //002   ----------------------------------------
Label_CF9C16:
 BYTE   W96
//  #06 //003   ----------------------------------------
 BYTE   W96
//  #06 //004   ----------------------------------------
 BYTE   W96
//  #06 //005   ----------------------------------------
 BYTE   W96
//  #06 //006   ----------------------------------------
 BYTE   W96
//  #06 //007   ----------------------------------------
 BYTE   W96
//  #06 //008   ----------------------------------------
 BYTE   W96
//  #06 //009   ----------------------------------------
 BYTE   W96
//  #06 //010   ----------------------------------------
 BYTE   W96
//  #06 //011   ----------------------------------------
 BYTE   W96
//  #06 //012   ----------------------------------------
 BYTE   W96
//  #06 //013   ----------------------------------------
 BYTE   W96
//  #06 //014   ----------------------------------------
 BYTE   W96
//  #06 //015   ----------------------------------------
 BYTE   W96
//  #06 //016   ----------------------------------------
 BYTE   W96
//  #06 //017   ----------------------------------------
 BYTE   W96
//  #06 //018   ----------------------------------------
 BYTE   W96
//  #06 //019   ----------------------------------------
 BYTE   W96
//  #06 //020   ----------------------------------------
 BYTE   W96
//  #06 //021   ----------------------------------------
 BYTE   W96
//  #06 //022   ----------------------------------------
 BYTE   W96
//  #06 //023   ----------------------------------------
 BYTE   W96
//  #06 //024   ----------------------------------------
 BYTE   W96
//  #06 //025   ----------------------------------------
 BYTE   W96
//  #06 //026   ----------------------------------------
 BYTE   W96
//  #06 //027   ----------------------------------------
 BYTE   W96
//  #06 //028   ----------------------------------------
 BYTE   W96
//  #06 //029   ----------------------------------------
 BYTE   W96
//  #06 //030   ----------------------------------------
 BYTE   W96
//  #06 //031   ----------------------------------------
 BYTE   W96
//  #06 //032   ----------------------------------------
 BYTE   W96
//  #06 //033   ----------------------------------------
 BYTE   W96
//  #06 //034   ----------------------------------------
Label_CF9C36:
 BYTE   N03  Fs4  v076
 BYTE   W04
 BYTE   TIE  Gn4  v092
 BYTE   W92
 BYTE   PEND 
//  #06 //035   ----------------------------------------
 BYTE   W11
 BYTE   EOT
 BYTE   W05
 BYTE   N03  Gn4  v048
 BYTE   W04
 BYTE   Fs3  v092
 BYTE   W04
 BYTE   N23  Gn3
 BYTE   W24
 BYTE   Dn4
 BYTE   W24
 BYTE   N15  Gn4
 BYTE   W16
 BYTE   N04  Gs4
 BYTE   W05
 BYTE   N02  Gn4
 BYTE   W03
//  #06 //036   ----------------------------------------
 BYTE   N92  Fn4
 BYTE   W96
//  #06 //037   ----------------------------------------
 BYTE   Cn4
 BYTE   W96
//  #06 //038   ----------------------------------------
 BYTE   PATT
  POIN2 Label_CF9C36
//  #06 //039   ----------------------------------------
 BYTE   W11
 BYTE   EOT
 BYTE   Gn4
 BYTE   W05
 BYTE   N03  Gn4  v052
 BYTE   W04
 BYTE   Fs3  v092
 BYTE   W04
 BYTE   N23  Gn3
 BYTE   W24
 BYTE   Dn4
 BYTE   W24
 BYTE   N15  Gn4
 BYTE   W16
 BYTE   N04  Gs4
 BYTE   W04
 BYTE   N03  An4
 BYTE   W04
//  #06 //040   ----------------------------------------
 BYTE   TIE  As4
 BYTE   W96
//  #06 //041   ----------------------------------------
 BYTE   W11
 BYTE   EOT
 BYTE   W01
 BYTE   N11  Fn4
 BYTE   W12
 BYTE   Cn4
 BYTE   N11  Fn4  v060
 BYTE   W12
 BYTE   Cn4
 BYTE   N11  As4  v092
 BYTE   W12
 BYTE   Fn4
 BYTE   N11  As4  v068
 BYTE   W12
 BYTE   Cn4  v092
 BYTE   N11  Fn4  v068
 BYTE   W12
 BYTE   As3  v092
 BYTE   N11  Cn4  v068
 BYTE   W12
 BYTE   Fn3  v092
 BYTE   N11  As3  v068
 BYTE   W12
//  #06 //042   ----------------------------------------
 BYTE   GoTo
  POIN2 Label_CF9C16
//  #06 //043   ----------------------------------------
 BYTE   W28
 BYTE   W01
 BYTE   FINE

//**************** Track 7 (Midi-Chn.6) ****************//

EO1Guild_007:
//  #07 //000   ----------------------------------------
 BYTE   KEYSH   EO1Guild_key+0
 BYTE   VOICE   105
 BYTE   VOL   66*EO1Guild_mvl/mxv
 BYTE   PAN   c_v+0
 BYTE   N11  Gn2  v092
 BYTE   W12
 BYTE   N11
 BYTE   W24
 BYTE   N05
 BYTE   W06
 BYTE   N05
 BYTE   W06
 BYTE   N11
 BYTE   W12
 BYTE   N11
 BYTE   W36
//  #07 //001   ----------------------------------------
Label_CF9CC2:
 BYTE   N11  Gn2  v092
 BYTE   W12
 BYTE   N11
 BYTE   W24
 BYTE   N05
 BYTE   W06
 BYTE   N05
 BYTE   W06
 BYTE   N11
 BYTE   W12
 BYTE   N11
 BYTE   W36
 BYTE   PEND 
//  #07 //002   ----------------------------------------
Label_CF9CD1:
//  #07 //003   ----------------------------------------
 BYTE   PATT
  POIN2 Label_CF9CC2
//  #07 //004   ----------------------------------------
Label_CF9CD6:
 BYTE   N11  Ds2  v092
 BYTE   W12
 BYTE   N11
 BYTE   W24
 BYTE   N05
 BYTE   W06
 BYTE   N05
 BYTE   W06
 BYTE   N11
 BYTE   W12
 BYTE   N11
 BYTE   W36
 BYTE   PEND 
//  #07 //005   ----------------------------------------
 BYTE   PATT
  POIN2 Label_CF9CC2
//  #07 //006   ----------------------------------------
 BYTE   PATT
  POIN2 Label_CF9CD6
//  #07 //007   ----------------------------------------
 BYTE   PATT
  POIN2 Label_CF9CC2
//  #07 //008   ----------------------------------------
 BYTE   PATT
  POIN2 Label_CF9CD6
//  #07 //009   ----------------------------------------
 BYTE   PATT
  POIN2 Label_CF9CC2
//  #07 //010   ----------------------------------------
 BYTE   PATT
  POIN2 Label_CF9CD6
//  #07 //011   ----------------------------------------
Label_CF9D03:
 BYTE   N11  Fn2  v092
 BYTE   W12
 BYTE   N11
 BYTE   W24
 BYTE   N05
 BYTE   W06
 BYTE   N05
 BYTE   W06
 BYTE   N11
 BYTE   W12
 BYTE   N11
 BYTE   W36
 BYTE   PEND 
//  #07 //012   ----------------------------------------
Label_CF9D12:
 BYTE   N11  Gs2  v092
 BYTE   W12
 BYTE   N11
 BYTE   W24
 BYTE   N05
 BYTE   W06
 BYTE   N05
 BYTE   W06
 BYTE   N11
 BYTE   W12
 BYTE   N11
 BYTE   W36
 BYTE   PEND 
//  #07 //013   ----------------------------------------
 BYTE   As2
 BYTE   W12
 BYTE   N11
 BYTE   W24
 BYTE   N05
 BYTE   W06
 BYTE   N05
 BYTE   W06
 BYTE   N11
 BYTE   W12
 BYTE   N11
 BYTE   W36
//  #07 //014   ----------------------------------------
 BYTE   Cs3
 BYTE   W12
 BYTE   N11
 BYTE   W24
 BYTE   N05
 BYTE   W06
 BYTE   N05
 BYTE   W06
 BYTE   N11  Cn3
 BYTE   W12
 BYTE   N11
 BYTE   W36
//  #07 //015   ----------------------------------------
 BYTE   PATT
  POIN2 Label_CF9D03
//  #07 //016   ----------------------------------------
Label_CF9D3F:
 BYTE   N11  Cs2  v092
 BYTE   W12
 BYTE   N11
 BYTE   W24
 BYTE   N05
 BYTE   W06
 BYTE   N05
 BYTE   W06
 BYTE   N11
 BYTE   W12
 BYTE   N11
 BYTE   W36
 BYTE   PEND 
//  #07 //017   ----------------------------------------
 BYTE   PATT
  POIN2 Label_CF9D03
//  #07 //018   ----------------------------------------
 BYTE   PATT
  POIN2 Label_CF9D3F
//  #07 //019   ----------------------------------------
 BYTE   PATT
  POIN2 Label_CF9D03
//  #07 //020   ----------------------------------------
 BYTE   PATT
  POIN2 Label_CF9D3F
//  #07 //021   ----------------------------------------
 BYTE   PATT
  POIN2 Label_CF9D03
//  #07 //022   ----------------------------------------
 BYTE   PATT
  POIN2 Label_CF9D3F
//  #07 //023   ----------------------------------------
 BYTE   PATT
  POIN2 Label_CF9CD6
//  #07 //024   ----------------------------------------
 BYTE   N11  Fs2  v092
 BYTE   W12
 BYTE   N11
 BYTE   W24
 BYTE   N05
 BYTE   W06
 BYTE   N05
 BYTE   W06
 BYTE   N11
 BYTE   W12
 BYTE   N11
 BYTE   W36
//  #07 //025   ----------------------------------------
 BYTE   PATT
  POIN2 Label_CF9D12
//  #07 //026   ----------------------------------------
 BYTE   N11  Cs3  v092
 BYTE   W12
 BYTE   N11
 BYTE   W24
 BYTE   N05
 BYTE   W06
 BYTE   N05
 BYTE   W06
 BYTE   N11  Ds3
 BYTE   W12
 BYTE   N11
 BYTE   W36
//  #07 //027   ----------------------------------------
 BYTE   W96
//  #07 //028   ----------------------------------------
 BYTE   W96
//  #07 //029   ----------------------------------------
 BYTE   W96
//  #07 //030   ----------------------------------------
 BYTE   W96
//  #07 //031   ----------------------------------------
 BYTE   W96
//  #07 //032   ----------------------------------------
 BYTE   W96
//  #07 //033   ----------------------------------------
 BYTE   W96
//  #07 //034   ----------------------------------------
 BYTE   W96
//  #07 //035   ----------------------------------------
 BYTE   W96
//  #07 //036   ----------------------------------------
 BYTE   W96
//  #07 //037   ----------------------------------------
 BYTE   W96
//  #07 //038   ----------------------------------------
 BYTE   W96
//  #07 //039   ----------------------------------------
 BYTE   W96
//  #07 //040   ----------------------------------------
 BYTE   W96
//  #07 //041   ----------------------------------------
 BYTE   W96
//  #07 //042   ----------------------------------------
 BYTE   W96
//  #07 //043   ----------------------------------------
 BYTE   GoTo
  POIN2 Label_CF9CD1
//  #07 //044   ----------------------------------------
 BYTE   W28
 BYTE   W01
 BYTE   FINE

//**************** Track 8 (Midi-Chn.7) ****************//

EO1Guild_008:
//  #08 //000   ----------------------------------------
 BYTE   KEYSH   EO1Guild_key+0
 BYTE   VOICE   10
 BYTE   VOL   49*EO1Guild_mvl/mxv
 BYTE   PAN   c_v-60
 BYTE   W96
//  #08 //001   ----------------------------------------
 BYTE   W96
//  #08 //002   ----------------------------------------
Label_CF9DB6:
 BYTE   W96
//  #08 //003   ----------------------------------------
 BYTE   W96
//  #08 //004   ----------------------------------------
 BYTE   W96
//  #08 //005   ----------------------------------------
 BYTE   W96
//  #08 //006   ----------------------------------------
 BYTE   W96
//  #08 //007   ----------------------------------------
 BYTE   W96
//  #08 //008   ----------------------------------------
 BYTE   W96
//  #08 //009   ----------------------------------------
 BYTE   W96
//  #08 //010   ----------------------------------------
 BYTE   W96
//  #08 //011   ----------------------------------------
 BYTE   W96
//  #08 //012   ----------------------------------------
 BYTE   W96
//  #08 //013   ----------------------------------------
 BYTE   W96
//  #08 //014   ----------------------------------------
 BYTE   W96
//  #08 //015   ----------------------------------------
 BYTE   W96
//  #08 //016   ----------------------------------------
 BYTE   W96
//  #08 //017   ----------------------------------------
 BYTE   W96
//  #08 //018   ----------------------------------------
 BYTE   W96
//  #08 //019   ----------------------------------------
 BYTE   W96
//  #08 //020   ----------------------------------------
 BYTE   W96
//  #08 //021   ----------------------------------------
 BYTE   W96
//  #08 //022   ----------------------------------------
 BYTE   W96
//  #08 //023   ----------------------------------------
 BYTE   W96
//  #08 //024   ----------------------------------------
 BYTE   W60
 BYTE   N11  Gs3  v080
 BYTE   W12
 BYTE   Ds4
 BYTE   W12
 BYTE   Gs4
 BYTE   W12
//  #08 //025   ----------------------------------------
 BYTE   As4
 BYTE   W12
 BYTE   N23  Fn4
 BYTE   W24
 BYTE   N11  Cn4
 BYTE   W12
 BYTE   As4
 BYTE   W12
 BYTE   N23  Fn4
 BYTE   W24
 BYTE   N11  Cn4
 BYTE   W12
//  #08 //026   ----------------------------------------
Label_CF9DE5:
 BYTE   N32  Cn5  v080
 BYTE   W12
 BYTE   Gn4
 BYTE   W12
 BYTE   Dn4
 BYTE   W12
 BYTE   Cn5
 BYTE   W12
 BYTE   Bn4
 BYTE   W12
 BYTE   Gn4
 BYTE   W12
 BYTE   Dn4
 BYTE   W12
 BYTE   Cn4
 BYTE   W12
 BYTE   PEND 
//  #08 //027   ----------------------------------------
 BYTE   PATT
  POIN2 Label_CF9DE5
//  #08 //028   ----------------------------------------
Label_CF9DFD:
 BYTE   N32  As4  v080
 BYTE   W12
 BYTE   Gn4
 BYTE   W12
 BYTE   Cn4
 BYTE   W12
 BYTE   Cn5
 BYTE   W12
 BYTE   As4
 BYTE   W12
 BYTE   Gn4
 BYTE   W12
 BYTE   Dn4
 BYTE   W12
 BYTE   Cn4
 BYTE   W12
 BYTE   PEND 
//  #08 //029   ----------------------------------------
 BYTE   PATT
  POIN2 Label_CF9DFD
//  #08 //030   ----------------------------------------
 BYTE   PATT
  POIN2 Label_CF9DE5
//  #08 //031   ----------------------------------------
 BYTE   PATT
  POIN2 Label_CF9DE5
//  #08 //032   ----------------------------------------
 BYTE   PATT
  POIN2 Label_CF9DFD
//  #08 //033   ----------------------------------------
 BYTE   PATT
  POIN2 Label_CF9DFD
//  #08 //034   ----------------------------------------
 BYTE   PATT
  POIN2 Label_CF9DE5
//  #08 //035   ----------------------------------------
 BYTE   PATT
  POIN2 Label_CF9DE5
//  #08 //036   ----------------------------------------
 BYTE   PATT
  POIN2 Label_CF9DFD
//  #08 //037   ----------------------------------------
 BYTE   PATT
  POIN2 Label_CF9DFD
//  #08 //038   ----------------------------------------
 BYTE   PATT
  POIN2 Label_CF9DE5
//  #08 //039   ----------------------------------------
 BYTE   PATT
  POIN2 Label_CF9DE5
//  #08 //040   ----------------------------------------
 BYTE   PATT
  POIN2 Label_CF9DFD
//  #08 //041   ----------------------------------------
 BYTE   PATT
  POIN2 Label_CF9DFD
//  #08 //042   ----------------------------------------
 BYTE   GoTo
  POIN2 Label_CF9DB6
//  #08 //043   ----------------------------------------
 BYTE   W28
 BYTE   W01
 BYTE   FINE

//**************** Track 9 (Midi-Chn.8) ****************//

EO1Guild_009:
//  #09 //000   ----------------------------------------
 BYTE   KEYSH   EO1Guild_key+0
 BYTE   VOICE   8
 BYTE   VOL   54*EO1Guild_mvl/mxv
 BYTE   PAN   c_v-40
 BYTE   W96
//  #09 //001   ----------------------------------------
 BYTE   W96
//  #09 //002   ----------------------------------------
Label_0100000A:
 BYTE   W96
//  #09 //003   ----------------------------------------
 BYTE   W96
//  #09 //004   ----------------------------------------
 BYTE   W96
//  #09 //005   ----------------------------------------
 BYTE   W96
//  #09 //006   ----------------------------------------
 BYTE   W96
//  #09 //007   ----------------------------------------
 BYTE   W96
//  #09 //008   ----------------------------------------
 BYTE   W96
//  #09 //009   ----------------------------------------
 BYTE   W96
//  #09 //010   ----------------------------------------
 BYTE   W96
//  #09 //011   ----------------------------------------
 BYTE   W96
//  #09 //012   ----------------------------------------
 BYTE   W96
//  #09 //013   ----------------------------------------
 BYTE   W96
//  #09 //014   ----------------------------------------
Label_01000016:
 BYTE   N05  Cn4  v052
 BYTE   W06
 BYTE   Fn3
 BYTE   W06
 BYTE   N05
 BYTE   W06
 BYTE   Cn3
 BYTE   W06
 BYTE   Cn4
 BYTE   W06
 BYTE   Fn3
 BYTE   W06
 BYTE   N05
 BYTE   W06
 BYTE   Cn3
 BYTE   W06
 BYTE   Cn4
 BYTE   W06
 BYTE   Fn3
 BYTE   W06
 BYTE   N05
 BYTE   W06
 BYTE   Cn3
 BYTE   W06
 BYTE   Cn4
 BYTE   W06
 BYTE   Fn3
 BYTE   W06
 BYTE   N05
 BYTE   W06
 BYTE   Cn3
 BYTE   W06
 BYTE   PEND 
//  #09 //015   ----------------------------------------
Label_01000039:
 BYTE   N05  Ds4  v052
 BYTE   W06
 BYTE   Gs3
 BYTE   W06
 BYTE   N05
 BYTE   W06
 BYTE   Ds3
 BYTE   W06
 BYTE   Ds4
 BYTE   W06
 BYTE   Gs3
 BYTE   W06
 BYTE   N05
 BYTE   W06
 BYTE   Ds3
 BYTE   W06
 BYTE   Ds4
 BYTE   W06
 BYTE   Gs3
 BYTE   W06
 BYTE   N05
 BYTE   W06
 BYTE   Ds3
 BYTE   W06
 BYTE   Ds4
 BYTE   W06
 BYTE   Gs3
 BYTE   W06
 BYTE   N05
 BYTE   W06
 BYTE   Ds3
 BYTE   W06
 BYTE   PEND 
//  #09 //016   ----------------------------------------
 BYTE   PATT
  POIN2 Label_01000016
//  #09 //017   ----------------------------------------
 BYTE   PATT
  POIN2 Label_01000039
//  #09 //018   ----------------------------------------
 BYTE   PATT
  POIN2 Label_01000016
//  #09 //019   ----------------------------------------
 BYTE   PATT
  POIN2 Label_01000039
//  #09 //020   ----------------------------------------
 BYTE   PATT
  POIN2 Label_01000016
//  #09 //021   ----------------------------------------
 BYTE   PATT
  POIN2 Label_01000039
//  #09 //022   ----------------------------------------
 BYTE   N05  Fn4  v052
 BYTE   W06
 BYTE   As3
 BYTE   W06
 BYTE   N05
 BYTE   W06
 BYTE   Fn3
 BYTE   W06
 BYTE   Fn4
 BYTE   W06
 BYTE   As3
 BYTE   W06
 BYTE   N05
 BYTE   W06
 BYTE   Fn3
 BYTE   W06
 BYTE   Fn4
 BYTE   W06
 BYTE   As3
 BYTE   W06
 BYTE   N05
 BYTE   W06
 BYTE   Fn3
 BYTE   W06
 BYTE   Fn4
 BYTE   W06
 BYTE   As3
 BYTE   W06
 BYTE   N05
 BYTE   W06
 BYTE   Fn3
 BYTE   W06
//  #09 //023   ----------------------------------------
 BYTE   Gs4
 BYTE   W06
 BYTE   Cs4
 BYTE   W06
 BYTE   N05
 BYTE   W06
 BYTE   Gs3
 BYTE   W06
 BYTE   Gs4
 BYTE   W06
 BYTE   Cs4
 BYTE   W06
 BYTE   N05
 BYTE   W06
 BYTE   Gs3
 BYTE   W06
 BYTE   Gs4
 BYTE   W06
 BYTE   Cs4
 BYTE   W06
 BYTE   N05
 BYTE   W06
 BYTE   Gs3
 BYTE   W06
 BYTE   Gs4
 BYTE   W06
 BYTE   Cs4
 BYTE   W06
 BYTE   N05
 BYTE   W06
 BYTE   Gs3
 BYTE   W06
//  #09 //024   ----------------------------------------
 BYTE   As4
 BYTE   W06
 BYTE   Ds4
 BYTE   W06
 BYTE   N05
 BYTE   W06
 BYTE   As3
 BYTE   W06
 BYTE   As4
 BYTE   W06
 BYTE   Ds4
 BYTE   W06
 BYTE   N05
 BYTE   W06
 BYTE   As3
 BYTE   W06
 BYTE   As4
 BYTE   W06
 BYTE   Ds4
 BYTE   W06
 BYTE   N05
 BYTE   W06
 BYTE   As3
 BYTE   W06
 BYTE   As4
 BYTE   W06
 BYTE   Ds4
 BYTE   W06
 BYTE   N05
 BYTE   W06
 BYTE   As3
 BYTE   W06
//  #09 //025   ----------------------------------------
 BYTE   Cn5
 BYTE   W06
 BYTE   Fn4
 BYTE   W06
 BYTE   N05
 BYTE   W06
 BYTE   Cn4
 BYTE   W06
 BYTE   Cn5
 BYTE   W06
 BYTE   Fn4
 BYTE   W06
 BYTE   N05
 BYTE   W06
 BYTE   Cn4
 BYTE   W06
 BYTE   Cn5
 BYTE   W06
 BYTE   Fn4
 BYTE   W06
 BYTE   N05
 BYTE   W06
 BYTE   Cn4
 BYTE   W06
 BYTE   Cn5
 BYTE   W06
 BYTE   Fn4
 BYTE   W06
 BYTE   N05
 BYTE   W06
 BYTE   Cn4
 BYTE   W06
//  #09 //026   ----------------------------------------
 BYTE   W96
//  #09 //027   ----------------------------------------
 BYTE   W96
//  #09 //028   ----------------------------------------
 BYTE   W96
//  #09 //029   ----------------------------------------
 BYTE   W96
//  #09 //030   ----------------------------------------
 BYTE   W96
//  #09 //031   ----------------------------------------
 BYTE   W96
//  #09 //032   ----------------------------------------
 BYTE   W96
//  #09 //033   ----------------------------------------
 BYTE   W96
//  #09 //034   ----------------------------------------
 BYTE   W96
//  #09 //035   ----------------------------------------
 BYTE   W96
//  #09 //036   ----------------------------------------
 BYTE   W96
//  #09 //037   ----------------------------------------
 BYTE   W96
//  #09 //038   ----------------------------------------
 BYTE   W96
//  #09 //039   ----------------------------------------
 BYTE   W96
//  #09 //040   ----------------------------------------
 BYTE   W96
//  #09 //041   ----------------------------------------
 BYTE   W96
//  #09 //042   ----------------------------------------
 BYTE   GoTo
  POIN2 Label_0100000A
//  #09 //043   ----------------------------------------
 BYTE   W28
 BYTE   W01
 BYTE   FINE

//**************** Track 10 (Midi-Chn.9) ****************//

EO1Guild_010:
//  #10 //000   ----------------------------------------
 BYTE   KEYSH   EO1Guild_key+0
 BYTE   VOICE   124
 BYTE   VOL   66*EO1Guild_mvl/mxv
 BYTE   PAN   c_v+0
 BYTE   N06  Cn1  v064
 BYTE   W12
 BYTE   N05  En1
 BYTE   W12
 BYTE   En1  v088
 BYTE   W12
 BYTE   En1  v072
 BYTE   W06
 BYTE   En1  v064
 BYTE   W06
 BYTE   En1  v080
 BYTE   W12
 BYTE   N05
 BYTE   W24
 BYTE   N11  Dn1
 BYTE   W12
//  #10 //001   ----------------------------------------
Label_01000134:
 BYTE   N05  En1  v080
 BYTE   W12
 BYTE   En1  v068
 BYTE   W12
 BYTE   En1  v088
 BYTE   W12
 BYTE   En1  v072
 BYTE   W06
 BYTE   En1  v064
 BYTE   W06
 BYTE   En1  v080
 BYTE   W12
 BYTE   N05
 BYTE   W36
 BYTE   PEND 
//  #10 //002   ----------------------------------------
Label_0100014A:
 BYTE   N05  En1  v080
 BYTE   N92  Cs2  v064
 BYTE   W12
 BYTE   N05  En1
 BYTE   W12
 BYTE   En1  v088
 BYTE   W12
 BYTE   En1  v072
 BYTE   W06
 BYTE   En1  v064
 BYTE   W06
 BYTE   En1  v080
 BYTE   W12
 BYTE   N05
 BYTE   W24
 BYTE   N11  Dn1
 BYTE   W12
 BYTE   PEND 
//  #10 //003   ----------------------------------------
 BYTE   PATT
  POIN2 Label_01000134
//  #10 //004   ----------------------------------------
Label_0100016B:
 BYTE   N05  En1  v080
 BYTE   W12
 BYTE   En1  v064
 BYTE   W12
 BYTE   En1  v088
 BYTE   W12
 BYTE   En1  v072
 BYTE   W06
 BYTE   En1  v064
 BYTE   W06
 BYTE   En1  v080
 BYTE   W12
 BYTE   N05
 BYTE   W24
 BYTE   N11  Dn1
 BYTE   W12
 BYTE   PEND 
//  #10 //005   ----------------------------------------
 BYTE   PATT
  POIN2 Label_01000134
//  #10 //006   ----------------------------------------
 BYTE   PATT
  POIN2 Label_0100016B
//  #10 //007   ----------------------------------------
 BYTE   PATT
  POIN2 Label_01000134
//  #10 //008   ----------------------------------------
 BYTE   PATT
  POIN2 Label_0100016B
//  #10 //009   ----------------------------------------
 BYTE   PATT
  POIN2 Label_01000134
//  #10 //010   ----------------------------------------
 BYTE   PATT
  POIN2 Label_0100016B
//  #10 //011   ----------------------------------------
 BYTE   PATT
  POIN2 Label_01000134
//  #10 //012   ----------------------------------------
 BYTE   PATT
  POIN2 Label_0100016B
//  #10 //013   ----------------------------------------
 BYTE   PATT
  POIN2 Label_01000134
//  #10 //014   ----------------------------------------
 BYTE   PATT
  POIN2 Label_0100014A
//  #10 //015   ----------------------------------------
 BYTE   PATT
  POIN2 Label_01000134
//  #10 //016   ----------------------------------------
 BYTE   PATT
  POIN2 Label_0100016B
//  #10 //017   ----------------------------------------
 BYTE   PATT
  POIN2 Label_01000134
//  #10 //018   ----------------------------------------
 BYTE   PATT
  POIN2 Label_0100016B
//  #10 //019   ----------------------------------------
 BYTE   PATT
  POIN2 Label_01000134
//  #10 //020   ----------------------------------------
 BYTE   PATT
  POIN2 Label_0100016B
//  #10 //021   ----------------------------------------
 BYTE   PATT
  POIN2 Label_01000134
//  #10 //022   ----------------------------------------
 BYTE   PATT
  POIN2 Label_0100016B
//  #10 //023   ----------------------------------------
 BYTE   PATT
  POIN2 Label_01000134
//  #10 //024   ----------------------------------------
 BYTE   PATT
  POIN2 Label_0100016B
//  #10 //025   ----------------------------------------
 BYTE   PATT
  POIN2 Label_01000134
//  #10 //026   ----------------------------------------
 BYTE   N92  Cs2  v092
 BYTE   W96
//  #10 //027   ----------------------------------------
 BYTE   W96
//  #10 //028   ----------------------------------------
 BYTE   W96
//  #10 //029   ----------------------------------------
 BYTE   W96
//  #10 //030   ----------------------------------------
 BYTE   W96
//  #10 //031   ----------------------------------------
 BYTE   W96
//  #10 //032   ----------------------------------------
 BYTE   W96
//  #10 //033   ----------------------------------------
 BYTE   W96
//  #10 //034   ----------------------------------------
 BYTE   PATT
  POIN2 Label_0100016B
//  #10 //035   ----------------------------------------
 BYTE   PATT
  POIN2 Label_01000134
//  #10 //036   ----------------------------------------
 BYTE   PATT
  POIN2 Label_0100016B
//  #10 //037   ----------------------------------------
 BYTE   PATT
  POIN2 Label_01000134
//  #10 //038   ----------------------------------------
 BYTE   PATT
  POIN2 Label_0100016B
//  #10 //039   ----------------------------------------
 BYTE   PATT
  POIN2 Label_01000134
//  #10 //040   ----------------------------------------
 BYTE   PATT
  POIN2 Label_0100016B
//  #10 //041   ----------------------------------------
 BYTE   PATT
  POIN2 Label_01000134
//  #10 //042   ----------------------------------------
 BYTE   GoTo
  POIN2 Label_0100014A
//  #10 //043   ----------------------------------------
 BYTE   W28
 BYTE   W01
 BYTE   FINE

//**************** Track 11 (Midi-Chn.10) ****************//

EO1Guild_011:
//  #11 //000   ----------------------------------------
 BYTE   KEYSH   EO1Guild_key+0
 BYTE   VOICE   8
 BYTE   VOL   50*EO1Guild_mvl/mxv
 BYTE   PAN   c_v+40
 BYTE   W96
//  #11 //001   ----------------------------------------
 BYTE   W96
//  #11 //002   ----------------------------------------
Label_01000236:
 BYTE   W96
//  #11 //003   ----------------------------------------
 BYTE   W96
//  #11 //004   ----------------------------------------
 BYTE   W96
//  #11 //005   ----------------------------------------
 BYTE   W96
//  #11 //006   ----------------------------------------
 BYTE   W96
//  #11 //007   ----------------------------------------
 BYTE   W96
//  #11 //008   ----------------------------------------
 BYTE   W96
//  #11 //009   ----------------------------------------
 BYTE   W96
//  #11 //010   ----------------------------------------
 BYTE   W96
//  #11 //011   ----------------------------------------
 BYTE   W96
//  #11 //012   ----------------------------------------
 BYTE   W96
//  #11 //013   ----------------------------------------
 BYTE   W96
//  #11 //014   ----------------------------------------
 BYTE   W06
 BYTE   N05  Cn4  v040
 BYTE   W06
 BYTE   Fn3
 BYTE   W06
 BYTE   N05
 BYTE   W06
 BYTE   Cn3
 BYTE   W06
 BYTE   Cn4
 BYTE   W06
 BYTE   Fn3
 BYTE   W06
 BYTE   N05
 BYTE   W06
 BYTE   Cn3
 BYTE   W06
 BYTE   Cn4
 BYTE   W06
 BYTE   Fn3
 BYTE   W06
 BYTE   N05
 BYTE   W06
 BYTE   Cn3
 BYTE   W06
 BYTE   Cn4
 BYTE   W06
 BYTE   Fn3
 BYTE   W06
 BYTE   N05
 BYTE   W06
//  #11 //015   ----------------------------------------
Label_01000263:
 BYTE   N05  Cn3  v040
 BYTE   W06
 BYTE   Ds4
 BYTE   W06
 BYTE   Gs3
 BYTE   W06
 BYTE   N05
 BYTE   W06
 BYTE   Ds3
 BYTE   W06
 BYTE   Ds4
 BYTE   W06
 BYTE   Gs3
 BYTE   W06
 BYTE   N05
 BYTE   W06
 BYTE   Ds3
 BYTE   W06
 BYTE   Ds4
 BYTE   W06
 BYTE   Gs3
 BYTE   W06
 BYTE   N05
 BYTE   W06
 BYTE   Ds3
 BYTE   W06
 BYTE   Ds4
 BYTE   W06
 BYTE   Gs3
 BYTE   W06
 BYTE   N05
 BYTE   W06
 BYTE   PEND 
//  #11 //016   ----------------------------------------
Label_01000286:
 BYTE   N05  Ds3  v040
 BYTE   W06
 BYTE   Cn4
 BYTE   W06
 BYTE   Fn3
 BYTE   W06
 BYTE   N05
 BYTE   W06
 BYTE   Cn3
 BYTE   W06
 BYTE   Cn4
 BYTE   W06
 BYTE   Fn3
 BYTE   W06
 BYTE   N05
 BYTE   W06
 BYTE   Cn3
 BYTE   W06
 BYTE   Cn4
 BYTE   W06
 BYTE   Fn3
 BYTE   W06
 BYTE   N05
 BYTE   W06
 BYTE   Cn3
 BYTE   W06
 BYTE   Cn4
 BYTE   W06
 BYTE   Fn3
 BYTE   W06
 BYTE   N05
 BYTE   W06
 BYTE   PEND 
//  #11 //017   ----------------------------------------
 BYTE   PATT
  POIN2 Label_01000263
//  #11 //018   ----------------------------------------
 BYTE   PATT
  POIN2 Label_01000286
//  #11 //019   ----------------------------------------
 BYTE   PATT
  POIN2 Label_01000263
//  #11 //020   ----------------------------------------
 BYTE   PATT
  POIN2 Label_01000286
//  #11 //021   ----------------------------------------
 BYTE   PATT
  POIN2 Label_01000263
//  #11 //022   ----------------------------------------
 BYTE   N05  Ds3  v040
 BYTE   W06
 BYTE   Fn4
 BYTE   W06
 BYTE   As3
 BYTE   W06
 BYTE   N05
 BYTE   W06
 BYTE   Fn3
 BYTE   W06
 BYTE   Fn4
 BYTE   W06
 BYTE   As3
 BYTE   W06
 BYTE   N05
 BYTE   W06
 BYTE   Fn3
 BYTE   W06
 BYTE   Fn4
 BYTE   W06
 BYTE   As3
 BYTE   W06
 BYTE   N05
 BYTE   W06
 BYTE   Fn3
 BYTE   W06
 BYTE   Fn4
 BYTE   W06
 BYTE   As3
 BYTE   W06
 BYTE   N05
 BYTE   W06
//  #11 //023   ----------------------------------------
 BYTE   Fn3
 BYTE   W06
 BYTE   Gs4
 BYTE   W06
 BYTE   Cs4
 BYTE   W06
 BYTE   N05
 BYTE   W06
 BYTE   Gs3
 BYTE   W06
 BYTE   Gs4
 BYTE   W06
 BYTE   Cs4
 BYTE   W06
 BYTE   N05
 BYTE   W06
 BYTE   Gs3
 BYTE   W06
 BYTE   Gs4
 BYTE   W06
 BYTE   Cs4
 BYTE   W06
 BYTE   N05
 BYTE   W06
 BYTE   Gs3
 BYTE   W06
 BYTE   Gs4
 BYTE   W06
 BYTE   Cs4
 BYTE   W06
 BYTE   N05
 BYTE   W06
//  #11 //024   ----------------------------------------
 BYTE   Gs3
 BYTE   W06
 BYTE   As4
 BYTE   W06
 BYTE   Ds4
 BYTE   W06
 BYTE   N05
 BYTE   W06
 BYTE   As3
 BYTE   W06
 BYTE   As4
 BYTE   W06
 BYTE   Ds4
 BYTE   W06
 BYTE   N05
 BYTE   W06
 BYTE   As3
 BYTE   W06
 BYTE   As4
 BYTE   W06
 BYTE   Ds4
 BYTE   W06
 BYTE   N05
 BYTE   W06
 BYTE   As3
 BYTE   W06
 BYTE   As4
 BYTE   W06
 BYTE   Ds4
 BYTE   W06
 BYTE   N05
 BYTE   W06
//  #11 //025   ----------------------------------------
 BYTE   As3
 BYTE   W06
 BYTE   Cn5
 BYTE   W06
 BYTE   Fn4
 BYTE   W06
 BYTE   N05
 BYTE   W06
 BYTE   Cn4
 BYTE   W06
 BYTE   Cn5
 BYTE   W06
 BYTE   Fn4
 BYTE   W06
 BYTE   N05
 BYTE   W06
 BYTE   Cn4
 BYTE   W06
 BYTE   Cn5
 BYTE   W06
 BYTE   Fn4
 BYTE   W06
 BYTE   N05
 BYTE   W06
 BYTE   Cn4
 BYTE   W06
 BYTE   Cn5
 BYTE   W06
 BYTE   Fn4
 BYTE   W06
 BYTE   N05
 BYTE   W06
//  #11 //026   ----------------------------------------
 BYTE   Cn4
 BYTE   W96
//  #11 //027   ----------------------------------------
 BYTE   W96
//  #11 //028   ----------------------------------------
 BYTE   W96
//  #11 //029   ----------------------------------------
 BYTE   W96
//  #11 //030   ----------------------------------------
 BYTE   W96
//  #11 //031   ----------------------------------------
 BYTE   W96
//  #11 //032   ----------------------------------------
 BYTE   W96
//  #11 //033   ----------------------------------------
 BYTE   W96
//  #11 //034   ----------------------------------------
 BYTE   W96
//  #11 //035   ----------------------------------------
 BYTE   W96
//  #11 //036   ----------------------------------------
 BYTE   W96
//  #11 //037   ----------------------------------------
 BYTE   W96
//  #11 //038   ----------------------------------------
 BYTE   W96
//  #11 //039   ----------------------------------------
 BYTE   W96
//  #11 //040   ----------------------------------------
 BYTE   W96
//  #11 //041   ----------------------------------------
 BYTE   W96
//  #11 //042   ----------------------------------------
 BYTE   GoTo
  POIN2 Label_01000236
//  #11 //043   ----------------------------------------
 BYTE   W28
 BYTE   W01
 BYTE   FINE

//**************** Track 12 (Midi-Chn.11) ****************//

EO1Guild_012:
//  #12 //000   ----------------------------------------
 BYTE   KEYSH   EO1Guild_key+0
 BYTE   VOICE   10
 BYTE   VOL   51*EO1Guild_mvl/mxv
 BYTE   PAN   c_v+59
 BYTE   W96
//  #12 //001   ----------------------------------------
 BYTE   W96
//  #12 //002   ----------------------------------------
Label_CF9E66:
 BYTE   W96
//  #12 //003   ----------------------------------------
 BYTE   W96
//  #12 //004   ----------------------------------------
 BYTE   W96
//  #12 //005   ----------------------------------------
 BYTE   W96
//  #12 //006   ----------------------------------------
 BYTE   W96
//  #12 //007   ----------------------------------------
 BYTE   W96
//  #12 //008   ----------------------------------------
 BYTE   W96
//  #12 //009   ----------------------------------------
 BYTE   W96
//  #12 //010   ----------------------------------------
 BYTE   W96
//  #12 //011   ----------------------------------------
 BYTE   W96
//  #12 //012   ----------------------------------------
 BYTE   W96
//  #12 //013   ----------------------------------------
 BYTE   W96
//  #12 //014   ----------------------------------------
 BYTE   W96
//  #12 //015   ----------------------------------------
 BYTE   W96
//  #12 //016   ----------------------------------------
 BYTE   W96
//  #12 //017   ----------------------------------------
 BYTE   W96
//  #12 //018   ----------------------------------------
 BYTE   W96
//  #12 //019   ----------------------------------------
 BYTE   W96
//  #12 //020   ----------------------------------------
 BYTE   W96
//  #12 //021   ----------------------------------------
 BYTE   W96
//  #12 //022   ----------------------------------------
 BYTE   W96
//  #12 //023   ----------------------------------------
 BYTE   W96
//  #12 //024   ----------------------------------------
 BYTE   W78
 BYTE   N11  Gs3  v032
 BYTE   W12
 BYTE   Ds4
 BYTE   W06
//  #12 //025   ----------------------------------------
 BYTE   W06
 BYTE   Gs4
 BYTE   W12
 BYTE   As4
 BYTE   W12
 BYTE   N23  Fn4
 BYTE   W24
 BYTE   N11  Cn4
 BYTE   W12
 BYTE   As4
 BYTE   W12
 BYTE   N23  Fn4
 BYTE   W18
//  #12 //026   ----------------------------------------
 BYTE   W06
 BYTE   N11  Cn4
 BYTE   W12
 BYTE   N32  Cn5
 BYTE   W12
 BYTE   Gn4
 BYTE   W12
 BYTE   Dn4
 BYTE   W12
 BYTE   Cn5
 BYTE   W12
 BYTE   Bn4
 BYTE   W12
 BYTE   Gn4
 BYTE   W12
 BYTE   Dn4
 BYTE   W06
//  #12 //027   ----------------------------------------
Label_CF9EA6:
 BYTE   W06
 BYTE   N32  Cn4  v032
 BYTE   W12
 BYTE   Cn5
 BYTE   W12
 BYTE   Gn4
 BYTE   W12
 BYTE   Dn4
 BYTE   W12
 BYTE   Cn5
 BYTE   W12
 BYTE   Bn4
 BYTE   W12
 BYTE   Gn4
 BYTE   W12
 BYTE   Dn4
 BYTE   W06
 BYTE   PEND 
//  #12 //028   ----------------------------------------
Label_CF9EBA:
 BYTE   W06
 BYTE   N32  Cn4  v032
 BYTE   W12
 BYTE   As4
 BYTE   W12
 BYTE   Gn4
 BYTE   W12
 BYTE   Cn4
 BYTE   W12
 BYTE   Cn5
 BYTE   W12
 BYTE   As4
 BYTE   W12
 BYTE   Gn4
 BYTE   W12
 BYTE   Dn4
 BYTE   W06
 BYTE   PEND 
//  #12 //029   ----------------------------------------
 BYTE   PATT
  POIN2 Label_CF9EBA
//  #12 //030   ----------------------------------------
 BYTE   PATT
  POIN2 Label_CF9EA6
//  #12 //031   ----------------------------------------
 BYTE   PATT
  POIN2 Label_CF9EA6
//  #12 //032   ----------------------------------------
 BYTE   PATT
  POIN2 Label_CF9EBA
//  #12 //033   ----------------------------------------
 BYTE   PATT
  POIN2 Label_CF9EBA
//  #12 //034   ----------------------------------------
 BYTE   PATT
  POIN2 Label_CF9EA6
//  #12 //035   ----------------------------------------
 BYTE   PATT
  POIN2 Label_CF9EA6
//  #12 //036   ----------------------------------------
 BYTE   PATT
  POIN2 Label_CF9EBA
//  #12 //037   ----------------------------------------
 BYTE   PATT
  POIN2 Label_CF9EBA
//  #12 //038   ----------------------------------------
 BYTE   PATT
  POIN2 Label_CF9EA6
//  #12 //039   ----------------------------------------
 BYTE   PATT
  POIN2 Label_CF9EA6
//  #12 //040   ----------------------------------------
 BYTE   PATT
  POIN2 Label_CF9EBA
//  #12 //041   ----------------------------------------
 BYTE   PATT
  POIN2 Label_CF9EBA
//  #12 //042   ----------------------------------------
 BYTE   GoTo
  POIN2 Label_CF9E66
//  #12 //043   ----------------------------------------
 BYTE   W28
 BYTE   W01
 BYTE   FINE

//******************************************************//
	ALIGN 4

EO1Guild:
	BYTE	12	// NumTrks
	BYTE	0	// NumBlks
	BYTE	EO1Guild_pri	// Priority
	BYTE	EO1Guild_rev	// Reverb.
    
	POIN2	EO1Guild_grp
    
	POIN2	EO1Guild_001
	POIN2	EO1Guild_002
	POIN2	EO1Guild_003
	POIN2	EO1Guild_004
	POIN2	EO1Guild_005
	POIN2	EO1Guild_006
	POIN2	EO1Guild_007
	POIN2	EO1Guild_008
	POIN2	EO1Guild_009
	POIN2	EO1Guild_010
	POIN2	EO1Guild_011
	POIN2	EO1Guild_012

	
