	.include "MPlayDef.s"

	.equ	song09_grp, voicegroup000
	.equ	song09_pri, 0
	.equ	song09_rev, 0
	.equ	song09_mvl, 127
	.equ	song09_key, 0
	.equ	song09_tbs, 1
	.equ	song09_exg, 0
	.equ	song09_cmp, 1

	.section .rodata
	.global	song09
	.align	2


@**************** Track 1 (Midi-Chn.0) ****************@

song09_001:
@  #01 @000   ----------------------------------------
 .byte   KEYSH , song09_key+0
 .byte   TEMPO , 288*song09_tbs/2
 .byte   VOICE , 30
 .byte   VOL , 43*song09_mvl/mxv
 .byte   PAN , c_v+0
 .byte   VOL , 43*song09_mvl/mxv
 .byte   PAN , c_v+0
 .byte   VOL , 43*song09_mvl/mxv
 .byte   PAN , c_v+0
 .byte   W96
@  #01 @001   ----------------------------------------
 .byte   W96
@  #01 @002   ----------------------------------------
Label_EDD3F0:
 .byte   N30 ,Cn3 ,v127
 .byte   W32
 .byte   Cn4
 .byte   W32
 .byte   Gn3
 .byte   W32
 .byte   PEND 
@  #01 @003   ----------------------------------------
Label_EDD3F9:
 .byte   N30 ,As3 ,v127
 .byte   W32
 .byte   Fn3
 .byte   W32
 .byte   Ds3
 .byte   W32
 .byte   PEND 
@  #01 @004   ----------------------------------------
 .byte   PATT
  .word Label_EDD3F0
@  #01 @005   ----------------------------------------
 .byte   PATT
  .word Label_EDD3F9
@  #01 @006   ----------------------------------------
 .byte   PATT
  .word Label_EDD3F0
@  #01 @007   ----------------------------------------
 .byte   PATT
  .word Label_EDD3F9
@  #01 @008   ----------------------------------------
 .byte   W96
@  #01 @009   ----------------------------------------
 .byte   W96
@  #01 @010   ----------------------------------------
 .byte   PATT
  .word Label_EDD3F0
@  #01 @011   ----------------------------------------
 .byte   PATT
  .word Label_EDD3F9
@  #01 @012   ----------------------------------------
 .byte   PATT
  .word Label_EDD3F0
@  #01 @013   ----------------------------------------
 .byte   PATT
  .word Label_EDD3F9
@  #01 @014   ----------------------------------------
 .byte   PATT
  .word Label_EDD3F0
@  #01 @015   ----------------------------------------
 .byte   PATT
  .word Label_EDD3F9
@  #01 @016   ----------------------------------------
Label_EDD436:
 .byte   N30 ,Dn3 ,v127
 .byte   W32
 .byte   Bn3
 .byte   W32
 .byte   Gs3
 .byte   W32
 .byte   PEND 
@  #01 @017   ----------------------------------------
Label_EDD43F:
 .byte   N30 ,Dn3 ,v127
 .byte   W32
 .byte   Gn3
 .byte   W32
 .byte   Gs3
 .byte   W32
 .byte   PEND 
@  #01 @018   ----------------------------------------
 .byte   PATT
  .word Label_EDD3F0
@  #01 @019   ----------------------------------------
 .byte   PATT
  .word Label_EDD3F9
@  #01 @020   ----------------------------------------
 .byte   PATT
  .word Label_EDD3F0
@  #01 @021   ----------------------------------------
 .byte   PATT
  .word Label_EDD3F9
@  #01 @022   ----------------------------------------
 .byte   PATT
  .word Label_EDD3F0
@  #01 @023   ----------------------------------------
 .byte   PATT
  .word Label_EDD3F9
@  #01 @024   ----------------------------------------
 .byte   W96
@  #01 @025   ----------------------------------------
 .byte   W96
@  #01 @026   ----------------------------------------
 .byte   PATT
  .word Label_EDD3F0
@  #01 @027   ----------------------------------------
 .byte   PATT
  .word Label_EDD3F9
@  #01 @028   ----------------------------------------
 .byte   PATT
  .word Label_EDD3F0
@  #01 @029   ----------------------------------------
 .byte   PATT
  .word Label_EDD3F9
@  #01 @030   ----------------------------------------
 .byte   PATT
  .word Label_EDD3F0
@  #01 @031   ----------------------------------------
 .byte   PATT
  .word Label_EDD3F9
@  #01 @032   ----------------------------------------
 .byte   PATT
  .word Label_EDD436
@  #01 @033   ----------------------------------------
 .byte   PATT
  .word Label_EDD43F
@  #01 @034   ----------------------------------------
Label_EDD490:
 .byte   N92 ,Cn4 ,v127
 .byte   W96
 .byte   PEND 
@  #01 @035   ----------------------------------------
Label_EDD495:
 .byte   N30 ,Ds4 ,v127
 .byte   W32
 .byte   Dn4
 .byte   W32
 .byte   As3
 .byte   W32
 .byte   PEND 
@  #01 @036   ----------------------------------------
Label_EDD49E:
 .byte   N92 ,Gn3 ,v127
 .byte   W96
 .byte   PEND 
@  #01 @037   ----------------------------------------
 .byte   PATT
  .word Label_EDD495
@  #01 @038   ----------------------------------------
Label_EDD4A8:
 .byte   N92 ,Fn4 ,v127
 .byte   W96
 .byte   PEND 
@  #01 @039   ----------------------------------------
Label_EDD4AD:
 .byte   N92 ,Ds4 ,v127
 .byte   W96
 .byte   PEND 
@  #01 @040   ----------------------------------------
 .byte   Dn4
 .byte   W96
@  #01 @041   ----------------------------------------
 .byte   Bn3
 .byte   W96
@  #01 @042   ----------------------------------------
 .byte   PATT
  .word Label_EDD490
@  #01 @043   ----------------------------------------
 .byte   PATT
  .word Label_EDD495
@  #01 @044   ----------------------------------------
 .byte   PATT
  .word Label_EDD49E
@  #01 @045   ----------------------------------------
 .byte   PATT
  .word Label_EDD495
@  #01 @046   ----------------------------------------
 .byte   PATT
  .word Label_EDD4A8
@  #01 @047   ----------------------------------------
 .byte   PATT
  .word Label_EDD4AD
@  #01 @048   ----------------------------------------
 .byte   N92 ,Gs4 ,v127
 .byte   W96
@  #01 @049   ----------------------------------------
 .byte   Gn4
 .byte   W96
@  #01 @050   ----------------------------------------
 .byte   W96
@  #01 @051   ----------------------------------------
 .byte   W96
@  #01 @052   ----------------------------------------
 .byte   W96
@  #01 @053   ----------------------------------------
 .byte   W96
@  #01 @054   ----------------------------------------
 .byte   W96
@  #01 @055   ----------------------------------------
 .byte   W96
@  #01 @056   ----------------------------------------
 .byte   W96
@  #01 @057   ----------------------------------------
 .byte   W96
@  #01 @058   ----------------------------------------
 .byte   W96
@  #01 @059   ----------------------------------------
 .byte   W96
@  #01 @060   ----------------------------------------
 .byte   W96
@  #01 @061   ----------------------------------------
 .byte   W96
@  #01 @062   ----------------------------------------
 .byte   W96
@  #01 @063   ----------------------------------------
 .byte   W96
@  #01 @064   ----------------------------------------
 .byte   W96
@  #01 @065   ----------------------------------------
 .byte   W96
@  #01 @066   ----------------------------------------
 .byte   W96
@  #01 @067   ----------------------------------------
 .byte   W96
@  #01 @068   ----------------------------------------
 .byte   W96
@  #01 @069   ----------------------------------------
 .byte   W96
@  #01 @070   ----------------------------------------
 .byte   W96
@  #01 @071   ----------------------------------------
 .byte   W96
@  #01 @072   ----------------------------------------
 .byte   W96
@  #01 @073   ----------------------------------------
 .byte   W96
@  #01 @074   ----------------------------------------
 .byte   W96
@  #01 @075   ----------------------------------------
 .byte   W96
@  #01 @076   ----------------------------------------
 .byte   W96
@  #01 @077   ----------------------------------------
 .byte   W96
@  #01 @078   ----------------------------------------
 .byte   W96
@  #01 @079   ----------------------------------------
 .byte   W96
@  #01 @080   ----------------------------------------
 .byte   W96
@  #01 @081   ----------------------------------------
 .byte   W96
@  #01 @082   ----------------------------------------
 .byte   W96
@  #01 @083   ----------------------------------------
 .byte   W96
@  #01 @084   ----------------------------------------
 .byte   W96
@  #01 @085   ----------------------------------------
 .byte   W96
@  #01 @086   ----------------------------------------
 .byte   W96
@  #01 @087   ----------------------------------------
 .byte   W96
@  #01 @088   ----------------------------------------
 .byte   W96
@  #01 @089   ----------------------------------------
 .byte   W96
@  #01 @090   ----------------------------------------
Label_EDD502:
 .byte   N15 ,Cn4 ,v127
 .byte   W16
 .byte   Gn3
 .byte   W16
 .byte   Fn3
 .byte   W16
 .byte   Cn4
 .byte   W16
 .byte   Gn3
 .byte   W16
 .byte   Fn3
 .byte   W16
 .byte   PEND 
@  #01 @091   ----------------------------------------
 .byte   PATT
  .word Label_EDD502
@  #01 @092   ----------------------------------------
 .byte   PATT
  .word Label_EDD502
@  #01 @093   ----------------------------------------
 .byte   PATT
  .word Label_EDD502
@  #01 @094   ----------------------------------------
Label_EDD520:
 .byte   N15 ,Ds4 ,v127
 .byte   W16
 .byte   As3
 .byte   W16
 .byte   Gs3
 .byte   W16
 .byte   Ds4
 .byte   W16
 .byte   As3
 .byte   W16
 .byte   Gs3
 .byte   W16
 .byte   PEND 
@  #01 @095   ----------------------------------------
 .byte   PATT
  .word Label_EDD520
@  #01 @096   ----------------------------------------
 .byte   N15 ,Dn4 ,v127
 .byte   W16
 .byte   Cn4
 .byte   W16
 .byte   Gn3
 .byte   W16
 .byte   Dn4
 .byte   W16
 .byte   Cn4
 .byte   W16
 .byte   Gn3
 .byte   W16
@  #01 @097   ----------------------------------------
 .byte   Gn4
 .byte   W16
 .byte   Ds4
 .byte   W16
 .byte   Bn3
 .byte   W16
 .byte   Bn4
 .byte   W16
 .byte   Gn4
 .byte   W16
 .byte   Ds4
 .byte   W16
@  #01 @098   ----------------------------------------
 .byte   PATT
  .word Label_EDD502
@  #01 @099   ----------------------------------------
 .byte   PATT
  .word Label_EDD502
@  #01 @100   ----------------------------------------
 .byte   PATT
  .word Label_EDD502
@  #01 @101   ----------------------------------------
 .byte   PATT
  .word Label_EDD502
@  #01 @102   ----------------------------------------
 .byte   N15 ,Ds3 ,v127
 .byte   W16
 .byte   Dn3
 .byte   W16
 .byte   Ds3
 .byte   W16
 .byte   Dn3
 .byte   W16
 .byte   Ds3
 .byte   W16
 .byte   Fn3
 .byte   W16
@  #01 @103   ----------------------------------------
 .byte   Ds3
 .byte   W16
 .byte   Fn3
 .byte   W16
 .byte   Gn3
 .byte   W16
 .byte   Fn3
 .byte   W16
 .byte   Gn3
 .byte   W16
 .byte   As3
 .byte   W16
@  #01 @104   ----------------------------------------
 .byte   Gn3
 .byte   W16
 .byte   Bn3
 .byte   W16
 .byte   Dn4
 .byte   W16
 .byte   Bn3
 .byte   W16
 .byte   Dn4
 .byte   W16
 .byte   Fn4
 .byte   W16
@  #01 @105   ----------------------------------------
 .byte   N07 ,Dn4
 .byte   W16
 .byte   Fn4
 .byte   W16
 .byte   Gn4
 .byte   W16
 .byte   Fn4
 .byte   W16
 .byte   Bn4
 .byte   W16
 .byte   Dn5
 .byte   W16
@  #01 @106   ----------------------------------------
 .byte   N15 ,Cn5
 .byte   W16
 .byte   Gn4
 .byte   W16
 .byte   Fn4
 .byte   W16
 .byte   Cn5
 .byte   W16
 .byte   Gn4
 .byte   W16
 .byte   Fn4
 .byte   W16
@  #01 @107   ----------------------------------------
Label_EDD5A2:
 .byte   N15 ,Cn5 ,v127
 .byte   W16
 .byte   Gn4
 .byte   W16
 .byte   Fn4
 .byte   W16
 .byte   Cn5
 .byte   W16
 .byte   Gn4
 .byte   W16
 .byte   Fn4
 .byte   W16
 .byte   PEND 
@  #01 @108   ----------------------------------------
 .byte   PATT
  .word Label_EDD5A2
@  #01 @109   ----------------------------------------
 .byte   PATT
  .word Label_EDD5A2
@  #01 @110   ----------------------------------------
Label_EDD5BB:
 .byte   N15 ,Ds5 ,v127
 .byte   W16
 .byte   As4
 .byte   W16
 .byte   Gs4
 .byte   W16
 .byte   Ds5
 .byte   W16
 .byte   As4
 .byte   W16
 .byte   Gs4
 .byte   W16
 .byte   PEND 
@  #01 @111   ----------------------------------------
 .byte   PATT
  .word Label_EDD5BB
@  #01 @112   ----------------------------------------
 .byte   N15 ,Dn5 ,v127
 .byte   W16
 .byte   Cn5
 .byte   W16
 .byte   Gn4
 .byte   W16
 .byte   Dn5
 .byte   W16
 .byte   Cn5
 .byte   W16
 .byte   Gn4
 .byte   W16
@  #01 @113   ----------------------------------------
 .byte   Gn5
 .byte   W16
 .byte   Ds5
 .byte   W16
 .byte   Bn4
 .byte   W16
 .byte   Bn5
 .byte   W16
 .byte   Gn5
 .byte   W16
 .byte   Ds5
 .byte   W16
@  #01 @114   ----------------------------------------
Label_EDD5E9:
 .byte   N07 ,Cn5 ,v127
 .byte   W16
 .byte   Gn4
 .byte   W16
 .byte   Fn4
 .byte   W16
 .byte   Cn5
 .byte   W16
 .byte   Gn4
 .byte   W16
 .byte   Fn4
 .byte   W16
 .byte   PEND 
@  #01 @115   ----------------------------------------
 .byte   PATT
  .word Label_EDD5E9
@  #01 @116   ----------------------------------------
 .byte   PATT
  .word Label_EDD5E9
@  #01 @117   ----------------------------------------
 .byte   PATT
  .word Label_EDD5E9
@  #01 @118   ----------------------------------------
Label_EDD607:
 .byte   N07 ,Cn5 ,v127
 .byte   W16
 .byte   Gs4
 .byte   W16
 .byte   Fn4
 .byte   W16
 .byte   Cn5
 .byte   W16
 .byte   Gs4
 .byte   W16
 .byte   Fn4
 .byte   W16
 .byte   PEND 
@  #01 @119   ----------------------------------------
 .byte   PATT
  .word Label_EDD607
@  #01 @120   ----------------------------------------
 .byte   N07 ,Fn4 ,v127
 .byte   W16
 .byte   Bn3
 .byte   W16
 .byte   Gn3
 .byte   W16
 .byte   Bn4
 .byte   W16
 .byte   Ds4
 .byte   W16
 .byte   Bn3
 .byte   W16
@  #01 @121   ----------------------------------------
 .byte   N07
 .byte   W16
 .byte   Bn4
 .byte   W16
 .byte   Gn4
 .byte   W64
@  #01 @122   ----------------------------------------
 .byte   PATT
  .word Label_EDD3F0
@  #01 @123   ----------------------------------------
 .byte   PATT
  .word Label_EDD3F9
@  #01 @124   ----------------------------------------
 .byte   PATT
  .word Label_EDD3F0
@  #01 @125   ----------------------------------------
 .byte   PATT
  .word Label_EDD3F9
@  #01 @126   ----------------------------------------
 .byte   PATT
  .word Label_EDD3F0
@  #01 @127   ----------------------------------------
 .byte   PATT
  .word Label_EDD3F9
@  #01 @128   ----------------------------------------
 .byte   W96
@  #01 @129   ----------------------------------------
 .byte   W96
@  #01 @130   ----------------------------------------
 .byte   PATT
  .word Label_EDD3F0
@  #01 @131   ----------------------------------------
 .byte   PATT
  .word Label_EDD3F9
@  #01 @132   ----------------------------------------
 .byte   PATT
  .word Label_EDD3F0
@  #01 @133   ----------------------------------------
 .byte   PATT
  .word Label_EDD3F9
@  #01 @134   ----------------------------------------
 .byte   PATT
  .word Label_EDD3F0
@  #01 @135   ----------------------------------------
 .byte   PATT
  .word Label_EDD3F9
@  #01 @136   ----------------------------------------
 .byte   PATT
  .word Label_EDD436
@  #01 @137   ----------------------------------------
 .byte   PATT
  .word Label_EDD43F
@  #01 @138   ----------------------------------------
 .byte   PATT
  .word Label_EDD3F0
@  #01 @139   ----------------------------------------
 .byte   PATT
  .word Label_EDD3F9
@  #01 @140   ----------------------------------------
 .byte   PATT
  .word Label_EDD3F0
@  #01 @141   ----------------------------------------
 .byte   PATT
  .word Label_EDD3F9
@  #01 @142   ----------------------------------------
 .byte   PATT
  .word Label_EDD3F0
@  #01 @143   ----------------------------------------
 .byte   PATT
  .word Label_EDD3F9
@  #01 @144   ----------------------------------------
 .byte   W96
@  #01 @145   ----------------------------------------
 .byte   W96
@  #01 @146   ----------------------------------------
 .byte   PATT
  .word Label_EDD3F0
@  #01 @147   ----------------------------------------
 .byte   PATT
  .word Label_EDD3F9
@  #01 @148   ----------------------------------------
 .byte   PATT
  .word Label_EDD3F0
@  #01 @149   ----------------------------------------
 .byte   PATT
  .word Label_EDD3F9
@  #01 @150   ----------------------------------------
 .byte   PATT
  .word Label_EDD3F0
@  #01 @151   ----------------------------------------
 .byte   PATT
  .word Label_EDD3F9
@  #01 @152   ----------------------------------------
 .byte   PATT
  .word Label_EDD436
@  #01 @153   ----------------------------------------
 .byte   PATT
  .word Label_EDD43F
@  #01 @154   ----------------------------------------
 .byte   GOTO
  .word Label_EDD490
 .byte   FINE

@**************** Track 2 (Midi-Chn.1) ****************@

song09_002:
@  #02 @000   ----------------------------------------
 .byte   KEYSH , song09_key+0
 .byte   VOICE , 101
 .byte   VOL , 43*song09_mvl/mxv
 .byte   PAN , c_v+0
 .byte   VOL , 43*song09_mvl/mxv
 .byte   PAN , c_v+0
 .byte   VOL , 43*song09_mvl/mxv
 .byte   PAN , c_v+0
 .byte   VOL , 43*song09_mvl/mxv
 .byte   PAN , c_v+0
 .byte   W96
@  #02 @001   ----------------------------------------
 .byte   W96
@  #02 @002   ----------------------------------------
 .byte   W96
@  #02 @003   ----------------------------------------
 .byte   W96
@  #02 @004   ----------------------------------------
 .byte   W96
@  #02 @005   ----------------------------------------
 .byte   W96
@  #02 @006   ----------------------------------------
 .byte   W96
@  #02 @007   ----------------------------------------
 .byte   W96
@  #02 @008   ----------------------------------------
 .byte   W96
@  #02 @009   ----------------------------------------
 .byte   W96
@  #02 @010   ----------------------------------------
 .byte   W96
@  #02 @011   ----------------------------------------
 .byte   W96
@  #02 @012   ----------------------------------------
 .byte   W96
@  #02 @013   ----------------------------------------
 .byte   W96
@  #02 @014   ----------------------------------------
 .byte   W96
@  #02 @015   ----------------------------------------
 .byte   W96
@  #02 @016   ----------------------------------------
 .byte   W96
@  #02 @017   ----------------------------------------
 .byte   W96
@  #02 @018   ----------------------------------------
 .byte   W96
@  #02 @019   ----------------------------------------
 .byte   W96
@  #02 @020   ----------------------------------------
 .byte   W96
@  #02 @021   ----------------------------------------
 .byte   W96
@  #02 @022   ----------------------------------------
 .byte   W96
@  #02 @023   ----------------------------------------
 .byte   W96
@  #02 @024   ----------------------------------------
 .byte   W96
@  #02 @025   ----------------------------------------
 .byte   W96
@  #02 @026   ----------------------------------------
 .byte   W96
@  #02 @027   ----------------------------------------
 .byte   W96
@  #02 @028   ----------------------------------------
 .byte   W96
@  #02 @029   ----------------------------------------
 .byte   W96
@  #02 @030   ----------------------------------------
 .byte   W96
@  #02 @031   ----------------------------------------
 .byte   W96
@  #02 @032   ----------------------------------------
 .byte   W96
@  #02 @033   ----------------------------------------
 .byte   W96
@  #02 @034   ----------------------------------------
Label_EDCEFE:
 .byte   W96
@  #02 @035   ----------------------------------------
 .byte   W96
@  #02 @036   ----------------------------------------
 .byte   W96
@  #02 @037   ----------------------------------------
 .byte   W96
@  #02 @038   ----------------------------------------
 .byte   W96
@  #02 @039   ----------------------------------------
 .byte   W96
@  #02 @040   ----------------------------------------
 .byte   W96
@  #02 @041   ----------------------------------------
 .byte   W96
@  #02 @042   ----------------------------------------
 .byte   W96
@  #02 @043   ----------------------------------------
 .byte   W96
@  #02 @044   ----------------------------------------
 .byte   W96
@  #02 @045   ----------------------------------------
 .byte   W96
@  #02 @046   ----------------------------------------
 .byte   W96
@  #02 @047   ----------------------------------------
 .byte   W96
@  #02 @048   ----------------------------------------
 .byte   W96
@  #02 @049   ----------------------------------------
 .byte   W96
@  #02 @050   ----------------------------------------
Label_EDCF0E:
 .byte   N23 ,Fs2 ,v127
 .byte   W32
 .byte   N36
 .byte   W16
 .byte   W48
 .byte   PEND 
@  #02 @051   ----------------------------------------
 .byte   W96
@  #02 @052   ----------------------------------------
 .byte   PATT
  .word Label_EDCF0E
@  #02 @053   ----------------------------------------
 .byte   W96
@  #02 @054   ----------------------------------------
 .byte   PATT
  .word Label_EDCF0E
@  #02 @055   ----------------------------------------
 .byte   W96
@  #02 @056   ----------------------------------------
 .byte   N92 ,Fs2 ,v127
 .byte   W96
@  #02 @057   ----------------------------------------
 .byte   Gs2
 .byte   W96
@  #02 @058   ----------------------------------------
 .byte   W96
@  #02 @059   ----------------------------------------
 .byte   W96
@  #02 @060   ----------------------------------------
 .byte   W96
@  #02 @061   ----------------------------------------
 .byte   W96
@  #02 @062   ----------------------------------------
 .byte   W96
@  #02 @063   ----------------------------------------
 .byte   W96
@  #02 @064   ----------------------------------------
 .byte   W96
@  #02 @065   ----------------------------------------
 .byte   W96
@  #02 @066   ----------------------------------------
 .byte   W96
@  #02 @067   ----------------------------------------
 .byte   W96
@  #02 @068   ----------------------------------------
 .byte   W96
@  #02 @069   ----------------------------------------
 .byte   W96
@  #02 @070   ----------------------------------------
 .byte   W96
@  #02 @071   ----------------------------------------
 .byte   W96
@  #02 @072   ----------------------------------------
 .byte   W96
@  #02 @073   ----------------------------------------
 .byte   W96
@  #02 @074   ----------------------------------------
 .byte   TIE ,Fn2
 .byte   W96
@  #02 @075   ----------------------------------------
Label_EDCF3C:
 .byte   W92
 .byte   W03
 .byte   PEND 
 .byte   EOT
 .byte   Fn2
 .byte   W01
@  #02 @076   ----------------------------------------
 .byte   TIE ,Gn2 ,v127
 .byte   W96
@  #02 @077   ----------------------------------------
 .byte   PATT
  .word Label_EDCF3C
@  #02 @078   ----------------------------------------
 .byte   EOT
 .byte   Gn2
 .byte   W01
 .byte   TIE ,Gs2 ,v127
 .byte   W96
@  #02 @079   ----------------------------------------
 .byte   PATT
  .word Label_EDCF3C
@  #02 @080   ----------------------------------------
 .byte   EOT
 .byte   Gs2
 .byte   W01
 .byte   TIE ,As2 ,v127
 .byte   W96
@  #02 @081   ----------------------------------------
 .byte   PATT
  .word Label_EDCF3C
@  #02 @082   ----------------------------------------
 .byte   EOT
 .byte   As2
 .byte   W01
 .byte   TIE ,Bn2 ,v127
 .byte   W96
@  #02 @083   ----------------------------------------
 .byte   W96
@  #02 @084   ----------------------------------------
 .byte   W96
@  #02 @085   ----------------------------------------
 .byte   PATT
  .word Label_EDCF3C
@  #02 @086   ----------------------------------------
 .byte   EOT
 .byte   Bn2
 .byte   W01
 .byte   TIE ,Cn3 ,v127
 .byte   W96
@  #02 @087   ----------------------------------------
 .byte   PATT
  .word Label_EDCF3C
@  #02 @088   ----------------------------------------
 .byte   EOT
 .byte   Cn3
 .byte   W01
 .byte   TIE ,Dn2 ,v127
 .byte   W96
@  #02 @089   ----------------------------------------
 .byte   PATT
  .word Label_EDCF3C
@  #02 @090   ----------------------------------------
 .byte   EOT
 .byte   Dn2
 .byte   W01
 .byte   W96
@  #02 @091   ----------------------------------------
 .byte   W96
@  #02 @092   ----------------------------------------
 .byte   W96
@  #02 @093   ----------------------------------------
 .byte   W96
@  #02 @094   ----------------------------------------
 .byte   W96
@  #02 @095   ----------------------------------------
 .byte   W96
@  #02 @096   ----------------------------------------
 .byte   W96
@  #02 @097   ----------------------------------------
 .byte   W96
@  #02 @098   ----------------------------------------
 .byte   W96
@  #02 @099   ----------------------------------------
 .byte   W96
@  #02 @100   ----------------------------------------
 .byte   W96
@  #02 @101   ----------------------------------------
 .byte   W96
@  #02 @102   ----------------------------------------
 .byte   W96
@  #02 @103   ----------------------------------------
 .byte   W96
@  #02 @104   ----------------------------------------
 .byte   W96
@  #02 @105   ----------------------------------------
 .byte   W96
@  #02 @106   ----------------------------------------
 .byte   W96
@  #02 @107   ----------------------------------------
 .byte   W96
@  #02 @108   ----------------------------------------
 .byte   W96
@  #02 @109   ----------------------------------------
 .byte   W96
@  #02 @110   ----------------------------------------
 .byte   W96
@  #02 @111   ----------------------------------------
 .byte   W96
@  #02 @112   ----------------------------------------
 .byte   W96
@  #02 @113   ----------------------------------------
 .byte   W96
@  #02 @114   ----------------------------------------
 .byte   W96
@  #02 @115   ----------------------------------------
 .byte   W96
@  #02 @116   ----------------------------------------
 .byte   W96
@  #02 @117   ----------------------------------------
 .byte   W96
@  #02 @118   ----------------------------------------
 .byte   W96
@  #02 @119   ----------------------------------------
 .byte   W96
@  #02 @120   ----------------------------------------
 .byte   W96
@  #02 @121   ----------------------------------------
 .byte   W96
@  #02 @122   ----------------------------------------
 .byte   W96
@  #02 @123   ----------------------------------------
 .byte   W96
@  #02 @124   ----------------------------------------
 .byte   W96
@  #02 @125   ----------------------------------------
 .byte   W96
@  #02 @126   ----------------------------------------
 .byte   W96
@  #02 @127   ----------------------------------------
 .byte   W96
@  #02 @128   ----------------------------------------
 .byte   W96
@  #02 @129   ----------------------------------------
 .byte   W96
@  #02 @130   ----------------------------------------
 .byte   W96
@  #02 @131   ----------------------------------------
 .byte   W96
@  #02 @132   ----------------------------------------
 .byte   W96
@  #02 @133   ----------------------------------------
 .byte   W96
@  #02 @134   ----------------------------------------
 .byte   W96
@  #02 @135   ----------------------------------------
 .byte   W96
@  #02 @136   ----------------------------------------
 .byte   W96
@  #02 @137   ----------------------------------------
 .byte   W96
@  #02 @138   ----------------------------------------
 .byte   W96
@  #02 @139   ----------------------------------------
 .byte   W96
@  #02 @140   ----------------------------------------
 .byte   W96
@  #02 @141   ----------------------------------------
 .byte   W96
@  #02 @142   ----------------------------------------
 .byte   W96
@  #02 @143   ----------------------------------------
 .byte   W96
@  #02 @144   ----------------------------------------
 .byte   W96
@  #02 @145   ----------------------------------------
 .byte   W96
@  #02 @146   ----------------------------------------
 .byte   W96
@  #02 @147   ----------------------------------------
 .byte   W96
@  #02 @148   ----------------------------------------
 .byte   W96
@  #02 @149   ----------------------------------------
 .byte   W96
@  #02 @150   ----------------------------------------
 .byte   W96
@  #02 @151   ----------------------------------------
 .byte   W96
@  #02 @152   ----------------------------------------
 .byte   W96
@  #02 @153   ----------------------------------------
 .byte   W96
@  #02 @154   ----------------------------------------
 .byte   GOTO
  .word Label_EDCEFE
 .byte   FINE

@**************** Track 3 (Midi-Chn.2) ****************@

song09_003:
@  #03 @000   ----------------------------------------
 .byte   KEYSH , song09_key+0
 .byte   VOICE , 38
 .byte   VOL , 55*song09_mvl/mxv
 .byte   PAN , c_v+0
 .byte   En3 ,v064
 .byte   W96
@  #03 @001   ----------------------------------------
 .byte   W64
 .byte   N15 ,Ds0 ,v127
 .byte   W16
 .byte   N15
 .byte   W16
@  #03 @002   ----------------------------------------
Label_EDC066:
 .byte   N30 ,Fn0 ,v127
 .byte   W32
 .byte   N15
 .byte   W16
 .byte   N15
 .byte   W16
 .byte   N15
 .byte   W16
 .byte   N15
 .byte   W16
 .byte   PEND 
@  #03 @003   ----------------------------------------
 .byte   PATT
  .word Label_EDC066
@  #03 @004   ----------------------------------------
 .byte   PATT
  .word Label_EDC066
@  #03 @005   ----------------------------------------
Label_EDC07D:
 .byte   N30 ,Gs0 ,v127
 .byte   W32
 .byte   N15
 .byte   W16
 .byte   N15
 .byte   W16
 .byte   N15
 .byte   W16
 .byte   Gn0
 .byte   W16
 .byte   PEND 
@  #03 @006   ----------------------------------------
 .byte   PATT
  .word Label_EDC066
@  #03 @007   ----------------------------------------
 .byte   PATT
  .word Label_EDC066
@  #03 @008   ----------------------------------------
Label_EDC094:
 .byte   N30 ,Fn0 ,v127
 .byte   W32
 .byte   N15
 .byte   W16
 .byte   Gn0
 .byte   W16
 .byte   N15
 .byte   W16
 .byte   N15
 .byte   W16
 .byte   PEND 
@  #03 @009   ----------------------------------------
Label_EDC0A1:
 .byte   N30 ,Gs0 ,v127
 .byte   W32
 .byte   N15
 .byte   W16
 .byte   As0
 .byte   W16
 .byte   N15
 .byte   W16
 .byte   N15
 .byte   W16
 .byte   PEND 
@  #03 @010   ----------------------------------------
 .byte   PATT
  .word Label_EDC066
@  #03 @011   ----------------------------------------
 .byte   PATT
  .word Label_EDC066
@  #03 @012   ----------------------------------------
 .byte   PATT
  .word Label_EDC066
@  #03 @013   ----------------------------------------
 .byte   PATT
  .word Label_EDC07D
@  #03 @014   ----------------------------------------
Label_EDC0C2:
 .byte   N30 ,As0 ,v127
 .byte   W32
 .byte   N15
 .byte   W16
 .byte   N15
 .byte   W16
 .byte   N15
 .byte   W16
 .byte   N15
 .byte   W16
 .byte   PEND 
@  #03 @015   ----------------------------------------
 .byte   PATT
  .word Label_EDC0C2
@  #03 @016   ----------------------------------------
Label_EDC0D4:
 .byte   N11 ,Bn0 ,v127
 .byte   W12
 .byte   N19
 .byte   W20
 .byte   N15
 .byte   W16
 .byte   Gn1
 .byte   W16
 .byte   N15
 .byte   W16
 .byte   N15
 .byte   W16
 .byte   PEND 
@  #03 @017   ----------------------------------------
Label_EDC0E3:
 .byte   N11 ,Dn1 ,v127
 .byte   W12
 .byte   N19
 .byte   W20
 .byte   N15
 .byte   W16
 .byte   Gn0
 .byte   W16
 .byte   N15
 .byte   W16
 .byte   N15
 .byte   W16
 .byte   PEND 
@  #03 @018   ----------------------------------------
 .byte   PATT
  .word Label_EDC066
@  #03 @019   ----------------------------------------
 .byte   PATT
  .word Label_EDC066
@  #03 @020   ----------------------------------------
 .byte   PATT
  .word Label_EDC066
@  #03 @021   ----------------------------------------
 .byte   PATT
  .word Label_EDC07D
@  #03 @022   ----------------------------------------
 .byte   PATT
  .word Label_EDC066
@  #03 @023   ----------------------------------------
 .byte   PATT
  .word Label_EDC066
@  #03 @024   ----------------------------------------
 .byte   PATT
  .word Label_EDC094
@  #03 @025   ----------------------------------------
 .byte   PATT
  .word Label_EDC0A1
@  #03 @026   ----------------------------------------
 .byte   PATT
  .word Label_EDC066
@  #03 @027   ----------------------------------------
 .byte   PATT
  .word Label_EDC066
@  #03 @028   ----------------------------------------
 .byte   PATT
  .word Label_EDC066
@  #03 @029   ----------------------------------------
 .byte   PATT
  .word Label_EDC07D
@  #03 @030   ----------------------------------------
 .byte   PATT
  .word Label_EDC0C2
@  #03 @031   ----------------------------------------
 .byte   PATT
  .word Label_EDC0C2
@  #03 @032   ----------------------------------------
 .byte   PATT
  .word Label_EDC0D4
@  #03 @033   ----------------------------------------
 .byte   PATT
  .word Label_EDC0E3
@  #03 @034   ----------------------------------------
Label_EDC142:
 .byte   N30 ,Cn1 ,v127
 .byte   W32
 .byte   N15
 .byte   W16
 .byte   N15
 .byte   W16
 .byte   N15
 .byte   W16
 .byte   N15
 .byte   W16
 .byte   PEND 
@  #03 @035   ----------------------------------------
 .byte   PATT
  .word Label_EDC142
@  #03 @036   ----------------------------------------
 .byte   PATT
  .word Label_EDC142
@  #03 @037   ----------------------------------------
 .byte   PATT
  .word Label_EDC142
@  #03 @038   ----------------------------------------
Label_EDC15E:
 .byte   N30 ,Gs0 ,v127
 .byte   W32
 .byte   N15
 .byte   W16
 .byte   N15
 .byte   W16
 .byte   N15
 .byte   W16
 .byte   N15
 .byte   W16
 .byte   PEND 
@  #03 @039   ----------------------------------------
 .byte   PATT
  .word Label_EDC15E
@  #03 @040   ----------------------------------------
Label_EDC170:
 .byte   N30 ,Gn0 ,v127
 .byte   W32
 .byte   N15
 .byte   W16
 .byte   N15
 .byte   W16
 .byte   N15
 .byte   W16
 .byte   N15
 .byte   W16
 .byte   PEND 
@  #03 @041   ----------------------------------------
 .byte   PATT
  .word Label_EDC170
@  #03 @042   ----------------------------------------
 .byte   PATT
  .word Label_EDC142
@  #03 @043   ----------------------------------------
 .byte   PATT
  .word Label_EDC142
@  #03 @044   ----------------------------------------
 .byte   PATT
  .word Label_EDC142
@  #03 @045   ----------------------------------------
 .byte   PATT
  .word Label_EDC142
@  #03 @046   ----------------------------------------
 .byte   PATT
  .word Label_EDC15E
@  #03 @047   ----------------------------------------
 .byte   PATT
  .word Label_EDC15E
@  #03 @048   ----------------------------------------
 .byte   PATT
  .word Label_EDC170
@  #03 @049   ----------------------------------------
 .byte   PATT
  .word Label_EDC170
@  #03 @050   ----------------------------------------
Label_EDC1AA:
 .byte   N30 ,Fs0 ,v127
 .byte   W32
 .byte   TIE
 .byte   W64
 .byte   PEND 
@  #03 @051   ----------------------------------------
 .byte   W44
 .byte   W03
 .byte   EOT
 .byte   W48
 .byte   W01
@  #03 @052   ----------------------------------------
 .byte   PATT
  .word Label_EDC1AA
@  #03 @053   ----------------------------------------
 .byte   W44
 .byte   W03
 .byte   EOT
 .byte   Fs0
 .byte   W48
 .byte   W01
@  #03 @054   ----------------------------------------
 .byte   PATT
  .word Label_EDC1AA
@  #03 @055   ----------------------------------------
 .byte   W44
 .byte   W03
 .byte   EOT
 .byte   Fs0
 .byte   W48
 .byte   W01
@  #03 @056   ----------------------------------------
 .byte   N92 ,Fs0 ,v127
 .byte   W96
@  #03 @057   ----------------------------------------
 .byte   Gs0
 .byte   W96
@  #03 @058   ----------------------------------------
 .byte   PATT
  .word Label_EDC066
@  #03 @059   ----------------------------------------
 .byte   PATT
  .word Label_EDC066
@  #03 @060   ----------------------------------------
 .byte   PATT
  .word Label_EDC066
@  #03 @061   ----------------------------------------
 .byte   PATT
  .word Label_EDC07D
@  #03 @062   ----------------------------------------
 .byte   PATT
  .word Label_EDC066
@  #03 @063   ----------------------------------------
 .byte   PATT
  .word Label_EDC066
@  #03 @064   ----------------------------------------
 .byte   PATT
  .word Label_EDC066
@  #03 @065   ----------------------------------------
 .byte   PATT
  .word Label_EDC07D
@  #03 @066   ----------------------------------------
 .byte   PATT
  .word Label_EDC066
@  #03 @067   ----------------------------------------
 .byte   PATT
  .word Label_EDC066
@  #03 @068   ----------------------------------------
 .byte   PATT
  .word Label_EDC066
@  #03 @069   ----------------------------------------
 .byte   PATT
  .word Label_EDC07D
@  #03 @070   ----------------------------------------
 .byte   PATT
  .word Label_EDC0C2
@  #03 @071   ----------------------------------------
 .byte   PATT
  .word Label_EDC0C2
@  #03 @072   ----------------------------------------
 .byte   PATT
  .word Label_EDC0D4
@  #03 @073   ----------------------------------------
 .byte   PATT
  .word Label_EDC0E3
@  #03 @074   ----------------------------------------
 .byte   PATT
  .word Label_EDC066
@  #03 @075   ----------------------------------------
 .byte   PATT
  .word Label_EDC066
@  #03 @076   ----------------------------------------
 .byte   PATT
  .word Label_EDC066
@  #03 @077   ----------------------------------------
 .byte   PATT
  .word Label_EDC07D
@  #03 @078   ----------------------------------------
 .byte   PATT
  .word Label_EDC066
@  #03 @079   ----------------------------------------
 .byte   PATT
  .word Label_EDC066
@  #03 @080   ----------------------------------------
 .byte   PATT
  .word Label_EDC066
@  #03 @081   ----------------------------------------
 .byte   PATT
  .word Label_EDC07D
@  #03 @082   ----------------------------------------
 .byte   PATT
  .word Label_EDC066
@  #03 @083   ----------------------------------------
 .byte   PATT
  .word Label_EDC066
@  #03 @084   ----------------------------------------
 .byte   PATT
  .word Label_EDC066
@  #03 @085   ----------------------------------------
 .byte   PATT
  .word Label_EDC07D
@  #03 @086   ----------------------------------------
 .byte   PATT
  .word Label_EDC0C2
@  #03 @087   ----------------------------------------
 .byte   PATT
  .word Label_EDC0C2
@  #03 @088   ----------------------------------------
Label_EDC268:
 .byte   N30 ,Bn0 ,v127
 .byte   W32
 .byte   N15
 .byte   W16
 .byte   N15
 .byte   W16
 .byte   N15
 .byte   W16
 .byte   N15
 .byte   W16
 .byte   PEND 
@  #03 @089   ----------------------------------------
 .byte   PATT
  .word Label_EDC268
@  #03 @090   ----------------------------------------
 .byte   PATT
  .word Label_EDC142
@  #03 @091   ----------------------------------------
 .byte   PATT
  .word Label_EDC142
@  #03 @092   ----------------------------------------
 .byte   PATT
  .word Label_EDC142
@  #03 @093   ----------------------------------------
 .byte   PATT
  .word Label_EDC142
@  #03 @094   ----------------------------------------
 .byte   PATT
  .word Label_EDC15E
@  #03 @095   ----------------------------------------
 .byte   PATT
  .word Label_EDC15E
@  #03 @096   ----------------------------------------
 .byte   PATT
  .word Label_EDC170
@  #03 @097   ----------------------------------------
 .byte   PATT
  .word Label_EDC170
@  #03 @098   ----------------------------------------
 .byte   PATT
  .word Label_EDC142
@  #03 @099   ----------------------------------------
 .byte   PATT
  .word Label_EDC142
@  #03 @100   ----------------------------------------
 .byte   PATT
  .word Label_EDC142
@  #03 @101   ----------------------------------------
 .byte   PATT
  .word Label_EDC142
@  #03 @102   ----------------------------------------
 .byte   PATT
  .word Label_EDC15E
@  #03 @103   ----------------------------------------
 .byte   PATT
  .word Label_EDC15E
@  #03 @104   ----------------------------------------
 .byte   N30 ,Gn0 ,v127
 .byte   W32
 .byte   N36
 .byte   W64
@  #03 @105   ----------------------------------------
 .byte   N23
 .byte   W48
 .byte   N23
 .byte   W48
@  #03 @106   ----------------------------------------
 .byte   PATT
  .word Label_EDC142
@  #03 @107   ----------------------------------------
 .byte   PATT
  .word Label_EDC142
@  #03 @108   ----------------------------------------
 .byte   PATT
  .word Label_EDC142
@  #03 @109   ----------------------------------------
 .byte   PATT
  .word Label_EDC142
@  #03 @110   ----------------------------------------
 .byte   PATT
  .word Label_EDC15E
@  #03 @111   ----------------------------------------
 .byte   PATT
  .word Label_EDC15E
@  #03 @112   ----------------------------------------
 .byte   PATT
  .word Label_EDC170
@  #03 @113   ----------------------------------------
 .byte   PATT
  .word Label_EDC170
@  #03 @114   ----------------------------------------
 .byte   PATT
  .word Label_EDC142
@  #03 @115   ----------------------------------------
 .byte   PATT
  .word Label_EDC142
@  #03 @116   ----------------------------------------
 .byte   PATT
  .word Label_EDC142
@  #03 @117   ----------------------------------------
 .byte   PATT
  .word Label_EDC142
@  #03 @118   ----------------------------------------
 .byte   PATT
  .word Label_EDC15E
@  #03 @119   ----------------------------------------
 .byte   PATT
  .word Label_EDC15E
@  #03 @120   ----------------------------------------
 .byte   PATT
  .word Label_EDC170
@  #03 @121   ----------------------------------------
 .byte   PATT
  .word Label_EDC170
@  #03 @122   ----------------------------------------
 .byte   PATT
  .word Label_EDC066
@  #03 @123   ----------------------------------------
 .byte   PATT
  .word Label_EDC066
@  #03 @124   ----------------------------------------
 .byte   PATT
  .word Label_EDC066
@  #03 @125   ----------------------------------------
 .byte   PATT
  .word Label_EDC07D
@  #03 @126   ----------------------------------------
 .byte   PATT
  .word Label_EDC066
@  #03 @127   ----------------------------------------
 .byte   PATT
  .word Label_EDC066
@  #03 @128   ----------------------------------------
 .byte   PATT
  .word Label_EDC094
@  #03 @129   ----------------------------------------
 .byte   PATT
  .word Label_EDC0A1
@  #03 @130   ----------------------------------------
 .byte   PATT
  .word Label_EDC066
@  #03 @131   ----------------------------------------
 .byte   PATT
  .word Label_EDC066
@  #03 @132   ----------------------------------------
 .byte   PATT
  .word Label_EDC066
@  #03 @133   ----------------------------------------
 .byte   PATT
  .word Label_EDC07D
@  #03 @134   ----------------------------------------
 .byte   PATT
  .word Label_EDC0C2
@  #03 @135   ----------------------------------------
 .byte   PATT
  .word Label_EDC0C2
@  #03 @136   ----------------------------------------
 .byte   PATT
  .word Label_EDC0D4
@  #03 @137   ----------------------------------------
 .byte   PATT
  .word Label_EDC0E3
@  #03 @138   ----------------------------------------
 .byte   PATT
  .word Label_EDC066
@  #03 @139   ----------------------------------------
 .byte   PATT
  .word Label_EDC066
@  #03 @140   ----------------------------------------
 .byte   PATT
  .word Label_EDC066
@  #03 @141   ----------------------------------------
 .byte   PATT
  .word Label_EDC07D
@  #03 @142   ----------------------------------------
 .byte   PATT
  .word Label_EDC066
@  #03 @143   ----------------------------------------
 .byte   PATT
  .word Label_EDC066
@  #03 @144   ----------------------------------------
 .byte   PATT
  .word Label_EDC094
@  #03 @145   ----------------------------------------
 .byte   PATT
  .word Label_EDC0A1
@  #03 @146   ----------------------------------------
 .byte   PATT
  .word Label_EDC066
@  #03 @147   ----------------------------------------
 .byte   PATT
  .word Label_EDC066
@  #03 @148   ----------------------------------------
 .byte   PATT
  .word Label_EDC066
@  #03 @149   ----------------------------------------
 .byte   PATT
  .word Label_EDC07D
@  #03 @150   ----------------------------------------
 .byte   PATT
  .word Label_EDC0C2
@  #03 @151   ----------------------------------------
 .byte   PATT
  .word Label_EDC0C2
@  #03 @152   ----------------------------------------
 .byte   PATT
  .word Label_EDC0D4
@  #03 @153   ----------------------------------------
 .byte   PATT
  .word Label_EDC0E3
@  #03 @154   ----------------------------------------
 .byte   GOTO
  .word Label_EDC142
 .byte   FINE

@**************** Track 4 (Midi-Chn.3) ****************@

song09_004:
@  #04 @000   ----------------------------------------
 .byte   KEYSH , song09_key+0
 .byte   VOICE , 40
 .byte   VOL , 43*song09_mvl/mxv
 .byte   PAN , c_v+0
 .byte   VOL , 43*song09_mvl/mxv
 .byte   PAN , c_v+0
 .byte   VOL , 43*song09_mvl/mxv
 .byte   PAN , c_v+0
 .byte   VOL , 43*song09_mvl/mxv
 .byte   PAN , c_v+0
 .byte   W96
@  #04 @001   ----------------------------------------
 .byte   W96
@  #04 @002   ----------------------------------------
 .byte   W96
@  #04 @003   ----------------------------------------
 .byte   W96
@  #04 @004   ----------------------------------------
 .byte   W96
@  #04 @005   ----------------------------------------
 .byte   W96
@  #04 @006   ----------------------------------------
 .byte   W96
@  #04 @007   ----------------------------------------
 .byte   W96
@  #04 @008   ----------------------------------------
 .byte   W96
@  #04 @009   ----------------------------------------
 .byte   W96
@  #04 @010   ----------------------------------------
 .byte   W96
@  #04 @011   ----------------------------------------
 .byte   W96
@  #04 @012   ----------------------------------------
 .byte   W96
@  #04 @013   ----------------------------------------
 .byte   W96
@  #04 @014   ----------------------------------------
 .byte   W96
@  #04 @015   ----------------------------------------
 .byte   W96
@  #04 @016   ----------------------------------------
 .byte   W96
@  #04 @017   ----------------------------------------
 .byte   W96
@  #04 @018   ----------------------------------------
 .byte   W96
@  #04 @019   ----------------------------------------
 .byte   W96
@  #04 @020   ----------------------------------------
 .byte   W96
@  #04 @021   ----------------------------------------
 .byte   W96
@  #04 @022   ----------------------------------------
 .byte   W96
@  #04 @023   ----------------------------------------
 .byte   W96
@  #04 @024   ----------------------------------------
 .byte   W96
@  #04 @025   ----------------------------------------
 .byte   W96
@  #04 @026   ----------------------------------------
 .byte   W96
@  #04 @027   ----------------------------------------
 .byte   W96
@  #04 @028   ----------------------------------------
 .byte   W96
@  #04 @029   ----------------------------------------
 .byte   W96
@  #04 @030   ----------------------------------------
 .byte   W96
@  #04 @031   ----------------------------------------
 .byte   W96
@  #04 @032   ----------------------------------------
 .byte   W96
@  #04 @033   ----------------------------------------
 .byte   W96
@  #04 @034   ----------------------------------------
Label_EDD00A:
 .byte   W96
@  #04 @035   ----------------------------------------
 .byte   W96
@  #04 @036   ----------------------------------------
 .byte   W96
@  #04 @037   ----------------------------------------
 .byte   W96
@  #04 @038   ----------------------------------------
 .byte   W96
@  #04 @039   ----------------------------------------
 .byte   W96
@  #04 @040   ----------------------------------------
 .byte   W96
@  #04 @041   ----------------------------------------
 .byte   W96
@  #04 @042   ----------------------------------------
 .byte   W96
@  #04 @043   ----------------------------------------
 .byte   W96
@  #04 @044   ----------------------------------------
 .byte   W96
@  #04 @045   ----------------------------------------
 .byte   W96
@  #04 @046   ----------------------------------------
 .byte   W96
@  #04 @047   ----------------------------------------
 .byte   W96
@  #04 @048   ----------------------------------------
 .byte   W96
@  #04 @049   ----------------------------------------
 .byte   W96
@  #04 @050   ----------------------------------------
 .byte   W96
@  #04 @051   ----------------------------------------
 .byte   W96
@  #04 @052   ----------------------------------------
 .byte   W96
@  #04 @053   ----------------------------------------
 .byte   W96
@  #04 @054   ----------------------------------------
 .byte   W96
@  #04 @055   ----------------------------------------
 .byte   W96
@  #04 @056   ----------------------------------------
 .byte   W96
@  #04 @057   ----------------------------------------
 .byte   W96
@  #04 @058   ----------------------------------------
 .byte   W96
@  #04 @059   ----------------------------------------
 .byte   W96
@  #04 @060   ----------------------------------------
 .byte   W96
@  #04 @061   ----------------------------------------
 .byte   W96
@  #04 @062   ----------------------------------------
 .byte   W96
@  #04 @063   ----------------------------------------
 .byte   W96
@  #04 @064   ----------------------------------------
 .byte   W96
@  #04 @065   ----------------------------------------
 .byte   W96
@  #04 @066   ----------------------------------------
 .byte   W96
@  #04 @067   ----------------------------------------
 .byte   W96
@  #04 @068   ----------------------------------------
 .byte   W96
@  #04 @069   ----------------------------------------
 .byte   W96
@  #04 @070   ----------------------------------------
 .byte   W96
@  #04 @071   ----------------------------------------
 .byte   W96
@  #04 @072   ----------------------------------------
 .byte   W96
@  #04 @073   ----------------------------------------
 .byte   W96
@  #04 @074   ----------------------------------------
Label_EDD032:
 .byte   N30 ,Cn3 ,v127
 .byte   W32
 .byte   N16
 .byte   W16
 .byte   N16
 .byte   W16
 .byte   N15
 .byte   W16
 .byte   N15
 .byte   W16
 .byte   PEND 
@  #04 @075   ----------------------------------------
 .byte   PATT
  .word Label_EDD032
@  #04 @076   ----------------------------------------
 .byte   PATT
  .word Label_EDD032
@  #04 @077   ----------------------------------------
 .byte   PATT
  .word Label_EDD032
@  #04 @078   ----------------------------------------
Label_EDD04E:
 .byte   N30 ,Dn3 ,v127
 .byte   W32
 .byte   N16
 .byte   W16
 .byte   N16
 .byte   W16
 .byte   N15
 .byte   W16
 .byte   N15
 .byte   W16
 .byte   PEND 
@  #04 @079   ----------------------------------------
 .byte   PATT
  .word Label_EDD04E
@  #04 @080   ----------------------------------------
 .byte   PATT
  .word Label_EDD04E
@  #04 @081   ----------------------------------------
 .byte   PATT
  .word Label_EDD04E
@  #04 @082   ----------------------------------------
Label_EDD06A:
 .byte   N30 ,Ds3 ,v127
 .byte   W32
 .byte   N16
 .byte   W16
 .byte   N16
 .byte   W16
 .byte   N15
 .byte   W16
 .byte   N15
 .byte   W16
 .byte   PEND 
@  #04 @083   ----------------------------------------
 .byte   PATT
  .word Label_EDD06A
@  #04 @084   ----------------------------------------
 .byte   PATT
  .word Label_EDD06A
@  #04 @085   ----------------------------------------
 .byte   PATT
  .word Label_EDD06A
@  #04 @086   ----------------------------------------
Label_EDD086:
 .byte   N30 ,Fn3 ,v127
 .byte   W32
 .byte   N16
 .byte   W16
 .byte   N16
 .byte   W16
 .byte   N15
 .byte   W16
 .byte   N15
 .byte   W16
 .byte   PEND 
@  #04 @087   ----------------------------------------
 .byte   PATT
  .word Label_EDD086
@  #04 @088   ----------------------------------------
 .byte   PATT
  .word Label_EDD04E
@  #04 @089   ----------------------------------------
 .byte   PATT
  .word Label_EDD04E
@  #04 @090   ----------------------------------------
 .byte   W96
@  #04 @091   ----------------------------------------
 .byte   W96
@  #04 @092   ----------------------------------------
 .byte   W96
@  #04 @093   ----------------------------------------
 .byte   W96
@  #04 @094   ----------------------------------------
 .byte   W96
@  #04 @095   ----------------------------------------
 .byte   W96
@  #04 @096   ----------------------------------------
 .byte   W96
@  #04 @097   ----------------------------------------
 .byte   W96
@  #04 @098   ----------------------------------------
 .byte   W96
@  #04 @099   ----------------------------------------
 .byte   W96
@  #04 @100   ----------------------------------------
 .byte   W96
@  #04 @101   ----------------------------------------
 .byte   W96
@  #04 @102   ----------------------------------------
 .byte   W96
@  #04 @103   ----------------------------------------
 .byte   W96
@  #04 @104   ----------------------------------------
 .byte   W96
@  #04 @105   ----------------------------------------
 .byte   W96
@  #04 @106   ----------------------------------------
Label_EDD0B2:
 .byte   N92 ,Cn4 ,v127
 .byte   W96
 .byte   PEND 
@  #04 @107   ----------------------------------------
Label_EDD0B7:
 .byte   N30 ,Ds4 ,v127
 .byte   W32
 .byte   Dn4
 .byte   W32
 .byte   As3
 .byte   W32
 .byte   PEND 
@  #04 @108   ----------------------------------------
Label_EDD0C0:
 .byte   N92 ,Gn3 ,v127
 .byte   W96
 .byte   PEND 
@  #04 @109   ----------------------------------------
 .byte   PATT
  .word Label_EDD0B7
@  #04 @110   ----------------------------------------
Label_EDD0CA:
 .byte   N92 ,Fn4 ,v127
 .byte   W96
 .byte   PEND 
@  #04 @111   ----------------------------------------
Label_EDD0CF:
 .byte   N92 ,Ds4 ,v127
 .byte   W96
 .byte   PEND 
@  #04 @112   ----------------------------------------
 .byte   Dn4
 .byte   W96
@  #04 @113   ----------------------------------------
 .byte   Bn3
 .byte   W96
@  #04 @114   ----------------------------------------
 .byte   PATT
  .word Label_EDD0B2
@  #04 @115   ----------------------------------------
 .byte   PATT
  .word Label_EDD0B7
@  #04 @116   ----------------------------------------
 .byte   PATT
  .word Label_EDD0C0
@  #04 @117   ----------------------------------------
 .byte   PATT
  .word Label_EDD0B7
@  #04 @118   ----------------------------------------
 .byte   PATT
  .word Label_EDD0CA
@  #04 @119   ----------------------------------------
 .byte   PATT
  .word Label_EDD0CF
@  #04 @120   ----------------------------------------
 .byte   N92 ,Gs4 ,v127
 .byte   W96
@  #04 @121   ----------------------------------------
 .byte   Gn4
 .byte   W96
@  #04 @122   ----------------------------------------
 .byte   W96
@  #04 @123   ----------------------------------------
 .byte   W96
@  #04 @124   ----------------------------------------
 .byte   W96
@  #04 @125   ----------------------------------------
 .byte   W96
@  #04 @126   ----------------------------------------
 .byte   W96
@  #04 @127   ----------------------------------------
 .byte   W96
@  #04 @128   ----------------------------------------
 .byte   W96
@  #04 @129   ----------------------------------------
 .byte   W96
@  #04 @130   ----------------------------------------
 .byte   W96
@  #04 @131   ----------------------------------------
 .byte   W96
@  #04 @132   ----------------------------------------
 .byte   W96
@  #04 @133   ----------------------------------------
 .byte   W96
@  #04 @134   ----------------------------------------
 .byte   W96
@  #04 @135   ----------------------------------------
 .byte   W96
@  #04 @136   ----------------------------------------
 .byte   W96
@  #04 @137   ----------------------------------------
 .byte   W96
@  #04 @138   ----------------------------------------
 .byte   W96
@  #04 @139   ----------------------------------------
 .byte   W96
@  #04 @140   ----------------------------------------
 .byte   W96
@  #04 @141   ----------------------------------------
 .byte   W96
@  #04 @142   ----------------------------------------
 .byte   W96
@  #04 @143   ----------------------------------------
 .byte   W96
@  #04 @144   ----------------------------------------
 .byte   W96
@  #04 @145   ----------------------------------------
 .byte   W96
@  #04 @146   ----------------------------------------
 .byte   W96
@  #04 @147   ----------------------------------------
 .byte   W96
@  #04 @148   ----------------------------------------
 .byte   W96
@  #04 @149   ----------------------------------------
 .byte   W96
@  #04 @150   ----------------------------------------
 .byte   W96
@  #04 @151   ----------------------------------------
 .byte   W96
@  #04 @152   ----------------------------------------
 .byte   W96
@  #04 @153   ----------------------------------------
 .byte   W96
@  #04 @154   ----------------------------------------
 .byte   GOTO
  .word Label_EDD00A
 .byte   FINE

@**************** Track 5 (Midi-Chn.4) ****************@

song09_005:
@  #05 @000   ----------------------------------------
 .byte   KEYSH , song09_key+0
 .byte   VOICE , 104
 .byte   VOL , 43*song09_mvl/mxv
 .byte   PAN , c_v+0
 .byte   VOL , 43*song09_mvl/mxv
 .byte   PAN , c_v+0
 .byte   VOL , 43*song09_mvl/mxv
 .byte   PAN , c_v+0
 .byte   W96
@  #05 @001   ----------------------------------------
 .byte   W96
@  #05 @002   ----------------------------------------
 .byte   W96
@  #05 @003   ----------------------------------------
 .byte   W96
@  #05 @004   ----------------------------------------
 .byte   W96
@  #05 @005   ----------------------------------------
 .byte   W96
@  #05 @006   ----------------------------------------
 .byte   W96
@  #05 @007   ----------------------------------------
 .byte   W96
@  #05 @008   ----------------------------------------
Label_EDD13C:
 .byte   N15 ,Fn4 ,v127
 .byte   W16
 .byte   Cn4
 .byte   W16
 .byte   Fn3
 .byte   W16
 .byte   Gn4
 .byte   W16
 .byte   Dn4
 .byte   W16
 .byte   Gn3
 .byte   W16
 .byte   PEND 
@  #05 @009   ----------------------------------------
Label_EDD14B:
 .byte   N15 ,As4 ,v127
 .byte   W16
 .byte   Fn4
 .byte   W16
 .byte   As3
 .byte   W16
 .byte   Cn5
 .byte   W16
 .byte   Gn4
 .byte   W16
 .byte   Cn4
 .byte   W16
 .byte   PEND 
@  #05 @010   ----------------------------------------
 .byte   W96
@  #05 @011   ----------------------------------------
 .byte   W96
@  #05 @012   ----------------------------------------
 .byte   W96
@  #05 @013   ----------------------------------------
 .byte   W96
@  #05 @014   ----------------------------------------
 .byte   W96
@  #05 @015   ----------------------------------------
 .byte   W96
@  #05 @016   ----------------------------------------
 .byte   W96
@  #05 @017   ----------------------------------------
 .byte   W96
@  #05 @018   ----------------------------------------
 .byte   W96
@  #05 @019   ----------------------------------------
 .byte   W96
@  #05 @020   ----------------------------------------
 .byte   W96
@  #05 @021   ----------------------------------------
 .byte   W96
@  #05 @022   ----------------------------------------
 .byte   W96
@  #05 @023   ----------------------------------------
 .byte   W96
@  #05 @024   ----------------------------------------
 .byte   PATT
  .word Label_EDD13C
@  #05 @025   ----------------------------------------
 .byte   PATT
  .word Label_EDD14B
@  #05 @026   ----------------------------------------
 .byte   W96
@  #05 @027   ----------------------------------------
 .byte   W96
@  #05 @028   ----------------------------------------
 .byte   W96
@  #05 @029   ----------------------------------------
 .byte   W96
@  #05 @030   ----------------------------------------
 .byte   W96
@  #05 @031   ----------------------------------------
 .byte   W96
@  #05 @032   ----------------------------------------
 .byte   W96
@  #05 @033   ----------------------------------------
 .byte   W96
@  #05 @034   ----------------------------------------
Label_EDD17A:
 .byte   W96
@  #05 @035   ----------------------------------------
 .byte   W96
@  #05 @036   ----------------------------------------
 .byte   W96
@  #05 @037   ----------------------------------------
 .byte   W96
@  #05 @038   ----------------------------------------
 .byte   W96
@  #05 @039   ----------------------------------------
 .byte   W96
@  #05 @040   ----------------------------------------
 .byte   W96
@  #05 @041   ----------------------------------------
 .byte   W96
@  #05 @042   ----------------------------------------
 .byte   W96
@  #05 @043   ----------------------------------------
 .byte   W96
@  #05 @044   ----------------------------------------
 .byte   W96
@  #05 @045   ----------------------------------------
 .byte   W96
@  #05 @046   ----------------------------------------
 .byte   W96
@  #05 @047   ----------------------------------------
 .byte   W96
@  #05 @048   ----------------------------------------
 .byte   W96
@  #05 @049   ----------------------------------------
 .byte   W96
@  #05 @050   ----------------------------------------
 .byte   W96
@  #05 @051   ----------------------------------------
 .byte   W96
@  #05 @052   ----------------------------------------
 .byte   W96
@  #05 @053   ----------------------------------------
 .byte   W96
@  #05 @054   ----------------------------------------
 .byte   W96
@  #05 @055   ----------------------------------------
 .byte   W96
@  #05 @056   ----------------------------------------
 .byte   W96
@  #05 @057   ----------------------------------------
 .byte   W96
@  #05 @058   ----------------------------------------
 .byte   W96
@  #05 @059   ----------------------------------------
 .byte   W96
@  #05 @060   ----------------------------------------
 .byte   W96
@  #05 @061   ----------------------------------------
 .byte   W96
@  #05 @062   ----------------------------------------
 .byte   W96
@  #05 @063   ----------------------------------------
 .byte   W96
@  #05 @064   ----------------------------------------
 .byte   W96
@  #05 @065   ----------------------------------------
 .byte   W96
@  #05 @066   ----------------------------------------
 .byte   W96
@  #05 @067   ----------------------------------------
 .byte   W96
@  #05 @068   ----------------------------------------
 .byte   W96
@  #05 @069   ----------------------------------------
 .byte   W96
@  #05 @070   ----------------------------------------
 .byte   W96
@  #05 @071   ----------------------------------------
 .byte   W96
@  #05 @072   ----------------------------------------
 .byte   W96
@  #05 @073   ----------------------------------------
 .byte   W96
@  #05 @074   ----------------------------------------
 .byte   W96
@  #05 @075   ----------------------------------------
 .byte   W96
@  #05 @076   ----------------------------------------
 .byte   W96
@  #05 @077   ----------------------------------------
 .byte   W96
@  #05 @078   ----------------------------------------
 .byte   W96
@  #05 @079   ----------------------------------------
 .byte   W96
@  #05 @080   ----------------------------------------
 .byte   W96
@  #05 @081   ----------------------------------------
 .byte   W96
@  #05 @082   ----------------------------------------
 .byte   W96
@  #05 @083   ----------------------------------------
 .byte   W96
@  #05 @084   ----------------------------------------
 .byte   W96
@  #05 @085   ----------------------------------------
 .byte   W96
@  #05 @086   ----------------------------------------
 .byte   W96
@  #05 @087   ----------------------------------------
 .byte   W96
@  #05 @088   ----------------------------------------
 .byte   W96
@  #05 @089   ----------------------------------------
 .byte   W96
@  #05 @090   ----------------------------------------
 .byte   W96
@  #05 @091   ----------------------------------------
 .byte   W96
@  #05 @092   ----------------------------------------
 .byte   W96
@  #05 @093   ----------------------------------------
 .byte   W96
@  #05 @094   ----------------------------------------
 .byte   W96
@  #05 @095   ----------------------------------------
 .byte   W96
@  #05 @096   ----------------------------------------
 .byte   W96
@  #05 @097   ----------------------------------------
 .byte   W96
@  #05 @098   ----------------------------------------
 .byte   W96
@  #05 @099   ----------------------------------------
 .byte   W96
@  #05 @100   ----------------------------------------
 .byte   W96
@  #05 @101   ----------------------------------------
 .byte   W96
@  #05 @102   ----------------------------------------
 .byte   W96
@  #05 @103   ----------------------------------------
 .byte   W96
@  #05 @104   ----------------------------------------
 .byte   W96
@  #05 @105   ----------------------------------------
 .byte   W96
@  #05 @106   ----------------------------------------
 .byte   W96
@  #05 @107   ----------------------------------------
 .byte   W96
@  #05 @108   ----------------------------------------
 .byte   W96
@  #05 @109   ----------------------------------------
 .byte   W96
@  #05 @110   ----------------------------------------
 .byte   W96
@  #05 @111   ----------------------------------------
 .byte   W96
@  #05 @112   ----------------------------------------
 .byte   W96
@  #05 @113   ----------------------------------------
 .byte   W96
@  #05 @114   ----------------------------------------
 .byte   W96
@  #05 @115   ----------------------------------------
 .byte   W96
@  #05 @116   ----------------------------------------
 .byte   W96
@  #05 @117   ----------------------------------------
 .byte   W96
@  #05 @118   ----------------------------------------
 .byte   W96
@  #05 @119   ----------------------------------------
 .byte   W96
@  #05 @120   ----------------------------------------
 .byte   W96
@  #05 @121   ----------------------------------------
 .byte   W96
@  #05 @122   ----------------------------------------
 .byte   W96
@  #05 @123   ----------------------------------------
 .byte   W96
@  #05 @124   ----------------------------------------
 .byte   W96
@  #05 @125   ----------------------------------------
 .byte   W96
@  #05 @126   ----------------------------------------
 .byte   W96
@  #05 @127   ----------------------------------------
 .byte   W96
@  #05 @128   ----------------------------------------
 .byte   PATT
  .word Label_EDD13C
@  #05 @129   ----------------------------------------
 .byte   PATT
  .word Label_EDD14B
@  #05 @130   ----------------------------------------
 .byte   W96
@  #05 @131   ----------------------------------------
 .byte   W96
@  #05 @132   ----------------------------------------
 .byte   W96
@  #05 @133   ----------------------------------------
 .byte   W96
@  #05 @134   ----------------------------------------
 .byte   W96
@  #05 @135   ----------------------------------------
 .byte   W96
@  #05 @136   ----------------------------------------
 .byte   W96
@  #05 @137   ----------------------------------------
 .byte   W96
@  #05 @138   ----------------------------------------
 .byte   W96
@  #05 @139   ----------------------------------------
 .byte   W96
@  #05 @140   ----------------------------------------
 .byte   W96
@  #05 @141   ----------------------------------------
 .byte   W96
@  #05 @142   ----------------------------------------
 .byte   W96
@  #05 @143   ----------------------------------------
 .byte   W96
@  #05 @144   ----------------------------------------
 .byte   PATT
  .word Label_EDD13C
@  #05 @145   ----------------------------------------
 .byte   PATT
  .word Label_EDD14B
@  #05 @146   ----------------------------------------
 .byte   W96
@  #05 @147   ----------------------------------------
 .byte   W96
@  #05 @148   ----------------------------------------
 .byte   W96
@  #05 @149   ----------------------------------------
 .byte   W96
@  #05 @150   ----------------------------------------
 .byte   W96
@  #05 @151   ----------------------------------------
 .byte   W96
@  #05 @152   ----------------------------------------
 .byte   W96
@  #05 @153   ----------------------------------------
 .byte   W96
@  #05 @154   ----------------------------------------
 .byte   GOTO
  .word Label_EDD17A
 .byte   FINE

@**************** Track 6 (Midi-Chn.5) ****************@

song09_006:
@  #06 @000   ----------------------------------------
 .byte   KEYSH , song09_key+0
 .byte   VOICE , 28
 .byte   VOL , 43*song09_mvl/mxv
 .byte   PAN , c_v+0
 .byte   VOL , 43*song09_mvl/mxv
 .byte   PAN , c_v+0
 .byte   W96
@  #06 @001   ----------------------------------------
 .byte   W64
 .byte   N15 ,Ds1 ,v127
 .byte   W16
 .byte   N15
 .byte   W16
@  #06 @002   ----------------------------------------
Label_EDC804:
 .byte   N30 ,Fn1 ,v127
 .byte   W32
 .byte   N15
 .byte   W16
 .byte   N15
 .byte   W16
 .byte   N15
 .byte   W16
 .byte   N15
 .byte   W16
 .byte   PEND 
@  #06 @003   ----------------------------------------
 .byte   PATT
  .word Label_EDC804
@  #06 @004   ----------------------------------------
 .byte   PATT
  .word Label_EDC804
@  #06 @005   ----------------------------------------
Label_EDC81B:
 .byte   N30 ,Gs1 ,v127
 .byte   W32
 .byte   N15
 .byte   W16
 .byte   N15
 .byte   W16
 .byte   N15
 .byte   W16
 .byte   Gn1
 .byte   W16
 .byte   PEND 
@  #06 @006   ----------------------------------------
 .byte   PATT
  .word Label_EDC804
@  #06 @007   ----------------------------------------
 .byte   PATT
  .word Label_EDC804
@  #06 @008   ----------------------------------------
Label_EDC832:
 .byte   N30 ,Fn1 ,v127
 .byte   W32
 .byte   N15
 .byte   W16
 .byte   Gn1
 .byte   W16
 .byte   N15
 .byte   W16
 .byte   N15
 .byte   W16
 .byte   PEND 
@  #06 @009   ----------------------------------------
Label_EDC83F:
 .byte   N30 ,Gs1 ,v127
 .byte   W32
 .byte   N15
 .byte   W16
 .byte   As1
 .byte   W16
 .byte   N15
 .byte   W16
 .byte   N15
 .byte   W16
 .byte   PEND 
@  #06 @010   ----------------------------------------
 .byte   PATT
  .word Label_EDC804
@  #06 @011   ----------------------------------------
 .byte   PATT
  .word Label_EDC804
@  #06 @012   ----------------------------------------
 .byte   PATT
  .word Label_EDC804
@  #06 @013   ----------------------------------------
 .byte   PATT
  .word Label_EDC81B
@  #06 @014   ----------------------------------------
Label_EDC860:
 .byte   N30 ,As1 ,v127
 .byte   W32
 .byte   N15
 .byte   W16
 .byte   N15
 .byte   W16
 .byte   N15
 .byte   W16
 .byte   N15
 .byte   W16
 .byte   PEND 
@  #06 @015   ----------------------------------------
 .byte   PATT
  .word Label_EDC860
@  #06 @016   ----------------------------------------
Label_EDC872:
 .byte   N11 ,Bn1 ,v127
 .byte   W12
 .byte   N19
 .byte   W20
 .byte   N15
 .byte   W16
 .byte   Gn2
 .byte   W16
 .byte   N15
 .byte   W16
 .byte   N15
 .byte   W16
 .byte   PEND 
@  #06 @017   ----------------------------------------
Label_EDC881:
 .byte   N11 ,Dn2 ,v127
 .byte   W12
 .byte   N19
 .byte   W20
 .byte   N15
 .byte   W16
 .byte   Gn1
 .byte   W16
 .byte   N15
 .byte   W16
 .byte   N15
 .byte   W16
 .byte   PEND 
@  #06 @018   ----------------------------------------
Label_EDC890:
 .byte   N30 ,Fn1 ,v127
 .byte   W32
 .byte   N15
 .byte   W16
 .byte   N15
 .byte   W16
 .byte   N15
 .byte   W16
 .byte   N15
 .byte   W16
 .byte   PEND 
@  #06 @019   ----------------------------------------
 .byte   PATT
  .word Label_EDC890
@  #06 @020   ----------------------------------------
 .byte   PATT
  .word Label_EDC890
@  #06 @021   ----------------------------------------
Label_EDC8A7:
 .byte   N30 ,Gs1 ,v127
 .byte   W32
 .byte   N15
 .byte   W16
 .byte   N15
 .byte   W16
 .byte   N15
 .byte   W16
 .byte   Gn1
 .byte   W16
 .byte   PEND 
@  #06 @022   ----------------------------------------
 .byte   PATT
  .word Label_EDC890
@  #06 @023   ----------------------------------------
 .byte   PATT
  .word Label_EDC890
@  #06 @024   ----------------------------------------
 .byte   PATT
  .word Label_EDC832
@  #06 @025   ----------------------------------------
 .byte   PATT
  .word Label_EDC83F
@  #06 @026   ----------------------------------------
 .byte   PATT
  .word Label_EDC890
@  #06 @027   ----------------------------------------
 .byte   PATT
  .word Label_EDC890
@  #06 @028   ----------------------------------------
 .byte   PATT
  .word Label_EDC890
@  #06 @029   ----------------------------------------
 .byte   PATT
  .word Label_EDC8A7
@  #06 @030   ----------------------------------------
Label_EDC8DC:
 .byte   N30 ,As1 ,v127
 .byte   W32
 .byte   N15
 .byte   W16
 .byte   N15
 .byte   W16
 .byte   N15
 .byte   W16
 .byte   N15
 .byte   W16
 .byte   PEND 
@  #06 @031   ----------------------------------------
 .byte   PATT
  .word Label_EDC8DC
@  #06 @032   ----------------------------------------
Label_EDC8EE:
 .byte   N11 ,Bn1 ,v127
 .byte   W12
 .byte   N19
 .byte   W20
 .byte   N15
 .byte   W16
 .byte   Gn2
 .byte   W16
 .byte   N15
 .byte   W16
 .byte   N15
 .byte   W16
 .byte   PEND 
@  #06 @033   ----------------------------------------
Label_EDC8FD:
 .byte   N11 ,Dn2 ,v127
 .byte   W12
 .byte   N19
 .byte   W20
 .byte   N15
 .byte   W16
 .byte   Gn1
 .byte   W16
 .byte   N15
 .byte   W16
 .byte   N15
 .byte   W16
 .byte   PEND 
@  #06 @034   ----------------------------------------
Label_EDC90C:
 .byte   N30 ,Cn2 ,v127
 .byte   W32
 .byte   N15
 .byte   W16
 .byte   N15
 .byte   W16
 .byte   N15
 .byte   W16
 .byte   N15
 .byte   W16
 .byte   PEND 
@  #06 @035   ----------------------------------------
Label_EDC919:
 .byte   N30 ,Cn2 ,v127
 .byte   W32
 .byte   N15
 .byte   W16
 .byte   N15
 .byte   W16
 .byte   N15
 .byte   W16
 .byte   N15
 .byte   W16
 .byte   PEND 
@  #06 @036   ----------------------------------------
 .byte   PATT
  .word Label_EDC90C
@  #06 @037   ----------------------------------------
 .byte   PATT
  .word Label_EDC919
@  #06 @038   ----------------------------------------
Label_EDC930:
 .byte   N30 ,Gs1 ,v127
 .byte   W32
 .byte   N15
 .byte   W16
 .byte   N15
 .byte   W16
 .byte   N15
 .byte   W16
 .byte   N15
 .byte   W16
 .byte   PEND 
@  #06 @039   ----------------------------------------
 .byte   PATT
  .word Label_EDC930
@  #06 @040   ----------------------------------------
Label_EDC942:
 .byte   N30 ,Gn1 ,v127
 .byte   W32
 .byte   N15
 .byte   W16
 .byte   N15
 .byte   W16
 .byte   N15
 .byte   W16
 .byte   N15
 .byte   W16
 .byte   PEND 
@  #06 @041   ----------------------------------------
 .byte   PATT
  .word Label_EDC942
@  #06 @042   ----------------------------------------
 .byte   PATT
  .word Label_EDC90C
@  #06 @043   ----------------------------------------
 .byte   PATT
  .word Label_EDC919
@  #06 @044   ----------------------------------------
 .byte   PATT
  .word Label_EDC90C
@  #06 @045   ----------------------------------------
 .byte   PATT
  .word Label_EDC919
@  #06 @046   ----------------------------------------
 .byte   PATT
  .word Label_EDC930
@  #06 @047   ----------------------------------------
 .byte   PATT
  .word Label_EDC930
@  #06 @048   ----------------------------------------
 .byte   PATT
  .word Label_EDC942
@  #06 @049   ----------------------------------------
 .byte   PATT
  .word Label_EDC942
@  #06 @050   ----------------------------------------
 .byte   N23 ,Fs1 ,v127
 .byte   W32
 .byte   N36
 .byte   W16
 .byte   W48
@  #06 @051   ----------------------------------------
 .byte   W96
@  #06 @052   ----------------------------------------
Label_EDC984:
 .byte   N23 ,Fs1 ,v127
 .byte   W32
 .byte   N36
 .byte   W16
 .byte   W48
 .byte   PEND 
@  #06 @053   ----------------------------------------
 .byte   W96
@  #06 @054   ----------------------------------------
 .byte   PATT
  .word Label_EDC984
@  #06 @055   ----------------------------------------
 .byte   W96
@  #06 @056   ----------------------------------------
 .byte   N92 ,Fs1 ,v127
 .byte   W96
@  #06 @057   ----------------------------------------
 .byte   Gs1
 .byte   W96
@  #06 @058   ----------------------------------------
Label_EDC999:
 .byte   N30 ,Fn1 ,v127
 .byte   W32
 .byte   N15
 .byte   W16
 .byte   N15
 .byte   W16
 .byte   N15
 .byte   W16
 .byte   N15
 .byte   W16
 .byte   PEND 
@  #06 @059   ----------------------------------------
Label_EDC9A6:
 .byte   N30 ,Fn1 ,v127
 .byte   W32
 .byte   N15
 .byte   W16
 .byte   N15
 .byte   W16
 .byte   N15
 .byte   W16
 .byte   N15
 .byte   W16
 .byte   PEND 
@  #06 @060   ----------------------------------------
Label_EDC9B3:
 .byte   N30 ,Fn1 ,v127
 .byte   W32
 .byte   N15
 .byte   W16
 .byte   N15
 .byte   W16
 .byte   N15
 .byte   W16
 .byte   N15
 .byte   W16
 .byte   PEND 
@  #06 @061   ----------------------------------------
 .byte   PATT
  .word Label_EDC8A7
@  #06 @062   ----------------------------------------
 .byte   PATT
  .word Label_EDC999
@  #06 @063   ----------------------------------------
 .byte   PATT
  .word Label_EDC9A6
@  #06 @064   ----------------------------------------
 .byte   PATT
  .word Label_EDC9B3
@  #06 @065   ----------------------------------------
 .byte   PATT
  .word Label_EDC8A7
@  #06 @066   ----------------------------------------
 .byte   PATT
  .word Label_EDC999
@  #06 @067   ----------------------------------------
 .byte   PATT
  .word Label_EDC9A6
@  #06 @068   ----------------------------------------
 .byte   PATT
  .word Label_EDC9B3
@  #06 @069   ----------------------------------------
 .byte   PATT
  .word Label_EDC8A7
@  #06 @070   ----------------------------------------
 .byte   N30 ,As1 ,v127
 .byte   W32
 .byte   N15
 .byte   W16
 .byte   N15
 .byte   W16
 .byte   N15
 .byte   W16
 .byte   N15
 .byte   W16
@  #06 @071   ----------------------------------------
 .byte   N30
 .byte   W32
 .byte   N15
 .byte   W16
 .byte   N15
 .byte   W16
 .byte   N15
 .byte   W16
 .byte   N15
 .byte   W16
@  #06 @072   ----------------------------------------
 .byte   N11 ,Bn1
 .byte   W12
 .byte   N19
 .byte   W20
 .byte   N15
 .byte   W16
 .byte   Gn2
 .byte   W16
 .byte   N15
 .byte   W16
 .byte   N15
 .byte   W16
@  #06 @073   ----------------------------------------
 .byte   N11 ,Dn2
 .byte   W12
 .byte   N19
 .byte   W20
 .byte   N15
 .byte   W16
 .byte   Gn1
 .byte   W16
 .byte   N15
 .byte   W16
 .byte   N15
 .byte   W16
@  #06 @074   ----------------------------------------
 .byte   PATT
  .word Label_EDC890
@  #06 @075   ----------------------------------------
 .byte   PATT
  .word Label_EDC890
@  #06 @076   ----------------------------------------
 .byte   PATT
  .word Label_EDC890
@  #06 @077   ----------------------------------------
 .byte   PATT
  .word Label_EDC8A7
@  #06 @078   ----------------------------------------
 .byte   PATT
  .word Label_EDC890
@  #06 @079   ----------------------------------------
 .byte   PATT
  .word Label_EDC890
@  #06 @080   ----------------------------------------
 .byte   PATT
  .word Label_EDC890
@  #06 @081   ----------------------------------------
 .byte   PATT
  .word Label_EDC8A7
@  #06 @082   ----------------------------------------
 .byte   PATT
  .word Label_EDC890
@  #06 @083   ----------------------------------------
 .byte   PATT
  .word Label_EDC890
@  #06 @084   ----------------------------------------
 .byte   PATT
  .word Label_EDC890
@  #06 @085   ----------------------------------------
 .byte   PATT
  .word Label_EDC8A7
@  #06 @086   ----------------------------------------
 .byte   PATT
  .word Label_EDC8DC
@  #06 @087   ----------------------------------------
 .byte   PATT
  .word Label_EDC8DC
@  #06 @088   ----------------------------------------
Label_EDCA63:
 .byte   N30 ,Bn1 ,v127
 .byte   W32
 .byte   N15
 .byte   W16
 .byte   N15
 .byte   W16
 .byte   N15
 .byte   W16
 .byte   N15
 .byte   W16
 .byte   PEND 
@  #06 @089   ----------------------------------------
 .byte   PATT
  .word Label_EDCA63
@  #06 @090   ----------------------------------------
 .byte   PATT
  .word Label_EDC919
@  #06 @091   ----------------------------------------
 .byte   PATT
  .word Label_EDC919
@  #06 @092   ----------------------------------------
 .byte   PATT
  .word Label_EDC919
@  #06 @093   ----------------------------------------
 .byte   PATT
  .word Label_EDC919
@  #06 @094   ----------------------------------------
Label_EDCA89:
 .byte   N30 ,Gs1 ,v127
 .byte   W32
 .byte   N15
 .byte   W16
 .byte   N15
 .byte   W16
 .byte   N15
 .byte   W16
 .byte   N15
 .byte   W16
 .byte   PEND 
@  #06 @095   ----------------------------------------
 .byte   PATT
  .word Label_EDCA89
@  #06 @096   ----------------------------------------
Label_EDCA9B:
 .byte   N30 ,Gn1 ,v127
 .byte   W32
 .byte   N15
 .byte   W16
 .byte   N15
 .byte   W16
 .byte   N15
 .byte   W16
 .byte   N15
 .byte   W16
 .byte   PEND 
@  #06 @097   ----------------------------------------
 .byte   PATT
  .word Label_EDCA9B
@  #06 @098   ----------------------------------------
 .byte   PATT
  .word Label_EDC919
@  #06 @099   ----------------------------------------
 .byte   PATT
  .word Label_EDC919
@  #06 @100   ----------------------------------------
 .byte   PATT
  .word Label_EDC919
@  #06 @101   ----------------------------------------
 .byte   PATT
  .word Label_EDC919
@  #06 @102   ----------------------------------------
 .byte   PATT
  .word Label_EDCA89
@  #06 @103   ----------------------------------------
 .byte   PATT
  .word Label_EDCA89
@  #06 @104   ----------------------------------------
 .byte   N30 ,Gn1 ,v127
 .byte   W32
 .byte   N36
 .byte   W16
 .byte   W48
@  #06 @105   ----------------------------------------
 .byte   N23
 .byte   W48
 .byte   N23
 .byte   W48
@  #06 @106   ----------------------------------------
 .byte   PATT
  .word Label_EDC919
@  #06 @107   ----------------------------------------
 .byte   PATT
  .word Label_EDC919
@  #06 @108   ----------------------------------------
 .byte   PATT
  .word Label_EDC919
@  #06 @109   ----------------------------------------
 .byte   PATT
  .word Label_EDC919
@  #06 @110   ----------------------------------------
 .byte   PATT
  .word Label_EDCA89
@  #06 @111   ----------------------------------------
 .byte   PATT
  .word Label_EDCA89
@  #06 @112   ----------------------------------------
 .byte   PATT
  .word Label_EDCA9B
@  #06 @113   ----------------------------------------
 .byte   PATT
  .word Label_EDCA9B
@  #06 @114   ----------------------------------------
 .byte   PATT
  .word Label_EDC919
@  #06 @115   ----------------------------------------
 .byte   PATT
  .word Label_EDC919
@  #06 @116   ----------------------------------------
 .byte   PATT
  .word Label_EDC919
@  #06 @117   ----------------------------------------
 .byte   PATT
  .word Label_EDC919
@  #06 @118   ----------------------------------------
 .byte   PATT
  .word Label_EDCA89
@  #06 @119   ----------------------------------------
 .byte   PATT
  .word Label_EDCA89
@  #06 @120   ----------------------------------------
 .byte   PATT
  .word Label_EDCA9B
@  #06 @121   ----------------------------------------
 .byte   PATT
  .word Label_EDC942
@  #06 @122   ----------------------------------------
 .byte   PATT
  .word Label_EDC804
@  #06 @123   ----------------------------------------
 .byte   PATT
  .word Label_EDC804
@  #06 @124   ----------------------------------------
 .byte   PATT
  .word Label_EDC804
@  #06 @125   ----------------------------------------
 .byte   PATT
  .word Label_EDC81B
@  #06 @126   ----------------------------------------
 .byte   PATT
  .word Label_EDC804
@  #06 @127   ----------------------------------------
 .byte   PATT
  .word Label_EDC804
@  #06 @128   ----------------------------------------
 .byte   PATT
  .word Label_EDC832
@  #06 @129   ----------------------------------------
 .byte   PATT
  .word Label_EDC83F
@  #06 @130   ----------------------------------------
 .byte   PATT
  .word Label_EDC804
@  #06 @131   ----------------------------------------
 .byte   PATT
  .word Label_EDC804
@  #06 @132   ----------------------------------------
 .byte   PATT
  .word Label_EDC804
@  #06 @133   ----------------------------------------
 .byte   PATT
  .word Label_EDC81B
@  #06 @134   ----------------------------------------
 .byte   PATT
  .word Label_EDC860
@  #06 @135   ----------------------------------------
 .byte   PATT
  .word Label_EDC860
@  #06 @136   ----------------------------------------
 .byte   PATT
  .word Label_EDC872
@  #06 @137   ----------------------------------------
 .byte   PATT
  .word Label_EDC881
@  #06 @138   ----------------------------------------
 .byte   PATT
  .word Label_EDC890
@  #06 @139   ----------------------------------------
 .byte   PATT
  .word Label_EDC890
@  #06 @140   ----------------------------------------
 .byte   PATT
  .word Label_EDC890
@  #06 @141   ----------------------------------------
 .byte   PATT
  .word Label_EDC8A7
@  #06 @142   ----------------------------------------
 .byte   PATT
  .word Label_EDC890
@  #06 @143   ----------------------------------------
 .byte   PATT
  .word Label_EDC890
@  #06 @144   ----------------------------------------
 .byte   PATT
  .word Label_EDC832
@  #06 @145   ----------------------------------------
 .byte   PATT
  .word Label_EDC83F
@  #06 @146   ----------------------------------------
 .byte   PATT
  .word Label_EDC890
@  #06 @147   ----------------------------------------
 .byte   PATT
  .word Label_EDC890
@  #06 @148   ----------------------------------------
 .byte   PATT
  .word Label_EDC890
@  #06 @149   ----------------------------------------
 .byte   PATT
  .word Label_EDC8A7
@  #06 @150   ----------------------------------------
 .byte   PATT
  .word Label_EDC8DC
@  #06 @151   ----------------------------------------
 .byte   PATT
  .word Label_EDC8DC
@  #06 @152   ----------------------------------------
 .byte   PATT
  .word Label_EDC8EE
@  #06 @153   ----------------------------------------
 .byte   PATT
  .word Label_EDC8FD
@  #06 @154   ----------------------------------------
 .byte   GOTO
  .word Label_EDC90C
 .byte   FINE

@**************** Track 7 (Midi-Chn.6) ****************@

song09_007:
@  #07 @000   ----------------------------------------
 .byte   KEYSH , song09_key+0
 .byte   VOICE , 81
 .byte   VOL , 43*song09_mvl/mxv
 .byte   PAN , c_v+0
 .byte   VOL , 43*song09_mvl/mxv
 .byte   PAN , c_v+0
 .byte   W96
@  #07 @001   ----------------------------------------
 .byte   W96
@  #07 @002   ----------------------------------------
 .byte   W96
@  #07 @003   ----------------------------------------
 .byte   W96
@  #07 @004   ----------------------------------------
 .byte   W96
@  #07 @005   ----------------------------------------
 .byte   W96
@  #07 @006   ----------------------------------------
 .byte   W96
@  #07 @007   ----------------------------------------
 .byte   W96
@  #07 @008   ----------------------------------------
 .byte   W96
@  #07 @009   ----------------------------------------
 .byte   W96
@  #07 @010   ----------------------------------------
 .byte   W96
@  #07 @011   ----------------------------------------
 .byte   W96
@  #07 @012   ----------------------------------------
 .byte   W96
@  #07 @013   ----------------------------------------
 .byte   W96
@  #07 @014   ----------------------------------------
 .byte   W96
@  #07 @015   ----------------------------------------
 .byte   W96
@  #07 @016   ----------------------------------------
 .byte   W96
@  #07 @017   ----------------------------------------
 .byte   W96
@  #07 @018   ----------------------------------------
Label_010588CE:
 .byte   N30 ,Cn5 ,v127
 .byte   W32
 .byte   Cn6
 .byte   W32
 .byte   Gn5
 .byte   W32
 .byte   PEND 
@  #07 @019   ----------------------------------------
Label_010588D7:
 .byte   N30 ,As5 ,v127
 .byte   W32
 .byte   Fn5
 .byte   W32
 .byte   Ds5
 .byte   W32
 .byte   PEND 
@  #07 @020   ----------------------------------------
 .byte   PATT
  .word Label_010588CE
@  #07 @021   ----------------------------------------
 .byte   PATT
  .word Label_010588D7
@  #07 @022   ----------------------------------------
 .byte   PATT
  .word Label_010588CE
@  #07 @023   ----------------------------------------
 .byte   PATT
  .word Label_010588D7
@  #07 @024   ----------------------------------------
 .byte   W96
@  #07 @025   ----------------------------------------
 .byte   W96
@  #07 @026   ----------------------------------------
 .byte   PATT
  .word Label_010588CE
@  #07 @027   ----------------------------------------
 .byte   PATT
  .word Label_010588D7
@  #07 @028   ----------------------------------------
 .byte   PATT
  .word Label_010588CE
@  #07 @029   ----------------------------------------
 .byte   PATT
  .word Label_010588D7
@  #07 @030   ----------------------------------------
 .byte   PATT
  .word Label_010588CE
@  #07 @031   ----------------------------------------
 .byte   PATT
  .word Label_010588D7
@  #07 @032   ----------------------------------------
Label_01058914:
 .byte   N30 ,Dn5 ,v127
 .byte   W32
 .byte   Bn5
 .byte   W32
 .byte   Gs5
 .byte   W32
 .byte   PEND 
@  #07 @033   ----------------------------------------
Label_0105891D:
 .byte   N30 ,Dn5 ,v127
 .byte   W32
 .byte   Gn5
 .byte   W32
 .byte   Gs5
 .byte   W32
 .byte   PEND 
@  #07 @034   ----------------------------------------
Label_01058926:
 .byte   W96
@  #07 @035   ----------------------------------------
 .byte   W96
@  #07 @036   ----------------------------------------
 .byte   W96
@  #07 @037   ----------------------------------------
 .byte   W96
@  #07 @038   ----------------------------------------
 .byte   W96
@  #07 @039   ----------------------------------------
 .byte   W96
@  #07 @040   ----------------------------------------
 .byte   W96
@  #07 @041   ----------------------------------------
 .byte   W96
@  #07 @042   ----------------------------------------
 .byte   W96
@  #07 @043   ----------------------------------------
 .byte   W96
@  #07 @044   ----------------------------------------
 .byte   W96
@  #07 @045   ----------------------------------------
 .byte   W96
@  #07 @046   ----------------------------------------
 .byte   W96
@  #07 @047   ----------------------------------------
 .byte   W96
@  #07 @048   ----------------------------------------
 .byte   W96
@  #07 @049   ----------------------------------------
 .byte   W96
@  #07 @050   ----------------------------------------
 .byte   W96
@  #07 @051   ----------------------------------------
 .byte   W96
@  #07 @052   ----------------------------------------
 .byte   W96
@  #07 @053   ----------------------------------------
 .byte   W96
@  #07 @054   ----------------------------------------
 .byte   W96
@  #07 @055   ----------------------------------------
 .byte   W96
@  #07 @056   ----------------------------------------
 .byte   W96
@  #07 @057   ----------------------------------------
 .byte   W96
@  #07 @058   ----------------------------------------
Label_0105893E:
 .byte   N23 ,Fn5 ,v127
 .byte   W96
 .byte   PEND 
@  #07 @059   ----------------------------------------
Label_01058943:
 .byte   N23 ,Cn6 ,v127
 .byte   W96
 .byte   PEND 
@  #07 @060   ----------------------------------------
Label_01058948:
 .byte   N23 ,Bn5 ,v127
 .byte   W96
 .byte   PEND 
@  #07 @061   ----------------------------------------
Label_0105894D:
 .byte   N23 ,Gs5 ,v127
 .byte   W96
 .byte   PEND 
@  #07 @062   ----------------------------------------
 .byte   PATT
  .word Label_0105893E
@  #07 @063   ----------------------------------------
 .byte   PATT
  .word Label_01058943
@  #07 @064   ----------------------------------------
 .byte   PATT
  .word Label_01058948
@  #07 @065   ----------------------------------------
 .byte   PATT
  .word Label_0105894D
@  #07 @066   ----------------------------------------
 .byte   PATT
  .word Label_0105893E
@  #07 @067   ----------------------------------------
 .byte   PATT
  .word Label_01058943
@  #07 @068   ----------------------------------------
 .byte   PATT
  .word Label_01058948
@  #07 @069   ----------------------------------------
 .byte   PATT
  .word Label_0105894D
@  #07 @070   ----------------------------------------
 .byte   PATT
  .word Label_0105893E
@  #07 @071   ----------------------------------------
 .byte   PATT
  .word Label_01058943
@  #07 @072   ----------------------------------------
 .byte   PATT
  .word Label_01058948
@  #07 @073   ----------------------------------------
 .byte   PATT
  .word Label_0105894D
@  #07 @074   ----------------------------------------
 .byte   PATT
  .word Label_0105893E
@  #07 @075   ----------------------------------------
 .byte   PATT
  .word Label_01058943
@  #07 @076   ----------------------------------------
 .byte   PATT
  .word Label_01058948
@  #07 @077   ----------------------------------------
 .byte   PATT
  .word Label_0105894D
@  #07 @078   ----------------------------------------
 .byte   PATT
  .word Label_0105893E
@  #07 @079   ----------------------------------------
 .byte   PATT
  .word Label_01058943
@  #07 @080   ----------------------------------------
 .byte   PATT
  .word Label_01058948
@  #07 @081   ----------------------------------------
 .byte   PATT
  .word Label_0105894D
@  #07 @082   ----------------------------------------
 .byte   PATT
  .word Label_0105893E
@  #07 @083   ----------------------------------------
 .byte   PATT
  .word Label_01058943
@  #07 @084   ----------------------------------------
 .byte   PATT
  .word Label_01058948
@  #07 @085   ----------------------------------------
 .byte   PATT
  .word Label_0105894D
@  #07 @086   ----------------------------------------
 .byte   PATT
  .word Label_0105893E
@  #07 @087   ----------------------------------------
 .byte   PATT
  .word Label_01058943
@  #07 @088   ----------------------------------------
 .byte   PATT
  .word Label_01058948
@  #07 @089   ----------------------------------------
 .byte   PATT
  .word Label_0105894D
@  #07 @090   ----------------------------------------
 .byte   W96
@  #07 @091   ----------------------------------------
 .byte   W96
@  #07 @092   ----------------------------------------
 .byte   W96
@  #07 @093   ----------------------------------------
 .byte   W96
@  #07 @094   ----------------------------------------
 .byte   W96
@  #07 @095   ----------------------------------------
 .byte   W96
@  #07 @096   ----------------------------------------
 .byte   W96
@  #07 @097   ----------------------------------------
 .byte   W96
@  #07 @098   ----------------------------------------
 .byte   W96
@  #07 @099   ----------------------------------------
 .byte   W96
@  #07 @100   ----------------------------------------
 .byte   W96
@  #07 @101   ----------------------------------------
 .byte   W96
@  #07 @102   ----------------------------------------
 .byte   W96
@  #07 @103   ----------------------------------------
 .byte   W96
@  #07 @104   ----------------------------------------
 .byte   W96
@  #07 @105   ----------------------------------------
 .byte   W96
@  #07 @106   ----------------------------------------
 .byte   W96
@  #07 @107   ----------------------------------------
 .byte   W96
@  #07 @108   ----------------------------------------
 .byte   W96
@  #07 @109   ----------------------------------------
 .byte   W96
@  #07 @110   ----------------------------------------
 .byte   W96
@  #07 @111   ----------------------------------------
 .byte   W96
@  #07 @112   ----------------------------------------
 .byte   W96
@  #07 @113   ----------------------------------------
 .byte   W96
@  #07 @114   ----------------------------------------
 .byte   W96
@  #07 @115   ----------------------------------------
 .byte   W96
@  #07 @116   ----------------------------------------
 .byte   W96
@  #07 @117   ----------------------------------------
 .byte   W96
@  #07 @118   ----------------------------------------
 .byte   W96
@  #07 @119   ----------------------------------------
 .byte   W96
@  #07 @120   ----------------------------------------
 .byte   W96
@  #07 @121   ----------------------------------------
 .byte   W96
@  #07 @122   ----------------------------------------
 .byte   W96
@  #07 @123   ----------------------------------------
 .byte   W96
@  #07 @124   ----------------------------------------
 .byte   W96
@  #07 @125   ----------------------------------------
 .byte   W96
@  #07 @126   ----------------------------------------
 .byte   W96
@  #07 @127   ----------------------------------------
 .byte   W96
@  #07 @128   ----------------------------------------
 .byte   W96
@  #07 @129   ----------------------------------------
 .byte   W96
@  #07 @130   ----------------------------------------
 .byte   W96
@  #07 @131   ----------------------------------------
 .byte   W96
@  #07 @132   ----------------------------------------
 .byte   W96
@  #07 @133   ----------------------------------------
 .byte   W96
@  #07 @134   ----------------------------------------
 .byte   W96
@  #07 @135   ----------------------------------------
 .byte   W96
@  #07 @136   ----------------------------------------
 .byte   W96
@  #07 @137   ----------------------------------------
 .byte   W96
@  #07 @138   ----------------------------------------
 .byte   PATT
  .word Label_010588CE
@  #07 @139   ----------------------------------------
 .byte   PATT
  .word Label_010588D7
@  #07 @140   ----------------------------------------
 .byte   PATT
  .word Label_010588CE
@  #07 @141   ----------------------------------------
 .byte   PATT
  .word Label_010588D7
@  #07 @142   ----------------------------------------
 .byte   PATT
  .word Label_010588CE
@  #07 @143   ----------------------------------------
 .byte   PATT
  .word Label_010588D7
@  #07 @144   ----------------------------------------
 .byte   W96
@  #07 @145   ----------------------------------------
 .byte   W96
@  #07 @146   ----------------------------------------
 .byte   PATT
  .word Label_010588CE
@  #07 @147   ----------------------------------------
 .byte   PATT
  .word Label_010588D7
@  #07 @148   ----------------------------------------
 .byte   PATT
  .word Label_010588CE
@  #07 @149   ----------------------------------------
 .byte   PATT
  .word Label_010588D7
@  #07 @150   ----------------------------------------
 .byte   PATT
  .word Label_010588CE
@  #07 @151   ----------------------------------------
 .byte   PATT
  .word Label_010588D7
@  #07 @152   ----------------------------------------
 .byte   PATT
  .word Label_01058914
@  #07 @153   ----------------------------------------
 .byte   PATT
  .word Label_0105891D
@  #07 @154   ----------------------------------------
 .byte   GOTO
  .word Label_01058926
 .byte   FINE

@**************** Track 8 (Midi-Chn.7) ****************@

song09_008:
@  #08 @000   ----------------------------------------
 .byte   KEYSH , song09_key+0
 .byte   VOICE , 124
 .byte   VOL , 43*song09_mvl/mxv
 .byte   PAN , c_v+0
 .byte   VOL , 43*song09_mvl/mxv
 .byte   PAN , c_v+0
 .byte   VOL , 43*song09_mvl/mxv
 .byte   PAN , c_v+0
 .byte   VOL , 43*song09_mvl/mxv
 .byte   PAN , c_v+0
 .byte   VOL , 43*song09_mvl/mxv
 .byte   PAN , c_v+0
 .byte   VOL , 43*song09_mvl/mxv
 .byte   PAN , c_v+0
 .byte   N15 ,An1 ,v127
 .byte   W16
 .byte   An1 ,v064
 .byte   W16
 .byte   An1 ,v032
 .byte   W16
 .byte   Dn1 ,v064
 .byte   N15 ,An1 ,v032
 .byte   W16
 .byte   Dn1 ,v072
 .byte   N15 ,An1 ,v032
 .byte   W16
 .byte   Dn1 ,v080
 .byte   N15 ,An1 ,v032
 .byte   W16
@  #08 @001   ----------------------------------------
 .byte   Dn1 ,v088
 .byte   N23 ,An1 ,v127
 .byte   W16
 .byte   N15 ,Dn1 ,v096
 .byte   W14
 .byte   N17 ,An1 ,v127
 .byte   W02
 .byte   N15 ,Dn1 ,v104
 .byte   W16
 .byte   Dn1 ,v112
 .byte   W12
 .byte   N11 ,An1 ,v127
 .byte   W04
 .byte   N15 ,Dn1 ,v120
 .byte   W14
 .byte   N17 ,An1 ,v127
 .byte   W02
 .byte   N15 ,Dn1
 .byte   W16
@  #08 @002   ----------------------------------------
Label_01058AB8:
 .byte   N23 ,Dn1 ,v127
 .byte   N15 ,Fs1 ,v032
 .byte   N23 ,Gs1 ,v127
 .byte   N23 ,Cs2
 .byte   W16
 .byte   N15 ,Fs1 ,v032
 .byte   W16
 .byte   N15
 .byte   W16
 .byte   N23 ,Dn1 ,v127
 .byte   N15 ,Fs1 ,v048
 .byte   N23 ,Gs1 ,v127
 .byte   W16
 .byte   N15 ,Fs1 ,v048
 .byte   W16
 .byte   N15
 .byte   W16
 .byte   PEND 
@  #08 @003   ----------------------------------------
Label_01058ADB:
 .byte   N23 ,Dn1 ,v127
 .byte   N15 ,Fs1 ,v064
 .byte   N23 ,Gs1 ,v127
 .byte   W16
 .byte   N15 ,Fs1 ,v064
 .byte   W16
 .byte   N15
 .byte   W16
 .byte   N23 ,Dn1 ,v127
 .byte   N15 ,Fs1 ,v080
 .byte   N23 ,Gs1 ,v127
 .byte   W16
 .byte   N15 ,Fs1 ,v080
 .byte   W16
 .byte   N15
 .byte   W16
 .byte   PEND 
@  #08 @004   ----------------------------------------
Label_01058AFC:
 .byte   N23 ,Dn1 ,v127
 .byte   N15 ,Fs1 ,v096
 .byte   N23 ,Gs1 ,v127
 .byte   W16
 .byte   N15 ,Fs1 ,v096
 .byte   W16
 .byte   N15
 .byte   W16
 .byte   N23 ,Dn1 ,v127
 .byte   N15 ,Fs1 ,v112
 .byte   N23 ,Gs1 ,v127
 .byte   W16
 .byte   N15 ,Fs1 ,v112
 .byte   W16
 .byte   N15
 .byte   W16
 .byte   PEND 
@  #08 @005   ----------------------------------------
Label_01058B1D:
 .byte   N23 ,Dn1 ,v127
 .byte   N15 ,Fs1
 .byte   N23 ,Gs1
 .byte   W16
 .byte   N15 ,Fs1
 .byte   W16
 .byte   N15
 .byte   W16
 .byte   N23 ,Dn1
 .byte   N15 ,Fs1
 .byte   N23 ,Gs1
 .byte   W16
 .byte   N15 ,Fs1
 .byte   W16
 .byte   N15
 .byte   W16
 .byte   PEND 
@  #08 @006   ----------------------------------------
 .byte   PATT
  .word Label_01058AB8
@  #08 @007   ----------------------------------------
 .byte   PATT
  .word Label_01058ADB
@  #08 @008   ----------------------------------------
 .byte   PATT
  .word Label_01058AFC
@  #08 @009   ----------------------------------------
 .byte   PATT
  .word Label_01058B1D
@  #08 @010   ----------------------------------------
Label_01058B4B:
 .byte   N23 ,Dn1 ,v127
 .byte   N15 ,Fs1 ,v032
 .byte   N23 ,Gs1 ,v127
 .byte   W16
 .byte   N15 ,Fs1 ,v032
 .byte   W16
 .byte   N15
 .byte   W16
 .byte   N23 ,Dn1 ,v127
 .byte   N15 ,Fs1 ,v048
 .byte   N23 ,Gs1 ,v127
 .byte   W16
 .byte   N15 ,Fs1 ,v048
 .byte   W16
 .byte   N15
 .byte   W16
 .byte   PEND 
@  #08 @011   ----------------------------------------
 .byte   PATT
  .word Label_01058ADB
@  #08 @012   ----------------------------------------
 .byte   PATT
  .word Label_01058AFC
@  #08 @013   ----------------------------------------
 .byte   PATT
  .word Label_01058B1D
@  #08 @014   ----------------------------------------
 .byte   PATT
  .word Label_01058B4B
@  #08 @015   ----------------------------------------
 .byte   PATT
  .word Label_01058ADB
@  #08 @016   ----------------------------------------
 .byte   PATT
  .word Label_01058AFC
@  #08 @017   ----------------------------------------
Label_01058B8A:
 .byte   N15 ,Dn1 ,v127
 .byte   N15 ,Fs1
 .byte   N23 ,Gs1
 .byte   W16
 .byte   N15 ,Fs1
 .byte   W16
 .byte   Dn1
 .byte   N15 ,Fs1
 .byte   W16
 .byte   Dn1
 .byte   N15 ,Fs1
 .byte   N23 ,Gs1
 .byte   W16
 .byte   N15 ,Fs1
 .byte   W16
 .byte   Dn1
 .byte   N15 ,Fs1
 .byte   W16
 .byte   PEND 
@  #08 @018   ----------------------------------------
 .byte   PATT
  .word Label_01058AB8
@  #08 @019   ----------------------------------------
 .byte   PATT
  .word Label_01058ADB
@  #08 @020   ----------------------------------------
 .byte   PATT
  .word Label_01058AFC
@  #08 @021   ----------------------------------------
 .byte   PATT
  .word Label_01058B1D
@  #08 @022   ----------------------------------------
 .byte   PATT
  .word Label_01058AB8
@  #08 @023   ----------------------------------------
 .byte   PATT
  .word Label_01058ADB
@  #08 @024   ----------------------------------------
 .byte   PATT
  .word Label_01058AFC
@  #08 @025   ----------------------------------------
 .byte   PATT
  .word Label_01058B1D
@  #08 @026   ----------------------------------------
 .byte   PATT
  .word Label_01058AB8
@  #08 @027   ----------------------------------------
 .byte   PATT
  .word Label_01058ADB
@  #08 @028   ----------------------------------------
 .byte   PATT
  .word Label_01058AFC
@  #08 @029   ----------------------------------------
 .byte   PATT
  .word Label_01058B1D
@  #08 @030   ----------------------------------------
 .byte   PATT
  .word Label_01058B4B
@  #08 @031   ----------------------------------------
 .byte   PATT
  .word Label_01058ADB
@  #08 @032   ----------------------------------------
 .byte   PATT
  .word Label_01058AFC
@  #08 @033   ----------------------------------------
Label_01058BF2:
 .byte   N15 ,Dn1 ,v127
 .byte   N15 ,Fs1
 .byte   N23 ,Gs1
 .byte   W16
 .byte   N07 ,Fs1
 .byte   W16
 .byte   N15 ,Dn1
 .byte   W16
 .byte   N23
 .byte   W48
 .byte   PEND 
@  #08 @034   ----------------------------------------
Label_01058C03:
 .byte   N23 ,Dn1 ,v127
 .byte   N23 ,Fs1
 .byte   N23 ,Cs2
 .byte   W48
 .byte   Dn1
 .byte   N23 ,Fs1
 .byte   N23 ,Gs1
 .byte   W48
 .byte   PEND 
@  #08 @035   ----------------------------------------
Label_01058C12:
 .byte   N23 ,Dn1 ,v127
 .byte   N23 ,Fs1
 .byte   W48
 .byte   Dn1
 .byte   N23 ,Fs1
 .byte   N23 ,Gs1
 .byte   W48
 .byte   PEND 
@  #08 @036   ----------------------------------------
 .byte   PATT
  .word Label_01058C12
@  #08 @037   ----------------------------------------
 .byte   PATT
  .word Label_01058C12
@  #08 @038   ----------------------------------------
 .byte   PATT
  .word Label_01058C03
@  #08 @039   ----------------------------------------
 .byte   PATT
  .word Label_01058C12
@  #08 @040   ----------------------------------------
 .byte   PATT
  .word Label_01058C12
@  #08 @041   ----------------------------------------
 .byte   N23 ,Dn1 ,v127
 .byte   N23 ,Fs1
 .byte   W48
 .byte   N15 ,Dn1
 .byte   N23 ,Fs1
 .byte   N23 ,Gs1
 .byte   W16
 .byte   N15 ,Dn1
 .byte   W16
 .byte   N15
 .byte   W16
@  #08 @042   ----------------------------------------
 .byte   PATT
  .word Label_01058C03
@  #08 @043   ----------------------------------------
 .byte   PATT
  .word Label_01058C12
@  #08 @044   ----------------------------------------
 .byte   PATT
  .word Label_01058C12
@  #08 @045   ----------------------------------------
 .byte   PATT
  .word Label_01058C12
@  #08 @046   ----------------------------------------
 .byte   PATT
  .word Label_01058C03
@  #08 @047   ----------------------------------------
 .byte   PATT
  .word Label_01058C12
@  #08 @048   ----------------------------------------
 .byte   PATT
  .word Label_01058C12
@  #08 @049   ----------------------------------------
 .byte   N15 ,Dn1 ,v127
 .byte   N23 ,Fs1
 .byte   W16
 .byte   N15 ,Dn1
 .byte   W16
 .byte   N15
 .byte   W16
 .byte   N23
 .byte   N23 ,Fs1
 .byte   N23 ,Gs1
 .byte   W48
@  #08 @050   ----------------------------------------
 .byte   N15 ,Dn1
 .byte   N23 ,An1 ,v016
 .byte   N23 ,Cs2 ,v127
 .byte   W30
 .byte   N17 ,An1 ,v032
 .byte   W02
 .byte   N15 ,Dn1 ,v127
 .byte   W28
 .byte   N11 ,An1 ,v064
 .byte   W18
 .byte   N17 ,An1 ,v096
 .byte   W18
@  #08 @051   ----------------------------------------
Label_01058C97:
 .byte   N23 ,An1 ,v127
 .byte   W30
 .byte   N17
 .byte   W30
 .byte   N11
 .byte   W18
 .byte   N17
 .byte   W18
 .byte   PEND 
@  #08 @052   ----------------------------------------
Label_01058CA2:
 .byte   N15 ,Dn1 ,v127
 .byte   N23 ,An1 ,v016
 .byte   W30
 .byte   N17 ,An1 ,v032
 .byte   W02
 .byte   N15 ,Dn1 ,v127
 .byte   W28
 .byte   N11 ,An1 ,v064
 .byte   W18
 .byte   N17 ,An1 ,v096
 .byte   W18
 .byte   PEND 
@  #08 @053   ----------------------------------------
 .byte   PATT
  .word Label_01058C97
@  #08 @054   ----------------------------------------
 .byte   PATT
  .word Label_01058CA2
@  #08 @055   ----------------------------------------
 .byte   PATT
  .word Label_01058C97
@  #08 @056   ----------------------------------------
 .byte   N23 ,Dn1 ,v127
 .byte   W96
@  #08 @057   ----------------------------------------
 .byte   N23
 .byte   N23 ,An1
 .byte   W30
 .byte   N17
 .byte   W30
 .byte   N11
 .byte   W18
 .byte   N17
 .byte   W18
@  #08 @058   ----------------------------------------
Label_01058CD7:
 .byte   N23 ,Bn0 ,v127
 .byte   N23 ,Dn1
 .byte   N23 ,Fs1
 .byte   N23 ,Cs2
 .byte   W30
 .byte   N17 ,Bn0
 .byte   W18
 .byte   N23 ,Dn1
 .byte   N23 ,Fs1
 .byte   N23 ,Gs1
 .byte   W12
 .byte   N11 ,Bn0
 .byte   W18
 .byte   N17
 .byte   W18
 .byte   PEND 
@  #08 @059   ----------------------------------------
Label_01058CF1:
 .byte   N23 ,Bn0 ,v127
 .byte   N23 ,Dn1
 .byte   N23 ,Fs1
 .byte   W30
 .byte   N17 ,Bn0
 .byte   W18
 .byte   N23 ,Dn1
 .byte   N23 ,Fs1
 .byte   N23 ,Gs1
 .byte   W12
 .byte   N11 ,Bn0
 .byte   W18
 .byte   N17
 .byte   W18
 .byte   PEND 
@  #08 @060   ----------------------------------------
 .byte   PATT
  .word Label_01058CF1
@  #08 @061   ----------------------------------------
Label_01058D0E:
 .byte   N23 ,Bn0 ,v127
 .byte   N23 ,Dn1
 .byte   N23 ,Fs1
 .byte   W30
 .byte   N17 ,Bn0
 .byte   W18
 .byte   N15 ,Dn1
 .byte   N23 ,Fs1
 .byte   N23 ,Gs1
 .byte   W12
 .byte   N11 ,Bn0
 .byte   W04
 .byte   N15 ,Dn1
 .byte   W14
 .byte   N17 ,Bn0
 .byte   W02
 .byte   N15 ,Dn1
 .byte   W16
 .byte   PEND 
@  #08 @062   ----------------------------------------
 .byte   PATT
  .word Label_01058CD7
@  #08 @063   ----------------------------------------
 .byte   PATT
  .word Label_01058CF1
@  #08 @064   ----------------------------------------
 .byte   PATT
  .word Label_01058CF1
@  #08 @065   ----------------------------------------
 .byte   PATT
  .word Label_01058D0E
@  #08 @066   ----------------------------------------
 .byte   PATT
  .word Label_01058CD7
@  #08 @067   ----------------------------------------
 .byte   PATT
  .word Label_01058CF1
@  #08 @068   ----------------------------------------
 .byte   PATT
  .word Label_01058CF1
@  #08 @069   ----------------------------------------
 .byte   PATT
  .word Label_01058D0E
@  #08 @070   ----------------------------------------
 .byte   PATT
  .word Label_01058CD7
@  #08 @071   ----------------------------------------
 .byte   PATT
  .word Label_01058CF1
@  #08 @072   ----------------------------------------
 .byte   PATT
  .word Label_01058CF1
@  #08 @073   ----------------------------------------
 .byte   PATT
  .word Label_01058D0E
@  #08 @074   ----------------------------------------
Label_01058D69:
 .byte   N23 ,Bn0 ,v127
 .byte   N23 ,Dn1
 .byte   N23 ,Fs1 ,v032
 .byte   N23 ,Cs2 ,v127
 .byte   W30
 .byte   N17 ,Bn0
 .byte   N17 ,Fs1 ,v032
 .byte   W18
 .byte   N23 ,Dn1 ,v127
 .byte   N23 ,Gs1
 .byte   W12
 .byte   N11 ,Bn0
 .byte   N11 ,Fs1 ,v032
 .byte   W18
 .byte   N17 ,Bn0 ,v127
 .byte   N17 ,Fs1 ,v032
 .byte   W18
 .byte   PEND 
@  #08 @075   ----------------------------------------
Label_01058D8F:
 .byte   N23 ,Bn0 ,v127
 .byte   N23 ,Dn1
 .byte   N23 ,Fs1 ,v064
 .byte   W30
 .byte   N17 ,Bn0 ,v127
 .byte   N17 ,Fs1 ,v064
 .byte   W18
 .byte   N23 ,Dn1 ,v127
 .byte   N23 ,Gs1
 .byte   W12
 .byte   N11 ,Bn0
 .byte   N11 ,Fs1 ,v064
 .byte   W18
 .byte   N17 ,Bn0 ,v127
 .byte   N17 ,Fs1 ,v064
 .byte   W18
 .byte   PEND 
@  #08 @076   ----------------------------------------
Label_01058DB3:
 .byte   N23 ,Bn0 ,v127
 .byte   N23 ,Dn1
 .byte   N23 ,Fs1
 .byte   W30
 .byte   N17 ,Bn0
 .byte   N17 ,Fs1
 .byte   W18
 .byte   N23 ,Dn1
 .byte   N23 ,Gs1
 .byte   W12
 .byte   N11 ,Bn0
 .byte   N11 ,Fs1
 .byte   W18
 .byte   N17 ,Bn0
 .byte   N17 ,Fs1
 .byte   W18
 .byte   PEND 
@  #08 @077   ----------------------------------------
Label_01058DD0:
 .byte   N23 ,Bn0 ,v127
 .byte   N23 ,Dn1
 .byte   N23 ,Fs1 ,v064
 .byte   W30
 .byte   N17 ,Bn0 ,v127
 .byte   N17 ,Fs1 ,v064
 .byte   W18
 .byte   N15 ,Dn1 ,v127
 .byte   N23 ,Gs1
 .byte   W12
 .byte   N11 ,Bn0
 .byte   N11 ,Fs1 ,v064
 .byte   W04
 .byte   N15 ,Dn1 ,v127
 .byte   W14
 .byte   N17 ,Bn0
 .byte   N17 ,Fs1 ,v064
 .byte   W02
 .byte   N15 ,Dn1 ,v127
 .byte   W16
 .byte   PEND 
@  #08 @078   ----------------------------------------
 .byte   PATT
  .word Label_01058D69
@  #08 @079   ----------------------------------------
 .byte   PATT
  .word Label_01058D8F
@  #08 @080   ----------------------------------------
 .byte   PATT
  .word Label_01058DB3
@  #08 @081   ----------------------------------------
 .byte   PATT
  .word Label_01058DD0
@  #08 @082   ----------------------------------------
 .byte   PATT
  .word Label_01058D69
@  #08 @083   ----------------------------------------
 .byte   PATT
  .word Label_01058D8F
@  #08 @084   ----------------------------------------
 .byte   PATT
  .word Label_01058DB3
@  #08 @085   ----------------------------------------
 .byte   PATT
  .word Label_01058DD0
@  #08 @086   ----------------------------------------
 .byte   PATT
  .word Label_01058D69
@  #08 @087   ----------------------------------------
 .byte   PATT
  .word Label_01058D8F
@  #08 @088   ----------------------------------------
 .byte   N23 ,Bn0 ,v127
 .byte   N23 ,Dn1
 .byte   N23 ,Fs1
 .byte   W30
 .byte   N17 ,Bn0
 .byte   N17 ,Fs1
 .byte   W18
 .byte   N15 ,Dn1
 .byte   N23 ,Gs1
 .byte   W12
 .byte   N11 ,Bn0
 .byte   N11 ,Fs1
 .byte   W04
 .byte   N15 ,Dn1
 .byte   W14
 .byte   N17 ,Bn0
 .byte   N17 ,Fs1
 .byte   W02
 .byte   N15 ,Dn1
 .byte   W16
@  #08 @089   ----------------------------------------
 .byte   N23 ,Bn0
 .byte   N23 ,Dn1
 .byte   N23 ,Fs1 ,v064
 .byte   W96
@  #08 @090   ----------------------------------------
 .byte   PATT
  .word Label_01058C03
@  #08 @091   ----------------------------------------
 .byte   PATT
  .word Label_01058C12
@  #08 @092   ----------------------------------------
 .byte   PATT
  .word Label_01058C12
@  #08 @093   ----------------------------------------
 .byte   PATT
  .word Label_01058C12
@  #08 @094   ----------------------------------------
 .byte   PATT
  .word Label_01058C03
@  #08 @095   ----------------------------------------
 .byte   PATT
  .word Label_01058C12
@  #08 @096   ----------------------------------------
 .byte   PATT
  .word Label_01058C12
@  #08 @097   ----------------------------------------
 .byte   N15 ,Dn1 ,v127
 .byte   N23 ,Fs1
 .byte   W16
 .byte   N15 ,Dn1
 .byte   W16
 .byte   N15
 .byte   W16
 .byte   N15
 .byte   N23 ,Fs1
 .byte   N23 ,Gs1
 .byte   W16
 .byte   N15 ,Dn1
 .byte   W16
 .byte   N15
 .byte   W16
@  #08 @098   ----------------------------------------
Label_01058E90:
 .byte   N23 ,Dn1 ,v127
 .byte   N23 ,Fs1
 .byte   N23 ,Cs2
 .byte   W30
 .byte   N17 ,Fs1
 .byte   W18
 .byte   N23 ,Dn1
 .byte   N23 ,Gs1
 .byte   W12
 .byte   N11 ,Fs1
 .byte   W18
 .byte   N17
 .byte   W18
 .byte   PEND 
@  #08 @099   ----------------------------------------
Label_01058EA6:
 .byte   N23 ,Dn1 ,v127
 .byte   N23 ,Fs1
 .byte   W30
 .byte   N17
 .byte   W18
 .byte   N23 ,Dn1
 .byte   N23 ,Gs1
 .byte   W12
 .byte   N11 ,Fs1
 .byte   W18
 .byte   N17
 .byte   W18
 .byte   PEND 
@  #08 @100   ----------------------------------------
 .byte   PATT
  .word Label_01058EA6
@  #08 @101   ----------------------------------------
 .byte   PATT
  .word Label_01058EA6
@  #08 @102   ----------------------------------------
 .byte   PATT
  .word Label_01058E90
@  #08 @103   ----------------------------------------
 .byte   PATT
  .word Label_01058EA6
@  #08 @104   ----------------------------------------
 .byte   N15 ,Dn1 ,v127
 .byte   N23 ,Fs1
 .byte   W30
 .byte   N17
 .byte   W02
 .byte   N15 ,Dn1
 .byte   W28
 .byte   N11 ,Fs1
 .byte   W18
 .byte   N17
 .byte   W18
@  #08 @105   ----------------------------------------
 .byte   N23 ,Dn1
 .byte   N23 ,Fs1
 .byte   W30
 .byte   N17
 .byte   W18
 .byte   N23 ,Dn1
 .byte   W12
 .byte   N11 ,Fs1
 .byte   W18
 .byte   N17
 .byte   W18
@  #08 @106   ----------------------------------------
Label_01058EEC:
 .byte   N23 ,Dn1 ,v127
 .byte   N23 ,Fs1
 .byte   N23 ,Gs1
 .byte   N23 ,Cs2
 .byte   W48
 .byte   Dn1
 .byte   N23 ,Fs1
 .byte   N23 ,Gs1
 .byte   W48
 .byte   PEND 
@  #08 @107   ----------------------------------------
Label_01058EFD:
 .byte   N23 ,Dn1 ,v127
 .byte   N23 ,Fs1
 .byte   N23 ,Gs1
 .byte   W48
 .byte   Dn1
 .byte   N23 ,Fs1
 .byte   N23 ,Gs1
 .byte   W48
 .byte   PEND 
@  #08 @108   ----------------------------------------
 .byte   PATT
  .word Label_01058EFD
@  #08 @109   ----------------------------------------
 .byte   PATT
  .word Label_01058EFD
@  #08 @110   ----------------------------------------
 .byte   PATT
  .word Label_01058EEC
@  #08 @111   ----------------------------------------
 .byte   PATT
  .word Label_01058EFD
@  #08 @112   ----------------------------------------
 .byte   PATT
  .word Label_01058EFD
@  #08 @113   ----------------------------------------
 .byte   N23 ,Dn1 ,v127
 .byte   N23 ,Fs1
 .byte   N23 ,Gs1
 .byte   W48
 .byte   N15 ,Dn1
 .byte   N23 ,Fs1
 .byte   N23 ,Gs1
 .byte   W16
 .byte   N15 ,Dn1
 .byte   W16
 .byte   N15
 .byte   W16
@  #08 @114   ----------------------------------------
 .byte   PATT
  .word Label_01058EEC
@  #08 @115   ----------------------------------------
 .byte   PATT
  .word Label_01058EFD
@  #08 @116   ----------------------------------------
 .byte   PATT
  .word Label_01058EFD
@  #08 @117   ----------------------------------------
 .byte   PATT
  .word Label_01058EFD
@  #08 @118   ----------------------------------------
 .byte   PATT
  .word Label_01058EEC
@  #08 @119   ----------------------------------------
 .byte   PATT
  .word Label_01058EFD
@  #08 @120   ----------------------------------------
 .byte   PATT
  .word Label_01058EFD
@  #08 @121   ----------------------------------------
 .byte   N15 ,Dn1 ,v127
 .byte   N23 ,Fs1
 .byte   N23 ,Gs1
 .byte   W16
 .byte   N15 ,Dn1
 .byte   W16
 .byte   N15
 .byte   W16
 .byte   N23
 .byte   N23 ,Fs1
 .byte   N23 ,Gs1
 .byte   W48
@  #08 @122   ----------------------------------------
 .byte   PATT
  .word Label_01058AB8
@  #08 @123   ----------------------------------------
 .byte   PATT
  .word Label_01058ADB
@  #08 @124   ----------------------------------------
 .byte   PATT
  .word Label_01058AFC
@  #08 @125   ----------------------------------------
 .byte   PATT
  .word Label_01058B1D
@  #08 @126   ----------------------------------------
 .byte   PATT
  .word Label_01058AB8
@  #08 @127   ----------------------------------------
 .byte   PATT
  .word Label_01058ADB
@  #08 @128   ----------------------------------------
 .byte   PATT
  .word Label_01058AFC
@  #08 @129   ----------------------------------------
 .byte   PATT
  .word Label_01058B1D
@  #08 @130   ----------------------------------------
 .byte   PATT
  .word Label_01058B4B
@  #08 @131   ----------------------------------------
 .byte   PATT
  .word Label_01058ADB
@  #08 @132   ----------------------------------------
 .byte   PATT
  .word Label_01058AFC
@  #08 @133   ----------------------------------------
 .byte   PATT
  .word Label_01058B1D
@  #08 @134   ----------------------------------------
 .byte   PATT
  .word Label_01058B4B
@  #08 @135   ----------------------------------------
 .byte   PATT
  .word Label_01058ADB
@  #08 @136   ----------------------------------------
 .byte   PATT
  .word Label_01058AFC
@  #08 @137   ----------------------------------------
 .byte   PATT
  .word Label_01058B8A
@  #08 @138   ----------------------------------------
 .byte   PATT
  .word Label_01058AB8
@  #08 @139   ----------------------------------------
 .byte   PATT
  .word Label_01058ADB
@  #08 @140   ----------------------------------------
 .byte   PATT
  .word Label_01058AFC
@  #08 @141   ----------------------------------------
 .byte   PATT
  .word Label_01058B1D
@  #08 @142   ----------------------------------------
 .byte   PATT
  .word Label_01058AB8
@  #08 @143   ----------------------------------------
 .byte   PATT
  .word Label_01058ADB
@  #08 @144   ----------------------------------------
 .byte   PATT
  .word Label_01058AFC
@  #08 @145   ----------------------------------------
 .byte   PATT
  .word Label_01058B1D
@  #08 @146   ----------------------------------------
 .byte   PATT
  .word Label_01058AB8
@  #08 @147   ----------------------------------------
 .byte   PATT
  .word Label_01058ADB
@  #08 @148   ----------------------------------------
 .byte   PATT
  .word Label_01058AFC
@  #08 @149   ----------------------------------------
 .byte   PATT
  .word Label_01058B1D
@  #08 @150   ----------------------------------------
 .byte   PATT
  .word Label_01058B4B
@  #08 @151   ----------------------------------------
 .byte   PATT
  .word Label_01058ADB
@  #08 @152   ----------------------------------------
 .byte   PATT
  .word Label_01058AFC
@  #08 @153   ----------------------------------------
 .byte   PATT
  .word Label_01058BF2
@  #08 @154   ----------------------------------------
 .byte   GOTO
  .word Label_01058C03
 .byte   FINE

@**************** Track 9 (Midi-Chn.8) ****************@

song09_009:
@  #09 @000   ----------------------------------------
 .byte   KEYSH , song09_key+0
 .byte   VOICE , 13
 .byte   VOL , 43*song09_mvl/mxv
 .byte   PAN , c_v+0
 .byte   VOL , 43*song09_mvl/mxv
 .byte   PAN , c_v+0
 .byte   W96
@  #09 @001   ----------------------------------------
 .byte   W96
@  #09 @002   ----------------------------------------
 .byte   W96
@  #09 @003   ----------------------------------------
 .byte   W96
@  #09 @004   ----------------------------------------
 .byte   W96
@  #09 @005   ----------------------------------------
 .byte   W96
@  #09 @006   ----------------------------------------
 .byte   W96
@  #09 @007   ----------------------------------------
 .byte   W96
@  #09 @008   ----------------------------------------
 .byte   W96
@  #09 @009   ----------------------------------------
 .byte   W96
@  #09 @010   ----------------------------------------
 .byte   W96
@  #09 @011   ----------------------------------------
 .byte   W96
@  #09 @012   ----------------------------------------
 .byte   W96
@  #09 @013   ----------------------------------------
 .byte   W96
@  #09 @014   ----------------------------------------
 .byte   W96
@  #09 @015   ----------------------------------------
 .byte   W96
@  #09 @016   ----------------------------------------
 .byte   W96
@  #09 @017   ----------------------------------------
 .byte   W96
@  #09 @018   ----------------------------------------
 .byte   W96
@  #09 @019   ----------------------------------------
 .byte   W96
@  #09 @020   ----------------------------------------
 .byte   W96
@  #09 @021   ----------------------------------------
 .byte   W96
@  #09 @022   ----------------------------------------
 .byte   W96
@  #09 @023   ----------------------------------------
 .byte   W96
@  #09 @024   ----------------------------------------
 .byte   W96
@  #09 @025   ----------------------------------------
 .byte   W96
@  #09 @026   ----------------------------------------
 .byte   W96
@  #09 @027   ----------------------------------------
 .byte   W96
@  #09 @028   ----------------------------------------
 .byte   W96
@  #09 @029   ----------------------------------------
 .byte   W96
@  #09 @030   ----------------------------------------
 .byte   W96
@  #09 @031   ----------------------------------------
 .byte   W96
@  #09 @032   ----------------------------------------
 .byte   W96
@  #09 @033   ----------------------------------------
 .byte   W96
@  #09 @034   ----------------------------------------
Label_01059046:
 .byte   N90 ,Cn5 ,v127
 .byte   W96
@  #09 @035   ----------------------------------------
Label_0105904A:
 .byte   N30 ,Ds5 ,v127
 .byte   W32
 .byte   Dn5
 .byte   W32
 .byte   As4
 .byte   W32
 .byte   PEND 
@  #09 @036   ----------------------------------------
 .byte   N90 ,Gn4
 .byte   W96
@  #09 @037   ----------------------------------------
 .byte   PATT
  .word Label_0105904A
@  #09 @038   ----------------------------------------
 .byte   N90 ,Fn5 ,v127
 .byte   W96
@  #09 @039   ----------------------------------------
 .byte   Ds5
 .byte   W96
@  #09 @040   ----------------------------------------
 .byte   Dn5
 .byte   W96
@  #09 @041   ----------------------------------------
 .byte   Bn4
 .byte   W96
@  #09 @042   ----------------------------------------
 .byte   Cn5
 .byte   W96
@  #09 @043   ----------------------------------------
 .byte   PATT
  .word Label_0105904A
@  #09 @044   ----------------------------------------
 .byte   N90 ,Gn4 ,v127
 .byte   W96
@  #09 @045   ----------------------------------------
 .byte   PATT
  .word Label_0105904A
@  #09 @046   ----------------------------------------
 .byte   N90 ,Fn5 ,v127
 .byte   W96
@  #09 @047   ----------------------------------------
 .byte   Ds5
 .byte   W96
@  #09 @048   ----------------------------------------
 .byte   Gs5
 .byte   W96
@  #09 @049   ----------------------------------------
 .byte   Gn5
 .byte   W96
@  #09 @050   ----------------------------------------
 .byte   W96
@  #09 @051   ----------------------------------------
 .byte   W96
@  #09 @052   ----------------------------------------
 .byte   W96
@  #09 @053   ----------------------------------------
 .byte   W96
@  #09 @054   ----------------------------------------
 .byte   W96
@  #09 @055   ----------------------------------------
 .byte   W96
@  #09 @056   ----------------------------------------
 .byte   W96
@  #09 @057   ----------------------------------------
 .byte   W96
@  #09 @058   ----------------------------------------
 .byte   W96
@  #09 @059   ----------------------------------------
 .byte   W96
@  #09 @060   ----------------------------------------
 .byte   W96
@  #09 @061   ----------------------------------------
 .byte   W96
@  #09 @062   ----------------------------------------
 .byte   W96
@  #09 @063   ----------------------------------------
 .byte   W96
@  #09 @064   ----------------------------------------
 .byte   W96
@  #09 @065   ----------------------------------------
 .byte   W96
@  #09 @066   ----------------------------------------
 .byte   W96
@  #09 @067   ----------------------------------------
 .byte   W96
@  #09 @068   ----------------------------------------
 .byte   W96
@  #09 @069   ----------------------------------------
 .byte   W96
@  #09 @070   ----------------------------------------
 .byte   W96
@  #09 @071   ----------------------------------------
 .byte   W96
@  #09 @072   ----------------------------------------
 .byte   W96
@  #09 @073   ----------------------------------------
 .byte   W96
@  #09 @074   ----------------------------------------
 .byte   W96
@  #09 @075   ----------------------------------------
 .byte   W96
@  #09 @076   ----------------------------------------
 .byte   W96
@  #09 @077   ----------------------------------------
 .byte   W96
@  #09 @078   ----------------------------------------
 .byte   W96
@  #09 @079   ----------------------------------------
 .byte   W96
@  #09 @080   ----------------------------------------
 .byte   W96
@  #09 @081   ----------------------------------------
 .byte   W96
@  #09 @082   ----------------------------------------
 .byte   W96
@  #09 @083   ----------------------------------------
 .byte   W96
@  #09 @084   ----------------------------------------
 .byte   W96
@  #09 @085   ----------------------------------------
 .byte   W96
@  #09 @086   ----------------------------------------
 .byte   W96
@  #09 @087   ----------------------------------------
 .byte   W96
@  #09 @088   ----------------------------------------
 .byte   W96
@  #09 @089   ----------------------------------------
 .byte   W96
@  #09 @090   ----------------------------------------
 .byte   W96
@  #09 @091   ----------------------------------------
 .byte   W96
@  #09 @092   ----------------------------------------
 .byte   W96
@  #09 @093   ----------------------------------------
 .byte   W96
@  #09 @094   ----------------------------------------
 .byte   W96
@  #09 @095   ----------------------------------------
 .byte   W96
@  #09 @096   ----------------------------------------
 .byte   W96
@  #09 @097   ----------------------------------------
 .byte   W96
@  #09 @098   ----------------------------------------
 .byte   W96
@  #09 @099   ----------------------------------------
 .byte   W96
@  #09 @100   ----------------------------------------
 .byte   W96
@  #09 @101   ----------------------------------------
 .byte   W96
@  #09 @102   ----------------------------------------
 .byte   W96
@  #09 @103   ----------------------------------------
 .byte   W96
@  #09 @104   ----------------------------------------
 .byte   W96
@  #09 @105   ----------------------------------------
 .byte   W96
@  #09 @106   ----------------------------------------
 .byte   Cn5
 .byte   W96
@  #09 @107   ----------------------------------------
 .byte   PATT
  .word Label_0105904A
@  #09 @108   ----------------------------------------
 .byte   N90 ,Gn4 ,v127
 .byte   W96
@  #09 @109   ----------------------------------------
 .byte   PATT
  .word Label_0105904A
@  #09 @110   ----------------------------------------
 .byte   N90 ,Fn5 ,v127
 .byte   W96
@  #09 @111   ----------------------------------------
 .byte   Ds5
 .byte   W96
@  #09 @112   ----------------------------------------
 .byte   Dn5
 .byte   W96
@  #09 @113   ----------------------------------------
 .byte   Bn4
 .byte   W96
@  #09 @114   ----------------------------------------
 .byte   Cn5
 .byte   W96
@  #09 @115   ----------------------------------------
 .byte   PATT
  .word Label_0105904A
@  #09 @116   ----------------------------------------
 .byte   N90 ,Gn4 ,v127
 .byte   W96
@  #09 @117   ----------------------------------------
 .byte   PATT
  .word Label_0105904A
@  #09 @118   ----------------------------------------
 .byte   N90 ,Fn5 ,v127
 .byte   W96
@  #09 @119   ----------------------------------------
 .byte   Ds5
 .byte   W96
@  #09 @120   ----------------------------------------
 .byte   Gs5
 .byte   W96
@  #09 @121   ----------------------------------------
 .byte   Gn5
 .byte   W96
@  #09 @122   ----------------------------------------
 .byte   W96
@  #09 @123   ----------------------------------------
 .byte   W96
@  #09 @124   ----------------------------------------
 .byte   W96
@  #09 @125   ----------------------------------------
 .byte   W96
@  #09 @126   ----------------------------------------
 .byte   W96
@  #09 @127   ----------------------------------------
 .byte   W96
@  #09 @128   ----------------------------------------
 .byte   W96
@  #09 @129   ----------------------------------------
 .byte   W96
@  #09 @130   ----------------------------------------
 .byte   W96
@  #09 @131   ----------------------------------------
 .byte   W96
@  #09 @132   ----------------------------------------
 .byte   W96
@  #09 @133   ----------------------------------------
 .byte   W96
@  #09 @134   ----------------------------------------
 .byte   W96
@  #09 @135   ----------------------------------------
 .byte   W96
@  #09 @136   ----------------------------------------
 .byte   W96
@  #09 @137   ----------------------------------------
 .byte   W96
@  #09 @138   ----------------------------------------
 .byte   W96
@  #09 @139   ----------------------------------------
 .byte   W96
@  #09 @140   ----------------------------------------
 .byte   W96
@  #09 @141   ----------------------------------------
 .byte   W96
@  #09 @142   ----------------------------------------
 .byte   W96
@  #09 @143   ----------------------------------------
 .byte   W96
@  #09 @144   ----------------------------------------
 .byte   W96
@  #09 @145   ----------------------------------------
 .byte   W96
@  #09 @146   ----------------------------------------
 .byte   W96
@  #09 @147   ----------------------------------------
 .byte   W96
@  #09 @148   ----------------------------------------
 .byte   W96
@  #09 @149   ----------------------------------------
 .byte   W96
@  #09 @150   ----------------------------------------
 .byte   W96
@  #09 @151   ----------------------------------------
 .byte   W96
@  #09 @152   ----------------------------------------
 .byte   W96
@  #09 @153   ----------------------------------------
 .byte   W96
@  #09 @154   ----------------------------------------
 .byte   GOTO
  .word Label_01059046
 .byte   FINE

@**************** Track 10 (Midi-Chn.9) ****************@

song09_010:
@  #10 @000   ----------------------------------------
 .byte   KEYSH , song09_key+0
 .byte   VOICE , 13
 .byte   VOL , 43*song09_mvl/mxv
 .byte   PAN , c_v+0
 .byte   VOL , 43*song09_mvl/mxv
 .byte   PAN , c_v+0
 .byte   W96
@  #10 @001   ----------------------------------------
 .byte   W96
@  #10 @002   ----------------------------------------
 .byte   W96
@  #10 @003   ----------------------------------------
 .byte   W96
@  #10 @004   ----------------------------------------
 .byte   W96
@  #10 @005   ----------------------------------------
 .byte   W96
@  #10 @006   ----------------------------------------
 .byte   W96
@  #10 @007   ----------------------------------------
 .byte   W96
@  #10 @008   ----------------------------------------
 .byte   W96
@  #10 @009   ----------------------------------------
 .byte   W96
@  #10 @010   ----------------------------------------
 .byte   W96
@  #10 @011   ----------------------------------------
 .byte   W96
@  #10 @012   ----------------------------------------
 .byte   W96
@  #10 @013   ----------------------------------------
 .byte   W96
@  #10 @014   ----------------------------------------
 .byte   W96
@  #10 @015   ----------------------------------------
 .byte   W96
@  #10 @016   ----------------------------------------
 .byte   W96
@  #10 @017   ----------------------------------------
 .byte   W96
@  #10 @018   ----------------------------------------
 .byte   W96
@  #10 @019   ----------------------------------------
 .byte   W96
@  #10 @020   ----------------------------------------
 .byte   W96
@  #10 @021   ----------------------------------------
 .byte   W96
@  #10 @022   ----------------------------------------
 .byte   W96
@  #10 @023   ----------------------------------------
 .byte   W96
@  #10 @024   ----------------------------------------
 .byte   W96
@  #10 @025   ----------------------------------------
 .byte   W96
@  #10 @026   ----------------------------------------
 .byte   W96
@  #10 @027   ----------------------------------------
 .byte   W96
@  #10 @028   ----------------------------------------
 .byte   W96
@  #10 @029   ----------------------------------------
 .byte   W96
@  #10 @030   ----------------------------------------
 .byte   W96
@  #10 @031   ----------------------------------------
 .byte   W96
@  #10 @032   ----------------------------------------
 .byte   W96
@  #10 @033   ----------------------------------------
 .byte   W96
@  #10 @034   ----------------------------------------
Label_01059142:
 .byte   N23 ,Cn5 ,v127
 .byte   W96
@  #10 @035   ----------------------------------------
 .byte   W96
@  #10 @036   ----------------------------------------
 .byte   N23
 .byte   W96
@  #10 @037   ----------------------------------------
 .byte   W96
@  #10 @038   ----------------------------------------
 .byte   Fn5
 .byte   W96
@  #10 @039   ----------------------------------------
 .byte   W96
@  #10 @040   ----------------------------------------
 .byte   Dn5
 .byte   W96
@  #10 @041   ----------------------------------------
 .byte   W96
@  #10 @042   ----------------------------------------
 .byte   Cn5
 .byte   W96
@  #10 @043   ----------------------------------------
 .byte   W96
@  #10 @044   ----------------------------------------
 .byte   N23
 .byte   W96
@  #10 @045   ----------------------------------------
 .byte   W96
@  #10 @046   ----------------------------------------
 .byte   Fn5
 .byte   W96
@  #10 @047   ----------------------------------------
 .byte   W96
@  #10 @048   ----------------------------------------
 .byte   Gs5
 .byte   W96
@  #10 @049   ----------------------------------------
 .byte   W96
@  #10 @050   ----------------------------------------
 .byte   Fs4
 .byte   W96
@  #10 @051   ----------------------------------------
 .byte   W96
@  #10 @052   ----------------------------------------
 .byte   N23
 .byte   W96
@  #10 @053   ----------------------------------------
 .byte   W96
@  #10 @054   ----------------------------------------
 .byte   N23
 .byte   W96
@  #10 @055   ----------------------------------------
 .byte   W96
@  #10 @056   ----------------------------------------
 .byte   N23
 .byte   W96
@  #10 @057   ----------------------------------------
 .byte   Gs4
 .byte   W96
@  #10 @058   ----------------------------------------
 .byte   Fn4
 .byte   W96
@  #10 @059   ----------------------------------------
 .byte   W96
@  #10 @060   ----------------------------------------
 .byte   W96
@  #10 @061   ----------------------------------------
 .byte   W96
@  #10 @062   ----------------------------------------
 .byte   N23
 .byte   W96
@  #10 @063   ----------------------------------------
 .byte   W96
@  #10 @064   ----------------------------------------
 .byte   W96
@  #10 @065   ----------------------------------------
 .byte   W96
@  #10 @066   ----------------------------------------
 .byte   N23
 .byte   W96
@  #10 @067   ----------------------------------------
 .byte   W96
@  #10 @068   ----------------------------------------
 .byte   W96
@  #10 @069   ----------------------------------------
 .byte   W96
@  #10 @070   ----------------------------------------
 .byte   W96
@  #10 @071   ----------------------------------------
 .byte   W96
@  #10 @072   ----------------------------------------
 .byte   W96
@  #10 @073   ----------------------------------------
 .byte   W96
@  #10 @074   ----------------------------------------
 .byte   W96
@  #10 @075   ----------------------------------------
 .byte   W96
@  #10 @076   ----------------------------------------
 .byte   W96
@  #10 @077   ----------------------------------------
 .byte   W96
@  #10 @078   ----------------------------------------
 .byte   W96
@  #10 @079   ----------------------------------------
 .byte   W96
@  #10 @080   ----------------------------------------
 .byte   W96
@  #10 @081   ----------------------------------------
 .byte   W96
@  #10 @082   ----------------------------------------
 .byte   W96
@  #10 @083   ----------------------------------------
 .byte   W96
@  #10 @084   ----------------------------------------
 .byte   W96
@  #10 @085   ----------------------------------------
 .byte   W96
@  #10 @086   ----------------------------------------
 .byte   W96
@  #10 @087   ----------------------------------------
 .byte   W96
@  #10 @088   ----------------------------------------
 .byte   W96
@  #10 @089   ----------------------------------------
 .byte   W96
@  #10 @090   ----------------------------------------
 .byte   Cn5
 .byte   W96
@  #10 @091   ----------------------------------------
 .byte   W96
@  #10 @092   ----------------------------------------
 .byte   W96
@  #10 @093   ----------------------------------------
 .byte   W96
@  #10 @094   ----------------------------------------
 .byte   Ds5
 .byte   W96
@  #10 @095   ----------------------------------------
 .byte   W96
@  #10 @096   ----------------------------------------
 .byte   Cn5
 .byte   W96
@  #10 @097   ----------------------------------------
 .byte   Bn4
 .byte   W96
@  #10 @098   ----------------------------------------
 .byte   Cn5
 .byte   W96
@  #10 @099   ----------------------------------------
 .byte   W96
@  #10 @100   ----------------------------------------
 .byte   W96
@  #10 @101   ----------------------------------------
 .byte   W96
@  #10 @102   ----------------------------------------
 .byte   N23
 .byte   W96
@  #10 @103   ----------------------------------------
 .byte   W96
@  #10 @104   ----------------------------------------
 .byte   W96
@  #10 @105   ----------------------------------------
 .byte   W96
@  #10 @106   ----------------------------------------
 .byte   N23
 .byte   W96
@  #10 @107   ----------------------------------------
 .byte   W96
@  #10 @108   ----------------------------------------
 .byte   N23
 .byte   W96
@  #10 @109   ----------------------------------------
 .byte   W96
@  #10 @110   ----------------------------------------
 .byte   Fn5
 .byte   W96
@  #10 @111   ----------------------------------------
 .byte   W96
@  #10 @112   ----------------------------------------
 .byte   Dn5
 .byte   W96
@  #10 @113   ----------------------------------------
 .byte   W96
@  #10 @114   ----------------------------------------
 .byte   Cn5
 .byte   W96
@  #10 @115   ----------------------------------------
 .byte   W96
@  #10 @116   ----------------------------------------
 .byte   N23
 .byte   W96
@  #10 @117   ----------------------------------------
 .byte   W96
@  #10 @118   ----------------------------------------
 .byte   Fn5
 .byte   W96
@  #10 @119   ----------------------------------------
 .byte   W96
@  #10 @120   ----------------------------------------
 .byte   Gs5
 .byte   W96
@  #10 @121   ----------------------------------------
 .byte   W96
@  #10 @122   ----------------------------------------
 .byte   W96
@  #10 @123   ----------------------------------------
 .byte   W96
@  #10 @124   ----------------------------------------
 .byte   W96
@  #10 @125   ----------------------------------------
 .byte   W96
@  #10 @126   ----------------------------------------
 .byte   W96
@  #10 @127   ----------------------------------------
 .byte   W96
@  #10 @128   ----------------------------------------
 .byte   W96
@  #10 @129   ----------------------------------------
 .byte   W96
@  #10 @130   ----------------------------------------
 .byte   W96
@  #10 @131   ----------------------------------------
 .byte   W96
@  #10 @132   ----------------------------------------
 .byte   W96
@  #10 @133   ----------------------------------------
 .byte   W96
@  #10 @134   ----------------------------------------
 .byte   W96
@  #10 @135   ----------------------------------------
 .byte   W96
@  #10 @136   ----------------------------------------
 .byte   W96
@  #10 @137   ----------------------------------------
 .byte   W96
@  #10 @138   ----------------------------------------
 .byte   W96
@  #10 @139   ----------------------------------------
 .byte   W96
@  #10 @140   ----------------------------------------
 .byte   W96
@  #10 @141   ----------------------------------------
 .byte   W96
@  #10 @142   ----------------------------------------
 .byte   W96
@  #10 @143   ----------------------------------------
 .byte   W96
@  #10 @144   ----------------------------------------
 .byte   W96
@  #10 @145   ----------------------------------------
 .byte   W96
@  #10 @146   ----------------------------------------
 .byte   W96
@  #10 @147   ----------------------------------------
 .byte   W96
@  #10 @148   ----------------------------------------
 .byte   W96
@  #10 @149   ----------------------------------------
 .byte   W96
@  #10 @150   ----------------------------------------
 .byte   W96
@  #10 @151   ----------------------------------------
 .byte   W96
@  #10 @152   ----------------------------------------
 .byte   W96
@  #10 @153   ----------------------------------------
 .byte   W96
@  #10 @154   ----------------------------------------
 .byte   GOTO
  .word Label_01059142
 .byte   FINE

@**************** Track 11 (Midi-Chn.10) ****************@

song09_011:
@  #11 @000   ----------------------------------------
 .byte   KEYSH , song09_key+0
 .byte   VOICE , 100
 .byte   VOL , 43*song09_mvl/mxv
 .byte   PAN , c_v+0
 .byte   VOL , 43*song09_mvl/mxv
 .byte   PAN , c_v+0
 .byte   W96
@  #11 @001   ----------------------------------------
 .byte   W96
@  #11 @002   ----------------------------------------
 .byte   W96
@  #11 @003   ----------------------------------------
 .byte   W96
@  #11 @004   ----------------------------------------
 .byte   W96
@  #11 @005   ----------------------------------------
 .byte   W96
@  #11 @006   ----------------------------------------
 .byte   W96
@  #11 @007   ----------------------------------------
 .byte   W96
@  #11 @008   ----------------------------------------
 .byte   W96
@  #11 @009   ----------------------------------------
 .byte   W96
@  #11 @010   ----------------------------------------
 .byte   W96
@  #11 @011   ----------------------------------------
 .byte   W96
@  #11 @012   ----------------------------------------
 .byte   W96
@  #11 @013   ----------------------------------------
 .byte   W96
@  #11 @014   ----------------------------------------
 .byte   W96
@  #11 @015   ----------------------------------------
 .byte   W96
@  #11 @016   ----------------------------------------
 .byte   W96
@  #11 @017   ----------------------------------------
 .byte   W96
@  #11 @018   ----------------------------------------
 .byte   W96
@  #11 @019   ----------------------------------------
 .byte   W96
@  #11 @020   ----------------------------------------
 .byte   W96
@  #11 @021   ----------------------------------------
 .byte   W96
@  #11 @022   ----------------------------------------
 .byte   W96
@  #11 @023   ----------------------------------------
 .byte   W96
@  #11 @024   ----------------------------------------
 .byte   W96
@  #11 @025   ----------------------------------------
 .byte   W96
@  #11 @026   ----------------------------------------
 .byte   W96
@  #11 @027   ----------------------------------------
 .byte   W96
@  #11 @028   ----------------------------------------
 .byte   W96
@  #11 @029   ----------------------------------------
 .byte   W96
@  #11 @030   ----------------------------------------
 .byte   W96
@  #11 @031   ----------------------------------------
 .byte   W96
@  #11 @032   ----------------------------------------
 .byte   W96
@  #11 @033   ----------------------------------------
 .byte   W96
@  #11 @034   ----------------------------------------
Label_0105920E:
 .byte   N92 ,Cn4 ,v127
 .byte   W96
 .byte   PEND 
@  #11 @035   ----------------------------------------
Label_01059213:
 .byte   N30 ,Ds4 ,v127
 .byte   W32
 .byte   Dn4
 .byte   W32
 .byte   As3
 .byte   W32
 .byte   PEND 
@  #11 @036   ----------------------------------------
Label_0105921C:
 .byte   N92 ,Gn3 ,v127
 .byte   W96
 .byte   PEND 
@  #11 @037   ----------------------------------------
 .byte   PATT
  .word Label_01059213
@  #11 @038   ----------------------------------------
Label_01059226:
 .byte   N92 ,Fn4 ,v127
 .byte   W96
 .byte   PEND 
@  #11 @039   ----------------------------------------
Label_0105922B:
 .byte   N92 ,Ds4 ,v127
 .byte   W96
 .byte   PEND 
@  #11 @040   ----------------------------------------
Label_01059230:
 .byte   N92 ,Dn4 ,v127
 .byte   W96
 .byte   PEND 
@  #11 @041   ----------------------------------------
Label_01059235:
 .byte   N92 ,Bn3 ,v127
 .byte   W96
 .byte   PEND 
@  #11 @042   ----------------------------------------
 .byte   PATT
  .word Label_0105920E
@  #11 @043   ----------------------------------------
 .byte   PATT
  .word Label_01059213
@  #11 @044   ----------------------------------------
 .byte   PATT
  .word Label_0105921C
@  #11 @045   ----------------------------------------
 .byte   PATT
  .word Label_01059213
@  #11 @046   ----------------------------------------
 .byte   PATT
  .word Label_01059226
@  #11 @047   ----------------------------------------
 .byte   PATT
  .word Label_0105922B
@  #11 @048   ----------------------------------------
Label_01059258:
 .byte   N92 ,Gs4 ,v127
 .byte   W96
 .byte   PEND 
@  #11 @049   ----------------------------------------
Label_0105925D:
 .byte   N92 ,Gn4 ,v127
 .byte   W96
 .byte   PEND 
@  #11 @050   ----------------------------------------
Label_01059262:
 .byte   N23 ,Fs3 ,v127
 .byte   W32
 .byte   N36
 .byte   W16
 .byte   W48
 .byte   PEND 
@  #11 @051   ----------------------------------------
 .byte   W96
@  #11 @052   ----------------------------------------
 .byte   PATT
  .word Label_01059262
@  #11 @053   ----------------------------------------
 .byte   W96
@  #11 @054   ----------------------------------------
 .byte   PATT
  .word Label_01059262
@  #11 @055   ----------------------------------------
 .byte   W96
@  #11 @056   ----------------------------------------
 .byte   N92 ,Fs3 ,v127
 .byte   W96
@  #11 @057   ----------------------------------------
 .byte   Gs3
 .byte   W96
@  #11 @058   ----------------------------------------
 .byte   W96
@  #11 @059   ----------------------------------------
 .byte   W96
@  #11 @060   ----------------------------------------
Label_0105927F:
 .byte   N30 ,Fn3 ,v064
 .byte   W32
 .byte   N36 ,Fn3 ,v072
 .byte   W16
 .byte   N15 ,Gn3 ,v080
 .byte   W16
 .byte   Gn3 ,v088
 .byte   W16
 .byte   Gn3 ,v096
 .byte   W16
 .byte   PEND 
@  #11 @061   ----------------------------------------
Label_01059292:
 .byte   N30 ,Gs3 ,v104
 .byte   W32
 .byte   N16 ,Gs3 ,v112
 .byte   W16
 .byte   Gs3 ,v120
 .byte   W16
 .byte   N15 ,Gs3 ,v127
 .byte   W16
 .byte   N15
 .byte   W16
 .byte   PEND 
@  #11 @062   ----------------------------------------
 .byte   W96
@  #11 @063   ----------------------------------------
 .byte   W96
@  #11 @064   ----------------------------------------
 .byte   PATT
  .word Label_0105927F
@  #11 @065   ----------------------------------------
Label_010592AB:
 .byte   N30 ,Bn3 ,v104
 .byte   W32
 .byte   N16 ,Bn3 ,v112
 .byte   W16
 .byte   Bn3 ,v120
 .byte   W16
 .byte   N15 ,Bn3 ,v127
 .byte   W16
 .byte   N15
 .byte   W16
 .byte   PEND 
@  #11 @066   ----------------------------------------
 .byte   W96
@  #11 @067   ----------------------------------------
 .byte   W96
@  #11 @068   ----------------------------------------
 .byte   PATT
  .word Label_0105927F
@  #11 @069   ----------------------------------------
 .byte   PATT
  .word Label_01059292
@  #11 @070   ----------------------------------------
 .byte   W96
@  #11 @071   ----------------------------------------
 .byte   W96
@  #11 @072   ----------------------------------------
 .byte   PATT
  .word Label_0105927F
@  #11 @073   ----------------------------------------
 .byte   N30 ,Fs4 ,v104
 .byte   W32
 .byte   N16 ,Fs4 ,v112
 .byte   W16
 .byte   Fs4 ,v120
 .byte   W16
 .byte   N15 ,Fs4 ,v127
 .byte   W16
 .byte   N15
 .byte   W16
@  #11 @074   ----------------------------------------
 .byte   W96
@  #11 @075   ----------------------------------------
 .byte   W96
@  #11 @076   ----------------------------------------
 .byte   PATT
  .word Label_0105927F
@  #11 @077   ----------------------------------------
 .byte   PATT
  .word Label_01059292
@  #11 @078   ----------------------------------------
 .byte   W96
@  #11 @079   ----------------------------------------
 .byte   W96
@  #11 @080   ----------------------------------------
 .byte   PATT
  .word Label_0105927F
@  #11 @081   ----------------------------------------
 .byte   N30 ,As3 ,v104
 .byte   W32
 .byte   N16 ,As3 ,v112
 .byte   W16
 .byte   As3 ,v120
 .byte   W16
 .byte   N15 ,As3 ,v127
 .byte   W16
 .byte   N15
 .byte   W16
@  #11 @082   ----------------------------------------
 .byte   W96
@  #11 @083   ----------------------------------------
 .byte   W96
@  #11 @084   ----------------------------------------
 .byte   PATT
  .word Label_0105927F
@  #11 @085   ----------------------------------------
 .byte   PATT
  .word Label_010592AB
@  #11 @086   ----------------------------------------
 .byte   W96
@  #11 @087   ----------------------------------------
 .byte   W96
@  #11 @088   ----------------------------------------
 .byte   PATT
  .word Label_0105927F
@  #11 @089   ----------------------------------------
 .byte   N30 ,Dn4 ,v104
 .byte   W32
 .byte   N16 ,Dn4 ,v112
 .byte   W16
 .byte   Dn4 ,v120
 .byte   W16
 .byte   N15 ,Dn4 ,v127
 .byte   W16
 .byte   N15
 .byte   W16
@  #11 @090   ----------------------------------------
Label_01059329:
 .byte   TIE ,Ds4 ,v127
 .byte   W96
 .byte   PEND 
@  #11 @091   ----------------------------------------
 .byte   W96
@  #11 @092   ----------------------------------------
 .byte   W96
@  #11 @093   ----------------------------------------
Label_01059330:
 .byte   W92
 .byte   W03
 .byte   PEND 
 .byte   EOT
 .byte   Ds4
 .byte   W01
@  #11 @094   ----------------------------------------
 .byte   PATT
  .word Label_0105922B
@  #11 @095   ----------------------------------------
 .byte   PATT
  .word Label_01059230
@  #11 @096   ----------------------------------------
 .byte   PATT
  .word Label_0105920E
@  #11 @097   ----------------------------------------
 .byte   PATT
  .word Label_01059235
@  #11 @098   ----------------------------------------
 .byte   PATT
  .word Label_01059329
@  #11 @099   ----------------------------------------
 .byte   W96
@  #11 @100   ----------------------------------------
 .byte   W96
@  #11 @101   ----------------------------------------
 .byte   PATT
  .word Label_01059330
@  #11 @102   ----------------------------------------
 .byte   EOT
 .byte   Ds4
 .byte   W01
 .byte   TIE ,Cn4 ,v127
 .byte   W96
@  #11 @103   ----------------------------------------
 .byte   PATT
  .word Label_01059330
@  #11 @104   ----------------------------------------
 .byte   EOT
 .byte   Cn4
 .byte   W01
 .byte   TIE ,Bn3 ,v127
 .byte   W96
@  #11 @105   ----------------------------------------
 .byte   PATT
  .word Label_01059330
@  #11 @106   ----------------------------------------
 .byte   EOT
 .byte   Bn3
 .byte   W01
@  #11 @107   ----------------------------------------
 .byte   PATT
  .word Label_0105920E
@  #11 @108   ----------------------------------------
 .byte   PATT
  .word Label_01059213
@  #11 @109   ----------------------------------------
 .byte   PATT
  .word Label_0105921C
@  #11 @110   ----------------------------------------
 .byte   PATT
  .word Label_01059213
@  #11 @111   ----------------------------------------
 .byte   PATT
  .word Label_01059226
@  #11 @112   ----------------------------------------
 .byte   PATT
  .word Label_0105922B
@  #11 @113   ----------------------------------------
 .byte   PATT
  .word Label_01059230
@  #11 @114   ----------------------------------------
 .byte   PATT
  .word Label_01059235
@  #11 @115   ----------------------------------------
 .byte   PATT
  .word Label_0105920E
@  #11 @116   ----------------------------------------
 .byte   PATT
  .word Label_01059213
@  #11 @117   ----------------------------------------
 .byte   PATT
  .word Label_0105921C
@  #11 @118   ----------------------------------------
 .byte   PATT
  .word Label_01059213
@  #11 @119   ----------------------------------------
 .byte   PATT
  .word Label_01059226
@  #11 @120   ----------------------------------------
 .byte   PATT
  .word Label_0105922B
@  #11 @121   ----------------------------------------
 .byte   PATT
  .word Label_01059258
@  #11 @122   ----------------------------------------
 .byte   PATT
  .word Label_0105925D
@  #11 @123   ----------------------------------------
 .byte   W96
@  #11 @124   ----------------------------------------
 .byte   W96
@  #11 @125   ----------------------------------------
 .byte   W96
@  #11 @126   ----------------------------------------
 .byte   W96
@  #11 @127   ----------------------------------------
 .byte   W96
@  #11 @128   ----------------------------------------
 .byte   W96
@  #11 @129   ----------------------------------------
 .byte   W96
@  #11 @130   ----------------------------------------
 .byte   W96
@  #11 @131   ----------------------------------------
 .byte   W96
@  #11 @132   ----------------------------------------
 .byte   W96
@  #11 @133   ----------------------------------------
 .byte   W96
@  #11 @134   ----------------------------------------
 .byte   W96
@  #11 @135   ----------------------------------------
 .byte   W96
@  #11 @136   ----------------------------------------
 .byte   W96
@  #11 @137   ----------------------------------------
 .byte   W96
@  #11 @138   ----------------------------------------
 .byte   W96
@  #11 @139   ----------------------------------------
 .byte   W96
@  #11 @140   ----------------------------------------
 .byte   W96
@  #11 @141   ----------------------------------------
 .byte   W96
@  #11 @142   ----------------------------------------
 .byte   W96
@  #11 @143   ----------------------------------------
 .byte   W96
@  #11 @144   ----------------------------------------
 .byte   W96
@  #11 @145   ----------------------------------------
 .byte   W96
@  #11 @146   ----------------------------------------
 .byte   W96
@  #11 @147   ----------------------------------------
 .byte   W96
@  #11 @148   ----------------------------------------
 .byte   W96
@  #11 @149   ----------------------------------------
 .byte   W96
@  #11 @150   ----------------------------------------
 .byte   W96
@  #11 @151   ----------------------------------------
 .byte   W96
@  #11 @152   ----------------------------------------
 .byte   W96
@  #11 @153   ----------------------------------------
 .byte   W96
@  #11 @154   ----------------------------------------
 .byte   W96
@  #11 @155   ----------------------------------------
 .byte   GOTO
  .word Label_0105920E
 .byte   FINE

@**************** Track 12 (Midi-Chn.11) ****************@

song09_012:
@  #12 @000   ----------------------------------------
 .byte   KEYSH , song09_key+0
 .byte   VOICE , 81
 .byte   VOL , 43*song09_mvl/mxv
 .byte   PAN , c_v+0
 .byte   VOL , 43*song09_mvl/mxv
 .byte   PAN , c_v+0
 .byte   W96
@  #12 @001   ----------------------------------------
 .byte   W96
@  #12 @002   ----------------------------------------
 .byte   W96
@  #12 @003   ----------------------------------------
 .byte   W96
@  #12 @004   ----------------------------------------
 .byte   W96
@  #12 @005   ----------------------------------------
 .byte   W96
@  #12 @006   ----------------------------------------
 .byte   W96
@  #12 @007   ----------------------------------------
 .byte   W96
@  #12 @008   ----------------------------------------
 .byte   W96
@  #12 @009   ----------------------------------------
 .byte   W96
@  #12 @010   ----------------------------------------
 .byte   W96
@  #12 @011   ----------------------------------------
 .byte   W96
@  #12 @012   ----------------------------------------
 .byte   W96
@  #12 @013   ----------------------------------------
 .byte   W96
@  #12 @014   ----------------------------------------
 .byte   W96
@  #12 @015   ----------------------------------------
 .byte   W96
@  #12 @016   ----------------------------------------
 .byte   W96
@  #12 @017   ----------------------------------------
 .byte   W96
@  #12 @018   ----------------------------------------
 .byte   W96
@  #12 @019   ----------------------------------------
 .byte   W96
@  #12 @020   ----------------------------------------
 .byte   W96
@  #12 @021   ----------------------------------------
 .byte   W96
@  #12 @022   ----------------------------------------
 .byte   W96
@  #12 @023   ----------------------------------------
 .byte   W96
@  #12 @024   ----------------------------------------
 .byte   W96
@  #12 @025   ----------------------------------------
 .byte   W96
@  #12 @026   ----------------------------------------
 .byte   W96
@  #12 @027   ----------------------------------------
 .byte   W96
@  #12 @028   ----------------------------------------
 .byte   W96
@  #12 @029   ----------------------------------------
 .byte   W96
@  #12 @030   ----------------------------------------
 .byte   W96
@  #12 @031   ----------------------------------------
 .byte   W96
@  #12 @032   ----------------------------------------
 .byte   W96
@  #12 @033   ----------------------------------------
 .byte   W96
@  #12 @034   ----------------------------------------
Label_01059416:
 .byte   N92 ,Cn5 ,v127
 .byte   W96
@  #12 @035   ----------------------------------------
Label_0105941A:
 .byte   N30 ,Ds5 ,v127
 .byte   W32
 .byte   Dn5
 .byte   W32
 .byte   As4
 .byte   W32
 .byte   PEND 
@  #12 @036   ----------------------------------------
 .byte   N92 ,Gn4
 .byte   W96
@  #12 @037   ----------------------------------------
 .byte   PATT
  .word Label_0105941A
@  #12 @038   ----------------------------------------
 .byte   N92 ,Fn5 ,v127
 .byte   W96
@  #12 @039   ----------------------------------------
 .byte   Ds5
 .byte   W96
@  #12 @040   ----------------------------------------
 .byte   Dn5
 .byte   W96
@  #12 @041   ----------------------------------------
 .byte   Bn4
 .byte   W96
@  #12 @042   ----------------------------------------
 .byte   Cn5
 .byte   W96
@  #12 @043   ----------------------------------------
 .byte   PATT
  .word Label_0105941A
@  #12 @044   ----------------------------------------
 .byte   N92 ,Gn4 ,v127
 .byte   W96
@  #12 @045   ----------------------------------------
 .byte   PATT
  .word Label_0105941A
@  #12 @046   ----------------------------------------
 .byte   N92 ,Fn5 ,v127
 .byte   W96
@  #12 @047   ----------------------------------------
 .byte   Ds5
 .byte   W96
@  #12 @048   ----------------------------------------
 .byte   Gs5
 .byte   W96
@  #12 @049   ----------------------------------------
 .byte   Gn5
 .byte   W96
@  #12 @050   ----------------------------------------
 .byte   W96
@  #12 @051   ----------------------------------------
 .byte   W96
@  #12 @052   ----------------------------------------
 .byte   W96
@  #12 @053   ----------------------------------------
 .byte   W96
@  #12 @054   ----------------------------------------
 .byte   W96
@  #12 @055   ----------------------------------------
 .byte   W96
@  #12 @056   ----------------------------------------
 .byte   W96
@  #12 @057   ----------------------------------------
 .byte   W96
@  #12 @058   ----------------------------------------
 .byte   W96
@  #12 @059   ----------------------------------------
 .byte   W96
@  #12 @060   ----------------------------------------
 .byte   W96
@  #12 @061   ----------------------------------------
 .byte   W96
@  #12 @062   ----------------------------------------
 .byte   W96
@  #12 @063   ----------------------------------------
 .byte   W96
@  #12 @064   ----------------------------------------
 .byte   W96
@  #12 @065   ----------------------------------------
 .byte   W96
@  #12 @066   ----------------------------------------
 .byte   W96
@  #12 @067   ----------------------------------------
 .byte   W96
@  #12 @068   ----------------------------------------
 .byte   W96
@  #12 @069   ----------------------------------------
 .byte   W96
@  #12 @070   ----------------------------------------
 .byte   W96
@  #12 @071   ----------------------------------------
 .byte   W96
@  #12 @072   ----------------------------------------
 .byte   W96
@  #12 @073   ----------------------------------------
 .byte   W96
@  #12 @074   ----------------------------------------
 .byte   W96
@  #12 @075   ----------------------------------------
 .byte   W96
@  #12 @076   ----------------------------------------
 .byte   W96
@  #12 @077   ----------------------------------------
 .byte   W96
@  #12 @078   ----------------------------------------
 .byte   W96
@  #12 @079   ----------------------------------------
 .byte   W96
@  #12 @080   ----------------------------------------
 .byte   W96
@  #12 @081   ----------------------------------------
 .byte   W96
@  #12 @082   ----------------------------------------
 .byte   W96
@  #12 @083   ----------------------------------------
 .byte   W96
@  #12 @084   ----------------------------------------
 .byte   W96
@  #12 @085   ----------------------------------------
 .byte   W96
@  #12 @086   ----------------------------------------
 .byte   W96
@  #12 @087   ----------------------------------------
 .byte   W96
@  #12 @088   ----------------------------------------
 .byte   W96
@  #12 @089   ----------------------------------------
 .byte   W96
@  #12 @090   ----------------------------------------
 .byte   W96
@  #12 @091   ----------------------------------------
 .byte   W96
@  #12 @092   ----------------------------------------
 .byte   W96
@  #12 @093   ----------------------------------------
 .byte   W96
@  #12 @094   ----------------------------------------
 .byte   W96
@  #12 @095   ----------------------------------------
 .byte   W96
@  #12 @096   ----------------------------------------
 .byte   W96
@  #12 @097   ----------------------------------------
 .byte   W96
@  #12 @098   ----------------------------------------
 .byte   W96
@  #12 @099   ----------------------------------------
 .byte   W96
@  #12 @100   ----------------------------------------
 .byte   W96
@  #12 @101   ----------------------------------------
 .byte   W96
@  #12 @102   ----------------------------------------
 .byte   W96
@  #12 @103   ----------------------------------------
 .byte   W96
@  #12 @104   ----------------------------------------
 .byte   W96
@  #12 @105   ----------------------------------------
 .byte   W96
@  #12 @106   ----------------------------------------
 .byte   Cn5
 .byte   W96
@  #12 @107   ----------------------------------------
 .byte   PATT
  .word Label_0105941A
@  #12 @108   ----------------------------------------
 .byte   N92 ,Gn4 ,v127
 .byte   W96
@  #12 @109   ----------------------------------------
 .byte   PATT
  .word Label_0105941A
@  #12 @110   ----------------------------------------
 .byte   N92 ,Fn5 ,v127
 .byte   W96
@  #12 @111   ----------------------------------------
 .byte   Ds5
 .byte   W96
@  #12 @112   ----------------------------------------
 .byte   Dn5
 .byte   W96
@  #12 @113   ----------------------------------------
 .byte   Bn4
 .byte   W96
@  #12 @114   ----------------------------------------
 .byte   Cn5
 .byte   W96
@  #12 @115   ----------------------------------------
 .byte   PATT
  .word Label_0105941A
@  #12 @116   ----------------------------------------
 .byte   N92 ,Gn4 ,v127
 .byte   W96
@  #12 @117   ----------------------------------------
 .byte   PATT
  .word Label_0105941A
@  #12 @118   ----------------------------------------
 .byte   N92 ,Fn5 ,v127
 .byte   W96
@  #12 @119   ----------------------------------------
 .byte   Ds5
 .byte   W96
@  #12 @120   ----------------------------------------
 .byte   Gs5
 .byte   W96
@  #12 @121   ----------------------------------------
 .byte   Gn5
 .byte   W96
@  #12 @122   ----------------------------------------
 .byte   W96
@  #12 @123   ----------------------------------------
 .byte   W96
@  #12 @124   ----------------------------------------
 .byte   W96
@  #12 @125   ----------------------------------------
 .byte   W96
@  #12 @126   ----------------------------------------
 .byte   W96
@  #12 @127   ----------------------------------------
 .byte   W96
@  #12 @128   ----------------------------------------
 .byte   W96
@  #12 @129   ----------------------------------------
 .byte   W96
@  #12 @130   ----------------------------------------
 .byte   W96
@  #12 @131   ----------------------------------------
 .byte   W96
@  #12 @132   ----------------------------------------
 .byte   W96
@  #12 @133   ----------------------------------------
 .byte   W96
@  #12 @134   ----------------------------------------
 .byte   W96
@  #12 @135   ----------------------------------------
 .byte   W96
@  #12 @136   ----------------------------------------
 .byte   W96
@  #12 @137   ----------------------------------------
 .byte   W96
@  #12 @138   ----------------------------------------
 .byte   W96
@  #12 @139   ----------------------------------------
 .byte   W96
@  #12 @140   ----------------------------------------
 .byte   W96
@  #12 @141   ----------------------------------------
 .byte   W96
@  #12 @142   ----------------------------------------
 .byte   W96
@  #12 @143   ----------------------------------------
 .byte   W96
@  #12 @144   ----------------------------------------
 .byte   W96
@  #12 @145   ----------------------------------------
 .byte   W96
@  #12 @146   ----------------------------------------
 .byte   W96
@  #12 @147   ----------------------------------------
 .byte   W96
@  #12 @148   ----------------------------------------
 .byte   W96
@  #12 @149   ----------------------------------------
 .byte   W96
@  #12 @150   ----------------------------------------
 .byte   W96
@  #12 @151   ----------------------------------------
 .byte   W96
@  #12 @152   ----------------------------------------
 .byte   W96
@  #12 @153   ----------------------------------------
 .byte   W96
@  #12 @154   ----------------------------------------
 .byte   GOTO
  .word Label_01059416
 .byte   FINE

@**************** Track 13 (Midi-Chn.12) ****************@

song09_013:
@  #13 @000   ----------------------------------------
 .byte   KEYSH , song09_key+0
 .byte   VOICE , 120
 .byte   VOL , 43*song09_mvl/mxv
 .byte   PAN , c_v+0
 .byte   VOL , 43*song09_mvl/mxv
 .byte   PAN , c_v+0
 .byte   VOL , 43*song09_mvl/mxv
 .byte   PAN , c_v+0
 .byte   W96
@  #13 @001   ----------------------------------------
 .byte   N92 ,Cn3 ,v127
 .byte   W96
@  #13 @002   ----------------------------------------
 .byte   W96
@  #13 @003   ----------------------------------------
 .byte   W96
@  #13 @004   ----------------------------------------
 .byte   W96
@  #13 @005   ----------------------------------------
 .byte   W96
@  #13 @006   ----------------------------------------
 .byte   W96
@  #13 @007   ----------------------------------------
 .byte   W96
@  #13 @008   ----------------------------------------
 .byte   W96
@  #13 @009   ----------------------------------------
 .byte   W96
@  #13 @010   ----------------------------------------
 .byte   W96
@  #13 @011   ----------------------------------------
 .byte   W96
@  #13 @012   ----------------------------------------
 .byte   W96
@  #13 @013   ----------------------------------------
 .byte   W96
@  #13 @014   ----------------------------------------
 .byte   W96
@  #13 @015   ----------------------------------------
 .byte   W96
@  #13 @016   ----------------------------------------
 .byte   W96
@  #13 @017   ----------------------------------------
 .byte   W96
@  #13 @018   ----------------------------------------
 .byte   W96
@  #13 @019   ----------------------------------------
 .byte   W96
@  #13 @020   ----------------------------------------
 .byte   W96
@  #13 @021   ----------------------------------------
 .byte   W96
@  #13 @022   ----------------------------------------
 .byte   W96
@  #13 @023   ----------------------------------------
 .byte   W96
@  #13 @024   ----------------------------------------
 .byte   W96
@  #13 @025   ----------------------------------------
 .byte   W96
@  #13 @026   ----------------------------------------
 .byte   W96
@  #13 @027   ----------------------------------------
 .byte   W96
@  #13 @028   ----------------------------------------
 .byte   W96
@  #13 @029   ----------------------------------------
 .byte   W96
@  #13 @030   ----------------------------------------
 .byte   W96
@  #13 @031   ----------------------------------------
 .byte   W96
@  #13 @032   ----------------------------------------
 .byte   W96
@  #13 @033   ----------------------------------------
 .byte   W96
@  #13 @034   ----------------------------------------
Label_01059519:
 .byte   W96
@  #13 @035   ----------------------------------------
 .byte   W96
@  #13 @036   ----------------------------------------
 .byte   W96
@  #13 @037   ----------------------------------------
 .byte   W96
@  #13 @038   ----------------------------------------
 .byte   W96
@  #13 @039   ----------------------------------------
 .byte   W96
@  #13 @040   ----------------------------------------
 .byte   W96
@  #13 @041   ----------------------------------------
 .byte   W96
@  #13 @042   ----------------------------------------
 .byte   W96
@  #13 @043   ----------------------------------------
 .byte   W96
@  #13 @044   ----------------------------------------
 .byte   W96
@  #13 @045   ----------------------------------------
 .byte   W96
@  #13 @046   ----------------------------------------
 .byte   W96
@  #13 @047   ----------------------------------------
 .byte   W96
@  #13 @048   ----------------------------------------
 .byte   W96
@  #13 @049   ----------------------------------------
 .byte   W96
@  #13 @050   ----------------------------------------
Label_01059529:
 .byte   N23 ,Fs2 ,v127
 .byte   W32
 .byte   N36
 .byte   W16
 .byte   W48
 .byte   PEND 
@  #13 @051   ----------------------------------------
 .byte   W96
@  #13 @052   ----------------------------------------
 .byte   PATT
  .word Label_01059529
@  #13 @053   ----------------------------------------
 .byte   W96
@  #13 @054   ----------------------------------------
 .byte   PATT
  .word Label_01059529
@  #13 @055   ----------------------------------------
 .byte   W96
@  #13 @056   ----------------------------------------
 .byte   N92 ,Fs2 ,v127
 .byte   W96
@  #13 @057   ----------------------------------------
 .byte   Gs2
 .byte   W96
@  #13 @058   ----------------------------------------
 .byte   W96
@  #13 @059   ----------------------------------------
 .byte   W96
@  #13 @060   ----------------------------------------
Label_01059546:
 .byte   N30 ,Fn2 ,v064
 .byte   W32
 .byte   N16 ,Fn2 ,v072
 .byte   W16
 .byte   Fn2 ,v080
 .byte   W16
 .byte   N15 ,Fn2 ,v088
 .byte   W16
 .byte   Fn2 ,v096
 .byte   W16
 .byte   PEND 
@  #13 @061   ----------------------------------------
Label_01059559:
 .byte   N30 ,Fn2 ,v104
 .byte   N92 ,Cn3 ,v127
 .byte   W32
 .byte   N16 ,Fn2 ,v112
 .byte   W16
 .byte   Fn2 ,v120
 .byte   W16
 .byte   N15 ,Fn2 ,v127
 .byte   W16
 .byte   N15
 .byte   W16
 .byte   PEND 
@  #13 @062   ----------------------------------------
 .byte   W96
@  #13 @063   ----------------------------------------
 .byte   W96
@  #13 @064   ----------------------------------------
 .byte   PATT
  .word Label_01059546
@  #13 @065   ----------------------------------------
Label_01059575:
 .byte   N30 ,Gn2 ,v104
 .byte   N92 ,Cn3 ,v127
 .byte   W32
 .byte   N16 ,Gn2 ,v112
 .byte   W16
 .byte   Gn2 ,v120
 .byte   W16
 .byte   N15 ,Gn2 ,v127
 .byte   W16
 .byte   N15
 .byte   W16
 .byte   PEND 
@  #13 @066   ----------------------------------------
 .byte   W96
@  #13 @067   ----------------------------------------
 .byte   W96
@  #13 @068   ----------------------------------------
 .byte   PATT
  .word Label_01059546
@  #13 @069   ----------------------------------------
 .byte   PATT
  .word Label_01059559
@  #13 @070   ----------------------------------------
 .byte   W96
@  #13 @071   ----------------------------------------
 .byte   W96
@  #13 @072   ----------------------------------------
 .byte   PATT
  .word Label_01059546
@  #13 @073   ----------------------------------------
 .byte   PATT
  .word Label_01059575
@  #13 @074   ----------------------------------------
 .byte   W96
@  #13 @075   ----------------------------------------
 .byte   W96
@  #13 @076   ----------------------------------------
 .byte   PATT
  .word Label_01059546
@  #13 @077   ----------------------------------------
 .byte   PATT
  .word Label_01059559
@  #13 @078   ----------------------------------------
 .byte   W96
@  #13 @079   ----------------------------------------
 .byte   W96
@  #13 @080   ----------------------------------------
 .byte   PATT
  .word Label_01059546
@  #13 @081   ----------------------------------------
 .byte   PATT
  .word Label_01059575
@  #13 @082   ----------------------------------------
 .byte   W96
@  #13 @083   ----------------------------------------
 .byte   W96
@  #13 @084   ----------------------------------------
 .byte   PATT
  .word Label_01059546
@  #13 @085   ----------------------------------------
 .byte   PATT
  .word Label_01059559
@  #13 @086   ----------------------------------------
 .byte   W96
@  #13 @087   ----------------------------------------
 .byte   W96
@  #13 @088   ----------------------------------------
 .byte   PATT
  .word Label_01059546
@  #13 @089   ----------------------------------------
 .byte   PATT
  .word Label_01059559
@  #13 @090   ----------------------------------------
 .byte   W96
@  #13 @091   ----------------------------------------
 .byte   W96
@  #13 @092   ----------------------------------------
 .byte   W96
@  #13 @093   ----------------------------------------
 .byte   W96
@  #13 @094   ----------------------------------------
 .byte   W96
@  #13 @095   ----------------------------------------
 .byte   W96
@  #13 @096   ----------------------------------------
 .byte   W96
@  #13 @097   ----------------------------------------
 .byte   W96
@  #13 @098   ----------------------------------------
 .byte   W96
@  #13 @099   ----------------------------------------
 .byte   W96
@  #13 @100   ----------------------------------------
 .byte   W96
@  #13 @101   ----------------------------------------
 .byte   W96
@  #13 @102   ----------------------------------------
 .byte   W96
@  #13 @103   ----------------------------------------
 .byte   W96
@  #13 @104   ----------------------------------------
 .byte   W96
@  #13 @105   ----------------------------------------
 .byte   N92 ,Cn3 ,v127
 .byte   W96
@  #13 @106   ----------------------------------------
 .byte   W96
@  #13 @107   ----------------------------------------
 .byte   W96
@  #13 @108   ----------------------------------------
 .byte   W96
@  #13 @109   ----------------------------------------
 .byte   W96
@  #13 @110   ----------------------------------------
 .byte   W96
@  #13 @111   ----------------------------------------
 .byte   W96
@  #13 @112   ----------------------------------------
 .byte   W96
@  #13 @113   ----------------------------------------
 .byte   W96
@  #13 @114   ----------------------------------------
 .byte   W96
@  #13 @115   ----------------------------------------
 .byte   W96
@  #13 @116   ----------------------------------------
 .byte   W96
@  #13 @117   ----------------------------------------
 .byte   W96
@  #13 @118   ----------------------------------------
 .byte   W96
@  #13 @119   ----------------------------------------
 .byte   W96
@  #13 @120   ----------------------------------------
 .byte   W96
@  #13 @121   ----------------------------------------
 .byte   W96
@  #13 @122   ----------------------------------------
 .byte   W96
@  #13 @123   ----------------------------------------
 .byte   W96
@  #13 @124   ----------------------------------------
 .byte   W96
@  #13 @125   ----------------------------------------
 .byte   W96
@  #13 @126   ----------------------------------------
 .byte   W96
@  #13 @127   ----------------------------------------
 .byte   W96
@  #13 @128   ----------------------------------------
 .byte   W96
@  #13 @129   ----------------------------------------
 .byte   W96
@  #13 @130   ----------------------------------------
 .byte   W96
@  #13 @131   ----------------------------------------
 .byte   W96
@  #13 @132   ----------------------------------------
 .byte   W96
@  #13 @133   ----------------------------------------
 .byte   W96
@  #13 @134   ----------------------------------------
 .byte   W96
@  #13 @135   ----------------------------------------
 .byte   W96
@  #13 @136   ----------------------------------------
 .byte   W96
@  #13 @137   ----------------------------------------
 .byte   W96
@  #13 @138   ----------------------------------------
 .byte   W96
@  #13 @139   ----------------------------------------
 .byte   W96
@  #13 @140   ----------------------------------------
 .byte   W96
@  #13 @141   ----------------------------------------
 .byte   W96
@  #13 @142   ----------------------------------------
 .byte   W96
@  #13 @143   ----------------------------------------
 .byte   W96
@  #13 @144   ----------------------------------------
 .byte   W96
@  #13 @145   ----------------------------------------
 .byte   W96
@  #13 @146   ----------------------------------------
 .byte   W96
@  #13 @147   ----------------------------------------
 .byte   W96
@  #13 @148   ----------------------------------------
 .byte   W96
@  #13 @149   ----------------------------------------
 .byte   W96
@  #13 @150   ----------------------------------------
 .byte   W96
@  #13 @151   ----------------------------------------
 .byte   W96
@  #13 @152   ----------------------------------------
 .byte   W96
@  #13 @153   ----------------------------------------
 .byte   W96
@  #13 @154   ----------------------------------------
 .byte   GOTO
  .word Label_01059519
 .byte   FINE

@**************** Track 14 (Midi-Chn.13) ****************@

song09_014:
@  #14 @000   ----------------------------------------
 .byte   KEYSH , song09_key+0
 .byte   VOICE , 116
 .byte   VOL , 43*song09_mvl/mxv
 .byte   PAN , c_v+0
 .byte   VOL , 43*song09_mvl/mxv
 .byte   PAN , c_v+0
 .byte   VOL , 43*song09_mvl/mxv
 .byte   PAN , c_v+0
 .byte   W96
@  #14 @001   ----------------------------------------
 .byte   W96
@  #14 @002   ----------------------------------------
 .byte   W96
@  #14 @003   ----------------------------------------
 .byte   W96
@  #14 @004   ----------------------------------------
 .byte   W96
@  #14 @005   ----------------------------------------
 .byte   W96
@  #14 @006   ----------------------------------------
 .byte   W96
@  #14 @007   ----------------------------------------
 .byte   W96
@  #14 @008   ----------------------------------------
 .byte   W96
@  #14 @009   ----------------------------------------
 .byte   W96
@  #14 @010   ----------------------------------------
 .byte   W96
@  #14 @011   ----------------------------------------
 .byte   W96
@  #14 @012   ----------------------------------------
 .byte   W96
@  #14 @013   ----------------------------------------
 .byte   W96
@  #14 @014   ----------------------------------------
 .byte   W96
@  #14 @015   ----------------------------------------
 .byte   W96
@  #14 @016   ----------------------------------------
 .byte   W96
@  #14 @017   ----------------------------------------
 .byte   W96
@  #14 @018   ----------------------------------------
 .byte   W96
@  #14 @019   ----------------------------------------
 .byte   W96
@  #14 @020   ----------------------------------------
 .byte   W96
@  #14 @021   ----------------------------------------
 .byte   W96
@  #14 @022   ----------------------------------------
 .byte   W96
@  #14 @023   ----------------------------------------
 .byte   W96
@  #14 @024   ----------------------------------------
 .byte   W96
@  #14 @025   ----------------------------------------
 .byte   W96
@  #14 @026   ----------------------------------------
 .byte   W96
@  #14 @027   ----------------------------------------
 .byte   W96
@  #14 @028   ----------------------------------------
 .byte   W96
@  #14 @029   ----------------------------------------
 .byte   W96
@  #14 @030   ----------------------------------------
 .byte   W96
@  #14 @031   ----------------------------------------
 .byte   W96
@  #14 @032   ----------------------------------------
 .byte   TIE ,Cn3 ,v127
 .byte   W96
@  #14 @033   ----------------------------------------
 .byte   W68
 .byte   W03
 .byte   EOT
 .byte   W24
 .byte   W01
@  #14 @034   ----------------------------------------
Label_01059655:
 .byte   W96
@  #14 @035   ----------------------------------------
 .byte   W96
@  #14 @036   ----------------------------------------
 .byte   W96
@  #14 @037   ----------------------------------------
 .byte   W96
@  #14 @038   ----------------------------------------
 .byte   W96
@  #14 @039   ----------------------------------------
 .byte   W96
@  #14 @040   ----------------------------------------
 .byte   W96
@  #14 @041   ----------------------------------------
 .byte   W96
@  #14 @042   ----------------------------------------
 .byte   W96
@  #14 @043   ----------------------------------------
 .byte   W96
@  #14 @044   ----------------------------------------
 .byte   W96
@  #14 @045   ----------------------------------------
 .byte   W96
@  #14 @046   ----------------------------------------
 .byte   W96
@  #14 @047   ----------------------------------------
 .byte   W96
@  #14 @048   ----------------------------------------
 .byte   W96
@  #14 @049   ----------------------------------------
 .byte   W96
@  #14 @050   ----------------------------------------
Label_01059665:
 .byte   N23 ,Fs2 ,v127
 .byte   W32
 .byte   N36
 .byte   W16
 .byte   W48
 .byte   PEND 
@  #14 @051   ----------------------------------------
 .byte   W96
@  #14 @052   ----------------------------------------
 .byte   PATT
  .word Label_01059665
@  #14 @053   ----------------------------------------
 .byte   W96
@  #14 @054   ----------------------------------------
 .byte   PATT
  .word Label_01059665
@  #14 @055   ----------------------------------------
 .byte   W96
@  #14 @056   ----------------------------------------
 .byte   N92 ,Fs2 ,v127
 .byte   W96
@  #14 @057   ----------------------------------------
 .byte   Gs2
 .byte   W96
@  #14 @058   ----------------------------------------
 .byte   W96
@  #14 @059   ----------------------------------------
 .byte   W96
@  #14 @060   ----------------------------------------
 .byte   W96
@  #14 @061   ----------------------------------------
 .byte   W96
@  #14 @062   ----------------------------------------
 .byte   W96
@  #14 @063   ----------------------------------------
 .byte   W96
@  #14 @064   ----------------------------------------
 .byte   W96
@  #14 @065   ----------------------------------------
 .byte   W96
@  #14 @066   ----------------------------------------
 .byte   W96
@  #14 @067   ----------------------------------------
 .byte   W96
@  #14 @068   ----------------------------------------
 .byte   W96
@  #14 @069   ----------------------------------------
 .byte   W96
@  #14 @070   ----------------------------------------
 .byte   W96
@  #14 @071   ----------------------------------------
 .byte   W96
@  #14 @072   ----------------------------------------
 .byte   W96
@  #14 @073   ----------------------------------------
 .byte   W96
@  #14 @074   ----------------------------------------
Label_01059690:
 .byte   N15 ,Fn4 ,v127
 .byte   W32
 .byte   Cn4
 .byte   W32
 .byte   N30 ,Fn4
 .byte   W08
 .byte   W24
 .byte   PEND 
@  #14 @075   ----------------------------------------
Label_0105969B:
 .byte   N15 ,Gn4 ,v127
 .byte   W32
 .byte   Cn4
 .byte   W32
 .byte   N30 ,Gn4
 .byte   W08
 .byte   W24
 .byte   PEND 
@  #14 @076   ----------------------------------------
Label_010596A6:
 .byte   N15 ,Gs4 ,v127
 .byte   W32
 .byte   Cn4
 .byte   W32
 .byte   N30 ,Gs4
 .byte   W08
 .byte   W24
 .byte   PEND 
@  #14 @077   ----------------------------------------
Label_010596B1:
 .byte   N15 ,As4 ,v127
 .byte   W32
 .byte   Cn4
 .byte   W32
 .byte   N30
 .byte   W08
 .byte   W24
 .byte   PEND 
@  #14 @078   ----------------------------------------
 .byte   PATT
  .word Label_01059690
@  #14 @079   ----------------------------------------
 .byte   PATT
  .word Label_0105969B
@  #14 @080   ----------------------------------------
 .byte   PATT
  .word Label_010596A6
@  #14 @081   ----------------------------------------
 .byte   PATT
  .word Label_010596B1
@  #14 @082   ----------------------------------------
 .byte   PATT
  .word Label_01059690
@  #14 @083   ----------------------------------------
 .byte   PATT
  .word Label_0105969B
@  #14 @084   ----------------------------------------
 .byte   PATT
  .word Label_010596A6
@  #14 @085   ----------------------------------------
 .byte   PATT
  .word Label_010596B1
@  #14 @086   ----------------------------------------
 .byte   PATT
  .word Label_01059690
@  #14 @087   ----------------------------------------
 .byte   PATT
  .word Label_0105969B
@  #14 @088   ----------------------------------------
 .byte   PATT
  .word Label_010596A6
@  #14 @089   ----------------------------------------
 .byte   PATT
  .word Label_010596B1
@  #14 @090   ----------------------------------------
 .byte   W96
@  #14 @091   ----------------------------------------
 .byte   W96
@  #14 @092   ----------------------------------------
 .byte   W96
@  #14 @093   ----------------------------------------
 .byte   W96
@  #14 @094   ----------------------------------------
 .byte   W96
@  #14 @095   ----------------------------------------
 .byte   W96
@  #14 @096   ----------------------------------------
 .byte   W96
@  #14 @097   ----------------------------------------
 .byte   W96
@  #14 @098   ----------------------------------------
 .byte   W96
@  #14 @099   ----------------------------------------
 .byte   W96
@  #14 @100   ----------------------------------------
 .byte   W96
@  #14 @101   ----------------------------------------
 .byte   W96
@  #14 @102   ----------------------------------------
 .byte   W96
@  #14 @103   ----------------------------------------
 .byte   W96
@  #14 @104   ----------------------------------------
 .byte   W96
@  #14 @105   ----------------------------------------
 .byte   W96
@  #14 @106   ----------------------------------------
 .byte   W96
@  #14 @107   ----------------------------------------
 .byte   W96
@  #14 @108   ----------------------------------------
 .byte   W96
@  #14 @109   ----------------------------------------
 .byte   W96
@  #14 @110   ----------------------------------------
 .byte   W96
@  #14 @111   ----------------------------------------
 .byte   W96
@  #14 @112   ----------------------------------------
 .byte   W96
@  #14 @113   ----------------------------------------
 .byte   W96
@  #14 @114   ----------------------------------------
 .byte   W96
@  #14 @115   ----------------------------------------
 .byte   W96
@  #14 @116   ----------------------------------------
 .byte   W96
@  #14 @117   ----------------------------------------
 .byte   W96
@  #14 @118   ----------------------------------------
 .byte   W96
@  #14 @119   ----------------------------------------
 .byte   W96
@  #14 @120   ----------------------------------------
 .byte   W96
@  #14 @121   ----------------------------------------
 .byte   W96
@  #14 @122   ----------------------------------------
 .byte   W96
@  #14 @123   ----------------------------------------
 .byte   W96
@  #14 @124   ----------------------------------------
 .byte   W96
@  #14 @125   ----------------------------------------
 .byte   W96
@  #14 @126   ----------------------------------------
 .byte   W96
@  #14 @127   ----------------------------------------
 .byte   W96
@  #14 @128   ----------------------------------------
 .byte   W96
@  #14 @129   ----------------------------------------
 .byte   W96
@  #14 @130   ----------------------------------------
 .byte   W96
@  #14 @131   ----------------------------------------
 .byte   W96
@  #14 @132   ----------------------------------------
 .byte   W96
@  #14 @133   ----------------------------------------
 .byte   W96
@  #14 @134   ----------------------------------------
 .byte   W96
@  #14 @135   ----------------------------------------
 .byte   W96
@  #14 @136   ----------------------------------------
 .byte   W96
@  #14 @137   ----------------------------------------
 .byte   W96
@  #14 @138   ----------------------------------------
 .byte   W96
@  #14 @139   ----------------------------------------
 .byte   W96
@  #14 @140   ----------------------------------------
 .byte   W96
@  #14 @141   ----------------------------------------
 .byte   W96
@  #14 @142   ----------------------------------------
 .byte   W96
@  #14 @143   ----------------------------------------
 .byte   W96
@  #14 @144   ----------------------------------------
 .byte   W96
@  #14 @145   ----------------------------------------
 .byte   W96
@  #14 @146   ----------------------------------------
 .byte   W96
@  #14 @147   ----------------------------------------
 .byte   W96
@  #14 @148   ----------------------------------------
 .byte   W96
@  #14 @149   ----------------------------------------
 .byte   W96
@  #14 @150   ----------------------------------------
 .byte   W96
@  #14 @151   ----------------------------------------
 .byte   W96
@  #14 @152   ----------------------------------------
 .byte   TIE ,Cn3 ,v127
 .byte   W96
@  #14 @153   ----------------------------------------
 .byte   W68
 .byte   W03
 .byte   EOT
 .byte   W24
 .byte   W01
@  #14 @154   ----------------------------------------
 .byte   GOTO
  .word Label_01059655
 .byte   FINE

@******************************************************@
	.align	2

song09:
	.byte	14	@ NumTrks
	.byte	0	@ NumBlks
	.byte	song09_pri	@ Priority
	.byte	song09_rev	@ Reverb.
    
	.word	song09_grp
    
	.word	song09_001
	.word	song09_002
	.word	song09_003
	.word	song09_004
	.word	song09_005
	.word	song09_006
	.word	song09_007
	.word	song09_008
	.word	song09_009
	.word	song09_010
	.word	song09_011
	.word	song09_012
	.word	song09_013
	.word	song09_014

	.end
