//Event file generated from Sappy .s format.
	#include "MPlayDef.event"

	#define	InnocenceGlitched_grp  voicegroup000
	#define	InnocenceGlitched_pri  0
	#define	InnocenceGlitched_rev  0
	#define	InnocenceGlitched_mvl  127
	#define	InnocenceGlitched_key  0
	#define	InnocenceGlitched_tbs  1
	#define	InnocenceGlitched_exg  0
	#define	InnocenceGlitched_cmp  1

	// .rodata
	//	InnocenceGlitched
	ALIGN 4


//**************** Track 1 (Midi-Chn.0) ****************//

InnocenceGlitched_001:
//  #01 //000   ----------------------------------------
 BYTE   VOL   52*InnocenceGlitched_mvl/mxv
 BYTE   KEYSH   InnocenceGlitched_key+0
 BYTE   TEMPO   120*InnocenceGlitched_tbs/2
 BYTE   VOICE   30
 BYTE   W96
//  #01 //001   ----------------------------------------
 BYTE   W96
//  #01 //002   ----------------------------------------
 BYTE   W96
//  #01 //003   ----------------------------------------
 BYTE   W96
//  #01 //004   ----------------------------------------
 BYTE   W96
//  #01 //005   ----------------------------------------
 BYTE   W96
//  #01 //006   ----------------------------------------
 BYTE   W96
//  #01 //007   ----------------------------------------
 BYTE   W96
//  #01 //008   ----------------------------------------
 BYTE   W96
//  #01 //009   ----------------------------------------
 BYTE   W96
//  #01 //010   ----------------------------------------
 BYTE   W96
//  #01 //011   ----------------------------------------
 BYTE   W96
//  #01 //012   ----------------------------------------
 BYTE   W96
//  #01 //013   ----------------------------------------
 BYTE   W96
//  #01 //014   ----------------------------------------
 BYTE   W96
//  #01 //015   ----------------------------------------
 BYTE   W96
//  #01 //016   ----------------------------------------
 BYTE   W96
//  #01 //017   ----------------------------------------
 BYTE   W96
//  #01 //018   ----------------------------------------
 BYTE   W96
//  #01 //019   ----------------------------------------
 BYTE   W96
//  #01 //020   ----------------------------------------
 BYTE   W96
//  #01 //021   ----------------------------------------
 BYTE   W96
//  #01 //022   ----------------------------------------
 BYTE   W96
//  #01 //023   ----------------------------------------
 BYTE   W96
//  #01 //024   ----------------------------------------
 BYTE   W96
//  #01 //025   ----------------------------------------
 BYTE   W96
//  #01 //026   ----------------------------------------
 BYTE   W96
//  #01 //027   ----------------------------------------
 BYTE   W72
 BYTE   N24  Cn3  v080
 BYTE   W24
//  #01 //028   ----------------------------------------
Label_D40E58:
 BYTE   N12  Cn1  v080
 BYTE   N48  Gn3
 BYTE   W12
 BYTE   N12  Cn1
 BYTE   W12
 BYTE   N12
 BYTE   W12
 BYTE   N12
 BYTE   W12
 BYTE   N12
 BYTE   N12  Gn3
 BYTE   W12
 BYTE   Cn1
 BYTE   N12  Gs3
 BYTE   W12
 BYTE   Cn1
 BYTE   N24  Gn3
 BYTE   W12
 BYTE   N12  Cn1
 BYTE   W12
 BYTE   PEND 
//  #01 //029   ----------------------------------------
Label_D40E75:
 BYTE   N12  Ds1  v080
 BYTE   N12  Fn3
 BYTE   W12
 BYTE   Ds1
 BYTE   N12  Gn3
 BYTE   W12
 BYTE   Ds1
 BYTE   N24  Fn3
 BYTE   W12
 BYTE   N12  Ds1
 BYTE   W12
 BYTE   N12
 BYTE   N12  Ds3
 BYTE   W12
 BYTE   Ds1
 BYTE   N12  Fn3
 BYTE   W12
 BYTE   Ds1
 BYTE   N24  Ds3
 BYTE   W12
 BYTE   N12  Ds1
 BYTE   W12
 BYTE   PEND 
//  #01 //030   ----------------------------------------
Label_D40E96:
 BYTE   N12  Gs0  v080
 BYTE   N48  Cn3
 BYTE   W12
 BYTE   N12  Gs0
 BYTE   W12
 BYTE   N12
 BYTE   W12
 BYTE   N12
 BYTE   W12
 BYTE   N12
 BYTE   N48  Cn4
 BYTE   W12
 BYTE   N12  Gs0
 BYTE   W12
 BYTE   N12
 BYTE   W12
 BYTE   N12
 BYTE   W12
 BYTE   PEND 
//  #01 //031   ----------------------------------------
Label_D40EAF:
 BYTE   N12  Bn0  v080
 BYTE   N12  Bn3
 BYTE   W12
 BYTE   Bn0
 BYTE   N12  Cn4
 BYTE   W12
 BYTE   Bn0
 BYTE   N24  Bn3
 BYTE   W12
 BYTE   N12  Bn0
 BYTE   W12
 BYTE   N12
 BYTE   N48  Gn3
 BYTE   W12
 BYTE   N12  Bn0
 BYTE   W12
 BYTE   N12
 BYTE   W12
 BYTE   N12
 BYTE   W12
 BYTE   PEND 
//  #01 //032   ----------------------------------------
 BYTE   PATT
  POIN2 Label_D40E58
//  #01 //033   ----------------------------------------
 BYTE   PATT
  POIN2 Label_D40E75
//  #01 //034   ----------------------------------------
 BYTE   PATT
  POIN2 Label_D40E96
//  #01 //035   ----------------------------------------
Label_D40EDB:
 BYTE   N12  Bn0  v080
 BYTE   N12  Bn3
 BYTE   W12
 BYTE   Bn0
 BYTE   N12  Cn4
 BYTE   W12
 BYTE   Bn0
 BYTE   N24  Ds4
 BYTE   W12
 BYTE   N12  Bn0
 BYTE   W12
 BYTE   N12
 BYTE   N48  Fn4
 BYTE   W12
 BYTE   N12  Bn0
 BYTE   W12
 BYTE   N12
 BYTE   W12
 BYTE   N12
 BYTE   W12
 BYTE   PEND 
//  #01 //036   ----------------------------------------
 BYTE   PATT
  POIN2 Label_D40E58
//  #01 //037   ----------------------------------------
 BYTE   PATT
  POIN2 Label_D40E75
//  #01 //038   ----------------------------------------
 BYTE   PATT
  POIN2 Label_D40E96
//  #01 //039   ----------------------------------------
 BYTE   PATT
  POIN2 Label_D40EAF
//  #01 //040   ----------------------------------------
 BYTE   PATT
  POIN2 Label_D40E58
//  #01 //041   ----------------------------------------
 BYTE   PATT
  POIN2 Label_D40E75
//  #01 //042   ----------------------------------------
 BYTE   PATT
  POIN2 Label_D40E96
//  #01 //043   ----------------------------------------
 BYTE   PATT
  POIN2 Label_D40EDB
//  #01 //044   ----------------------------------------
 BYTE   W96
//  #01 //045   ----------------------------------------
 BYTE   W96
//  #01 //046   ----------------------------------------
 BYTE   W96
//  #01 //047   ----------------------------------------
 BYTE   W96
//  #01 //048   ----------------------------------------
 BYTE   W96
//  #01 //049   ----------------------------------------
 BYTE   W96
//  #01 //050   ----------------------------------------
 BYTE   W96
//  #01 //051   ----------------------------------------
 BYTE   W96
//  #01 //052   ----------------------------------------
 BYTE   W96
//  #01 //053   ----------------------------------------
 BYTE   W96
//  #01 //054   ----------------------------------------
 BYTE   W96
//  #01 //055   ----------------------------------------
 BYTE   W96
//  #01 //056   ----------------------------------------
 BYTE   W96
//  #01 //057   ----------------------------------------
 BYTE   W96
//  #01 //058   ----------------------------------------
 BYTE   W96
//  #01 //059   ----------------------------------------
 BYTE   W96
//  #01 //060   ----------------------------------------
 BYTE   W96
//  #01 //061   ----------------------------------------
 BYTE   W96
//  #01 //062   ----------------------------------------
 BYTE   W96
//  #01 //063   ----------------------------------------
 BYTE   W96
//  #01 //064   ----------------------------------------
 BYTE   W96
//  #01 //065   ----------------------------------------
 BYTE   W96
//  #01 //066   ----------------------------------------
 BYTE   W96
//  #01 //067   ----------------------------------------
 BYTE   W72
 BYTE   N24  Cn3  v080
 BYTE   W24
//  #01 //068   ----------------------------------------
 BYTE   PATT
  POIN2 Label_D40E58
//  #01 //069   ----------------------------------------
 BYTE   PATT
  POIN2 Label_D40E75
//  #01 //070   ----------------------------------------
 BYTE   PATT
  POIN2 Label_D40E96
//  #01 //071   ----------------------------------------
 BYTE   PATT
  POIN2 Label_D40EAF
//  #01 //072   ----------------------------------------
 BYTE   PATT
  POIN2 Label_D40E58
//  #01 //073   ----------------------------------------
 BYTE   PATT
  POIN2 Label_D40E75
//  #01 //074   ----------------------------------------
 BYTE   PATT
  POIN2 Label_D40E96
//  #01 //075   ----------------------------------------
 BYTE   PATT
  POIN2 Label_D40EDB
//  #01 //076   ----------------------------------------
Label_D40F64:
 BYTE   N12  Cn1  v080
 BYTE   W12
 BYTE   N12
 BYTE   W12
 BYTE   N12
 BYTE   W12
 BYTE   N12
 BYTE   W12
 BYTE   N12
 BYTE   W12
 BYTE   N12
 BYTE   W12
 BYTE   N12
 BYTE   W12
 BYTE   N12
 BYTE   W12
 BYTE   PEND 
//  #01 //077   ----------------------------------------
Label_D40F77:
 BYTE   N12  Ds1  v080
 BYTE   W12
 BYTE   N12
 BYTE   W12
 BYTE   N12
 BYTE   W12
 BYTE   N12
 BYTE   W12
 BYTE   N12
 BYTE   W12
 BYTE   N12
 BYTE   W12
 BYTE   N12
 BYTE   W12
 BYTE   N12
 BYTE   W12
 BYTE   PEND 
//  #01 //078   ----------------------------------------
Label_D40F8A:
 BYTE   N12  Gs0  v080
 BYTE   W12
 BYTE   N12
 BYTE   W12
 BYTE   N12
 BYTE   W12
 BYTE   N12
 BYTE   W12
 BYTE   N12
 BYTE   W12
 BYTE   N12
 BYTE   W12
 BYTE   N12
 BYTE   W12
 BYTE   N12
 BYTE   W12
 BYTE   PEND 
//  #01 //079   ----------------------------------------
Label_D40F9D:
 BYTE   N12  Bn0  v080
 BYTE   W12
 BYTE   N12
 BYTE   W12
 BYTE   N12
 BYTE   W12
 BYTE   N12
 BYTE   W12
 BYTE   N12
 BYTE   W12
 BYTE   N12
 BYTE   W12
 BYTE   N12
 BYTE   W12
 BYTE   N12
 BYTE   W12
 BYTE   PEND 
//  #01 //080   ----------------------------------------
 BYTE   PATT
  POIN2 Label_D40F64
//  #01 //081   ----------------------------------------
 BYTE   PATT
  POIN2 Label_D40F77
//  #01 //082   ----------------------------------------
 BYTE   PATT
  POIN2 Label_D40F8A
//  #01 //083   ----------------------------------------
 BYTE   PATT
  POIN2 Label_D40F9D
//  #01 //084   ----------------------------------------
 BYTE   W96
//  #01 //085   ----------------------------------------
 BYTE   W96
//  #01 //086   ----------------------------------------
 BYTE   W96
//  #01 //087   ----------------------------------------
 BYTE   W96
//  #01 //088   ----------------------------------------
 BYTE   W96
//  #01 //089   ----------------------------------------
 BYTE   W96
//  #01 //090   ----------------------------------------
 BYTE   W96
//  #01 //091   ----------------------------------------
 BYTE   W96
//  #01 //092   ----------------------------------------
 BYTE   W96
//  #01 //093   ----------------------------------------
 BYTE   W96
//  #01 //094   ----------------------------------------
 BYTE   W96
//  #01 //095   ----------------------------------------
 BYTE   W96
//  #01 //096   ----------------------------------------
 BYTE   W96
//  #01 //097   ----------------------------------------
 BYTE   W96
//  #01 //098   ----------------------------------------
 BYTE   W96
//  #01 //099   ----------------------------------------
 BYTE   W96
//  #01 //100   ----------------------------------------
 BYTE   W96
//  #01 //101   ----------------------------------------
 BYTE   W96
//  #01 //102   ----------------------------------------
 BYTE   W96
//  #01 //103   ----------------------------------------
 BYTE   W96
//  #01 //104   ----------------------------------------
 BYTE   W96
//  #01 //105   ----------------------------------------
 BYTE   W96
//  #01 //106   ----------------------------------------
 BYTE   W96
//  #01 //107   ----------------------------------------
 BYTE   W72
 BYTE   N24  Cn3  v080
 BYTE   W24
//  #01 //108   ----------------------------------------
 BYTE   GoTo
  POIN2 Label_D40E58
//  #01 //109   ----------------------------------------
 BYTE   PATT
  POIN2 Label_D40E58
//  #01 //110   ----------------------------------------
 BYTE   PATT
  POIN2 Label_D40E75
//  #01 //111   ----------------------------------------
 BYTE   PATT
  POIN2 Label_D40E96
//  #01 //112   ----------------------------------------
 BYTE   PATT
  POIN2 Label_D40EAF
//  #01 //113   ----------------------------------------
 BYTE   PATT
  POIN2 Label_D40E58
//  #01 //114   ----------------------------------------
 BYTE   PATT
  POIN2 Label_D40E75
//  #01 //115   ----------------------------------------
 BYTE   PATT
  POIN2 Label_D40E96
//  #01 //116   ----------------------------------------
 BYTE   PATT
  POIN2 Label_D40EDB
//  #01 //117   ----------------------------------------
 BYTE   PATT
  POIN2 Label_D40E58
//  #01 //118   ----------------------------------------
 BYTE   PATT
  POIN2 Label_D40E75
//  #01 //119   ----------------------------------------
 BYTE   PATT
  POIN2 Label_D40E96
//  #01 //120   ----------------------------------------
 BYTE   PATT
  POIN2 Label_D40EAF
//  #01 //121   ----------------------------------------
 BYTE   PATT
  POIN2 Label_D40E58
//  #01 //122   ----------------------------------------
 BYTE   PATT
  POIN2 Label_D40E75
//  #01 //123   ----------------------------------------
 BYTE   PATT
  POIN2 Label_D40E96
//  #01 //124   ----------------------------------------
 BYTE   PATT
  POIN2 Label_D40EDB
//  #01 //125   ----------------------------------------
 BYTE   W96
//  #01 //126   ----------------------------------------
 BYTE   W96
//  #01 //127   ----------------------------------------
 BYTE   W96
//  #01 //128   ----------------------------------------
 BYTE   W96
//  #01 //129   ----------------------------------------
 BYTE   W96
//  #01 //130   ----------------------------------------
 BYTE   W96
//  #01 //131   ----------------------------------------
 BYTE   W96
//  #01 //132   ----------------------------------------
 BYTE   W96
//  #01 //133   ----------------------------------------
 BYTE   W96
//  #01 //134   ----------------------------------------
 BYTE   W96
//  #01 //135   ----------------------------------------
 BYTE   W96
//  #01 //136   ----------------------------------------
 BYTE   W96
//  #01 //137   ----------------------------------------
 BYTE   W96
//  #01 //138   ----------------------------------------
 BYTE   W96
//  #01 //139   ----------------------------------------
 BYTE   W96
//  #01 //140   ----------------------------------------
 BYTE   W96
//  #01 //141   ----------------------------------------
 BYTE   W96
//  #01 //142   ----------------------------------------
 BYTE   W96
//  #01 //143   ----------------------------------------
 BYTE   W96
//  #01 //144   ----------------------------------------
 BYTE   W96
//  #01 //145   ----------------------------------------
 BYTE   W96
//  #01 //146   ----------------------------------------
 BYTE   W96
//  #01 //147   ----------------------------------------
 BYTE   W96
//  #01 //148   ----------------------------------------
 BYTE   W72
 BYTE   N24  Cn3  v080
 BYTE   W24
//  #01 //149   ----------------------------------------
 BYTE   PATT
  POIN2 Label_D40E58
//  #01 //150   ----------------------------------------
 BYTE   PATT
  POIN2 Label_D40E75
//  #01 //151   ----------------------------------------
 BYTE   PATT
  POIN2 Label_D40E96
//  #01 //152   ----------------------------------------
 BYTE   PATT
  POIN2 Label_D40EAF
//  #01 //153   ----------------------------------------
 BYTE   PATT
  POIN2 Label_D40E58
//  #01 //154   ----------------------------------------
 BYTE   PATT
  POIN2 Label_D40E75
//  #01 //155   ----------------------------------------
 BYTE   PATT
  POIN2 Label_D40E96
//  #01 //156   ----------------------------------------
 BYTE   PATT
  POIN2 Label_D40EDB
//  #01 //157   ----------------------------------------
 BYTE   PATT
  POIN2 Label_D40F64
//  #01 //158   ----------------------------------------
 BYTE   PATT
  POIN2 Label_D40F77
//  #01 //159   ----------------------------------------
 BYTE   PATT
  POIN2 Label_D40F8A
//  #01 //160   ----------------------------------------
 BYTE   PATT
  POIN2 Label_D40F9D
//  #01 //161   ----------------------------------------
 BYTE   PATT
  POIN2 Label_D40F64
//  #01 //162   ----------------------------------------
 BYTE   PATT
  POIN2 Label_D40F77
//  #01 //163   ----------------------------------------
 BYTE   PATT
  POIN2 Label_D40F8A
//  #01 //164   ----------------------------------------
 BYTE   PATT
  POIN2 Label_D40F9D
 BYTE   FINE

//**************** Track 2 (Midi-Chn.1) ****************//

InnocenceGlitched_002:
//  #02 //000   ----------------------------------------
 BYTE   VOL   52*InnocenceGlitched_mvl/mxv
 BYTE   KEYSH   InnocenceGlitched_key+0
 BYTE   VOICE   38
 BYTE   W96
//  #02 //001   ----------------------------------------
 BYTE   W96
//  #02 //002   ----------------------------------------
 BYTE   W96
//  #02 //003   ----------------------------------------
 BYTE   W96
//  #02 //004   ----------------------------------------
 BYTE   N96  Cn1  v080
 BYTE   W96
//  #02 //005   ----------------------------------------
 BYTE   Ds1
 BYTE   W96
//  #02 //006   ----------------------------------------
 BYTE   Gs0
 BYTE   W96
//  #02 //007   ----------------------------------------
 BYTE   Bn0
 BYTE   W96
//  #02 //008   ----------------------------------------
Label_D410B8:
 BYTE   N12  Cn1  v080
 BYTE   W12
 BYTE   N12
 BYTE   W12
 BYTE   N12
 BYTE   W12
 BYTE   N12
 BYTE   W12
 BYTE   N12
 BYTE   W12
 BYTE   N12
 BYTE   W12
 BYTE   N12
 BYTE   W12
 BYTE   N12
 BYTE   W12
 BYTE   PEND 
//  #02 //009   ----------------------------------------
Label_D410CB:
 BYTE   N12  Ds1  v080
 BYTE   W12
 BYTE   N12
 BYTE   W12
 BYTE   N12
 BYTE   W12
 BYTE   N12
 BYTE   W12
 BYTE   N12
 BYTE   W12
 BYTE   N12
 BYTE   W12
 BYTE   N12
 BYTE   W12
 BYTE   N12
 BYTE   W12
 BYTE   PEND 
//  #02 //010   ----------------------------------------
Label_D410DE:
 BYTE   N12  Gs0  v080
 BYTE   W12
 BYTE   N12
 BYTE   W12
 BYTE   N12
 BYTE   W12
 BYTE   N12
 BYTE   W12
 BYTE   N12
 BYTE   W12
 BYTE   N12
 BYTE   W12
 BYTE   N12
 BYTE   W12
 BYTE   N12
 BYTE   W12
 BYTE   PEND 
//  #02 //011   ----------------------------------------
Label_D410F1:
 BYTE   N12  Bn0  v080
 BYTE   W12
 BYTE   N12
 BYTE   W12
 BYTE   N12
 BYTE   W12
 BYTE   N12
 BYTE   W12
 BYTE   N12
 BYTE   W12
 BYTE   N12
 BYTE   W12
 BYTE   N12
 BYTE   W12
 BYTE   N12
 BYTE   W12
 BYTE   PEND 
//  #02 //012   ----------------------------------------
 BYTE   PATT
  POIN2 Label_D410B8
//  #02 //013   ----------------------------------------
 BYTE   PATT
  POIN2 Label_D410CB
//  #02 //014   ----------------------------------------
 BYTE   PATT
  POIN2 Label_D410DE
//  #02 //015   ----------------------------------------
 BYTE   PATT
  POIN2 Label_D410F1
//  #02 //016   ----------------------------------------
 BYTE   PATT
  POIN2 Label_D410B8
//  #02 //017   ----------------------------------------
 BYTE   PATT
  POIN2 Label_D410CB
//  #02 //018   ----------------------------------------
 BYTE   PATT
  POIN2 Label_D410DE
//  #02 //019   ----------------------------------------
 BYTE   PATT
  POIN2 Label_D410F1
//  #02 //020   ----------------------------------------
 BYTE   W96
//  #02 //021   ----------------------------------------
 BYTE   W96
//  #02 //022   ----------------------------------------
 BYTE   W96
//  #02 //023   ----------------------------------------
 BYTE   W96
//  #02 //024   ----------------------------------------
Label_D41130:
 BYTE   N12  Cn1  v080
 BYTE   N12  Cn2
 BYTE   W12
 BYTE   Cn1
 BYTE   N12  Cn2
 BYTE   W12
 BYTE   Cn1
 BYTE   N12  Cn2
 BYTE   W12
 BYTE   Cn1
 BYTE   N12  Cn2
 BYTE   W24
 BYTE   Cn1
 BYTE   N12  Cn2
 BYTE   W12
 BYTE   Cn1
 BYTE   N12  Cn2
 BYTE   W12
 BYTE   Cn1
 BYTE   N12  Cn2
 BYTE   W12
 BYTE   PEND 
//  #02 //025   ----------------------------------------
Label_D4114F:
 BYTE   N12  Ds1  v080
 BYTE   N12  Ds2
 BYTE   W12
 BYTE   Ds1
 BYTE   N12  Ds2
 BYTE   W12
 BYTE   Ds1
 BYTE   N12  Ds2
 BYTE   W12
 BYTE   Ds1
 BYTE   N12  Ds2
 BYTE   W24
 BYTE   Ds1
 BYTE   N12  Ds2
 BYTE   W12
 BYTE   Ds1
 BYTE   N12  Ds2
 BYTE   W12
 BYTE   Ds1
 BYTE   N12  Ds2
 BYTE   W12
 BYTE   PEND 
//  #02 //026   ----------------------------------------
Label_D4116E:
 BYTE   N12  Gs0  v080
 BYTE   N12  Gs1
 BYTE   W12
 BYTE   Gs0
 BYTE   N12  Gs1
 BYTE   W12
 BYTE   Gs0
 BYTE   N12  Gs1
 BYTE   W12
 BYTE   Gs0
 BYTE   N12  Gs1
 BYTE   W24
 BYTE   Gs0
 BYTE   N12  Gs1
 BYTE   W12
 BYTE   Gs0
 BYTE   N12  Gs1
 BYTE   W12
 BYTE   Gs0
 BYTE   N12  Gs1
 BYTE   W12
 BYTE   PEND 
//  #02 //027   ----------------------------------------
Label_D4118D:
 BYTE   N12  Bn0  v080
 BYTE   N12  Bn1
 BYTE   W12
 BYTE   Bn0
 BYTE   N12  Bn1
 BYTE   W12
 BYTE   Bn0
 BYTE   N12  Bn1
 BYTE   W12
 BYTE   Bn0
 BYTE   N12  Bn1
 BYTE   W24
 BYTE   Bn0
 BYTE   N12  Bn1
 BYTE   W12
 BYTE   Bn0
 BYTE   N12  Bn1
 BYTE   W12
 BYTE   Bn0
 BYTE   N12  Bn1
 BYTE   W12
 BYTE   PEND 
//  #02 //028   ----------------------------------------
Label_D411AC:
 BYTE   N12  Cn1  v080
 BYTE   N12  Cn2
 BYTE   W12
 BYTE   Cn1
 BYTE   N12  Cn2
 BYTE   W12
 BYTE   Cn1
 BYTE   N12  Cn2
 BYTE   W12
 BYTE   Cn1
 BYTE   N12  Cn2
 BYTE   W12
 BYTE   Cn1
 BYTE   N12  Cn2
 BYTE   W12
 BYTE   Cn1
 BYTE   N12  Cn2
 BYTE   W12
 BYTE   Cn1
 BYTE   N12  Cn2
 BYTE   W12
 BYTE   Cn1
 BYTE   N12  Cn2
 BYTE   W12
 BYTE   PEND 
//  #02 //029   ----------------------------------------
Label_D411CF:
 BYTE   N12  Ds1  v080
 BYTE   N12  Ds2
 BYTE   W12
 BYTE   Ds1
 BYTE   N12  Ds2
 BYTE   W12
 BYTE   Ds1
 BYTE   N12  Ds2
 BYTE   W12
 BYTE   Ds1
 BYTE   N12  Ds2
 BYTE   W12
 BYTE   Ds1
 BYTE   N12  Ds2
 BYTE   W12
 BYTE   Ds1
 BYTE   N12  Ds2
 BYTE   W12
 BYTE   Ds1
 BYTE   N12  Ds2
 BYTE   W12
 BYTE   Ds1
 BYTE   N12  Ds2
 BYTE   W12
 BYTE   PEND 
//  #02 //030   ----------------------------------------
Label_D411F2:
 BYTE   N12  Gs0  v080
 BYTE   N12  Gs1
 BYTE   W12
 BYTE   Gs0
 BYTE   N12  Gs1
 BYTE   W12
 BYTE   Gs0
 BYTE   N12  Gs1
 BYTE   W12
 BYTE   Gs0
 BYTE   N12  Gs1
 BYTE   W12
 BYTE   Gs0
 BYTE   N12  Gs1
 BYTE   W12
 BYTE   Gs0
 BYTE   N12  Gs1
 BYTE   W12
 BYTE   Gs0
 BYTE   N12  Gs1
 BYTE   W12
 BYTE   Gs0
 BYTE   N12  Gs1
 BYTE   W12
 BYTE   PEND 
//  #02 //031   ----------------------------------------
Label_D41215:
 BYTE   N12  Bn0  v080
 BYTE   N12  Bn1
 BYTE   W12
 BYTE   Bn0
 BYTE   N12  Bn1
 BYTE   W12
 BYTE   Bn0
 BYTE   N12  Bn1
 BYTE   W12
 BYTE   Bn0
 BYTE   N12  Bn1
 BYTE   W12
 BYTE   Bn0
 BYTE   N12  Bn1
 BYTE   W12
 BYTE   Bn0
 BYTE   N12  Bn1
 BYTE   W12
 BYTE   Bn0
 BYTE   N12  Bn1
 BYTE   W12
 BYTE   Bn0
 BYTE   N12  Bn1
 BYTE   W12
 BYTE   PEND 
//  #02 //032   ----------------------------------------
 BYTE   PATT
  POIN2 Label_D411AC
//  #02 //033   ----------------------------------------
 BYTE   PATT
  POIN2 Label_D411CF
//  #02 //034   ----------------------------------------
 BYTE   PATT
  POIN2 Label_D411F2
//  #02 //035   ----------------------------------------
 BYTE   PATT
  POIN2 Label_D41215
//  #02 //036   ----------------------------------------
 BYTE   PATT
  POIN2 Label_D411AC
//  #02 //037   ----------------------------------------
 BYTE   PATT
  POIN2 Label_D411CF
//  #02 //038   ----------------------------------------
 BYTE   PATT
  POIN2 Label_D411F2
//  #02 //039   ----------------------------------------
 BYTE   PATT
  POIN2 Label_D41215
//  #02 //040   ----------------------------------------
 BYTE   PATT
  POIN2 Label_D411AC
//  #02 //041   ----------------------------------------
 BYTE   PATT
  POIN2 Label_D411CF
//  #02 //042   ----------------------------------------
 BYTE   PATT
  POIN2 Label_D411F2
//  #02 //043   ----------------------------------------
 BYTE   PATT
  POIN2 Label_D41215
//  #02 //044   ----------------------------------------
 BYTE   W96
//  #02 //045   ----------------------------------------
 BYTE   W96
//  #02 //046   ----------------------------------------
 BYTE   W96
//  #02 //047   ----------------------------------------
 BYTE   W96
//  #02 //048   ----------------------------------------
 BYTE   W96
//  #02 //049   ----------------------------------------
 BYTE   W96
//  #02 //050   ----------------------------------------
 BYTE   W96
//  #02 //051   ----------------------------------------
 BYTE   W96
//  #02 //052   ----------------------------------------
 BYTE   W96
//  #02 //053   ----------------------------------------
 BYTE   W96
//  #02 //054   ----------------------------------------
 BYTE   W96
//  #02 //055   ----------------------------------------
 BYTE   W96
//  #02 //056   ----------------------------------------
 BYTE   W96
//  #02 //057   ----------------------------------------
 BYTE   W96
//  #02 //058   ----------------------------------------
 BYTE   W96
//  #02 //059   ----------------------------------------
 BYTE   W96
//  #02 //060   ----------------------------------------
 BYTE   W96
//  #02 //061   ----------------------------------------
 BYTE   W96
//  #02 //062   ----------------------------------------
 BYTE   W96
//  #02 //063   ----------------------------------------
 BYTE   W96
//  #02 //064   ----------------------------------------
 BYTE   W96
//  #02 //065   ----------------------------------------
 BYTE   W96
//  #02 //066   ----------------------------------------
 BYTE   W96
//  #02 //067   ----------------------------------------
 BYTE   W96
//  #02 //068   ----------------------------------------
 BYTE   PATT
  POIN2 Label_D411AC
//  #02 //069   ----------------------------------------
 BYTE   PATT
  POIN2 Label_D411CF
//  #02 //070   ----------------------------------------
 BYTE   PATT
  POIN2 Label_D411F2
//  #02 //071   ----------------------------------------
 BYTE   PATT
  POIN2 Label_D41215
//  #02 //072   ----------------------------------------
 BYTE   PATT
  POIN2 Label_D411AC
//  #02 //073   ----------------------------------------
 BYTE   PATT
  POIN2 Label_D411CF
//  #02 //074   ----------------------------------------
 BYTE   PATT
  POIN2 Label_D411F2
//  #02 //075   ----------------------------------------
 BYTE   PATT
  POIN2 Label_D41215
//  #02 //076   ----------------------------------------
 BYTE   PATT
  POIN2 Label_D411AC
//  #02 //077   ----------------------------------------
 BYTE   PATT
  POIN2 Label_D411CF
//  #02 //078   ----------------------------------------
 BYTE   PATT
  POIN2 Label_D411F2
//  #02 //079   ----------------------------------------
 BYTE   PATT
  POIN2 Label_D41215
//  #02 //080   ----------------------------------------
 BYTE   PATT
  POIN2 Label_D411AC
//  #02 //081   ----------------------------------------
 BYTE   PATT
  POIN2 Label_D411CF
//  #02 //082   ----------------------------------------
 BYTE   PATT
  POIN2 Label_D411F2
//  #02 //083   ----------------------------------------
 BYTE   PATT
  POIN2 Label_D41215
//  #02 //084   ----------------------------------------
 BYTE   N96  Cn1  v080
 BYTE   W96
//  #02 //085   ----------------------------------------
 BYTE   Ds1
 BYTE   W96
//  #02 //086   ----------------------------------------
 BYTE   Gs0
 BYTE   W96
//  #02 //087   ----------------------------------------
 BYTE   Bn0
 BYTE   W96
//  #02 //088   ----------------------------------------
 BYTE   PATT
  POIN2 Label_D410B8
//  #02 //089   ----------------------------------------
 BYTE   PATT
  POIN2 Label_D410CB
//  #02 //090   ----------------------------------------
 BYTE   PATT
  POIN2 Label_D410DE
//  #02 //091   ----------------------------------------
 BYTE   PATT
  POIN2 Label_D410F1
//  #02 //092   ----------------------------------------
 BYTE   PATT
  POIN2 Label_D410B8
//  #02 //093   ----------------------------------------
 BYTE   PATT
  POIN2 Label_D410CB
//  #02 //094   ----------------------------------------
 BYTE   PATT
  POIN2 Label_D410DE
//  #02 //095   ----------------------------------------
 BYTE   PATT
  POIN2 Label_D410F1
//  #02 //096   ----------------------------------------
 BYTE   PATT
  POIN2 Label_D410B8
//  #02 //097   ----------------------------------------
 BYTE   PATT
  POIN2 Label_D410CB
//  #02 //098   ----------------------------------------
 BYTE   PATT
  POIN2 Label_D410DE
//  #02 //099   ----------------------------------------
 BYTE   PATT
  POIN2 Label_D410F1
//  #02 //100   ----------------------------------------
 BYTE   W96
//  #02 //101   ----------------------------------------
 BYTE   W96
//  #02 //102   ----------------------------------------
 BYTE   W96
//  #02 //103   ----------------------------------------
 BYTE   W96
//  #02 //104   ----------------------------------------
 BYTE   PATT
  POIN2 Label_D41130
//  #02 //105   ----------------------------------------
 BYTE   PATT
  POIN2 Label_D4114F
//  #02 //106   ----------------------------------------
 BYTE   PATT
  POIN2 Label_D4116E
//  #02 //107   ----------------------------------------
 BYTE   PATT
  POIN2 Label_D4118D
//  #02 //108   ----------------------------------------
 BYTE   GoTo
  POIN2 Label_D411AC
//  #02 //109   ----------------------------------------
 BYTE   PATT
  POIN2 Label_D411AC
//  #02 //110   ----------------------------------------
 BYTE   PATT
  POIN2 Label_D411CF
//  #02 //111   ----------------------------------------
 BYTE   PATT
  POIN2 Label_D411F2
//  #02 //112   ----------------------------------------
 BYTE   PATT
  POIN2 Label_D41215
//  #02 //113   ----------------------------------------
 BYTE   PATT
  POIN2 Label_D411AC
//  #02 //114   ----------------------------------------
 BYTE   PATT
  POIN2 Label_D411CF
//  #02 //115   ----------------------------------------
 BYTE   PATT
  POIN2 Label_D411F2
//  #02 //116   ----------------------------------------
 BYTE   PATT
  POIN2 Label_D41215
//  #02 //117   ----------------------------------------
 BYTE   PATT
  POIN2 Label_D411AC
//  #02 //118   ----------------------------------------
 BYTE   PATT
  POIN2 Label_D411CF
//  #02 //119   ----------------------------------------
 BYTE   PATT
  POIN2 Label_D411F2
//  #02 //120   ----------------------------------------
 BYTE   PATT
  POIN2 Label_D41215
//  #02 //121   ----------------------------------------
 BYTE   PATT
  POIN2 Label_D411AC
//  #02 //122   ----------------------------------------
 BYTE   PATT
  POIN2 Label_D411CF
//  #02 //123   ----------------------------------------
 BYTE   PATT
  POIN2 Label_D411F2
//  #02 //124   ----------------------------------------
 BYTE   PATT
  POIN2 Label_D41215
//  #02 //125   ----------------------------------------
 BYTE   W96
//  #02 //126   ----------------------------------------
 BYTE   W96
//  #02 //127   ----------------------------------------
 BYTE   W96
//  #02 //128   ----------------------------------------
 BYTE   W96
//  #02 //129   ----------------------------------------
 BYTE   W96
//  #02 //130   ----------------------------------------
 BYTE   W96
//  #02 //131   ----------------------------------------
 BYTE   W96
//  #02 //132   ----------------------------------------
 BYTE   W96
//  #02 //133   ----------------------------------------
 BYTE   W96
//  #02 //134   ----------------------------------------
 BYTE   W96
//  #02 //135   ----------------------------------------
 BYTE   W96
//  #02 //136   ----------------------------------------
 BYTE   W96
//  #02 //137   ----------------------------------------
 BYTE   W96
//  #02 //138   ----------------------------------------
 BYTE   W96
//  #02 //139   ----------------------------------------
 BYTE   W96
//  #02 //140   ----------------------------------------
 BYTE   W96
//  #02 //141   ----------------------------------------
 BYTE   W96
//  #02 //142   ----------------------------------------
 BYTE   W96
//  #02 //143   ----------------------------------------
 BYTE   W96
//  #02 //144   ----------------------------------------
 BYTE   W96
//  #02 //145   ----------------------------------------
 BYTE   W96
//  #02 //146   ----------------------------------------
 BYTE   W96
//  #02 //147   ----------------------------------------
 BYTE   W96
//  #02 //148   ----------------------------------------
 BYTE   W96
//  #02 //149   ----------------------------------------
 BYTE   PATT
  POIN2 Label_D411AC
//  #02 //150   ----------------------------------------
 BYTE   PATT
  POIN2 Label_D411CF
//  #02 //151   ----------------------------------------
 BYTE   PATT
  POIN2 Label_D411F2
//  #02 //152   ----------------------------------------
 BYTE   PATT
  POIN2 Label_D41215
//  #02 //153   ----------------------------------------
 BYTE   PATT
  POIN2 Label_D411AC
//  #02 //154   ----------------------------------------
 BYTE   PATT
  POIN2 Label_D411CF
//  #02 //155   ----------------------------------------
 BYTE   PATT
  POIN2 Label_D411F2
//  #02 //156   ----------------------------------------
 BYTE   PATT
  POIN2 Label_D41215
//  #02 //157   ----------------------------------------
 BYTE   PATT
  POIN2 Label_D411AC
//  #02 //158   ----------------------------------------
 BYTE   PATT
  POIN2 Label_D411CF
//  #02 //159   ----------------------------------------
 BYTE   PATT
  POIN2 Label_D411F2
//  #02 //160   ----------------------------------------
 BYTE   PATT
  POIN2 Label_D41215
//  #02 //161   ----------------------------------------
 BYTE   PATT
  POIN2 Label_D411AC
//  #02 //162   ----------------------------------------
 BYTE   PATT
  POIN2 Label_D411CF
//  #02 //163   ----------------------------------------
 BYTE   PATT
  POIN2 Label_D411F2
//  #02 //164   ----------------------------------------
 BYTE   PATT
  POIN2 Label_D41215
 BYTE   FINE

//**************** Track 3 (Midi-Chn.2) ****************//

InnocenceGlitched_003:
//  #03 //000   ----------------------------------------
 BYTE   VOL   52*InnocenceGlitched_mvl/mxv
 BYTE   KEYSH   InnocenceGlitched_key+0
 BYTE   VOICE   48
 BYTE   W96
//  #03 //001   ----------------------------------------
 BYTE   W96
//  #03 //002   ----------------------------------------
 BYTE   W96
//  #03 //003   ----------------------------------------
 BYTE   W96
//  #03 //004   ----------------------------------------
 BYTE   W96
//  #03 //005   ----------------------------------------
 BYTE   W96
//  #03 //006   ----------------------------------------
 BYTE   W96
//  #03 //007   ----------------------------------------
 BYTE   W96
//  #03 //008   ----------------------------------------
 BYTE   W96
//  #03 //009   ----------------------------------------
 BYTE   W96
//  #03 //010   ----------------------------------------
 BYTE   W96
//  #03 //011   ----------------------------------------
 BYTE   W96
//  #03 //012   ----------------------------------------
 BYTE   W96
//  #03 //013   ----------------------------------------
 BYTE   W96
//  #03 //014   ----------------------------------------
 BYTE   W96
//  #03 //015   ----------------------------------------
 BYTE   W96
//  #03 //016   ----------------------------------------
 BYTE   W96
//  #03 //017   ----------------------------------------
 BYTE   W96
//  #03 //018   ----------------------------------------
 BYTE   W96
//  #03 //019   ----------------------------------------
 BYTE   W96
//  #03 //020   ----------------------------------------
 BYTE   W96
//  #03 //021   ----------------------------------------
 BYTE   W96
//  #03 //022   ----------------------------------------
 BYTE   W96
//  #03 //023   ----------------------------------------
 BYTE   W96
//  #03 //024   ----------------------------------------
 BYTE   W96
//  #03 //025   ----------------------------------------
 BYTE   W96
//  #03 //026   ----------------------------------------
 BYTE   W96
//  #03 //027   ----------------------------------------
 BYTE   W96
//  #03 //028   ----------------------------------------
Label_D40616:
 BYTE   N24  Cn3  v080
 BYTE   W24
 BYTE   N24
 BYTE   W24
 BYTE   N24
 BYTE   W24
 BYTE   N24
 BYTE   W24
 BYTE   PEND 
//  #03 //029   ----------------------------------------
Label_D40621:
 BYTE   N24  Ds3  v080
 BYTE   W24
 BYTE   N24
 BYTE   W24
 BYTE   N24
 BYTE   W24
 BYTE   N24
 BYTE   W24
 BYTE   PEND 
//  #03 //030   ----------------------------------------
Label_D4062C:
 BYTE   N24  Gs2  v080
 BYTE   W24
 BYTE   N24
 BYTE   W24
 BYTE   N24
 BYTE   W24
 BYTE   N24
 BYTE   W24
 BYTE   PEND 
//  #03 //031   ----------------------------------------
Label_D40637:
 BYTE   N24  Bn2  v080
 BYTE   W24
 BYTE   N24
 BYTE   W24
 BYTE   N24
 BYTE   W24
 BYTE   N24
 BYTE   W24
 BYTE   PEND 
//  #03 //032   ----------------------------------------
 BYTE   PATT
  POIN2 Label_D40616
//  #03 //033   ----------------------------------------
 BYTE   PATT
  POIN2 Label_D40621
//  #03 //034   ----------------------------------------
 BYTE   PATT
  POIN2 Label_D4062C
//  #03 //035   ----------------------------------------
 BYTE   PATT
  POIN2 Label_D40637
//  #03 //036   ----------------------------------------
 BYTE   W96
//  #03 //037   ----------------------------------------
 BYTE   W96
//  #03 //038   ----------------------------------------
 BYTE   W96
//  #03 //039   ----------------------------------------
 BYTE   W96
//  #03 //040   ----------------------------------------
 BYTE   W96
//  #03 //041   ----------------------------------------
 BYTE   W96
//  #03 //042   ----------------------------------------
 BYTE   W96
//  #03 //043   ----------------------------------------
 BYTE   W96
//  #03 //044   ----------------------------------------
 BYTE   W96
//  #03 //045   ----------------------------------------
Label_D4065F:
 BYTE   N96  Cn3  v080
 BYTE   W01
 BYTE   Ds3
 BYTE   W02
 BYTE   Gn3
 BYTE   W92
 BYTE   W01
 BYTE   PEND 
//  #03 //046   ----------------------------------------
Label_D40669:
 BYTE   TIE  Cn3  v080
 BYTE   W01
 BYTE   Fn3
 BYTE   W92
 BYTE   W03
 BYTE   PEND 
//  #03 //047   ----------------------------------------
 BYTE   W48
 BYTE   EOT
 BYTE   Cn3
 BYTE   W01
 BYTE   Fn3
 BYTE   W44
 BYTE   W03
//  #03 //048   ----------------------------------------
Label_D40678:
 BYTE   N96  Ds3  v080
 BYTE   W01
 BYTE   Gn3
 BYTE   W02
 BYTE   Cn4
 BYTE   W92
 BYTE   W01
 BYTE   PEND 
//  #03 //049   ----------------------------------------
 BYTE   PATT
  POIN2 Label_D4065F
//  #03 //050   ----------------------------------------
Label_D40687:
 BYTE   N96  Bn2  v080
 BYTE   W01
 BYTE   Ds3
 BYTE   W02
 BYTE   Gn3
 BYTE   W92
 BYTE   W01
 BYTE   PEND 
//  #03 //051   ----------------------------------------
Label_D40691:
 BYTE   N96  Gn2  v080
 BYTE   W01
 BYTE   Bn2
 BYTE   W02
 BYTE   Ds3
 BYTE   W92
 BYTE   W01
 BYTE   PEND 
//  #03 //052   ----------------------------------------
 BYTE   W96
//  #03 //053   ----------------------------------------
 BYTE   W96
//  #03 //054   ----------------------------------------
 BYTE   W96
//  #03 //055   ----------------------------------------
 BYTE   W96
//  #03 //056   ----------------------------------------
 BYTE   W96
//  #03 //057   ----------------------------------------
 BYTE   W96
//  #03 //058   ----------------------------------------
 BYTE   W96
//  #03 //059   ----------------------------------------
 BYTE   W96
//  #03 //060   ----------------------------------------
 BYTE   W96
//  #03 //061   ----------------------------------------
 BYTE   W96
//  #03 //062   ----------------------------------------
 BYTE   W96
//  #03 //063   ----------------------------------------
 BYTE   W96
//  #03 //064   ----------------------------------------
 BYTE   W96
//  #03 //065   ----------------------------------------
 BYTE   W96
//  #03 //066   ----------------------------------------
 BYTE   W96
//  #03 //067   ----------------------------------------
 BYTE   W96
//  #03 //068   ----------------------------------------
 BYTE   PATT
  POIN2 Label_D40616
//  #03 //069   ----------------------------------------
 BYTE   PATT
  POIN2 Label_D40621
//  #03 //070   ----------------------------------------
 BYTE   PATT
  POIN2 Label_D4062C
//  #03 //071   ----------------------------------------
 BYTE   PATT
  POIN2 Label_D40637
//  #03 //072   ----------------------------------------
 BYTE   PATT
  POIN2 Label_D40616
//  #03 //073   ----------------------------------------
 BYTE   PATT
  POIN2 Label_D40621
//  #03 //074   ----------------------------------------
 BYTE   PATT
  POIN2 Label_D4062C
//  #03 //075   ----------------------------------------
 BYTE   PATT
  POIN2 Label_D40637
//  #03 //076   ----------------------------------------
 BYTE   W96
//  #03 //077   ----------------------------------------
 BYTE   W96
//  #03 //078   ----------------------------------------
 BYTE   W96
//  #03 //079   ----------------------------------------
 BYTE   W96
//  #03 //080   ----------------------------------------
 BYTE   W96
//  #03 //081   ----------------------------------------
 BYTE   W96
//  #03 //082   ----------------------------------------
 BYTE   W96
//  #03 //083   ----------------------------------------
 BYTE   W96
//  #03 //084   ----------------------------------------
 BYTE   W96
//  #03 //085   ----------------------------------------
 BYTE   W96
//  #03 //086   ----------------------------------------
 BYTE   W96
//  #03 //087   ----------------------------------------
 BYTE   W96
//  #03 //088   ----------------------------------------
 BYTE   W96
//  #03 //089   ----------------------------------------
 BYTE   W96
//  #03 //090   ----------------------------------------
 BYTE   W96
//  #03 //091   ----------------------------------------
 BYTE   W96
//  #03 //092   ----------------------------------------
 BYTE   W96
//  #03 //093   ----------------------------------------
 BYTE   W96
//  #03 //094   ----------------------------------------
 BYTE   W96
//  #03 //095   ----------------------------------------
 BYTE   W96
//  #03 //096   ----------------------------------------
 BYTE   W96
//  #03 //097   ----------------------------------------
 BYTE   W96
//  #03 //098   ----------------------------------------
 BYTE   W96
//  #03 //099   ----------------------------------------
 BYTE   W96
//  #03 //100   ----------------------------------------
 BYTE   W96
//  #03 //101   ----------------------------------------
 BYTE   W96
//  #03 //102   ----------------------------------------
 BYTE   W96
//  #03 //103   ----------------------------------------
 BYTE   W96
//  #03 //104   ----------------------------------------
 BYTE   W96
//  #03 //105   ----------------------------------------
 BYTE   W96
//  #03 //106   ----------------------------------------
 BYTE   W96
//  #03 //107   ----------------------------------------
 BYTE   W96
//  #03 //108   ----------------------------------------
 BYTE   GoTo
  POIN2 Label_D40616
//  #03 //109   ----------------------------------------
 BYTE   PATT
  POIN2 Label_D40616
//  #03 //110   ----------------------------------------
 BYTE   PATT
  POIN2 Label_D40621
//  #03 //111   ----------------------------------------
 BYTE   PATT
  POIN2 Label_D4062C
//  #03 //112   ----------------------------------------
 BYTE   PATT
  POIN2 Label_D40637
//  #03 //113   ----------------------------------------
 BYTE   PATT
  POIN2 Label_D40616
//  #03 //114   ----------------------------------------
 BYTE   PATT
  POIN2 Label_D40621
//  #03 //115   ----------------------------------------
 BYTE   PATT
  POIN2 Label_D4062C
//  #03 //116   ----------------------------------------
 BYTE   PATT
  POIN2 Label_D40637
//  #03 //117   ----------------------------------------
 BYTE   W96
//  #03 //118   ----------------------------------------
 BYTE   W96
//  #03 //119   ----------------------------------------
 BYTE   W96
//  #03 //120   ----------------------------------------
 BYTE   W96
//  #03 //121   ----------------------------------------
 BYTE   W96
//  #03 //122   ----------------------------------------
 BYTE   W96
//  #03 //123   ----------------------------------------
 BYTE   W96
//  #03 //124   ----------------------------------------
 BYTE   W96
//  #03 //125   ----------------------------------------
 BYTE   W96
//  #03 //126   ----------------------------------------
 BYTE   PATT
  POIN2 Label_D4065F
//  #03 //127   ----------------------------------------
 BYTE   PATT
  POIN2 Label_D40669
//  #03 //128   ----------------------------------------
 BYTE   W48
 BYTE   EOT
 BYTE   Cn3
 BYTE   W01
 BYTE   Fn3
 BYTE   W44
 BYTE   W03
//  #03 //129   ----------------------------------------
 BYTE   PATT
  POIN2 Label_D40678
//  #03 //130   ----------------------------------------
 BYTE   PATT
  POIN2 Label_D4065F
//  #03 //131   ----------------------------------------
 BYTE   PATT
  POIN2 Label_D40687
//  #03 //132   ----------------------------------------
 BYTE   PATT
  POIN2 Label_D40691
//  #03 //133   ----------------------------------------
 BYTE   W96
//  #03 //134   ----------------------------------------
 BYTE   W96
//  #03 //135   ----------------------------------------
 BYTE   W96
//  #03 //136   ----------------------------------------
 BYTE   W96
//  #03 //137   ----------------------------------------
 BYTE   W96
//  #03 //138   ----------------------------------------
 BYTE   W96
//  #03 //139   ----------------------------------------
 BYTE   W96
//  #03 //140   ----------------------------------------
 BYTE   W96
//  #03 //141   ----------------------------------------
 BYTE   W96
//  #03 //142   ----------------------------------------
 BYTE   W96
//  #03 //143   ----------------------------------------
 BYTE   W96
//  #03 //144   ----------------------------------------
 BYTE   W96
//  #03 //145   ----------------------------------------
 BYTE   W96
//  #03 //146   ----------------------------------------
 BYTE   W96
//  #03 //147   ----------------------------------------
 BYTE   W96
//  #03 //148   ----------------------------------------
 BYTE   W96
//  #03 //149   ----------------------------------------
 BYTE   PATT
  POIN2 Label_D40616
//  #03 //150   ----------------------------------------
 BYTE   PATT
  POIN2 Label_D40621
//  #03 //151   ----------------------------------------
 BYTE   PATT
  POIN2 Label_D4062C
//  #03 //152   ----------------------------------------
 BYTE   PATT
  POIN2 Label_D40637
//  #03 //153   ----------------------------------------
 BYTE   PATT
  POIN2 Label_D40616
//  #03 //154   ----------------------------------------
 BYTE   PATT
  POIN2 Label_D40621
//  #03 //155   ----------------------------------------
 BYTE   PATT
  POIN2 Label_D4062C
//  #03 //156   ----------------------------------------
 BYTE   PATT
  POIN2 Label_D40637
//  #03 //157   ----------------------------------------
 BYTE   W96
//  #03 //158   ----------------------------------------
 BYTE   W96
//  #03 //159   ----------------------------------------
 BYTE   W96
//  #03 //160   ----------------------------------------
 BYTE   W96
//  #03 //161   ----------------------------------------
 BYTE   W96
//  #03 //162   ----------------------------------------
 BYTE   W96
//  #03 //163   ----------------------------------------
 BYTE   W96
//  #03 //164   ----------------------------------------
 BYTE   W96
 BYTE   FINE

//**************** Track 4 (Midi-Chn.3) ****************//

InnocenceGlitched_004:
//  #04 //000   ----------------------------------------
 BYTE   VOL   52*InnocenceGlitched_mvl/mxv
 BYTE   KEYSH   InnocenceGlitched_key+0
 BYTE   VOICE   48
 BYTE   W96
//  #04 //001   ----------------------------------------
 BYTE   W96
//  #04 //002   ----------------------------------------
 BYTE   W96
//  #04 //003   ----------------------------------------
 BYTE   W96
//  #04 //004   ----------------------------------------
 BYTE   W96
//  #04 //005   ----------------------------------------
 BYTE   W96
//  #04 //006   ----------------------------------------
 BYTE   W96
//  #04 //007   ----------------------------------------
 BYTE   W96
//  #04 //008   ----------------------------------------
 BYTE   W96
//  #04 //009   ----------------------------------------
 BYTE   W96
//  #04 //010   ----------------------------------------
 BYTE   W96
//  #04 //011   ----------------------------------------
 BYTE   W96
//  #04 //012   ----------------------------------------
 BYTE   W96
//  #04 //013   ----------------------------------------
 BYTE   W96
//  #04 //014   ----------------------------------------
 BYTE   W96
//  #04 //015   ----------------------------------------
 BYTE   W96
//  #04 //016   ----------------------------------------
 BYTE   W96
//  #04 //017   ----------------------------------------
 BYTE   W96
//  #04 //018   ----------------------------------------
 BYTE   W96
//  #04 //019   ----------------------------------------
 BYTE   W96
//  #04 //020   ----------------------------------------
 BYTE   W96
//  #04 //021   ----------------------------------------
 BYTE   W96
//  #04 //022   ----------------------------------------
 BYTE   W96
//  #04 //023   ----------------------------------------
 BYTE   W96
//  #04 //024   ----------------------------------------
 BYTE   W96
//  #04 //025   ----------------------------------------
 BYTE   W96
//  #04 //026   ----------------------------------------
 BYTE   W96
//  #04 //027   ----------------------------------------
 BYTE   W96
//  #04 //028   ----------------------------------------
Label_D402C6:
 BYTE   W96
//  #04 //029   ----------------------------------------
 BYTE   W96
//  #04 //030   ----------------------------------------
 BYTE   W96
//  #04 //031   ----------------------------------------
 BYTE   W96
//  #04 //032   ----------------------------------------
 BYTE   W96
//  #04 //033   ----------------------------------------
 BYTE   W96
//  #04 //034   ----------------------------------------
 BYTE   W96
//  #04 //035   ----------------------------------------
 BYTE   W96
//  #04 //036   ----------------------------------------
 BYTE   W96
//  #04 //037   ----------------------------------------
 BYTE   W96
//  #04 //038   ----------------------------------------
 BYTE   W96
//  #04 //039   ----------------------------------------
 BYTE   W96
//  #04 //040   ----------------------------------------
 BYTE   W96
//  #04 //041   ----------------------------------------
 BYTE   W96
//  #04 //042   ----------------------------------------
 BYTE   W96
//  #04 //043   ----------------------------------------
 BYTE   W96
//  #04 //044   ----------------------------------------
 BYTE   TIE  Cn2  v080
 BYTE   W96
//  #04 //045   ----------------------------------------
 BYTE   W96
//  #04 //046   ----------------------------------------
 BYTE   W96
//  #04 //047   ----------------------------------------
 BYTE   W96
//  #04 //048   ----------------------------------------
 BYTE   W96
//  #04 //049   ----------------------------------------
 BYTE   W96
//  #04 //050   ----------------------------------------
 BYTE   W96
//  #04 //051   ----------------------------------------
 BYTE   W96
//  #04 //052   ----------------------------------------
 BYTE   EOT
 BYTE   N96  Cn3
 BYTE   W96
//  #04 //053   ----------------------------------------
 BYTE   Ds3
 BYTE   W96
//  #04 //054   ----------------------------------------
 BYTE   Gs2
 BYTE   W96
//  #04 //055   ----------------------------------------
 BYTE   Bn2
 BYTE   W96
//  #04 //056   ----------------------------------------
 BYTE   Cn3
 BYTE   W96
//  #04 //057   ----------------------------------------
 BYTE   Ds3
 BYTE   W96
//  #04 //058   ----------------------------------------
 BYTE   Gs2
 BYTE   W96
//  #04 //059   ----------------------------------------
 BYTE   Bn2
 BYTE   W96
//  #04 //060   ----------------------------------------
 BYTE   Cn3
 BYTE   W96
//  #04 //061   ----------------------------------------
 BYTE   Ds3
 BYTE   W96
//  #04 //062   ----------------------------------------
 BYTE   Gs2
 BYTE   W96
//  #04 //063   ----------------------------------------
 BYTE   Bn2
 BYTE   W96
//  #04 //064   ----------------------------------------
 BYTE   Cn3
 BYTE   W96
//  #04 //065   ----------------------------------------
 BYTE   Ds3
 BYTE   W96
//  #04 //066   ----------------------------------------
 BYTE   Gs2
 BYTE   W96
//  #04 //067   ----------------------------------------
 BYTE   Bn2
 BYTE   W96
//  #04 //068   ----------------------------------------
 BYTE   W96
//  #04 //069   ----------------------------------------
 BYTE   W96
//  #04 //070   ----------------------------------------
 BYTE   W96
//  #04 //071   ----------------------------------------
 BYTE   W96
//  #04 //072   ----------------------------------------
 BYTE   W96
//  #04 //073   ----------------------------------------
 BYTE   W96
//  #04 //074   ----------------------------------------
 BYTE   W96
//  #04 //075   ----------------------------------------
 BYTE   W96
//  #04 //076   ----------------------------------------
 BYTE   W96
//  #04 //077   ----------------------------------------
 BYTE   W96
//  #04 //078   ----------------------------------------
 BYTE   W96
//  #04 //079   ----------------------------------------
 BYTE   W96
//  #04 //080   ----------------------------------------
 BYTE   W96
//  #04 //081   ----------------------------------------
 BYTE   W96
//  #04 //082   ----------------------------------------
 BYTE   W96
//  #04 //083   ----------------------------------------
 BYTE   W96
//  #04 //084   ----------------------------------------
 BYTE   W96
//  #04 //085   ----------------------------------------
 BYTE   W96
//  #04 //086   ----------------------------------------
 BYTE   W96
//  #04 //087   ----------------------------------------
 BYTE   W96
//  #04 //088   ----------------------------------------
 BYTE   W96
//  #04 //089   ----------------------------------------
 BYTE   W96
//  #04 //090   ----------------------------------------
 BYTE   W96
//  #04 //091   ----------------------------------------
 BYTE   W96
//  #04 //092   ----------------------------------------
 BYTE   W96
//  #04 //093   ----------------------------------------
 BYTE   W96
//  #04 //094   ----------------------------------------
 BYTE   W96
//  #04 //095   ----------------------------------------
 BYTE   W96
//  #04 //096   ----------------------------------------
 BYTE   W96
//  #04 //097   ----------------------------------------
 BYTE   W96
//  #04 //098   ----------------------------------------
 BYTE   W96
//  #04 //099   ----------------------------------------
 BYTE   W96
//  #04 //100   ----------------------------------------
 BYTE   W96
//  #04 //101   ----------------------------------------
 BYTE   W96
//  #04 //102   ----------------------------------------
 BYTE   W96
//  #04 //103   ----------------------------------------
 BYTE   W96
//  #04 //104   ----------------------------------------
 BYTE   W96
//  #04 //105   ----------------------------------------
 BYTE   W96
//  #04 //106   ----------------------------------------
 BYTE   W96
//  #04 //107   ----------------------------------------
 BYTE   W96
//  #04 //108   ----------------------------------------
 BYTE   GoTo
  POIN2 Label_D402C6
//  #04 //109   ----------------------------------------
 BYTE   W96
//  #04 //110   ----------------------------------------
 BYTE   W96
//  #04 //111   ----------------------------------------
 BYTE   W96
//  #04 //112   ----------------------------------------
 BYTE   W96
//  #04 //113   ----------------------------------------
 BYTE   W96
//  #04 //114   ----------------------------------------
 BYTE   W96
//  #04 //115   ----------------------------------------
 BYTE   W96
//  #04 //116   ----------------------------------------
 BYTE   W96
//  #04 //117   ----------------------------------------
 BYTE   W96
//  #04 //118   ----------------------------------------
 BYTE   W96
//  #04 //119   ----------------------------------------
 BYTE   W96
//  #04 //120   ----------------------------------------
 BYTE   W96
//  #04 //121   ----------------------------------------
 BYTE   W96
//  #04 //122   ----------------------------------------
 BYTE   W96
//  #04 //123   ----------------------------------------
 BYTE   W96
//  #04 //124   ----------------------------------------
 BYTE   W96
//  #04 //125   ----------------------------------------
 BYTE   TIE  Cn2  v080
 BYTE   W96
//  #04 //126   ----------------------------------------
 BYTE   W96
//  #04 //127   ----------------------------------------
 BYTE   W96
//  #04 //128   ----------------------------------------
 BYTE   W96
//  #04 //129   ----------------------------------------
 BYTE   W96
//  #04 //130   ----------------------------------------
 BYTE   W96
//  #04 //131   ----------------------------------------
 BYTE   W96
//  #04 //132   ----------------------------------------
 BYTE   W96
//  #04 //133   ----------------------------------------
 BYTE   EOT
 BYTE   N96  Cn3
 BYTE   W96
//  #04 //134   ----------------------------------------
 BYTE   Ds3
 BYTE   W96
//  #04 //135   ----------------------------------------
 BYTE   Gs2
 BYTE   W96
//  #04 //136   ----------------------------------------
 BYTE   Bn2
 BYTE   W96
//  #04 //137   ----------------------------------------
 BYTE   Cn3
 BYTE   W96
//  #04 //138   ----------------------------------------
 BYTE   Ds3
 BYTE   W96
//  #04 //139   ----------------------------------------
 BYTE   Gs2
 BYTE   W96
//  #04 //140   ----------------------------------------
 BYTE   Bn2
 BYTE   W96
//  #04 //141   ----------------------------------------
 BYTE   Cn3
 BYTE   W96
//  #04 //142   ----------------------------------------
 BYTE   Ds3
 BYTE   W96
//  #04 //143   ----------------------------------------
 BYTE   Gs2
 BYTE   W96
//  #04 //144   ----------------------------------------
 BYTE   Bn2
 BYTE   W96
//  #04 //145   ----------------------------------------
 BYTE   Cn3
 BYTE   W96
//  #04 //146   ----------------------------------------
 BYTE   Ds3
 BYTE   W96
//  #04 //147   ----------------------------------------
 BYTE   Gs2
 BYTE   W96
//  #04 //148   ----------------------------------------
 BYTE   Bn2
 BYTE   W96
//  #04 //149   ----------------------------------------
 BYTE   W96
//  #04 //150   ----------------------------------------
 BYTE   W96
//  #04 //151   ----------------------------------------
 BYTE   W96
//  #04 //152   ----------------------------------------
 BYTE   W96
//  #04 //153   ----------------------------------------
 BYTE   W96
//  #04 //154   ----------------------------------------
 BYTE   W96
//  #04 //155   ----------------------------------------
 BYTE   W96
//  #04 //156   ----------------------------------------
 BYTE   W96
//  #04 //157   ----------------------------------------
 BYTE   W96
//  #04 //158   ----------------------------------------
 BYTE   W96
//  #04 //159   ----------------------------------------
 BYTE   W96
//  #04 //160   ----------------------------------------
 BYTE   W96
//  #04 //161   ----------------------------------------
 BYTE   W96
//  #04 //162   ----------------------------------------
 BYTE   W96
//  #04 //163   ----------------------------------------
 BYTE   W96
//  #04 //164   ----------------------------------------
 BYTE   W96
 BYTE   FINE

//**************** Track 5 (Midi-Chn.4) ****************//

InnocenceGlitched_005:
//  #05 //000   ----------------------------------------
 BYTE   VOL   52*InnocenceGlitched_mvl/mxv
 BYTE   KEYSH   InnocenceGlitched_key+0
 BYTE   VOICE   81
 BYTE   N12  Cn1  v080
 BYTE   W12
 BYTE   Ds1
 BYTE   W12
 BYTE   Cn2
 BYTE   W12
 BYTE   Ds2
 BYTE   W12
 BYTE   Gn2
 BYTE   W12
 BYTE   Cn3
 BYTE   W12
 BYTE   Gn2
 BYTE   W12
 BYTE   As2
 BYTE   W12
//  #05 //001   ----------------------------------------
Label_D41410:
 BYTE   N12  Ds1  v080
 BYTE   W12
 BYTE   Ds2
 BYTE   W12
 BYTE   Gn2
 BYTE   W12
 BYTE   As2
 BYTE   W12
 BYTE   Ds3
 BYTE   W12
 BYTE   Gn3
 BYTE   W12
 BYTE   Ds3
 BYTE   W12
 BYTE   As2
 BYTE   W12
 BYTE   PEND 
//  #05 //002   ----------------------------------------
Label_D41423:
 BYTE   N12  Gs0  v080
 BYTE   W12
 BYTE   Ds1
 BYTE   W12
 BYTE   Gs1
 BYTE   W12
 BYTE   Cn2
 BYTE   W12
 BYTE   Gs2
 BYTE   W12
 BYTE   Cn3
 BYTE   W12
 BYTE   Gs2
 BYTE   W12
 BYTE   Ds2
 BYTE   W12
 BYTE   PEND 
//  #05 //003   ----------------------------------------
Label_D41436:
 BYTE   N12  Bn0  v080
 BYTE   W12
 BYTE   Ds1
 BYTE   W12
 BYTE   Ds2
 BYTE   W12
 BYTE   Gs2
 BYTE   W12
 BYTE   Bn2
 BYTE   W12
 BYTE   Ds3
 BYTE   W12
 BYTE   Bn2
 BYTE   W12
 BYTE   Gs2
 BYTE   W12
 BYTE   PEND 
//  #05 //004   ----------------------------------------
Label_D41449:
 BYTE   N12  Cn1  v080
 BYTE   W12
 BYTE   Ds1
 BYTE   W12
 BYTE   Cn2
 BYTE   W12
 BYTE   Ds2
 BYTE   W12
 BYTE   Gn2
 BYTE   W12
 BYTE   Cn3
 BYTE   W12
 BYTE   Gn2
 BYTE   W12
 BYTE   As2
 BYTE   W12
 BYTE   PEND 
//  #05 //005   ----------------------------------------
 BYTE   PATT
  POIN2 Label_D41410
//  #05 //006   ----------------------------------------
 BYTE   PATT
  POIN2 Label_D41423
//  #05 //007   ----------------------------------------
 BYTE   PATT
  POIN2 Label_D41436
//  #05 //008   ----------------------------------------
 BYTE   PATT
  POIN2 Label_D41449
//  #05 //009   ----------------------------------------
 BYTE   PATT
  POIN2 Label_D41410
//  #05 //010   ----------------------------------------
 BYTE   PATT
  POIN2 Label_D41423
//  #05 //011   ----------------------------------------
 BYTE   PATT
  POIN2 Label_D41436
//  #05 //012   ----------------------------------------
 BYTE   PATT
  POIN2 Label_D41449
//  #05 //013   ----------------------------------------
 BYTE   PATT
  POIN2 Label_D41410
//  #05 //014   ----------------------------------------
 BYTE   PATT
  POIN2 Label_D41423
//  #05 //015   ----------------------------------------
 BYTE   PATT
  POIN2 Label_D41436
//  #05 //016   ----------------------------------------
 BYTE   PATT
  POIN2 Label_D41449
//  #05 //017   ----------------------------------------
 BYTE   PATT
  POIN2 Label_D41410
//  #05 //018   ----------------------------------------
 BYTE   PATT
  POIN2 Label_D41423
//  #05 //019   ----------------------------------------
 BYTE   PATT
  POIN2 Label_D41436
//  #05 //020   ----------------------------------------
 BYTE   PATT
  POIN2 Label_D41449
//  #05 //021   ----------------------------------------
 BYTE   PATT
  POIN2 Label_D41410
//  #05 //022   ----------------------------------------
 BYTE   PATT
  POIN2 Label_D41423
//  #05 //023   ----------------------------------------
 BYTE   PATT
  POIN2 Label_D41436
//  #05 //024   ----------------------------------------
Label_D414BB:
 BYTE   N12  Cn1  v080
 BYTE   W12
 BYTE   N12
 BYTE   N12  Ds1
 BYTE   W12
 BYTE   Cn1
 BYTE   N12  Cn2
 BYTE   W12
 BYTE   Cn1
 BYTE   N12  Ds2
 BYTE   W12
 BYTE   Gn2
 BYTE   W12
 BYTE   Cn1
 BYTE   N12  Cn3
 BYTE   W12
 BYTE   Cn1
 BYTE   N12  Gn2
 BYTE   W12
 BYTE   Cn1
 BYTE   N12  As2
 BYTE   W12
 BYTE   PEND 
//  #05 //025   ----------------------------------------
Label_D414DA:
 BYTE   N12  Ds1  v080
 BYTE   W12
 BYTE   N12
 BYTE   N12  Ds2
 BYTE   W12
 BYTE   Ds1
 BYTE   N12  Gn2
 BYTE   W12
 BYTE   Ds1
 BYTE   N12  As2
 BYTE   W12
 BYTE   Ds3
 BYTE   W12
 BYTE   Ds1
 BYTE   N12  Gn3
 BYTE   W12
 BYTE   Ds1
 BYTE   N12  Ds3
 BYTE   W12
 BYTE   Ds1
 BYTE   N12  As2
 BYTE   W12
 BYTE   PEND 
//  #05 //026   ----------------------------------------
Label_D414F9:
 BYTE   N12  Gs0  v080
 BYTE   W12
 BYTE   N12
 BYTE   N12  Ds1
 BYTE   W12
 BYTE   Gs0
 BYTE   N12  Gs1
 BYTE   W12
 BYTE   Gs0
 BYTE   N12  Cn2
 BYTE   W12
 BYTE   Gs2
 BYTE   W12
 BYTE   Gs0
 BYTE   N12  Cn3
 BYTE   W12
 BYTE   Gs0
 BYTE   N12  Gs2
 BYTE   W12
 BYTE   Gs0
 BYTE   N12  Ds2
 BYTE   W12
 BYTE   PEND 
//  #05 //027   ----------------------------------------
Label_D41518:
 BYTE   N12  Bn0  v080
 BYTE   W12
 BYTE   N12
 BYTE   N12  Ds1
 BYTE   W12
 BYTE   Bn0
 BYTE   N12  Ds2
 BYTE   W12
 BYTE   Bn0
 BYTE   N12  Gs2
 BYTE   W12
 BYTE   Bn2
 BYTE   W12
 BYTE   Bn0
 BYTE   N12  Ds3
 BYTE   W12
 BYTE   Bn0
 BYTE   N12  Bn2
 BYTE   W12
 BYTE   Bn0
 BYTE   N12  Gs2
 BYTE   W12
 BYTE   PEND 
//  #05 //028   ----------------------------------------
Label_D41537:
//  #05 //029   ----------------------------------------
 BYTE   PATT
  POIN2 Label_D41449
//  #05 //030   ----------------------------------------
 BYTE   PATT
  POIN2 Label_D41410
//  #05 //031   ----------------------------------------
 BYTE   PATT
  POIN2 Label_D41423
//  #05 //032   ----------------------------------------
 BYTE   PATT
  POIN2 Label_D41436
//  #05 //033   ----------------------------------------
 BYTE   PATT
  POIN2 Label_D41449
//  #05 //034   ----------------------------------------
 BYTE   PATT
  POIN2 Label_D41410
//  #05 //035   ----------------------------------------
 BYTE   PATT
  POIN2 Label_D41423
//  #05 //036   ----------------------------------------
 BYTE   PATT
  POIN2 Label_D41436
//  #05 //037   ----------------------------------------
 BYTE   PATT
  POIN2 Label_D41449
//  #05 //038   ----------------------------------------
 BYTE   PATT
  POIN2 Label_D41410
//  #05 //039   ----------------------------------------
 BYTE   PATT
  POIN2 Label_D41423
//  #05 //040   ----------------------------------------
 BYTE   PATT
  POIN2 Label_D41436
//  #05 //041   ----------------------------------------
 BYTE   PATT
  POIN2 Label_D41449
//  #05 //042   ----------------------------------------
 BYTE   PATT
  POIN2 Label_D41410
//  #05 //043   ----------------------------------------
 BYTE   PATT
  POIN2 Label_D41423
//  #05 //044   ----------------------------------------
 BYTE   PATT
  POIN2 Label_D41436
//  #05 //045   ----------------------------------------
 BYTE   W96
//  #05 //046   ----------------------------------------
 BYTE   W96
//  #05 //047   ----------------------------------------
 BYTE   W96
//  #05 //048   ----------------------------------------
 BYTE   W96
//  #05 //049   ----------------------------------------
 BYTE   W96
//  #05 //050   ----------------------------------------
 BYTE   W96
//  #05 //051   ----------------------------------------
 BYTE   W96
//  #05 //052   ----------------------------------------
 BYTE   W96
//  #05 //053   ----------------------------------------
 BYTE   PATT
  POIN2 Label_D41449
//  #05 //054   ----------------------------------------
 BYTE   PATT
  POIN2 Label_D41410
//  #05 //055   ----------------------------------------
 BYTE   PATT
  POIN2 Label_D41423
//  #05 //056   ----------------------------------------
 BYTE   PATT
  POIN2 Label_D41436
//  #05 //057   ----------------------------------------
 BYTE   PATT
  POIN2 Label_D41449
//  #05 //058   ----------------------------------------
 BYTE   PATT
  POIN2 Label_D41410
//  #05 //059   ----------------------------------------
 BYTE   PATT
  POIN2 Label_D41423
//  #05 //060   ----------------------------------------
 BYTE   PATT
  POIN2 Label_D41436
//  #05 //061   ----------------------------------------
 BYTE   PATT
  POIN2 Label_D41449
//  #05 //062   ----------------------------------------
 BYTE   PATT
  POIN2 Label_D41410
//  #05 //063   ----------------------------------------
 BYTE   PATT
  POIN2 Label_D41423
//  #05 //064   ----------------------------------------
 BYTE   PATT
  POIN2 Label_D41436
//  #05 //065   ----------------------------------------
 BYTE   PATT
  POIN2 Label_D41449
//  #05 //066   ----------------------------------------
 BYTE   PATT
  POIN2 Label_D41410
//  #05 //067   ----------------------------------------
 BYTE   PATT
  POIN2 Label_D41423
//  #05 //068   ----------------------------------------
 BYTE   PATT
  POIN2 Label_D41436
//  #05 //069   ----------------------------------------
 BYTE   PATT
  POIN2 Label_D41449
//  #05 //070   ----------------------------------------
 BYTE   PATT
  POIN2 Label_D41410
//  #05 //071   ----------------------------------------
 BYTE   PATT
  POIN2 Label_D41423
//  #05 //072   ----------------------------------------
 BYTE   PATT
  POIN2 Label_D41436
//  #05 //073   ----------------------------------------
 BYTE   PATT
  POIN2 Label_D41449
//  #05 //074   ----------------------------------------
 BYTE   PATT
  POIN2 Label_D41410
//  #05 //075   ----------------------------------------
 BYTE   PATT
  POIN2 Label_D41423
//  #05 //076   ----------------------------------------
 BYTE   PATT
  POIN2 Label_D41436
//  #05 //077   ----------------------------------------
 BYTE   PATT
  POIN2 Label_D41449
//  #05 //078   ----------------------------------------
 BYTE   PATT
  POIN2 Label_D41410
//  #05 //079   ----------------------------------------
 BYTE   PATT
  POIN2 Label_D41423
//  #05 //080   ----------------------------------------
 BYTE   PATT
  POIN2 Label_D41436
//  #05 //081   ----------------------------------------
 BYTE   PATT
  POIN2 Label_D41449
//  #05 //082   ----------------------------------------
 BYTE   PATT
  POIN2 Label_D41410
//  #05 //083   ----------------------------------------
 BYTE   PATT
  POIN2 Label_D41423
//  #05 //084   ----------------------------------------
 BYTE   PATT
  POIN2 Label_D41436
//  #05 //085   ----------------------------------------
 BYTE   PATT
  POIN2 Label_D41449
//  #05 //086   ----------------------------------------
 BYTE   PATT
  POIN2 Label_D41410
//  #05 //087   ----------------------------------------
 BYTE   PATT
  POIN2 Label_D41423
//  #05 //088   ----------------------------------------
 BYTE   PATT
  POIN2 Label_D41436
//  #05 //089   ----------------------------------------
 BYTE   PATT
  POIN2 Label_D41449
//  #05 //090   ----------------------------------------
 BYTE   PATT
  POIN2 Label_D41410
//  #05 //091   ----------------------------------------
 BYTE   PATT
  POIN2 Label_D41423
//  #05 //092   ----------------------------------------
 BYTE   PATT
  POIN2 Label_D41436
//  #05 //093   ----------------------------------------
 BYTE   PATT
  POIN2 Label_D41449
//  #05 //094   ----------------------------------------
 BYTE   PATT
  POIN2 Label_D41410
//  #05 //095   ----------------------------------------
 BYTE   PATT
  POIN2 Label_D41423
//  #05 //096   ----------------------------------------
 BYTE   PATT
  POIN2 Label_D41436
//  #05 //097   ----------------------------------------
 BYTE   PATT
  POIN2 Label_D41449
//  #05 //098   ----------------------------------------
 BYTE   PATT
  POIN2 Label_D41410
//  #05 //099   ----------------------------------------
 BYTE   PATT
  POIN2 Label_D41423
//  #05 //100   ----------------------------------------
 BYTE   PATT
  POIN2 Label_D41436
//  #05 //101   ----------------------------------------
 BYTE   PATT
  POIN2 Label_D41449
//  #05 //102   ----------------------------------------
 BYTE   PATT
  POIN2 Label_D41410
//  #05 //103   ----------------------------------------
 BYTE   PATT
  POIN2 Label_D41423
//  #05 //104   ----------------------------------------
 BYTE   PATT
  POIN2 Label_D41436
//  #05 //105   ----------------------------------------
 BYTE   PATT
  POIN2 Label_D414BB
//  #05 //106   ----------------------------------------
 BYTE   PATT
  POIN2 Label_D414DA
//  #05 //107   ----------------------------------------
 BYTE   PATT
  POIN2 Label_D414F9
//  #05 //108   ----------------------------------------
 BYTE   PATT
  POIN2 Label_D41518
//  #05 //109   ----------------------------------------
 BYTE   GoTo
  POIN2 Label_D41537
//  #05 //110   ----------------------------------------
 BYTE   PATT
  POIN2 Label_D41449
//  #05 //111   ----------------------------------------
 BYTE   PATT
  POIN2 Label_D41410
//  #05 //112   ----------------------------------------
 BYTE   PATT
  POIN2 Label_D41423
//  #05 //113   ----------------------------------------
 BYTE   PATT
  POIN2 Label_D41436
//  #05 //114   ----------------------------------------
 BYTE   PATT
  POIN2 Label_D41449
//  #05 //115   ----------------------------------------
 BYTE   PATT
  POIN2 Label_D41410
//  #05 //116   ----------------------------------------
 BYTE   PATT
  POIN2 Label_D41423
//  #05 //117   ----------------------------------------
 BYTE   PATT
  POIN2 Label_D41436
//  #05 //118   ----------------------------------------
 BYTE   PATT
  POIN2 Label_D41449
//  #05 //119   ----------------------------------------
 BYTE   PATT
  POIN2 Label_D41410
//  #05 //120   ----------------------------------------
 BYTE   PATT
  POIN2 Label_D41423
//  #05 //121   ----------------------------------------
 BYTE   PATT
  POIN2 Label_D41436
//  #05 //122   ----------------------------------------
 BYTE   PATT
  POIN2 Label_D41449
//  #05 //123   ----------------------------------------
 BYTE   PATT
  POIN2 Label_D41410
//  #05 //124   ----------------------------------------
 BYTE   PATT
  POIN2 Label_D41423
//  #05 //125   ----------------------------------------
 BYTE   PATT
  POIN2 Label_D41436
//  #05 //126   ----------------------------------------
 BYTE   W96
//  #05 //127   ----------------------------------------
 BYTE   W96
//  #05 //128   ----------------------------------------
 BYTE   W96
//  #05 //129   ----------------------------------------
 BYTE   W96
//  #05 //130   ----------------------------------------
 BYTE   W96
//  #05 //131   ----------------------------------------
 BYTE   W96
//  #05 //132   ----------------------------------------
 BYTE   W96
//  #05 //133   ----------------------------------------
 BYTE   W96
//  #05 //134   ----------------------------------------
 BYTE   PATT
  POIN2 Label_D41449
//  #05 //135   ----------------------------------------
 BYTE   PATT
  POIN2 Label_D41410
//  #05 //136   ----------------------------------------
 BYTE   PATT
  POIN2 Label_D41423
//  #05 //137   ----------------------------------------
 BYTE   PATT
  POIN2 Label_D41436
//  #05 //138   ----------------------------------------
 BYTE   PATT
  POIN2 Label_D41449
//  #05 //139   ----------------------------------------
 BYTE   PATT
  POIN2 Label_D41410
//  #05 //140   ----------------------------------------
 BYTE   PATT
  POIN2 Label_D41423
//  #05 //141   ----------------------------------------
 BYTE   PATT
  POIN2 Label_D41436
//  #05 //142   ----------------------------------------
 BYTE   PATT
  POIN2 Label_D41449
//  #05 //143   ----------------------------------------
 BYTE   PATT
  POIN2 Label_D41410
//  #05 //144   ----------------------------------------
 BYTE   PATT
  POIN2 Label_D41423
//  #05 //145   ----------------------------------------
 BYTE   PATT
  POIN2 Label_D41436
//  #05 //146   ----------------------------------------
 BYTE   PATT
  POIN2 Label_D41449
//  #05 //147   ----------------------------------------
 BYTE   PATT
  POIN2 Label_D41410
//  #05 //148   ----------------------------------------
 BYTE   PATT
  POIN2 Label_D41423
//  #05 //149   ----------------------------------------
 BYTE   PATT
  POIN2 Label_D41436
//  #05 //150   ----------------------------------------
 BYTE   PATT
  POIN2 Label_D41449
//  #05 //151   ----------------------------------------
 BYTE   PATT
  POIN2 Label_D41410
//  #05 //152   ----------------------------------------
 BYTE   PATT
  POIN2 Label_D41423
//  #05 //153   ----------------------------------------
 BYTE   PATT
  POIN2 Label_D41436
//  #05 //154   ----------------------------------------
 BYTE   PATT
  POIN2 Label_D41449
//  #05 //155   ----------------------------------------
 BYTE   PATT
  POIN2 Label_D41410
//  #05 //156   ----------------------------------------
 BYTE   PATT
  POIN2 Label_D41423
//  #05 //157   ----------------------------------------
 BYTE   PATT
  POIN2 Label_D41436
//  #05 //158   ----------------------------------------
 BYTE   PATT
  POIN2 Label_D41449
//  #05 //159   ----------------------------------------
 BYTE   PATT
  POIN2 Label_D41410
//  #05 //160   ----------------------------------------
 BYTE   PATT
  POIN2 Label_D41423
//  #05 //161   ----------------------------------------
 BYTE   PATT
  POIN2 Label_D41436
//  #05 //162   ----------------------------------------
 BYTE   PATT
  POIN2 Label_D41449
//  #05 //163   ----------------------------------------
 BYTE   PATT
  POIN2 Label_D41410
//  #05 //164   ----------------------------------------
 BYTE   PATT
  POIN2 Label_D41423
//  #05 //165   ----------------------------------------
 BYTE   PATT
  POIN2 Label_D41436
 BYTE   FINE

//**************** Track 6 (Midi-Chn.5) ****************//

InnocenceGlitched_006:
//  #06 //000   ----------------------------------------
 BYTE   VOL   52*InnocenceGlitched_mvl/mxv
 BYTE   KEYSH   InnocenceGlitched_key+0
 BYTE   VOICE   11
 BYTE   W96
//  #06 //001   ----------------------------------------
 BYTE   W96
//  #06 //002   ----------------------------------------
 BYTE   W96
//  #06 //003   ----------------------------------------
 BYTE   W96
//  #06 //004   ----------------------------------------
 BYTE   W96
//  #06 //005   ----------------------------------------
 BYTE   W96
//  #06 //006   ----------------------------------------
 BYTE   W96
//  #06 //007   ----------------------------------------
 BYTE   W96
//  #06 //008   ----------------------------------------
 BYTE   W96
//  #06 //009   ----------------------------------------
 BYTE   W96
//  #06 //010   ----------------------------------------
 BYTE   W96
//  #06 //011   ----------------------------------------
 BYTE   W96
//  #06 //012   ----------------------------------------
 BYTE   W96
//  #06 //013   ----------------------------------------
 BYTE   W96
//  #06 //014   ----------------------------------------
 BYTE   W96
//  #06 //015   ----------------------------------------
 BYTE   W96
//  #06 //016   ----------------------------------------
 BYTE   W96
//  #06 //017   ----------------------------------------
 BYTE   W96
//  #06 //018   ----------------------------------------
 BYTE   W96
//  #06 //019   ----------------------------------------
 BYTE   W96
//  #06 //020   ----------------------------------------
Label_0100001A:
 BYTE   N24  Cn5  v080
 BYTE   W24
 BYTE   N72  Fn5
 BYTE   W72
 BYTE   PEND 
//  #06 //021   ----------------------------------------
Label_01000022:
 BYTE   N24  As5  v080
 BYTE   W24
 BYTE   N72  Ds5
 BYTE   W72
 BYTE   PEND 
//  #06 //022   ----------------------------------------
Label_0100002A:
 BYTE   N24  Gn5  v080
 BYTE   W24
 BYTE   N72  Cn5
 BYTE   W72
 BYTE   PEND 
//  #06 //023   ----------------------------------------
Label_01000032:
 BYTE   N24  Ds5  v080
 BYTE   W24
 BYTE   N72  Bn4
 BYTE   W72
 BYTE   PEND 
//  #06 //024   ----------------------------------------
Label_0100003A:
 BYTE   N24  Cn5  v080
 BYTE   W24
 BYTE   N72  Gn5
 BYTE   W72
 BYTE   PEND 
//  #06 //025   ----------------------------------------
 BYTE   PATT
  POIN2 Label_01000022
//  #06 //026   ----------------------------------------
 BYTE   PATT
  POIN2 Label_0100002A
//  #06 //027   ----------------------------------------
 BYTE   PATT
  POIN2 Label_01000032
//  #06 //028   ----------------------------------------
Label_01000051:
 BYTE   W96
//  #06 //029   ----------------------------------------
 BYTE   W96
//  #06 //030   ----------------------------------------
 BYTE   W96
//  #06 //031   ----------------------------------------
 BYTE   W96
//  #06 //032   ----------------------------------------
 BYTE   W96
//  #06 //033   ----------------------------------------
 BYTE   W96
//  #06 //034   ----------------------------------------
 BYTE   W96
//  #06 //035   ----------------------------------------
 BYTE   W96
//  #06 //036   ----------------------------------------
 BYTE   W96
//  #06 //037   ----------------------------------------
 BYTE   W96
//  #06 //038   ----------------------------------------
 BYTE   W96
//  #06 //039   ----------------------------------------
 BYTE   W96
//  #06 //040   ----------------------------------------
 BYTE   W96
//  #06 //041   ----------------------------------------
 BYTE   W96
//  #06 //042   ----------------------------------------
 BYTE   W96
//  #06 //043   ----------------------------------------
 BYTE   W96
//  #06 //044   ----------------------------------------
 BYTE   W96
//  #06 //045   ----------------------------------------
 BYTE   W96
//  #06 //046   ----------------------------------------
 BYTE   W96
//  #06 //047   ----------------------------------------
 BYTE   W96
//  #06 //048   ----------------------------------------
 BYTE   W96
//  #06 //049   ----------------------------------------
 BYTE   W96
//  #06 //050   ----------------------------------------
 BYTE   W96
//  #06 //051   ----------------------------------------
 BYTE   W72
 BYTE   N24  Cn4  v080
 BYTE   W24
//  #06 //052   ----------------------------------------
 BYTE   N72  Gn4
 BYTE   W96
//  #06 //053   ----------------------------------------
Label_01000070:
 BYTE   W48
 BYTE   N18  Gn4  v080
 BYTE   W18
 BYTE   Ds5
 BYTE   W18
 BYTE   N12  Gn4
 BYTE   W12
 BYTE   PEND 
//  #06 //054   ----------------------------------------
Label_0100007B:
 BYTE   N18  Ds4  v080
 BYTE   W18
 BYTE   Gn4
 BYTE   W18
 BYTE   N12  Ds4
 BYTE   W12
 BYTE   N48  As3
 BYTE   W48
 BYTE   PEND 
//  #06 //055   ----------------------------------------
 BYTE   W48
 BYTE   Bn3
 BYTE   W48
//  #06 //056   ----------------------------------------
Label_0100008B:
 BYTE   N36  Cn4  v080
 BYTE   W36
 BYTE   N12  Dn4
 BYTE   W12
 BYTE   N36  Cn4
 BYTE   W36
 BYTE   N12  Dn4
 BYTE   W12
 BYTE   PEND 
//  #06 //057   ----------------------------------------
Label_01000099:
 BYTE   N84  Ds4  v080
 BYTE   W84
 BYTE   N12  Dn4
 BYTE   W12
 BYTE   PEND 
//  #06 //058   ----------------------------------------
Label_010000A1:
 BYTE   N12  Cn4  v080
 BYTE   W60
 BYTE   N24  Gs4
 BYTE   W24
 BYTE   N12  Gn4
 BYTE   W12
 BYTE   PEND 
//  #06 //059   ----------------------------------------
Label_010000AC:
 BYTE   N18  Ds4  v080
 BYTE   W18
 BYTE   Fn4
 BYTE   W18
 BYTE   N12  Gn4
 BYTE   W12
 BYTE   N18  Bn4
 BYTE   W18
 BYTE   Cs5
 BYTE   W18
 BYTE   N12  Ds5
 BYTE   W12
 BYTE   PEND 
//  #06 //060   ----------------------------------------
Label_010000BE:
 BYTE   N48  Cn4  v080
 BYTE   W48
 BYTE   N24  Fn4
 BYTE   W24
 BYTE   Cn4
 BYTE   W24
 BYTE   PEND 
//  #06 //061   ----------------------------------------
Label_010000C8:
 BYTE   N48  Ds4  v080
 BYTE   W48
 BYTE   N24  Fn4
 BYTE   W24
 BYTE   Cn4
 BYTE   W24
 BYTE   PEND 
//  #06 //062   ----------------------------------------
 BYTE   PATT
  POIN2 Label_010000C8
//  #06 //063   ----------------------------------------
Label_010000D7:
 BYTE   N48  Bn3  v080
 BYTE   W48
 BYTE   N24  Fn4
 BYTE   W24
 BYTE   Cn4
 BYTE   W24
 BYTE   PEND 
//  #06 //064   ----------------------------------------
 BYTE   PATT
  POIN2 Label_010000C8
//  #06 //065   ----------------------------------------
 BYTE   PATT
  POIN2 Label_010000C8
//  #06 //066   ----------------------------------------
 BYTE   PATT
  POIN2 Label_010000C8
//  #06 //067   ----------------------------------------
Label_010000F0:
 BYTE   N24  Bn3  v080
 BYTE   W24
 BYTE   N12
 BYTE   W12
 BYTE   N12
 BYTE   W60
 BYTE   PEND 
//  #06 //068   ----------------------------------------
 BYTE   W96
//  #06 //069   ----------------------------------------
 BYTE   W96
//  #06 //070   ----------------------------------------
 BYTE   W96
//  #06 //071   ----------------------------------------
 BYTE   W96
//  #06 //072   ----------------------------------------
 BYTE   W96
//  #06 //073   ----------------------------------------
 BYTE   W96
//  #06 //074   ----------------------------------------
 BYTE   W96
//  #06 //075   ----------------------------------------
 BYTE   W96
//  #06 //076   ----------------------------------------
 BYTE   W96
//  #06 //077   ----------------------------------------
 BYTE   W96
//  #06 //078   ----------------------------------------
 BYTE   W96
//  #06 //079   ----------------------------------------
 BYTE   W96
//  #06 //080   ----------------------------------------
 BYTE   W96
//  #06 //081   ----------------------------------------
 BYTE   W96
//  #06 //082   ----------------------------------------
 BYTE   W96
//  #06 //083   ----------------------------------------
 BYTE   W96
//  #06 //084   ----------------------------------------
 BYTE   W96
//  #06 //085   ----------------------------------------
 BYTE   W96
//  #06 //086   ----------------------------------------
 BYTE   W96
//  #06 //087   ----------------------------------------
 BYTE   W96
//  #06 //088   ----------------------------------------
 BYTE   W96
//  #06 //089   ----------------------------------------
 BYTE   W96
//  #06 //090   ----------------------------------------
 BYTE   W96
//  #06 //091   ----------------------------------------
 BYTE   W96
//  #06 //092   ----------------------------------------
 BYTE   W96
//  #06 //093   ----------------------------------------
 BYTE   W96
//  #06 //094   ----------------------------------------
 BYTE   W96
//  #06 //095   ----------------------------------------
 BYTE   W96
//  #06 //096   ----------------------------------------
 BYTE   W96
//  #06 //097   ----------------------------------------
 BYTE   W96
//  #06 //098   ----------------------------------------
 BYTE   W96
//  #06 //099   ----------------------------------------
 BYTE   W96
//  #06 //100   ----------------------------------------
 BYTE   PATT
  POIN2 Label_0100001A
//  #06 //101   ----------------------------------------
 BYTE   PATT
  POIN2 Label_01000022
//  #06 //102   ----------------------------------------
 BYTE   PATT
  POIN2 Label_0100002A
//  #06 //103   ----------------------------------------
 BYTE   PATT
  POIN2 Label_01000032
//  #06 //104   ----------------------------------------
 BYTE   PATT
  POIN2 Label_0100003A
//  #06 //105   ----------------------------------------
 BYTE   PATT
  POIN2 Label_01000022
//  #06 //106   ----------------------------------------
 BYTE   PATT
  POIN2 Label_0100002A
//  #06 //107   ----------------------------------------
 BYTE   PATT
  POIN2 Label_01000032
//  #06 //108   ----------------------------------------
 BYTE   GoTo
  POIN2 Label_01000051
//  #06 //109   ----------------------------------------
 BYTE   W96
//  #06 //110   ----------------------------------------
 BYTE   W96
//  #06 //111   ----------------------------------------
 BYTE   W96
//  #06 //112   ----------------------------------------
 BYTE   W96
//  #06 //113   ----------------------------------------
 BYTE   W96
//  #06 //114   ----------------------------------------
 BYTE   W96
//  #06 //115   ----------------------------------------
 BYTE   W96
//  #06 //116   ----------------------------------------
 BYTE   W96
//  #06 //117   ----------------------------------------
 BYTE   W96
//  #06 //118   ----------------------------------------
 BYTE   W96
//  #06 //119   ----------------------------------------
 BYTE   W96
//  #06 //120   ----------------------------------------
 BYTE   W96
//  #06 //121   ----------------------------------------
 BYTE   W96
//  #06 //122   ----------------------------------------
 BYTE   W96
//  #06 //123   ----------------------------------------
 BYTE   W96
//  #06 //124   ----------------------------------------
 BYTE   W96
//  #06 //125   ----------------------------------------
 BYTE   W96
//  #06 //126   ----------------------------------------
 BYTE   W96
//  #06 //127   ----------------------------------------
 BYTE   W96
//  #06 //128   ----------------------------------------
 BYTE   W96
//  #06 //129   ----------------------------------------
 BYTE   W96
//  #06 //130   ----------------------------------------
 BYTE   W96
//  #06 //131   ----------------------------------------
 BYTE   W96
//  #06 //132   ----------------------------------------
 BYTE   W72
 BYTE   N24  Cn4  v080
 BYTE   W24
//  #06 //133   ----------------------------------------
 BYTE   N72  Gn4
 BYTE   W96
//  #06 //134   ----------------------------------------
 BYTE   PATT
  POIN2 Label_01000070
//  #06 //135   ----------------------------------------
 BYTE   PATT
  POIN2 Label_0100007B
//  #06 //136   ----------------------------------------
 BYTE   W48
 BYTE   N48  Bn3  v080
 BYTE   W48
//  #06 //137   ----------------------------------------
 BYTE   PATT
  POIN2 Label_0100008B
//  #06 //138   ----------------------------------------
 BYTE   PATT
  POIN2 Label_01000099
//  #06 //139   ----------------------------------------
 BYTE   PATT
  POIN2 Label_010000A1
//  #06 //140   ----------------------------------------
 BYTE   PATT
  POIN2 Label_010000AC
//  #06 //141   ----------------------------------------
 BYTE   PATT
  POIN2 Label_010000BE
//  #06 //142   ----------------------------------------
 BYTE   PATT
  POIN2 Label_010000C8
//  #06 //143   ----------------------------------------
 BYTE   PATT
  POIN2 Label_010000C8
//  #06 //144   ----------------------------------------
 BYTE   PATT
  POIN2 Label_010000D7
//  #06 //145   ----------------------------------------
 BYTE   PATT
  POIN2 Label_010000C8
//  #06 //146   ----------------------------------------
 BYTE   PATT
  POIN2 Label_010000C8
//  #06 //147   ----------------------------------------
 BYTE   PATT
  POIN2 Label_010000C8
//  #06 //148   ----------------------------------------
 BYTE   PATT
  POIN2 Label_010000F0
//  #06 //149   ----------------------------------------
 BYTE   W96
//  #06 //150   ----------------------------------------
 BYTE   W96
//  #06 //151   ----------------------------------------
 BYTE   W96
//  #06 //152   ----------------------------------------
 BYTE   W96
//  #06 //153   ----------------------------------------
 BYTE   W96
//  #06 //154   ----------------------------------------
 BYTE   W96
//  #06 //155   ----------------------------------------
 BYTE   W96
//  #06 //156   ----------------------------------------
 BYTE   W96
//  #06 //157   ----------------------------------------
 BYTE   W96
//  #06 //158   ----------------------------------------
 BYTE   W96
//  #06 //159   ----------------------------------------
 BYTE   W96
//  #06 //160   ----------------------------------------
 BYTE   W96
//  #06 //161   ----------------------------------------
 BYTE   W96
//  #06 //162   ----------------------------------------
 BYTE   W96
//  #06 //163   ----------------------------------------
 BYTE   W96
//  #06 //164   ----------------------------------------
 BYTE   W96
 BYTE   FINE

//**************** Track 7 (Midi-Chn.6) ****************//

InnocenceGlitched_007:
//  #07 //000   ----------------------------------------
 BYTE   VOL   52*InnocenceGlitched_mvl/mxv
 BYTE   KEYSH   InnocenceGlitched_key+0
 BYTE   VOICE   30
 BYTE   W96
//  #07 //001   ----------------------------------------
 BYTE   W96
//  #07 //002   ----------------------------------------
 BYTE   W96
//  #07 //003   ----------------------------------------
 BYTE   W96
//  #07 //004   ----------------------------------------
 BYTE   W96
//  #07 //005   ----------------------------------------
 BYTE   W96
//  #07 //006   ----------------------------------------
 BYTE   W96
//  #07 //007   ----------------------------------------
 BYTE   W96
//  #07 //008   ----------------------------------------
 BYTE   W96
//  #07 //009   ----------------------------------------
 BYTE   W96
//  #07 //010   ----------------------------------------
 BYTE   W96
//  #07 //011   ----------------------------------------
 BYTE   W96
//  #07 //012   ----------------------------------------
 BYTE   W96
//  #07 //013   ----------------------------------------
 BYTE   W96
//  #07 //014   ----------------------------------------
 BYTE   W96
//  #07 //015   ----------------------------------------
 BYTE   W96
//  #07 //016   ----------------------------------------
 BYTE   W96
//  #07 //017   ----------------------------------------
 BYTE   W96
//  #07 //018   ----------------------------------------
 BYTE   W96
//  #07 //019   ----------------------------------------
 BYTE   W96
//  #07 //020   ----------------------------------------
 BYTE   W96
//  #07 //021   ----------------------------------------
 BYTE   W96
//  #07 //022   ----------------------------------------
 BYTE   W96
//  #07 //023   ----------------------------------------
 BYTE   W96
//  #07 //024   ----------------------------------------
 BYTE   W96
//  #07 //025   ----------------------------------------
 BYTE   W96
//  #07 //026   ----------------------------------------
 BYTE   W96
//  #07 //027   ----------------------------------------
 BYTE   W72
 BYTE   N24  Cn4  v080
 BYTE   W24
//  #07 //028   ----------------------------------------
Label_010001EA:
 BYTE   N48  Gn4  v080
 BYTE   W48
 BYTE   N12
 BYTE   W12
 BYTE   Gs4
 BYTE   W12
 BYTE   N24  Gn4
 BYTE   W24
 BYTE   PEND 
//  #07 //029   ----------------------------------------
Label_010001F6:
 BYTE   N12  Fn4  v080
 BYTE   W12
 BYTE   Gn4
 BYTE   W12
 BYTE   N24  Fn4
 BYTE   W24
 BYTE   N12  Ds4
 BYTE   W12
 BYTE   Fn4
 BYTE   W12
 BYTE   N24  Ds4
 BYTE   W24
 BYTE   PEND 
//  #07 //030   ----------------------------------------
Label_01000208:
 BYTE   N48  Cn4  v080
 BYTE   W48
 BYTE   Cn5
 BYTE   W48
 BYTE   PEND 
//  #07 //031   ----------------------------------------
Label_0100020F:
 BYTE   N12  Bn4  v080
 BYTE   W12
 BYTE   Cn5
 BYTE   W12
 BYTE   N24  Bn4
 BYTE   W24
 BYTE   N48  Gn4
 BYTE   W48
 BYTE   PEND 
//  #07 //032   ----------------------------------------
 BYTE   PATT
  POIN2 Label_010001EA
//  #07 //033   ----------------------------------------
 BYTE   PATT
  POIN2 Label_010001F6
//  #07 //034   ----------------------------------------
 BYTE   PATT
  POIN2 Label_01000208
//  #07 //035   ----------------------------------------
Label_0100022B:
 BYTE   N12  Bn4  v080
 BYTE   W12
 BYTE   Cn5
 BYTE   W12
 BYTE   N24  Ds5
 BYTE   W24
 BYTE   N48  Fn5
 BYTE   W48
 BYTE   PEND 
//  #07 //036   ----------------------------------------
 BYTE   PATT
  POIN2 Label_010001EA
//  #07 //037   ----------------------------------------
 BYTE   PATT
  POIN2 Label_010001F6
//  #07 //038   ----------------------------------------
 BYTE   PATT
  POIN2 Label_01000208
//  #07 //039   ----------------------------------------
 BYTE   PATT
  POIN2 Label_0100020F
//  #07 //040   ----------------------------------------
 BYTE   PATT
  POIN2 Label_010001EA
//  #07 //041   ----------------------------------------
 BYTE   PATT
  POIN2 Label_010001F6
//  #07 //042   ----------------------------------------
 BYTE   PATT
  POIN2 Label_01000208
//  #07 //043   ----------------------------------------
 BYTE   PATT
  POIN2 Label_0100022B
//  #07 //044   ----------------------------------------
 BYTE   W96
//  #07 //045   ----------------------------------------
 BYTE   W96
//  #07 //046   ----------------------------------------
 BYTE   W96
//  #07 //047   ----------------------------------------
 BYTE   W96
//  #07 //048   ----------------------------------------
 BYTE   W96
//  #07 //049   ----------------------------------------
 BYTE   W96
//  #07 //050   ----------------------------------------
 BYTE   W96
//  #07 //051   ----------------------------------------
 BYTE   W96
//  #07 //052   ----------------------------------------
 BYTE   W96
//  #07 //053   ----------------------------------------
 BYTE   W96
//  #07 //054   ----------------------------------------
 BYTE   W96
//  #07 //055   ----------------------------------------
 BYTE   W96
//  #07 //056   ----------------------------------------
 BYTE   W96
//  #07 //057   ----------------------------------------
 BYTE   W96
//  #07 //058   ----------------------------------------
 BYTE   W96
//  #07 //059   ----------------------------------------
 BYTE   W96
//  #07 //060   ----------------------------------------
 BYTE   W96
//  #07 //061   ----------------------------------------
 BYTE   W96
//  #07 //062   ----------------------------------------
 BYTE   W96
//  #07 //063   ----------------------------------------
 BYTE   W96
//  #07 //064   ----------------------------------------
 BYTE   W96
//  #07 //065   ----------------------------------------
 BYTE   W96
//  #07 //066   ----------------------------------------
 BYTE   W96
//  #07 //067   ----------------------------------------
 BYTE   W72
 BYTE   N24  Cn4  v080
 BYTE   W24
//  #07 //068   ----------------------------------------
 BYTE   PATT
  POIN2 Label_010001EA
//  #07 //069   ----------------------------------------
 BYTE   PATT
  POIN2 Label_010001F6
//  #07 //070   ----------------------------------------
 BYTE   PATT
  POIN2 Label_01000208
//  #07 //071   ----------------------------------------
 BYTE   PATT
  POIN2 Label_0100020F
//  #07 //072   ----------------------------------------
 BYTE   PATT
  POIN2 Label_010001EA
//  #07 //073   ----------------------------------------
 BYTE   PATT
  POIN2 Label_010001F6
//  #07 //074   ----------------------------------------
 BYTE   PATT
  POIN2 Label_01000208
//  #07 //075   ----------------------------------------
 BYTE   PATT
  POIN2 Label_0100022B
//  #07 //076   ----------------------------------------
Label_010002A4:
 BYTE   N24  Gn4  v080
 BYTE   W24
 BYTE   N24
 BYTE   W24
 BYTE   N24
 BYTE   W24
 BYTE   N24
 BYTE   W24
 BYTE   PEND 
//  #07 //077   ----------------------------------------
Label_010002AF:
 BYTE   N24  Fs4  v080
 BYTE   W24
 BYTE   N24
 BYTE   W24
 BYTE   Ds4
 BYTE   W24
 BYTE   N24
 BYTE   W24
 BYTE   PEND 
//  #07 //078   ----------------------------------------
Label_010002BA:
 BYTE   N24  Cn4  v080
 BYTE   W24
 BYTE   N24
 BYTE   W24
 BYTE   N24
 BYTE   W24
 BYTE   N24
 BYTE   W24
 BYTE   PEND 
//  #07 //079   ----------------------------------------
Label_010002C5:
 BYTE   N24  Bn3  v080
 BYTE   W24
 BYTE   N24
 BYTE   W24
 BYTE   Gn3
 BYTE   W24
 BYTE   N24
 BYTE   W24
 BYTE   PEND 
//  #07 //080   ----------------------------------------
 BYTE   PATT
  POIN2 Label_010002A4
//  #07 //081   ----------------------------------------
Label_010002D5:
 BYTE   N36  Fs4  v080
 BYTE   W36
 BYTE   N12  Cn5
 BYTE   W12
 BYTE   N24  Fs4
 BYTE   W24
 BYTE   Ds4
 BYTE   W24
 BYTE   PEND 
//  #07 //082   ----------------------------------------
 BYTE   PATT
  POIN2 Label_010002BA
//  #07 //083   ----------------------------------------
 BYTE   PATT
  POIN2 Label_010002C5
//  #07 //084   ----------------------------------------
 BYTE   W96
//  #07 //085   ----------------------------------------
 BYTE   W96
//  #07 //086   ----------------------------------------
 BYTE   W96
//  #07 //087   ----------------------------------------
 BYTE   W96
//  #07 //088   ----------------------------------------
 BYTE   W96
//  #07 //089   ----------------------------------------
 BYTE   W96
//  #07 //090   ----------------------------------------
 BYTE   W96
//  #07 //091   ----------------------------------------
 BYTE   W96
//  #07 //092   ----------------------------------------
 BYTE   W96
//  #07 //093   ----------------------------------------
 BYTE   W96
//  #07 //094   ----------------------------------------
 BYTE   W96
//  #07 //095   ----------------------------------------
 BYTE   W96
//  #07 //096   ----------------------------------------
 BYTE   W96
//  #07 //097   ----------------------------------------
 BYTE   W96
//  #07 //098   ----------------------------------------
 BYTE   W96
//  #07 //099   ----------------------------------------
 BYTE   W96
//  #07 //100   ----------------------------------------
 BYTE   W96
//  #07 //101   ----------------------------------------
 BYTE   W96
//  #07 //102   ----------------------------------------
 BYTE   W96
//  #07 //103   ----------------------------------------
 BYTE   W96
//  #07 //104   ----------------------------------------
 BYTE   W96
//  #07 //105   ----------------------------------------
 BYTE   W96
//  #07 //106   ----------------------------------------
 BYTE   W96
//  #07 //107   ----------------------------------------
 BYTE   W72
 BYTE   N24  Cn4  v080
 BYTE   W24
//  #07 //108   ----------------------------------------
 BYTE   GoTo
  POIN2 Label_010001EA
//  #07 //109   ----------------------------------------
 BYTE   PATT
  POIN2 Label_010001EA
//  #07 //110   ----------------------------------------
 BYTE   PATT
  POIN2 Label_010001F6
//  #07 //111   ----------------------------------------
 BYTE   PATT
  POIN2 Label_01000208
//  #07 //112   ----------------------------------------
 BYTE   PATT
  POIN2 Label_0100020F
//  #07 //113   ----------------------------------------
 BYTE   PATT
  POIN2 Label_010001EA
//  #07 //114   ----------------------------------------
 BYTE   PATT
  POIN2 Label_010001F6
//  #07 //115   ----------------------------------------
 BYTE   PATT
  POIN2 Label_01000208
//  #07 //116   ----------------------------------------
 BYTE   PATT
  POIN2 Label_0100022B
//  #07 //117   ----------------------------------------
 BYTE   PATT
  POIN2 Label_010001EA
//  #07 //118   ----------------------------------------
 BYTE   PATT
  POIN2 Label_010001F6
//  #07 //119   ----------------------------------------
 BYTE   PATT
  POIN2 Label_01000208
//  #07 //120   ----------------------------------------
 BYTE   PATT
  POIN2 Label_0100020F
//  #07 //121   ----------------------------------------
 BYTE   PATT
  POIN2 Label_010001EA
//  #07 //122   ----------------------------------------
 BYTE   PATT
  POIN2 Label_010001F6
//  #07 //123   ----------------------------------------
 BYTE   PATT
  POIN2 Label_01000208
//  #07 //124   ----------------------------------------
 BYTE   PATT
  POIN2 Label_0100022B
//  #07 //125   ----------------------------------------
 BYTE   W96
//  #07 //126   ----------------------------------------
 BYTE   W96
//  #07 //127   ----------------------------------------
 BYTE   W96
//  #07 //128   ----------------------------------------
 BYTE   W96
//  #07 //129   ----------------------------------------
 BYTE   W96
//  #07 //130   ----------------------------------------
 BYTE   W96
//  #07 //131   ----------------------------------------
 BYTE   W96
//  #07 //132   ----------------------------------------
 BYTE   W96
//  #07 //133   ----------------------------------------
 BYTE   W96
//  #07 //134   ----------------------------------------
 BYTE   W96
//  #07 //135   ----------------------------------------
 BYTE   W96
//  #07 //136   ----------------------------------------
 BYTE   W96
//  #07 //137   ----------------------------------------
 BYTE   W96
//  #07 //138   ----------------------------------------
 BYTE   W96
//  #07 //139   ----------------------------------------
 BYTE   W96
//  #07 //140   ----------------------------------------
 BYTE   W96
//  #07 //141   ----------------------------------------
 BYTE   W96
//  #07 //142   ----------------------------------------
 BYTE   W96
//  #07 //143   ----------------------------------------
 BYTE   W96
//  #07 //144   ----------------------------------------
 BYTE   W96
//  #07 //145   ----------------------------------------
 BYTE   W96
//  #07 //146   ----------------------------------------
 BYTE   W96
//  #07 //147   ----------------------------------------
 BYTE   W96
//  #07 //148   ----------------------------------------
 BYTE   W72
 BYTE   N24  Cn4  v080
 BYTE   W24
//  #07 //149   ----------------------------------------
 BYTE   PATT
  POIN2 Label_010001EA
//  #07 //150   ----------------------------------------
 BYTE   PATT
  POIN2 Label_010001F6
//  #07 //151   ----------------------------------------
 BYTE   PATT
  POIN2 Label_01000208
//  #07 //152   ----------------------------------------
 BYTE   PATT
  POIN2 Label_0100020F
//  #07 //153   ----------------------------------------
 BYTE   PATT
  POIN2 Label_010001EA
//  #07 //154   ----------------------------------------
 BYTE   PATT
  POIN2 Label_010001F6
//  #07 //155   ----------------------------------------
 BYTE   PATT
  POIN2 Label_01000208
//  #07 //156   ----------------------------------------
 BYTE   PATT
  POIN2 Label_0100022B
//  #07 //157   ----------------------------------------
 BYTE   PATT
  POIN2 Label_010002A4
//  #07 //158   ----------------------------------------
 BYTE   PATT
  POIN2 Label_010002AF
//  #07 //159   ----------------------------------------
 BYTE   PATT
  POIN2 Label_010002BA
//  #07 //160   ----------------------------------------
 BYTE   PATT
  POIN2 Label_010002C5
//  #07 //161   ----------------------------------------
 BYTE   PATT
  POIN2 Label_010002A4
//  #07 //162   ----------------------------------------
 BYTE   PATT
  POIN2 Label_010002D5
//  #07 //163   ----------------------------------------
 BYTE   PATT
  POIN2 Label_010002BA
//  #07 //164   ----------------------------------------
 BYTE   PATT
  POIN2 Label_010002C5
 BYTE   FINE

//**************** Track 8 (Midi-Chn.7) ****************//

InnocenceGlitched_008:
//  #08 //000   ----------------------------------------
 BYTE   VOL   52*InnocenceGlitched_mvl/mxv
 BYTE   KEYSH   InnocenceGlitched_key+0
 BYTE   VOICE   1
 BYTE   W96
//  #08 //001   ----------------------------------------
 BYTE   W96
//  #08 //002   ----------------------------------------
 BYTE   W96
//  #08 //003   ----------------------------------------
 BYTE   W72
 BYTE   N24  Cn4  v096
 BYTE   W24
//  #08 //004   ----------------------------------------
 BYTE   N72  Gn4
 BYTE   W96
//  #08 //005   ----------------------------------------
Label_010003DD:
 BYTE   W48
 BYTE   N18  Gn4  v096
 BYTE   W18
 BYTE   Gs4
 BYTE   W18
 BYTE   N12  Gn4
 BYTE   W12
 BYTE   PEND 
//  #08 //006   ----------------------------------------
Label_010003E8:
 BYTE   N18  Fn4  v096
 BYTE   W18
 BYTE   Gn4
 BYTE   W18
 BYTE   N12  Fn4
 BYTE   W12
 BYTE   N24  Ds4
 BYTE   W48
 BYTE   PEND 
//  #08 //007   ----------------------------------------
 BYTE   W48
 BYTE   N48  Bn3
 BYTE   W48
//  #08 //008   ----------------------------------------
 BYTE   TIE  Fn4
 BYTE   W96
//  #08 //009   ----------------------------------------
 BYTE   W24
 BYTE   EOT
 BYTE   W72
//  #08 //010   ----------------------------------------
 BYTE   PATT
  POIN2 Label_010003DD
//  #08 //011   ----------------------------------------
Label_01000404:
 BYTE   N18  Ds4  v096
 BYTE   W18
 BYTE   As4
 BYTE   W18
 BYTE   N12  Gn4
 BYTE   W12
 BYTE   N18  Ds5
 BYTE   W18
 BYTE   Bn4
 BYTE   W18
 BYTE   N12  Gs4
 BYTE   W12
 BYTE   PEND 
//  #08 //012   ----------------------------------------
 BYTE   N48  Cn4
 BYTE   N48  Cn5
 BYTE   W96
//  #08 //013   ----------------------------------------
 BYTE   PATT
  POIN2 Label_010003DD
//  #08 //014   ----------------------------------------
Label_01000420:
 BYTE   N18  Fn4  v096
 BYTE   W18
 BYTE   N12  Gn4
 BYTE   W12
 BYTE   N18  Fn4
 BYTE   W18
 BYTE   N24  Gs3
 BYTE   W48
 BYTE   PEND 
//  #08 //015   ----------------------------------------
 BYTE   W48
 BYTE   Bn3
 BYTE   W48
//  #08 //016   ----------------------------------------
Label_01000431:
 BYTE   N48  Cn4  v096
 BYTE   W48
 BYTE   N24  Gn4
 BYTE   W24
 BYTE   Cn4
 BYTE   W24
 BYTE   PEND 
//  #08 //017   ----------------------------------------
 BYTE   N48  Ds5
 BYTE   W96
//  #08 //018   ----------------------------------------
Label_0100043E:
 BYTE   W48
 BYTE   N18  Bn3  v096
 BYTE   W18
 BYTE   N12  Cs5
 BYTE   W12
 BYTE   N18  Bn4
 BYTE   W18
 BYTE   PEND 
//  #08 //019   ----------------------------------------
Label_0100044A:
 BYTE   N18  Fs4  v096
 BYTE   W18
 BYTE   N12  Fn4
 BYTE   W12
 BYTE   N18  Ds4
 BYTE   W18
 BYTE   N48  Bn3
 BYTE   W48
 BYTE   PEND 
//  #08 //020   ----------------------------------------
 BYTE   W96
//  #08 //021   ----------------------------------------
 BYTE   W96
//  #08 //022   ----------------------------------------
 BYTE   W96
//  #08 //023   ----------------------------------------
 BYTE   W96
//  #08 //024   ----------------------------------------
 BYTE   W96
//  #08 //025   ----------------------------------------
 BYTE   W96
//  #08 //026   ----------------------------------------
 BYTE   W96
//  #08 //027   ----------------------------------------
 BYTE   W96
//  #08 //028   ----------------------------------------
Label_01000460:
 BYTE   W96
//  #08 //029   ----------------------------------------
 BYTE   W96
//  #08 //030   ----------------------------------------
 BYTE   W96
//  #08 //031   ----------------------------------------
 BYTE   W96
//  #08 //032   ----------------------------------------
 BYTE   W96
//  #08 //033   ----------------------------------------
 BYTE   W96
//  #08 //034   ----------------------------------------
 BYTE   W96
//  #08 //035   ----------------------------------------
 BYTE   W96
//  #08 //036   ----------------------------------------
 BYTE   W96
//  #08 //037   ----------------------------------------
 BYTE   W96
//  #08 //038   ----------------------------------------
 BYTE   W96
//  #08 //039   ----------------------------------------
 BYTE   W96
//  #08 //040   ----------------------------------------
 BYTE   W96
//  #08 //041   ----------------------------------------
 BYTE   W96
//  #08 //042   ----------------------------------------
 BYTE   W96
//  #08 //043   ----------------------------------------
 BYTE   W96
//  #08 //044   ----------------------------------------
 BYTE   W96
//  #08 //045   ----------------------------------------
 BYTE   W96
//  #08 //046   ----------------------------------------
 BYTE   W96
//  #08 //047   ----------------------------------------
 BYTE   W96
//  #08 //048   ----------------------------------------
 BYTE   W96
//  #08 //049   ----------------------------------------
 BYTE   W96
//  #08 //050   ----------------------------------------
 BYTE   W96
//  #08 //051   ----------------------------------------
 BYTE   W96
//  #08 //052   ----------------------------------------
 BYTE   W96
//  #08 //053   ----------------------------------------
 BYTE   W96
//  #08 //054   ----------------------------------------
 BYTE   W96
//  #08 //055   ----------------------------------------
 BYTE   W96
//  #08 //056   ----------------------------------------
 BYTE   W96
//  #08 //057   ----------------------------------------
 BYTE   W96
//  #08 //058   ----------------------------------------
 BYTE   W96
//  #08 //059   ----------------------------------------
 BYTE   W96
//  #08 //060   ----------------------------------------
Label_01000480:
 BYTE   N12  Cn5  v068
 BYTE   W12
 BYTE   N12
 BYTE   W12
 BYTE   N12
 BYTE   W12
 BYTE   N12
 BYTE   W12
 BYTE   N12
 BYTE   W12
 BYTE   N12
 BYTE   W12
 BYTE   N12
 BYTE   W12
 BYTE   N12
 BYTE   W12
 BYTE   PEND 
//  #08 //061   ----------------------------------------
Label_01000493:
 BYTE   N12  Ds5  v068
 BYTE   W12
 BYTE   N12
 BYTE   W12
 BYTE   N12
 BYTE   W12
 BYTE   N12
 BYTE   W12
 BYTE   N12
 BYTE   W12
 BYTE   N12
 BYTE   W12
 BYTE   N12
 BYTE   W12
 BYTE   N12
 BYTE   W12
 BYTE   PEND 
//  #08 //062   ----------------------------------------
Label_010004A6:
 BYTE   N12  Gs4  v068
 BYTE   W12
 BYTE   N12
 BYTE   W12
 BYTE   N12
 BYTE   W12
 BYTE   N12
 BYTE   W12
 BYTE   N12
 BYTE   W12
 BYTE   N12
 BYTE   W12
 BYTE   N12
 BYTE   W12
 BYTE   N12
 BYTE   W12
 BYTE   PEND 
//  #08 //063   ----------------------------------------
Label_010004B9:
 BYTE   N12  Bn4  v068
 BYTE   W12
 BYTE   N12
 BYTE   W12
 BYTE   N12
 BYTE   W12
 BYTE   N12
 BYTE   W12
 BYTE   N12
 BYTE   W12
 BYTE   N12
 BYTE   W12
 BYTE   N12
 BYTE   W12
 BYTE   N12
 BYTE   W12
 BYTE   PEND 
//  #08 //064   ----------------------------------------
 BYTE   PATT
  POIN2 Label_01000480
//  #08 //065   ----------------------------------------
 BYTE   PATT
  POIN2 Label_01000493
//  #08 //066   ----------------------------------------
 BYTE   PATT
  POIN2 Label_010004A6
//  #08 //067   ----------------------------------------
 BYTE   PATT
  POIN2 Label_010004B9
//  #08 //068   ----------------------------------------
 BYTE   W96
//  #08 //069   ----------------------------------------
 BYTE   W96
//  #08 //070   ----------------------------------------
 BYTE   W96
//  #08 //071   ----------------------------------------
 BYTE   W96
//  #08 //072   ----------------------------------------
 BYTE   W96
//  #08 //073   ----------------------------------------
 BYTE   W96
//  #08 //074   ----------------------------------------
 BYTE   W96
//  #08 //075   ----------------------------------------
 BYTE   W96
//  #08 //076   ----------------------------------------
 BYTE   W96
//  #08 //077   ----------------------------------------
 BYTE   W96
//  #08 //078   ----------------------------------------
 BYTE   W96
//  #08 //079   ----------------------------------------
 BYTE   W96
//  #08 //080   ----------------------------------------
 BYTE   W96
//  #08 //081   ----------------------------------------
 BYTE   W96
//  #08 //082   ----------------------------------------
 BYTE   W96
//  #08 //083   ----------------------------------------
 BYTE   W96
//  #08 //084   ----------------------------------------
 BYTE   N72  Gn4  v096
 BYTE   W96
//  #08 //085   ----------------------------------------
 BYTE   PATT
  POIN2 Label_010003DD
//  #08 //086   ----------------------------------------
 BYTE   PATT
  POIN2 Label_010003E8
//  #08 //087   ----------------------------------------
 BYTE   W48
 BYTE   N48  Bn3  v096
 BYTE   W48
//  #08 //088   ----------------------------------------
 BYTE   TIE  Fn4
 BYTE   W96
//  #08 //089   ----------------------------------------
 BYTE   W24
 BYTE   EOT
 BYTE   W72
//  #08 //090   ----------------------------------------
 BYTE   PATT
  POIN2 Label_010003DD
//  #08 //091   ----------------------------------------
 BYTE   PATT
  POIN2 Label_01000404
//  #08 //092   ----------------------------------------
 BYTE   N48  Cn4  v096
 BYTE   N48  Cn5
 BYTE   W96
//  #08 //093   ----------------------------------------
 BYTE   PATT
  POIN2 Label_010003DD
//  #08 //094   ----------------------------------------
 BYTE   PATT
  POIN2 Label_01000420
//  #08 //095   ----------------------------------------
 BYTE   W48
 BYTE   N24  Bn3  v096
 BYTE   W48
//  #08 //096   ----------------------------------------
 BYTE   PATT
  POIN2 Label_01000431
//  #08 //097   ----------------------------------------
 BYTE   N48  Ds5  v096
 BYTE   W96
//  #08 //098   ----------------------------------------
 BYTE   PATT
  POIN2 Label_0100043E
//  #08 //099   ----------------------------------------
 BYTE   PATT
  POIN2 Label_0100044A
//  #08 //100   ----------------------------------------
 BYTE   W96
//  #08 //101   ----------------------------------------
 BYTE   W96
//  #08 //102   ----------------------------------------
 BYTE   W96
//  #08 //103   ----------------------------------------
 BYTE   W96
//  #08 //104   ----------------------------------------
 BYTE   W96
//  #08 //105   ----------------------------------------
 BYTE   W96
//  #08 //106   ----------------------------------------
 BYTE   W96
//  #08 //107   ----------------------------------------
 BYTE   W96
//  #08 //108   ----------------------------------------
 BYTE   GoTo
  POIN2 Label_01000460
//  #08 //109   ----------------------------------------
 BYTE   W96
//  #08 //110   ----------------------------------------
 BYTE   W96
//  #08 //111   ----------------------------------------
 BYTE   W96
//  #08 //112   ----------------------------------------
 BYTE   W96
//  #08 //113   ----------------------------------------
 BYTE   W96
//  #08 //114   ----------------------------------------
 BYTE   W96
//  #08 //115   ----------------------------------------
 BYTE   W96
//  #08 //116   ----------------------------------------
 BYTE   W96
//  #08 //117   ----------------------------------------
 BYTE   W96
//  #08 //118   ----------------------------------------
 BYTE   W96
//  #08 //119   ----------------------------------------
 BYTE   W96
//  #08 //120   ----------------------------------------
 BYTE   W96
//  #08 //121   ----------------------------------------
 BYTE   W96
//  #08 //122   ----------------------------------------
 BYTE   W96
//  #08 //123   ----------------------------------------
 BYTE   W96
//  #08 //124   ----------------------------------------
 BYTE   W96
//  #08 //125   ----------------------------------------
 BYTE   W96
//  #08 //126   ----------------------------------------
 BYTE   W96
//  #08 //127   ----------------------------------------
 BYTE   W96
//  #08 //128   ----------------------------------------
 BYTE   W96
//  #08 //129   ----------------------------------------
 BYTE   W96
//  #08 //130   ----------------------------------------
 BYTE   W96
//  #08 //131   ----------------------------------------
 BYTE   W96
//  #08 //132   ----------------------------------------
 BYTE   W96
//  #08 //133   ----------------------------------------
 BYTE   W96
//  #08 //134   ----------------------------------------
 BYTE   W96
//  #08 //135   ----------------------------------------
 BYTE   W96
//  #08 //136   ----------------------------------------
 BYTE   W96
//  #08 //137   ----------------------------------------
 BYTE   W96
//  #08 //138   ----------------------------------------
 BYTE   W96
//  #08 //139   ----------------------------------------
 BYTE   W96
//  #08 //140   ----------------------------------------
 BYTE   W96
//  #08 //141   ----------------------------------------
 BYTE   PATT
  POIN2 Label_01000480
//  #08 //142   ----------------------------------------
 BYTE   PATT
  POIN2 Label_01000493
//  #08 //143   ----------------------------------------
 BYTE   PATT
  POIN2 Label_010004A6
//  #08 //144   ----------------------------------------
 BYTE   PATT
  POIN2 Label_010004B9
//  #08 //145   ----------------------------------------
 BYTE   PATT
  POIN2 Label_01000480
//  #08 //146   ----------------------------------------
 BYTE   PATT
  POIN2 Label_01000493
//  #08 //147   ----------------------------------------
 BYTE   PATT
  POIN2 Label_010004A6
//  #08 //148   ----------------------------------------
 BYTE   PATT
  POIN2 Label_010004B9
//  #08 //149   ----------------------------------------
 BYTE   W96
//  #08 //150   ----------------------------------------
 BYTE   W96
//  #08 //151   ----------------------------------------
 BYTE   W96
//  #08 //152   ----------------------------------------
 BYTE   W96
//  #08 //153   ----------------------------------------
 BYTE   W96
//  #08 //154   ----------------------------------------
 BYTE   W96
//  #08 //155   ----------------------------------------
 BYTE   W96
//  #08 //156   ----------------------------------------
 BYTE   W96
//  #08 //157   ----------------------------------------
 BYTE   W96
//  #08 //158   ----------------------------------------
 BYTE   W96
//  #08 //159   ----------------------------------------
 BYTE   W96
//  #08 //160   ----------------------------------------
 BYTE   W96
//  #08 //161   ----------------------------------------
 BYTE   W96
//  #08 //162   ----------------------------------------
 BYTE   W96
//  #08 //163   ----------------------------------------
 BYTE   W96
//  #08 //164   ----------------------------------------
 BYTE   W96
 BYTE   FINE

//**************** Track 9 (Midi-Chn.8) ****************//

InnocenceGlitched_009:
//  #09 //000   ----------------------------------------
 BYTE   VOL   52*InnocenceGlitched_mvl/mxv
 BYTE   KEYSH   InnocenceGlitched_key+0
 BYTE   VOICE   124
 BYTE   N06  Cn1  v080
 BYTE   W24
 BYTE   Cs1
 BYTE   W12
 BYTE   Cn1
 BYTE   W36
 BYTE   En1
 BYTE   W24
//  #09 //001   ----------------------------------------
Label_010005B4:
 BYTE   N06  Cn1  v080
 BYTE   W24
 BYTE   Cs1
 BYTE   W24
 BYTE   Cn1
 BYTE   W12
 BYTE   N06
 BYTE   W36
 BYTE   PEND 
//  #09 //002   ----------------------------------------
Label_010005BF:
 BYTE   N06  Cn1  v080
 BYTE   W24
 BYTE   Cs1
 BYTE   W12
 BYTE   Cn1
 BYTE   W24
 BYTE   N06
 BYTE   W12
 BYTE   En1
 BYTE   W24
 BYTE   PEND 
//  #09 //003   ----------------------------------------
Label_010005CC:
 BYTE   N06  Cn1  v080
 BYTE   W12
 BYTE   N06
 BYTE   W12
 BYTE   Cs1
 BYTE   W24
 BYTE   Cn1
 BYTE   W12
 BYTE   N06
 BYTE   W36
 BYTE   PEND 
//  #09 //004   ----------------------------------------
Label_010005D9:
 BYTE   N06  Cn1  v080
 BYTE   N06  Fs1
 BYTE   W12
 BYTE   Fn1
 BYTE   N06  Fs1
 BYTE   W12
 BYTE   Cn1
 BYTE   N06  Fs1
 BYTE   N06  Gn1
 BYTE   W24
 BYTE   Fs1
 BYTE   W24
 BYTE   Cn1
 BYTE   N06  Fn1
 BYTE   N06  Fs1
 BYTE   W24
 BYTE   PEND 
//  #09 //005   ----------------------------------------
Label_010005F2:
 BYTE   N06  Cn1  v080
 BYTE   N06  Fs1
 BYTE   W12
 BYTE   Fn1
 BYTE   W12
 BYTE   Cn1
 BYTE   N06  Fs1
 BYTE   N06  Gn1
 BYTE   W24
 BYTE   En1
 BYTE   N06  Fs1
 BYTE   W24
 BYTE   Cn1
 BYTE   N06  Fs1
 BYTE   N06  Gn1
 BYTE   W24
 BYTE   PEND 
//  #09 //006   ----------------------------------------
Label_0100060B:
 BYTE   N06  Cn1  v080
 BYTE   N06  Fs1
 BYTE   W12
 BYTE   Fn1
 BYTE   W12
 BYTE   Cn1
 BYTE   N06  Fs1
 BYTE   N06  Gn1
 BYTE   W24
 BYTE   En1
 BYTE   N06  Fs1
 BYTE   W24
 BYTE   Cn1
 BYTE   N06  Fn1
 BYTE   N06  Fs1
 BYTE   W24
 BYTE   PEND 
//  #09 //007   ----------------------------------------
Label_01000624:
 BYTE   N06  Cn1  v080
 BYTE   N06  Fs1
 BYTE   W12
 BYTE   Fn1
 BYTE   W12
 BYTE   Cn1
 BYTE   N06  Fs1
 BYTE   N06  Gn1
 BYTE   W24
 BYTE   En1
 BYTE   N06  Fs1
 BYTE   W24
 BYTE   Cn1
 BYTE   N06  Dn1
 BYTE   N06  Fs1
 BYTE   W24
 BYTE   PEND 
//  #09 //008   ----------------------------------------
 BYTE   PATT
  POIN2 Label_010005D9
//  #09 //009   ----------------------------------------
 BYTE   PATT
  POIN2 Label_010005F2
//  #09 //010   ----------------------------------------
 BYTE   PATT
  POIN2 Label_0100060B
//  #09 //011   ----------------------------------------
 BYTE   PATT
  POIN2 Label_01000624
//  #09 //012   ----------------------------------------
 BYTE   PATT
  POIN2 Label_010005D9
//  #09 //013   ----------------------------------------
 BYTE   PATT
  POIN2 Label_010005F2
//  #09 //014   ----------------------------------------
 BYTE   PATT
  POIN2 Label_0100060B
//  #09 //015   ----------------------------------------
 BYTE   PATT
  POIN2 Label_01000624
//  #09 //016   ----------------------------------------
 BYTE   PATT
  POIN2 Label_010005D9
//  #09 //017   ----------------------------------------
 BYTE   PATT
  POIN2 Label_010005F2
//  #09 //018   ----------------------------------------
Label_0100066F:
 BYTE   N06  Cn1  v080
 BYTE   N06  Fs1
 BYTE   W12
 BYTE   Fn1
 BYTE   W12
 BYTE   Cn1
 BYTE   N06  Fs1
 BYTE   N06  Gn1
 BYTE   W24
 BYTE   En1
 BYTE   N06  Fs1
 BYTE   W24
 BYTE   Cn1
 BYTE   N06  Fs1
 BYTE   N06  Gn1
 BYTE   W12
 BYTE   Fn1
 BYTE   W12
 BYTE   PEND 
//  #09 //019   ----------------------------------------
Label_0100068A:
 BYTE   N06  Cn1  v080
 BYTE   N06  Fs1
 BYTE   W18
 BYTE   Fn1
 BYTE   W06
 BYTE   Cn1
 BYTE   N06  Fs1
 BYTE   N06  Gn1
 BYTE   W12
 BYTE   Fn1
 BYTE   W12
 BYTE   En1
 BYTE   N06  Fs1
 BYTE   W12
 BYTE   Gn1
 BYTE   W12
 BYTE   Cn1
 BYTE   N06  Fn1
 BYTE   N06  Fs1
 BYTE   W12
 BYTE   Fn1
 BYTE   W12
 BYTE   PEND 
//  #09 //020   ----------------------------------------
Label_010006A9:
 BYTE   N06  Fs1  v080
 BYTE   N96  Cs2
 BYTE   W24
 BYTE   N06  Fs1
 BYTE   W24
 BYTE   N06
 BYTE   W24
 BYTE   N06
 BYTE   W24
 BYTE   PEND 
//  #09 //021   ----------------------------------------
Label_010006B7:
 BYTE   N06  Fs1  v080
 BYTE   W24
 BYTE   N06
 BYTE   W24
 BYTE   N06
 BYTE   W24
 BYTE   N06
 BYTE   W24
 BYTE   PEND 
//  #09 //022   ----------------------------------------
 BYTE   PATT
  POIN2 Label_010006B7
//  #09 //023   ----------------------------------------
 BYTE   PATT
  POIN2 Label_010006B7
//  #09 //024   ----------------------------------------
 BYTE   PATT
  POIN2 Label_010006B7
//  #09 //025   ----------------------------------------
 BYTE   PATT
  POIN2 Label_010006B7
//  #09 //026   ----------------------------------------
 BYTE   PATT
  POIN2 Label_010006B7
//  #09 //027   ----------------------------------------
Label_010006DB:
 BYTE   N06  Fn1  v080
 BYTE   N06  Fs1
 BYTE   N06  Gn1
 BYTE   W18
 BYTE   Fn1
 BYTE   N06  Gn1
 BYTE   W06
 BYTE   Fn1
 BYTE   N06  Fs1
 BYTE   N06  Gn1
 BYTE   W06
 BYTE   Fn1
 BYTE   N06  Gn1
 BYTE   W12
 BYTE   Fn1
 BYTE   N06  Gn1
 BYTE   W06
 BYTE   Fn1
 BYTE   N06  Gn1
 BYTE   W06
 BYTE   Fn1
 BYTE   N06  Gn1
 BYTE   W12
 BYTE   Fn1
 BYTE   N06  Gn1
 BYTE   W06
 BYTE   Fn1
 BYTE   N06  Gn1
 BYTE   N06  An1
 BYTE   W06
 BYTE   Fn1
 BYTE   N06  Gn1
 BYTE   W06
 BYTE   Fn1
 BYTE   N06  Gn1
 BYTE   W06
 BYTE   Fn1
 BYTE   N06  Gn1
 BYTE   W06
 BYTE   PEND 
//  #09 //028   ----------------------------------------
Label_01000714:
 BYTE   N06  Cn1  v080
 BYTE   N06  Dn1
 BYTE   N12  As1
 BYTE   N96  Cs2
 BYTE   W24
 BYTE   N12  As1
 BYTE   W12
 BYTE   N06  Cn1
 BYTE   N06  Dn1
 BYTE   W12
 BYTE   En1
 BYTE   N12  As1
 BYTE   W24
 BYTE   N12
 BYTE   W12
 BYTE   N06  En1
 BYTE   W12
 BYTE   PEND 
//  #09 //029   ----------------------------------------
Label_01000730:
 BYTE   N06  Cn1  v080
 BYTE   N06  Dn1
 BYTE   N12  As1
 BYTE   W12
 BYTE   N06  Cn1
 BYTE   N06  Dn1
 BYTE   W12
 BYTE   N12  As1
 BYTE   W12
 BYTE   N06  Cn1
 BYTE   N06  Dn1
 BYTE   W12
 BYTE   En1
 BYTE   N12  As1
 BYTE   W24
 BYTE   N12
 BYTE   W12
 BYTE   N06  En1
 BYTE   W12
 BYTE   PEND 
//  #09 //030   ----------------------------------------
Label_0100074F:
 BYTE   N06  Cn1  v080
 BYTE   N06  Dn1
 BYTE   N12  As1
 BYTE   W24
 BYTE   N12
 BYTE   W24
 BYTE   N06  En1
 BYTE   N12  As1
 BYTE   W24
 BYTE   N06  Cn1
 BYTE   N06  Dn1
 BYTE   N12  As1
 BYTE   W12
 BYTE   N06  En1
 BYTE   W06
 BYTE   N06
 BYTE   W06
 BYTE   PEND 
//  #09 //031   ----------------------------------------
Label_0100076B:
 BYTE   N06  Cn1  v080
 BYTE   N06  Dn1
 BYTE   N12  As1
 BYTE   W24
 BYTE   N12
 BYTE   W24
 BYTE   N06  Cn1
 BYTE   N06  Dn1
 BYTE   N12  As1
 BYTE   W24
 BYTE   N06  En1
 BYTE   N12  As1
 BYTE   W12
 BYTE   N06  Cn1
 BYTE   N06  Dn1
 BYTE   W12
 BYTE   PEND 
//  #09 //032   ----------------------------------------
Label_01000787:
 BYTE   N06  Cn1  v080
 BYTE   N06  Dn1
 BYTE   N12  As1
 BYTE   W24
 BYTE   N12
 BYTE   W12
 BYTE   N06  Cn1
 BYTE   N06  Dn1
 BYTE   W12
 BYTE   En1
 BYTE   N12  As1
 BYTE   W24
 BYTE   N12
 BYTE   W12
 BYTE   N06  En1
 BYTE   W12
 BYTE   PEND 
//  #09 //033   ----------------------------------------
 BYTE   PATT
  POIN2 Label_01000730
//  #09 //034   ----------------------------------------
 BYTE   PATT
  POIN2 Label_0100074F
//  #09 //035   ----------------------------------------
 BYTE   PATT
  POIN2 Label_0100076B
//  #09 //036   ----------------------------------------
 BYTE   PATT
  POIN2 Label_01000787
//  #09 //037   ----------------------------------------
 BYTE   PATT
  POIN2 Label_01000730
//  #09 //038   ----------------------------------------
 BYTE   PATT
  POIN2 Label_0100074F
//  #09 //039   ----------------------------------------
 BYTE   PATT
  POIN2 Label_0100076B
//  #09 //040   ----------------------------------------
 BYTE   PATT
  POIN2 Label_01000787
//  #09 //041   ----------------------------------------
 BYTE   PATT
  POIN2 Label_01000730
//  #09 //042   ----------------------------------------
 BYTE   PATT
  POIN2 Label_0100074F
//  #09 //043   ----------------------------------------
 BYTE   PATT
  POIN2 Label_0100076B
//  #09 //044   ----------------------------------------
Label_010007D7:
 BYTE   N06  Fs1  v080
 BYTE   N06  Gn1
 BYTE   N06  Cs2
 BYTE   W12
 BYTE   Gn1
 BYTE   W06
 BYTE   N06
 BYTE   W06
 BYTE   Fs1
 BYTE   W12
 BYTE   Gn1
 BYTE   W12
 BYTE   Fs1
 BYTE   W12
 BYTE   Gn1
 BYTE   W12
 BYTE   Fs1
 BYTE   N06  Gn1
 BYTE   W12
 BYTE   N06
 BYTE   W12
 BYTE   PEND 
//  #09 //045   ----------------------------------------
Label_010007F2:
 BYTE   N06  Fs1  v080
 BYTE   W12
 BYTE   Gn1
 BYTE   W12
 BYTE   Fs1
 BYTE   W24
 BYTE   N06
 BYTE   N06  Gn1
 BYTE   W24
 BYTE   Fs1
 BYTE   N06  Gn1
 BYTE   W12
 BYTE   N06
 BYTE   W12
 BYTE   PEND 
//  #09 //046   ----------------------------------------
Label_01000805:
 BYTE   N06  Fs1  v080
 BYTE   N06  Gn1
 BYTE   W12
 BYTE   N06
 BYTE   W06
 BYTE   N06
 BYTE   W06
 BYTE   Fs1
 BYTE   W12
 BYTE   Gn1
 BYTE   W12
 BYTE   Fs1
 BYTE   W12
 BYTE   Gn1
 BYTE   W12
 BYTE   Fs1
 BYTE   N06  Gn1
 BYTE   W12
 BYTE   N06
 BYTE   W12
 BYTE   PEND 
//  #09 //047   ----------------------------------------
 BYTE   PATT
  POIN2 Label_010007F2
//  #09 //048   ----------------------------------------
 BYTE   PATT
  POIN2 Label_01000805
//  #09 //049   ----------------------------------------
 BYTE   PATT
  POIN2 Label_010007F2
//  #09 //050   ----------------------------------------
 BYTE   PATT
  POIN2 Label_01000805
//  #09 //051   ----------------------------------------
 BYTE   PATT
  POIN2 Label_010007F2
//  #09 //052   ----------------------------------------
Label_01000837:
 BYTE   N06  Cn1  v080
 BYTE   W24
 BYTE   Cs1
 BYTE   W12
 BYTE   Cn1
 BYTE   W36
 BYTE   En1
 BYTE   W24
 BYTE   PEND 
//  #09 //053   ----------------------------------------
 BYTE   PATT
  POIN2 Label_010005B4
//  #09 //054   ----------------------------------------
 BYTE   PATT
  POIN2 Label_010005BF
//  #09 //055   ----------------------------------------
 BYTE   PATT
  POIN2 Label_010005CC
//  #09 //056   ----------------------------------------
 BYTE   PATT
  POIN2 Label_01000837
//  #09 //057   ----------------------------------------
 BYTE   PATT
  POIN2 Label_010005B4
//  #09 //058   ----------------------------------------
 BYTE   PATT
  POIN2 Label_010005BF
//  #09 //059   ----------------------------------------
 BYTE   PATT
  POIN2 Label_010005CC
//  #09 //060   ----------------------------------------
Label_01000865:
 BYTE   N06  Cn1  v080
 BYTE   N06  Fs1
 BYTE   N06  Gn1
 BYTE   W12
 BYTE   N06
 BYTE   W06
 BYTE   N06
 BYTE   W06
 BYTE   Cs1
 BYTE   N06  Fs1
 BYTE   W12
 BYTE   Cn1
 BYTE   N06  Gn1
 BYTE   W12
 BYTE   Fs1
 BYTE   W12
 BYTE   Gn1
 BYTE   W12
 BYTE   En1
 BYTE   N06  Fs1
 BYTE   N06  Gn1
 BYTE   W12
 BYTE   N06
 BYTE   W12
 BYTE   PEND 
//  #09 //061   ----------------------------------------
Label_01000886:
 BYTE   N06  Cn1  v080
 BYTE   N06  Fs1
 BYTE   W12
 BYTE   Gn1
 BYTE   W12
 BYTE   Cs1
 BYTE   N06  Fs1
 BYTE   W24
 BYTE   Cn1
 BYTE   N06  Fs1
 BYTE   N06  Gn1
 BYTE   W12
 BYTE   Cn1
 BYTE   W12
 BYTE   Fs1
 BYTE   N06  Gn1
 BYTE   W12
 BYTE   N06
 BYTE   W12
 BYTE   PEND 
//  #09 //062   ----------------------------------------
Label_010008A1:
 BYTE   N06  Cn1  v080
 BYTE   N06  Fs1
 BYTE   N06  Gn1
 BYTE   W12
 BYTE   N06
 BYTE   W06
 BYTE   N06
 BYTE   W06
 BYTE   Cs1
 BYTE   N06  Fs1
 BYTE   W12
 BYTE   Cn1
 BYTE   N06  Gn1
 BYTE   W12
 BYTE   Fs1
 BYTE   W12
 BYTE   Cn1
 BYTE   N06  Gn1
 BYTE   W12
 BYTE   En1
 BYTE   N06  Fs1
 BYTE   N06  Gn1
 BYTE   W12
 BYTE   N06
 BYTE   W12
 BYTE   PEND 
//  #09 //063   ----------------------------------------
Label_010008C4:
 BYTE   N06  Cn1  v080
 BYTE   N06  Fs1
 BYTE   W12
 BYTE   Cn1
 BYTE   N06  Gn1
 BYTE   W12
 BYTE   Cs1
 BYTE   N06  Fs1
 BYTE   W24
 BYTE   Cn1
 BYTE   N06  Fs1
 BYTE   N06  Gn1
 BYTE   W12
 BYTE   Cn1
 BYTE   W12
 BYTE   Fs1
 BYTE   N06  Gn1
 BYTE   W12
 BYTE   N06
 BYTE   W12
 BYTE   PEND 
//  #09 //064   ----------------------------------------
 BYTE   PATT
  POIN2 Label_01000865
//  #09 //065   ----------------------------------------
 BYTE   PATT
  POIN2 Label_01000886
//  #09 //066   ----------------------------------------
 BYTE   PATT
  POIN2 Label_010008A1
//  #09 //067   ----------------------------------------
 BYTE   PATT
  POIN2 Label_010006DB
//  #09 //068   ----------------------------------------
 BYTE   PATT
  POIN2 Label_01000714
//  #09 //069   ----------------------------------------
 BYTE   PATT
  POIN2 Label_01000730
//  #09 //070   ----------------------------------------
 BYTE   PATT
  POIN2 Label_0100074F
//  #09 //071   ----------------------------------------
 BYTE   PATT
  POIN2 Label_0100076B
//  #09 //072   ----------------------------------------
 BYTE   PATT
  POIN2 Label_01000787
//  #09 //073   ----------------------------------------
 BYTE   PATT
  POIN2 Label_01000730
//  #09 //074   ----------------------------------------
 BYTE   PATT
  POIN2 Label_0100074F
//  #09 //075   ----------------------------------------
 BYTE   PATT
  POIN2 Label_0100076B
//  #09 //076   ----------------------------------------
 BYTE   PATT
  POIN2 Label_01000787
//  #09 //077   ----------------------------------------
 BYTE   PATT
  POIN2 Label_01000730
//  #09 //078   ----------------------------------------
 BYTE   PATT
  POIN2 Label_0100074F
//  #09 //079   ----------------------------------------
 BYTE   PATT
  POIN2 Label_0100076B
//  #09 //080   ----------------------------------------
 BYTE   PATT
  POIN2 Label_01000787
//  #09 //081   ----------------------------------------
 BYTE   PATT
  POIN2 Label_01000730
//  #09 //082   ----------------------------------------
 BYTE   PATT
  POIN2 Label_0100074F
//  #09 //083   ----------------------------------------
 BYTE   PATT
  POIN2 Label_0100076B
//  #09 //084   ----------------------------------------
 BYTE   PATT
  POIN2 Label_010005D9
//  #09 //085   ----------------------------------------
 BYTE   PATT
  POIN2 Label_010005F2
//  #09 //086   ----------------------------------------
 BYTE   PATT
  POIN2 Label_0100060B
//  #09 //087   ----------------------------------------
 BYTE   PATT
  POIN2 Label_01000624
//  #09 //088   ----------------------------------------
 BYTE   PATT
  POIN2 Label_010005D9
//  #09 //089   ----------------------------------------
 BYTE   PATT
  POIN2 Label_010005F2
//  #09 //090   ----------------------------------------
 BYTE   PATT
  POIN2 Label_0100060B
//  #09 //091   ----------------------------------------
 BYTE   PATT
  POIN2 Label_01000624
//  #09 //092   ----------------------------------------
 BYTE   PATT
  POIN2 Label_010005D9
//  #09 //093   ----------------------------------------
 BYTE   PATT
  POIN2 Label_010005F2
//  #09 //094   ----------------------------------------
 BYTE   PATT
  POIN2 Label_0100060B
//  #09 //095   ----------------------------------------
 BYTE   PATT
  POIN2 Label_01000624
//  #09 //096   ----------------------------------------
 BYTE   PATT
  POIN2 Label_010005D9
//  #09 //097   ----------------------------------------
 BYTE   PATT
  POIN2 Label_010005F2
//  #09 //098   ----------------------------------------
 BYTE   PATT
  POIN2 Label_0100066F
//  #09 //099   ----------------------------------------
 BYTE   PATT
  POIN2 Label_0100068A
//  #09 //100   ----------------------------------------
 BYTE   PATT
  POIN2 Label_010006A9
//  #09 //101   ----------------------------------------
 BYTE   PATT
  POIN2 Label_010006B7
//  #09 //102   ----------------------------------------
 BYTE   PATT
  POIN2 Label_010006B7
//  #09 //103   ----------------------------------------
 BYTE   PATT
  POIN2 Label_010006B7
//  #09 //104   ----------------------------------------
 BYTE   PATT
  POIN2 Label_010006B7
//  #09 //105   ----------------------------------------
 BYTE   PATT
  POIN2 Label_010006B7
//  #09 //106   ----------------------------------------
 BYTE   PATT
  POIN2 Label_010006B7
//  #09 //107   ----------------------------------------
 BYTE   PATT
  POIN2 Label_010006DB
//  #09 //108   ----------------------------------------
 BYTE   GoTo
  POIN2 Label_01000714
//  #09 //109   ----------------------------------------
 BYTE   PATT
  POIN2 Label_01000714
//  #09 //110   ----------------------------------------
 BYTE   PATT
  POIN2 Label_01000730
//  #09 //111   ----------------------------------------
 BYTE   PATT
  POIN2 Label_0100074F
//  #09 //112   ----------------------------------------
 BYTE   PATT
  POIN2 Label_0100076B
//  #09 //113   ----------------------------------------
 BYTE   PATT
  POIN2 Label_01000787
//  #09 //114   ----------------------------------------
 BYTE   PATT
  POIN2 Label_01000730
//  #09 //115   ----------------------------------------
 BYTE   PATT
  POIN2 Label_0100074F
//  #09 //116   ----------------------------------------
 BYTE   PATT
  POIN2 Label_0100076B
//  #09 //117   ----------------------------------------
 BYTE   PATT
  POIN2 Label_01000787
//  #09 //118   ----------------------------------------
 BYTE   PATT
  POIN2 Label_01000730
//  #09 //119   ----------------------------------------
 BYTE   PATT
  POIN2 Label_0100074F
//  #09 //120   ----------------------------------------
 BYTE   PATT
  POIN2 Label_0100076B
//  #09 //121   ----------------------------------------
 BYTE   PATT
  POIN2 Label_01000787
//  #09 //122   ----------------------------------------
 BYTE   PATT
  POIN2 Label_01000730
//  #09 //123   ----------------------------------------
 BYTE   PATT
  POIN2 Label_0100074F
//  #09 //124   ----------------------------------------
 BYTE   PATT
  POIN2 Label_0100076B
//  #09 //125   ----------------------------------------
 BYTE   PATT
  POIN2 Label_010007D7
//  #09 //126   ----------------------------------------
 BYTE   PATT
  POIN2 Label_010007F2
//  #09 //127   ----------------------------------------
 BYTE   PATT
  POIN2 Label_01000805
//  #09 //128   ----------------------------------------
 BYTE   PATT
  POIN2 Label_010007F2
//  #09 //129   ----------------------------------------
 BYTE   PATT
  POIN2 Label_01000805
//  #09 //130   ----------------------------------------
 BYTE   PATT
  POIN2 Label_010007F2
//  #09 //131   ----------------------------------------
 BYTE   PATT
  POIN2 Label_01000805
//  #09 //132   ----------------------------------------
 BYTE   PATT
  POIN2 Label_010007F2
//  #09 //133   ----------------------------------------
 BYTE   PATT
  POIN2 Label_01000837
//  #09 //134   ----------------------------------------
 BYTE   PATT
  POIN2 Label_010005B4
//  #09 //135   ----------------------------------------
 BYTE   PATT
  POIN2 Label_010005BF
//  #09 //136   ----------------------------------------
 BYTE   PATT
  POIN2 Label_010005CC
//  #09 //137   ----------------------------------------
 BYTE   PATT
  POIN2 Label_01000837
//  #09 //138   ----------------------------------------
 BYTE   PATT
  POIN2 Label_010005B4
//  #09 //139   ----------------------------------------
 BYTE   PATT
  POIN2 Label_010005BF
//  #09 //140   ----------------------------------------
 BYTE   PATT
  POIN2 Label_010005CC
//  #09 //141   ----------------------------------------
 BYTE   PATT
  POIN2 Label_01000865
//  #09 //142   ----------------------------------------
 BYTE   PATT
  POIN2 Label_01000886
//  #09 //143   ----------------------------------------
 BYTE   PATT
  POIN2 Label_010008A1
//  #09 //144   ----------------------------------------
 BYTE   PATT
  POIN2 Label_010008C4
//  #09 //145   ----------------------------------------
 BYTE   PATT
  POIN2 Label_01000865
//  #09 //146   ----------------------------------------
 BYTE   PATT
  POIN2 Label_01000886
//  #09 //147   ----------------------------------------
 BYTE   PATT
  POIN2 Label_010008A1
//  #09 //148   ----------------------------------------
 BYTE   PATT
  POIN2 Label_010006DB
//  #09 //149   ----------------------------------------
 BYTE   PATT
  POIN2 Label_01000714
//  #09 //150   ----------------------------------------
 BYTE   PATT
  POIN2 Label_01000730
//  #09 //151   ----------------------------------------
 BYTE   PATT
  POIN2 Label_0100074F
//  #09 //152   ----------------------------------------
 BYTE   PATT
  POIN2 Label_0100076B
//  #09 //153   ----------------------------------------
 BYTE   PATT
  POIN2 Label_01000787
//  #09 //154   ----------------------------------------
 BYTE   PATT
  POIN2 Label_01000730
//  #09 //155   ----------------------------------------
 BYTE   PATT
  POIN2 Label_0100074F
//  #09 //156   ----------------------------------------
 BYTE   PATT
  POIN2 Label_0100076B
//  #09 //157   ----------------------------------------
 BYTE   PATT
  POIN2 Label_01000787
//  #09 //158   ----------------------------------------
 BYTE   PATT
  POIN2 Label_01000730
//  #09 //159   ----------------------------------------
 BYTE   PATT
  POIN2 Label_0100074F
//  #09 //160   ----------------------------------------
 BYTE   PATT
  POIN2 Label_0100076B
//  #09 //161   ----------------------------------------
 BYTE   PATT
  POIN2 Label_01000787
//  #09 //162   ----------------------------------------
 BYTE   PATT
  POIN2 Label_01000730
//  #09 //163   ----------------------------------------
 BYTE   PATT
  POIN2 Label_0100074F
//  #09 //164   ----------------------------------------
 BYTE   PATT
  POIN2 Label_0100076B
 BYTE   FINE

//******************************************************//
	ALIGN 4

InnocenceGlitched:
	BYTE	9	// NumTrks
	BYTE	0	// NumBlks
	BYTE	InnocenceGlitched_pri	// Priority
	BYTE	InnocenceGlitched_rev	// Reverb.
    
	POIN2	InnocenceGlitched_grp
    
	POIN2	InnocenceGlitched_001
	POIN2	InnocenceGlitched_002
	POIN2	InnocenceGlitched_003
	POIN2	InnocenceGlitched_004
	POIN2	InnocenceGlitched_005
	POIN2	InnocenceGlitched_006
	POIN2	InnocenceGlitched_007
	POIN2	InnocenceGlitched_008
	POIN2	InnocenceGlitched_009

	
