//Event file generated from Sappy .s format.
	#include "MPlayDef.event"

	#define	LuckyBreak_grp  voicegroup000
	#define	LuckyBreak_pri  0
	#define	LuckyBreak_rev  0
	#define	LuckyBreak_mvl  127
	#define	LuckyBreak_key  0
	#define	LuckyBreak_tbs  1
	#define	LuckyBreak_exg  0
	#define	LuckyBreak_cmp  1

	// .rodata
	//	LuckyBreak
	ALIGN 4


//**************** Track 1 (Midi-Chn.0) ****************//

LuckyBreak_001:
//  #01 //000   ----------------------------------------
 BYTE   KEYSH   LuckyBreak_key+0
 BYTE   TEMPO   76*LuckyBreak_tbs/2
 BYTE   VOICE   45
 BYTE   VOL   37*LuckyBreak_mvl/mxv
 BYTE   PAN   c_v+0
 BYTE   VOL   37*LuckyBreak_mvl/mxv
 BYTE   PAN   c_v+0
 BYTE   VOL   37*LuckyBreak_mvl/mxv
 BYTE   PAN   c_v+0
 BYTE   W18
Label_D14D6F:
 BYTE   TEMPO   76*LuckyBreak_tbs/2
 BYTE   W78
//  #01 //001   ----------------------------------------
 BYTE   W96
//  #01 //002   ----------------------------------------
 BYTE   W96
//  #01 //003   ----------------------------------------
 BYTE   W96
//  #01 //004   ----------------------------------------
 BYTE   W96
//  #01 //005   ----------------------------------------
 BYTE   W96
//  #01 //006   ----------------------------------------
 BYTE   W96
//  #01 //007   ----------------------------------------
 BYTE   W96
//  #01 //008   ----------------------------------------
 BYTE   W96
//  #01 //009   ----------------------------------------
 BYTE   W96
//  #01 //010   ----------------------------------------
 BYTE   W96
//  #01 //011   ----------------------------------------
 BYTE   W96
//  #01 //012   ----------------------------------------
 BYTE   W96
//  #01 //013   ----------------------------------------
 BYTE   W96
//  #01 //014   ----------------------------------------
 BYTE   W96
//  #01 //015   ----------------------------------------
 BYTE   W96
//  #01 //016   ----------------------------------------
 BYTE   W96
//  #01 //017   ----------------------------------------
 BYTE   W96
//  #01 //018   ----------------------------------------
 BYTE   W96
//  #01 //019   ----------------------------------------
 BYTE   W96
//  #01 //020   ----------------------------------------
 BYTE   N23  Bn3  v080
 BYTE   W24
 BYTE   Cn4
 BYTE   W24
 BYTE   N23
 BYTE   W24
 BYTE   Dn4
 BYTE   W24
//  #01 //021   ----------------------------------------
 BYTE   N23
 BYTE   W24
 BYTE   Ds4
 BYTE   W24
 BYTE   N44
 BYTE   W48
//  #01 //022   ----------------------------------------
 BYTE   N23  Dn4
 BYTE   W24
 BYTE   Cn4
 BYTE   W24
 BYTE   N23
 BYTE   W24
 BYTE   As3
 BYTE   W24
//  #01 //023   ----------------------------------------
 BYTE   N23
 BYTE   W24
 BYTE   Gs3
 BYTE   W24
 BYTE   N44
 BYTE   W48
//  #01 //024   ----------------------------------------
 BYTE   N23  En4
 BYTE   W24
 BYTE   Fn4
 BYTE   W24
 BYTE   N23
 BYTE   W24
 BYTE   Gn4
 BYTE   W24
//  #01 //025   ----------------------------------------
 BYTE   N23
 BYTE   W24
 BYTE   Gs4
 BYTE   W24
 BYTE   N44
 BYTE   W48
//  #01 //026   ----------------------------------------
Label_D14DB1:
 BYTE   N23  Gn4  v064
 BYTE   W48
 BYTE   Fn4
 BYTE   W48
 BYTE   PEND 
//  #01 //027   ----------------------------------------
Label_D14DB8:
 BYTE   N23  Ds4  v064
 BYTE   W48
 BYTE   Dn4
 BYTE   W48
 BYTE   PEND 
//  #01 //028   ----------------------------------------
 BYTE   Bn3  v096
 BYTE   W24
 BYTE   Cn4
 BYTE   W24
 BYTE   N23
 BYTE   W24
 BYTE   Dn4
 BYTE   W24
//  #01 //029   ----------------------------------------
 BYTE   N23
 BYTE   W24
 BYTE   Ds4
 BYTE   W24
 BYTE   N44
 BYTE   W48
//  #01 //030   ----------------------------------------
 BYTE   N23  Dn4
 BYTE   W24
 BYTE   Cn4
 BYTE   W24
 BYTE   N23
 BYTE   W24
 BYTE   As3
 BYTE   W24
//  #01 //031   ----------------------------------------
 BYTE   N23
 BYTE   W24
 BYTE   Gs3
 BYTE   W24
 BYTE   N44
 BYTE   W48
//  #01 //032   ----------------------------------------
 BYTE   N23  En4
 BYTE   W24
 BYTE   Fn4
 BYTE   W24
 BYTE   N23
 BYTE   W24
 BYTE   Gn4
 BYTE   W24
//  #01 //033   ----------------------------------------
 BYTE   N23
 BYTE   W24
 BYTE   Gs4
 BYTE   W24
 BYTE   N44
 BYTE   W48
//  #01 //034   ----------------------------------------
 BYTE   PATT
  POIN2 Label_D14DB1
//  #01 //035   ----------------------------------------
 BYTE   PATT
  POIN2 Label_D14DB8
//  #01 //036   ----------------------------------------
 BYTE   W96
//  #01 //037   ----------------------------------------
 BYTE   W96
//  #01 //038   ----------------------------------------
 BYTE   W96
//  #01 //039   ----------------------------------------
 BYTE   W96
//  #01 //040   ----------------------------------------
 BYTE   W96
//  #01 //041   ----------------------------------------
 BYTE   W96
//  #01 //042   ----------------------------------------
 BYTE   W96
//  #01 //043   ----------------------------------------
 BYTE   W96
//  #01 //044   ----------------------------------------
 BYTE   W96
//  #01 //045   ----------------------------------------
 BYTE   W96
//  #01 //046   ----------------------------------------
 BYTE   W96
//  #01 //047   ----------------------------------------
 BYTE   W96
//  #01 //048   ----------------------------------------
 BYTE   W96
//  #01 //049   ----------------------------------------
 BYTE   W96
//  #01 //050   ----------------------------------------
 BYTE   W96
//  #01 //051   ----------------------------------------
 BYTE   W96
//  #01 //052   ----------------------------------------
 BYTE   TEMPO   76*LuckyBreak_tbs/2
 BYTE   W96
//  #01 //053   ----------------------------------------
 BYTE   W96
//  #01 //054   ----------------------------------------
 BYTE   W96
//  #01 //055   ----------------------------------------
 BYTE   W96
//  #01 //056   ----------------------------------------
 BYTE   W96
//  #01 //057   ----------------------------------------
 BYTE   W96
//  #01 //058   ----------------------------------------
 BYTE   W96
//  #01 //059   ----------------------------------------
 BYTE   TEMPO   68*LuckyBreak_tbs/2
 BYTE   W48
 BYTE   TEMPO   66*LuckyBreak_tbs/2
 BYTE   W48
//  #01 //060   ----------------------------------------
 BYTE   TEMPO   64*LuckyBreak_tbs/2
 BYTE   W48
 BYTE   TEMPO   56*LuckyBreak_tbs/2
 BYTE   W48
//  #01 //061   ----------------------------------------
 BYTE   TEMPO   64*LuckyBreak_tbs/2
 BYTE   W96
//  #01 //062   ----------------------------------------
 BYTE   W96
//  #01 //063   ----------------------------------------
 BYTE   W96
//  #01 //064   ----------------------------------------
 BYTE   GoTo
  POIN2 Label_D14D6F
 BYTE   FINE

//**************** Track 2 (Midi-Chn.1) ****************//

LuckyBreak_002:
//  #02 //000   ----------------------------------------
 BYTE   KEYSH   LuckyBreak_key+0
 BYTE   VOICE   36
 BYTE   VOL   37*LuckyBreak_mvl/mxv
 BYTE   PAN   c_v+0
 BYTE   VOL   37*LuckyBreak_mvl/mxv
 BYTE   PAN   c_v+0
 BYTE   VOL   37*LuckyBreak_mvl/mxv
 BYTE   PAN   c_v+0
 BYTE   W18
Label_D14859:
 BYTE   W78
//  #02 //001   ----------------------------------------
 BYTE   W96
//  #02 //002   ----------------------------------------
 BYTE   W96
//  #02 //003   ----------------------------------------
 BYTE   W90
 BYTE   N05  Gn2  v080
 BYTE   W06
//  #02 //004   ----------------------------------------
 BYTE   N17  Dn3
 BYTE   W18
 BYTE   N05  Ds3
 BYTE   W24
 BYTE   Cn3
 BYTE   W06
 BYTE   N32  Gn2
 BYTE   W42
 BYTE   N05  Ds2
 BYTE   W06
//  #02 //005   ----------------------------------------
 BYTE   N17  As2
 BYTE   W18
 BYTE   N05  Gs2
 BYTE   W18
 BYTE   N05
 BYTE   W06
 BYTE   Gn2
 BYTE   W06
 BYTE   N32  Gs2
 BYTE   W42
 BYTE   N05  Fn2
 BYTE   W06
//  #02 //006   ----------------------------------------
 BYTE   N17  Dn3
 BYTE   W18
 BYTE   N05  Cn3
 BYTE   W24
 BYTE   Gs2
 BYTE   W06
 BYTE   N32  Fn2
 BYTE   W42
 BYTE   N05  Gs2
 BYTE   W06
//  #02 //007   ----------------------------------------
 BYTE   N17
 BYTE   W18
 BYTE   N05  Gn2
 BYTE   W18
 BYTE   N05
 BYTE   W06
 BYTE   Fn2
 BYTE   W06
 BYTE   N32  Gn2
 BYTE   W42
 BYTE   N05
 BYTE   W06
//  #02 //008   ----------------------------------------
 BYTE   N17
 BYTE   W18
 BYTE   N05  Fn2
 BYTE   W18
 BYTE   N05
 BYTE   W06
 BYTE   Gn2
 BYTE   W06
 BYTE   N32  Gs2
 BYTE   W42
 BYTE   N05  Fn2
 BYTE   W06
//  #02 //009   ----------------------------------------
 BYTE   N17  Dn3
 BYTE   W18
 BYTE   N05  Cn3
 BYTE   W18
 BYTE   N05
 BYTE   W06
 BYTE   Dn3
 BYTE   W06
 BYTE   N32  Ds3
 BYTE   W42
 BYTE   N05
 BYTE   W06
//  #02 //010   ----------------------------------------
 BYTE   N17  Dn3
 BYTE   W18
 BYTE   N05  Cn3
 BYTE   W06
 BYTE   N17  Gs2
 BYTE   W18
 BYTE   N05  Gn2
 BYTE   W06
 BYTE   Fn2
 BYTE   W06
 BYTE   Gs2
 BYTE   W06
 BYTE   N17  Cn3
 BYTE   W18
 BYTE   N11  Dn3
 BYTE   W12
 BYTE   N05  Ds3
 BYTE   W06
//  #02 //011   ----------------------------------------
 BYTE   N44  Dn3
 BYTE   W84
 BYTE   N01  Gn2
 BYTE   W01
 BYTE   Gs2  v084
 BYTE   W01
 BYTE   W01
 BYTE   As2
 BYTE   W01
 BYTE   W01
 BYTE   Cn3  v088
 BYTE   W01
 BYTE   Dn3  v092
 BYTE   W01
 BYTE   W01
 BYTE   Ds3
 BYTE   W01
 BYTE   W01
 BYTE   Fn3  v096
 BYTE   W01
 BYTE   W01
//  #02 //012   ----------------------------------------
Label_D148ED:
 BYTE   N68  Gn3  v096
 BYTE   W60
 BYTE   N11  Fs3
 BYTE   W12
 BYTE   N07  Gn3
 BYTE   W08
 BYTE   Fn3
 BYTE   W08
 BYTE   Ds3
 BYTE   W08
 BYTE   PEND 
//  #02 //013   ----------------------------------------
Label_D148FC:
 BYTE   N44  Gn3  v096
 BYTE   W48
 BYTE   N30  Fn3
 BYTE   W24
 BYTE   W08
 BYTE   N07  Dn3
 BYTE   W08
 BYTE   Ds3
 BYTE   W08
 BYTE   PEND 
//  #02 //014   ----------------------------------------
Label_D1490A:
 BYTE   N68  Fn3  v096
 BYTE   W72
 BYTE   N07
 BYTE   W08
 BYTE   Ds3
 BYTE   W08
 BYTE   Dn3
 BYTE   W08
 BYTE   PEND 
//  #02 //015   ----------------------------------------
Label_D14915:
 BYTE   N44  Fn3  v096
 BYTE   W48
 BYTE   N30  Ds3
 BYTE   W24
 BYTE   W08
 BYTE   N07  Cn3
 BYTE   W08
 BYTE   Dn3
 BYTE   W08
 BYTE   PEND 
//  #02 //016   ----------------------------------------
Label_D14923:
 BYTE   N07  Ds3  v096
 BYTE   W08
 BYTE   Gs2
 BYTE   W08
 BYTE   N54  Cn3
 BYTE   W08
 BYTE   W56
 BYTE   N07
 BYTE   W08
 BYTE   Dn3
 BYTE   W08
 BYTE   PEND 
//  #02 //017   ----------------------------------------
Label_D14932:
 BYTE   N07  Ds3  v096
 BYTE   W08
 BYTE   Gs2
 BYTE   W08
 BYTE   N54  Cn3
 BYTE   W08
 BYTE   W56
 BYTE   N07  Fn3
 BYTE   W08
 BYTE   Gn3
 BYTE   W08
 BYTE   PEND 
//  #02 //018   ----------------------------------------
 BYTE   N11  Gs3
 BYTE   W24
 BYTE   Gn3
 BYTE   W24
 BYTE   Fn3
 BYTE   W24
 BYTE   Ds3
 BYTE   W12
 BYTE   Fs3
 BYTE   W12
//  #02 //019   ----------------------------------------
 BYTE   N44  Gn3
 BYTE   W48
 BYTE   Fn3
 BYTE   W48
//  #02 //020   ----------------------------------------
 BYTE   W96
//  #02 //021   ----------------------------------------
 BYTE   W96
//  #02 //022   ----------------------------------------
 BYTE   W96
//  #02 //023   ----------------------------------------
 BYTE   W96
//  #02 //024   ----------------------------------------
 BYTE   W96
//  #02 //025   ----------------------------------------
 BYTE   W96
//  #02 //026   ----------------------------------------
 BYTE   N11  Gn4  v052
 BYTE   W12
 BYTE   Gs4
 BYTE   W01
 BYTE   W01
 BYTE   W01
 BYTE   W01
 BYTE   W01
 BYTE   W01
 BYTE   W01
 BYTE   W01
 BYTE   W01
 BYTE   W01
 BYTE   W01
 BYTE   W01
 BYTE   Cn5  v072
 BYTE   W01
 BYTE   W01
 BYTE   W01
 BYTE   W01
 BYTE   W01
 BYTE   W01
 BYTE   W01
 BYTE   W01
 BYTE   W01
 BYTE   W01
 BYTE   W01
 BYTE   W01
 BYTE   Gn5  v096
 BYTE   W12
 BYTE   Dn5  v052
 BYTE   W12
 BYTE   Gs4
 BYTE   W01
 BYTE   W01
 BYTE   W01
 BYTE   W01
 BYTE   W01
 BYTE   W01
 BYTE   W01
 BYTE   W01
 BYTE   W01
 BYTE   W01
 BYTE   W01
 BYTE   W01
 BYTE   Cn5  v072
 BYTE   W01
 BYTE   W01
 BYTE   W01
 BYTE   W01
 BYTE   W01
 BYTE   W01
 BYTE   W01
 BYTE   W01
 BYTE   W01
 BYTE   W01
 BYTE   W01
 BYTE   W01
 BYTE   Fn5  v096
 BYTE   W12
//  #02 //027   ----------------------------------------
 BYTE   Ds5  v052
 BYTE   W12
 BYTE   Gs4
 BYTE   W01
 BYTE   W01
 BYTE   W01
 BYTE   W01
 BYTE   W01
 BYTE   W01
 BYTE   W01
 BYTE   W01
 BYTE   W01
 BYTE   W01
 BYTE   W01
 BYTE   W01
 BYTE   Cn5  v064
 BYTE   W01
 BYTE   W01
 BYTE   W01
 BYTE   W01
 BYTE   W01
 BYTE   W01
 BYTE   W01
 BYTE   W01
 BYTE   W01
 BYTE   W01
 BYTE   W01
 BYTE   W01
 BYTE   Ds5  v080
 BYTE   W01
 BYTE   W01
 BYTE   W01
 BYTE   W01
 BYTE   W01
 BYTE   W01
 BYTE   W01
 BYTE   W01
 BYTE   W01
 BYTE   W01
 BYTE   W01
 BYTE   W01
 BYTE   Dn5  v096
 BYTE   W12
 BYTE   Gs4
 BYTE   W12
 BYTE   Bn4
 BYTE   W12
 BYTE   Dn5
 BYTE   W12
//  #02 //028   ----------------------------------------
 BYTE   W96
//  #02 //029   ----------------------------------------
 BYTE   W96
//  #02 //030   ----------------------------------------
 BYTE   W96
//  #02 //031   ----------------------------------------
 BYTE   W96
//  #02 //032   ----------------------------------------
 BYTE   W96
//  #02 //033   ----------------------------------------
 BYTE   W96
//  #02 //034   ----------------------------------------
 BYTE   Gn4
 BYTE   W12
 BYTE   Gs4
 BYTE   W12
 BYTE   Cn5
 BYTE   W12
 BYTE   Gn5
 BYTE   W12
 BYTE   Dn5
 BYTE   W12
 BYTE   Gs4
 BYTE   W12
 BYTE   Cn5
 BYTE   W12
 BYTE   Fn5
 BYTE   W12
//  #02 //035   ----------------------------------------
 BYTE   Ds5
 BYTE   W12
 BYTE   Gs4
 BYTE   W12
 BYTE   Cn5
 BYTE   W12
 BYTE   Ds5
 BYTE   W12
 BYTE   Dn5
 BYTE   W12
 BYTE   Gs4
 BYTE   W12
 BYTE   Bn4
 BYTE   W12
 BYTE   N01  Gn2
 BYTE   N11  Dn5
 BYTE   W01
 BYTE   N01  Gs2
 BYTE   W02
 BYTE   As2
 BYTE   W02
 BYTE   Cn3
 BYTE   W01
 BYTE   Dn3
 BYTE   W02
 BYTE   Ds3
 BYTE   W02
 BYTE   Fn3
 BYTE   W02
//  #02 //036   ----------------------------------------
 BYTE   PATT
  POIN2 Label_D148ED
//  #02 //037   ----------------------------------------
 BYTE   PATT
  POIN2 Label_D148FC
//  #02 //038   ----------------------------------------
 BYTE   PATT
  POIN2 Label_D1490A
//  #02 //039   ----------------------------------------
 BYTE   PATT
  POIN2 Label_D14915
//  #02 //040   ----------------------------------------
 BYTE   PATT
  POIN2 Label_D14923
//  #02 //041   ----------------------------------------
 BYTE   PATT
  POIN2 Label_D14932
//  #02 //042   ----------------------------------------
 BYTE   N23  Gs3  v096
 BYTE   W24
 BYTE   Gn3
 BYTE   W24
 BYTE   Fn3
 BYTE   W24
 BYTE   Ds3
 BYTE   W24
//  #02 //043   ----------------------------------------
 BYTE   N44  Gn3
 BYTE   W48
 BYTE   Fn3
 BYTE   W24
 BYTE   N07  Gs3
 BYTE   W08
 BYTE   Dn4
 BYTE   W08
 BYTE   Fn4
 BYTE   W08
//  #02 //044   ----------------------------------------
 BYTE   W24
 BYTE   N23  Cn4
 BYTE   W24
 BYTE   Gn3
 BYTE   W24
 BYTE   Dn4
 BYTE   W24
//  #02 //045   ----------------------------------------
 BYTE   W06
 BYTE   N32  Ds4
 BYTE   W36
 BYTE   N02  Cn4
 BYTE   W03
 BYTE   Gs3
 BYTE   W03
 BYTE   N40  Gn3
 BYTE   W36
 BYTE   W06
 BYTE   N05  Fn3
 BYTE   W06
//  #02 //046   ----------------------------------------
 BYTE   Ds3
 BYTE   W06
 BYTE   Fn3
 BYTE   W06
 BYTE   N56  Gn3
 BYTE   W48
 BYTE   W12
 BYTE   N07  Fn3
 BYTE   W08
 BYTE   Gn3
 BYTE   W08
 BYTE   Gs3
 BYTE   W08
//  #02 //047   ----------------------------------------
 BYTE   W06
 BYTE   N32  Gn3
 BYTE   W36
 BYTE   N02  Fn3
 BYTE   W03
 BYTE   Ds3
 BYTE   W03
 BYTE   N11  Dn3
 BYTE   W12
 BYTE   Ds3
 BYTE   W12
 BYTE   Fn3
 BYTE   W12
 BYTE   N08  Gn3
 BYTE   W09
 BYTE   N02  Fn3
 BYTE   W03
//  #02 //048   ----------------------------------------
 BYTE   N17  Gs3
 BYTE   W18
 BYTE   N02  Gn3
 BYTE   W03
 BYTE   Fn3
 BYTE   W11
 BYTE   N07  Ds3
 BYTE   W08
 BYTE   Gn3
 BYTE   W08
 BYTE   N23  En3
 BYTE   W24
 BYTE   Fn3
 BYTE   W24
//  #02 //049   ----------------------------------------
 BYTE   W12
 BYTE   N02  As3
 BYTE   W03
 BYTE   Gs3
 BYTE   W03
 BYTE   Gn3
 BYTE   W03
 BYTE   N11  Fn3
 BYTE   W12
 BYTE   Gn3
 BYTE   W12
 BYTE   N02  Fn3
 BYTE   W03
 BYTE   N23  Gs3
 BYTE   W24
 BYTE   As3
 BYTE   W24
//  #02 //050   ----------------------------------------
 BYTE   N19  Bn3
 BYTE   W12
 BYTE   W08
 BYTE   N07  As3
 BYTE   W08
 BYTE   N07
 BYTE   W08
 BYTE   Dn4
 BYTE   W08
 BYTE   N07
 BYTE   W08
 BYTE   Gn3
 BYTE   W08
 BYTE   N23
 BYTE   W36
//  #02 //051   ----------------------------------------
 BYTE   N07
 BYTE   W08
 BYTE   N07
 BYTE   W08
 BYTE   N07
 BYTE   W08
 BYTE   Fn3
 BYTE   W08
 BYTE   N07
 BYTE   W08
 BYTE   N07
 BYTE   W08
 BYTE   N05  Cn4
 BYTE   W06
 BYTE   Bn3
 BYTE   W06
 BYTE   Cn4
 BYTE   W06
 BYTE   Dn4
 BYTE   W06
 BYTE   N02  Ds4
 BYTE   W03
 BYTE   Dn4
 BYTE   W03
 BYTE   Cn4
 BYTE   W03
 BYTE   Bn3
 BYTE   W03
 BYTE   Dn4
 BYTE   W03
 BYTE   Cn4
 BYTE   W03
 BYTE   Bn3
 BYTE   W03
 BYTE   Gn3
 BYTE   W03
//  #02 //052   ----------------------------------------
 BYTE   W96
//  #02 //053   ----------------------------------------
 BYTE   N92  Cn2  v052
 BYTE   N23  Bn3
 BYTE   W24
 BYTE   Cn4
 BYTE   W24
 BYTE   N23
 BYTE   W24
 BYTE   Dn4
 BYTE   W24
//  #02 //054   ----------------------------------------
 BYTE   N92  As1
 BYTE   N23  Dn4
 BYTE   W24
 BYTE   Ds4
 BYTE   W24
 BYTE   N44
 BYTE   W48
//  #02 //055   ----------------------------------------
 BYTE   N92  An1
 BYTE   N23  Dn4
 BYTE   W24
 BYTE   Cn4
 BYTE   W24
 BYTE   N23
 BYTE   W24
 BYTE   As3
 BYTE   W24
//  #02 //056   ----------------------------------------
 BYTE   N92  Gs1
 BYTE   N23  As3
 BYTE   W24
 BYTE   Gs3
 BYTE   W24
 BYTE   N44
 BYTE   W48
//  #02 //057   ----------------------------------------
 BYTE   N92  Fs1
 BYTE   N23  En4
 BYTE   W24
 BYTE   Fn4
 BYTE   W24
 BYTE   N23
 BYTE   W24
 BYTE   Gn4
 BYTE   W24
//  #02 //058   ----------------------------------------
 BYTE   N92  Cs2
 BYTE   N23  Gn4
 BYTE   W24
 BYTE   Gs4
 BYTE   W24
 BYTE   N44
 BYTE   W48
//  #02 //059   ----------------------------------------
 BYTE   N92  Dn2
 BYTE   N11  Gn4
 BYTE   W12
 BYTE   Gs4
 BYTE   W12
 BYTE   Cn5
 BYTE   W12
 BYTE   Gn5
 BYTE   W12
 BYTE   Dn5
 BYTE   W12
 BYTE   Gs4
 BYTE   W12
 BYTE   Cn5
 BYTE   W12
 BYTE   Fn5
 BYTE   W12
//  #02 //060   ----------------------------------------
 BYTE   N92  Gn1
 BYTE   N11  Ds5
 BYTE   W12
 BYTE   Gs4
 BYTE   W12
 BYTE   Cn5
 BYTE   W12
 BYTE   Ds5
 BYTE   W12
 BYTE   Dn5
 BYTE   W12
 BYTE   Gs4
 BYTE   W12
 BYTE   Bn4
 BYTE   W12
 BYTE   Dn5
 BYTE   W12
//  #02 //061   ----------------------------------------
 BYTE   W12
 BYTE   TIE  Cn1
 BYTE   W12
 BYTE   N68  Dn5
 BYTE   W72
//  #02 //062   ----------------------------------------
 BYTE   TIE  Cn5  v048
 BYTE   W96
//  #02 //063   ----------------------------------------
 BYTE   W92
 BYTE   W03
 BYTE   EOT
 BYTE   Cn1  v084
 BYTE   W01
//  #02 //064   ----------------------------------------
 BYTE   GoTo
  POIN2 Label_D14859
 BYTE   FINE

//**************** Track 3 (Midi-Chn.2) ****************//

LuckyBreak_003:
//  #03 //000   ----------------------------------------
 BYTE   KEYSH   LuckyBreak_key+0
 BYTE   VOICE   89
 BYTE   VOL   37*LuckyBreak_mvl/mxv
 BYTE   PAN   c_v+0
 BYTE   VOL   37*LuckyBreak_mvl/mxv
 BYTE   PAN   c_v+0
 BYTE   VOL   37*LuckyBreak_mvl/mxv
 BYTE   PAN   c_v+0
 BYTE   N76  Dn3  v080
 BYTE   N76  As3
 BYTE   N76  Dn4
 BYTE   W18
Label_D139EC:
 BYTE   W60
 BYTE   N17  Dn4  v080
 BYTE   W18
//  #03 //001   ----------------------------------------
 BYTE   N56  Dn3
 BYTE   N56  Gn3
 BYTE   N56  Cn4
 BYTE   W60
 BYTE   N17  Gn3
 BYTE   W18
 BYTE   Cn4
 BYTE   W18
//  #03 //002   ----------------------------------------
Label_D139FD:
 BYTE   N56  Dn3  v080
 BYTE   N56  As3
 BYTE   N56  Dn4
 BYTE   W60
 BYTE   N17  As3
 BYTE   W18
 BYTE   Dn4
 BYTE   W18
 BYTE   PEND 
//  #03 //003   ----------------------------------------
 BYTE   N92  Dn3
 BYTE   N92  Gn3
 BYTE   N92  Cn4
 BYTE   W96
//  #03 //004   ----------------------------------------
 BYTE   PATT
  POIN2 Label_D139FD
//  #03 //005   ----------------------------------------
 BYTE   N56  As3  v080
 BYTE   N56  Dn4
 BYTE   N56  Gn4
 BYTE   W60
 BYTE   N17  As3
 BYTE   N17  Dn4
 BYTE   N17  Gn4
 BYTE   W18
 BYTE   As3
 BYTE   N17  Dn4
 BYTE   N17  Fn4
 BYTE   W18
//  #03 //006   ----------------------------------------
 BYTE   N56  As3
 BYTE   N56  Fn4
 BYTE   N56  Gs4
 BYTE   W60
 BYTE   N17  As3
 BYTE   N17  Dn4
 BYTE   N17  Fn4
 BYTE   W18
 BYTE   Dn4
 BYTE   N17  Fn4
 BYTE   N17  As4
 BYTE   W18
//  #03 //007   ----------------------------------------
 BYTE   N56  As3
 BYTE   N56  Fn4
 BYTE   N56  Gn4
 BYTE   W60
 BYTE   N17  As3
 BYTE   N17  Fn4
 BYTE   N17  Gn4
 BYTE   W18
 BYTE   Fn3
 BYTE   N17  Gn3
 BYTE   N17  As3
 BYTE   W18
//  #03 //008   ----------------------------------------
 BYTE   N40
 BYTE   N40  Cs4
 BYTE   N32  Fn4
 BYTE   W36
 BYTE   N05
 BYTE   W06
 BYTE   Gn4
 BYTE   W06
 BYTE   N44  Cn4
 BYTE   N32  En4
 BYTE   N44  Gs4
 BYTE   W36
 BYTE   N11  En4
 BYTE   W12
//  #03 //009   ----------------------------------------
 BYTE   N44  Cn4
 BYTE   N44  Ds4
 BYTE   N44  Gn4
 BYTE   W48
 BYTE   N11  Cn4
 BYTE   W12
 BYTE   N05
 BYTE   W06
 BYTE   Dn4
 BYTE   W06
 BYTE   N11  Ds4
 BYTE   W12
 BYTE   N11
 BYTE   W12
//  #03 //010   ----------------------------------------
 BYTE   N44  Gs3
 BYTE   N44  Dn4
 BYTE   N44  Fn4
 BYTE   W48
 BYTE   N11  Gs3
 BYTE   N23  Dn4
 BYTE   N28  Fn4
 BYTE   N28  Gs4
 BYTE   W12
 BYTE   N11  Gs3
 BYTE   W12
 BYTE   N05  Dn4
 BYTE   W06
 BYTE   N17  Fn3
 BYTE   N17  Gs3
 BYTE   N17  Dn4
 BYTE   W18
//  #03 //011   ----------------------------------------
 BYTE   N44  Gs3
 BYTE   N44  Dn4
 BYTE   N44  Fn4
 BYTE   W48
 BYTE   N07  Gs3
 BYTE   N07  Dn4
 BYTE   W08
 BYTE   Bn3
 BYTE   N07  Fn4
 BYTE   W08
 BYTE   Dn4
 BYTE   N07  Gs4
 BYTE   W32
//  #03 //012   ----------------------------------------
Label_D13AAC:
 BYTE   N92  Cn5  v080
 BYTE   W02
 BYTE   Gn4
 BYTE   W02
 BYTE   N90  Ds4
 BYTE   W02
 BYTE   N88  Cn4
 BYTE   W90
 BYTE   PEND 
//  #03 //013   ----------------------------------------
Label_D13AB9:
 BYTE   N44  Bn4  v080
 BYTE   W02
 BYTE   Gn4
 BYTE   W02
 BYTE   N42  Ds4
 BYTE   W02
 BYTE   N40  Bn3
 BYTE   W42
 BYTE   N44  Dn4
 BYTE   N44  Fn4
 BYTE   N44  As4
 BYTE   W48
 BYTE   PEND 
//  #03 //014   ----------------------------------------
Label_D13ACD:
 BYTE   N44  Cn5  v080
 BYTE   W02
 BYTE   An4
 BYTE   W02
 BYTE   N42  Fn4
 BYTE   W02
 BYTE   N40  Dn4
 BYTE   W42
 BYTE   N44
 BYTE   N44  Fn4
 BYTE   N44  Gs4
 BYTE   N44  Dn5
 BYTE   W48
 BYTE   PEND 
//  #03 //015   ----------------------------------------
 BYTE   N44
 BYTE   W02
 BYTE   An4
 BYTE   W02
 BYTE   N42  Dn4
 BYTE   W02
 BYTE   N40  Gn3
 BYTE   W02
 BYTE   N36  Dn3
 BYTE   W40
 BYTE   N44  Dn4
 BYTE   N44  Ds4
 BYTE   N44  Gn4
 BYTE   W48
//  #03 //016   ----------------------------------------
Label_D13AF6:
 BYTE   N92  Cn5  v080
 BYTE   W02
 BYTE   Gs4
 BYTE   W02
 BYTE   N90  Fn4
 BYTE   W02
 BYTE   N88  Cn4
 BYTE   W90
 BYTE   PEND 
//  #03 //017   ----------------------------------------
Label_D13B03:
 BYTE   N44  Gs4  v080
 BYTE   W02
 BYTE   Fn4
 BYTE   W02
 BYTE   N42  Cn4
 BYTE   W44
 BYTE   N44  Cs4
 BYTE   N44  Fn4
 BYTE   N44  As4
 BYTE   W48
 BYTE   PEND 
//  #03 //018   ----------------------------------------
Label_D13B14:
 BYTE   N11  Bn4  v080
 BYTE   W02
 BYTE   N09  Fn4
 BYTE   W02
 BYTE   N07  Cs4
 BYTE   W08
 BYTE   N32  Ds3
 BYTE   W36
 BYTE   N11  Cn4
 BYTE   W02
 BYTE   N09  Ds4
 BYTE   W02
 BYTE   N07  Gn4
 BYTE   W08
 BYTE   N32  Ds3
 BYTE   W36
 BYTE   PEND 
//  #03 //019   ----------------------------------------
 BYTE   N44  Cn5
 BYTE   W02
 BYTE   Gs4
 BYTE   W02
 BYTE   N42  Fn4
 BYTE   W02
 BYTE   N40  Cn4
 BYTE   W42
 BYTE   N44  Fn4
 BYTE   N44  Gn4
 BYTE   N44  Bn4
 BYTE   W48
//  #03 //020   ----------------------------------------
 BYTE   N11  Gn3  v064
 BYTE   W12
 BYTE   Ds3
 BYTE   W12
 BYTE   N05  Gn3
 BYTE   W06
 BYTE   Ds3
 BYTE   W06
 BYTE   Gn3
 BYTE   W06
 BYTE   Bn3
 BYTE   W06
 BYTE   N11  Gn3
 BYTE   W12
 BYTE   Ds3
 BYTE   W12
 BYTE   Gn3
 BYTE   W12
 BYTE   Ds3
 BYTE   W12
//  #03 //021   ----------------------------------------
 BYTE   Gn3
 BYTE   W12
 BYTE   Ds3
 BYTE   W12
 BYTE   N05  Gn3
 BYTE   W06
 BYTE   Ds3
 BYTE   W06
 BYTE   As3
 BYTE   W06
 BYTE   Dn4
 BYTE   W06
 BYTE   N11  Gn3
 BYTE   W12
 BYTE   Ds3
 BYTE   W12
 BYTE   Gn3
 BYTE   W12
 BYTE   Ds3
 BYTE   W12
//  #03 //022   ----------------------------------------
 BYTE   N11
 BYTE   W12
 BYTE   Cn3
 BYTE   W12
 BYTE   N05  Ds3
 BYTE   W06
 BYTE   Cn3
 BYTE   W06
 BYTE   Ds3
 BYTE   W06
 BYTE   Gn3
 BYTE   W06
 BYTE   N11  Ds3
 BYTE   W12
 BYTE   Cn3
 BYTE   W12
 BYTE   Ds3
 BYTE   W12
 BYTE   Cn3
 BYTE   W12
//  #03 //023   ----------------------------------------
 BYTE   Dn3
 BYTE   W12
 BYTE   As2
 BYTE   W12
 BYTE   N05  Dn3
 BYTE   W06
 BYTE   As2
 BYTE   W06
 BYTE   Dn3
 BYTE   W06
 BYTE   Fn3
 BYTE   W06
 BYTE   N11  Dn3
 BYTE   W12
 BYTE   As2
 BYTE   W12
 BYTE   Dn3
 BYTE   W12
 BYTE   As2
 BYTE   W12
//  #03 //024   ----------------------------------------
 BYTE   Gs3
 BYTE   W12
 BYTE   En3
 BYTE   W12
 BYTE   N05  Gs3
 BYTE   W06
 BYTE   En3
 BYTE   W06
 BYTE   Gs3
 BYTE   W06
 BYTE   Cn4
 BYTE   W06
 BYTE   N11  Gs3
 BYTE   W12
 BYTE   En3
 BYTE   W12
 BYTE   Gs3
 BYTE   W12
 BYTE   En3
 BYTE   W12
//  #03 //025   ----------------------------------------
 BYTE   Gs3
 BYTE   W12
 BYTE   Fn3
 BYTE   W12
 BYTE   N05  Gs3
 BYTE   W06
 BYTE   Fn3
 BYTE   W06
 BYTE   Cn4
 BYTE   W06
 BYTE   Fn4
 BYTE   W06
 BYTE   N11  Cn4
 BYTE   W12
 BYTE   Fn3
 BYTE   W12
 BYTE   Cn4
 BYTE   W12
 BYTE   Fn3
 BYTE   W12
//  #03 //026   ----------------------------------------
 BYTE   N44  Gn4
 BYTE   W48
 BYTE   Fn4
 BYTE   W48
//  #03 //027   ----------------------------------------
 BYTE   Ds4
 BYTE   W48
 BYTE   Dn4
 BYTE   W48
//  #03 //028   ----------------------------------------
 BYTE   W96
//  #03 //029   ----------------------------------------
 BYTE   W96
//  #03 //030   ----------------------------------------
 BYTE   W96
//  #03 //031   ----------------------------------------
 BYTE   W96
//  #03 //032   ----------------------------------------
 BYTE   W96
//  #03 //033   ----------------------------------------
 BYTE   W96
//  #03 //034   ----------------------------------------
 BYTE   W96
//  #03 //035   ----------------------------------------
 BYTE   W96
//  #03 //036   ----------------------------------------
 BYTE   PATT
  POIN2 Label_D13AAC
//  #03 //037   ----------------------------------------
 BYTE   PATT
  POIN2 Label_D13AB9
//  #03 //038   ----------------------------------------
 BYTE   PATT
  POIN2 Label_D13ACD
//  #03 //039   ----------------------------------------
 BYTE   N44  An4  v080
 BYTE   W02
 BYTE   Dn4
 BYTE   W02
 BYTE   N42  Gn3
 BYTE   W02
 BYTE   N40  Dn3
 BYTE   W42
 BYTE   N44  Dn4
 BYTE   N44  Ds4
 BYTE   N44  Gn4
 BYTE   W48
//  #03 //040   ----------------------------------------
 BYTE   PATT
  POIN2 Label_D13AF6
//  #03 //041   ----------------------------------------
 BYTE   PATT
  POIN2 Label_D13B03
//  #03 //042   ----------------------------------------
 BYTE   PATT
  POIN2 Label_D13B14
//  #03 //043   ----------------------------------------
 BYTE   N44  Cn5  v080
 BYTE   W02
 BYTE   Gs4
 BYTE   W02
 BYTE   N42  Fn4
 BYTE   W02
 BYTE   N40  Cn4
 BYTE   W42
 BYTE   N03  Fn3  v096
 BYTE   W04
 BYTE   Dn3
 BYTE   W04
 BYTE   Gs3
 BYTE   W04
 BYTE   Fn3
 BYTE   W04
 BYTE   Gs3
 BYTE   W04
 BYTE   Dn4
 BYTE   W04
 BYTE   N07  Fn3
 BYTE   N07  Gs3
 BYTE   W08
 BYTE   N07
 BYTE   N07  Dn4
 BYTE   W08
 BYTE   Bn3
 BYTE   N07  Fn4
 BYTE   W08
//  #03 //044   ----------------------------------------
 BYTE   W96
//  #03 //045   ----------------------------------------
 BYTE   W06
 BYTE   N40  Bn3  v080
 BYTE   N40  Ds4
 BYTE   N40  Gn4
 BYTE   W42
 BYTE   N44  Dn4
 BYTE   N44  Gn4
 BYTE   N44  As4
 BYTE   W48
//  #03 //046   ----------------------------------------
 BYTE   W96
//  #03 //047   ----------------------------------------
 BYTE   W06
 BYTE   N88  As3
 BYTE   N88  Dn4
 BYTE   N88  Fn4
 BYTE   N88  An4
 BYTE   W90
//  #03 //048   ----------------------------------------
 BYTE   N92  Cn5
 BYTE   W02
 BYTE   Fs4
 BYTE   W02
 BYTE   N90  Dn4
 BYTE   W02
 BYTE   N88  Cn4
 BYTE   W02
 BYTE   N84  Gn3
 BYTE   W88
//  #03 //049   ----------------------------------------
 BYTE   N92  As4
 BYTE   W02
 BYTE   Ds4
 BYTE   W02
 BYTE   N90  Cn4
 BYTE   W92
//  #03 //050   ----------------------------------------
 BYTE   N44  Cs4
 BYTE   N44  Fn4
 BYTE   N44  Gs4
 BYTE   N44  As4
 BYTE   W48
 BYTE   Cn4
 BYTE   N44  Ds4
 BYTE   N44  Gn4
 BYTE   N44  Cn5
 BYTE   W48
//  #03 //051   ----------------------------------------
 BYTE   Dn4
 BYTE   N44  Fn4
 BYTE   N44  Gs4
 BYTE   N44  Cn5
 BYTE   W48
 BYTE   N11  Dn4
 BYTE   W12
 BYTE   Bn4
 BYTE   W12
 BYTE   Fn4
 BYTE   W12
 BYTE   Gs4
 BYTE   W12
//  #03 //052   ----------------------------------------
 BYTE   W96
//  #03 //053   ----------------------------------------
 BYTE   Ds3  v052
 BYTE   W12
 BYTE   Cn3
 BYTE   W12
 BYTE   Ds3
 BYTE   W12
 BYTE   Cn3
 BYTE   W12
 BYTE   Ds3
 BYTE   W12
 BYTE   Cn3
 BYTE   W12
 BYTE   Fn3
 BYTE   W12
 BYTE   Cn3
 BYTE   W12
//  #03 //054   ----------------------------------------
 BYTE   Gn3
 BYTE   W12
 BYTE   Ds3
 BYTE   W12
 BYTE   As3
 BYTE   W12
 BYTE   Gn3
 BYTE   W12
 BYTE   As3
 BYTE   W12
 BYTE   Ds3
 BYTE   W24
 BYTE   N11
 BYTE   W12
//  #03 //055   ----------------------------------------
 BYTE   N11
 BYTE   W12
 BYTE   Cn3
 BYTE   W12
 BYTE   Ds3
 BYTE   W12
 BYTE   Cn3
 BYTE   W12
 BYTE   Ds3
 BYTE   W12
 BYTE   Cn3
 BYTE   W12
 BYTE   Ds3
 BYTE   W12
 BYTE   Cn3
 BYTE   W12
//  #03 //056   ----------------------------------------
 BYTE   Dn3
 BYTE   W12
 BYTE   As2
 BYTE   W12
 BYTE   N23  Cn3
 BYTE   W24
 BYTE   N11
 BYTE   W12
 BYTE   N23  As2
 BYTE   W24
 BYTE   N11
 BYTE   W12
//  #03 //057   ----------------------------------------
 BYTE   N23  Gs3
 BYTE   W24
 BYTE   Cn4
 BYTE   W24
 BYTE   N23
 BYTE   W24
 BYTE   Ds4
 BYTE   W24
//  #03 //058   ----------------------------------------
 BYTE   N23
 BYTE   W24
 BYTE   Fn4
 BYTE   W24
 BYTE   N11
 BYTE   W12
 BYTE   N23  Gs3
 BYTE   W24
 BYTE   N11
 BYTE   W12
//  #03 //059   ----------------------------------------
 BYTE   N44  Cn4
 BYTE   N44  Ds4
 BYTE   N44  Gn4  v072
 BYTE   W48
 BYTE   Gs3  v052
 BYTE   N44  Dn4
 BYTE   N44  Fn4
 BYTE   W48
//  #03 //060   ----------------------------------------
 BYTE   Gs3
 BYTE   N44  Cn4
 BYTE   N44  Ds4
 BYTE   W48
 BYTE   Gs3
 BYTE   N44  Bn3
 BYTE   N44  Dn4
 BYTE   W48
//  #03 //061   ----------------------------------------
 BYTE   W24
 BYTE   TIE  Cn4
 BYTE   TIE  Ds4
 BYTE   TIE  Gn4
 BYTE   W72
//  #03 //062   ----------------------------------------
 BYTE   W96
//  #03 //063   ----------------------------------------
 BYTE   W92
 BYTE   W03
 BYTE   EOT
 BYTE   Cn4  v075
 BYTE   Gn4
 BYTE   W01
//  #03 //064   ----------------------------------------
 BYTE   GoTo
  POIN2 Label_D139EC
 BYTE   FINE

//**************** Track 4 (Midi-Chn.3) ****************//

LuckyBreak_004:
//  #04 //000   ----------------------------------------
 BYTE   KEYSH   LuckyBreak_key+0
 BYTE   VOICE   33
 BYTE   VOL   37*LuckyBreak_mvl/mxv
 BYTE   PAN   c_v+0
 BYTE   VOL   37*LuckyBreak_mvl/mxv
 BYTE   PAN   c_v+0
 BYTE   VOL   37*LuckyBreak_mvl/mxv
 BYTE   PAN   c_v+0
 BYTE   N40  Cn1  v080
 BYTE   W18
Label_D14184:
 BYTE   W24
 BYTE   N05  Cn1  v080
 BYTE   W06
 BYTE   N32  Ds1
 BYTE   W36
 BYTE   N11  Gn1
 BYTE   W12
//  #04 //001   ----------------------------------------
 BYTE   N32  Fn1
 BYTE   W36
 BYTE   N05  Fn2
 BYTE   W06
 BYTE   Fn1
 BYTE   W06
 BYTE   N11  Cn1
 BYTE   W12
 BYTE   N23
 BYTE   W24
 BYTE   N11  Ds1
 BYTE   W12
//  #04 //002   ----------------------------------------
Label_D1419F:
 BYTE   N32  Cn1  v080
 BYTE   W36
 BYTE   N05  Cn2
 BYTE   W06
 BYTE   Cn1
 BYTE   W06
 BYTE   N32  Ds1
 BYTE   W36
 BYTE   N11  Gn1
 BYTE   W12
 BYTE   PEND 
//  #04 //003   ----------------------------------------
 BYTE   N32  Fn1
 BYTE   W36
 BYTE   N05  Fn2
 BYTE   W06
 BYTE   Fn1
 BYTE   W06
 BYTE   N11  Cn1
 BYTE   W12
 BYTE   N11
 BYTE   W12
 BYTE   N07  As1
 BYTE   W08
 BYTE   Dn1
 BYTE   W08
 BYTE   As0
 BYTE   W08
//  #04 //004   ----------------------------------------
 BYTE   PATT
  POIN2 Label_D1419F
//  #04 //005   ----------------------------------------
 BYTE   N32  Fn1  v080
 BYTE   W36
 BYTE   N05  Fn2
 BYTE   W06
 BYTE   Fn1
 BYTE   W06
 BYTE   N11  Cn1
 BYTE   W12
 BYTE   N23
 BYTE   W24
 BYTE   N11  Bn0
 BYTE   W12
//  #04 //006   ----------------------------------------
 BYTE   N32  As0
 BYTE   W36
 BYTE   N05  As1
 BYTE   W06
 BYTE   As0
 BYTE   W06
 BYTE   N32  Dn1
 BYTE   W36
 BYTE   N11  Fn1
 BYTE   W12
//  #04 //007   ----------------------------------------
 BYTE   N32  Ds1
 BYTE   W36
 BYTE   N05  Ds2
 BYTE   W06
 BYTE   Ds1
 BYTE   W06
 BYTE   N11  As0
 BYTE   W12
 BYTE   N23
 BYTE   W24
 BYTE   N11  Dn1
 BYTE   W12
//  #04 //008   ----------------------------------------
 BYTE   N17  Cs1
 BYTE   W18
 BYTE   Cs2
 BYTE   W18
 BYTE   N05  Gs1
 BYTE   W06
 BYTE   Cs1
 BYTE   W06
 BYTE   N11  Cn1
 BYTE   W12
 BYTE   N11
 BYTE   W12
 BYTE   Gs1
 BYTE   W12
 BYTE   En1
 BYTE   W12
//  #04 //009   ----------------------------------------
 BYTE   N17  Fn1
 BYTE   W18
 BYTE   Fn2
 BYTE   W18
 BYTE   N05  Ds2
 BYTE   W06
 BYTE   Cn2
 BYTE   W06
 BYTE   N11  Fs1
 BYTE   W12
 BYTE   N11
 BYTE   W12
 BYTE   An1
 BYTE   W12
 BYTE   Ds1
 BYTE   W12
//  #04 //010   ----------------------------------------
 BYTE   N32  Dn1
 BYTE   W36
 BYTE   N05  Dn2
 BYTE   W06
 BYTE   Dn1
 BYTE   W06
 BYTE   N11  Gs1
 BYTE   W12
 BYTE   N17
 BYTE   W18
 BYTE   Fn1
 BYTE   W18
//  #04 //011   ----------------------------------------
 BYTE   Gn1
 BYTE   W18
 BYTE   Dn2
 BYTE   W18
 BYTE   N05  Gn1
 BYTE   W06
 BYTE   Dn1
 BYTE   W06
 BYTE   N07  Cs1
 BYTE   W08
 BYTE   Fn1
 BYTE   W08
 BYTE   Bn1
 BYTE   W08
 BYTE   Dn2  v052
 BYTE   W08
 BYTE   Bn1
 BYTE   W08
 BYTE   N03  Gn1  v072
 BYTE   W04
 BYTE   Ds1  v084
 BYTE   W04
//  #04 //012   ----------------------------------------
 BYTE   N17  Cn1  v096
 BYTE   W18
 BYTE   N05  Cn2
 BYTE   W06
 BYTE   N11  Bn1
 BYTE   W12
 BYTE   Gn1
 BYTE   W12
 BYTE   N07  Cn1
 BYTE   W08
 BYTE   Ds1
 BYTE   W08
 BYTE   Gs1
 BYTE   W08
 BYTE   Gn1
 BYTE   W08
 BYTE   Dn1
 BYTE   W08
 BYTE   Ds1
 BYTE   W08
//  #04 //013   ----------------------------------------
 BYTE   N17  Bn0
 BYTE   W18
 BYTE   N05  Bn1
 BYTE   W06
 BYTE   N11  Gn1
 BYTE   W12
 BYTE   Dn1
 BYTE   W12
 BYTE   As0
 BYTE   W12
 BYTE   N19
 BYTE   W20
 BYTE   N07  Fn1
 BYTE   W08
 BYTE   Dn1
 BYTE   W08
//  #04 //014   ----------------------------------------
 BYTE   N17  An0
 BYTE   W18
 BYTE   N05  An1
 BYTE   W06
 BYTE   N11  Fn1
 BYTE   W12
 BYTE   N05  Dn1
 BYTE   W06
 BYTE   As0
 BYTE   W06
 BYTE   N07  Gs0
 BYTE   W08
 BYTE   Fn1
 BYTE   W08
 BYTE   Cn2
 BYTE   W08
 BYTE   Gs1
 BYTE   W08
 BYTE   Fn1
 BYTE   W08
 BYTE   Gs0
 BYTE   W08
//  #04 //015   ----------------------------------------
 BYTE   N17  Gn0
 BYTE   W18
 BYTE   N05  Gn1
 BYTE   W06
 BYTE   N11  Dn1
 BYTE   W12
 BYTE   As0
 BYTE   W12
 BYTE   N05  Gn0
 BYTE   W06
 BYTE   Dn1
 BYTE   W06
 BYTE   N19  Gn0
 BYTE   W20
 BYTE   N07  Ds1
 BYTE   W08
 BYTE   Gn1
 BYTE   W08
//  #04 //016   ----------------------------------------
 BYTE   Fs1
 BYTE   W08
 BYTE   Cn2
 BYTE   W08
 BYTE   Fs2
 BYTE   W16
 BYTE   Cn2
 BYTE   W08
 BYTE   Fs1
 BYTE   W08
 BYTE   N11
 BYTE   W12
 BYTE   N23
 BYTE   W24
 BYTE   N11  Ds1
 BYTE   W12
//  #04 //017   ----------------------------------------
 BYTE   N07  Fn1
 BYTE   W08
 BYTE   Ds2
 BYTE   W08
 BYTE   Fn2
 BYTE   W08
 BYTE   Cn2
 BYTE   W08
 BYTE   Gs1
 BYTE   W08
 BYTE   Fn1
 BYTE   W08
 BYTE   N11  Ds1
 BYTE   W12
 BYTE   N11
 BYTE   W12
 BYTE   Ds0
 BYTE   W12
 BYTE   As0
 BYTE   W12
//  #04 //018   ----------------------------------------
Label_D142CF:
 BYTE   N11  Cs1  v096
 BYTE   W12
 BYTE   Cs2
 BYTE   W12
 BYTE   Gs1
 BYTE   W12
 BYTE   Fn1
 BYTE   W12
 BYTE   Cn1
 BYTE   W12
 BYTE   An1
 BYTE   W12
 BYTE   Gn1
 BYTE   W12
 BYTE   Ds1
 BYTE   W12
 BYTE   PEND 
//  #04 //019   ----------------------------------------
 BYTE   Dn1
 BYTE   W12
 BYTE   N23
 BYTE   W24
 BYTE   N11  Gs0
 BYTE   W12
 BYTE   N07  Gn0
 BYTE   W08
 BYTE   Fn1
 BYTE   W08
 BYTE   Bn0
 BYTE   W08
 BYTE   Cn1
 BYTE   W08
 BYTE   Fn1
 BYTE   W08
 BYTE   Gs1
 BYTE   W08
//  #04 //020   ----------------------------------------
 BYTE   N11  Cn1
 BYTE   W96
//  #04 //021   ----------------------------------------
 BYTE   W96
//  #04 //022   ----------------------------------------
 BYTE   W96
//  #04 //023   ----------------------------------------
 BYTE   W96
//  #04 //024   ----------------------------------------
 BYTE   W96
//  #04 //025   ----------------------------------------
 BYTE   W96
//  #04 //026   ----------------------------------------
 BYTE   W96
//  #04 //027   ----------------------------------------
 BYTE   W96
//  #04 //028   ----------------------------------------
 BYTE   N17
 BYTE   W18
 BYTE   N05  Gn1
 BYTE   W18
 BYTE   Cn2
 BYTE   W06
 BYTE   Gn1
 BYTE   W06
 BYTE   N11  Cn1
 BYTE   W12
 BYTE   N23
 BYTE   W24
 BYTE   N11  Bn0
 BYTE   W12
//  #04 //029   ----------------------------------------
 BYTE   N17  As0
 BYTE   W18
 BYTE   N05  Fn1
 BYTE   W18
 BYTE   As1
 BYTE   W06
 BYTE   Fn1
 BYTE   W06
 BYTE   N11  As0
 BYTE   W12
 BYTE   N17
 BYTE   W18
 BYTE   N05  Gn1
 BYTE   W06
 BYTE   Ds1
 BYTE   W06
 BYTE   As0
 BYTE   W06
//  #04 //030   ----------------------------------------
 BYTE   N17  An0
 BYTE   W18
 BYTE   N05  Gn1
 BYTE   W18
 BYTE   An1
 BYTE   W06
 BYTE   Ds1
 BYTE   W06
 BYTE   N11  An0
 BYTE   W12
 BYTE   N23
 BYTE   W24
 BYTE   N05  Fn0
 BYTE   W06
 BYTE   Gn0
 BYTE   W06
//  #04 //031   ----------------------------------------
 BYTE   Gs0
 BYTE   W06
 BYTE   Fn1
 BYTE   W06
 BYTE   As0
 BYTE   W06
 BYTE   Gs0
 BYTE   W12
 BYTE   Ds1
 BYTE   W06
 BYTE   Fn1
 BYTE   W06
 BYTE   Dn1
 BYTE   W06
 BYTE   Gs0
 BYTE   W06
 BYTE   Dn1
 BYTE   W06
 BYTE   Gn1
 BYTE   W06
 BYTE   Fn1
 BYTE   W06
 BYTE   As0
 BYTE   W06
 BYTE   Cn1
 BYTE   W06
 BYTE   Fn1
 BYTE   W06
 BYTE   Gs1
 BYTE   W06
//  #04 //032   ----------------------------------------
 BYTE   N17  Fs1
 BYTE   W18
 BYTE   N05  Cn2
 BYTE   W18
 BYTE   Cn1
 BYTE   W06
 BYTE   Gs1
 BYTE   W06
 BYTE   N11  Fs1
 BYTE   W12
 BYTE   N23
 BYTE   W24
 BYTE   N11  Cn1
 BYTE   W12
//  #04 //033   ----------------------------------------
 BYTE   N17  Cs1
 BYTE   W18
 BYTE   N05  Cs2
 BYTE   W18
 BYTE   Fn1
 BYTE   W06
 BYTE   Gs1
 BYTE   W06
 BYTE   N11  Cs1
 BYTE   W12
 BYTE   N11
 BYTE   W12
 BYTE   N05  Gs1
 BYTE   W06
 BYTE   Cs1
 BYTE   W06
 BYTE   Ds1
 BYTE   W06
 BYTE   Gs1
 BYTE   W06
//  #04 //034   ----------------------------------------
 BYTE   N17  Dn1
 BYTE   W18
 BYTE   N05  Cn2
 BYTE   W18
 BYTE   Gs1
 BYTE   W06
 BYTE   Fn1
 BYTE   W06
 BYTE   N11  Dn1
 BYTE   W12
 BYTE   N23
 BYTE   W24
 BYTE   N11  Gs0
 BYTE   W12
//  #04 //035   ----------------------------------------
 BYTE   N05  Gn0
 BYTE   W06
 BYTE   Dn1
 BYTE   W06
 BYTE   N17  Gn0
 BYTE   W18
 BYTE   N11  Fn1
 BYTE   W12
 BYTE   N05  Cn1
 BYTE   W06
 BYTE   Gn0
 BYTE   W06
 BYTE   Dn1
 BYTE   W06
 BYTE   Bn1
 BYTE   W06
 BYTE   Gn1
 BYTE   W06
 BYTE   N03  Dn2
 BYTE   W04
 BYTE   Cs2
 BYTE   W04
 BYTE   Cn2
 BYTE   W04
 BYTE   N11  Bn1
 BYTE   W12
//  #04 //036   ----------------------------------------
Label_D143B5:
 BYTE   N11  Cn1  v096
 BYTE   W12
 BYTE   N05  Gn1
 BYTE   W06
 BYTE   Cn2
 BYTE   W06
 BYTE   N11  Bn1
 BYTE   W12
 BYTE   N05  Gn1
 BYTE   W06
 BYTE   Bn0
 BYTE   W06
 BYTE   N07  Cn1
 BYTE   W08
 BYTE   Ds1
 BYTE   W08
 BYTE   Gs1
 BYTE   W08
 BYTE   Gn1
 BYTE   W08
 BYTE   Dn1
 BYTE   W08
 BYTE   Ds1
 BYTE   W08
 BYTE   PEND 
//  #04 //037   ----------------------------------------
 BYTE   N05  Bn0
 BYTE   W06
 BYTE   Ds1
 BYTE   W06
 BYTE   Bn0
 BYTE   W06
 BYTE   Bn1
 BYTE   W06
 BYTE   Gn1
 BYTE   W12
 BYTE   Ds1
 BYTE   W06
 BYTE   Bn0
 BYTE   W12
 BYTE   As0
 BYTE   W06
 BYTE   N11
 BYTE   W12
 BYTE   N07  As1
 BYTE   W08
 BYTE   Fn1
 BYTE   W08
 BYTE   Dn1
 BYTE   W08
//  #04 //038   ----------------------------------------
Label_D143EE:
 BYTE   N11  An0  v096
 BYTE   W12
 BYTE   N05  Gn1
 BYTE   W06
 BYTE   An1
 BYTE   W06
 BYTE   N11  Fn1
 BYTE   W12
 BYTE   N05  Dn1
 BYTE   W06
 BYTE   As0
 BYTE   W06
 BYTE   N07  An0
 BYTE   W08
 BYTE   Ds1
 BYTE   W08
 BYTE   Cn2
 BYTE   W08
 BYTE   Gs1
 BYTE   W08
 BYTE   Fn1
 BYTE   W08
 BYTE   Dn1
 BYTE   W08
 BYTE   PEND 
//  #04 //039   ----------------------------------------
 BYTE   N05  Gn0
 BYTE   W06
 BYTE   As0
 BYTE   W06
 BYTE   Gn0
 BYTE   W06
 BYTE   Gn1
 BYTE   W06
 BYTE   Dn1
 BYTE   W12
 BYTE   Fn1
 BYTE   W06
 BYTE   N11  Gn0
 BYTE   W12
 BYTE   N05  Dn1
 BYTE   W06
 BYTE   N11  Gn0
 BYTE   W12
 BYTE   N07  As0
 BYTE   W08
 BYTE   Ds1
 BYTE   W08
 BYTE   Gn1
 BYTE   W08
//  #04 //040   ----------------------------------------
Label_D1442A:
 BYTE   N07  Fs1  v096
 BYTE   W08
 BYTE   Cn2
 BYTE   W08
 BYTE   Fs2
 BYTE   W20
 BYTE   N05  Gn1
 BYTE   W06
 BYTE   N11  Fs1
 BYTE   W12
 BYTE   N05  Cn1
 BYTE   W06
 BYTE   N11  Fs1
 BYTE   W18
 BYTE   N17  Ds1
 BYTE   W18
 BYTE   PEND 
//  #04 //041   ----------------------------------------
Label_D14442:
 BYTE   N07  Fn1  v096
 BYTE   W08
 BYTE   Ds2
 BYTE   W08
 BYTE   Fn2
 BYTE   W08
 BYTE   Ds2
 BYTE   W08
 BYTE   Cn2
 BYTE   W08
 BYTE   N13  Fn1
 BYTE   W14
 BYTE   N05  Cn1
 BYTE   W06
 BYTE   N11  Ds1
 BYTE   W12
 BYTE   Ds0
 BYTE   W12
 BYTE   As0
 BYTE   W12
 BYTE   PEND 
//  #04 //042   ----------------------------------------
 BYTE   PATT
  POIN2 Label_D142CF
//  #04 //043   ----------------------------------------
 BYTE   N05  Dn1  v096
 BYTE   W06
 BYTE   Cn1
 BYTE   W06
 BYTE   N23  Dn1
 BYTE   W24
 BYTE   N05  Fn1
 BYTE   W06
 BYTE   Gs1
 BYTE   W06
 BYTE   N03  Gn1
 BYTE   W04
 BYTE   Dn1
 BYTE   W04
 BYTE   Fn1
 BYTE   W04
 BYTE   Gs1
 BYTE   W04
 BYTE   Cn2
 BYTE   W04
 BYTE   Dn1
 BYTE   W04
 BYTE   N07  Cs1
 BYTE   W08
 BYTE   Fn1
 BYTE   W08
 BYTE   Bn1
 BYTE   W08
//  #04 //044   ----------------------------------------
 BYTE   PATT
  POIN2 Label_D143B5
//  #04 //045   ----------------------------------------
 BYTE   W06
 BYTE   N05  Ds1  v096
 BYTE   W06
 BYTE   Bn0
 BYTE   W06
 BYTE   Bn1
 BYTE   W06
 BYTE   Gn1
 BYTE   W12
 BYTE   Ds1
 BYTE   W06
 BYTE   Bn0
 BYTE   W12
 BYTE   As0
 BYTE   W06
 BYTE   N11
 BYTE   W12
 BYTE   N07  As1
 BYTE   W08
 BYTE   Fn1
 BYTE   W08
 BYTE   Dn1
 BYTE   W08
//  #04 //046   ----------------------------------------
 BYTE   PATT
  POIN2 Label_D143EE
//  #04 //047   ----------------------------------------
 BYTE   W06
 BYTE   N05  As0  v096
 BYTE   W06
 BYTE   Gn0
 BYTE   W06
 BYTE   Gn1
 BYTE   W06
 BYTE   Dn1
 BYTE   W12
 BYTE   Fn1
 BYTE   W06
 BYTE   N11  Gn0
 BYTE   W12
 BYTE   N05  Dn1
 BYTE   W06
 BYTE   N11  Gn0
 BYTE   W12
 BYTE   N07  As0
 BYTE   W08
 BYTE   Ds1
 BYTE   W08
 BYTE   Gn1
 BYTE   W08
//  #04 //048   ----------------------------------------
 BYTE   PATT
  POIN2 Label_D1442A
//  #04 //049   ----------------------------------------
 BYTE   PATT
  POIN2 Label_D14442
//  #04 //050   ----------------------------------------
 BYTE   N05  Cs1  v096
 BYTE   W06
 BYTE   Gs1
 BYTE   W06
 BYTE   Ds2
 BYTE   W06
 BYTE   Cs2
 BYTE   W06
 BYTE   Gs1
 BYTE   W06
 BYTE   Fn1
 BYTE   W06
 BYTE   Cs1
 BYTE   W06
 BYTE   As0
 BYTE   W06
 BYTE   Cn1
 BYTE   W06
 BYTE   Dn1
 BYTE   W06
 BYTE   An1
 BYTE   W06
 BYTE   Gn1
 BYTE   W06
 BYTE   N11  Ds1
 BYTE   W12
 BYTE   N05  An0
 BYTE   W06
 BYTE   Ds1
 BYTE   W06
//  #04 //051   ----------------------------------------
 BYTE   N07  Dn1
 BYTE   W08
 BYTE   Cn1
 BYTE   W08
 BYTE   Dn1
 BYTE   W08
 BYTE   Gs1
 BYTE   W08
 BYTE   Fn1
 BYTE   W08
 BYTE   Gs1
 BYTE   W08
 BYTE   N05  Gn1
 BYTE   W06
 BYTE   Dn1
 BYTE   W06
 BYTE   N02  Gn1
 BYTE   W03
 BYTE   Gs1
 BYTE   W03
 BYTE   Cn2
 BYTE   W03
 BYTE   Ds2
 BYTE   W03
 BYTE   N07  Bn1
 BYTE   W08
 BYTE   Dn1
 BYTE   W08
 BYTE   Gn0
 BYTE   W08
//  #04 //052   ----------------------------------------
 BYTE   W96
//  #04 //053   ----------------------------------------
 BYTE   W96
//  #04 //054   ----------------------------------------
 BYTE   W96
//  #04 //055   ----------------------------------------
 BYTE   W96
//  #04 //056   ----------------------------------------
 BYTE   W96
//  #04 //057   ----------------------------------------
 BYTE   W96
//  #04 //058   ----------------------------------------
 BYTE   W96
//  #04 //059   ----------------------------------------
 BYTE   W96
//  #04 //060   ----------------------------------------
 BYTE   W96
//  #04 //061   ----------------------------------------
 BYTE   W96
//  #04 //062   ----------------------------------------
 BYTE   W96
//  #04 //063   ----------------------------------------
 BYTE   W96
//  #04 //064   ----------------------------------------
 BYTE   GoTo
  POIN2 Label_D14184
 BYTE   FINE

//**************** Track 5 (Midi-Chn.4) ****************//

LuckyBreak_005:
//  #05 //000   ----------------------------------------
 BYTE   KEYSH   LuckyBreak_key+0
 BYTE   VOICE   18
 BYTE   VOL   37*LuckyBreak_mvl/mxv
 BYTE   PAN   c_v+0
 BYTE   VOL   37*LuckyBreak_mvl/mxv
 BYTE   PAN   c_v+0
 BYTE   VOL   37*LuckyBreak_mvl/mxv
 BYTE   PAN   c_v+0
 BYTE   N32  Dn3  v080
 BYTE   N32  Fn3
 BYTE   N32  As3
 BYTE   W18
Label_01000018:
 BYTE   W18
 BYTE   N05  Dn3  v080
 BYTE   N05  Fn3
 BYTE   N05  As3
 BYTE   W24
 BYTE   Dn3
 BYTE   N05  Fn3
 BYTE   N05  As3
 BYTE   W18
 BYTE   Dn3
 BYTE   N05  Fn3
 BYTE   N05  As3
 BYTE   W18
//  #05 //001   ----------------------------------------
 BYTE   N32  Cn3
 BYTE   N32  Dn3
 BYTE   N32  Gn3
 BYTE   W36
 BYTE   N05  Cn3
 BYTE   N05  Dn3
 BYTE   N05  Gn3
 BYTE   W24
 BYTE   Cn3
 BYTE   N05  Dn3
 BYTE   N05  Gn3
 BYTE   W18
 BYTE   Cn3
 BYTE   N05  Dn3
 BYTE   N05  Gn3
 BYTE   W18
//  #05 //002   ----------------------------------------
 BYTE   N32  Dn3
 BYTE   N32  Fn3
 BYTE   N32  As3
 BYTE   W36
 BYTE   N05  Dn3
 BYTE   N05  Fn3
 BYTE   N05  As3
 BYTE   W24
 BYTE   Dn3
 BYTE   N05  Fn3
 BYTE   N05  As3
 BYTE   W18
 BYTE   Dn3
 BYTE   N05  Fn3
 BYTE   N05  As3
 BYTE   W18
//  #05 //003   ----------------------------------------
 BYTE   N32  Cn3
 BYTE   N32  Dn3
 BYTE   N32  Gn3
 BYTE   W36
 BYTE   N05  Cn3
 BYTE   N05  Dn3
 BYTE   N05  Gn3
 BYTE   W24
 BYTE   Cn3
 BYTE   N05  Dn3
 BYTE   N05  Gn3
 BYTE   W18
 BYTE   Cn3  v072
 BYTE   N05  Dn3
 BYTE   N05  Gn3
 BYTE   W18
//  #05 //004   ----------------------------------------
 BYTE   N32  Dn3  v064
 BYTE   N32  Fn3
 BYTE   N32  As3
 BYTE   W36
 BYTE   N05  Dn3
 BYTE   N05  Fn3
 BYTE   N05  As3
 BYTE   W24
 BYTE   Dn3
 BYTE   N05  Fn3
 BYTE   N05  As3
 BYTE   W18
 BYTE   Dn3
 BYTE   N05  Fn3
 BYTE   N05  As3
 BYTE   W18
//  #05 //005   ----------------------------------------
 BYTE   N32  Gs2
 BYTE   N32  As2
 BYTE   N32  Ds3
 BYTE   N32  Gn3
 BYTE   W36
 BYTE   N05  Gs2
 BYTE   N05  As2
 BYTE   N05  Ds3
 BYTE   N05  Gn3
 BYTE   W24
 BYTE   Gs2
 BYTE   N05  As2
 BYTE   N05  Ds3
 BYTE   N05  Gn3
 BYTE   W18
 BYTE   Gs2
 BYTE   N05  As2
 BYTE   N05  Ds3
 BYTE   N05  Gn3
 BYTE   W18
//  #05 //006   ----------------------------------------
 BYTE   N32  As2
 BYTE   N32  Dn3
 BYTE   N32  Fn3
 BYTE   N32  Cn4
 BYTE   W36
 BYTE   N05  As2
 BYTE   N05  Dn3
 BYTE   N05  Fn3
 BYTE   N05  Cn4
 BYTE   W24
 BYTE   As2
 BYTE   N05  Dn3
 BYTE   N05  Fn3
 BYTE   N05  Cn4
 BYTE   W18
 BYTE   As2
 BYTE   N05  Dn3
 BYTE   N05  Fn3
 BYTE   N05  Cn4
 BYTE   W18
//  #05 //007   ----------------------------------------
 BYTE   N32  As2
 BYTE   N32  Ds3
 BYTE   N32  Gn3
 BYTE   N32  As3
 BYTE   W36
 BYTE   N05  As2
 BYTE   N05  Ds3
 BYTE   N05  Gn3
 BYTE   W24
 BYTE   As2
 BYTE   N05  Ds3
 BYTE   N05  Gn3
 BYTE   W18
 BYTE   As2
 BYTE   N05  Ds3
 BYTE   N05  As3
 BYTE   W18
//  #05 //008   ----------------------------------------
 BYTE   N17  Cs3
 BYTE   N17  Gn3
 BYTE   N17  As3
 BYTE   W18
 BYTE   N05  Cs3
 BYTE   N05  Gn3
 BYTE   N05  As3
 BYTE   W30
 BYTE   N11  Cs3
 BYTE   N11  En3
 BYTE   N11  Cs4
 BYTE   W24
 BYTE   N23  Cs3
 BYTE   N23  En3
 BYTE   N23  Cs4
 BYTE   W24
//  #05 //009   ----------------------------------------
 BYTE   N17  Cn3
 BYTE   N17  Fn3
 BYTE   N17  Gs3
 BYTE   W18
 BYTE   N05  Cn3
 BYTE   N05  Fn3
 BYTE   N05  Gs3
 BYTE   W30
 BYTE   N11  Fs3
 BYTE   N11  Gs3
 BYTE   N11  Cn4
 BYTE   N11  Ds4
 BYTE   W24
 BYTE   Fs3
 BYTE   N11  Gs3
 BYTE   N11  Cn4
 BYTE   N11  Ds4
 BYTE   W12
 BYTE   Fs3
 BYTE   N11  Gs3
 BYTE   N11  Cn4
 BYTE   N11  Ds4
 BYTE   W12
//  #05 //010   ----------------------------------------
 BYTE   N32  Cn3
 BYTE   N32  Fn3
 BYTE   N32  Gs3
 BYTE   W36
 BYTE   N05  Cn3
 BYTE   N05  Fn3
 BYTE   N05  Gs3
 BYTE   N05  Ds4
 BYTE   W24
 BYTE   N17  Dn3
 BYTE   N17  Fn3
 BYTE   N17  Gs3
 BYTE   N17  Ds4
 BYTE   W18
 BYTE   Dn3
 BYTE   N17  Fn3
 BYTE   N17  Cn4
 BYTE   N17  Ds4
 BYTE   W18
//  #05 //011   ----------------------------------------
 BYTE   N32  Dn3
 BYTE   N32  Gs3
 BYTE   N32  Bn3
 BYTE   W36
 BYTE   N05  Dn3
 BYTE   N05  Gs3
 BYTE   N05  Bn3
 BYTE   W12
 BYTE   N07  Bn2  v052
 BYTE   N07  Dn3
 BYTE   W08
 BYTE   N07
 BYTE   N07  Fn3
 BYTE   W08
 BYTE   N07
 BYTE   N07  Gs3
 BYTE   W32
//  #05 //012   ----------------------------------------
 BYTE   N05  Gn3  v080
 BYTE   N05  Dn4
 BYTE   W06
 BYTE   Gn3
 BYTE   N05  Cn4
 BYTE   N05  Ds4
 BYTE   W06
 BYTE   Gn3
 BYTE   N05  Cn4
 BYTE   N05  Ds4
 BYTE   W12
 BYTE   Gn3
 BYTE   N05  Cn4
 BYTE   N05  Ds4
 BYTE   W06
 BYTE   Gn3
 BYTE   N05  Cn4
 BYTE   N05  Ds4
 BYTE   W06
 BYTE   Gn3
 BYTE   N05  Cn4
 BYTE   N05  Ds4
 BYTE   W12
 BYTE   N07  Gn3
 BYTE   W08
 BYTE   Cn4
 BYTE   W08
 BYTE   Ds4
 BYTE   W08
 BYTE   N07
 BYTE   W08
 BYTE   Cn4
 BYTE   W08
 BYTE   Gn3
 BYTE   W08
//  #05 //013   ----------------------------------------
 BYTE   W06
 BYTE   N05  Ds3
 BYTE   N05  Gn3
 BYTE   N05  Bn3
 BYTE   N05  Ds4
 BYTE   W06
 BYTE   Ds3
 BYTE   N05  Gn3
 BYTE   N05  Bn3
 BYTE   N05  Ds4
 BYTE   W18
 BYTE   Ds3
 BYTE   N05  Gn3
 BYTE   N05  Bn3
 BYTE   N05  Ds4
 BYTE   W06
 BYTE   Ds3
 BYTE   N05  Gn3
 BYTE   N05  Bn3
 BYTE   N05  Ds4
 BYTE   W12
 BYTE   Dn3
 BYTE   N05  Gn3
 BYTE   N05  As3
 BYTE   W12
 BYTE   N17  Dn3
 BYTE   N17  Gn3
 BYTE   N17  As3
 BYTE   W18
 BYTE   N05  Dn3
 BYTE   N05  Gn3
 BYTE   N05  As3
 BYTE   W18
//  #05 //014   ----------------------------------------
 BYTE   Fn3  v096
 BYTE   N05  As3
 BYTE   W06
 BYTE   Fn3
 BYTE   N05  Cn4
 BYTE   W06
 BYTE   Fn3
 BYTE   N05  Cn4
 BYTE   W06
 BYTE   Fn3
 BYTE   N05  Cn4
 BYTE   W06
 BYTE   Fn3
 BYTE   N05  Cn4
 BYTE   W06
 BYTE   Fn3
 BYTE   N05  Cn4
 BYTE   W06
 BYTE   Fn3
 BYTE   N05  Cn4
 BYTE   W12
 BYTE   N07  Fn3  v080
 BYTE   N07  Gs3
 BYTE   W08
 BYTE   N07
 BYTE   N07  Cn4
 BYTE   W08
 BYTE   N07
 BYTE   N07  Ds4
 BYTE   W08
 BYTE   Cn4
 BYTE   N07  Ds4
 BYTE   W08
 BYTE   Gs3
 BYTE   N07  Cn4
 BYTE   W08
 BYTE   Fn3
 BYTE   N07  Gs3
 BYTE   W08
//  #05 //015   ----------------------------------------
 BYTE   W06
 BYTE   N05  Dn3
 BYTE   N05  Fn3
 BYTE   N05  An3
 BYTE   W06
 BYTE   Dn3
 BYTE   N05  Fn3
 BYTE   N05  An3
 BYTE   W18
 BYTE   Dn3
 BYTE   N05  Fn3
 BYTE   N05  An3
 BYTE   W06
 BYTE   Dn3
 BYTE   N05  Fn3
 BYTE   N05  An3
 BYTE   W12
 BYTE   Dn3
 BYTE   N05  Gn3
 BYTE   N05  As3
 BYTE   W12
 BYTE   N17  Dn3
 BYTE   N17  Gn3
 BYTE   N17  As3
 BYTE   W18
 BYTE   N05  Dn3
 BYTE   N05  Gn3
 BYTE   N05  As3
 BYTE   W18
//  #05 //016   ----------------------------------------
 BYTE   W08
 BYTE   N07  Fs3
 BYTE   N07  Cn4
 BYTE   N07  Ds4
 BYTE   W08
 BYTE   Fs3
 BYTE   N07  Cn4
 BYTE   N07  Ds4
 BYTE   W16
 BYTE   Fs3
 BYTE   N07  Cn4
 BYTE   N07  Ds4
 BYTE   W08
 BYTE   Fs3
 BYTE   N07  Cn4
 BYTE   N07  Ds4
 BYTE   W20
 BYTE   N05  Fs3
 BYTE   N05  Cn4
 BYTE   W12
 BYTE   N23  Fs3
 BYTE   N23  Cn4
 BYTE   W24
//  #05 //017   ----------------------------------------
 BYTE   W08
 BYTE   N07  Fn3
 BYTE   N07  Cn4
 BYTE   N07  Ds4
 BYTE   W08
 BYTE   Fn3
 BYTE   N07  Cn4
 BYTE   N07  Ds4
 BYTE   W16
 BYTE   Fn3
 BYTE   N07  Cn4
 BYTE   N07  Ds4
 BYTE   W08
 BYTE   Fn3
 BYTE   N07  Cn4
 BYTE   N07  Ds4
 BYTE   W20
 BYTE   N05  Fn3
 BYTE   N05  As3
 BYTE   N05  Cs4
 BYTE   W12
 BYTE   N23  Fn3
 BYTE   N23  As3
 BYTE   N23  Cs4
 BYTE   W24
//  #05 //018   ----------------------------------------
 BYTE   W12
 BYTE   N11  Ds3
 BYTE   N11  Gs3
 BYTE   N11  Cs4
 BYTE   W24
 BYTE   Ds3
 BYTE   N11  Gs3
 BYTE   N11  Cs4
 BYTE   W24
 BYTE   Fn3
 BYTE   N11  Gn3
 BYTE   N11  Cn4
 BYTE   W12
 BYTE   N05  Fn3
 BYTE   N05  Gn3
 BYTE   W06
 BYTE   Fn3
 BYTE   N05  Gn3
 BYTE   W06
 BYTE   Fn3
 BYTE   N05  Gn3
 BYTE   N05  Cn4
 BYTE   W12
//  #05 //019   ----------------------------------------
 BYTE   W12
 BYTE   N11  Cs3
 BYTE   N11  Fn3
 BYTE   N11  Gs3
 BYTE   W24
 BYTE   Cs3
 BYTE   N11  Fn3
 BYTE   N11  Gs3
 BYTE   W12
 BYTE   N03  Cs3
 BYTE   N03  Fn3
 BYTE   N03  Gn3
 BYTE   W04
 BYTE   Cs3
 BYTE   N03  Fn3
 BYTE   N03  Gn3
 BYTE   W04
 BYTE   Cs3
 BYTE   N03  Fn3
 BYTE   N03  Gn3
 BYTE   W04
 BYTE   N07  Cs3
 BYTE   N07  Gn3
 BYTE   W08
 BYTE   N01  Cs3
 BYTE   N01  Gn3
 BYTE   W04
 BYTE   N07  Cs3
 BYTE   N07  Gn3
 BYTE   W08
 BYTE   Cs3
 BYTE   N07  Gn3
 BYTE   W08
 BYTE   Cs3
 BYTE   N07  Gn3
 BYTE   W08
//  #05 //020   ----------------------------------------
 BYTE   W96
//  #05 //021   ----------------------------------------
 BYTE   W96
//  #05 //022   ----------------------------------------
 BYTE   W96
//  #05 //023   ----------------------------------------
 BYTE   W96
//  #05 //024   ----------------------------------------
 BYTE   W96
//  #05 //025   ----------------------------------------
 BYTE   W96
//  #05 //026   ----------------------------------------
 BYTE   W96
//  #05 //027   ----------------------------------------
 BYTE   W96
//  #05 //028   ----------------------------------------
 BYTE   W96
//  #05 //029   ----------------------------------------
 BYTE   W96
//  #05 //030   ----------------------------------------
 BYTE   W96
//  #05 //031   ----------------------------------------
 BYTE   W96
//  #05 //032   ----------------------------------------
 BYTE   W96
//  #05 //033   ----------------------------------------
 BYTE   W96
//  #05 //034   ----------------------------------------
 BYTE   W96
//  #05 //035   ----------------------------------------
 BYTE   W96
//  #05 //036   ----------------------------------------
 BYTE   N05  Gn3  v096
 BYTE   N05  Dn4
 BYTE   W06
 BYTE   Gn3
 BYTE   N05  Cn4
 BYTE   N05  Ds4
 BYTE   W06
 BYTE   Gn3
 BYTE   N05  Cn4
 BYTE   N05  Ds4
 BYTE   W12
 BYTE   Gn3
 BYTE   N05  Cn4
 BYTE   N05  Ds4
 BYTE   W06
 BYTE   Gn3
 BYTE   N05  Cn4
 BYTE   N05  Ds4
 BYTE   W06
 BYTE   Gn3
 BYTE   N05  Cn4
 BYTE   N05  Ds4
 BYTE   W12
 BYTE   N07  Gn3
 BYTE   W08
 BYTE   Cn4
 BYTE   W08
 BYTE   Ds4
 BYTE   W08
 BYTE   N07
 BYTE   W08
 BYTE   Cn4
 BYTE   W08
 BYTE   Gn3
 BYTE   W08
//  #05 //037   ----------------------------------------
 BYTE   W06
 BYTE   N05  Ds3
 BYTE   N05  Gn3
 BYTE   N05  Bn3
 BYTE   N05  Ds4
 BYTE   W06
 BYTE   Ds3
 BYTE   N05  Gn3
 BYTE   N05  Bn3
 BYTE   N05  Ds4
 BYTE   W18
 BYTE   Ds3
 BYTE   N05  Gn3
 BYTE   N05  Bn3
 BYTE   N05  Ds4
 BYTE   W06
 BYTE   Ds3
 BYTE   N05  Gn3
 BYTE   N05  Bn3
 BYTE   N05  Ds4
 BYTE   W12
 BYTE   Dn3
 BYTE   N05  Gn3
 BYTE   N05  As3
 BYTE   W12
 BYTE   N17  Dn3
 BYTE   N17  Gn3
 BYTE   N17  As3
 BYTE   W18
 BYTE   N05  Dn3
 BYTE   N05  Gn3
 BYTE   N05  As3
 BYTE   W18
//  #05 //038   ----------------------------------------
 BYTE   Fn3
 BYTE   N05  As3
 BYTE   W06
 BYTE   Fn3
 BYTE   N05  Cn4
 BYTE   W06
 BYTE   Fn3
 BYTE   N05  Cn4
 BYTE   W06
 BYTE   Fn3
 BYTE   N05  Cn4
 BYTE   W06
 BYTE   Fn3
 BYTE   N05  Cn4
 BYTE   W06
 BYTE   Fn3
 BYTE   N05  Cn4
 BYTE   W06
 BYTE   Fn3
 BYTE   N05  Cn4
 BYTE   W12
 BYTE   N07  Fn3
 BYTE   N07  Gs3
 BYTE   W08
 BYTE   N07
 BYTE   N07  Cn4
 BYTE   W08
 BYTE   N07
 BYTE   N07  Ds4
 BYTE   W08
 BYTE   Cn4
 BYTE   N07  Ds4
 BYTE   W08
 BYTE   Gs3
 BYTE   N07  Cn4
 BYTE   W08
 BYTE   Fn3
 BYTE   N07  Gs3
 BYTE   W08
//  #05 //039   ----------------------------------------
 BYTE   W06
 BYTE   N05  Dn3
 BYTE   N05  Fn3
 BYTE   N05  An3
 BYTE   W06
 BYTE   Dn3
 BYTE   N05  Fn3
 BYTE   N05  An3
 BYTE   W18
 BYTE   Dn3
 BYTE   N05  Fn3
 BYTE   N05  An3
 BYTE   W06
 BYTE   Dn3
 BYTE   N05  Fn3
 BYTE   N05  An3
 BYTE   W12
 BYTE   Dn3
 BYTE   N05  Gn3
 BYTE   N05  As3
 BYTE   W12
 BYTE   N17  Dn3
 BYTE   N17  Gn3
 BYTE   N17  As3
 BYTE   W18
 BYTE   N05  Dn3
 BYTE   N05  Gn3
 BYTE   N05  As3
 BYTE   W18
//  #05 //040   ----------------------------------------
 BYTE   W08
 BYTE   N07  Fs3
 BYTE   N07  Cn4
 BYTE   N07  Ds4
 BYTE   W08
 BYTE   Fs3
 BYTE   N07  Cn4
 BYTE   N07  Ds4
 BYTE   W16
 BYTE   Fs3
 BYTE   N07  Cn4
 BYTE   N07  Ds4
 BYTE   W08
 BYTE   Fs3
 BYTE   N07  Cn4
 BYTE   N07  Ds4
 BYTE   W20
 BYTE   N05  Fs3
 BYTE   N05  Cn4
 BYTE   W12
 BYTE   N23  Fs3
 BYTE   N23  Cn4
 BYTE   W24
//  #05 //041   ----------------------------------------
 BYTE   W08
 BYTE   N07  Fn3
 BYTE   N07  Cn4
 BYTE   N07  Ds4
 BYTE   W08
 BYTE   Fn3
 BYTE   N07  Cn4
 BYTE   N07  Ds4
 BYTE   W16
 BYTE   Fn3
 BYTE   N07  Cn4
 BYTE   N07  Ds4
 BYTE   W08
 BYTE   Fn3
 BYTE   N07  Cn4
 BYTE   N07  Ds4
 BYTE   W20
 BYTE   N05  Fn3
 BYTE   N05  As3
 BYTE   N05  Cs4
 BYTE   W12
 BYTE   N23  Fn3
 BYTE   N23  As3
 BYTE   N23  Cs4
 BYTE   W24
//  #05 //042   ----------------------------------------
 BYTE   W12
 BYTE   N11  Ds3
 BYTE   N11  Gs3
 BYTE   N11  Cs4
 BYTE   W24
 BYTE   Ds3
 BYTE   N11  Gs3
 BYTE   N11  Cs4
 BYTE   W24
 BYTE   Fn3
 BYTE   N11  Gn3
 BYTE   N11  Cn4
 BYTE   W12
 BYTE   N05  Fn3
 BYTE   N05  Gn3
 BYTE   W06
 BYTE   Fn3
 BYTE   N05  Gn3
 BYTE   W06
 BYTE   Fn3
 BYTE   N05  Gn3
 BYTE   N05  Cn4
 BYTE   W12
//  #05 //043   ----------------------------------------
 BYTE   W12
 BYTE   N11  Cs3
 BYTE   N11  Fn3
 BYTE   N11  Gs3
 BYTE   W24
 BYTE   Cs3
 BYTE   N11  Fn3
 BYTE   N11  Gs3
 BYTE   W12
 BYTE   N03  Cs3
 BYTE   N03  Fn3
 BYTE   N03  Gn3
 BYTE   W04
 BYTE   Cs3
 BYTE   N03  Fn3
 BYTE   N03  Gn3
 BYTE   W04
 BYTE   Cs3
 BYTE   N03  Fn3
 BYTE   N03  Gn3
 BYTE   W04
 BYTE   N07  Cs3
 BYTE   N07  Gn3
 BYTE   W08
 BYTE   N01  Cs3
 BYTE   N01  Gn3
 BYTE   W04
 BYTE   N07  Cs3
 BYTE   N07  Gn3
 BYTE   W08
 BYTE   Cs3
 BYTE   N07  Gn3
 BYTE   W08
 BYTE   Cs3
 BYTE   N07  Gn3
 BYTE   W08
//  #05 //044   ----------------------------------------
 BYTE   W96
//  #05 //045   ----------------------------------------
 BYTE   W96
//  #05 //046   ----------------------------------------
 BYTE   W96
//  #05 //047   ----------------------------------------
 BYTE   W96
//  #05 //048   ----------------------------------------
 BYTE   W96
//  #05 //049   ----------------------------------------
 BYTE   W96
//  #05 //050   ----------------------------------------
 BYTE   W96
//  #05 //051   ----------------------------------------
 BYTE   W96
//  #05 //052   ----------------------------------------
 BYTE   W96
//  #05 //053   ----------------------------------------
 BYTE   W96
//  #05 //054   ----------------------------------------
 BYTE   W96
//  #05 //055   ----------------------------------------
 BYTE   W96
//  #05 //056   ----------------------------------------
 BYTE   W96
//  #05 //057   ----------------------------------------
 BYTE   W96
//  #05 //058   ----------------------------------------
 BYTE   W96
//  #05 //059   ----------------------------------------
 BYTE   W96
//  #05 //060   ----------------------------------------
 BYTE   W96
//  #05 //061   ----------------------------------------
 BYTE   W12
 BYTE   TIE  Cn1  v052
 BYTE   W84
//  #05 //062   ----------------------------------------
 BYTE   W96
//  #05 //063   ----------------------------------------
 BYTE   W92
 BYTE   W03
 BYTE   EOT
 BYTE   W01
//  #05 //064   ----------------------------------------
 BYTE   GoTo
  POIN2 Label_01000018
 BYTE   FINE

//**************** Track 6 (Midi-Chn.5) ****************//

LuckyBreak_006:
//  #06 //000   ----------------------------------------
 BYTE   KEYSH   LuckyBreak_key+0
 BYTE   VOICE   92
 BYTE   VOL   37*LuckyBreak_mvl/mxv
 BYTE   PAN   c_v+0
 BYTE   VOL   37*LuckyBreak_mvl/mxv
 BYTE   PAN   c_v+0
 BYTE   VOL   37*LuckyBreak_mvl/mxv
 BYTE   PAN   c_v+0
 BYTE   W18
Label_D14E39:
 BYTE   W78
//  #06 //001   ----------------------------------------
 BYTE   W96
//  #06 //002   ----------------------------------------
 BYTE   W96
//  #06 //003   ----------------------------------------
 BYTE   W96
//  #06 //004   ----------------------------------------
 BYTE   W96
//  #06 //005   ----------------------------------------
 BYTE   W96
//  #06 //006   ----------------------------------------
 BYTE   W96
//  #06 //007   ----------------------------------------
 BYTE   W96
//  #06 //008   ----------------------------------------
 BYTE   W96
//  #06 //009   ----------------------------------------
 BYTE   W96
//  #06 //010   ----------------------------------------
 BYTE   W96
//  #06 //011   ----------------------------------------
 BYTE   W96
//  #06 //012   ----------------------------------------
 BYTE   W96
//  #06 //013   ----------------------------------------
 BYTE   W96
//  #06 //014   ----------------------------------------
 BYTE   W96
//  #06 //015   ----------------------------------------
 BYTE   W96
//  #06 //016   ----------------------------------------
 BYTE   W96
//  #06 //017   ----------------------------------------
 BYTE   W96
//  #06 //018   ----------------------------------------
 BYTE   W96
//  #06 //019   ----------------------------------------
 BYTE   W96
//  #06 //020   ----------------------------------------
Label_D14E4D:
 BYTE   N92  Cn2  v016
 BYTE   W96
 BYTE   PEND 
//  #06 //021   ----------------------------------------
Label_D14E52:
 BYTE   N92  As1  v016
 BYTE   W96
 BYTE   PEND 
//  #06 //022   ----------------------------------------
Label_D14E57:
 BYTE   N92  An1  v016
 BYTE   W96
 BYTE   PEND 
//  #06 //023   ----------------------------------------
Label_D14E5C:
 BYTE   N92  Gs1  v016
 BYTE   W96
 BYTE   PEND 
//  #06 //024   ----------------------------------------
Label_D14E61:
 BYTE   N92  En1  v016
 BYTE   W96
 BYTE   PEND 
//  #06 //025   ----------------------------------------
Label_D14E66:
 BYTE   N92  Cs2  v016
 BYTE   W96
 BYTE   PEND 
//  #06 //026   ----------------------------------------
Label_D14E6B:
 BYTE   N92  Dn2  v016
 BYTE   W96
 BYTE   PEND 
//  #06 //027   ----------------------------------------
Label_D14E70:
 BYTE   N92  Gn1  v016
 BYTE   W96
 BYTE   PEND 
//  #06 //028   ----------------------------------------
 BYTE   W96
//  #06 //029   ----------------------------------------
 BYTE   W96
//  #06 //030   ----------------------------------------
 BYTE   W96
//  #06 //031   ----------------------------------------
 BYTE   W96
//  #06 //032   ----------------------------------------
 BYTE   W96
//  #06 //033   ----------------------------------------
 BYTE   W96
//  #06 //034   ----------------------------------------
 BYTE   W96
//  #06 //035   ----------------------------------------
 BYTE   W96
//  #06 //036   ----------------------------------------
 BYTE   W96
//  #06 //037   ----------------------------------------
 BYTE   W96
//  #06 //038   ----------------------------------------
 BYTE   W96
//  #06 //039   ----------------------------------------
 BYTE   W96
//  #06 //040   ----------------------------------------
 BYTE   W96
//  #06 //041   ----------------------------------------
 BYTE   W96
//  #06 //042   ----------------------------------------
 BYTE   W96
//  #06 //043   ----------------------------------------
 BYTE   W96
//  #06 //044   ----------------------------------------
 BYTE   W96
//  #06 //045   ----------------------------------------
 BYTE   W96
//  #06 //046   ----------------------------------------
 BYTE   W96
//  #06 //047   ----------------------------------------
 BYTE   W96
//  #06 //048   ----------------------------------------
 BYTE   W96
//  #06 //049   ----------------------------------------
 BYTE   W96
//  #06 //050   ----------------------------------------
 BYTE   W96
//  #06 //051   ----------------------------------------
 BYTE   W96
//  #06 //052   ----------------------------------------
 BYTE   W96
//  #06 //053   ----------------------------------------
 BYTE   PATT
  POIN2 Label_D14E4D
//  #06 //054   ----------------------------------------
 BYTE   PATT
  POIN2 Label_D14E52
//  #06 //055   ----------------------------------------
 BYTE   PATT
  POIN2 Label_D14E57
//  #06 //056   ----------------------------------------
 BYTE   PATT
  POIN2 Label_D14E5C
//  #06 //057   ----------------------------------------
 BYTE   PATT
  POIN2 Label_D14E61
//  #06 //058   ----------------------------------------
 BYTE   PATT
  POIN2 Label_D14E66
//  #06 //059   ----------------------------------------
 BYTE   PATT
  POIN2 Label_D14E6B
//  #06 //060   ----------------------------------------
 BYTE   PATT
  POIN2 Label_D14E70
//  #06 //061   ----------------------------------------
 BYTE   W12
 BYTE   TIE  Cn1  v036
 BYTE   W12
 BYTE   W72
//  #06 //062   ----------------------------------------
 BYTE   W96
//  #06 //063   ----------------------------------------
 BYTE   W92
 BYTE   W03
 BYTE   EOT
 BYTE   W01
//  #06 //064   ----------------------------------------
 BYTE   GoTo
  POIN2 Label_D14E39
 BYTE   FINE

//**************** Track 7 (Midi-Chn.6) ****************//

LuckyBreak_007:
//  #07 //000   ----------------------------------------
 BYTE   KEYSH   LuckyBreak_key+0
 BYTE   VOICE   104
 BYTE   VOL   37*LuckyBreak_mvl/mxv
 BYTE   PAN   c_v+0
 BYTE   VOL   37*LuckyBreak_mvl/mxv
 BYTE   PAN   c_v+0
 BYTE   VOL   37*LuckyBreak_mvl/mxv
 BYTE   PAN   c_v+0
 BYTE   W18
Label_D14ED9:
 BYTE   W78
//  #07 //001   ----------------------------------------
 BYTE   W96
//  #07 //002   ----------------------------------------
 BYTE   W96
//  #07 //003   ----------------------------------------
 BYTE   W96
//  #07 //004   ----------------------------------------
 BYTE   W96
//  #07 //005   ----------------------------------------
 BYTE   W96
//  #07 //006   ----------------------------------------
 BYTE   W96
//  #07 //007   ----------------------------------------
 BYTE   W96
//  #07 //008   ----------------------------------------
 BYTE   W96
//  #07 //009   ----------------------------------------
 BYTE   W96
//  #07 //010   ----------------------------------------
 BYTE   W96
//  #07 //011   ----------------------------------------
 BYTE   W96
//  #07 //012   ----------------------------------------
 BYTE   W96
//  #07 //013   ----------------------------------------
 BYTE   W96
//  #07 //014   ----------------------------------------
 BYTE   W96
//  #07 //015   ----------------------------------------
 BYTE   W96
//  #07 //016   ----------------------------------------
 BYTE   W96
//  #07 //017   ----------------------------------------
 BYTE   W96
//  #07 //018   ----------------------------------------
 BYTE   W96
//  #07 //019   ----------------------------------------
 BYTE   W96
//  #07 //020   ----------------------------------------
 BYTE   W96
//  #07 //021   ----------------------------------------
 BYTE   W96
//  #07 //022   ----------------------------------------
 BYTE   W96
//  #07 //023   ----------------------------------------
 BYTE   W96
//  #07 //024   ----------------------------------------
 BYTE   W96
//  #07 //025   ----------------------------------------
 BYTE   W96
//  #07 //026   ----------------------------------------
 BYTE   W96
//  #07 //027   ----------------------------------------
 BYTE   W96
//  #07 //028   ----------------------------------------
 BYTE   N80  Cn2  v080
 BYTE   W84
 BYTE   N11  Bn1
 BYTE   W12
//  #07 //029   ----------------------------------------
 BYTE   N48  As1
 BYTE   W48
 BYTE   N44
 BYTE   W06
 BYTE   N05  Gn2
 BYTE   W06
 BYTE   As2
 BYTE   W06
 BYTE   Ds3
 BYTE   W06
 BYTE   Cn4
 BYTE   W06
 BYTE   Gn3
 BYTE   W06
 BYTE   Ds3
 BYTE   W06
 BYTE   As2
 BYTE   W06
//  #07 //030   ----------------------------------------
 BYTE   N44  An1
 BYTE   N92  Gn3
 BYTE   W48
 BYTE   N44  An2
 BYTE   W48
//  #07 //031   ----------------------------------------
 BYTE   Gs1
 BYTE   W48
 BYTE   N05
 BYTE   N12  Gs2
 BYTE   W06
 BYTE   N05  Fn2
 BYTE   W06
 BYTE   N30  Gs2
 BYTE   W06
 BYTE   N05  Dn3
 BYTE   W06
 BYTE   As3
 BYTE   W06
 BYTE   Fn3
 BYTE   W06
 BYTE   Dn3
 BYTE   W06
 BYTE   Gs2
 BYTE   W06
//  #07 //032   ----------------------------------------
 BYTE   N92  Fs2
 BYTE   N92  Fn3
 BYTE   W96
//  #07 //033   ----------------------------------------
 BYTE   N44  Cs2
 BYTE   W48
 BYTE   N05
 BYTE   N12  Cs3
 BYTE   W06
 BYTE   N05  Fn2
 BYTE   W06
 BYTE   N30  Cs3
 BYTE   W06
 BYTE   N05  Fn3
 BYTE   W06
 BYTE   Cn4
 BYTE   W06
 BYTE   Gs3
 BYTE   W06
 BYTE   Fn3
 BYTE   W06
 BYTE   Cs3
 BYTE   W06
//  #07 //034   ----------------------------------------
 BYTE   N44  Dn2
 BYTE   N92  Gs3
 BYTE   W48
 BYTE   N44  Gs2
 BYTE   W48
//  #07 //035   ----------------------------------------
 BYTE   Gn2
 BYTE   W48
 BYTE   N05  Dn2
 BYTE   W06
 BYTE   Gn2
 BYTE   W06
 BYTE   Dn3
 BYTE   W06
 BYTE   Gs3
 BYTE   W06
 BYTE   Dn4
 BYTE   W06
 BYTE   Bn3
 BYTE   W06
 BYTE   Gn3
 BYTE   W06
 BYTE   Ds3
 BYTE   W06
//  #07 //036   ----------------------------------------
 BYTE   N92  Cn2
 BYTE   N92  Ds3
 BYTE   W96
//  #07 //037   ----------------------------------------
 BYTE   N44  Bn1
 BYTE   W48
 BYTE   As1
 BYTE   W48
//  #07 //038   ----------------------------------------
Label_D14F71:
 BYTE   N44  An1  v080
 BYTE   N05  An2
 BYTE   W06
 BYTE   Cn3
 BYTE   W06
 BYTE   Fn3
 BYTE   W06
 BYTE   An3
 BYTE   W06
 BYTE   Cn4
 BYTE   W06
 BYTE   An3
 BYTE   W06
 BYTE   Fn3
 BYTE   W06
 BYTE   Cn3
 BYTE   W06
 BYTE   N44  Gs1
 BYTE   N44  Dn3
 BYTE   W48
 BYTE   PEND 
//  #07 //039   ----------------------------------------
 BYTE   N92  Gn1
 BYTE   W96
//  #07 //040   ----------------------------------------
 BYTE   Fs2
 BYTE   W96
//  #07 //041   ----------------------------------------
 BYTE   N44  Fn2
 BYTE   W48
 BYTE   Cn2
 BYTE   W48
//  #07 //042   ----------------------------------------
 BYTE   Cs2
 BYTE   W48
 BYTE   Cn2
 BYTE   W48
//  #07 //043   ----------------------------------------
 BYTE   Dn2
 BYTE   N05  Fn2
 BYTE   W06
 BYTE   Gs2
 BYTE   W06
 BYTE   Cn3
 BYTE   W06
 BYTE   Bn3
 BYTE   W06
 BYTE   Dn4
 BYTE   W06
 BYTE   Bn3
 BYTE   W06
 BYTE   Fn3
 BYTE   W06
 BYTE   Dn3
 BYTE   W06
 BYTE   N44  Fn2
 BYTE   N44  Dn3
 BYTE   W48
//  #07 //044   ----------------------------------------
 BYTE   N92  Ds2
 BYTE   W06
 BYTE   N05  Bn2
 BYTE   W06
 BYTE   Ds3
 BYTE   W06
 BYTE   Gn3
 BYTE   W06
 BYTE   Cn4
 BYTE   W06
 BYTE   Gn3
 BYTE   W06
 BYTE   Ds3
 BYTE   W06
 BYTE   Bn2
 BYTE   W06
 BYTE   N44  Ds3
 BYTE   W48
//  #07 //045   ----------------------------------------
 BYTE   W06
 BYTE   N40  Bn1
 BYTE   W42
 BYTE   N44  As1
 BYTE   W48
//  #07 //046   ----------------------------------------
 BYTE   PATT
  POIN2 Label_D14F71
//  #07 //047   ----------------------------------------
 BYTE   W06
 BYTE   N88  Gn1  v080
 BYTE   W90
//  #07 //048   ----------------------------------------
 BYTE   N92  Fs1
 BYTE   W48
 BYTE   N05  Fs2
 BYTE   W06
 BYTE   Cn3
 BYTE   W06
 BYTE   Fs3
 BYTE   W06
 BYTE   Cn4
 BYTE   W06
 BYTE   Fs4
 BYTE   W06
 BYTE   Cn4
 BYTE   W06
 BYTE   Fs3
 BYTE   W06
 BYTE   Cn3
 BYTE   W06
//  #07 //049   ----------------------------------------
 BYTE   N44  Fn1
 BYTE   N44  Bn3
 BYTE   W48
 BYTE   Ds2
 BYTE   N05  As2
 BYTE   W06
 BYTE   Gn3
 BYTE   W06
 BYTE   Cn3
 BYTE   W06
 BYTE   Gn3
 BYTE   W06
 BYTE   Bn3
 BYTE   W06
 BYTE   Gn3
 BYTE   W06
 BYTE   Ds3
 BYTE   W06
 BYTE   Cn3
 BYTE   W06
//  #07 //050   ----------------------------------------
 BYTE   N44  Cs2
 BYTE   N92  Gs3
 BYTE   W48
 BYTE   N44  Cn2
 BYTE   W48
//  #07 //051   ----------------------------------------
 BYTE   Dn2
 BYTE   W48
 BYTE   Gn1
 BYTE   N05  Gn2
 BYTE   W06
 BYTE   Dn3
 BYTE   W06
 BYTE   Fn3
 BYTE   W06
 BYTE   Gn3
 BYTE   W06
 BYTE   N02  Gs3
 BYTE   W03
 BYTE   Gn3
 BYTE   W03
 BYTE   Fn3
 BYTE   W03
 BYTE   En3
 BYTE   W03
 BYTE   Gn3
 BYTE   W03
 BYTE   Fn3
 BYTE   W03
 BYTE   Ds3
 BYTE   W03
 BYTE   Dn3
 BYTE   W03
//  #07 //052   ----------------------------------------
 BYTE   W96
//  #07 //053   ----------------------------------------
 BYTE   W96
//  #07 //054   ----------------------------------------
 BYTE   W96
//  #07 //055   ----------------------------------------
 BYTE   W96
//  #07 //056   ----------------------------------------
 BYTE   W96
//  #07 //057   ----------------------------------------
 BYTE   W96
//  #07 //058   ----------------------------------------
 BYTE   W96
//  #07 //059   ----------------------------------------
 BYTE   W96
//  #07 //060   ----------------------------------------
 BYTE   W96
//  #07 //061   ----------------------------------------
 BYTE   W96
//  #07 //062   ----------------------------------------
 BYTE   W96
//  #07 //063   ----------------------------------------
 BYTE   W96
//  #07 //064   ----------------------------------------
 BYTE   GoTo
  POIN2 Label_D14ED9
 BYTE   FINE

//**************** Track 8 (Midi-Chn.7) ****************//

LuckyBreak_008:
//  #08 //000   ----------------------------------------
 BYTE   KEYSH   LuckyBreak_key+0
 BYTE   VOICE   36
 BYTE   VOL   37*LuckyBreak_mvl/mxv
 BYTE   PAN   c_v+0
 BYTE   VOL   37*LuckyBreak_mvl/mxv
 BYTE   PAN   c_v+0
 BYTE   VOL   37*LuckyBreak_mvl/mxv
 BYTE   PAN   c_v+0
 BYTE   W18
Label_D15049:
 BYTE   W78
//  #08 //001   ----------------------------------------
 BYTE   W96
//  #08 //002   ----------------------------------------
 BYTE   W96
//  #08 //003   ----------------------------------------
 BYTE   W96
//  #08 //004   ----------------------------------------
 BYTE   W96
//  #08 //005   ----------------------------------------
 BYTE   W96
//  #08 //006   ----------------------------------------
 BYTE   W96
//  #08 //007   ----------------------------------------
 BYTE   W96
//  #08 //008   ----------------------------------------
 BYTE   W96
//  #08 //009   ----------------------------------------
 BYTE   W96
//  #08 //010   ----------------------------------------
 BYTE   W96
//  #08 //011   ----------------------------------------
 BYTE   W96
//  #08 //012   ----------------------------------------
 BYTE   W96
//  #08 //013   ----------------------------------------
 BYTE   W96
//  #08 //014   ----------------------------------------
 BYTE   W96
//  #08 //015   ----------------------------------------
 BYTE   W96
//  #08 //016   ----------------------------------------
 BYTE   W96
//  #08 //017   ----------------------------------------
 BYTE   W96
//  #08 //018   ----------------------------------------
 BYTE   W96
//  #08 //019   ----------------------------------------
 BYTE   W96
//  #08 //020   ----------------------------------------
 BYTE   N92  Cn1  v064
 BYTE   N92  Cn2
 BYTE   W96
//  #08 //021   ----------------------------------------
 BYTE   As0
 BYTE   N92  As1
 BYTE   W96
//  #08 //022   ----------------------------------------
 BYTE   An0
 BYTE   N92  An1
 BYTE   W96
//  #08 //023   ----------------------------------------
 BYTE   Gs0
 BYTE   N92  Gs1
 BYTE   W96
//  #08 //024   ----------------------------------------
 BYTE   Fs0
 BYTE   N92  Fs1
 BYTE   W96
//  #08 //025   ----------------------------------------
 BYTE   Cs1
 BYTE   N92  Cs2
 BYTE   W96
//  #08 //026   ----------------------------------------
 BYTE   Dn1
 BYTE   N92  Dn2
 BYTE   W96
//  #08 //027   ----------------------------------------
 BYTE   Gn0
 BYTE   N92  Gn1
 BYTE   W96
//  #08 //028   ----------------------------------------
 BYTE   W96
//  #08 //029   ----------------------------------------
 BYTE   W96
//  #08 //030   ----------------------------------------
 BYTE   W96
//  #08 //031   ----------------------------------------
 BYTE   W96
//  #08 //032   ----------------------------------------
 BYTE   W96
//  #08 //033   ----------------------------------------
 BYTE   W96
//  #08 //034   ----------------------------------------
 BYTE   W96
//  #08 //035   ----------------------------------------
 BYTE   W96
//  #08 //036   ----------------------------------------
 BYTE   W96
//  #08 //037   ----------------------------------------
 BYTE   W96
//  #08 //038   ----------------------------------------
 BYTE   W96
//  #08 //039   ----------------------------------------
 BYTE   W96
//  #08 //040   ----------------------------------------
 BYTE   W96
//  #08 //041   ----------------------------------------
 BYTE   W96
//  #08 //042   ----------------------------------------
 BYTE   W96
//  #08 //043   ----------------------------------------
 BYTE   W96
//  #08 //044   ----------------------------------------
 BYTE   W96
//  #08 //045   ----------------------------------------
 BYTE   W96
//  #08 //046   ----------------------------------------
 BYTE   W96
//  #08 //047   ----------------------------------------
 BYTE   W96
//  #08 //048   ----------------------------------------
 BYTE   W96
//  #08 //049   ----------------------------------------
 BYTE   W96
//  #08 //050   ----------------------------------------
 BYTE   W96
//  #08 //051   ----------------------------------------
 BYTE   W96
//  #08 //052   ----------------------------------------
 BYTE   W96
//  #08 //053   ----------------------------------------
 BYTE   W96
//  #08 //054   ----------------------------------------
 BYTE   W96
//  #08 //055   ----------------------------------------
 BYTE   W96
//  #08 //056   ----------------------------------------
 BYTE   W96
//  #08 //057   ----------------------------------------
 BYTE   W96
//  #08 //058   ----------------------------------------
 BYTE   W96
//  #08 //059   ----------------------------------------
 BYTE   W96
//  #08 //060   ----------------------------------------
 BYTE   W96
//  #08 //061   ----------------------------------------
 BYTE   W96
//  #08 //062   ----------------------------------------
 BYTE   W96
//  #08 //063   ----------------------------------------
 BYTE   W96
//  #08 //064   ----------------------------------------
 BYTE   GoTo
  POIN2 Label_D15049
 BYTE   FINE

//**************** Track 9 (Midi-Chn.8) ****************//

LuckyBreak_009:
//  #09 //000   ----------------------------------------
 BYTE   KEYSH   LuckyBreak_key+0
 BYTE   VOICE   18
 BYTE   VOL   37*LuckyBreak_mvl/mxv
 BYTE   PAN   c_v+0
 BYTE   VOL   37*LuckyBreak_mvl/mxv
 BYTE   PAN   c_v+0
 BYTE   VOL   37*LuckyBreak_mvl/mxv
 BYTE   PAN   c_v+0
 BYTE   W18
Label_D13D19:
 BYTE   W78
//  #09 //001   ----------------------------------------
 BYTE   W96
//  #09 //002   ----------------------------------------
 BYTE   W96
//  #09 //003   ----------------------------------------
 BYTE   W96
//  #09 //004   ----------------------------------------
 BYTE   W96
//  #09 //005   ----------------------------------------
 BYTE   W96
//  #09 //006   ----------------------------------------
 BYTE   W96
//  #09 //007   ----------------------------------------
 BYTE   W96
//  #09 //008   ----------------------------------------
 BYTE   W96
//  #09 //009   ----------------------------------------
 BYTE   W96
//  #09 //010   ----------------------------------------
 BYTE   W96
//  #09 //011   ----------------------------------------
 BYTE   W96
//  #09 //012   ----------------------------------------
 BYTE   W96
//  #09 //013   ----------------------------------------
 BYTE   W96
//  #09 //014   ----------------------------------------
 BYTE   W96
//  #09 //015   ----------------------------------------
 BYTE   W96
//  #09 //016   ----------------------------------------
 BYTE   W96
//  #09 //017   ----------------------------------------
 BYTE   W96
//  #09 //018   ----------------------------------------
 BYTE   W96
//  #09 //019   ----------------------------------------
 BYTE   W96
//  #09 //020   ----------------------------------------
 BYTE   N92  Cn2  v052
 BYTE   N92  Cn3
 BYTE   W96
//  #09 //021   ----------------------------------------
 BYTE   As1
 BYTE   N92  As2
 BYTE   W96
//  #09 //022   ----------------------------------------
 BYTE   An1
 BYTE   N92  An2
 BYTE   W96
//  #09 //023   ----------------------------------------
 BYTE   Gs1
 BYTE   N92  Gs2
 BYTE   W96
//  #09 //024   ----------------------------------------
 BYTE   Fs1
 BYTE   N92  Fs2
 BYTE   W96
//  #09 //025   ----------------------------------------
 BYTE   Cs2
 BYTE   N92  Cs3
 BYTE   W96
//  #09 //026   ----------------------------------------
 BYTE   Dn2
 BYTE   N92  Dn3
 BYTE   W96
//  #09 //027   ----------------------------------------
 BYTE   Gn1
 BYTE   N92  Gn2
 BYTE   W96
//  #09 //028   ----------------------------------------
 BYTE   W96
//  #09 //029   ----------------------------------------
 BYTE   W96
//  #09 //030   ----------------------------------------
 BYTE   W96
//  #09 //031   ----------------------------------------
 BYTE   W96
//  #09 //032   ----------------------------------------
 BYTE   W96
//  #09 //033   ----------------------------------------
 BYTE   W96
//  #09 //034   ----------------------------------------
 BYTE   W96
//  #09 //035   ----------------------------------------
 BYTE   W96
//  #09 //036   ----------------------------------------
 BYTE   W96
//  #09 //037   ----------------------------------------
 BYTE   W96
//  #09 //038   ----------------------------------------
 BYTE   W96
//  #09 //039   ----------------------------------------
 BYTE   W96
//  #09 //040   ----------------------------------------
 BYTE   W96
//  #09 //041   ----------------------------------------
 BYTE   W96
//  #09 //042   ----------------------------------------
 BYTE   W96
//  #09 //043   ----------------------------------------
 BYTE   W96
//  #09 //044   ----------------------------------------
 BYTE   W96
//  #09 //045   ----------------------------------------
 BYTE   W96
//  #09 //046   ----------------------------------------
 BYTE   W96
//  #09 //047   ----------------------------------------
 BYTE   W96
//  #09 //048   ----------------------------------------
 BYTE   W96
//  #09 //049   ----------------------------------------
 BYTE   W96
//  #09 //050   ----------------------------------------
 BYTE   W96
//  #09 //051   ----------------------------------------
 BYTE   W96
//  #09 //052   ----------------------------------------
 BYTE   W96
//  #09 //053   ----------------------------------------
 BYTE   Cn2  v080
 BYTE   N92  Cn3
 BYTE   W96
//  #09 //054   ----------------------------------------
 BYTE   As1
 BYTE   N92  As2
 BYTE   W96
//  #09 //055   ----------------------------------------
 BYTE   An1
 BYTE   N92  An2
 BYTE   W96
//  #09 //056   ----------------------------------------
 BYTE   Gs1
 BYTE   N92  Gs2
 BYTE   W96
//  #09 //057   ----------------------------------------
 BYTE   Fs1
 BYTE   N92  Fs2
 BYTE   W96
//  #09 //058   ----------------------------------------
 BYTE   Cs2
 BYTE   N92  Cs3
 BYTE   W96
//  #09 //059   ----------------------------------------
 BYTE   Dn2
 BYTE   W96
//  #09 //060   ----------------------------------------
 BYTE   Gn1
 BYTE   N92  Gn2
 BYTE   W96
//  #09 //061   ----------------------------------------
 BYTE   W12
 BYTE   TIE  Ds3  v036
 BYTE   TIE  Gn3
 BYTE   TIE  Bn3  v064
 BYTE   TIE  Cn4  v036
 BYTE   W12
 BYTE   W72
//  #09 //062   ----------------------------------------
 BYTE   W96
//  #09 //063   ----------------------------------------
 BYTE   W92
 BYTE   W03
 BYTE   EOT
 BYTE   Ds3  v067
 BYTE   Bn3  v072
 BYTE   W01
//  #09 //064   ----------------------------------------
 BYTE   GoTo
  POIN2 Label_D13D19
 BYTE   FINE

//**************** Track 10 (Midi-Chn.9) ****************//

LuckyBreak_010:
//  #10 //000   ----------------------------------------
 BYTE   KEYSH   LuckyBreak_key+0
 BYTE   VOICE   48
 BYTE   VOL   37*LuckyBreak_mvl/mxv
 BYTE   PAN   c_v+0
 BYTE   VOL   37*LuckyBreak_mvl/mxv
 BYTE   PAN   c_v+0
 BYTE   W18
Label_01000499:
 BYTE   W78
//  #10 //001   ----------------------------------------
 BYTE   W96
//  #10 //002   ----------------------------------------
 BYTE   W96
//  #10 //003   ----------------------------------------
 BYTE   W96
//  #10 //004   ----------------------------------------
 BYTE   W96
//  #10 //005   ----------------------------------------
 BYTE   W96
//  #10 //006   ----------------------------------------
 BYTE   W96
//  #10 //007   ----------------------------------------
 BYTE   W96
//  #10 //008   ----------------------------------------
 BYTE   W96
//  #10 //009   ----------------------------------------
 BYTE   W96
//  #10 //010   ----------------------------------------
 BYTE   W96
//  #10 //011   ----------------------------------------
 BYTE   W96
//  #10 //012   ----------------------------------------
 BYTE   W96
//  #10 //013   ----------------------------------------
 BYTE   W96
//  #10 //014   ----------------------------------------
 BYTE   W96
//  #10 //015   ----------------------------------------
 BYTE   W96
//  #10 //016   ----------------------------------------
 BYTE   W96
//  #10 //017   ----------------------------------------
 BYTE   W96
//  #10 //018   ----------------------------------------
 BYTE   W96
//  #10 //019   ----------------------------------------
 BYTE   W96
//  #10 //020   ----------------------------------------
 BYTE   N11  Bn3  v052
 BYTE   W12
 BYTE   Gn3
 BYTE   W12
 BYTE   Cn4
 BYTE   W12
 BYTE   Gn3
 BYTE   W12
 BYTE   Cn4
 BYTE   W12
 BYTE   Gn3
 BYTE   W12
 BYTE   Dn4
 BYTE   W12
 BYTE   Gn3
 BYTE   W12
//  #10 //021   ----------------------------------------
 BYTE   Dn4
 BYTE   W12
 BYTE   As3
 BYTE   W12
 BYTE   Ds4
 BYTE   W12
 BYTE   Cn4
 BYTE   W12
 BYTE   Ds4
 BYTE   W12
 BYTE   Cn4
 BYTE   W12
 BYTE   Ds4
 BYTE   W12
 BYTE   Cn4
 BYTE   W12
//  #10 //022   ----------------------------------------
 BYTE   Ds4
 BYTE   W12
 BYTE   Cn4
 BYTE   W12
 BYTE   Ds4
 BYTE   W12
 BYTE   Cn4
 BYTE   W12
 BYTE   Ds4
 BYTE   W12
 BYTE   Cn4
 BYTE   W12
 BYTE   Ds4
 BYTE   W12
 BYTE   Cn4
 BYTE   W12
//  #10 //023   ----------------------------------------
 BYTE   Fn4
 BYTE   W12
 BYTE   Dn4
 BYTE   W12
 BYTE   Fn4
 BYTE   W12
 BYTE   Dn4
 BYTE   W12
 BYTE   Fn4
 BYTE   W12
 BYTE   Dn4
 BYTE   W12
 BYTE   Fn4
 BYTE   W12
 BYTE   Dn4
 BYTE   W12
//  #10 //024   ----------------------------------------
 BYTE   Ds4
 BYTE   W12
 BYTE   Gs3
 BYTE   W12
 BYTE   Ds4
 BYTE   W12
 BYTE   Gs3
 BYTE   W12
 BYTE   Ds4
 BYTE   W12
 BYTE   Gs3
 BYTE   W12
 BYTE   Ds4
 BYTE   W12
 BYTE   Gs3
 BYTE   W12
//  #10 //025   ----------------------------------------
 BYTE   Fn4
 BYTE   W12
 BYTE   Cs4
 BYTE   W12
 BYTE   Fn4
 BYTE   W12
 BYTE   Cs4
 BYTE   W12
 BYTE   Fn4
 BYTE   W12
 BYTE   Cs4
 BYTE   W12
 BYTE   Fn4
 BYTE   W12
 BYTE   Cs4
 BYTE   W12
//  #10 //026   ----------------------------------------
 BYTE   Fn4
 BYTE   W12
 BYTE   Cn4
 BYTE   W12
 BYTE   Fn4
 BYTE   W12
 BYTE   Cn4
 BYTE   W12
 BYTE   Ds4
 BYTE   W12
 BYTE   Cn4
 BYTE   W12
 BYTE   Ds4
 BYTE   W12
 BYTE   Cn4
 BYTE   W12
//  #10 //027   ----------------------------------------
 BYTE   Dn4
 BYTE   W12
 BYTE   Cn4
 BYTE   W12
 BYTE   Dn4
 BYTE   W12
 BYTE   Cn4
 BYTE   W12
 BYTE   Bn3
 BYTE   W12
 BYTE   Gn3
 BYTE   W12
 BYTE   Bn3
 BYTE   W12
 BYTE   Gn3
 BYTE   W12
//  #10 //028   ----------------------------------------
 BYTE   W96
//  #10 //029   ----------------------------------------
 BYTE   W96
//  #10 //030   ----------------------------------------
 BYTE   W96
//  #10 //031   ----------------------------------------
 BYTE   W96
//  #10 //032   ----------------------------------------
 BYTE   W96
//  #10 //033   ----------------------------------------
 BYTE   W96
//  #10 //034   ----------------------------------------
 BYTE   W96
//  #10 //035   ----------------------------------------
 BYTE   W96
//  #10 //036   ----------------------------------------
 BYTE   W96
//  #10 //037   ----------------------------------------
 BYTE   W96
//  #10 //038   ----------------------------------------
 BYTE   W96
//  #10 //039   ----------------------------------------
 BYTE   W96
//  #10 //040   ----------------------------------------
 BYTE   W96
//  #10 //041   ----------------------------------------
 BYTE   W96
//  #10 //042   ----------------------------------------
 BYTE   W96
//  #10 //043   ----------------------------------------
 BYTE   W96
//  #10 //044   ----------------------------------------
 BYTE   W96
//  #10 //045   ----------------------------------------
 BYTE   W96
//  #10 //046   ----------------------------------------
 BYTE   W96
//  #10 //047   ----------------------------------------
 BYTE   W96
//  #10 //048   ----------------------------------------
 BYTE   W96
//  #10 //049   ----------------------------------------
 BYTE   W96
//  #10 //050   ----------------------------------------
 BYTE   W96
//  #10 //051   ----------------------------------------
 BYTE   W96
//  #10 //052   ----------------------------------------
 BYTE   W96
//  #10 //053   ----------------------------------------
 BYTE   W96
//  #10 //054   ----------------------------------------
 BYTE   W96
//  #10 //055   ----------------------------------------
 BYTE   W96
//  #10 //056   ----------------------------------------
 BYTE   W96
//  #10 //057   ----------------------------------------
 BYTE   W96
//  #10 //058   ----------------------------------------
 BYTE   W96
//  #10 //059   ----------------------------------------
 BYTE   W96
//  #10 //060   ----------------------------------------
 BYTE   W96
//  #10 //061   ----------------------------------------
 BYTE   W96
//  #10 //062   ----------------------------------------
 BYTE   W96
//  #10 //063   ----------------------------------------
 BYTE   W96
//  #10 //064   ----------------------------------------
 BYTE   GoTo
  POIN2 Label_01000499
 BYTE   FINE

//**************** Track 11 (Midi-Chn.10) ****************//

LuckyBreak_011:
//  #11 //000   ----------------------------------------
 BYTE   KEYSH   LuckyBreak_key+0
 BYTE   VOICE   124
 BYTE   VOL   37*LuckyBreak_mvl/mxv
 BYTE   PAN   c_v+0
 BYTE   VOL   37*LuckyBreak_mvl/mxv
 BYTE   PAN   c_v+0
 BYTE   VOL   37*LuckyBreak_mvl/mxv
 BYTE   PAN   c_v+0
 BYTE   N42  Cn1  v080
 BYTE   N12  Fs1
 BYTE   W12
 BYTE   N24
 BYTE   W06
Label_01000574:
 BYTE   W06
 BYTE   N48  Cs1  v080
 BYTE   W12
 BYTE   N12  Fs1
 BYTE   W06
 BYTE   N06  Cn1
 BYTE   W06
 BYTE   N48
 BYTE   N12  Fs1
 BYTE   W12
 BYTE   N24
 BYTE   W12
 BYTE   N48  Cs1
 BYTE   W12
 BYTE   N12  Fs1
 BYTE   W12
//  #11 //001   ----------------------------------------
 BYTE   N42  Cn1
 BYTE   N12  Fs1
 BYTE   W12
 BYTE   N24
 BYTE   W12
 BYTE   N48  Cs1
 BYTE   W12
 BYTE   N12  Fs1
 BYTE   W06
 BYTE   N06  Cn1
 BYTE   W06
 BYTE   N12
 BYTE   N12  Fs1
 BYTE   W12
 BYTE   N36  Cn1
 BYTE   N36  Fs1
 BYTE   W12
 BYTE   N48  Cs1
 BYTE   W12
 BYTE   TIE  As1
 BYTE   W12
//  #11 //002   ----------------------------------------
Label_010005AA:
 BYTE   N42  Cn1  v080
 BYTE   N12  Fs1
 BYTE   W12
 BYTE   N24
 BYTE   W12
 BYTE   N48  Cs1
 BYTE   W12
 BYTE   N12  Fs1
 BYTE   W06
 BYTE   N06  Cn1
 BYTE   W06
 BYTE   N48
 BYTE   N12  Fs1
 BYTE   W12
 BYTE   N24
 BYTE   W12
 BYTE   N48  Cs1
 BYTE   W12
 BYTE   N12  Fs1
 BYTE   W12
 BYTE   PEND 
//  #11 //003   ----------------------------------------
 BYTE   N42  Cn1
 BYTE   N12  Fs1
 BYTE   W12
 BYTE   N24
 BYTE   W12
 BYTE   N96  Cs1
 BYTE   W12
 BYTE   N12  Fs1
 BYTE   W06
 BYTE   N06  Cn1
 BYTE   W06
 BYTE   N12
 BYTE   N12  Fs1
 BYTE   W12
 BYTE   N36  Cn1
 BYTE   N48  Fs1
 BYTE   W12
 BYTE   TIE  Cn2  v096
 BYTE   W08
 BYTE   Bn1
 BYTE   W08
 BYTE   An1
 BYTE   W08
//  #11 //004   ----------------------------------------
 BYTE   N42  Cn1
 BYTE   TIE  An2
 BYTE   W12
 BYTE   N24  Fs1  v088
 BYTE   W12
 BYTE   N48  Cs1  v080
 BYTE   W12
 BYTE   N12  Fs1
 BYTE   W06
 BYTE   N06  Cn1
 BYTE   W06
 BYTE   N48
 BYTE   N12  Fs1
 BYTE   W12
 BYTE   N24
 BYTE   W12
 BYTE   N48  Cs1
 BYTE   W12
 BYTE   N12  Fs1
 BYTE   W12
//  #11 //005   ----------------------------------------
 BYTE   N42  Cn1
 BYTE   N12  Fs1
 BYTE   W12
 BYTE   N24
 BYTE   W12
 BYTE   N48  Cs1
 BYTE   W12
 BYTE   N12  Fs1
 BYTE   W06
 BYTE   N06  Cn1
 BYTE   W06
 BYTE   N12
 BYTE   N12  Fs1
 BYTE   W12
 BYTE   N36  Cn1
 BYTE   N36  Fs1
 BYTE   W12
 BYTE   N48  Cs1
 BYTE   W12
 BYTE   TIE  Fn1  v096
 BYTE   W12
//  #11 //006   ----------------------------------------
 BYTE   PATT
  POIN2 Label_010005AA
//  #11 //007   ----------------------------------------
 BYTE   N42  Cn1  v080
 BYTE   N12  Fs1
 BYTE   W12
 BYTE   N24
 BYTE   W12
 BYTE   N48  Cs1
 BYTE   W12
 BYTE   N12  Fs1
 BYTE   W06
 BYTE   N06  Cn1
 BYTE   W06
 BYTE   N12
 BYTE   N12  Fs1
 BYTE   W12
 BYTE   N36  Cn1
 BYTE   N36  Fs1
 BYTE   W12
 BYTE   N48  Cs1
 BYTE   W12
 BYTE   EOT
 BYTE   An1
 BYTE   TIE  An1  v096
 BYTE   W12
//  #11 //008   ----------------------------------------
 BYTE   N42  Cn1  v080
 BYTE   N12  Fs1
 BYTE   W12
 BYTE   N24
 BYTE   W12
 BYTE   N48  Cs1
 BYTE   W12
 BYTE   N12  Fs1
 BYTE   W06
 BYTE   N06  Cn1
 BYTE   W06
 BYTE   N12
 BYTE   N12  Fs1
 BYTE   W12
 BYTE   N36  Cn1
 BYTE   N36  Fs1
 BYTE   W12
 BYTE   N48  Cs1
 BYTE   W12
 BYTE   TIE  Gn1  v096
 BYTE   W12
//  #11 //009   ----------------------------------------
 BYTE   N18  Cn1  v080
 BYTE   N12  Fs1
 BYTE   W12
 BYTE   N24
 BYTE   W06
 BYTE   Cn1
 BYTE   W06
 BYTE   N48  Cs1
 BYTE   W12
 BYTE   N12  Fs1
 BYTE   W06
 BYTE   N06  Cn1
 BYTE   W06
 BYTE   N12
 BYTE   N12  Fs1
 BYTE   W12
 BYTE   N36  Cn1
 BYTE   N36  Fs1
 BYTE   W12
 BYTE   N48  Cs1
 BYTE   W12
 BYTE   EOT
 BYTE   An1
 BYTE   TIE  An1  v096
 BYTE   W12
//  #11 //010   ----------------------------------------
 BYTE   N36  Cn1  v080
 BYTE   N12  Fs1
 BYTE   W12
 BYTE   N24
 BYTE   W12
 BYTE   N48  Cs1
 BYTE   W12
 BYTE   N24  Cn1
 BYTE   N12  Fs1
 BYTE   W12
 BYTE   N12
 BYTE   W12
 BYTE   N18  Cn1
 BYTE   N24  Fs1
 BYTE   W18
 BYTE   N18  Cn1
 BYTE   W06
 BYTE   TIE  Fs1
 BYTE   W12
//  #11 //011   ----------------------------------------
 BYTE   N18  Cn1
 BYTE   W06
 BYTE   EOT
 BYTE   As1
 BYTE   N06  Dn1  v084
 BYTE   N06  As1
 BYTE   W06
 BYTE   N12  Dn1
 BYTE   N12  As1
 BYTE   W06
 BYTE   N18  Cn1  v088
 BYTE   W06
 BYTE   N06  Dn1
 BYTE   N06  As1
 BYTE   W06
 BYTE   N12  Dn1  v092
 BYTE   N12  As1
 BYTE   W06
 BYTE   Cn1
 BYTE   W06
 BYTE   N06  Dn1  v096
 BYTE   TIE  As1
 BYTE   W06
 BYTE   N08  Cn1
 BYTE   N08  Dn1
 BYTE   N08  Gn2
 BYTE   W08
 BYTE   Cn1
 BYTE   N08  Dn1
 BYTE   N08  Gn2
 BYTE   W08
 BYTE   Cn1
 BYTE   N08  Dn1
 BYTE   TIE  Gn2
 BYTE   W08
 BYTE   N08  Cn1
 BYTE   N08  Dn1
 BYTE   N96  Dn2
 BYTE   W08
 BYTE   EOT
 BYTE   Bn1
 BYTE   N08  Cn1
 BYTE   N08  Dn1
 BYTE   N96  Bn1
 BYTE   W08
 BYTE   EOT
 BYTE   An1
 BYTE   N08  Cn1
 BYTE   N04  Dn1
 BYTE   N96  An1
 BYTE   W04
 BYTE   N28  Dn1
 BYTE   W04
//  #11 //012   ----------------------------------------
 BYTE   EOT
 BYTE   An2
 BYTE   N18  Cn1
 BYTE   TIE  An2
 BYTE   W12
 BYTE   N24  Bn2
 BYTE   W06
 BYTE   N18  Cn1
 BYTE   W06
 BYTE   N96  Dn1
 BYTE   W12
 BYTE   N12  Cn1
 BYTE   N12  Bn2
 BYTE   W12
 BYTE   N08  Cn1
 BYTE   N12  Bn2
 BYTE   W08
 BYTE   N08  Cn1
 BYTE   W04
 BYTE   N36  Bn2
 BYTE   W04
 BYTE   N32  Cn1
 BYTE   W08
 BYTE   TIE  Dn2  v112
 BYTE   N96  Bn4  v080
 BYTE   W08
 BYTE   TIE  Bn1  v112
 BYTE   W08
 BYTE   An1
 BYTE   W08
//  #11 //013   ----------------------------------------
 BYTE   N18  Cn1  v096
 BYTE   N12  Bn2
 BYTE   W12
 BYTE   N24
 BYTE   W06
 BYTE   N18  Cn1
 BYTE   W06
 BYTE   N48  Dn1
 BYTE   W12
 BYTE   N12  Cn1
 BYTE   N12  Bn2
 BYTE   W12
 BYTE   Cn1
 BYTE   N12  Bn2
 BYTE   W12
 BYTE   N20  Cn1
 BYTE   N24  Bn2
 BYTE   W12
 BYTE   N48  Dn1
 BYTE   N96  Bn4  v080
 BYTE   W08
 BYTE   N08  Cn1  v096
 BYTE   W04
 BYTE   N12  Bn2
 BYTE   W04
 BYTE   N08  Cn1
 BYTE   W08
//  #11 //014   ----------------------------------------
 BYTE   N18
 BYTE   N12  Bn2
 BYTE   W12
 BYTE   N24
 BYTE   W06
 BYTE   N18  Cn1
 BYTE   W06
 BYTE   N96  Dn1
 BYTE   W12
 BYTE   N06  Cn1
 BYTE   N12  Bn2
 BYTE   W06
 BYTE   N06  Cn1
 BYTE   W06
 BYTE   N08
 BYTE   N12  Bn2
 BYTE   W08
 BYTE   N08  Cn1
 BYTE   W04
 BYTE   N36  Bn2
 BYTE   W04
 BYTE   N32  Cn1
 BYTE   W08
 BYTE   EOT
 BYTE   Dn2
 BYTE   TIE  Dn2  v112
 BYTE   N96  Bn4  v080
 BYTE   W08
 BYTE   EOT
 BYTE   Bn1
 BYTE   TIE  Bn1  v112
 BYTE   W08
 BYTE   EOT
 BYTE   An1
 BYTE   N92
 BYTE   W08
//  #11 //015   ----------------------------------------
 BYTE   N18  Cn1  v096
 BYTE   N12  Bn2
 BYTE   W12
 BYTE   N24
 BYTE   W06
 BYTE   N18  Cn1
 BYTE   W06
 BYTE   N48  Dn1
 BYTE   W12
 BYTE   N12  Cn1
 BYTE   N12  Bn2
 BYTE   W12
 BYTE   N06  Cn1
 BYTE   N12  Bn2
 BYTE   W06
 BYTE   N06  Cn1
 BYTE   W06
 BYTE   N36
 BYTE   N24  Bn2
 BYTE   W12
 BYTE   N48  Dn1
 BYTE   N96  Bn4  v080
 BYTE   W12
 BYTE   N52  An1  v096
 BYTE   N12  Bn2
 BYTE   W12
//  #11 //016   ----------------------------------------
 BYTE   N08  Cn1
 BYTE   N08  Bn2
 BYTE   N08  Gs4
 BYTE   W08
 BYTE   Cn1
 BYTE   N08  Bn2
 BYTE   N08  Gs4
 BYTE   W08
 BYTE   N32  Cn1
 BYTE   N32  Bn2
 BYTE   N80  Gs4
 BYTE   W08
 BYTE   EOT
 BYTE   Dn2
 BYTE   N48  Dn1  v112
 BYTE   N96  Dn2
 BYTE   W08
 BYTE   EOT
 BYTE   Bn1
 BYTE   N96
 BYTE   W08
 BYTE   An1
 BYTE   W08
 BYTE   N12  Cn1  v096
 BYTE   N12  Bn2
 BYTE   W12
 BYTE   N24  Cn1
 BYTE   N24  Bn2
 BYTE   W12
 BYTE   N48  Dn1
 BYTE   N96  Bn4  v080
 BYTE   W12
 BYTE   N12  Cn1  v096
 BYTE   N12  Bn2
 BYTE   W12
//  #11 //017   ----------------------------------------
 BYTE   N08  Cn1
 BYTE   N08  Bn2
 BYTE   N08  Gs4
 BYTE   W08
 BYTE   Cn1
 BYTE   N08  Bn2
 BYTE   N08  Gs4
 BYTE   W08
 BYTE   N32  Cn1
 BYTE   N32  Bn2
 BYTE   W08
 BYTE   N48  Dn1  v112
 BYTE   TIE  Dn2
 BYTE   W08
 BYTE   Bn1
 BYTE   W08
 BYTE   An1
 BYTE   W08
 BYTE   N12  Cn1  v096
 BYTE   N12  Bn2
 BYTE   W12
 BYTE   N24  Cn1
 BYTE   N24  Bn2
 BYTE   W12
 BYTE   N48  Dn1
 BYTE   N96  Bn4  v080
 BYTE   W12
 BYTE   N12  Cn1  v096
 BYTE   N12  Bn2
 BYTE   W12
//  #11 //018   ----------------------------------------
 BYTE   Cn1
 BYTE   N12  Bn2
 BYTE   W12
 BYTE   N24  Cn1  v100
 BYTE   N24  Bn2
 BYTE   W12
 BYTE   N48  Dn1
 BYTE   W12
 BYTE   N12  Cn1
 BYTE   N12  Bn2
 BYTE   W12
 BYTE   Cn1
 BYTE   N12  Bn2
 BYTE   W12
 BYTE   N24  Cn1  v104
 BYTE   N24  Bn2
 BYTE   W12
 BYTE   N48  Dn1
 BYTE   N96  Bn4  v080
 BYTE   W12
 BYTE   N12  Cn1  v104
 BYTE   N12  Bn2
 BYTE   W12
//  #11 //019   ----------------------------------------
 BYTE   Cn1  v108
 BYTE   N12  Bn2
 BYTE   W12
 BYTE   N24  Cn1
 BYTE   N24  Bn2
 BYTE   W12
 BYTE   N48  Dn1
 BYTE   W12
 BYTE   N12  Cn1
 BYTE   TIE  Bn2
 BYTE   W12
 BYTE   EOT
 BYTE   Gn2
 BYTE   N08  Cn1  v112
 BYTE   N08  Gn2
 BYTE   W08
 BYTE   Cn1
 BYTE   N08  Gn2
 BYTE   W08
 BYTE   Cn1
 BYTE   TIE  Gn2
 BYTE   W08
 BYTE   EOT
 BYTE   Dn2
 BYTE   N08  Cn1
 BYTE   N16  Dn1
 BYTE   TIE  Dn2
 BYTE   TIE  Bn4  v064
 BYTE   W08
 BYTE   EOT
 BYTE   Bn1
 BYTE   N08  Cn1  v112
 BYTE   TIE  Bn1
 BYTE   W08
 BYTE   Cn1
 BYTE   N04  Dn1
 BYTE   W04
 BYTE   TIE
 BYTE   W04
//  #11 //020   ----------------------------------------
 BYTE   EOT
 BYTE   An2
 BYTE   TIE  An2  v096
 BYTE   W96
//  #11 //021   ----------------------------------------
 BYTE   W96
//  #11 //022   ----------------------------------------
 BYTE   W96
//  #11 //023   ----------------------------------------
 BYTE   W96
//  #11 //024   ----------------------------------------
 BYTE   W96
//  #11 //025   ----------------------------------------
 BYTE   W96
//  #11 //026   ----------------------------------------
 BYTE   EOT
 BYTE   Cn1  v059
 BYTE   N24  Cn1
 BYTE   N24  Bn2
 BYTE   W24
 BYTE   Cn1
 BYTE   N24  Bn2
 BYTE   W24
 BYTE   N12  Cn1
 BYTE   N12  Bn2
 BYTE   W12
 BYTE   N18  Cn1
 BYTE   N18  Bn2
 BYTE   W18
 BYTE   Cn1
 BYTE   N18  Bn2
 BYTE   W18
//  #11 //027   ----------------------------------------
 BYTE   N12  Cn1
 BYTE   N12  Bn2
 BYTE   W12
 BYTE   Cn1
 BYTE   N12  Bn2
 BYTE   W12
 BYTE   Cn1
 BYTE   N12  Bn2
 BYTE   W12
 BYTE   N60  Cn1
 BYTE   W12
 BYTE   EOT
 BYTE   An1  v048
 BYTE   An2
 BYTE   N12  An1
 BYTE   TIE  Cn2  v127
 BYTE   N48  An2  v096
 BYTE   W06
 BYTE   EOT
 BYTE   Fn1
 BYTE   N12
 BYTE   W06
 BYTE   An1  v100
 BYTE   W06
 BYTE   Fn1  v104
 BYTE   W06
 BYTE   TIE  An1  v108
 BYTE   W06
 BYTE   N06  Fn1
 BYTE   W06
 BYTE   Fn1  v100
 BYTE   W03
 BYTE   EOT
 BYTE   Dn1
 BYTE   N06  Dn1  v112
 BYTE   W03
 BYTE   TIE  Fn1  v100
 BYTE   W03
 BYTE   N24  Dn1  v112
 BYTE   W03
//  #11 //028   ----------------------------------------
 BYTE   N18  Cn1  v096
 BYTE   TIE  An2
 BYTE   W06
 BYTE   EOT
 BYTE   Fs1
 BYTE   N06
 BYTE   W06
 BYTE   N06
 BYTE   W06
 BYTE   N24  Cn1
 BYTE   N06  Fs1
 BYTE   W06
 BYTE   N48  Dn1
 BYTE   N06  Fs1
 BYTE   W06
 BYTE   N06
 BYTE   W06
 BYTE   N06
 BYTE   W06
 BYTE   Cn1
 BYTE   N12  Fs1
 BYTE   W06
 BYTE   EOT
 BYTE   As1
 BYTE   N12  Cn1
 BYTE   N48  As1
 BYTE   W06
 BYTE   N06  Fs1
 BYTE   W06
 BYTE   N36  Cn1
 BYTE   N06  Fs1
 BYTE   W06
 BYTE   N06
 BYTE   W06
 BYTE   N48  Dn1
 BYTE   N06  Fs1
 BYTE   W06
 BYTE   N06
 BYTE   W06
 BYTE   N06
 BYTE   W06
 BYTE   N12
 BYTE   W06
//  #11 //029   ----------------------------------------
Label_01000932:
 BYTE   N18  Cn1  v096
 BYTE   N48  As1
 BYTE   W06
 BYTE   N06  Fs1
 BYTE   W06
 BYTE   N06
 BYTE   W06
 BYTE   N18  Cn1
 BYTE   N06  Fs1
 BYTE   W06
 BYTE   N48  Dn1
 BYTE   N06  Fs1
 BYTE   W06
 BYTE   N06
 BYTE   W06
 BYTE   Cn1
 BYTE   N06  Fs1
 BYTE   W06
 BYTE   Cn1
 BYTE   N12  Fs1
 BYTE   W06
 BYTE   N06  Cn1
 BYTE   N48  As1
 BYTE   W06
 BYTE   N06  Cn1
 BYTE   N06  Fs1
 BYTE   W06
 BYTE   Cn1
 BYTE   N06  Fs1
 BYTE   W06
 BYTE   N30  Cn1
 BYTE   N06  Fs1
 BYTE   W06
 BYTE   PEND 
 BYTE   EOT
 BYTE   Cn2
 BYTE   N48  Dn1
 BYTE   N06  Fs1
 BYTE   TIE  Cn2  v080
 BYTE   W06
 BYTE   EOT
 BYTE   An1
 BYTE   N06  Fs1  v096
 BYTE   TIE  An1  v072
 BYTE   W06
 BYTE   EOT
 BYTE   Gn1
 BYTE   N06  Fs1  v096
 BYTE   TIE  Gn1  v064
 BYTE   W06
 BYTE   EOT
 BYTE   Fn1
 BYTE   TIE
 BYTE   N12  Fs1  v096
 BYTE   W06
//  #11 //030   ----------------------------------------
Label_01000988:
 BYTE   N18  Cn1  v096
 BYTE   N48  As1
 BYTE   W06
 BYTE   N06  Fs1
 BYTE   W06
 BYTE   N06
 BYTE   W06
 BYTE   N24  Cn1
 BYTE   N06  Fs1
 BYTE   W06
 BYTE   N48  Dn1
 BYTE   N06  Fs1
 BYTE   W06
 BYTE   N06
 BYTE   W06
 BYTE   N06
 BYTE   W06
 BYTE   Cn1
 BYTE   N12  Fs1
 BYTE   W06
 BYTE   Cn1
 BYTE   N48  As1
 BYTE   W06
 BYTE   N06  Fs1
 BYTE   W06
 BYTE   N36  Cn1
 BYTE   N06  Fs1
 BYTE   W06
 BYTE   N06
 BYTE   W06
 BYTE   N48  Dn1
 BYTE   N06  Fs1
 BYTE   W06
 BYTE   N06
 BYTE   W06
 BYTE   N06
 BYTE   W06
 BYTE   N12
 BYTE   W06
 BYTE   PEND 
//  #11 //031   ----------------------------------------
 BYTE   PATT
  POIN2 Label_01000932
//  #11 //032   ----------------------------------------
 BYTE   EOT
 BYTE   Cn2
 BYTE   N48  Dn1  v096
 BYTE   N06  Fs1
 BYTE   TIE  Cn2  v080
 BYTE   W06
 BYTE   EOT
 BYTE   An1
 BYTE   N06  Fs1  v096
 BYTE   TIE  An1  v072
 BYTE   W06
 BYTE   EOT
 BYTE   Gn1
 BYTE   N06  Fs1  v096
 BYTE   TIE  Gn1  v064
 BYTE   W06
 BYTE   EOT
 BYTE   Fn1
 BYTE   TIE
 BYTE   N12  Fs1  v096
 BYTE   W06
//  #11 //033   ----------------------------------------
 BYTE   PATT
  POIN2 Label_01000988
//  #11 //034   ----------------------------------------
 BYTE   PATT
  POIN2 Label_01000932
//  #11 //035   ----------------------------------------
 BYTE   EOT
 BYTE   Cn2
 BYTE   N48  Dn1  v096
 BYTE   N06  Fs1
 BYTE   TIE  Cn2  v080
 BYTE   W06
 BYTE   EOT
 BYTE   An1
 BYTE   N06  Fs1  v096
 BYTE   TIE  An1  v072
 BYTE   W06
 BYTE   EOT
 BYTE   Gn1
 BYTE   N06  Fs1  v096
 BYTE   TIE  Gn1  v064
 BYTE   W06
 BYTE   EOT
 BYTE   Fn1
 BYTE   TIE
 BYTE   N12  Fs1  v096
 BYTE   W06
//  #11 //036   ----------------------------------------
 BYTE   PATT
  POIN2 Label_01000988
//  #11 //037   ----------------------------------------
 BYTE   N06  Cn1  v096
 BYTE   N48  As1
 BYTE   W06
 BYTE   N06  Cn1
 BYTE   N06  Fs1
 BYTE   W06
 BYTE   N18  Cn1
 BYTE   N06  Fs1
 BYTE   W06
 BYTE   N06
 BYTE   W06
 BYTE   N48  Dn1
 BYTE   N06  Fs1
 BYTE   W06
 BYTE   N12  Cn1
 BYTE   N06  Fs1
 BYTE   W06
 BYTE   N06
 BYTE   W06
 BYTE   Cn1
 BYTE   N12  Fs1
 BYTE   W06
 BYTE   N06  Cn1
 BYTE   N72  As1
 BYTE   W06
 BYTE   N06  Cn1
 BYTE   N06  Fs1
 BYTE   W06
 BYTE   Cn1
 BYTE   N06  Fs1
 BYTE   W06
 BYTE   N30  Cn1
 BYTE   N06  Fs1
 BYTE   W06
 BYTE   EOT
 BYTE   Cn2
 BYTE   N48  Dn1
 BYTE   N06  Fs1
 BYTE   TIE  Cn2  v100
 BYTE   W06
 BYTE   EOT
 BYTE   An1
 BYTE   N06  Fs1  v096
 BYTE   TIE  An1  v092
 BYTE   W06
 BYTE   EOT
 BYTE   Gn1
 BYTE   N06  Fs1  v096
 BYTE   TIE  Gn1  v080
 BYTE   W06
 BYTE   EOT
 BYTE   Fn1
 BYTE   N03  Fn1  v072
 BYTE   N12  Fs1  v096
 BYTE   W03
 BYTE   N03  Fn1  v072
 BYTE   W03
//  #11 //038   ----------------------------------------
 BYTE   EOT
 BYTE   An2
 BYTE   N12  Cn1  v096
 BYTE   TIE  An2
 BYTE   W06
 BYTE   N06  Fs1
 BYTE   W06
 BYTE   Cn1
 BYTE   N06  Fs1
 BYTE   W06
 BYTE   N18  Cn1
 BYTE   N12  Fs1
 BYTE   W06
 BYTE   N48  Dn1
 BYTE   N24  As1
 BYTE   W06
 BYTE   N06  Fs1
 BYTE   W06
 BYTE   Cn1
 BYTE   N06  Fs1
 BYTE   W06
 BYTE   Cn1
 BYTE   N12  Fs1
 BYTE   W06
 BYTE   N08  Cn1
 BYTE   N24  As1
 BYTE   W06
 BYTE   N06  Fs1
 BYTE   W02
 BYTE   N08  Cn1
 BYTE   W04
 BYTE   N06  Fs1
 BYTE   W04
 BYTE   N36  Cn1
 BYTE   W02
 BYTE   N12  Fs1
 BYTE   W06
 BYTE   EOT
 BYTE   Dn2  v083
 BYTE   N48  Dn1
 BYTE   N24  As1
 BYTE   TIE  Dn2  v092
 BYTE   N96  Bn4  v064
 BYTE   W06
 BYTE   N06  Fs1  v096
 BYTE   W02
 BYTE   EOT
 BYTE   Bn1
 BYTE   TIE  Bn1  v080
 BYTE   W04
 BYTE   N06  Fs1  v096
 BYTE   W04
 BYTE   EOT
 BYTE   An1
 BYTE   TIE  An1  v076
 BYTE   W02
 BYTE   N12  Fs1  v096
 BYTE   W06
//  #11 //039   ----------------------------------------
Label_01000AD7:
 BYTE   N24  As1  v096
 BYTE   W06
 BYTE   N06  Cn1
 BYTE   N06  Fs1
 BYTE   W06
 BYTE   N24  Cn1
 BYTE   N06  Fs1
 BYTE   W06
 BYTE   N12
 BYTE   W06
 BYTE   N48  Dn1
 BYTE   N24  As1
 BYTE   W06
 BYTE   N06  Fs1
 BYTE   W06
 BYTE   Cn1
 BYTE   N06  Fs1
 BYTE   W06
 BYTE   N12  Cn1
 BYTE   N12  Fs1
 BYTE   W06
 BYTE   N24  As1
 BYTE   W06
 BYTE   N06  Cn1
 BYTE   N06  Fs1
 BYTE   W06
 BYTE   N36  Cn1
 BYTE   N06  Fs1
 BYTE   W06
 BYTE   N12
 BYTE   W06
 BYTE   N48  Dn1
 BYTE   N24  As1
 BYTE   N96  Bn4  v064
 BYTE   W06
 BYTE   N06  Fs1  v096
 BYTE   W06
 BYTE   PEND 
 BYTE   EOT
 BYTE   Gn1
 BYTE   N06  Fs1
 BYTE   TIE  Gn1
 BYTE   W06
 BYTE   N12  Fs1
 BYTE   W06
//  #11 //040   ----------------------------------------
Label_01000B1E:
 BYTE   N12  Cn1  v096
 BYTE   N24  As1
 BYTE   W06
 BYTE   N06  Fs1
 BYTE   W06
 BYTE   Cn1
 BYTE   N06  Fs1
 BYTE   W06
 BYTE   N30  Cn1
 BYTE   N12  Fs1
 BYTE   W06
 BYTE   PEND 
 BYTE   EOT
 BYTE   Dn2
 BYTE   N48  Dn1
 BYTE   N24  As1
 BYTE   N48  Dn2  v092
 BYTE   W06
 BYTE   EOT
 BYTE   Bn1
 BYTE   N06  Fs1  v096
 BYTE   N48  Bn1  v080
 BYTE   W06
 BYTE   EOT
 BYTE   An1
 BYTE   N06  Fs1  v096
 BYTE   N06  An1  v076
 BYTE   W06
 BYTE   N12  Fs1  v096
 BYTE   N44  An1  v076
 BYTE   W06
 BYTE   N08  Cn1  v096
 BYTE   N24  As1
 BYTE   W06
 BYTE   N06  Fs1
 BYTE   W02
 BYTE   N08  Cn1
 BYTE   W04
 BYTE   N06  Fs1
 BYTE   W04
 BYTE   N36  Cn1
 BYTE   W02
 BYTE   N12  Fs1
 BYTE   W06
 BYTE   N48  Dn1
 BYTE   N24  As1
 BYTE   TIE  Dn2  v092
 BYTE   N96  Bn4  v064
 BYTE   W06
 BYTE   N06  Fs1  v096
 BYTE   W02
 BYTE   TIE  Bn1  v080
 BYTE   W04
 BYTE   N06  Fs1  v096
 BYTE   W04
 BYTE   TIE  An1  v076
 BYTE   W02
 BYTE   N12  Fs1  v096
 BYTE   W06
//  #11 //041   ----------------------------------------
 BYTE   PATT
  POIN2 Label_01000AD7
//  #11 //042   ----------------------------------------
 BYTE   EOT
 BYTE   Gn1
 BYTE   N06  Fs1  v096
 BYTE   TIE  Gn1
 BYTE   W06
 BYTE   N12  Fs1
 BYTE   W06
 BYTE   EOT
 BYTE   An2
Label_01000B9A:
 BYTE   N08  Cn1  v096
 BYTE   N24  As1
 BYTE   N96  An2
 BYTE   W06
 BYTE   N06  Fs1
 BYTE   W02
 BYTE   N08  Cn1
 BYTE   W04
 BYTE   N06  Fs1
 BYTE   W04
 BYTE   N32  Cn1
 BYTE   W02
 BYTE   N12  Fs1
 BYTE   W06
 BYTE   PEND 
 BYTE   EOT
 BYTE   Dn2
 BYTE   N48  Dn1
 BYTE   N24  As1
 BYTE   N96  Dn2  v092
 BYTE   W06
 BYTE   N06  Fs1  v096
 BYTE   W02
 BYTE   EOT
 BYTE   Bn1
 BYTE   N96  Bn1  v080
 BYTE   W04
 BYTE   N06  Fs1  v096
 BYTE   W04
 BYTE   EOT
 BYTE   An1
 BYTE   N96  An1  v076
 BYTE   W02
 BYTE   N12  Fs1  v096
 BYTE   W06
 BYTE   Cn1
 BYTE   N24  As1
 BYTE   W06
 BYTE   N06  Fs1
 BYTE   W06
 BYTE   N36  Cn1
 BYTE   N06  Fs1
 BYTE   W06
 BYTE   N12
 BYTE   W06
 BYTE   N48  Dn1
 BYTE   N24  As1
 BYTE   N96  Bn4  v064
 BYTE   W06
 BYTE   N06  Fs1  v096
 BYTE   W06
//  #11 //043   ----------------------------------------
 BYTE   N06
 BYTE   W06
 BYTE   N12
 BYTE   W06
 BYTE   N08  Cn1
 BYTE   N24  As1
 BYTE   TIE  An2
 BYTE   W06
 BYTE   N06  Fs1
 BYTE   W02
 BYTE   N08  Cn1
 BYTE   W04
 BYTE   N06  Fs1
 BYTE   W04
 BYTE   N32  Cn1
 BYTE   W02
 BYTE   N12  Fs1
 BYTE   W06
 BYTE   N48  Dn1
 BYTE   N24  As1
 BYTE   TIE  Dn2  v092
 BYTE   W06
 BYTE   N06  Fs1  v096
 BYTE   W02
 BYTE   TIE  Bn1  v080
 BYTE   W04
 BYTE   N06  Fs1  v096
 BYTE   W04
 BYTE   TIE  An1  v076
 BYTE   W02
 BYTE   N12  Fs1  v096
 BYTE   W06
 BYTE   N06  Cn1
 BYTE   N24  As1
 BYTE   W06
 BYTE   N06  Cn1
 BYTE   N06  Fs1
 BYTE   W06
 BYTE   N36  Cn1
 BYTE   N06  Fs1
 BYTE   W06
 BYTE   N12
 BYTE   W06
 BYTE   N48  Dn1
 BYTE   N24  As1
 BYTE   N96  Bn4  v064
 BYTE   W06
 BYTE   N06  Fs1  v096
 BYTE   W06
//  #11 //044   ----------------------------------------
 BYTE   N06
 BYTE   W06
 BYTE   N12
 BYTE   W06
 BYTE   Cn1
 BYTE   N24  As1
 BYTE   W06
 BYTE   N06  Fs1
 BYTE   W06
 BYTE   Cn1
 BYTE   N06  Fs1
 BYTE   W06
 BYTE   N18  Cn1
 BYTE   N12  Fs1
 BYTE   W06
 BYTE   N48  Dn1
 BYTE   N24  As1
 BYTE   W06
 BYTE   N06  Fs1
 BYTE   W06
 BYTE   EOT
 BYTE   Gn1
 BYTE   N12  Cn1
 BYTE   N06  Fs1
 BYTE   N48  Gn1
 BYTE   W06
 BYTE   N12  Fs1
 BYTE   W06
 BYTE   Cn1
 BYTE   N24  As1
 BYTE   W06
 BYTE   N06  Fs1
 BYTE   W06
 BYTE   Cn1
 BYTE   N06  Fs1
 BYTE   W06
 BYTE   N18  Cn1
 BYTE   N12  Fs1
 BYTE   W06
 BYTE   N48  Dn1
 BYTE   N24  As1
 BYTE   TIE  Bn4  v064
 BYTE   W06
 BYTE   N06  Fs1  v096
 BYTE   W06
//  #11 //045   ----------------------------------------
 BYTE   N18  Cn1
 BYTE   N06  Fs1
 BYTE   TIE  Gn1
 BYTE   W06
 BYTE   N12  Fs1
 BYTE   W06
 BYTE   N24  As1
 BYTE   W06
 BYTE   N06  Cn1
 BYTE   N06  Fs1
 BYTE   W06
 BYTE   N36  Cn1
 BYTE   N06  Fs1
 BYTE   W06
 BYTE   N12
 BYTE   W06
 BYTE   EOT
 BYTE   Dn2
 BYTE   N96  Dn1
 BYTE   N72  As1
 BYTE   N48  Dn2  v092
 BYTE   W06
 BYTE   EOT
 BYTE   Bn1
 BYTE   N06  Fs1  v096
 BYTE   N48  Bn1  v080
 BYTE   W06
 BYTE   EOT
 BYTE   An1
 BYTE   N06  Fs1  v096
 BYTE   N06  An1  v076
 BYTE   W06
 BYTE   N60  Fs1  v096
 BYTE   N44  An1  v076
 BYTE   W06
 BYTE   EOT
 BYTE   Gn2
 BYTE   N12  Cn1  v096
 BYTE   N12  Gn2  v080
 BYTE   W04
 BYTE   N04  En1  v064
 BYTE   W04
 BYTE   N08
 BYTE   W04
 BYTE   N36  Cn1  v096
 BYTE   N12  Gn2  v080
 BYTE   W04
 BYTE   N04  En1  v064
 BYTE   W08
 BYTE   N48  Dn2  v092
 BYTE   W08
 BYTE   N44  Bn1  v080
 BYTE   W08
//  #11 //046   ----------------------------------------
 BYTE   An1  v076
 BYTE   W08
 BYTE   EOT
 BYTE   An2
 BYTE   N12  Cn1  v096
 BYTE   N24  As1
 BYTE   TIE  An2  v072
 BYTE   W06
 BYTE   N06  Fs1  v096
 BYTE   W06
 BYTE   Cn1
 BYTE   N06  Fs1
 BYTE   W06
 BYTE   N30  Cn1
 BYTE   N12  Fs1
 BYTE   W06
 BYTE   N48  Dn1
 BYTE   N24  As1
 BYTE   N48  Dn2  v092
 BYTE   W06
 BYTE   N06  Fs1  v096
 BYTE   N48  Bn1  v080
 BYTE   W06
 BYTE   N06  Fs1  v096
 BYTE   N06  An1  v076
 BYTE   W06
 BYTE   N12  Fs1  v096
 BYTE   N44  An1  v076
 BYTE   W06
 BYTE   N08  Cn1  v096
 BYTE   N24  As1
 BYTE   W06
 BYTE   N06  Fs1
 BYTE   W02
 BYTE   N08  Cn1
 BYTE   W04
 BYTE   N06  Fs1
 BYTE   W04
 BYTE   N36  Cn1
 BYTE   W02
 BYTE   N12  Fs1
 BYTE   W06
 BYTE   EOT
 BYTE   Bn4
 BYTE   N48  Dn1
 BYTE   N30  As1
 BYTE   TIE  Dn2  v092
 BYTE   N96  Bn4  v064
 BYTE   W06
 BYTE   N06  Fs1  v096
 BYTE   W02
 BYTE   TIE  Bn1  v080
 BYTE   W04
 BYTE   N06  Fs1  v096
 BYTE   W04
//  #11 //047   ----------------------------------------
 BYTE   TIE  An1  v076
 BYTE   W02
 BYTE   N18  Fs1  v096
 BYTE   W06
 BYTE   W06
 BYTE   N06  Cn1
 BYTE   N18  As1
 BYTE   TIE  Cs2  v076
 BYTE   W06
 BYTE   N24  Cn1  v096
 BYTE   N06  Fs1
 BYTE   W06
 BYTE   N12
 BYTE   W06
 BYTE   N48  Dn1
 BYTE   N24  As1
 BYTE   W06
 BYTE   N06  Fs1
 BYTE   W06
 BYTE   Cn1
 BYTE   N06  Fs1
 BYTE   W06
 BYTE   N12  Cn1
 BYTE   N12  Fs1
 BYTE   W06
 BYTE   N24  As1
 BYTE   W06
 BYTE   N06  Cn1
 BYTE   N06  Fs1
 BYTE   W06
 BYTE   N36  Cn1
 BYTE   N06  Fs1
 BYTE   W06
 BYTE   N12
 BYTE   W06
 BYTE   N48  Dn1
 BYTE   N24  As1
 BYTE   N96  Bn4  v064
 BYTE   W06
 BYTE   N06  Fs1  v096
 BYTE   W06
 BYTE   EOT
 BYTE   Gn1
 BYTE   N06  Fs1
 BYTE   TIE  Gn1
 BYTE   W06
//  #11 //048   ----------------------------------------
 BYTE   N12  Fs1
 BYTE   W06
//  #11 //049   ----------------------------------------
 BYTE   PATT
  POIN2 Label_01000B1E
//  #11 //050   ----------------------------------------
 BYTE   EOT
 BYTE   Dn2
 BYTE   N48  Dn1  v096
 BYTE   N24  As1
 BYTE   N48  Dn2  v092
 BYTE   W06
 BYTE   EOT
 BYTE   Bn1
 BYTE   N06  Fs1  v096
 BYTE   N48  Bn1  v080
 BYTE   W06
 BYTE   EOT
 BYTE   An1
 BYTE   N06  Fs1  v096
 BYTE   N06  An1  v076
 BYTE   W06
 BYTE   N12  Fs1  v096
 BYTE   N44  An1  v076
 BYTE   W06
 BYTE   N08  Cn1  v096
 BYTE   N24  As1
 BYTE   W06
 BYTE   N06  Fs1
 BYTE   W02
 BYTE   N08  Cn1
 BYTE   W04
 BYTE   N06  Fs1
 BYTE   W04
 BYTE   N36  Cn1
 BYTE   W02
 BYTE   N12  Fs1
 BYTE   W06
 BYTE   N48  Dn1
 BYTE   N30  As1
 BYTE   TIE  Dn2  v092
 BYTE   N96  Bn4  v064
 BYTE   W06
 BYTE   N06  Fs1  v096
 BYTE   W02
 BYTE   TIE  Bn1  v080
 BYTE   W04
 BYTE   N06  Fs1  v096
 BYTE   W04
 BYTE   TIE  An1  v076
 BYTE   W02
 BYTE   N18  Fs1  v096
 BYTE   W06
 BYTE   W06
 BYTE   EOT
 BYTE   Cs2
 BYTE   N06  Cn1
 BYTE   N18  As1
 BYTE   TIE  Cs2  v076
 BYTE   W06
 BYTE   N24  Cn1  v096
 BYTE   N06  Fs1
 BYTE   W06
 BYTE   N12
 BYTE   W06
//  #11 //051   ----------------------------------------
 BYTE   N48  Dn1
 BYTE   N24  As1
 BYTE   W06
 BYTE   N06  Fs1
 BYTE   W06
 BYTE   Cn1
 BYTE   N06  Fs1
 BYTE   W06
 BYTE   N12  Cn1
 BYTE   N12  Fs1
 BYTE   W06
 BYTE   N24  As1
 BYTE   W06
 BYTE   N06  Cn1
 BYTE   N06  Fs1
 BYTE   W06
 BYTE   N36  Cn1
 BYTE   N06  Fs1
 BYTE   W06
 BYTE   N12
 BYTE   W06
 BYTE   N96  Dn1
 BYTE   N24  As1
 BYTE   N96  Bn4  v064
 BYTE   W06
 BYTE   N06  Fs1  v096
 BYTE   W06
 BYTE   EOT
 BYTE   Gn1
 BYTE   N06  Fs1
 BYTE   TIE  Gn1
 BYTE   W06
 BYTE   N12  Fs1
 BYTE   W06
 BYTE   EOT
 BYTE   An2
//  #11 //052   ----------------------------------------
 BYTE   PATT
  POIN2 Label_01000B9A
//  #11 //053   ----------------------------------------
 BYTE   EOT
 BYTE   Dn2
 BYTE   N24  As1  v096
 BYTE   N48  Dn2  v092
 BYTE   W06
 BYTE   N06  Fs1  v096
 BYTE   W02
 BYTE   EOT
 BYTE   Bn1
 BYTE   N44  Bn1  v080
 BYTE   W04
 BYTE   N06  Fs1  v096
 BYTE   W04
 BYTE   EOT
 BYTE   An1
 BYTE   N44  An1  v076
 BYTE   W02
 BYTE   N12  Fs1  v096
 BYTE   W06
 BYTE   Cn1
 BYTE   N24  As1
 BYTE   W06
 BYTE   N06  Fs1
 BYTE   W06
 BYTE   N36  Cn1
 BYTE   N06  Fs1
 BYTE   W06
 BYTE   N12
 BYTE   W06
 BYTE   N48  Dn1
 BYTE   N24  As1
 BYTE   N48  Dn2  v092
 BYTE   N96  Bn4  v064
 BYTE   W06
 BYTE   N06  Fs1  v096
 BYTE   N48  Bn1  v080
 BYTE   W06
 BYTE   N06  Fs1  v096
 BYTE   N06  An1  v076
 BYTE   W06
 BYTE   N12  Fs1  v096
 BYTE   N42  An1  v076
 BYTE   W06
 BYTE   N08  Cn1  v096
 BYTE   N24  As1
 BYTE   N96  An2
 BYTE   W06
 BYTE   N06  Fs1
 BYTE   W02
 BYTE   N08  Cn1
 BYTE   W04
 BYTE   N06  Fs1
 BYTE   W04
 BYTE   N32  Cn1
 BYTE   W02
 BYTE   N12  Fs1
 BYTE   W06
//  #11 //054   ----------------------------------------
 BYTE   N48  Dn1
 BYTE   N24  As1
 BYTE   N48  Dn2  v092
 BYTE   W06
 BYTE   N06  Fs1  v096
 BYTE   N48  Bn1  v080
 BYTE   W06
 BYTE   N06  Fs1  v096
 BYTE   N06  An1  v076
 BYTE   W06
 BYTE   N12  Fs1  v096
 BYTE   N42  An1  v076
 BYTE   W06
 BYTE   N06  Cn1  v096
 BYTE   N24  As1
 BYTE   W06
 BYTE   N06  Cn1
 BYTE   N06  Fs1
 BYTE   W06
 BYTE   N36  Cn1
 BYTE   N06  Fs1
 BYTE   W06
 BYTE   N12
 BYTE   W06
 BYTE   N48  Dn1
 BYTE   N24  As1
 BYTE   TIE  Dn2  v092
 BYTE   N96  Bn4  v064
 BYTE   W06
 BYTE   N06  Fs1  v096
 BYTE   TIE  Bn1  v080
 BYTE   W06
 BYTE   N06  Fs1  v096
 BYTE   N06  An1  v076
 BYTE   W06
 BYTE   N12  Fs1  v096
 BYTE   TIE  An1  v076
 BYTE   W06
 BYTE   N12  Cn1  v096
 BYTE   N24  As1
 BYTE   N48  An2
 BYTE   W06
 BYTE   N06  Fs1
 BYTE   W06
 BYTE   Cn1
 BYTE   N06  Fs1
 BYTE   W06
 BYTE   N18  Cn1
 BYTE   N12  Fs1
 BYTE   W06
//  #11 //055   ----------------------------------------
 BYTE   N48  Dn1
 BYTE   N24  As1
 BYTE   W06
 BYTE   N06  Fs1
 BYTE   W06
 BYTE   EOT
 BYTE   Gn1
 BYTE   N12  Cn1
 BYTE   N06  Fs1
 BYTE   N48  Gn1
 BYTE   W06
 BYTE   N12  Fs1
 BYTE   W06
 BYTE   Cn1
 BYTE   N24  As1
 BYTE   N48  An2
 BYTE   W06
 BYTE   N06  Fs1
 BYTE   W06
 BYTE   Cn1
 BYTE   N06  Fs1
 BYTE   W06
 BYTE   N18  Cn1
 BYTE   N12  Fs1
 BYTE   W06
 BYTE   N78  Dn1
 BYTE   N24  As1
 BYTE   W06
 BYTE   N06  Fs1
 BYTE   W06
 BYTE   Cn1
 BYTE   N06  Fs1
 BYTE   TIE  Gn1
 BYTE   W06
 BYTE   N12  Cn1
 BYTE   N12  Fs1
 BYTE   W06
 BYTE   N24  As1
 BYTE   W06
 BYTE   N06  Cn1
 BYTE   N06  Fs1
 BYTE   W06
 BYTE   N24  Cn1
 BYTE   N06  Fs1
 BYTE   W06
 BYTE   N12
 BYTE   W06
//  #11 //056   ----------------------------------------
 BYTE   EOT
 BYTE   Dn2
 BYTE   N24  As1
 BYTE   N48  Dn2  v092
 BYTE   W06
 BYTE   N06  Fs1  v096
 BYTE   W02
 BYTE   EOT
 BYTE   Bn1
 BYTE   N48  Bn1  v080
 BYTE   W04
 BYTE   N06  Cn1  v112
 BYTE   N06  Fs1  v096
 BYTE   W04
 BYTE   EOT
 BYTE   An1
 BYTE   N44  An1  v076
 BYTE   W02
 BYTE   N12  Cn1  v112
 BYTE   N12  Fs1  v096
 BYTE   W12
 BYTE   N06  Cn1
 BYTE   N06  Dn1
 BYTE   N06  Fs1
 BYTE   N06  Fn2
 BYTE   W06
 BYTE   N12  Cn1
 BYTE   N03  Dn1
 BYTE   N06  Fs1
 BYTE   W03
 BYTE   N03  Dn1
 BYTE   W03
 BYTE   N03
 BYTE   W06
 BYTE   N06  Cn1
 BYTE   W03
 BYTE   EOT
 BYTE   Cn2
 BYTE   N03
 BYTE   W03
 BYTE   N06  Cn1
 BYTE   W03
 BYTE   N03  Bn1
 BYTE   W03
 BYTE   N06  Cn1
 BYTE   W03
 BYTE   N03  An1
 BYTE   W03
 BYTE   N06  Cn1
 BYTE   W03
 BYTE   EOT
 BYTE   Gn1
 BYTE   N03
 BYTE   W03
 BYTE   EOT
 BYTE   Cs2
 BYTE   W96
//  #11 //057   ----------------------------------------
 BYTE   W96
//  #11 //058   ----------------------------------------
 BYTE   W96
//  #11 //059   ----------------------------------------
 BYTE   W96
//  #11 //060   ----------------------------------------
 BYTE   W96
//  #11 //061   ----------------------------------------
 BYTE   W96
//  #11 //062   ----------------------------------------
 BYTE   W96
//  #11 //063   ----------------------------------------
 BYTE   W96
//  #11 //064   ----------------------------------------
 BYTE   W96
//  #11 //065   ----------------------------------------
 BYTE   W96
//  #11 //066   ----------------------------------------
 BYTE   W96
//  #11 //067   ----------------------------------------
 BYTE   W96
//  #11 //068   ----------------------------------------
 BYTE   GoTo
  POIN2 Label_01000574
 BYTE   FINE

//******************************************************//
	ALIGN 4

LuckyBreak:
	BYTE	11	// NumTrks
	BYTE	0	// NumBlks
	BYTE	LuckyBreak_pri	// Priority
	BYTE	LuckyBreak_rev	// Reverb.
    
	POIN2	LuckyBreak_grp
    
	POIN2	LuckyBreak_001
	POIN2	LuckyBreak_002
	POIN2	LuckyBreak_003
	POIN2	LuckyBreak_004
	POIN2	LuckyBreak_005
	POIN2	LuckyBreak_006
	POIN2	LuckyBreak_007
	POIN2	LuckyBreak_008
	POIN2	LuckyBreak_009
	POIN2	LuckyBreak_010
	POIN2	LuckyBreak_011

	
