//Event file generated from Sappy .s format.
	#include "MPlayDef.event"

	#define	Revolution_grp  voicegroup000
	#define	Revolution_pri  0
	#define	Revolution_rev  0
	#define	Revolution_mvl  127
	#define	Revolution_key  0
	#define	Revolution_tbs  1
	#define	Revolution_exg  0
	#define	Revolution_cmp  1

	// .rodata
	//	Revolution
	ALIGN 4


//**************** Track 1 (Midi-Chn.0) ****************//

Revolution_001:
//  #01 //000   ----------------------------------------
 BYTE   KEYSH   Revolution_key+0
 BYTE   TEMPO   144*Revolution_tbs/2
 BYTE   VOICE   124
 BYTE   VOL   38*Revolution_mvl/mxv
 BYTE   PAN   c_v+0
 BYTE   En3  v064
 BYTE   PAN   c_v+0
 BYTE   BEND   c_v+0
 BYTE   N11  Fs1  v100
 BYTE   W12
 BYTE   N11
 BYTE   W12
 BYTE   N11
 BYTE   W12
 BYTE   N11
 BYTE   W12
 BYTE   N11
 BYTE   W12
 BYTE   N11
 BYTE   W12
 BYTE   N11
 BYTE   W12
 BYTE   N11
 BYTE   W12
//  #01 //001   ----------------------------------------
Label_01000021:
 BYTE   N11  Fs1  v100
 BYTE   W12
 BYTE   N11
 BYTE   W12
 BYTE   N11
 BYTE   W12
 BYTE   N11
 BYTE   W12
 BYTE   N11
 BYTE   W12
 BYTE   N11
 BYTE   W12
 BYTE   Cn1
 BYTE   N11  Dn1
 BYTE   N11  En1
 BYTE   N11  Fs1
 BYTE   N05  Cn2
 BYTE   W06
 BYTE   N05
 BYTE   W06
 BYTE   N11  Cn1
 BYTE   N11  Dn1
 BYTE   N11  En1
 BYTE   N11  Fs1
 BYTE   N05  Bn1
 BYTE   W06
 BYTE   N05
 BYTE   W06
 BYTE   PEND 
//  #01 //002   ----------------------------------------
Label_01000049:
 BYTE   N11  Fs1  v100
 BYTE   W12
 BYTE   N11
 BYTE   W12
 BYTE   N11
 BYTE   W12
 BYTE   N11
 BYTE   W12
 BYTE   N11
 BYTE   W12
 BYTE   N11
 BYTE   W12
 BYTE   N11
 BYTE   W12
 BYTE   N11
 BYTE   W12
 BYTE   PEND 
//  #01 //003   ----------------------------------------
 BYTE   PATT
  POIN2 Label_01000021
//  #01 //004   ----------------------------------------
 BYTE   PATT
  POIN2 Label_01000049
//  #01 //005   ----------------------------------------
 BYTE   PATT
  POIN2 Label_01000021
//  #01 //006   ----------------------------------------
 BYTE   PATT
  POIN2 Label_01000049
//  #01 //007   ----------------------------------------
 BYTE   N11  Fs1  v100
 BYTE   W12
 BYTE   N11
 BYTE   W12
 BYTE   N11
 BYTE   W12
 BYTE   N11
 BYTE   W12
 BYTE   N11
 BYTE   N05  Cn2
 BYTE   W06
 BYTE   N05
 BYTE   W06
 BYTE   N11  Fs1
 BYTE   N05  Cn2
 BYTE   W06
 BYTE   N05
 BYTE   W06
 BYTE   N11  Cn1
 BYTE   N11  Dn1
 BYTE   N11  En1
 BYTE   N11  Fs1
 BYTE   N05  Bn1
 BYTE   W06
 BYTE   N05
 BYTE   W06
 BYTE   N11  Cn1
 BYTE   N11  Dn1
 BYTE   N11  En1
 BYTE   N11  Fs1
 BYTE   N05  Gn1
 BYTE   N05  Bn1
 BYTE   W06
 BYTE   Gn1
 BYTE   N05  Bn1
 BYTE   W06
//  #01 //008   ----------------------------------------
Label_010000A5:
 BYTE   N11  Cn1  v100
 BYTE   N11  Fs1
 BYTE   W06
 BYTE   Gs1
 BYTE   W06
 BYTE   En1
 BYTE   N11  Fs1
 BYTE   W06
 BYTE   Gs1
 BYTE   W06
 BYTE   Dn1
 BYTE   N11  Fs1
 BYTE   N44  Bn4
 BYTE   W06
 BYTE   N11  Gs1
 BYTE   W06
 BYTE   Cn1
 BYTE   N11  Fs1
 BYTE   W06
 BYTE   Gs1
 BYTE   W06
 BYTE   Cn1
 BYTE   N11  Fs1
 BYTE   W06
 BYTE   Gs1
 BYTE   W06
 BYTE   En1
 BYTE   N11  Fs1
 BYTE   W06
 BYTE   Gs1
 BYTE   W06
 BYTE   Dn1
 BYTE   N11  Fs1
 BYTE   N44  Bn4
 BYTE   W06
 BYTE   N11  Gs1
 BYTE   W06
 BYTE   Cn1
 BYTE   N11  Fs1
 BYTE   W06
 BYTE   Gs1
 BYTE   W06
 BYTE   PEND 
//  #01 //009   ----------------------------------------
 BYTE   PATT
  POIN2 Label_010000A5
//  #01 //010   ----------------------------------------
 BYTE   PATT
  POIN2 Label_010000A5
//  #01 //011   ----------------------------------------
Label_010000E8:
 BYTE   N11  Cn1  v100
 BYTE   N11  Fs1
 BYTE   W06
 BYTE   Gs1
 BYTE   W06
 BYTE   En1
 BYTE   N11  Fs1
 BYTE   W06
 BYTE   Gs1
 BYTE   W06
 BYTE   Dn1
 BYTE   N11  Fs1
 BYTE   N44  Bn4
 BYTE   W06
 BYTE   N11  Gs1
 BYTE   W06
 BYTE   Cn1
 BYTE   N11  Fs1
 BYTE   W06
 BYTE   Gs1
 BYTE   W06
 BYTE   Cn1
 BYTE   N11  Fs1
 BYTE   W06
 BYTE   Gs1
 BYTE   W06
 BYTE   En1
 BYTE   N11  Fs1
 BYTE   W06
 BYTE   Gs1
 BYTE   W06
 BYTE   Cn1
 BYTE   N11  Dn1
 BYTE   N11  En1
 BYTE   N11  Fs1
 BYTE   N05  Cn2
 BYTE   N44  Bn4
 BYTE   W06
 BYTE   N11  Gs1
 BYTE   N05  Cn2
 BYTE   W06
 BYTE   N11  Cn1
 BYTE   N11  Dn1
 BYTE   N11  En1
 BYTE   N11  Fs1
 BYTE   N05  Bn1
 BYTE   W06
 BYTE   N11  Gs1
 BYTE   N05  Bn1
 BYTE   W06
 BYTE   PEND 
//  #01 //012   ----------------------------------------
 BYTE   PATT
  POIN2 Label_010000A5
//  #01 //013   ----------------------------------------
 BYTE   PATT
  POIN2 Label_010000A5
//  #01 //014   ----------------------------------------
 BYTE   PATT
  POIN2 Label_010000A5
//  #01 //015   ----------------------------------------
 BYTE   N11  Cn1  v100
 BYTE   N11  Fs1
 BYTE   W06
 BYTE   Gs1
 BYTE   W06
 BYTE   En1
 BYTE   N11  Fs1
 BYTE   W06
 BYTE   Gs1
 BYTE   W06
 BYTE   Dn1
 BYTE   N11  Fs1
 BYTE   N44  Bn4
 BYTE   W06
 BYTE   N11  Gs1
 BYTE   W06
 BYTE   Cn1
 BYTE   N11  Fs1
 BYTE   W06
 BYTE   Gs1
 BYTE   W06
 BYTE   Cn1
 BYTE   N11  Fs1
 BYTE   N05  Cn2
 BYTE   W06
 BYTE   N11  Gs1
 BYTE   N05  Cn2
 BYTE   W06
 BYTE   N11  En1
 BYTE   N11  Fs1
 BYTE   N05  Cn2
 BYTE   W06
 BYTE   N11  Gs1
 BYTE   N05  Cn2
 BYTE   W06
 BYTE   N11  Cn1
 BYTE   N11  Dn1
 BYTE   N11  En1
 BYTE   N11  Fs1
 BYTE   N05  Bn1
 BYTE   N44  Bn4
 BYTE   W06
 BYTE   N11  Gs1
 BYTE   N05  Bn1
 BYTE   W06
 BYTE   N11  Cn1
 BYTE   N11  Dn1
 BYTE   N11  En1
 BYTE   N11  Fs1
 BYTE   N05  Gn1
 BYTE   N05  Bn1
 BYTE   W06
 BYTE   Gn1
 BYTE   N11  Gs1
 BYTE   N05  Bn1
 BYTE   W06
//  #01 //016   ----------------------------------------
Label_0100019B:
//  #01 //017   ----------------------------------------
 BYTE   PATT
  POIN2 Label_010000A5
//  #01 //018   ----------------------------------------
 BYTE   PATT
  POIN2 Label_010000A5
//  #01 //019   ----------------------------------------
 BYTE   PATT
  POIN2 Label_010000A5
//  #01 //020   ----------------------------------------
 BYTE   PATT
  POIN2 Label_010000E8
//  #01 //021   ----------------------------------------
 BYTE   PATT
  POIN2 Label_010000A5
//  #01 //022   ----------------------------------------
 BYTE   PATT
  POIN2 Label_010000A5
//  #01 //023   ----------------------------------------
 BYTE   PATT
  POIN2 Label_010000A5
//  #01 //024   ----------------------------------------
Label_010001BE:
 BYTE   N11  Cn1  v100
 BYTE   N11  Fs1
 BYTE   W06
 BYTE   Gs1
 BYTE   W06
 BYTE   En1
 BYTE   N11  Fs1
 BYTE   W06
 BYTE   Gs1
 BYTE   W06
 BYTE   Dn1
 BYTE   N11  Fs1
 BYTE   N44  Bn4
 BYTE   W06
 BYTE   N11  Gs1
 BYTE   W06
 BYTE   Cn1
 BYTE   N11  Fs1
 BYTE   W06
 BYTE   Gs1
 BYTE   W06
 BYTE   Cn1
 BYTE   N11  Fs1
 BYTE   N05  Cn2
 BYTE   W06
 BYTE   N11  Gs1
 BYTE   N05  Cn2
 BYTE   W06
 BYTE   N11  En1
 BYTE   N11  Fs1
 BYTE   N05  Cn2
 BYTE   W06
 BYTE   N11  Gs1
 BYTE   N05  Cn2
 BYTE   W06
 BYTE   N11  Cn1
 BYTE   N11  Dn1
 BYTE   N11  En1
 BYTE   N11  Fs1
 BYTE   N05  Bn1
 BYTE   N44  Bn4
 BYTE   W06
 BYTE   N11  Gs1
 BYTE   N05  Bn1
 BYTE   W06
 BYTE   N11  Cn1
 BYTE   N11  Dn1
 BYTE   N11  En1
 BYTE   N11  Fs1
 BYTE   N05  Gn1
 BYTE   W06
 BYTE   N05
 BYTE   N11  Gs1
 BYTE   W06
 BYTE   PEND 
//  #01 //025   ----------------------------------------
 BYTE   PATT
  POIN2 Label_010000A5
//  #01 //026   ----------------------------------------
 BYTE   PATT
  POIN2 Label_010000A5
//  #01 //027   ----------------------------------------
 BYTE   PATT
  POIN2 Label_010000A5
//  #01 //028   ----------------------------------------
 BYTE   PATT
  POIN2 Label_010000E8
//  #01 //029   ----------------------------------------
 BYTE   PATT
  POIN2 Label_010000A5
//  #01 //030   ----------------------------------------
 BYTE   PATT
  POIN2 Label_010000A5
//  #01 //031   ----------------------------------------
 BYTE   PATT
  POIN2 Label_010000A5
//  #01 //032   ----------------------------------------
 BYTE   PATT
  POIN2 Label_010001BE
//  #01 //033   ----------------------------------------
 BYTE   PATT
  POIN2 Label_010000A5
//  #01 //034   ----------------------------------------
 BYTE   PATT
  POIN2 Label_010000A5
//  #01 //035   ----------------------------------------
 BYTE   PATT
  POIN2 Label_010000A5
//  #01 //036   ----------------------------------------
 BYTE   PATT
  POIN2 Label_010000E8
//  #01 //037   ----------------------------------------
 BYTE   PATT
  POIN2 Label_010000A5
//  #01 //038   ----------------------------------------
 BYTE   PATT
  POIN2 Label_010000A5
//  #01 //039   ----------------------------------------
 BYTE   PATT
  POIN2 Label_010000A5
//  #01 //040   ----------------------------------------
 BYTE   PATT
  POIN2 Label_010001BE
//  #01 //041   ----------------------------------------
 BYTE   PATT
  POIN2 Label_010000A5
//  #01 //042   ----------------------------------------
 BYTE   PATT
  POIN2 Label_010000A5
//  #01 //043   ----------------------------------------
 BYTE   PATT
  POIN2 Label_010000A5
//  #01 //044   ----------------------------------------
 BYTE   PATT
  POIN2 Label_010000E8
//  #01 //045   ----------------------------------------
 BYTE   PATT
  POIN2 Label_010000A5
//  #01 //046   ----------------------------------------
 BYTE   PATT
  POIN2 Label_010000A5
//  #01 //047   ----------------------------------------
 BYTE   PATT
  POIN2 Label_010000A5
//  #01 //048   ----------------------------------------
 BYTE   N11  Cn1  v100
 BYTE   N11  Fs1
 BYTE   W06
 BYTE   Gs1
 BYTE   W06
 BYTE   En1
 BYTE   N11  Fs1
 BYTE   W06
 BYTE   Gs1
 BYTE   W06
 BYTE   Dn1
 BYTE   N11  Fs1
 BYTE   N44  Bn4
 BYTE   W06
 BYTE   N11  Gs1
 BYTE   W06
 BYTE   Cn1
 BYTE   N11  Fs1
 BYTE   W06
 BYTE   Gs1
 BYTE   W06
 BYTE   Cn1
 BYTE   N11  Fs1
 BYTE   N05  Cn2
 BYTE   W06
 BYTE   N11  Gs1
 BYTE   N05  Cn2
 BYTE   W06
 BYTE   N11  En1
 BYTE   N11  Fs1
 BYTE   N05  Cn2
 BYTE   W06
 BYTE   N11  Gs1
 BYTE   N05  Cn2
 BYTE   W06
 BYTE   N11  Cn1
 BYTE   N11  Dn1
 BYTE   N11  En1
 BYTE   N11  Fs1
 BYTE   N05  Bn1
 BYTE   N44  Bn4
 BYTE   W06
 BYTE   N11  Gs1
 BYTE   N05  Bn1
 BYTE   W06
 BYTE   N11  Cn1
 BYTE   N11  Dn1
 BYTE   N11  En1
 BYTE   N11  Fs1
 BYTE   N05  Gn1
 BYTE   TIE  Fn2
 BYTE   W06
 BYTE   N05  Gn1
 BYTE   N11  Gs1
 BYTE   W06
//  #01 //049   ----------------------------------------
 BYTE   PATT
  POIN2 Label_010000A5
//  #01 //050   ----------------------------------------
Label_010002E4:
 BYTE   N11  Cn1  v100
 BYTE   N11  Fs1
 BYTE   W06
 BYTE   Gs1
 BYTE   W06
 BYTE   En1
 BYTE   N11  Fs1
 BYTE   W06
 BYTE   Gs1
 BYTE   W06
 BYTE   Dn1
 BYTE   N11  Fs1
 BYTE   N44  Bn4
 BYTE   W06
 BYTE   N11  Gs1
 BYTE   W06
 BYTE   Cn1
 BYTE   N11  Fs1
 BYTE   W06
 BYTE   Gs1
 BYTE   W06
 BYTE   Cn1
 BYTE   N11  Fs1
 BYTE   W06
 BYTE   Gs1
 BYTE   W06
 BYTE   En1
 BYTE   N11  Fs1
 BYTE   W06
 BYTE   Gs1
 BYTE   W06
 BYTE   Dn1
 BYTE   N11  Fs1
 BYTE   N44  Bn4
 BYTE   W06
 BYTE   N11  Gs1
 BYTE   W05
 BYTE   PEND 
 BYTE   EOT
 BYTE   Fn2
 BYTE   W01
 BYTE   N11  Cn1
 BYTE   N11  Fs1
 BYTE   TIE  Fn2
 BYTE   W06
 BYTE   N11  Gs1
 BYTE   W06
//  #01 //051   ----------------------------------------
 BYTE   PATT
  POIN2 Label_010000A5
//  #01 //052   ----------------------------------------
 BYTE   PATT
  POIN2 Label_010000E8
//  #01 //053   ----------------------------------------
 BYTE   PATT
  POIN2 Label_010000A5
//  #01 //054   ----------------------------------------
 BYTE   PATT
  POIN2 Label_010002E4
//  #01 //055   ----------------------------------------
 BYTE   EOT
 BYTE   Fn2
 BYTE   W01
 BYTE   N11  Cn1  v100
 BYTE   N11  Fs1
 BYTE   TIE  Fn2
 BYTE   W06
 BYTE   N11  Gs1
 BYTE   W06
//  #01 //056   ----------------------------------------
 BYTE   PATT
  POIN2 Label_010000A5
//  #01 //057   ----------------------------------------
 BYTE   PATT
  POIN2 Label_010001BE
//  #01 //058   ----------------------------------------
 BYTE   PATT
  POIN2 Label_010000A5
//  #01 //059   ----------------------------------------
 BYTE   PATT
  POIN2 Label_010002E4
//  #01 //060   ----------------------------------------
 BYTE   EOT
 BYTE   Fn2
 BYTE   W01
 BYTE   N11  Cn1  v100
 BYTE   N11  Fs1
 BYTE   TIE  Fn2
 BYTE   W06
 BYTE   N11  Gs1
 BYTE   W06
//  #01 //061   ----------------------------------------
 BYTE   PATT
  POIN2 Label_010000A5
//  #01 //062   ----------------------------------------
 BYTE   PATT
  POIN2 Label_010000E8
//  #01 //063   ----------------------------------------
 BYTE   PATT
  POIN2 Label_010000A5
//  #01 //064   ----------------------------------------
 BYTE   PATT
  POIN2 Label_010002E4
//  #01 //065   ----------------------------------------
 BYTE   EOT
 BYTE   Fn2
 BYTE   W01
 BYTE   N11  Cn1  v100
 BYTE   N11  Fs1
 BYTE   TIE  Fn2
 BYTE   W06
 BYTE   N11  Gs1
 BYTE   W06
//  #01 //066   ----------------------------------------
 BYTE   PATT
  POIN2 Label_010000A5
//  #01 //067   ----------------------------------------
 BYTE   PATT
  POIN2 Label_010001BE
//  #01 //068   ----------------------------------------
 BYTE   PATT
  POIN2 Label_010000A5
//  #01 //069   ----------------------------------------
 BYTE   N11  Cn1  v100
 BYTE   N11  Fs1
 BYTE   W06
 BYTE   Gs1
 BYTE   W06
 BYTE   En1
 BYTE   N11  Fs1
 BYTE   W06
 BYTE   Gs1
 BYTE   W06
 BYTE   Dn1
 BYTE   N11  Fs1
 BYTE   N23  Bn4
 BYTE   W06
 BYTE   N11  Gs1
 BYTE   W06
 BYTE   Cn1
 BYTE   N11  Fs1
 BYTE   W06
 BYTE   Gs1
 BYTE   W06
 BYTE   Cn1
 BYTE   N11  Fs1
 BYTE   N05  Cn2
 BYTE   N23  Bn4
 BYTE   W06
 BYTE   N11  Gs1
 BYTE   N05  Cn2
 BYTE   W06
 BYTE   N11  En1
 BYTE   N11  Fs1
 BYTE   N05  Cn2
 BYTE   W06
 BYTE   N11  Gs1
 BYTE   N05  Cn2
 BYTE   W06
 BYTE   N11  Cn1
 BYTE   N11  Dn1
 BYTE   N11  En1
 BYTE   N11  Fs1
 BYTE   N05  Bn1
 BYTE   N23  Bn4
 BYTE   W06
 BYTE   N11  Gs1
 BYTE   N05  Bn1
 BYTE   W05
 BYTE   EOT
 BYTE   Fn2
 BYTE   W01
 BYTE   N11  Cn1
 BYTE   N11  Dn1
 BYTE   N11  En1
 BYTE   N11  Fs1
 BYTE   N05  Gn1
 BYTE   TIE  Fn2
 BYTE   W06
 BYTE   N05  Gn1
 BYTE   N11  Gs1
 BYTE   W06
//  #01 //070   ----------------------------------------
 BYTE   Cn1
 BYTE   N11  Fs1
 BYTE   N23  Bn4
 BYTE   W06
 BYTE   N11  Gs1
 BYTE   W06
 BYTE   En1
 BYTE   N11  Fs1
 BYTE   W06
 BYTE   Gs1
 BYTE   W06
 BYTE   Dn1
 BYTE   N11  Fs1
 BYTE   N44  Bn4
 BYTE   W06
 BYTE   N11  Gs1
 BYTE   W06
 BYTE   Cn1
 BYTE   N11  Fs1
 BYTE   W06
 BYTE   Gs1
 BYTE   W06
 BYTE   Cn1
 BYTE   N11  Fs1
 BYTE   W06
 BYTE   Gs1
 BYTE   W06
 BYTE   En1
 BYTE   N11  Fs1
 BYTE   W06
 BYTE   Gs1
 BYTE   W06
 BYTE   Dn1
 BYTE   N11  Fs1
 BYTE   N44  Bn4
 BYTE   W06
 BYTE   N11  Gs1
 BYTE   W06
 BYTE   Cn1
 BYTE   N11  Fs1
 BYTE   W06
 BYTE   Gs1
 BYTE   W06
//  #01 //071   ----------------------------------------
 BYTE   PATT
  POIN2 Label_010002E4
//  #01 //072   ----------------------------------------
 BYTE   EOT
 BYTE   Fn2
 BYTE   W01
 BYTE   N11  Cn1  v100
 BYTE   N11  Fs1
 BYTE   TIE  Fn2
 BYTE   W06
 BYTE   N11  Gs1
 BYTE   W06
//  #01 //073   ----------------------------------------
 BYTE   PATT
  POIN2 Label_010000A5
//  #01 //074   ----------------------------------------
 BYTE   PATT
  POIN2 Label_010000E8
//  #01 //075   ----------------------------------------
 BYTE   PATT
  POIN2 Label_010000A5
//  #01 //076   ----------------------------------------
 BYTE   PATT
  POIN2 Label_010002E4
//  #01 //077   ----------------------------------------
 BYTE   EOT
 BYTE   Fn2
 BYTE   W01
 BYTE   N11  Cn1  v100
 BYTE   N11  Fs1
 BYTE   TIE  Fn2
 BYTE   W06
 BYTE   N11  Gs1
 BYTE   W06
//  #01 //078   ----------------------------------------
 BYTE   PATT
  POIN2 Label_010000A5
//  #01 //079   ----------------------------------------
 BYTE   PATT
  POIN2 Label_010001BE
//  #01 //080   ----------------------------------------
 BYTE   PATT
  POIN2 Label_010000A5
//  #01 //081   ----------------------------------------
 BYTE   PATT
  POIN2 Label_010002E4
//  #01 //082   ----------------------------------------
 BYTE   EOT
 BYTE   Fn2
 BYTE   W01
 BYTE   N11  Cn1  v100
 BYTE   N11  Fs1
 BYTE   TIE  Fn2
 BYTE   W06
 BYTE   N11  Gs1
 BYTE   W06
//  #01 //083   ----------------------------------------
 BYTE   PATT
  POIN2 Label_010000A5
//  #01 //084   ----------------------------------------
 BYTE   PATT
  POIN2 Label_010000E8
//  #01 //085   ----------------------------------------
 BYTE   PATT
  POIN2 Label_010000A5
//  #01 //086   ----------------------------------------
 BYTE   PATT
  POIN2 Label_010002E4
//  #01 //087   ----------------------------------------
 BYTE   EOT
 BYTE   Fn2
 BYTE   W01
 BYTE   N11  Cn1  v100
 BYTE   N11  Fs1
 BYTE   TIE  Fn2
 BYTE   W06
 BYTE   N11  Gs1
 BYTE   W06
//  #01 //088   ----------------------------------------
 BYTE   PATT
  POIN2 Label_010000A5
//  #01 //089   ----------------------------------------
 BYTE   PATT
  POIN2 Label_010001BE
//  #01 //090   ----------------------------------------
 BYTE   PATT
  POIN2 Label_010000A5
//  #01 //091   ----------------------------------------
 BYTE   PATT
  POIN2 Label_010002E4
//  #01 //092   ----------------------------------------
 BYTE   EOT
 BYTE   Fn2
 BYTE   W01
 BYTE   N11  Cn1  v100
 BYTE   N11  Fs1
 BYTE   TIE  Fn2
 BYTE   W06
 BYTE   N11  Gs1
 BYTE   W06
//  #01 //093   ----------------------------------------
 BYTE   PATT
  POIN2 Label_010000A5
//  #01 //094   ----------------------------------------
 BYTE   PATT
  POIN2 Label_010001BE
//  #01 //095   ----------------------------------------
 BYTE   PATT
  POIN2 Label_010000A5
//  #01 //096   ----------------------------------------
 BYTE   PATT
  POIN2 Label_010002E4
//  #01 //097   ----------------------------------------
 BYTE   EOT
 BYTE   Fn2
 BYTE   W01
 BYTE   N11  Cn1  v100
 BYTE   N11  Fs1
 BYTE   TIE  Fn2
 BYTE   W06
 BYTE   N11  Gs1
 BYTE   W06
//  #01 //098   ----------------------------------------
 BYTE   PATT
  POIN2 Label_010000A5
//  #01 //099   ----------------------------------------
 BYTE   PATT
  POIN2 Label_010000E8
//  #01 //100   ----------------------------------------
 BYTE   PATT
  POIN2 Label_010000A5
//  #01 //101   ----------------------------------------
 BYTE   PATT
  POIN2 Label_010002E4
//  #01 //102   ----------------------------------------
 BYTE   EOT
 BYTE   Fn2
 BYTE   W01
 BYTE   N11  Cn1  v100
 BYTE   N11  Fs1
 BYTE   TIE  Fn2
 BYTE   W06
 BYTE   N11  Gs1
 BYTE   W06
//  #01 //103   ----------------------------------------
 BYTE   PATT
  POIN2 Label_010000A5
//  #01 //104   ----------------------------------------
Label_01000513:
 BYTE   N11  Cn1  v100
 BYTE   N11  Fs1
 BYTE   W06
 BYTE   Gs1
 BYTE   W06
 BYTE   En1
 BYTE   N11  Fs1
 BYTE   W06
 BYTE   Gs1
 BYTE   W06
 BYTE   Dn1
 BYTE   N11  Fs1
 BYTE   N44  Bn4
 BYTE   W06
 BYTE   N11  Gs1
 BYTE   W06
 BYTE   Cn1
 BYTE   N11  Fs1
 BYTE   W06
 BYTE   Gs1
 BYTE   W06
 BYTE   Cn1
 BYTE   N11  Fs1
 BYTE   N05  Cn2
 BYTE   W06
 BYTE   N11  Gs1
 BYTE   N05  Cn2
 BYTE   W06
 BYTE   N11  En1
 BYTE   N11  Fs1
 BYTE   N05  Cn2
 BYTE   W06
 BYTE   N11  Gs1
 BYTE   N05  Cn2
 BYTE   W06
 BYTE   N11  Cn1
 BYTE   N11  Dn1
 BYTE   N11  En1
 BYTE   N11  Fs1
 BYTE   N05  Bn1
 BYTE   N44  Bn4
 BYTE   W06
 BYTE   N11  Gs1
 BYTE   N05  Bn1
 BYTE   W05
 BYTE   PEND 
 BYTE   EOT
 BYTE   Fn2
 BYTE   W01
 BYTE   N11  Cn1
 BYTE   N11  Dn1
 BYTE   N11  En1
 BYTE   N11  Fs1
 BYTE   N05  Gn1
 BYTE   TIE  Fn2
 BYTE   W06
 BYTE   N05  Gn1
 BYTE   N11  Gs1
 BYTE   W06
//  #01 //105   ----------------------------------------
 BYTE   PATT
  POIN2 Label_010000A5
//  #01 //106   ----------------------------------------
 BYTE   PATT
  POIN2 Label_01000513
//  #01 //107   ----------------------------------------
 BYTE   EOT
 BYTE   Fn2
 BYTE   W01
 BYTE   N11  Cn1  v100
 BYTE   N11  Dn1
 BYTE   N11  En1
 BYTE   N11  Fs1
 BYTE   N05  Gn1
 BYTE   TIE  Fn2
 BYTE   W06
 BYTE   N05  Gn1
 BYTE   N11  Gs1
 BYTE   W06
//  #01 //108   ----------------------------------------
 BYTE   PATT
  POIN2 Label_010000A5
//  #01 //109   ----------------------------------------
 BYTE   PATT
  POIN2 Label_010002E4
//  #01 //110   ----------------------------------------
 BYTE   EOT
 BYTE   Fn2
 BYTE   W01
 BYTE   N11  Cn1  v100
 BYTE   N11  Fs1
 BYTE   TIE  Fn2
 BYTE   W06
 BYTE   N11  Gs1
 BYTE   W06
//  #01 //111   ----------------------------------------
 BYTE   PATT
  POIN2 Label_010000A5
//  #01 //112   ----------------------------------------
 BYTE   PATT
  POIN2 Label_010001BE
//  #01 //113   ----------------------------------------
 BYTE   PATT
  POIN2 Label_010000A5
//  #01 //114   ----------------------------------------
 BYTE   PATT
  POIN2 Label_010002E4
//  #01 //115   ----------------------------------------
 BYTE   EOT
 BYTE   Fn2
 BYTE   W01
 BYTE   N11  Cn1  v100
 BYTE   N11  Fs1
 BYTE   TIE  Fn2
 BYTE   W06
 BYTE   N11  Gs1
 BYTE   W06
//  #01 //116   ----------------------------------------
 BYTE   PATT
  POIN2 Label_010000A5
//  #01 //117   ----------------------------------------
 BYTE   PATT
  POIN2 Label_010000E8
//  #01 //118   ----------------------------------------
 BYTE   PATT
  POIN2 Label_010000A5
//  #01 //119   ----------------------------------------
 BYTE   PATT
  POIN2 Label_010002E4
//  #01 //120   ----------------------------------------
 BYTE   EOT
 BYTE   Fn2
 BYTE   W01
 BYTE   N11  Cn1  v100
 BYTE   N11  Fs1
 BYTE   TIE  Fn2
 BYTE   W06
 BYTE   N11  Gs1
 BYTE   W06
//  #01 //121   ----------------------------------------
 BYTE   PATT
  POIN2 Label_010000A5
//  #01 //122   ----------------------------------------
 BYTE   PATT
  POIN2 Label_010001BE
//  #01 //123   ----------------------------------------
 BYTE   PATT
  POIN2 Label_010000A5
//  #01 //124   ----------------------------------------
 BYTE   PATT
  POIN2 Label_010002E4
//  #01 //125   ----------------------------------------
 BYTE   EOT
 BYTE   Fn2
 BYTE   W01
 BYTE   N11  Cn1  v100
 BYTE   N11  Fs1
 BYTE   TIE  Fn2
 BYTE   W06
 BYTE   N11  Gs1
 BYTE   W06
//  #01 //126   ----------------------------------------
 BYTE   PATT
  POIN2 Label_010000A5
//  #01 //127   ----------------------------------------
 BYTE   PATT
  POIN2 Label_010001BE
//  #01 //128   ----------------------------------------
 BYTE   PATT
  POIN2 Label_010000A5
//  #01 //129   ----------------------------------------
 BYTE   PATT
  POIN2 Label_010002E4
//  #01 //130   ----------------------------------------
 BYTE   EOT
 BYTE   Fn2
 BYTE   W01
 BYTE   N11  Cn1  v100
 BYTE   N11  Fs1
 BYTE   TIE  Fn2
 BYTE   W06
 BYTE   N11  Gs1
 BYTE   W06
//  #01 //131   ----------------------------------------
 BYTE   PATT
  POIN2 Label_010000A5
//  #01 //132   ----------------------------------------
 BYTE   PATT
  POIN2 Label_010000E8
//  #01 //133   ----------------------------------------
 BYTE   PATT
  POIN2 Label_010000A5
//  #01 //134   ----------------------------------------
 BYTE   PATT
  POIN2 Label_010002E4
//  #01 //135   ----------------------------------------
 BYTE   EOT
 BYTE   Fn2
 BYTE   W01
 BYTE   N11  Cn1  v100
 BYTE   N11  Fs1
 BYTE   TIE  Fn2
 BYTE   W06
 BYTE   N11  Gs1
 BYTE   W06
//  #01 //136   ----------------------------------------
 BYTE   PATT
  POIN2 Label_010000A5
//  #01 //137   ----------------------------------------
 BYTE   PATT
  POIN2 Label_010001BE
//  #01 //138   ----------------------------------------
 BYTE   PATT
  POIN2 Label_010000A5
//  #01 //139   ----------------------------------------
 BYTE   PATT
  POIN2 Label_010002E4
//  #01 //140   ----------------------------------------
 BYTE   EOT
 BYTE   Fn2
 BYTE   W01
 BYTE   N11  Cn1  v100
 BYTE   N11  Fs1
 BYTE   TIE  Fn2
 BYTE   W06
 BYTE   N11  Gs1
 BYTE   W06
//  #01 //141   ----------------------------------------
 BYTE   PATT
  POIN2 Label_010000A5
//  #01 //142   ----------------------------------------
Label_01000678:
 BYTE   N11  Cn1  v100
 BYTE   N11  Fs1
 BYTE   W06
 BYTE   Gs1
 BYTE   W06
 BYTE   En1
 BYTE   N11  Fs1
 BYTE   W06
 BYTE   Gs1
 BYTE   W06
 BYTE   Dn1
 BYTE   N11  Fs1
 BYTE   N44  Bn4
 BYTE   W06
 BYTE   N11  Gs1
 BYTE   W06
 BYTE   Cn1
 BYTE   N11  Fs1
 BYTE   W06
 BYTE   Gs1
 BYTE   W06
 BYTE   Cn1
 BYTE   N11  Fs1
 BYTE   W06
 BYTE   Gs1
 BYTE   W06
 BYTE   En1
 BYTE   N11  Fs1
 BYTE   W06
 BYTE   Gs1
 BYTE   W06
 BYTE   Cn1
 BYTE   N11  Dn1
 BYTE   N11  En1
 BYTE   N11  Fs1
 BYTE   N05  Cn2
 BYTE   N44  Bn4
 BYTE   W06
 BYTE   N11  Gs1
 BYTE   N05  Cn2
 BYTE   W06
 BYTE   N11  Cn1
 BYTE   N11  Dn1
 BYTE   N11  En1
 BYTE   N11  Fs1
 BYTE   N05  Bn1
 BYTE   W06
 BYTE   N11  Gs1
 BYTE   W06
 BYTE   PEND 
//  #01 //143   ----------------------------------------
 BYTE   PATT
  POIN2 Label_010000A5
//  #01 //144   ----------------------------------------
 BYTE   PATT
  POIN2 Label_010002E4
//  #01 //145   ----------------------------------------
 BYTE   EOT
 BYTE   Fn2
 BYTE   W01
 BYTE   N11  Cn1  v100
 BYTE   N11  Fs1
 BYTE   TIE  Fn2
 BYTE   W06
 BYTE   N11  Gs1
 BYTE   W06
//  #01 //146   ----------------------------------------
 BYTE   PATT
  POIN2 Label_010000A5
//  #01 //147   ----------------------------------------
 BYTE   PATT
  POIN2 Label_010001BE
//  #01 //148   ----------------------------------------
 BYTE   PATT
  POIN2 Label_010000A5
//  #01 //149   ----------------------------------------
 BYTE   PATT
  POIN2 Label_010002E4
//  #01 //150   ----------------------------------------
 BYTE   EOT
 BYTE   Fn2
 BYTE   W01
 BYTE   N11  Cn1  v100
 BYTE   N11  Fs1
 BYTE   TIE  Fn2
 BYTE   W06
 BYTE   N11  Gs1
 BYTE   W06
//  #01 //151   ----------------------------------------
 BYTE   PATT
  POIN2 Label_010000A5
//  #01 //152   ----------------------------------------
 BYTE   PATT
  POIN2 Label_010000E8
//  #01 //153   ----------------------------------------
 BYTE   PATT
  POIN2 Label_010000A5
//  #01 //154   ----------------------------------------
 BYTE   PATT
  POIN2 Label_010002E4
//  #01 //155   ----------------------------------------
 BYTE   EOT
 BYTE   Fn2
 BYTE   W01
 BYTE   N11  Cn1  v100
 BYTE   N11  Fs1
 BYTE   TIE  Fn2
 BYTE   W06
 BYTE   N11  Gs1
 BYTE   W06
//  #01 //156   ----------------------------------------
 BYTE   PATT
  POIN2 Label_010000A5
//  #01 //157   ----------------------------------------
 BYTE   PATT
  POIN2 Label_010001BE
//  #01 //158   ----------------------------------------
 BYTE   PATT
  POIN2 Label_010000A5
//  #01 //159   ----------------------------------------
 BYTE   PATT
  POIN2 Label_010002E4
//  #01 //160   ----------------------------------------
 BYTE   EOT
 BYTE   Fn2
 BYTE   W01
 BYTE   N11  Cn1  v100
 BYTE   N11  Fs1
 BYTE   TIE  Fn2
 BYTE   W06
 BYTE   N11  Gs1
 BYTE   W06
//  #01 //161   ----------------------------------------
 BYTE   PATT
  POIN2 Label_010000A5
//  #01 //162   ----------------------------------------
 BYTE   PATT
  POIN2 Label_01000678
//  #01 //163   ----------------------------------------
 BYTE   PATT
  POIN2 Label_010000A5
//  #01 //164   ----------------------------------------
 BYTE   PATT
  POIN2 Label_010002E4
//  #01 //165   ----------------------------------------
 BYTE   EOT
 BYTE   Fn2
 BYTE   W01
 BYTE   N11  Cn1  v100
 BYTE   N11  Fs1
 BYTE   TIE  Fn2
 BYTE   W06
 BYTE   N11  Gs1
 BYTE   W06
//  #01 //166   ----------------------------------------
 BYTE   PATT
  POIN2 Label_010000A5
//  #01 //167   ----------------------------------------
 BYTE   PATT
  POIN2 Label_010001BE
//  #01 //168   ----------------------------------------
 BYTE   PATT
  POIN2 Label_010000A5
//  #01 //169   ----------------------------------------
 BYTE   PATT
  POIN2 Label_010002E4
//  #01 //170   ----------------------------------------
 BYTE   EOT
 BYTE   Fn2
 BYTE   W01
 BYTE   N11  Cn1  v100
 BYTE   N11  Fs1
 BYTE   TIE  Fn2
 BYTE   W06
 BYTE   N11  Gs1
 BYTE   W06
//  #01 //171   ----------------------------------------
 BYTE   PATT
  POIN2 Label_010000A5
//  #01 //172   ----------------------------------------
 BYTE   PATT
  POIN2 Label_01000678
//  #01 //173   ----------------------------------------
 BYTE   PATT
  POIN2 Label_010000A5
//  #01 //174   ----------------------------------------
 BYTE   PATT
  POIN2 Label_010002E4
//  #01 //175   ----------------------------------------
 BYTE   EOT
 BYTE   Fn2
 BYTE   W01
 BYTE   N11  Cn1  v100
 BYTE   N11  Fs1
 BYTE   TIE  Fn2
 BYTE   W06
 BYTE   N11  Gs1
 BYTE   W06
//  #01 //176   ----------------------------------------
 BYTE   PATT
  POIN2 Label_010000A5
//  #01 //177   ----------------------------------------
 BYTE   PATT
  POIN2 Label_010001BE
//  #01 //178   ----------------------------------------
 BYTE   PATT
  POIN2 Label_010000A5
//  #01 //179   ----------------------------------------
 BYTE   PATT
  POIN2 Label_010002E4
//  #01 //180   ----------------------------------------
 BYTE   EOT
 BYTE   Fn2
 BYTE   W01
 BYTE   N11  Cn1  v100
 BYTE   N11  Fs1
 BYTE   TIE  Fn2
 BYTE   W06
 BYTE   N11  Gs1
 BYTE   W06
//  #01 //181   ----------------------------------------
 BYTE   PATT
  POIN2 Label_010000A5
//  #01 //182   ----------------------------------------
 BYTE   PATT
  POIN2 Label_01000678
//  #01 //183   ----------------------------------------
 BYTE   PATT
  POIN2 Label_010000A5
//  #01 //184   ----------------------------------------
 BYTE   PATT
  POIN2 Label_010002E4
//  #01 //185   ----------------------------------------
 BYTE   EOT
 BYTE   Fn2
 BYTE   W01
 BYTE   N11  Cn1  v100
 BYTE   N11  Fs1
 BYTE   TIE  Fn2
 BYTE   W06
 BYTE   N11  Gs1
 BYTE   W06
//  #01 //186   ----------------------------------------
 BYTE   PATT
  POIN2 Label_010000A5
//  #01 //187   ----------------------------------------
 BYTE   PATT
  POIN2 Label_010001BE
//  #01 //188   ----------------------------------------
 BYTE   PATT
  POIN2 Label_010000A5
//  #01 //189   ----------------------------------------
 BYTE   PATT
  POIN2 Label_010002E4
//  #01 //190   ----------------------------------------
 BYTE   EOT
 BYTE   Fn2
 BYTE   W01
 BYTE   N11  Cn1  v100
 BYTE   N11  Fs1
 BYTE   TIE  Fn2
 BYTE   W06
 BYTE   N11  Gs1
 BYTE   W06
//  #01 //191   ----------------------------------------
 BYTE   PATT
  POIN2 Label_010000A5
//  #01 //192   ----------------------------------------
 BYTE   PATT
  POIN2 Label_01000678
//  #01 //193   ----------------------------------------
 BYTE   PATT
  POIN2 Label_010000A5
//  #01 //194   ----------------------------------------
 BYTE   PATT
  POIN2 Label_010002E4
//  #01 //195   ----------------------------------------
 BYTE   EOT
 BYTE   Fn2
 BYTE   W01
 BYTE   N11  Cn1  v100
 BYTE   N11  Fs1
 BYTE   TIE  Fn2
 BYTE   W06
 BYTE   N11  Gs1
 BYTE   W06
//  #01 //196   ----------------------------------------
 BYTE   PATT
  POIN2 Label_010000A5
//  #01 //197   ----------------------------------------
 BYTE   PATT
  POIN2 Label_010001BE
//  #01 //198   ----------------------------------------
 BYTE   PATT
  POIN2 Label_010000A5
//  #01 //199   ----------------------------------------
 BYTE   PATT
  POIN2 Label_010002E4
//  #01 //200   ----------------------------------------
 BYTE   EOT
 BYTE   Fn2
 BYTE   W01
 BYTE   N11  Cn1  v100
 BYTE   N11  Fs1
 BYTE   TIE  Fn2
 BYTE   W06
 BYTE   N11  Gs1
 BYTE   W06
//  #01 //201   ----------------------------------------
 BYTE   PATT
  POIN2 Label_010000A5
//  #01 //202   ----------------------------------------
 BYTE   PATT
  POIN2 Label_01000678
//  #01 //203   ----------------------------------------
 BYTE   PATT
  POIN2 Label_010000A5
//  #01 //204   ----------------------------------------
 BYTE   PATT
  POIN2 Label_010002E4
//  #01 //205   ----------------------------------------
 BYTE   EOT
 BYTE   Fn2
 BYTE   W01
 BYTE   N11  Cn1  v100
 BYTE   N11  Fs1
 BYTE   TIE  Fn2
 BYTE   W06
 BYTE   N11  Gs1
 BYTE   W06
//  #01 //206   ----------------------------------------
 BYTE   PATT
  POIN2 Label_010000A5
//  #01 //207   ----------------------------------------
 BYTE   PATT
  POIN2 Label_010001BE
//  #01 //208   ----------------------------------------
 BYTE   PATT
  POIN2 Label_010000A5
//  #01 //209   ----------------------------------------
 BYTE   PATT
  POIN2 Label_010002E4
//  #01 //210   ----------------------------------------
 BYTE   EOT
 BYTE   Fn2
 BYTE   W01
 BYTE   N11  Cn1  v100
 BYTE   N11  Fs1
 BYTE   TIE  Fn2
 BYTE   W06
 BYTE   N11  Gs1
 BYTE   W06
//  #01 //211   ----------------------------------------
 BYTE   PATT
  POIN2 Label_010000A5
//  #01 //212   ----------------------------------------
 BYTE   PATT
  POIN2 Label_01000678
//  #01 //213   ----------------------------------------
 BYTE   PATT
  POIN2 Label_010000A5
//  #01 //214   ----------------------------------------
 BYTE   PATT
  POIN2 Label_010002E4
//  #01 //215   ----------------------------------------
 BYTE   EOT
 BYTE   Fn2
 BYTE   W01
 BYTE   N11  Cn1  v100
 BYTE   N11  Fs1
 BYTE   TIE  Fn2
 BYTE   W06
 BYTE   N11  Gs1
 BYTE   W06
//  #01 //216   ----------------------------------------
 BYTE   PATT
  POIN2 Label_010000A5
//  #01 //217   ----------------------------------------
 BYTE   PATT
  POIN2 Label_010001BE
//  #01 //218   ----------------------------------------
 BYTE   PATT
  POIN2 Label_010000A5
//  #01 //219   ----------------------------------------
 BYTE   PATT
  POIN2 Label_010002E4
//  #01 //220   ----------------------------------------
 BYTE   EOT
 BYTE   Fn2
 BYTE   W01
 BYTE   N11  Cn1  v100
 BYTE   N11  Fs1
 BYTE   TIE  Fn2
 BYTE   W06
 BYTE   N11  Gs1
 BYTE   W06
//  #01 //221   ----------------------------------------
 BYTE   PATT
  POIN2 Label_010000A5
//  #01 //222   ----------------------------------------
 BYTE   PATT
  POIN2 Label_01000678
//  #01 //223   ----------------------------------------
 BYTE   PATT
  POIN2 Label_010000A5
//  #01 //224   ----------------------------------------
 BYTE   PATT
  POIN2 Label_010002E4
//  #01 //225   ----------------------------------------
 BYTE   EOT
 BYTE   Fn2
 BYTE   W01
 BYTE   N11  Cn1  v100
 BYTE   N11  Fs1
 BYTE   TIE  Fn2
 BYTE   W06
 BYTE   N11  Gs1
 BYTE   W06
//  #01 //226   ----------------------------------------
 BYTE   PATT
  POIN2 Label_010000A5
//  #01 //227   ----------------------------------------
 BYTE   N11  Cn1  v100
 BYTE   N11  Fs1
 BYTE   W06
 BYTE   Gs1
 BYTE   W06
 BYTE   En1
 BYTE   N11  Fs1
 BYTE   W06
 BYTE   Gs1
 BYTE   W06
 BYTE   Dn1
 BYTE   N11  Fs1
 BYTE   N44  Bn4
 BYTE   W06
 BYTE   N11  Gs1
 BYTE   W06
 BYTE   Cn1
 BYTE   N11  Fs1
 BYTE   W06
 BYTE   Gs1
 BYTE   W06
 BYTE   Cn1
 BYTE   N11  Fs1
 BYTE   N05  Cn2
 BYTE   W06
 BYTE   N11  Gs1
 BYTE   N05  Cn2
 BYTE   W06
 BYTE   N11  En1
 BYTE   N11  Fs1
 BYTE   N05  Cn2
 BYTE   W06
 BYTE   N11  Gs1
 BYTE   N05  Cn2
 BYTE   W06
 BYTE   N11  Cn1
 BYTE   N11  Dn1
 BYTE   N11  En1
 BYTE   N11  Fs1
 BYTE   N05  Bn1
 BYTE   N23  Bn4
 BYTE   W06
 BYTE   N11  Gs1
 BYTE   N05  Bn1
 BYTE   W06
 BYTE   N11  Cn1
 BYTE   N11  Dn1
 BYTE   N11  En1
 BYTE   N11  Fs1
 BYTE   N05  Gn1
 BYTE   W06
 BYTE   N05
 BYTE   N05  Gs1
 BYTE   W05
 BYTE   EOT
 BYTE   Fn2
 BYTE   W01
//  #01 //228   ----------------------------------------
 BYTE   GoTo
  POIN2 Label_0100019B
//  #01 //229   ----------------------------------------
 BYTE   PAN   c_v+0
 BYTE   En3  v064
 BYTE   BEND   c_v+0
 BYTE   FINE

//**************** Track 2 (Midi-Chn.1) ****************//

Revolution_002:
//  #02 //000   ----------------------------------------
 BYTE   KEYSH   Revolution_key+0
 BYTE   VOICE   81
 BYTE   VOL   48*Revolution_mvl/mxv
 BYTE   PAN   c_v+0
 BYTE   En3  v064
 BYTE   PAN   c_v+0
 BYTE   BEND   c_v+0
 BYTE   TIE  Ds1  v100
 BYTE   W96
//  #02 //001   ----------------------------------------
 BYTE   W92
 BYTE   W03
 BYTE   EOT
 BYTE   W01
//  #02 //002   ----------------------------------------
 BYTE   TIE  Fn1
 BYTE   W96
//  #02 //003   ----------------------------------------
 BYTE   W92
 BYTE   W03
 BYTE   EOT
 BYTE   W01
//  #02 //004   ----------------------------------------
 BYTE   N92  Fs1
 BYTE   W96
//  #02 //005   ----------------------------------------
 BYTE   Fn1
 BYTE   W96
//  #02 //006   ----------------------------------------
 BYTE   TIE  Ds1
 BYTE   W96
//  #02 //007   ----------------------------------------
 BYTE   W92
 BYTE   W03
 BYTE   EOT
 BYTE   W01
//  #02 //008   ----------------------------------------
Label_0100098C:
 BYTE   TIE  Ds1  v100
 BYTE   TIE  Ds2
 BYTE   W96
 BYTE   PEND 
//  #02 //009   ----------------------------------------
 BYTE   W92
 BYTE   W03
 BYTE   EOT
 BYTE   Ds1  v051
 BYTE   W01
//  #02 //010   ----------------------------------------
 BYTE   TIE  Fn1
 BYTE   TIE  Fn2
 BYTE   W96
//  #02 //011   ----------------------------------------
 BYTE   W92
 BYTE   W03
 BYTE   EOT
 BYTE   Fn1  v053
 BYTE   W01
//  #02 //012   ----------------------------------------
 BYTE   N92  Fs1
 BYTE   N92  Fs2
 BYTE   W96
//  #02 //013   ----------------------------------------
 BYTE   Fn1
 BYTE   N92  Fn2
 BYTE   W96
//  #02 //014   ----------------------------------------
 BYTE   PATT
  POIN2 Label_0100098C
//  #02 //015   ----------------------------------------
 BYTE   W92
 BYTE   W03
 BYTE   EOT
 BYTE   Ds1  v051
 BYTE   W01
//  #02 //016   ----------------------------------------
Label_010009B8:
 BYTE   TIE  Ds0  v100
 BYTE   TIE  Ds1
 BYTE   TIE  Ds2
 BYTE   W96
 BYTE   PEND 
//  #02 //017   ----------------------------------------
 BYTE   W92
 BYTE   W03
 BYTE   EOT
 BYTE   Ds0  v039
 BYTE   Ds2
 BYTE   W01
//  #02 //018   ----------------------------------------
Label_010009C8:
 BYTE   TIE  Cs0  v100
 BYTE   TIE  Cs1
 BYTE   TIE  Cs2
 BYTE   W96
 BYTE   PEND 
//  #02 //019   ----------------------------------------
 BYTE   W92
 BYTE   W03
 BYTE   EOT
 BYTE   Cs0  v037
 BYTE   Cs2
 BYTE   W01
//  #02 //020   ----------------------------------------
Label_010009D8:
 BYTE   TIE  BnM1  v100
 BYTE   TIE  Bn0
 BYTE   TIE  Bn1
 BYTE   W96
 BYTE   PEND 
//  #02 //021   ----------------------------------------
 BYTE   W92
 BYTE   W03
 BYTE   EOT
 BYTE   BnM1  v035
 BYTE   Bn1
 BYTE   W01
//  #02 //022   ----------------------------------------
Label_010009E8:
 BYTE   N92  Cs0  v100
 BYTE   N92  Cs1
 BYTE   N92  Cs2
 BYTE   W96
 BYTE   PEND 
//  #02 //023   ----------------------------------------
Label_010009F1:
 BYTE   N44  Fs0  v100
 BYTE   N44  Fs1
 BYTE   N44  Fs2
 BYTE   W48
 BYTE   Fn0
 BYTE   N44  Fn1
 BYTE   N44  Fn2
 BYTE   W48
 BYTE   PEND 
//  #02 //024   ----------------------------------------
 BYTE   PATT
  POIN2 Label_010009B8
//  #02 //025   ----------------------------------------
 BYTE   W92
 BYTE   W03
 BYTE   EOT
 BYTE   Ds0  v039
 BYTE   Ds2
 BYTE   W01
//  #02 //026   ----------------------------------------
 BYTE   PATT
  POIN2 Label_010009C8
//  #02 //027   ----------------------------------------
 BYTE   W92
 BYTE   W03
 BYTE   EOT
 BYTE   Cs0  v037
 BYTE   Cs2
 BYTE   W01
//  #02 //028   ----------------------------------------
 BYTE   PATT
  POIN2 Label_010009D8
//  #02 //029   ----------------------------------------
 BYTE   W92
 BYTE   W03
 BYTE   EOT
 BYTE   BnM1  v035
 BYTE   Bn1
 BYTE   W01
//  #02 //030   ----------------------------------------
 BYTE   PATT
  POIN2 Label_010009E8
//  #02 //031   ----------------------------------------
Label_01000A29:
 BYTE   N92  Dn0  v100
 BYTE   N92  Dn1
 BYTE   N92  Dn2
 BYTE   W96
 BYTE   PEND 
//  #02 //032   ----------------------------------------
 BYTE   PATT
  POIN2 Label_010009B8
//  #02 //033   ----------------------------------------
 BYTE   W92
 BYTE   W03
 BYTE   EOT
 BYTE   Ds0  v039
 BYTE   Ds2
 BYTE   W01
//  #02 //034   ----------------------------------------
 BYTE   PATT
  POIN2 Label_010009D8
//  #02 //035   ----------------------------------------
 BYTE   W92
 BYTE   W03
 BYTE   EOT
 BYTE   BnM1  v035
 BYTE   Bn1
 BYTE   W01
//  #02 //036   ----------------------------------------
 BYTE   PATT
  POIN2 Label_010009C8
//  #02 //037   ----------------------------------------
 BYTE   W92
 BYTE   W03
 BYTE   EOT
 BYTE   Cs0  v037
 BYTE   Cs2
 BYTE   W01
//  #02 //038   ----------------------------------------
Label_01000A56:
 BYTE   N92  Ds0  v100
 BYTE   N92  Ds1
 BYTE   N92  Ds2
 BYTE   W96
 BYTE   PEND 
//  #02 //039   ----------------------------------------
 BYTE   PATT
  POIN2 Label_010009F1
//  #02 //040   ----------------------------------------
 BYTE   PATT
  POIN2 Label_010009B8
//  #02 //041   ----------------------------------------
 BYTE   W92
 BYTE   W03
 BYTE   EOT
 BYTE   Ds0  v039
 BYTE   Ds2
 BYTE   W01
//  #02 //042   ----------------------------------------
 BYTE   PATT
  POIN2 Label_010009C8
//  #02 //043   ----------------------------------------
 BYTE   W92
 BYTE   W03
 BYTE   EOT
 BYTE   Cs0  v037
 BYTE   Cs2
 BYTE   W01
//  #02 //044   ----------------------------------------
 BYTE   PATT
  POIN2 Label_010009D8
//  #02 //045   ----------------------------------------
 BYTE   W92
 BYTE   W03
 BYTE   EOT
 BYTE   BnM1  v035
 BYTE   Bn1
 BYTE   W01
//  #02 //046   ----------------------------------------
 BYTE   PATT
  POIN2 Label_010009E8
//  #02 //047   ----------------------------------------
 BYTE   PATT
  POIN2 Label_01000A29
//  #02 //048   ----------------------------------------
 BYTE   PATT
  POIN2 Label_010009B8
//  #02 //049   ----------------------------------------
 BYTE   W92
 BYTE   W03
 BYTE   EOT
 BYTE   Ds0  v039
 BYTE   Ds2
 BYTE   W01
//  #02 //050   ----------------------------------------
 BYTE   PATT
  POIN2 Label_010009C8
//  #02 //051   ----------------------------------------
 BYTE   W92
 BYTE   W03
 BYTE   EOT
 BYTE   Cs0  v037
 BYTE   Cs2
 BYTE   W01
//  #02 //052   ----------------------------------------
 BYTE   PATT
  POIN2 Label_010009D8
//  #02 //053   ----------------------------------------
 BYTE   W92
 BYTE   W03
 BYTE   EOT
 BYTE   BnM1  v035
 BYTE   Bn1
 BYTE   W01
//  #02 //054   ----------------------------------------
 BYTE   PATT
  POIN2 Label_010009E8
//  #02 //055   ----------------------------------------
 BYTE   PATT
  POIN2 Label_010009F1
//  #02 //056   ----------------------------------------
 BYTE   PATT
  POIN2 Label_010009B8
//  #02 //057   ----------------------------------------
 BYTE   W92
 BYTE   W03
 BYTE   EOT
 BYTE   Ds0  v039
 BYTE   Ds2
 BYTE   W01
//  #02 //058   ----------------------------------------
 BYTE   PATT
  POIN2 Label_010009C8
//  #02 //059   ----------------------------------------
 BYTE   W92
 BYTE   W03
 BYTE   EOT
 BYTE   Cs0  v037
 BYTE   Cs2
 BYTE   W01
//  #02 //060   ----------------------------------------
 BYTE   PATT
  POIN2 Label_010009D8
//  #02 //061   ----------------------------------------
 BYTE   W92
 BYTE   W03
 BYTE   EOT
 BYTE   BnM1  v035
 BYTE   Bn1
 BYTE   W01
//  #02 //062   ----------------------------------------
 BYTE   PATT
  POIN2 Label_010009E8
//  #02 //063   ----------------------------------------
 BYTE   PATT
  POIN2 Label_01000A29
//  #02 //064   ----------------------------------------
 BYTE   PATT
  POIN2 Label_010009B8
//  #02 //065   ----------------------------------------
 BYTE   W92
 BYTE   W03
 BYTE   EOT
 BYTE   Ds0  v039
 BYTE   Ds2
 BYTE   W01
//  #02 //066   ----------------------------------------
 BYTE   PATT
  POIN2 Label_010009B8
//  #02 //067   ----------------------------------------
 BYTE   W92
 BYTE   W03
 BYTE   EOT
 BYTE   Ds0  v039
 BYTE   Ds2
 BYTE   W01
//  #02 //068   ----------------------------------------
 BYTE   PATT
  POIN2 Label_010009C8
//  #02 //069   ----------------------------------------
 BYTE   W92
 BYTE   W03
 BYTE   EOT
 BYTE   Cs0  v037
 BYTE   Cs2
 BYTE   W01
//  #02 //070   ----------------------------------------
 BYTE   PATT
  POIN2 Label_010009D8
//  #02 //071   ----------------------------------------
 BYTE   W92
 BYTE   W03
 BYTE   EOT
 BYTE   BnM1  v035
 BYTE   Bn1
 BYTE   W01
//  #02 //072   ----------------------------------------
 BYTE   PATT
  POIN2 Label_010009C8
//  #02 //073   ----------------------------------------
 BYTE   W92
 BYTE   W03
 BYTE   EOT
 BYTE   Cs0  v037
 BYTE   Cs2
 BYTE   W01
//  #02 //074   ----------------------------------------
 BYTE   PATT
  POIN2 Label_010009B8
//  #02 //075   ----------------------------------------
 BYTE   W92
 BYTE   W03
 BYTE   EOT
 BYTE   Ds0  v039
 BYTE   Ds2
 BYTE   W01
//  #02 //076   ----------------------------------------
 BYTE   PATT
  POIN2 Label_010009C8
//  #02 //077   ----------------------------------------
 BYTE   W92
 BYTE   W03
 BYTE   EOT
 BYTE   Cs0  v037
 BYTE   Cs2
 BYTE   W01
//  #02 //078   ----------------------------------------
 BYTE   PATT
  POIN2 Label_010009D8
//  #02 //079   ----------------------------------------
 BYTE   W92
 BYTE   W03
 BYTE   EOT
 BYTE   BnM1  v035
 BYTE   Bn1
 BYTE   W01
//  #02 //080   ----------------------------------------
 BYTE   PATT
  POIN2 Label_010009C8
//  #02 //081   ----------------------------------------
 BYTE   W92
 BYTE   W03
 BYTE   EOT
 BYTE   Cs0  v037
 BYTE   Cs2
 BYTE   W01
//  #02 //082   ----------------------------------------
 BYTE   PATT
  POIN2 Label_010009B8
//  #02 //083   ----------------------------------------
 BYTE   W92
 BYTE   W03
 BYTE   EOT
 BYTE   Ds0  v039
 BYTE   Ds2
 BYTE   W01
//  #02 //084   ----------------------------------------
Label_01000B66:
 BYTE   TIE  Fn0  v100
 BYTE   TIE  Fn1
 BYTE   TIE  Fn2
 BYTE   W96
 BYTE   PEND 
//  #02 //085   ----------------------------------------
 BYTE   W92
 BYTE   W03
 BYTE   EOT
 BYTE   Fn0  v041
 BYTE   Fn2
 BYTE   W01
//  #02 //086   ----------------------------------------
Label_01000B76:
 BYTE   TIE  Fs0  v100
 BYTE   TIE  Fs1
 BYTE   TIE  Fs2
 BYTE   W96
 BYTE   PEND 
//  #02 //087   ----------------------------------------
 BYTE   W92
 BYTE   W03
 BYTE   EOT
 BYTE   Fs0  v042
 BYTE   Fs2
 BYTE   W01
//  #02 //088   ----------------------------------------
Label_01000B86:
 BYTE   TIE  Gs0  v100
 BYTE   TIE  Gs1
 BYTE   TIE  Gs2
 BYTE   W96
 BYTE   PEND 
//  #02 //089   ----------------------------------------
 BYTE   W92
 BYTE   W03
 BYTE   EOT
 BYTE   Gs0  v044
 BYTE   Gs2
 BYTE   W01
//  #02 //090   ----------------------------------------
Label_01000B96:
 BYTE   TIE  As0  v100
 BYTE   TIE  As1
 BYTE   TIE  As2
 BYTE   W96
 BYTE   PEND 
//  #02 //091   ----------------------------------------
 BYTE   W92
 BYTE   W03
 BYTE   EOT
 BYTE   As0  v046
 BYTE   As2
 BYTE   W01
//  #02 //092   ----------------------------------------
 BYTE   PATT
  POIN2 Label_010009B8
//  #02 //093   ----------------------------------------
 BYTE   W92
 BYTE   W03
 BYTE   EOT
 BYTE   Ds0  v039
 BYTE   Ds2
 BYTE   W01
//  #02 //094   ----------------------------------------
 BYTE   PATT
  POIN2 Label_010009C8
//  #02 //095   ----------------------------------------
 BYTE   W92
 BYTE   W03
 BYTE   EOT
 BYTE   Cs0  v037
 BYTE   Cs2
 BYTE   W01
//  #02 //096   ----------------------------------------
 BYTE   PATT
  POIN2 Label_010009D8
//  #02 //097   ----------------------------------------
 BYTE   W92
 BYTE   W03
 BYTE   EOT
 BYTE   BnM1  v035
 BYTE   Bn1
 BYTE   W01
//  #02 //098   ----------------------------------------
 BYTE   PATT
  POIN2 Label_010009E8
//  #02 //099   ----------------------------------------
 BYTE   PATT
  POIN2 Label_010009F1
//  #02 //100   ----------------------------------------
 BYTE   PATT
  POIN2 Label_010009B8
//  #02 //101   ----------------------------------------
 BYTE   W92
 BYTE   W03
 BYTE   EOT
 BYTE   Ds0  v039
 BYTE   Ds2
 BYTE   W01
//  #02 //102   ----------------------------------------
 BYTE   PATT
  POIN2 Label_010009C8
//  #02 //103   ----------------------------------------
 BYTE   W92
 BYTE   W03
 BYTE   EOT
 BYTE   Cs0  v037
 BYTE   Cs2
 BYTE   W01
//  #02 //104   ----------------------------------------
 BYTE   PATT
  POIN2 Label_010009D8
//  #02 //105   ----------------------------------------
 BYTE   W92
 BYTE   W03
 BYTE   EOT
 BYTE   BnM1  v035
 BYTE   Bn1
 BYTE   W01
//  #02 //106   ----------------------------------------
 BYTE   PATT
  POIN2 Label_010009E8
//  #02 //107   ----------------------------------------
 BYTE   PATT
  POIN2 Label_01000A29
//  #02 //108   ----------------------------------------
 BYTE   PATT
  POIN2 Label_010009B8
//  #02 //109   ----------------------------------------
 BYTE   W92
 BYTE   W03
 BYTE   EOT
 BYTE   Ds0  v039
 BYTE   Ds2
 BYTE   W01
//  #02 //110   ----------------------------------------
 BYTE   PATT
  POIN2 Label_010009C8
//  #02 //111   ----------------------------------------
 BYTE   W92
 BYTE   W03
 BYTE   EOT
 BYTE   Cs0  v037
 BYTE   Cs2
 BYTE   W01
//  #02 //112   ----------------------------------------
 BYTE   PATT
  POIN2 Label_010009D8
//  #02 //113   ----------------------------------------
 BYTE   W92
 BYTE   W03
 BYTE   EOT
 BYTE   BnM1  v035
 BYTE   Bn1
 BYTE   W01
//  #02 //114   ----------------------------------------
 BYTE   PATT
  POIN2 Label_010009E8
//  #02 //115   ----------------------------------------
 BYTE   PATT
  POIN2 Label_010009F1
//  #02 //116   ----------------------------------------
 BYTE   PATT
  POIN2 Label_010009B8
//  #02 //117   ----------------------------------------
 BYTE   W92
 BYTE   W03
 BYTE   EOT
 BYTE   Ds0  v039
 BYTE   Ds2
 BYTE   W01
//  #02 //118   ----------------------------------------
 BYTE   PATT
  POIN2 Label_010009C8
//  #02 //119   ----------------------------------------
 BYTE   W92
 BYTE   W03
 BYTE   EOT
 BYTE   Cs0  v037
 BYTE   Cs2
 BYTE   W01
//  #02 //120   ----------------------------------------
 BYTE   PATT
  POIN2 Label_010009D8
//  #02 //121   ----------------------------------------
 BYTE   W92
 BYTE   W03
 BYTE   EOT
 BYTE   BnM1  v035
 BYTE   Bn1
 BYTE   W01
//  #02 //122   ----------------------------------------
 BYTE   PATT
  POIN2 Label_010009E8
//  #02 //123   ----------------------------------------
 BYTE   PATT
  POIN2 Label_01000A29
//  #02 //124   ----------------------------------------
 BYTE   PATT
  POIN2 Label_010009B8
//  #02 //125   ----------------------------------------
 BYTE   W92
 BYTE   W03
 BYTE   EOT
 BYTE   Ds0  v039
 BYTE   Ds2
 BYTE   W01
//  #02 //126   ----------------------------------------
 BYTE   PATT
  POIN2 Label_01000B66
//  #02 //127   ----------------------------------------
 BYTE   W92
 BYTE   W03
 BYTE   EOT
 BYTE   Fn0  v041
 BYTE   Fn2
 BYTE   W01
//  #02 //128   ----------------------------------------
 BYTE   PATT
  POIN2 Label_01000B76
//  #02 //129   ----------------------------------------
 BYTE   W92
 BYTE   W03
 BYTE   EOT
 BYTE   Fs0  v042
 BYTE   Fs2
 BYTE   W01
//  #02 //130   ----------------------------------------
 BYTE   PATT
  POIN2 Label_01000B86
//  #02 //131   ----------------------------------------
 BYTE   W92
 BYTE   W03
 BYTE   EOT
 BYTE   Gs0  v044
 BYTE   Gs2
 BYTE   W01
//  #02 //132   ----------------------------------------
 BYTE   PATT
  POIN2 Label_01000B96
//  #02 //133   ----------------------------------------
 BYTE   W92
 BYTE   W03
 BYTE   EOT
 BYTE   As0  v046
 BYTE   As2
 BYTE   W01
//  #02 //134   ----------------------------------------
 BYTE   N92  As0  v100
 BYTE   N92  As1
 BYTE   N92  As2
 BYTE   W96
//  #02 //135   ----------------------------------------
 BYTE   N23  As0
 BYTE   N23  As1
 BYTE   N23  As2
 BYTE   W24
 BYTE   Gs0
 BYTE   N23  Gs1
 BYTE   N23  Gs2
 BYTE   W24
 BYTE   Fs0
 BYTE   N23  Fs1
 BYTE   N23  Fs2
 BYTE   W24
 BYTE   Gs0
 BYTE   N23  Gs1
 BYTE   N23  Gs2
 BYTE   W24
//  #02 //136   ----------------------------------------
 BYTE   PATT
  POIN2 Label_01000B66
//  #02 //137   ----------------------------------------
 BYTE   W92
 BYTE   W03
 BYTE   EOT
 BYTE   Fn0  v041
 BYTE   Fn2
 BYTE   W01
//  #02 //138   ----------------------------------------
 BYTE   PATT
  POIN2 Label_010009B8
//  #02 //139   ----------------------------------------
 BYTE   W92
 BYTE   W03
 BYTE   EOT
 BYTE   Ds0  v039
 BYTE   Ds2
 BYTE   W01
//  #02 //140   ----------------------------------------
 BYTE   PATT
  POIN2 Label_010009C8
//  #02 //141   ----------------------------------------
 BYTE   W92
 BYTE   W03
 BYTE   EOT
 BYTE   Cs0  v037
 BYTE   Cs2
 BYTE   W01
//  #02 //142   ----------------------------------------
 BYTE   PATT
  POIN2 Label_01000A56
//  #02 //143   ----------------------------------------
Label_01000CE4:
 BYTE   N44  Gs0  v100
 BYTE   N44  Gs1
 BYTE   N44  Gs2
 BYTE   W48
 BYTE   Gn0
 BYTE   N44  Gn1
 BYTE   N44  Gn2
 BYTE   W48
 BYTE   PEND 
//  #02 //144   ----------------------------------------
 BYTE   PATT
  POIN2 Label_01000B66
//  #02 //145   ----------------------------------------
 BYTE   W92
 BYTE   W03
 BYTE   EOT
 BYTE   Fn0  v041
 BYTE   Fn2
 BYTE   W01
//  #02 //146   ----------------------------------------
 BYTE   PATT
  POIN2 Label_010009B8
//  #02 //147   ----------------------------------------
 BYTE   W92
 BYTE   W03
 BYTE   EOT
 BYTE   Ds0  v039
 BYTE   Ds2
 BYTE   W01
//  #02 //148   ----------------------------------------
 BYTE   PATT
  POIN2 Label_010009C8
//  #02 //149   ----------------------------------------
 BYTE   W92
 BYTE   W03
 BYTE   EOT
 BYTE   Cs0  v037
 BYTE   Cs2
 BYTE   W01
//  #02 //150   ----------------------------------------
 BYTE   PATT
  POIN2 Label_01000A56
//  #02 //151   ----------------------------------------
Label_01000D1C:
 BYTE   N92  En0  v100
 BYTE   N92  En1
 BYTE   N92  En2
 BYTE   W96
 BYTE   PEND 
//  #02 //152   ----------------------------------------
 BYTE   PATT
  POIN2 Label_01000B66
//  #02 //153   ----------------------------------------
 BYTE   W92
 BYTE   W03
 BYTE   EOT
 BYTE   Fn0  v041
 BYTE   Fn2
 BYTE   W01
//  #02 //154   ----------------------------------------
 BYTE   PATT
  POIN2 Label_010009B8
//  #02 //155   ----------------------------------------
 BYTE   W92
 BYTE   W03
 BYTE   EOT
 BYTE   Ds0  v039
 BYTE   Ds2
 BYTE   W01
//  #02 //156   ----------------------------------------
 BYTE   PATT
  POIN2 Label_010009C8
//  #02 //157   ----------------------------------------
 BYTE   W92
 BYTE   W03
 BYTE   EOT
 BYTE   Cs0  v037
 BYTE   Cs2
 BYTE   W01
//  #02 //158   ----------------------------------------
 BYTE   PATT
  POIN2 Label_01000A56
//  #02 //159   ----------------------------------------
 BYTE   PATT
  POIN2 Label_01000CE4
//  #02 //160   ----------------------------------------
 BYTE   PATT
  POIN2 Label_01000B66
//  #02 //161   ----------------------------------------
 BYTE   W92
 BYTE   W03
 BYTE   EOT
 BYTE   Fn0  v041
 BYTE   Fn2
 BYTE   W01
//  #02 //162   ----------------------------------------
 BYTE   PATT
  POIN2 Label_010009B8
//  #02 //163   ----------------------------------------
 BYTE   W92
 BYTE   W03
 BYTE   EOT
 BYTE   Ds0  v039
 BYTE   Ds2
 BYTE   W01
//  #02 //164   ----------------------------------------
 BYTE   PATT
  POIN2 Label_010009C8
//  #02 //165   ----------------------------------------
 BYTE   W92
 BYTE   W03
 BYTE   EOT
 BYTE   Cs0  v037
 BYTE   Cs2
 BYTE   W01
//  #02 //166   ----------------------------------------
 BYTE   PATT
  POIN2 Label_01000A56
//  #02 //167   ----------------------------------------
 BYTE   PATT
  POIN2 Label_01000D1C
//  #02 //168   ----------------------------------------
 BYTE   PATT
  POIN2 Label_01000B66
//  #02 //169   ----------------------------------------
 BYTE   W92
 BYTE   W03
 BYTE   EOT
 BYTE   Fn0  v041
 BYTE   Fn2
 BYTE   W01
//  #02 //170   ----------------------------------------
 BYTE   PATT
  POIN2 Label_010009B8
//  #02 //171   ----------------------------------------
 BYTE   W92
 BYTE   W03
 BYTE   EOT
 BYTE   Ds0  v039
 BYTE   Ds2
 BYTE   W01
//  #02 //172   ----------------------------------------
 BYTE   PATT
  POIN2 Label_010009C8
//  #02 //173   ----------------------------------------
 BYTE   W92
 BYTE   W03
 BYTE   EOT
 BYTE   Cs0  v037
 BYTE   Cs2
 BYTE   W01
//  #02 //174   ----------------------------------------
 BYTE   PATT
  POIN2 Label_01000A56
//  #02 //175   ----------------------------------------
 BYTE   PATT
  POIN2 Label_01000CE4
//  #02 //176   ----------------------------------------
 BYTE   PATT
  POIN2 Label_01000B66
//  #02 //177   ----------------------------------------
 BYTE   W92
 BYTE   W03
 BYTE   EOT
 BYTE   Fn0  v041
 BYTE   Fn2
 BYTE   W01
//  #02 //178   ----------------------------------------
 BYTE   PATT
  POIN2 Label_010009B8
//  #02 //179   ----------------------------------------
 BYTE   W92
 BYTE   W03
 BYTE   EOT
 BYTE   Ds0  v039
 BYTE   Ds2
 BYTE   W01
//  #02 //180   ----------------------------------------
 BYTE   PATT
  POIN2 Label_010009C8
//  #02 //181   ----------------------------------------
 BYTE   W92
 BYTE   W03
 BYTE   EOT
 BYTE   Cs0  v037
 BYTE   Cs2
 BYTE   W01
//  #02 //182   ----------------------------------------
 BYTE   PATT
  POIN2 Label_01000A56
//  #02 //183   ----------------------------------------
 BYTE   PATT
  POIN2 Label_01000D1C
//  #02 //184   ----------------------------------------
 BYTE   PATT
  POIN2 Label_01000B66
//  #02 //185   ----------------------------------------
 BYTE   W92
 BYTE   W03
 BYTE   EOT
 BYTE   Fn0  v041
 BYTE   Fn2
 BYTE   W01
//  #02 //186   ----------------------------------------
 BYTE   PATT
  POIN2 Label_010009B8
//  #02 //187   ----------------------------------------
 BYTE   W92
 BYTE   W03
 BYTE   EOT
 BYTE   Ds0  v039
 BYTE   Ds2
 BYTE   W01
//  #02 //188   ----------------------------------------
 BYTE   PATT
  POIN2 Label_010009C8
//  #02 //189   ----------------------------------------
 BYTE   W92
 BYTE   W03
 BYTE   EOT
 BYTE   Cs0  v037
 BYTE   Cs2
 BYTE   W01
//  #02 //190   ----------------------------------------
 BYTE   PATT
  POIN2 Label_01000A56
//  #02 //191   ----------------------------------------
 BYTE   PATT
  POIN2 Label_01000D1C
//  #02 //192   ----------------------------------------
 BYTE   GoTo
  POIN2 Label_010009B8
//  #02 //193   ----------------------------------------
 BYTE   PAN   c_v+0
 BYTE   En3  v064
 BYTE   BEND   c_v+0
 BYTE   FINE

//**************** Track 3 (Midi-Chn.2) ****************//

Revolution_003:
//  #03 //000   ----------------------------------------
 BYTE   KEYSH   Revolution_key+0
 BYTE   VOICE   100
 BYTE   VOL   54*Revolution_mvl/mxv
 BYTE   PAN   c_v+0
 BYTE   En3  v064
 BYTE   PAN   c_v+0
 BYTE   BEND   c_v+0
 BYTE   W96
//  #03 //001   ----------------------------------------
 BYTE   W96
//  #03 //002   ----------------------------------------
 BYTE   W96
//  #03 //003   ----------------------------------------
 BYTE   W96
//  #03 //004   ----------------------------------------
 BYTE   W96
//  #03 //005   ----------------------------------------
 BYTE   W96
//  #03 //006   ----------------------------------------
 BYTE   W96
//  #03 //007   ----------------------------------------
 BYTE   W96
//  #03 //008   ----------------------------------------
 BYTE   W96
//  #03 //009   ----------------------------------------
 BYTE   W96
//  #03 //010   ----------------------------------------
 BYTE   W96
//  #03 //011   ----------------------------------------
 BYTE   W96
//  #03 //012   ----------------------------------------
 BYTE   W96
//  #03 //013   ----------------------------------------
 BYTE   W96
//  #03 //014   ----------------------------------------
 BYTE   W96
//  #03 //015   ----------------------------------------
 BYTE   W96
//  #03 //016   ----------------------------------------
Label_C6A2D5:
 BYTE   W96
//  #03 //017   ----------------------------------------
 BYTE   W96
//  #03 //018   ----------------------------------------
 BYTE   W96
//  #03 //019   ----------------------------------------
 BYTE   W96
//  #03 //020   ----------------------------------------
 BYTE   W96
//  #03 //021   ----------------------------------------
 BYTE   W96
//  #03 //022   ----------------------------------------
 BYTE   W96
//  #03 //023   ----------------------------------------
 BYTE   W96
//  #03 //024   ----------------------------------------
 BYTE   W96
//  #03 //025   ----------------------------------------
 BYTE   W96
//  #03 //026   ----------------------------------------
 BYTE   W96
//  #03 //027   ----------------------------------------
 BYTE   W96
//  #03 //028   ----------------------------------------
 BYTE   W96
//  #03 //029   ----------------------------------------
 BYTE   W96
//  #03 //030   ----------------------------------------
 BYTE   W96
//  #03 //031   ----------------------------------------
 BYTE   W96
//  #03 //032   ----------------------------------------
 BYTE   W24
 BYTE   N92  As3  v100
 BYTE   N92  As4
 BYTE   W72
//  #03 //033   ----------------------------------------
 BYTE   W24
 BYTE   N23  As3
 BYTE   N23  As4
 BYTE   W24
 BYTE   Gs3
 BYTE   N23  Gs4
 BYTE   W24
 BYTE   Fs3
 BYTE   N23  Fs4
 BYTE   W24
//  #03 //034   ----------------------------------------
 BYTE   N92  Fs3
 BYTE   N92  Fs4
 BYTE   W96
//  #03 //035   ----------------------------------------
 BYTE   N11  Fs3
 BYTE   N11  Fs4
 BYTE   W12
 BYTE   Gs3
 BYTE   N11  Gs4
 BYTE   W12
 BYTE   Fs3
 BYTE   N11  Fs4
 BYTE   W12
 BYTE   Fn3
 BYTE   N11  Fn4
 BYTE   W12
 BYTE   Fs3
 BYTE   N11  Fs4
 BYTE   W12
 BYTE   Fn3
 BYTE   N11  Fn4
 BYTE   W12
 BYTE   Ds3
 BYTE   N11  Ds4
 BYTE   W12
 BYTE   Fs3
 BYTE   N11  Fs4
 BYTE   W12
//  #03 //036   ----------------------------------------
 BYTE   N23  Gs3
 BYTE   N23  Gs4
 BYTE   W24
 BYTE   Fs3
 BYTE   N23  Fs4
 BYTE   W24
 BYTE   Fn3
 BYTE   N23  Fn4
 BYTE   W24
 BYTE   Cs3
 BYTE   N23  Cs4
 BYTE   W24
//  #03 //037   ----------------------------------------
 BYTE   Gs3
 BYTE   N23  Gs4
 BYTE   W24
 BYTE   As3
 BYTE   N23  As4
 BYTE   W24
 BYTE   Cs4
 BYTE   N23  Cs5
 BYTE   W24
 BYTE   As3
 BYTE   N23  As4
 BYTE   W24
//  #03 //038   ----------------------------------------
 BYTE   N92  Ds4
 BYTE   N92  Ds5
 BYTE   W96
//  #03 //039   ----------------------------------------
 BYTE   N05  Fs4
 BYTE   N05  Fs5
 BYTE   W06
 BYTE   Ds4
 BYTE   N05  Ds5
 BYTE   W06
 BYTE   Cs4
 BYTE   N05  Cs5
 BYTE   W06
 BYTE   As3
 BYTE   N05  As4
 BYTE   W06
 BYTE   Ds4
 BYTE   N05  Ds5
 BYTE   W06
 BYTE   Cs4
 BYTE   N05  Cs5
 BYTE   W06
 BYTE   As3
 BYTE   N05  As4
 BYTE   W06
 BYTE   Gs3
 BYTE   N05  Gs4
 BYTE   W06
 BYTE   Fn4
 BYTE   N05  Fn5
 BYTE   W06
 BYTE   Ds4
 BYTE   N05  Ds5
 BYTE   W06
 BYTE   Cn4
 BYTE   N05  Cn5
 BYTE   W06
 BYTE   As3
 BYTE   N05  As4
 BYTE   W06
 BYTE   Ds4
 BYTE   N05  Ds5
 BYTE   W06
 BYTE   Cn4
 BYTE   N05  Cn5
 BYTE   W06
 BYTE   As3
 BYTE   N05  As4
 BYTE   W06
 BYTE   Gs3
 BYTE   N05  Gs4
 BYTE   W06
//  #03 //040   ----------------------------------------
 BYTE   As3
 BYTE   N05  As4
 BYTE   W06
 BYTE   N11  Ds4
 BYTE   N11  Ds5
 BYTE   W12
 BYTE   N05  As3
 BYTE   N05  As4
 BYTE   W06
 BYTE   N11  Ds4
 BYTE   N11  Ds5
 BYTE   W12
 BYTE   N05  As3
 BYTE   N05  As4
 BYTE   W06
 BYTE   N76  Ds4
 BYTE   N76  Ds5
 BYTE   W54
//  #03 //041   ----------------------------------------
 BYTE   W24
 BYTE   N05  Fs4
 BYTE   N05  Fs5
 BYTE   W06
 BYTE   Fn4
 BYTE   N05  Fn5
 BYTE   W06
 BYTE   Fs4
 BYTE   N05  Fs5
 BYTE   W06
 BYTE   Ds4
 BYTE   N05  Ds5
 BYTE   W06
 BYTE   Fn4
 BYTE   N05  Fn5
 BYTE   W06
 BYTE   Ds4
 BYTE   N05  Ds5
 BYTE   W06
 BYTE   Fn4
 BYTE   N05  Fn5
 BYTE   W06
 BYTE   Cs4
 BYTE   N05  Cs5
 BYTE   W06
 BYTE   Ds4
 BYTE   N05  Ds5
 BYTE   W06
 BYTE   Cs4
 BYTE   N05  Cs5
 BYTE   W06
 BYTE   Ds4
 BYTE   N05  Ds5
 BYTE   W06
 BYTE   As3
 BYTE   N05  As4
 BYTE   W06
//  #03 //042   ----------------------------------------
 BYTE   N11  Cs4
 BYTE   N11  Cs5
 BYTE   W12
 BYTE   Ds4
 BYTE   N11  Ds5
 BYTE   W12
 BYTE   N92  Fn4
 BYTE   N92  Fn5
 BYTE   W72
//  #03 //043   ----------------------------------------
 BYTE   W24
 BYTE   N23  Fs4
 BYTE   N23  Fs5
 BYTE   W24
 BYTE   Gs4
 BYTE   N23  Gs5
 BYTE   W24
 BYTE   As4
 BYTE   N23  As5
 BYTE   W24
//  #03 //044   ----------------------------------------
 BYTE   Gs4
 BYTE   N23  Gs5
 BYTE   W24
 BYTE   N11  Fs4
 BYTE   N11  Fs5
 BYTE   W12
 BYTE   Fn4
 BYTE   N11  Fn5
 BYTE   W12
 BYTE   N23  Fs4
 BYTE   N23  Fs5
 BYTE   W24
 BYTE   N11  Fn4
 BYTE   N11  Fn5
 BYTE   W12
 BYTE   Ds4
 BYTE   N11  Ds5
 BYTE   W12
//  #03 //045   ----------------------------------------
 BYTE   N05  Fn4
 BYTE   N05  Fn5
 BYTE   W06
 BYTE   Fs4
 BYTE   N05  Fs5
 BYTE   W06
 BYTE   Fn4
 BYTE   N05  Fn5
 BYTE   W06
 BYTE   Fs4
 BYTE   N05  Fs5
 BYTE   W06
 BYTE   Fn4
 BYTE   N05  Fn5
 BYTE   W06
 BYTE   Ds4
 BYTE   N05  Ds5
 BYTE   W06
 BYTE   Cs4
 BYTE   N05  Cs5
 BYTE   W06
 BYTE   As3
 BYTE   N05  As4
 BYTE   W06
 BYTE   Fn4
 BYTE   N05  Fn5
 BYTE   W06
 BYTE   Fs4
 BYTE   N05  Fs5
 BYTE   W06
 BYTE   Fn4
 BYTE   N05  Fn5
 BYTE   W06
 BYTE   Fs4
 BYTE   N05  Fs5
 BYTE   W06
 BYTE   Gs4
 BYTE   N05  Gs5
 BYTE   W06
 BYTE   As4
 BYTE   N05  As5
 BYTE   W06
 BYTE   Cs5
 BYTE   N05  Cs6
 BYTE   W06
 BYTE   Bn4
 BYTE   N05  Bn5
 BYTE   W06
//  #03 //046   ----------------------------------------
 BYTE   N44  As4
 BYTE   N44  As5
 BYTE   W48
 BYTE   N11  As4
 BYTE   N11  As5
 BYTE   W12
 BYTE   Gs4
 BYTE   N11  Gs5
 BYTE   W12
 BYTE   N05  As4
 BYTE   N05  As5
 BYTE   W06
 BYTE   Bn4
 BYTE   N05  Bn5
 BYTE   W06
 BYTE   As4
 BYTE   N05  As5
 BYTE   W06
 BYTE   Bn4
 BYTE   N05  Bn5
 BYTE   W06
//  #03 //047   ----------------------------------------
 BYTE   As4
 BYTE   N05  As5
 BYTE   W06
 BYTE   Gs4
 BYTE   N05  Gs5
 BYTE   W06
 BYTE   Fs4
 BYTE   N05  Fs5
 BYTE   W06
 BYTE   Fn4
 BYTE   N05  Fn5
 BYTE   W06
 BYTE   Gs4
 BYTE   N05  Gs5
 BYTE   W06
 BYTE   Fs4
 BYTE   N05  Fs5
 BYTE   W06
 BYTE   Fn4
 BYTE   N05  Fn5
 BYTE   W06
 BYTE   Ds4
 BYTE   N05  Ds5
 BYTE   W06
 BYTE   Fs4
 BYTE   N05  Fs5
 BYTE   W06
 BYTE   Fn4
 BYTE   N05  Fn5
 BYTE   W06
 BYTE   Ds4
 BYTE   N05  Ds5
 BYTE   W06
 BYTE   Cs4
 BYTE   N05  Cs5
 BYTE   W06
 BYTE   Fn4
 BYTE   N05  Fn5
 BYTE   W06
 BYTE   Ds4
 BYTE   N05  Ds5
 BYTE   W06
 BYTE   Cs4
 BYTE   N05  Cs5
 BYTE   W06
 BYTE   As3
 BYTE   N05  As4
 BYTE   W06
//  #03 //048   ----------------------------------------
 BYTE   W96
//  #03 //049   ----------------------------------------
 BYTE   W96
//  #03 //050   ----------------------------------------
 BYTE   W96
//  #03 //051   ----------------------------------------
 BYTE   W96
//  #03 //052   ----------------------------------------
 BYTE   W96
//  #03 //053   ----------------------------------------
 BYTE   W96
//  #03 //054   ----------------------------------------
 BYTE   W96
//  #03 //055   ----------------------------------------
 BYTE   W96
//  #03 //056   ----------------------------------------
 BYTE   N23  Ds5
 BYTE   W24
 BYTE   Dn5
 BYTE   W24
 BYTE   Ds5
 BYTE   W24
 BYTE   Gs5
 BYTE   W24
//  #03 //057   ----------------------------------------
 BYTE   Fs5
 BYTE   W24
 BYTE   Fn5
 BYTE   W24
 BYTE   Fs5
 BYTE   W24
 BYTE   Gs5
 BYTE   W24
//  #03 //058   ----------------------------------------
 BYTE   N05  Fn5
 BYTE   W06
 BYTE   Cs5
 BYTE   W06
 BYTE   N80  As4
 BYTE   W84
//  #03 //059   ----------------------------------------
 BYTE   N23  Gs4
 BYTE   W24
 BYTE   As4
 BYTE   W24
 BYTE   Cs5
 BYTE   W24
 BYTE   As4
 BYTE   W24
//  #03 //060   ----------------------------------------
 BYTE   N44  Ds5
 BYTE   W48
 BYTE   N23  Fn5
 BYTE   W24
 BYTE   Ds5
 BYTE   W24
//  #03 //061   ----------------------------------------
 BYTE   Fs5
 BYTE   W24
 BYTE   Fn5
 BYTE   W24
 BYTE   Gs5
 BYTE   W24
 BYTE   As5
 BYTE   W24
//  #03 //062   ----------------------------------------
 BYTE   N92  Cs6
 BYTE   W96
//  #03 //063   ----------------------------------------
 BYTE   Dn6
 BYTE   W96
//  #03 //064   ----------------------------------------
 BYTE   W96
//  #03 //065   ----------------------------------------
 BYTE   W96
//  #03 //066   ----------------------------------------
 BYTE   W96
//  #03 //067   ----------------------------------------
 BYTE   W96
//  #03 //068   ----------------------------------------
 BYTE   W96
//  #03 //069   ----------------------------------------
 BYTE   W96
//  #03 //070   ----------------------------------------
 BYTE   W96
//  #03 //071   ----------------------------------------
 BYTE   W96
//  #03 //072   ----------------------------------------
 BYTE   W96
//  #03 //073   ----------------------------------------
 BYTE   W96
//  #03 //074   ----------------------------------------
 BYTE   W96
//  #03 //075   ----------------------------------------
 BYTE   W96
//  #03 //076   ----------------------------------------
 BYTE   W96
//  #03 //077   ----------------------------------------
 BYTE   W96
//  #03 //078   ----------------------------------------
 BYTE   W96
//  #03 //079   ----------------------------------------
 BYTE   W96
//  #03 //080   ----------------------------------------
 BYTE   W96
//  #03 //081   ----------------------------------------
 BYTE   W96
//  #03 //082   ----------------------------------------
 BYTE   W96
//  #03 //083   ----------------------------------------
 BYTE   W96
//  #03 //084   ----------------------------------------
 BYTE   W96
//  #03 //085   ----------------------------------------
 BYTE   W96
//  #03 //086   ----------------------------------------
 BYTE   W96
//  #03 //087   ----------------------------------------
 BYTE   W96
//  #03 //088   ----------------------------------------
 BYTE   W96
//  #03 //089   ----------------------------------------
 BYTE   W96
//  #03 //090   ----------------------------------------
 BYTE   W96
//  #03 //091   ----------------------------------------
 BYTE   W96
//  #03 //092   ----------------------------------------
 BYTE   W96
//  #03 //093   ----------------------------------------
 BYTE   W96
//  #03 //094   ----------------------------------------
 BYTE   W96
//  #03 //095   ----------------------------------------
 BYTE   W96
//  #03 //096   ----------------------------------------
 BYTE   W96
//  #03 //097   ----------------------------------------
 BYTE   W96
//  #03 //098   ----------------------------------------
 BYTE   W96
//  #03 //099   ----------------------------------------
 BYTE   W96
//  #03 //100   ----------------------------------------
 BYTE   W96
//  #03 //101   ----------------------------------------
 BYTE   W96
//  #03 //102   ----------------------------------------
 BYTE   W96
//  #03 //103   ----------------------------------------
 BYTE   W96
//  #03 //104   ----------------------------------------
 BYTE   W96
//  #03 //105   ----------------------------------------
 BYTE   W96
//  #03 //106   ----------------------------------------
 BYTE   W96
//  #03 //107   ----------------------------------------
 BYTE   W96
//  #03 //108   ----------------------------------------
 BYTE   W96
//  #03 //109   ----------------------------------------
 BYTE   W96
//  #03 //110   ----------------------------------------
 BYTE   W96
//  #03 //111   ----------------------------------------
 BYTE   W96
//  #03 //112   ----------------------------------------
 BYTE   W96
//  #03 //113   ----------------------------------------
 BYTE   W96
//  #03 //114   ----------------------------------------
 BYTE   W96
//  #03 //115   ----------------------------------------
 BYTE   W96
//  #03 //116   ----------------------------------------
 BYTE   W96
//  #03 //117   ----------------------------------------
 BYTE   W96
//  #03 //118   ----------------------------------------
 BYTE   W96
//  #03 //119   ----------------------------------------
 BYTE   W96
//  #03 //120   ----------------------------------------
 BYTE   W96
//  #03 //121   ----------------------------------------
 BYTE   W96
//  #03 //122   ----------------------------------------
 BYTE   W96
//  #03 //123   ----------------------------------------
 BYTE   W96
//  #03 //124   ----------------------------------------
 BYTE   W96
//  #03 //125   ----------------------------------------
 BYTE   W96
//  #03 //126   ----------------------------------------
 BYTE   W96
//  #03 //127   ----------------------------------------
 BYTE   W96
//  #03 //128   ----------------------------------------
 BYTE   W96
//  #03 //129   ----------------------------------------
 BYTE   W96
//  #03 //130   ----------------------------------------
 BYTE   W96
//  #03 //131   ----------------------------------------
 BYTE   W96
//  #03 //132   ----------------------------------------
 BYTE   W96
//  #03 //133   ----------------------------------------
 BYTE   W96
//  #03 //134   ----------------------------------------
 BYTE   W96
//  #03 //135   ----------------------------------------
 BYTE   W96
//  #03 //136   ----------------------------------------
 BYTE   W96
//  #03 //137   ----------------------------------------
 BYTE   W96
//  #03 //138   ----------------------------------------
 BYTE   W96
//  #03 //139   ----------------------------------------
 BYTE   W96
//  #03 //140   ----------------------------------------
 BYTE   W96
//  #03 //141   ----------------------------------------
 BYTE   W96
//  #03 //142   ----------------------------------------
 BYTE   W96
//  #03 //143   ----------------------------------------
 BYTE   W96
//  #03 //144   ----------------------------------------
 BYTE   W96
//  #03 //145   ----------------------------------------
 BYTE   W96
//  #03 //146   ----------------------------------------
 BYTE   W96
//  #03 //147   ----------------------------------------
 BYTE   W96
//  #03 //148   ----------------------------------------
 BYTE   W96
//  #03 //149   ----------------------------------------
 BYTE   W96
//  #03 //150   ----------------------------------------
 BYTE   W96
//  #03 //151   ----------------------------------------
 BYTE   W96
//  #03 //152   ----------------------------------------
 BYTE   W96
//  #03 //153   ----------------------------------------
 BYTE   W96
//  #03 //154   ----------------------------------------
 BYTE   W96
//  #03 //155   ----------------------------------------
 BYTE   W96
//  #03 //156   ----------------------------------------
 BYTE   W96
//  #03 //157   ----------------------------------------
 BYTE   W96
//  #03 //158   ----------------------------------------
 BYTE   W96
//  #03 //159   ----------------------------------------
 BYTE   W96
//  #03 //160   ----------------------------------------
 BYTE   W96
//  #03 //161   ----------------------------------------
 BYTE   W96
//  #03 //162   ----------------------------------------
 BYTE   W96
//  #03 //163   ----------------------------------------
 BYTE   W96
//  #03 //164   ----------------------------------------
 BYTE   W96
//  #03 //165   ----------------------------------------
 BYTE   W96
//  #03 //166   ----------------------------------------
 BYTE   W96
//  #03 //167   ----------------------------------------
 BYTE   W96
//  #03 //168   ----------------------------------------
 BYTE   W96
//  #03 //169   ----------------------------------------
 BYTE   W96
//  #03 //170   ----------------------------------------
 BYTE   W96
//  #03 //171   ----------------------------------------
 BYTE   W96
//  #03 //172   ----------------------------------------
 BYTE   W96
//  #03 //173   ----------------------------------------
 BYTE   W96
//  #03 //174   ----------------------------------------
 BYTE   W96
//  #03 //175   ----------------------------------------
 BYTE   W96
//  #03 //176   ----------------------------------------
 BYTE   W96
//  #03 //177   ----------------------------------------
 BYTE   W96
//  #03 //178   ----------------------------------------
 BYTE   W96
//  #03 //179   ----------------------------------------
 BYTE   W96
//  #03 //180   ----------------------------------------
 BYTE   W96
//  #03 //181   ----------------------------------------
 BYTE   W96
//  #03 //182   ----------------------------------------
 BYTE   W96
//  #03 //183   ----------------------------------------
 BYTE   W96
//  #03 //184   ----------------------------------------
 BYTE   N23  Fn4
 BYTE   N23  Fn5
 BYTE   W24
 BYTE   En4
 BYTE   N23  En5
 BYTE   W24
 BYTE   Fn4
 BYTE   N23  Fn5
 BYTE   W24
 BYTE   As4
 BYTE   N23  As5
 BYTE   W24
//  #03 //185   ----------------------------------------
 BYTE   Gs4
 BYTE   N23  Gs5
 BYTE   W24
 BYTE   Gn4
 BYTE   N23  Gn5
 BYTE   W24
 BYTE   Gs4
 BYTE   N23  Gs5
 BYTE   W24
 BYTE   As4
 BYTE   N23  As5
 BYTE   W24
//  #03 //186   ----------------------------------------
 BYTE   N05  Gn4
 BYTE   N05  Gn5
 BYTE   W06
 BYTE   Ds4
 BYTE   N05  Ds5
 BYTE   W06
 BYTE   N80  Cn4
 BYTE   N80  Cn5
 BYTE   W84
//  #03 //187   ----------------------------------------
 BYTE   N23  As3
 BYTE   N23  As4
 BYTE   W24
 BYTE   Cn4
 BYTE   N23  Cn5
 BYTE   W24
 BYTE   Ds4
 BYTE   N23  Ds5
 BYTE   W24
 BYTE   Cn4
 BYTE   N23  Cn5
 BYTE   W24
//  #03 //188   ----------------------------------------
 BYTE   N44  Fn4
 BYTE   N44  Fn5
 BYTE   W48
 BYTE   N23  Gn4
 BYTE   N23  Gn5
 BYTE   W24
 BYTE   Fn4
 BYTE   N23  Fn5
 BYTE   W24
//  #03 //189   ----------------------------------------
 BYTE   Gs4
 BYTE   N23  Gs5
 BYTE   W24
 BYTE   Gn4
 BYTE   N23  Gn5
 BYTE   W24
 BYTE   As4
 BYTE   N23  As5
 BYTE   W24
 BYTE   Cn5
 BYTE   N23  Cn6
 BYTE   W24
//  #03 //190   ----------------------------------------
 BYTE   N92  Ds5
 BYTE   N92  Ds6
 BYTE   W96
//  #03 //191   ----------------------------------------
 BYTE   En5
 BYTE   N92  En6
 BYTE   W96
//  #03 //192   ----------------------------------------
 BYTE   GoTo
  POIN2 Label_C6A2D5
//  #03 //193   ----------------------------------------
 BYTE   PAN   c_v+0
 BYTE   En3  v064
 BYTE   BEND   c_v+0
 BYTE   FINE

//**************** Track 4 (Midi-Chn.3) ****************//

Revolution_004:
//  #04 //000   ----------------------------------------
 BYTE   KEYSH   Revolution_key+0
 BYTE   VOICE   18
 BYTE   VOL   54*Revolution_mvl/mxv
 BYTE   PAN   c_v+0
 BYTE   En3  v064
 BYTE   PAN   c_v+0
 BYTE   BEND   c_v+0
 BYTE   W96
//  #04 //001   ----------------------------------------
 BYTE   W96
//  #04 //002   ----------------------------------------
 BYTE   W96
//  #04 //003   ----------------------------------------
 BYTE   W96
//  #04 //004   ----------------------------------------
 BYTE   W96
//  #04 //005   ----------------------------------------
 BYTE   W96
//  #04 //006   ----------------------------------------
 BYTE   W96
//  #04 //007   ----------------------------------------
 BYTE   W96
//  #04 //008   ----------------------------------------
 BYTE   W96
//  #04 //009   ----------------------------------------
 BYTE   W96
//  #04 //010   ----------------------------------------
 BYTE   W96
//  #04 //011   ----------------------------------------
 BYTE   W96
//  #04 //012   ----------------------------------------
 BYTE   W96
//  #04 //013   ----------------------------------------
 BYTE   W96
//  #04 //014   ----------------------------------------
 BYTE   W96
//  #04 //015   ----------------------------------------
 BYTE   W96
//  #04 //016   ----------------------------------------
Label_C68F4D:
 BYTE   W96
//  #04 //017   ----------------------------------------
 BYTE   W96
//  #04 //018   ----------------------------------------
 BYTE   W96
//  #04 //019   ----------------------------------------
 BYTE   W96
//  #04 //020   ----------------------------------------
 BYTE   W96
//  #04 //021   ----------------------------------------
 BYTE   W96
//  #04 //022   ----------------------------------------
 BYTE   W96
//  #04 //023   ----------------------------------------
 BYTE   W96
//  #04 //024   ----------------------------------------
 BYTE   W96
//  #04 //025   ----------------------------------------
 BYTE   W96
//  #04 //026   ----------------------------------------
 BYTE   W96
//  #04 //027   ----------------------------------------
 BYTE   W96
//  #04 //028   ----------------------------------------
 BYTE   W96
//  #04 //029   ----------------------------------------
 BYTE   W96
//  #04 //030   ----------------------------------------
 BYTE   W96
//  #04 //031   ----------------------------------------
 BYTE   W96
//  #04 //032   ----------------------------------------
 BYTE   W96
//  #04 //033   ----------------------------------------
 BYTE   W96
//  #04 //034   ----------------------------------------
 BYTE   W96
//  #04 //035   ----------------------------------------
 BYTE   W96
//  #04 //036   ----------------------------------------
 BYTE   W96
//  #04 //037   ----------------------------------------
 BYTE   W96
//  #04 //038   ----------------------------------------
 BYTE   W96
//  #04 //039   ----------------------------------------
 BYTE   W96
//  #04 //040   ----------------------------------------
 BYTE   W96
//  #04 //041   ----------------------------------------
 BYTE   W96
//  #04 //042   ----------------------------------------
 BYTE   W96
//  #04 //043   ----------------------------------------
 BYTE   W96
//  #04 //044   ----------------------------------------
 BYTE   W96
//  #04 //045   ----------------------------------------
 BYTE   W96
//  #04 //046   ----------------------------------------
 BYTE   W96
//  #04 //047   ----------------------------------------
 BYTE   W96
//  #04 //048   ----------------------------------------
 BYTE   W96
//  #04 //049   ----------------------------------------
 BYTE   W96
//  #04 //050   ----------------------------------------
 BYTE   W96
//  #04 //051   ----------------------------------------
 BYTE   W96
//  #04 //052   ----------------------------------------
 BYTE   W96
//  #04 //053   ----------------------------------------
 BYTE   W96
//  #04 //054   ----------------------------------------
 BYTE   W96
//  #04 //055   ----------------------------------------
 BYTE   W96
//  #04 //056   ----------------------------------------
 BYTE   W96
//  #04 //057   ----------------------------------------
 BYTE   W96
//  #04 //058   ----------------------------------------
 BYTE   W96
//  #04 //059   ----------------------------------------
 BYTE   W96
//  #04 //060   ----------------------------------------
 BYTE   W96
//  #04 //061   ----------------------------------------
 BYTE   W96
//  #04 //062   ----------------------------------------
 BYTE   W96
//  #04 //063   ----------------------------------------
 BYTE   W96
//  #04 //064   ----------------------------------------
 BYTE   W96
//  #04 //065   ----------------------------------------
 BYTE   W96
//  #04 //066   ----------------------------------------
 BYTE   N92  Ds5  v100
 BYTE   W96
//  #04 //067   ----------------------------------------
 BYTE   Cs5
 BYTE   W96
//  #04 //068   ----------------------------------------
 BYTE   N92
 BYTE   W96
//  #04 //069   ----------------------------------------
 BYTE   Bn4
 BYTE   W96
//  #04 //070   ----------------------------------------
 BYTE   N92
 BYTE   W96
//  #04 //071   ----------------------------------------
 BYTE   As4
 BYTE   W96
//  #04 //072   ----------------------------------------
 BYTE   N92
 BYTE   W96
//  #04 //073   ----------------------------------------
 BYTE   Cs5
 BYTE   W96
//  #04 //074   ----------------------------------------
 BYTE   Ds5
 BYTE   W96
//  #04 //075   ----------------------------------------
 BYTE   Fs5
 BYTE   W96
//  #04 //076   ----------------------------------------
 BYTE   Fn5
 BYTE   W96
//  #04 //077   ----------------------------------------
 BYTE   Gs5
 BYTE   W96
//  #04 //078   ----------------------------------------
 BYTE   As5
 BYTE   W96
//  #04 //079   ----------------------------------------
 BYTE   Gs5
 BYTE   W96
//  #04 //080   ----------------------------------------
 BYTE   As5
 BYTE   W96
//  #04 //081   ----------------------------------------
 BYTE   Cs6
 BYTE   W96
//  #04 //082   ----------------------------------------
 BYTE   As4
 BYTE   N92  Ds5
 BYTE   W96
//  #04 //083   ----------------------------------------
 BYTE   Gs4
 BYTE   N92  Cs5
 BYTE   W96
//  #04 //084   ----------------------------------------
 BYTE   As4
 BYTE   N92  Ds5
 BYTE   W96
//  #04 //085   ----------------------------------------
 BYTE   Cn5
 BYTE   N92  Fn5
 BYTE   W96
//  #04 //086   ----------------------------------------
 BYTE   Cs5
 BYTE   N92  Fs5
 BYTE   W96
//  #04 //087   ----------------------------------------
 BYTE   Ds5
 BYTE   N92  Fs5
 BYTE   W96
//  #04 //088   ----------------------------------------
 BYTE   Fn5
 BYTE   N92  Gs5
 BYTE   W96
//  #04 //089   ----------------------------------------
 BYTE   Fn5
 BYTE   N92  As5
 BYTE   W96
//  #04 //090   ----------------------------------------
 BYTE   Fn5
 BYTE   N92  As5
 BYTE   W96
//  #04 //091   ----------------------------------------
 BYTE   N23  Fn5
 BYTE   N23  As5
 BYTE   W24
 BYTE   Ds5
 BYTE   N23  Gs5
 BYTE   W24
 BYTE   Cs5
 BYTE   N23  Fs5
 BYTE   W24
 BYTE   Cn5
 BYTE   N23  Fn5
 BYTE   W24
//  #04 //092   ----------------------------------------
Label_C68FD6:
 BYTE   N23  As4  v100
 BYTE   N23  Ds5
 BYTE   W24
 BYTE   An4
 BYTE   N23  Dn5
 BYTE   W24
 BYTE   As4
 BYTE   N23  Ds5
 BYTE   W24
 BYTE   N23
 BYTE   N23  Gs5
 BYTE   W24
 BYTE   PEND 
//  #04 //093   ----------------------------------------
Label_C68FE9:
 BYTE   N23  Cs5  v100
 BYTE   N23  Fs5
 BYTE   W24
 BYTE   Cn5
 BYTE   N23  Fn5
 BYTE   W24
 BYTE   Cs5
 BYTE   N23  Fs5
 BYTE   W24
 BYTE   Ds5
 BYTE   N23  Gs5
 BYTE   W24
 BYTE   PEND 
//  #04 //094   ----------------------------------------
 BYTE   TIE  Cn5
 BYTE   TIE  Fn5
 BYTE   W96
//  #04 //095   ----------------------------------------
 BYTE   W23
 BYTE   EOT
 BYTE   Cn5  v089
 BYTE   W01
 BYTE   N23  Cs5
 BYTE   N23  Fs5
 BYTE   W24
 BYTE   N05  Cn5
 BYTE   N05  Fn5
 BYTE   W06
 BYTE   Cs5
 BYTE   N05  Fs5
 BYTE   W06
 BYTE   Cn5
 BYTE   N05  Fn5
 BYTE   W06
 BYTE   Cs5
 BYTE   N05  Fs5
 BYTE   W06
 BYTE   Cn5
 BYTE   N05  Fn5
 BYTE   W06
 BYTE   As4
 BYTE   N05  Ds5
 BYTE   W06
 BYTE   Gs4
 BYTE   N05  Cs5
 BYTE   W06
 BYTE   Fn4
 BYTE   N05  As4
 BYTE   W06
//  #04 //096   ----------------------------------------
 BYTE   Ds4
 BYTE   N05  Gs4
 BYTE   W06
 BYTE   N05
 BYTE   N05  Cs5
 BYTE   W06
 BYTE   N11  As4
 BYTE   N11  Ds5
 BYTE   W12
 BYTE   N05  Gs4
 BYTE   N05  Cs5
 BYTE   W06
 BYTE   N11  As4
 BYTE   N11  Ds5
 BYTE   W12
 BYTE   N05  Gs4
 BYTE   N05  Cs5
 BYTE   W06
 BYTE   N68  As4
 BYTE   N68  Ds5
 BYTE   W48
//  #04 //097   ----------------------------------------
 BYTE   W24
 BYTE   N23  Cn5
 BYTE   N23  Fn5
 BYTE   W24
 BYTE   Cs5
 BYTE   N23  Fs5
 BYTE   W24
 BYTE   Ds5
 BYTE   N23  Gs5
 BYTE   W24
//  #04 //098   ----------------------------------------
 BYTE   N05  Cn5
 BYTE   N05  Fn5
 BYTE   W06
 BYTE   Cs5
 BYTE   N05  Fs5
 BYTE   W06
 BYTE   N56  Cn5
 BYTE   N56  Fn5
 BYTE   W60
 BYTE   N23  Cs5
 BYTE   N23  Fs5
 BYTE   W24
//  #04 //099   ----------------------------------------
 BYTE   N11  Ds5
 BYTE   N11  Gs5
 BYTE   W12
 BYTE   Fn5
 BYTE   N11  As5
 BYTE   W12
 BYTE   Ds5
 BYTE   N11  Gs5
 BYTE   W12
 BYTE   Cs5
 BYTE   N11  Fs5
 BYTE   W12
 BYTE   Ds5
 BYTE   N11  Gs5
 BYTE   W12
 BYTE   Fn5
 BYTE   N11  As5
 BYTE   W12
 BYTE   Cs5
 BYTE   N11  Fs5
 BYTE   W12
 BYTE   Cn5
 BYTE   N11  Fn5
 BYTE   W12
//  #04 //100   ----------------------------------------
 BYTE   PATT
  POIN2 Label_C68FD6
//  #04 //101   ----------------------------------------
 BYTE   PATT
  POIN2 Label_C68FE9
//  #04 //102   ----------------------------------------
 BYTE   N05  Cn5  v100
 BYTE   N05  Fn5
 BYTE   W06
 BYTE   Gs4
 BYTE   N05  Cs5
 BYTE   W06
 BYTE   N80  Fn4
 BYTE   N80  As4
 BYTE   W84
//  #04 //103   ----------------------------------------
 BYTE   N23  Ds4
 BYTE   N23  Gs4
 BYTE   W24
 BYTE   Fn4
 BYTE   N23  As4
 BYTE   W24
 BYTE   Gs4
 BYTE   N23  Cs5
 BYTE   W24
 BYTE   Fn4
 BYTE   N23  As4
 BYTE   W24
//  #04 //104   ----------------------------------------
 BYTE   N44
 BYTE   N44  Ds5
 BYTE   W48
 BYTE   N23  Cn5
 BYTE   N23  Fn5
 BYTE   W24
 BYTE   As4
 BYTE   N23  Ds5
 BYTE   W24
//  #04 //105   ----------------------------------------
 BYTE   Cs5
 BYTE   N23  Fs5
 BYTE   W24
 BYTE   Cn5
 BYTE   N23  Fn5
 BYTE   W24
 BYTE   Ds5
 BYTE   N23  Gs5
 BYTE   W24
 BYTE   Fn5
 BYTE   N23  As5
 BYTE   W24
//  #04 //106   ----------------------------------------
 BYTE   N92  Gs5
 BYTE   N92  Cs6
 BYTE   W96
//  #04 //107   ----------------------------------------
 BYTE   An5
 BYTE   N92  Dn6
 BYTE   W96
//  #04 //108   ----------------------------------------
 BYTE   N11  As5
 BYTE   N11  Ds6
 BYTE   W96
//  #04 //109   ----------------------------------------
 BYTE   W96
//  #04 //110   ----------------------------------------
 BYTE   W96
//  #04 //111   ----------------------------------------
 BYTE   W96
//  #04 //112   ----------------------------------------
 BYTE   W96
//  #04 //113   ----------------------------------------
 BYTE   W96
//  #04 //114   ----------------------------------------
 BYTE   W96
//  #04 //115   ----------------------------------------
 BYTE   W96
//  #04 //116   ----------------------------------------
 BYTE   W96
//  #04 //117   ----------------------------------------
 BYTE   W96
//  #04 //118   ----------------------------------------
 BYTE   W96
//  #04 //119   ----------------------------------------
 BYTE   W96
//  #04 //120   ----------------------------------------
 BYTE   W96
//  #04 //121   ----------------------------------------
 BYTE   W96
//  #04 //122   ----------------------------------------
 BYTE   W96
//  #04 //123   ----------------------------------------
 BYTE   W96
//  #04 //124   ----------------------------------------
 BYTE   W96
//  #04 //125   ----------------------------------------
 BYTE   W96
//  #04 //126   ----------------------------------------
 BYTE   W96
//  #04 //127   ----------------------------------------
 BYTE   W96
//  #04 //128   ----------------------------------------
 BYTE   W96
//  #04 //129   ----------------------------------------
 BYTE   W96
//  #04 //130   ----------------------------------------
 BYTE   W96
//  #04 //131   ----------------------------------------
 BYTE   W96
//  #04 //132   ----------------------------------------
 BYTE   W96
//  #04 //133   ----------------------------------------
 BYTE   W96
//  #04 //134   ----------------------------------------
 BYTE   W96
//  #04 //135   ----------------------------------------
 BYTE   W96
//  #04 //136   ----------------------------------------
Label_C690FF:
 BYTE   N23  Fn5  v100
 BYTE   W24
 BYTE   En5
 BYTE   W24
 BYTE   Fn5
 BYTE   W24
 BYTE   As5
 BYTE   W24
 BYTE   PEND 
//  #04 //137   ----------------------------------------
Label_C6910A:
 BYTE   N23  Gs5  v100
 BYTE   W24
 BYTE   Gn5
 BYTE   W24
 BYTE   Gs5
 BYTE   W24
 BYTE   As5
 BYTE   W24
 BYTE   PEND 
//  #04 //138   ----------------------------------------
 BYTE   TIE  Gn5
 BYTE   W96
//  #04 //139   ----------------------------------------
 BYTE   W23
 BYTE   EOT
 BYTE   W01
 BYTE   N23  Gs5
 BYTE   W24
 BYTE   N05  Gn5
 BYTE   W06
 BYTE   Gs5
 BYTE   W06
 BYTE   Gn5
 BYTE   W06
 BYTE   Gs5
 BYTE   W06
 BYTE   Gn5
 BYTE   W06
 BYTE   Fn5
 BYTE   W06
 BYTE   Ds5
 BYTE   W06
 BYTE   Cn5
 BYTE   W06
//  #04 //140   ----------------------------------------
 BYTE   As4
 BYTE   W06
 BYTE   Ds5
 BYTE   W06
 BYTE   N11  Fn5
 BYTE   W12
 BYTE   N05  Ds5
 BYTE   W06
 BYTE   N11  Fn5
 BYTE   W12
 BYTE   N05  Ds5
 BYTE   W06
 BYTE   N68  Fn5
 BYTE   W48
//  #04 //141   ----------------------------------------
 BYTE   W24
 BYTE   N23  Gn5
 BYTE   W24
 BYTE   Gs5
 BYTE   W24
 BYTE   As5
 BYTE   W24
//  #04 //142   ----------------------------------------
 BYTE   N05  Gn5
 BYTE   W06
 BYTE   Gs5
 BYTE   W06
 BYTE   N56  Gn5
 BYTE   W60
 BYTE   N23  Gs5
 BYTE   W24
//  #04 //143   ----------------------------------------
 BYTE   N11  As5
 BYTE   W12
 BYTE   Cn6
 BYTE   W12
 BYTE   As5
 BYTE   W12
 BYTE   Gs5
 BYTE   W12
 BYTE   As5
 BYTE   W12
 BYTE   Cn6
 BYTE   W12
 BYTE   Gs5
 BYTE   W12
 BYTE   Gn5
 BYTE   W12
//  #04 //144   ----------------------------------------
 BYTE   PATT
  POIN2 Label_C690FF
//  #04 //145   ----------------------------------------
 BYTE   PATT
  POIN2 Label_C6910A
//  #04 //146   ----------------------------------------
 BYTE   N05  Gn5  v100
 BYTE   W06
 BYTE   Ds5
 BYTE   W06
 BYTE   N80  Cn5
 BYTE   W84
//  #04 //147   ----------------------------------------
 BYTE   N23  As4
 BYTE   W24
 BYTE   Cn5
 BYTE   W24
 BYTE   Ds5
 BYTE   W24
 BYTE   Cn5
 BYTE   W24
//  #04 //148   ----------------------------------------
 BYTE   N44  Fn5
 BYTE   W48
 BYTE   N23  Gn5
 BYTE   W24
 BYTE   Fn5
 BYTE   W24
//  #04 //149   ----------------------------------------
 BYTE   Gs5
 BYTE   W24
 BYTE   Gn5
 BYTE   W24
 BYTE   As5
 BYTE   W24
 BYTE   Cn6
 BYTE   W24
//  #04 //150   ----------------------------------------
 BYTE   N92  Ds6
 BYTE   W96
//  #04 //151   ----------------------------------------
 BYTE   En6
 BYTE   W96
//  #04 //152   ----------------------------------------
 BYTE   N23  Cn5
 BYTE   N23  Fn5
 BYTE   N11  Fn6
 BYTE   W24
 BYTE   N23  Bn4
 BYTE   N23  En5
 BYTE   W24
 BYTE   Cn5
 BYTE   N23  Fn5
 BYTE   W24
 BYTE   N23
 BYTE   N23  As5
 BYTE   W24
//  #04 //153   ----------------------------------------
Label_C691AB:
 BYTE   N23  Ds5  v100
 BYTE   N23  Gs5
 BYTE   W24
 BYTE   Dn5
 BYTE   N23  Gn5
 BYTE   W24
 BYTE   Ds5
 BYTE   N23  Gs5
 BYTE   W24
 BYTE   Fn5
 BYTE   N23  As5
 BYTE   W24
 BYTE   PEND 
//  #04 //154   ----------------------------------------
 BYTE   TIE  Dn5
 BYTE   TIE  Gn5
 BYTE   W96
//  #04 //155   ----------------------------------------
 BYTE   W23
 BYTE   EOT
 BYTE   Dn5  v091
 BYTE   W01
 BYTE   N23  Ds5
 BYTE   N23  Gs5
 BYTE   W24
 BYTE   N05  Dn5
 BYTE   N05  Gn5
 BYTE   W06
 BYTE   Ds5
 BYTE   N05  Gs5
 BYTE   W06
 BYTE   Dn5
 BYTE   N05  Gn5
 BYTE   W06
 BYTE   Ds5
 BYTE   N05  Gs5
 BYTE   W06
 BYTE   Dn5
 BYTE   N05  Gn5
 BYTE   W06
 BYTE   Cn5
 BYTE   N05  Fn5
 BYTE   W06
 BYTE   As4
 BYTE   N05  Ds5
 BYTE   W06
 BYTE   Gn4
 BYTE   N05  Cn5
 BYTE   W06
//  #04 //156   ----------------------------------------
 BYTE   Fn4
 BYTE   N05  As4
 BYTE   W06
 BYTE   N05
 BYTE   N05  Ds5
 BYTE   W06
 BYTE   N11  Cn5
 BYTE   N11  Fn5
 BYTE   W12
 BYTE   N05  As4
 BYTE   N05  Ds5
 BYTE   W06
 BYTE   N11  Cn5
 BYTE   N11  Fn5
 BYTE   W12
 BYTE   N05  As4
 BYTE   N05  Ds5
 BYTE   W06
 BYTE   N68  Cn5
 BYTE   N68  Fn5
 BYTE   W48
//  #04 //157   ----------------------------------------
 BYTE   W24
 BYTE   N23  Dn5
 BYTE   N23  Gn5
 BYTE   W24
 BYTE   Ds5
 BYTE   N23  Gs5
 BYTE   W24
 BYTE   Fn5
 BYTE   N23  As5
 BYTE   W24
//  #04 //158   ----------------------------------------
 BYTE   N05  Dn5
 BYTE   N05  Gn5
 BYTE   W06
 BYTE   Ds5
 BYTE   N05  Gs5
 BYTE   W06
 BYTE   N56  Dn5
 BYTE   N56  Gn5
 BYTE   W60
 BYTE   N23  Ds5
 BYTE   N23  Gs5
 BYTE   W24
//  #04 //159   ----------------------------------------
 BYTE   N11  Fn5
 BYTE   N11  As5
 BYTE   W12
 BYTE   Gn5
 BYTE   N11  Cn6
 BYTE   W12
 BYTE   Fn5
 BYTE   N11  As5
 BYTE   W12
 BYTE   Ds5
 BYTE   N11  Gs5
 BYTE   W12
 BYTE   Fn5
 BYTE   N11  As5
 BYTE   W12
 BYTE   Gn5
 BYTE   N11  Cn6
 BYTE   W12
 BYTE   Ds5
 BYTE   N11  Gs5
 BYTE   W12
 BYTE   Dn5
 BYTE   N11  Gn5
 BYTE   W12
//  #04 //160   ----------------------------------------
 BYTE   N23  Cn5
 BYTE   N23  Fn5
 BYTE   W24
 BYTE   Bn4
 BYTE   N23  En5
 BYTE   W24
 BYTE   Cn5
 BYTE   N23  Fn5
 BYTE   W24
 BYTE   N23
 BYTE   N23  As5
 BYTE   W24
//  #04 //161   ----------------------------------------
 BYTE   PATT
  POIN2 Label_C691AB
//  #04 //162   ----------------------------------------
 BYTE   N05  Dn5  v100
 BYTE   N05  Gn5
 BYTE   W06
 BYTE   As4
 BYTE   N05  Ds5
 BYTE   W06
 BYTE   N80  Gn4
 BYTE   N80  Cn5
 BYTE   W84
//  #04 //163   ----------------------------------------
 BYTE   N23  Fn4
 BYTE   N23  As4
 BYTE   W24
 BYTE   Gn4
 BYTE   N23  Cn5
 BYTE   W24
 BYTE   As4
 BYTE   N23  Ds5
 BYTE   W24
 BYTE   Gn4
 BYTE   N23  Cn5
 BYTE   W24
//  #04 //164   ----------------------------------------
 BYTE   N44
 BYTE   N44  Fn5
 BYTE   W48
 BYTE   N23  Dn5
 BYTE   N23  Gn5
 BYTE   W24
 BYTE   Cn5
 BYTE   N23  Fn5
 BYTE   W24
//  #04 //165   ----------------------------------------
 BYTE   Ds5
 BYTE   N23  Gs5
 BYTE   W24
 BYTE   Dn5
 BYTE   N23  Gn5
 BYTE   W24
 BYTE   Fn5
 BYTE   N23  As5
 BYTE   W24
 BYTE   Gn5
 BYTE   N23  Cn6
 BYTE   W24
//  #04 //166   ----------------------------------------
 BYTE   N92  As5
 BYTE   N92  Ds6
 BYTE   W96
//  #04 //167   ----------------------------------------
 BYTE   Bn5
 BYTE   N92  En6
 BYTE   W96
//  #04 //168   ----------------------------------------
 BYTE   N11  Cn6
 BYTE   N11  Fn6
 BYTE   W96
//  #04 //169   ----------------------------------------
 BYTE   W96
//  #04 //170   ----------------------------------------
 BYTE   W96
//  #04 //171   ----------------------------------------
 BYTE   W96
//  #04 //172   ----------------------------------------
 BYTE   W96
//  #04 //173   ----------------------------------------
 BYTE   W96
//  #04 //174   ----------------------------------------
 BYTE   W96
//  #04 //175   ----------------------------------------
 BYTE   W96
//  #04 //176   ----------------------------------------
 BYTE   W96
//  #04 //177   ----------------------------------------
 BYTE   W96
//  #04 //178   ----------------------------------------
 BYTE   W96
//  #04 //179   ----------------------------------------
 BYTE   W96
//  #04 //180   ----------------------------------------
 BYTE   W96
//  #04 //181   ----------------------------------------
 BYTE   W96
//  #04 //182   ----------------------------------------
 BYTE   W96
//  #04 //183   ----------------------------------------
 BYTE   W96
//  #04 //184   ----------------------------------------
 BYTE   W96
//  #04 //185   ----------------------------------------
 BYTE   W96
//  #04 //186   ----------------------------------------
 BYTE   W96
//  #04 //187   ----------------------------------------
 BYTE   W96
//  #04 //188   ----------------------------------------
 BYTE   W96
//  #04 //189   ----------------------------------------
 BYTE   W96
//  #04 //190   ----------------------------------------
 BYTE   W96
//  #04 //191   ----------------------------------------
 BYTE   W96
//  #04 //192   ----------------------------------------
 BYTE   GoTo
  POIN2 Label_C68F4D
//  #04 //193   ----------------------------------------
 BYTE   PAN   c_v+0
 BYTE   En3  v064
 BYTE   BEND   c_v+0
 BYTE   FINE

//**************** Track 5 (Midi-Chn.4) ****************//

Revolution_005:
//  #05 //000   ----------------------------------------
 BYTE   KEYSH   Revolution_key+0
 BYTE   VOICE   40
 BYTE   VOL   29*Revolution_mvl/mxv
 BYTE   PAN   c_v+0
 BYTE   En3  v064
 BYTE   PAN   c_v+0
 BYTE   BEND   c_v+0
 BYTE   W96
//  #05 //001   ----------------------------------------
 BYTE   W96
//  #05 //002   ----------------------------------------
 BYTE   W96
//  #05 //003   ----------------------------------------
 BYTE   W96
//  #05 //004   ----------------------------------------
 BYTE   W96
//  #05 //005   ----------------------------------------
 BYTE   W96
//  #05 //006   ----------------------------------------
 BYTE   W96
//  #05 //007   ----------------------------------------
 BYTE   W96
//  #05 //008   ----------------------------------------
 BYTE   W96
//  #05 //009   ----------------------------------------
 BYTE   W96
//  #05 //010   ----------------------------------------
 BYTE   W96
//  #05 //011   ----------------------------------------
 BYTE   W96
//  #05 //012   ----------------------------------------
 BYTE   W96
//  #05 //013   ----------------------------------------
 BYTE   W96
//  #05 //014   ----------------------------------------
 BYTE   W96
//  #05 //015   ----------------------------------------
 BYTE   W96
//  #05 //016   ----------------------------------------
Label_C696E9:
 BYTE   N23  Ds3  v100
 BYTE   W24
 BYTE   Dn3
 BYTE   W24
 BYTE   Ds3
 BYTE   W24
 BYTE   Gs3
 BYTE   W24
 BYTE   PEND 
//  #05 //017   ----------------------------------------
Label_C696F4:
 BYTE   N23  Fs3  v100
 BYTE   W24
 BYTE   Fn3
 BYTE   W24
 BYTE   Fs3
 BYTE   W24
 BYTE   Gs3
 BYTE   W24
 BYTE   PEND 
//  #05 //018   ----------------------------------------
 BYTE   TIE  Fn3
 BYTE   W96
//  #05 //019   ----------------------------------------
 BYTE   W23
 BYTE   EOT
 BYTE   W01
 BYTE   N23  Fs3
 BYTE   W24
 BYTE   N05  Fn3
 BYTE   W06
 BYTE   Fs3
 BYTE   W06
 BYTE   Fn3
 BYTE   W06
 BYTE   Fs3
 BYTE   W06
 BYTE   Fn3
 BYTE   W06
 BYTE   Ds3
 BYTE   W06
 BYTE   Cs3
 BYTE   W06
 BYTE   As2
 BYTE   W06
//  #05 //020   ----------------------------------------
Label_C69719:
 BYTE   N05  Gs2  v100
 BYTE   W06
 BYTE   Cs3
 BYTE   W06
 BYTE   N11  Ds3
 BYTE   W12
 BYTE   N05  Cs3
 BYTE   W06
 BYTE   N11  Ds3
 BYTE   W12
 BYTE   N05  Cs3
 BYTE   W06
 BYTE   N68  Ds3
 BYTE   W48
 BYTE   PEND 
//  #05 //021   ----------------------------------------
Label_C6972F:
 BYTE   W24
 BYTE   N23  Fn3  v100
 BYTE   W24
 BYTE   Fs3
 BYTE   W24
 BYTE   Gs3
 BYTE   W24
 BYTE   PEND 
//  #05 //022   ----------------------------------------
Label_C69739:
 BYTE   N05  Fn3  v100
 BYTE   W06
 BYTE   Fs3
 BYTE   W06
 BYTE   N56  Fn3
 BYTE   W60
 BYTE   N23  Fs3
 BYTE   W24
 BYTE   PEND 
//  #05 //023   ----------------------------------------
Label_C69746:
 BYTE   N11  Gs3  v100
 BYTE   W12
 BYTE   As3
 BYTE   W12
 BYTE   Gs3
 BYTE   W12
 BYTE   Fs3
 BYTE   W12
 BYTE   Gs3
 BYTE   W12
 BYTE   As3
 BYTE   W12
 BYTE   Fs3
 BYTE   W12
 BYTE   Fn3
 BYTE   W12
 BYTE   PEND 
//  #05 //024   ----------------------------------------
 BYTE   PATT
  POIN2 Label_C696E9
//  #05 //025   ----------------------------------------
 BYTE   PATT
  POIN2 Label_C696F4
//  #05 //026   ----------------------------------------
Label_C69763:
 BYTE   N05  Fn3  v100
 BYTE   W06
 BYTE   Cs3
 BYTE   W06
 BYTE   N80  As2
 BYTE   W84
 BYTE   PEND 
//  #05 //027   ----------------------------------------
Label_C6976D:
 BYTE   N23  Gs2  v100
 BYTE   W24
 BYTE   As2
 BYTE   W24
 BYTE   Cs3
 BYTE   W24
 BYTE   As2
 BYTE   W24
 BYTE   PEND 
//  #05 //028   ----------------------------------------
Label_C69778:
 BYTE   N44  Ds3  v100
 BYTE   W48
 BYTE   N23  Fn3
 BYTE   W24
 BYTE   Ds3
 BYTE   W24
 BYTE   PEND 
//  #05 //029   ----------------------------------------
Label_C69782:
 BYTE   N23  Fs3  v100
 BYTE   W24
 BYTE   Fn3
 BYTE   W24
 BYTE   Gs3
 BYTE   W24
 BYTE   As3
 BYTE   W24
 BYTE   PEND 
//  #05 //030   ----------------------------------------
 BYTE   N92  Cs4
 BYTE   W96
//  #05 //031   ----------------------------------------
 BYTE   Dn4
 BYTE   W96
//  #05 //032   ----------------------------------------
 BYTE   N11  Ds4
 BYTE   W96
//  #05 //033   ----------------------------------------
 BYTE   W96
//  #05 //034   ----------------------------------------
 BYTE   W96
//  #05 //035   ----------------------------------------
 BYTE   W96
//  #05 //036   ----------------------------------------
 BYTE   W96
//  #05 //037   ----------------------------------------
 BYTE   W96
//  #05 //038   ----------------------------------------
 BYTE   W96
//  #05 //039   ----------------------------------------
 BYTE   W96
//  #05 //040   ----------------------------------------
 BYTE   N05  As2
 BYTE   W06
 BYTE   N11  Ds3
 BYTE   W12
 BYTE   N05  As2
 BYTE   W06
 BYTE   N11  Ds3
 BYTE   W12
 BYTE   N05  As2
 BYTE   W06
 BYTE   N76  Ds3
 BYTE   W54
//  #05 //041   ----------------------------------------
 BYTE   W24
 BYTE   N05  Fs3
 BYTE   W06
 BYTE   Fn3
 BYTE   W06
 BYTE   Fs3
 BYTE   W06
 BYTE   Ds3
 BYTE   W06
 BYTE   Fn3
 BYTE   W06
 BYTE   Ds3
 BYTE   W06
 BYTE   Fn3
 BYTE   W06
 BYTE   Cs3
 BYTE   W06
 BYTE   Ds3
 BYTE   W06
 BYTE   Cs3
 BYTE   W06
 BYTE   Ds3
 BYTE   W06
 BYTE   As2
 BYTE   W06
//  #05 //042   ----------------------------------------
 BYTE   N11  Cs3
 BYTE   W12
 BYTE   Ds3
 BYTE   W12
 BYTE   N92  Fn3
 BYTE   W72
//  #05 //043   ----------------------------------------
 BYTE   W24
 BYTE   N23  Fs3
 BYTE   W24
 BYTE   Gs3
 BYTE   W24
 BYTE   As3
 BYTE   W24
//  #05 //044   ----------------------------------------
 BYTE   Gs3
 BYTE   W24
 BYTE   N11  Fs3
 BYTE   W12
 BYTE   Fn3
 BYTE   W12
 BYTE   N23  Fs3
 BYTE   W24
 BYTE   N11  Fn3
 BYTE   W12
 BYTE   Ds3
 BYTE   W12
//  #05 //045   ----------------------------------------
 BYTE   N05  Fn3
 BYTE   W06
 BYTE   Fs3
 BYTE   W06
 BYTE   Fn3
 BYTE   W06
 BYTE   Fs3
 BYTE   W06
 BYTE   Fn3
 BYTE   W06
 BYTE   Ds3
 BYTE   W06
 BYTE   Cs3
 BYTE   W06
 BYTE   As2
 BYTE   W06
 BYTE   Fn3
 BYTE   W06
 BYTE   Fs3
 BYTE   W06
 BYTE   Fn3
 BYTE   W06
 BYTE   Fs3
 BYTE   W06
 BYTE   Gs3
 BYTE   W06
 BYTE   As3
 BYTE   W06
 BYTE   Cs4
 BYTE   W06
 BYTE   Bn3
 BYTE   W06
//  #05 //046   ----------------------------------------
 BYTE   N44  As3
 BYTE   W48
 BYTE   N11
 BYTE   W12
 BYTE   Gs3
 BYTE   W12
 BYTE   N05  As3
 BYTE   W06
 BYTE   Bn3
 BYTE   W06
 BYTE   As3
 BYTE   W06
 BYTE   Bn3
 BYTE   W06
//  #05 //047   ----------------------------------------
 BYTE   As3
 BYTE   W06
 BYTE   Gs3
 BYTE   W06
 BYTE   Fs3
 BYTE   W06
 BYTE   Fn3
 BYTE   W06
 BYTE   Ds3
 BYTE   W06
 BYTE   Cs3
 BYTE   W06
 BYTE   Bn2
 BYTE   W06
 BYTE   As2
 BYTE   W06
 BYTE   Bn2
 BYTE   W06
 BYTE   Cs3
 BYTE   W06
 BYTE   Bn2
 BYTE   W06
 BYTE   Cs3
 BYTE   W06
 BYTE   Ds3
 BYTE   W06
 BYTE   Cs3
 BYTE   W06
 BYTE   Ds3
 BYTE   W06
 BYTE   Fn3
 BYTE   W06
//  #05 //048   ----------------------------------------
 BYTE   PATT
  POIN2 Label_C696E9
//  #05 //049   ----------------------------------------
 BYTE   PATT
  POIN2 Label_C696F4
//  #05 //050   ----------------------------------------
 BYTE   TIE  Fn3  v100
 BYTE   W96
//  #05 //051   ----------------------------------------
 BYTE   W23
 BYTE   EOT
 BYTE   W01
 BYTE   N23  Fs3
 BYTE   W24
 BYTE   N05  Fn3
 BYTE   W06
 BYTE   Fs3
 BYTE   W06
 BYTE   Fn3
 BYTE   W06
 BYTE   Fs3
 BYTE   W06
 BYTE   Fn3
 BYTE   W06
 BYTE   Ds3
 BYTE   W06
 BYTE   Cs3
 BYTE   W06
 BYTE   As2
 BYTE   W06
//  #05 //052   ----------------------------------------
 BYTE   PATT
  POIN2 Label_C69719
//  #05 //053   ----------------------------------------
 BYTE   PATT
  POIN2 Label_C6972F
//  #05 //054   ----------------------------------------
 BYTE   PATT
  POIN2 Label_C69739
//  #05 //055   ----------------------------------------
 BYTE   PATT
  POIN2 Label_C69746
//  #05 //056   ----------------------------------------
 BYTE   PATT
  POIN2 Label_C696E9
//  #05 //057   ----------------------------------------
 BYTE   PATT
  POIN2 Label_C696F4
//  #05 //058   ----------------------------------------
 BYTE   PATT
  POIN2 Label_C69763
//  #05 //059   ----------------------------------------
 BYTE   PATT
  POIN2 Label_C6976D
//  #05 //060   ----------------------------------------
 BYTE   PATT
  POIN2 Label_C69778
//  #05 //061   ----------------------------------------
 BYTE   PATT
  POIN2 Label_C69782
//  #05 //062   ----------------------------------------
 BYTE   N92  Cs4  v100
 BYTE   W96
//  #05 //063   ----------------------------------------
 BYTE   Dn4
 BYTE   W96
//  #05 //064   ----------------------------------------
 BYTE   N11  Ds4
 BYTE   W96
//  #05 //065   ----------------------------------------
 BYTE   W96
//  #05 //066   ----------------------------------------
 BYTE   W96
//  #05 //067   ----------------------------------------
 BYTE   W96
//  #05 //068   ----------------------------------------
 BYTE   W96
//  #05 //069   ----------------------------------------
 BYTE   W96
//  #05 //070   ----------------------------------------
 BYTE   W96
//  #05 //071   ----------------------------------------
 BYTE   W96
//  #05 //072   ----------------------------------------
 BYTE   W96
//  #05 //073   ----------------------------------------
 BYTE   W96
//  #05 //074   ----------------------------------------
 BYTE   W96
//  #05 //075   ----------------------------------------
 BYTE   W96
//  #05 //076   ----------------------------------------
 BYTE   W96
//  #05 //077   ----------------------------------------
 BYTE   W96
//  #05 //078   ----------------------------------------
 BYTE   W96
//  #05 //079   ----------------------------------------
 BYTE   W96
//  #05 //080   ----------------------------------------
 BYTE   W96
//  #05 //081   ----------------------------------------
 BYTE   W96
//  #05 //082   ----------------------------------------
 BYTE   W96
//  #05 //083   ----------------------------------------
 BYTE   W96
//  #05 //084   ----------------------------------------
 BYTE   W96
//  #05 //085   ----------------------------------------
 BYTE   W96
//  #05 //086   ----------------------------------------
 BYTE   W96
//  #05 //087   ----------------------------------------
 BYTE   W96
//  #05 //088   ----------------------------------------
 BYTE   W96
//  #05 //089   ----------------------------------------
 BYTE   W96
//  #05 //090   ----------------------------------------
 BYTE   W96
//  #05 //091   ----------------------------------------
 BYTE   W96
//  #05 //092   ----------------------------------------
 BYTE   W96
//  #05 //093   ----------------------------------------
 BYTE   W96
//  #05 //094   ----------------------------------------
 BYTE   W96
//  #05 //095   ----------------------------------------
 BYTE   W96
//  #05 //096   ----------------------------------------
 BYTE   W96
//  #05 //097   ----------------------------------------
 BYTE   W96
//  #05 //098   ----------------------------------------
 BYTE   W96
//  #05 //099   ----------------------------------------
 BYTE   W96
//  #05 //100   ----------------------------------------
 BYTE   W96
//  #05 //101   ----------------------------------------
 BYTE   W96
//  #05 //102   ----------------------------------------
 BYTE   W96
//  #05 //103   ----------------------------------------
 BYTE   W96
//  #05 //104   ----------------------------------------
 BYTE   W96
//  #05 //105   ----------------------------------------
 BYTE   W96
//  #05 //106   ----------------------------------------
 BYTE   W96
//  #05 //107   ----------------------------------------
 BYTE   W96
//  #05 //108   ----------------------------------------
 BYTE   W96
//  #05 //109   ----------------------------------------
 BYTE   W96
//  #05 //110   ----------------------------------------
 BYTE   W96
//  #05 //111   ----------------------------------------
 BYTE   W96
//  #05 //112   ----------------------------------------
 BYTE   W96
//  #05 //113   ----------------------------------------
 BYTE   W96
//  #05 //114   ----------------------------------------
 BYTE   W96
//  #05 //115   ----------------------------------------
 BYTE   W96
//  #05 //116   ----------------------------------------
 BYTE   W96
//  #05 //117   ----------------------------------------
 BYTE   W96
//  #05 //118   ----------------------------------------
 BYTE   W96
//  #05 //119   ----------------------------------------
 BYTE   W96
//  #05 //120   ----------------------------------------
 BYTE   W96
//  #05 //121   ----------------------------------------
 BYTE   W96
//  #05 //122   ----------------------------------------
 BYTE   W96
//  #05 //123   ----------------------------------------
 BYTE   W96
//  #05 //124   ----------------------------------------
 BYTE   W96
//  #05 //125   ----------------------------------------
 BYTE   W96
//  #05 //126   ----------------------------------------
 BYTE   W96
//  #05 //127   ----------------------------------------
 BYTE   W96
//  #05 //128   ----------------------------------------
 BYTE   W96
//  #05 //129   ----------------------------------------
 BYTE   W96
//  #05 //130   ----------------------------------------
 BYTE   W96
//  #05 //131   ----------------------------------------
 BYTE   W96
//  #05 //132   ----------------------------------------
 BYTE   W96
//  #05 //133   ----------------------------------------
 BYTE   W96
//  #05 //134   ----------------------------------------
 BYTE   W96
//  #05 //135   ----------------------------------------
 BYTE   W96
//  #05 //136   ----------------------------------------
Label_C698DF:
 BYTE   N23  Fn3  v100
 BYTE   W24
 BYTE   En3
 BYTE   W24
 BYTE   Fn3
 BYTE   W24
 BYTE   As3
 BYTE   W24
 BYTE   PEND 
//  #05 //137   ----------------------------------------
Label_C698EA:
 BYTE   N23  Gs3  v100
 BYTE   W24
 BYTE   Gn3
 BYTE   W24
 BYTE   Gs3
 BYTE   W24
 BYTE   As3
 BYTE   W24
 BYTE   PEND 
//  #05 //138   ----------------------------------------
 BYTE   TIE  Gn3
 BYTE   W96
//  #05 //139   ----------------------------------------
 BYTE   W23
 BYTE   EOT
 BYTE   W01
 BYTE   N23  Gs3
 BYTE   W24
 BYTE   N05  Gn3
 BYTE   W06
 BYTE   Gs3
 BYTE   W06
 BYTE   Gn3
 BYTE   W06
 BYTE   Gs3
 BYTE   W06
 BYTE   Gn3
 BYTE   W06
 BYTE   Fn3
 BYTE   W06
 BYTE   Ds3
 BYTE   W06
 BYTE   Cn3
 BYTE   W06
//  #05 //140   ----------------------------------------
Label_C6990F:
 BYTE   N05  As2  v100
 BYTE   W06
 BYTE   Ds3
 BYTE   W06
 BYTE   N11  Fn3
 BYTE   W12
 BYTE   N05  Ds3
 BYTE   W06
 BYTE   N11  Fn3
 BYTE   W12
 BYTE   N05  Ds3
 BYTE   W06
 BYTE   N68  Fn3
 BYTE   W48
 BYTE   PEND 
//  #05 //141   ----------------------------------------
Label_C69925:
 BYTE   W24
 BYTE   N23  Gn3  v100
 BYTE   W24
 BYTE   Gs3
 BYTE   W24
 BYTE   As3
 BYTE   W24
 BYTE   PEND 
//  #05 //142   ----------------------------------------
Label_C6992F:
 BYTE   N05  Gn3  v100
 BYTE   W06
 BYTE   Gs3
 BYTE   W06
 BYTE   N56  Gn3
 BYTE   W60
 BYTE   N23  Gs3
 BYTE   W24
 BYTE   PEND 
//  #05 //143   ----------------------------------------
Label_C6993C:
 BYTE   N11  As3  v100
 BYTE   W12
 BYTE   Cn4
 BYTE   W12
 BYTE   As3
 BYTE   W12
 BYTE   Gs3
 BYTE   W12
 BYTE   As3
 BYTE   W12
 BYTE   Cn4
 BYTE   W12
 BYTE   Gs3
 BYTE   W12
 BYTE   Gn3
 BYTE   W12
 BYTE   PEND 
//  #05 //144   ----------------------------------------
 BYTE   PATT
  POIN2 Label_C698DF
//  #05 //145   ----------------------------------------
 BYTE   PATT
  POIN2 Label_C698EA
//  #05 //146   ----------------------------------------
Label_C69959:
 BYTE   N05  Gn3  v100
 BYTE   W06
 BYTE   Ds3
 BYTE   W06
 BYTE   N80  Cn3
 BYTE   W84
 BYTE   PEND 
//  #05 //147   ----------------------------------------
Label_C69963:
 BYTE   N23  As2  v100
 BYTE   W24
 BYTE   Cn3
 BYTE   W24
 BYTE   Ds3
 BYTE   W24
 BYTE   Cn3
 BYTE   W24
 BYTE   PEND 
//  #05 //148   ----------------------------------------
Label_C6996E:
 BYTE   N44  Fn3  v100
 BYTE   W48
 BYTE   N23  Gn3
 BYTE   W24
 BYTE   Fn3
 BYTE   W24
 BYTE   PEND 
//  #05 //149   ----------------------------------------
Label_C69978:
 BYTE   N23  Gs3  v100
 BYTE   W24
 BYTE   Gn3
 BYTE   W24
 BYTE   As3
 BYTE   W24
 BYTE   Cn4
 BYTE   W24
 BYTE   PEND 
//  #05 //150   ----------------------------------------
 BYTE   N92  Ds4
 BYTE   W96
//  #05 //151   ----------------------------------------
 BYTE   En4
 BYTE   W96
//  #05 //152   ----------------------------------------
Label_C69988:
 BYTE   N23  Fn3  v100
 BYTE   N11  Fn4
 BYTE   W24
 BYTE   N23  En3
 BYTE   W24
 BYTE   Fn3
 BYTE   W24
 BYTE   As3
 BYTE   W24
 BYTE   PEND 
//  #05 //153   ----------------------------------------
 BYTE   PATT
  POIN2 Label_C698EA
//  #05 //154   ----------------------------------------
 BYTE   TIE  Gn3  v100
 BYTE   W96
//  #05 //155   ----------------------------------------
 BYTE   W23
 BYTE   EOT
 BYTE   W01
 BYTE   N23  Gs3
 BYTE   W24
 BYTE   N05  Gn3
 BYTE   W06
 BYTE   Gs3
 BYTE   W06
 BYTE   Gn3
 BYTE   W06
 BYTE   Gs3
 BYTE   W06
 BYTE   Gn3
 BYTE   W06
 BYTE   Fn3
 BYTE   W06
 BYTE   Ds3
 BYTE   W06
 BYTE   Cn3
 BYTE   W06
//  #05 //156   ----------------------------------------
 BYTE   PATT
  POIN2 Label_C6990F
//  #05 //157   ----------------------------------------
 BYTE   PATT
  POIN2 Label_C69925
//  #05 //158   ----------------------------------------
 BYTE   PATT
  POIN2 Label_C6992F
//  #05 //159   ----------------------------------------
 BYTE   PATT
  POIN2 Label_C6993C
//  #05 //160   ----------------------------------------
 BYTE   PATT
  POIN2 Label_C698DF
//  #05 //161   ----------------------------------------
 BYTE   PATT
  POIN2 Label_C698EA
//  #05 //162   ----------------------------------------
 BYTE   PATT
  POIN2 Label_C69959
//  #05 //163   ----------------------------------------
 BYTE   PATT
  POIN2 Label_C69963
//  #05 //164   ----------------------------------------
 BYTE   PATT
  POIN2 Label_C6996E
//  #05 //165   ----------------------------------------
 BYTE   PATT
  POIN2 Label_C69978
//  #05 //166   ----------------------------------------
 BYTE   N92  Ds4  v100
 BYTE   W96
//  #05 //167   ----------------------------------------
 BYTE   En4
 BYTE   W96
//  #05 //168   ----------------------------------------
 BYTE   N11  Fn4
 BYTE   W96
//  #05 //169   ----------------------------------------
 BYTE   W96
//  #05 //170   ----------------------------------------
 BYTE   W96
//  #05 //171   ----------------------------------------
 BYTE   W96
//  #05 //172   ----------------------------------------
 BYTE   W96
//  #05 //173   ----------------------------------------
 BYTE   W96
//  #05 //174   ----------------------------------------
 BYTE   W96
//  #05 //175   ----------------------------------------
 BYTE   W96
//  #05 //176   ----------------------------------------
 BYTE   PATT
  POIN2 Label_C698DF
//  #05 //177   ----------------------------------------
 BYTE   PATT
  POIN2 Label_C698EA
//  #05 //178   ----------------------------------------
 BYTE   PATT
  POIN2 Label_C69959
//  #05 //179   ----------------------------------------
 BYTE   PATT
  POIN2 Label_C69963
//  #05 //180   ----------------------------------------
 BYTE   PATT
  POIN2 Label_C6996E
//  #05 //181   ----------------------------------------
 BYTE   PATT
  POIN2 Label_C69978
//  #05 //182   ----------------------------------------
 BYTE   N92  Ds4  v100
 BYTE   W96
//  #05 //183   ----------------------------------------
 BYTE   En4
 BYTE   W96
//  #05 //184   ----------------------------------------
 BYTE   PATT
  POIN2 Label_C69988
//  #05 //185   ----------------------------------------
 BYTE   PATT
  POIN2 Label_C698EA
//  #05 //186   ----------------------------------------
 BYTE   PATT
  POIN2 Label_C69959
//  #05 //187   ----------------------------------------
 BYTE   PATT
  POIN2 Label_C69963
//  #05 //188   ----------------------------------------
 BYTE   PATT
  POIN2 Label_C6996E
//  #05 //189   ----------------------------------------
 BYTE   PATT
  POIN2 Label_C69978
//  #05 //190   ----------------------------------------
 BYTE   N92  Ds4  v100
 BYTE   W96
//  #05 //191   ----------------------------------------
 BYTE   En4
 BYTE   W96
//  #05 //192   ----------------------------------------
 BYTE   GoTo
  POIN2 Label_C696E9
//  #05 //193   ----------------------------------------
 BYTE   PAN   c_v+0
 BYTE   En3  v064
 BYTE   BEND   c_v+0
 BYTE   FINE

//**************** Track 6 (Midi-Chn.5) ****************//

Revolution_006:
//  #06 //000   ----------------------------------------
 BYTE   KEYSH   Revolution_key+0
 BYTE   VOICE   81
 BYTE   VOL   35*Revolution_mvl/mxv
 BYTE   PAN   c_v+0
 BYTE   En3  v064
 BYTE   PAN   c_v+0
 BYTE   BEND   c_v+0
 BYTE   W96
//  #06 //001   ----------------------------------------
 BYTE   W96
//  #06 //002   ----------------------------------------
 BYTE   W96
//  #06 //003   ----------------------------------------
 BYTE   W96
//  #06 //004   ----------------------------------------
 BYTE   W96
//  #06 //005   ----------------------------------------
 BYTE   W96
//  #06 //006   ----------------------------------------
 BYTE   W96
//  #06 //007   ----------------------------------------
 BYTE   W96
//  #06 //008   ----------------------------------------
 BYTE   W96
//  #06 //009   ----------------------------------------
 BYTE   W96
//  #06 //010   ----------------------------------------
 BYTE   W96
//  #06 //011   ----------------------------------------
 BYTE   W96
//  #06 //012   ----------------------------------------
 BYTE   W96
//  #06 //013   ----------------------------------------
 BYTE   W96
//  #06 //014   ----------------------------------------
 BYTE   W96
//  #06 //015   ----------------------------------------
 BYTE   W96
//  #06 //016   ----------------------------------------
Label_01000E35:
 BYTE   N23  Ds3  v100
 BYTE   W24
 BYTE   Dn3
 BYTE   W24
 BYTE   Ds3
 BYTE   W24
 BYTE   Gs3
 BYTE   W24
 BYTE   PEND 
//  #06 //017   ----------------------------------------
Label_01000E40:
 BYTE   N23  Fs3  v100
 BYTE   W24
 BYTE   Fn3
 BYTE   W24
 BYTE   Fs3
 BYTE   W24
 BYTE   Gs3
 BYTE   W24
 BYTE   PEND 
//  #06 //018   ----------------------------------------
 BYTE   TIE  Fn3
 BYTE   W96
//  #06 //019   ----------------------------------------
 BYTE   W23
 BYTE   EOT
 BYTE   W01
 BYTE   N23  Fs3
 BYTE   W24
 BYTE   N05  Fn3
 BYTE   W06
 BYTE   Fs3
 BYTE   W06
 BYTE   Fn3
 BYTE   W06
 BYTE   Fs3
 BYTE   W06
 BYTE   Fn3
 BYTE   W06
 BYTE   Ds3
 BYTE   W06
 BYTE   Cs3
 BYTE   W06
 BYTE   As2
 BYTE   W06
//  #06 //020   ----------------------------------------
Label_01000E65:
 BYTE   N05  Gs2  v100
 BYTE   W06
 BYTE   Cs3
 BYTE   W06
 BYTE   N11  Ds3
 BYTE   W12
 BYTE   N05  Cs3
 BYTE   W06
 BYTE   N11  Ds3
 BYTE   W12
 BYTE   N05  Cs3
 BYTE   W06
 BYTE   N68  Ds3
 BYTE   W48
 BYTE   PEND 
//  #06 //021   ----------------------------------------
Label_01000E7B:
 BYTE   W24
 BYTE   N23  Fn3  v100
 BYTE   W24
 BYTE   Fs3
 BYTE   W24
 BYTE   Gs3
 BYTE   W24
 BYTE   PEND 
//  #06 //022   ----------------------------------------
Label_01000E85:
 BYTE   N05  Fn3  v100
 BYTE   W06
 BYTE   Fs3
 BYTE   W06
 BYTE   N56  Fn3
 BYTE   W60
 BYTE   N23  Fs3
 BYTE   W24
 BYTE   PEND 
//  #06 //023   ----------------------------------------
Label_01000E92:
 BYTE   N11  Gs3  v100
 BYTE   W12
 BYTE   As3
 BYTE   W12
 BYTE   Gs3
 BYTE   W12
 BYTE   Fs3
 BYTE   W12
 BYTE   Gs3
 BYTE   W12
 BYTE   As3
 BYTE   W12
 BYTE   Fs3
 BYTE   W12
 BYTE   Fn3
 BYTE   W12
 BYTE   PEND 
//  #06 //024   ----------------------------------------
 BYTE   PATT
  POIN2 Label_01000E35
//  #06 //025   ----------------------------------------
 BYTE   PATT
  POIN2 Label_01000E40
//  #06 //026   ----------------------------------------
Label_01000EAF:
 BYTE   N05  Fn3  v100
 BYTE   W06
 BYTE   Cs3
 BYTE   W06
 BYTE   N80  As2
 BYTE   W84
 BYTE   PEND 
//  #06 //027   ----------------------------------------
Label_01000EB9:
 BYTE   N23  Gs2  v100
 BYTE   W24
 BYTE   As2
 BYTE   W24
 BYTE   Cs3
 BYTE   W24
 BYTE   As2
 BYTE   W24
 BYTE   PEND 
//  #06 //028   ----------------------------------------
Label_01000EC4:
 BYTE   N44  Ds3  v100
 BYTE   W48
 BYTE   N23  Fn3
 BYTE   W24
 BYTE   Ds3
 BYTE   W24
 BYTE   PEND 
//  #06 //029   ----------------------------------------
Label_01000ECE:
 BYTE   N23  Fs3  v100
 BYTE   W24
 BYTE   Fn3
 BYTE   W24
 BYTE   Gs3
 BYTE   W24
 BYTE   As3
 BYTE   W24
 BYTE   PEND 
//  #06 //030   ----------------------------------------
 BYTE   N92  Cs4
 BYTE   W96
//  #06 //031   ----------------------------------------
 BYTE   Dn4
 BYTE   W96
//  #06 //032   ----------------------------------------
 BYTE   N11  Ds4
 BYTE   W96
//  #06 //033   ----------------------------------------
 BYTE   W96
//  #06 //034   ----------------------------------------
 BYTE   W96
//  #06 //035   ----------------------------------------
 BYTE   W96
//  #06 //036   ----------------------------------------
 BYTE   W96
//  #06 //037   ----------------------------------------
 BYTE   W96
//  #06 //038   ----------------------------------------
 BYTE   W96
//  #06 //039   ----------------------------------------
 BYTE   W96
//  #06 //040   ----------------------------------------
 BYTE   N05  As2
 BYTE   W06
 BYTE   N11  Ds3
 BYTE   W12
 BYTE   N05  As2
 BYTE   W06
 BYTE   N11  Ds3
 BYTE   W12
 BYTE   N05  As2
 BYTE   W06
 BYTE   N76  Ds3
 BYTE   W54
//  #06 //041   ----------------------------------------
 BYTE   W24
 BYTE   N05  Fs3
 BYTE   W06
 BYTE   Fn3
 BYTE   W06
 BYTE   Fs3
 BYTE   W06
 BYTE   Ds3
 BYTE   W06
 BYTE   Fn3
 BYTE   W06
 BYTE   Ds3
 BYTE   W06
 BYTE   Fn3
 BYTE   W06
 BYTE   Cs3
 BYTE   W06
 BYTE   Ds3
 BYTE   W06
 BYTE   Cs3
 BYTE   W06
 BYTE   Ds3
 BYTE   W06
 BYTE   As2
 BYTE   W06
//  #06 //042   ----------------------------------------
 BYTE   N11  Cs3
 BYTE   W12
 BYTE   Ds3
 BYTE   W12
 BYTE   N92  Fn3
 BYTE   W72
//  #06 //043   ----------------------------------------
 BYTE   W24
 BYTE   N23  Fs3
 BYTE   W24
 BYTE   Gs3
 BYTE   W24
 BYTE   As3
 BYTE   W24
//  #06 //044   ----------------------------------------
 BYTE   Gs3
 BYTE   W24
 BYTE   N11  Fs3
 BYTE   W12
 BYTE   Fn3
 BYTE   W12
 BYTE   N23  Fs3
 BYTE   W24
 BYTE   N11  Fn3
 BYTE   W12
 BYTE   Ds3
 BYTE   W12
//  #06 //045   ----------------------------------------
 BYTE   N05  Fn3
 BYTE   W06
 BYTE   Fs3
 BYTE   W06
 BYTE   Fn3
 BYTE   W06
 BYTE   Fs3
 BYTE   W06
 BYTE   Fn3
 BYTE   W06
 BYTE   Ds3
 BYTE   W06
 BYTE   Cs3
 BYTE   W06
 BYTE   As2
 BYTE   W06
 BYTE   Fn3
 BYTE   W06
 BYTE   Fs3
 BYTE   W06
 BYTE   Fn3
 BYTE   W06
 BYTE   Fs3
 BYTE   W06
 BYTE   Gs3
 BYTE   W06
 BYTE   As3
 BYTE   W06
 BYTE   Cs4
 BYTE   W06
 BYTE   Bn3
 BYTE   W06
//  #06 //046   ----------------------------------------
 BYTE   N44  As3
 BYTE   W48
 BYTE   N11
 BYTE   W12
 BYTE   Gs3
 BYTE   W12
 BYTE   N05  As3
 BYTE   W06
 BYTE   Bn3
 BYTE   W06
 BYTE   As3
 BYTE   W06
 BYTE   Bn3
 BYTE   W06
//  #06 //047   ----------------------------------------
 BYTE   As3
 BYTE   W06
 BYTE   Gs3
 BYTE   W06
 BYTE   Fs3
 BYTE   W06
 BYTE   Fn3
 BYTE   W06
 BYTE   Ds3
 BYTE   W06
 BYTE   Cs3
 BYTE   W06
 BYTE   Bn2
 BYTE   W06
 BYTE   As2
 BYTE   W06
 BYTE   Bn2
 BYTE   W06
 BYTE   Cs3
 BYTE   W06
 BYTE   Bn2
 BYTE   W06
 BYTE   Cs3
 BYTE   W06
 BYTE   Ds3
 BYTE   W06
 BYTE   Cs3
 BYTE   W06
 BYTE   Ds3
 BYTE   W06
 BYTE   Fn3
 BYTE   W06
//  #06 //048   ----------------------------------------
 BYTE   PATT
  POIN2 Label_01000E35
//  #06 //049   ----------------------------------------
 BYTE   PATT
  POIN2 Label_01000E40
//  #06 //050   ----------------------------------------
 BYTE   TIE  Fn3  v100
 BYTE   W96
//  #06 //051   ----------------------------------------
 BYTE   W23
 BYTE   EOT
 BYTE   W01
 BYTE   N23  Fs3
 BYTE   W24
 BYTE   N05  Fn3
 BYTE   W06
 BYTE   Fs3
 BYTE   W06
 BYTE   Fn3
 BYTE   W06
 BYTE   Fs3
 BYTE   W06
 BYTE   Fn3
 BYTE   W06
 BYTE   Ds3
 BYTE   W06
 BYTE   Cs3
 BYTE   W06
 BYTE   As2
 BYTE   W06
//  #06 //052   ----------------------------------------
 BYTE   PATT
  POIN2 Label_01000E65
//  #06 //053   ----------------------------------------
 BYTE   PATT
  POIN2 Label_01000E7B
//  #06 //054   ----------------------------------------
 BYTE   PATT
  POIN2 Label_01000E85
//  #06 //055   ----------------------------------------
 BYTE   PATT
  POIN2 Label_01000E92
//  #06 //056   ----------------------------------------
 BYTE   PATT
  POIN2 Label_01000E35
//  #06 //057   ----------------------------------------
 BYTE   PATT
  POIN2 Label_01000E40
//  #06 //058   ----------------------------------------
 BYTE   PATT
  POIN2 Label_01000EAF
//  #06 //059   ----------------------------------------
 BYTE   PATT
  POIN2 Label_01000EB9
//  #06 //060   ----------------------------------------
 BYTE   PATT
  POIN2 Label_01000EC4
//  #06 //061   ----------------------------------------
 BYTE   PATT
  POIN2 Label_01000ECE
//  #06 //062   ----------------------------------------
 BYTE   N92  Cs4  v100
 BYTE   W96
//  #06 //063   ----------------------------------------
 BYTE   Dn4
 BYTE   W96
//  #06 //064   ----------------------------------------
 BYTE   N11  Ds4
 BYTE   W96
//  #06 //065   ----------------------------------------
 BYTE   W96
//  #06 //066   ----------------------------------------
 BYTE   W96
//  #06 //067   ----------------------------------------
 BYTE   W96
//  #06 //068   ----------------------------------------
 BYTE   W96
//  #06 //069   ----------------------------------------
 BYTE   W96
//  #06 //070   ----------------------------------------
 BYTE   W96
//  #06 //071   ----------------------------------------
 BYTE   W96
//  #06 //072   ----------------------------------------
 BYTE   W96
//  #06 //073   ----------------------------------------
 BYTE   W96
//  #06 //074   ----------------------------------------
 BYTE   W96
//  #06 //075   ----------------------------------------
 BYTE   W96
//  #06 //076   ----------------------------------------
 BYTE   W96
//  #06 //077   ----------------------------------------
 BYTE   W96
//  #06 //078   ----------------------------------------
 BYTE   W96
//  #06 //079   ----------------------------------------
 BYTE   W96
//  #06 //080   ----------------------------------------
 BYTE   W96
//  #06 //081   ----------------------------------------
 BYTE   W96
//  #06 //082   ----------------------------------------
 BYTE   W96
//  #06 //083   ----------------------------------------
 BYTE   W96
//  #06 //084   ----------------------------------------
 BYTE   W96
//  #06 //085   ----------------------------------------
 BYTE   W96
//  #06 //086   ----------------------------------------
 BYTE   W96
//  #06 //087   ----------------------------------------
 BYTE   W96
//  #06 //088   ----------------------------------------
 BYTE   W96
//  #06 //089   ----------------------------------------
 BYTE   W96
//  #06 //090   ----------------------------------------
 BYTE   W96
//  #06 //091   ----------------------------------------
 BYTE   W96
//  #06 //092   ----------------------------------------
 BYTE   W96
//  #06 //093   ----------------------------------------
 BYTE   W96
//  #06 //094   ----------------------------------------
 BYTE   W96
//  #06 //095   ----------------------------------------
 BYTE   W96
//  #06 //096   ----------------------------------------
 BYTE   W96
//  #06 //097   ----------------------------------------
 BYTE   W96
//  #06 //098   ----------------------------------------
 BYTE   W96
//  #06 //099   ----------------------------------------
 BYTE   W96
//  #06 //100   ----------------------------------------
 BYTE   W96
//  #06 //101   ----------------------------------------
 BYTE   W96
//  #06 //102   ----------------------------------------
 BYTE   W96
//  #06 //103   ----------------------------------------
 BYTE   W96
//  #06 //104   ----------------------------------------
 BYTE   W96
//  #06 //105   ----------------------------------------
 BYTE   W96
//  #06 //106   ----------------------------------------
 BYTE   W96
//  #06 //107   ----------------------------------------
 BYTE   W96
//  #06 //108   ----------------------------------------
 BYTE   W96
//  #06 //109   ----------------------------------------
 BYTE   W96
//  #06 //110   ----------------------------------------
 BYTE   W96
//  #06 //111   ----------------------------------------
 BYTE   W96
//  #06 //112   ----------------------------------------
 BYTE   W96
//  #06 //113   ----------------------------------------
 BYTE   W96
//  #06 //114   ----------------------------------------
 BYTE   W96
//  #06 //115   ----------------------------------------
 BYTE   W96
//  #06 //116   ----------------------------------------
 BYTE   W96
//  #06 //117   ----------------------------------------
 BYTE   W96
//  #06 //118   ----------------------------------------
 BYTE   W96
//  #06 //119   ----------------------------------------
 BYTE   W96
//  #06 //120   ----------------------------------------
 BYTE   W96
//  #06 //121   ----------------------------------------
 BYTE   W96
//  #06 //122   ----------------------------------------
 BYTE   W96
//  #06 //123   ----------------------------------------
 BYTE   W96
//  #06 //124   ----------------------------------------
 BYTE   W96
//  #06 //125   ----------------------------------------
 BYTE   W96
//  #06 //126   ----------------------------------------
 BYTE   W96
//  #06 //127   ----------------------------------------
 BYTE   W96
//  #06 //128   ----------------------------------------
 BYTE   W96
//  #06 //129   ----------------------------------------
 BYTE   W96
//  #06 //130   ----------------------------------------
 BYTE   W96
//  #06 //131   ----------------------------------------
 BYTE   W96
//  #06 //132   ----------------------------------------
 BYTE   W96
//  #06 //133   ----------------------------------------
 BYTE   W96
//  #06 //134   ----------------------------------------
 BYTE   W96
//  #06 //135   ----------------------------------------
 BYTE   W96
//  #06 //136   ----------------------------------------
Label_0100102B:
 BYTE   N23  Fn3  v100
 BYTE   W24
 BYTE   En3
 BYTE   W24
 BYTE   Fn3
 BYTE   W24
 BYTE   As3
 BYTE   W24
 BYTE   PEND 
//  #06 //137   ----------------------------------------
Label_01001036:
 BYTE   N23  Gs3  v100
 BYTE   W24
 BYTE   Gn3
 BYTE   W24
 BYTE   Gs3
 BYTE   W24
 BYTE   As3
 BYTE   W24
 BYTE   PEND 
//  #06 //138   ----------------------------------------
 BYTE   TIE  Gn3
 BYTE   W96
//  #06 //139   ----------------------------------------
 BYTE   W23
 BYTE   EOT
 BYTE   W01
 BYTE   N23  Gs3
 BYTE   W24
 BYTE   N05  Gn3
 BYTE   W06
 BYTE   Gs3
 BYTE   W06
 BYTE   Gn3
 BYTE   W06
 BYTE   Gs3
 BYTE   W06
 BYTE   Gn3
 BYTE   W06
 BYTE   Fn3
 BYTE   W06
 BYTE   Ds3
 BYTE   W06
 BYTE   Cn3
 BYTE   W06
//  #06 //140   ----------------------------------------
Label_0100105B:
 BYTE   N05  As2  v100
 BYTE   W06
 BYTE   Ds3
 BYTE   W06
 BYTE   N11  Fn3
 BYTE   W12
 BYTE   N05  Ds3
 BYTE   W06
 BYTE   N11  Fn3
 BYTE   W12
 BYTE   N05  Ds3
 BYTE   W06
 BYTE   N68  Fn3
 BYTE   W48
 BYTE   PEND 
//  #06 //141   ----------------------------------------
Label_01001071:
 BYTE   W24
 BYTE   N23  Gn3  v100
 BYTE   W24
 BYTE   Gs3
 BYTE   W24
 BYTE   As3
 BYTE   W24
 BYTE   PEND 
//  #06 //142   ----------------------------------------
Label_0100107B:
 BYTE   N05  Gn3  v100
 BYTE   W06
 BYTE   Gs3
 BYTE   W06
 BYTE   N56  Gn3
 BYTE   W60
 BYTE   N23  Gs3
 BYTE   W24
 BYTE   PEND 
//  #06 //143   ----------------------------------------
Label_01001088:
 BYTE   N11  As3  v100
 BYTE   W12
 BYTE   Cn4
 BYTE   W12
 BYTE   As3
 BYTE   W12
 BYTE   Gs3
 BYTE   W12
 BYTE   As3
 BYTE   W12
 BYTE   Cn4
 BYTE   W12
 BYTE   Gs3
 BYTE   W12
 BYTE   Gn3
 BYTE   W12
 BYTE   PEND 
//  #06 //144   ----------------------------------------
 BYTE   PATT
  POIN2 Label_0100102B
//  #06 //145   ----------------------------------------
 BYTE   PATT
  POIN2 Label_01001036
//  #06 //146   ----------------------------------------
Label_010010A5:
 BYTE   N05  Gn3  v100
 BYTE   W06
 BYTE   Ds3
 BYTE   W06
 BYTE   N80  Cn3
 BYTE   W84
 BYTE   PEND 
//  #06 //147   ----------------------------------------
Label_010010AF:
 BYTE   N23  As2  v100
 BYTE   W24
 BYTE   Cn3
 BYTE   W24
 BYTE   Ds3
 BYTE   W24
 BYTE   Cn3
 BYTE   W24
 BYTE   PEND 
//  #06 //148   ----------------------------------------
Label_010010BA:
 BYTE   N44  Fn3  v100
 BYTE   W48
 BYTE   N23  Gn3
 BYTE   W24
 BYTE   Fn3
 BYTE   W24
 BYTE   PEND 
//  #06 //149   ----------------------------------------
Label_010010C4:
 BYTE   N23  Gs3  v100
 BYTE   W24
 BYTE   Gn3
 BYTE   W24
 BYTE   As3
 BYTE   W24
 BYTE   Cn4
 BYTE   W24
 BYTE   PEND 
//  #06 //150   ----------------------------------------
 BYTE   N92  Ds4
 BYTE   W96
//  #06 //151   ----------------------------------------
 BYTE   En4
 BYTE   W96
//  #06 //152   ----------------------------------------
Label_010010D4:
 BYTE   N23  Fn3  v100
 BYTE   N11  Fn4
 BYTE   W24
 BYTE   N23  En3
 BYTE   W24
 BYTE   Fn3
 BYTE   W24
 BYTE   As3
 BYTE   W24
 BYTE   PEND 
//  #06 //153   ----------------------------------------
 BYTE   PATT
  POIN2 Label_01001036
//  #06 //154   ----------------------------------------
 BYTE   TIE  Gn3  v100
 BYTE   W96
//  #06 //155   ----------------------------------------
 BYTE   W23
 BYTE   EOT
 BYTE   W01
 BYTE   N23  Gs3
 BYTE   W24
 BYTE   N05  Gn3
 BYTE   W06
 BYTE   Gs3
 BYTE   W06
 BYTE   Gn3
 BYTE   W06
 BYTE   Gs3
 BYTE   W06
 BYTE   Gn3
 BYTE   W06
 BYTE   Fn3
 BYTE   W06
 BYTE   Ds3
 BYTE   W06
 BYTE   Cn3
 BYTE   W06
//  #06 //156   ----------------------------------------
 BYTE   PATT
  POIN2 Label_0100105B
//  #06 //157   ----------------------------------------
 BYTE   PATT
  POIN2 Label_01001071
//  #06 //158   ----------------------------------------
 BYTE   PATT
  POIN2 Label_0100107B
//  #06 //159   ----------------------------------------
 BYTE   PATT
  POIN2 Label_01001088
//  #06 //160   ----------------------------------------
 BYTE   PATT
  POIN2 Label_0100102B
//  #06 //161   ----------------------------------------
 BYTE   PATT
  POIN2 Label_01001036
//  #06 //162   ----------------------------------------
 BYTE   PATT
  POIN2 Label_010010A5
//  #06 //163   ----------------------------------------
 BYTE   PATT
  POIN2 Label_010010AF
//  #06 //164   ----------------------------------------
 BYTE   PATT
  POIN2 Label_010010BA
//  #06 //165   ----------------------------------------
 BYTE   PATT
  POIN2 Label_010010C4
//  #06 //166   ----------------------------------------
 BYTE   N92  Ds4  v100
 BYTE   W96
//  #06 //167   ----------------------------------------
 BYTE   En4
 BYTE   W96
//  #06 //168   ----------------------------------------
 BYTE   N11  Fn4
 BYTE   W96
//  #06 //169   ----------------------------------------
 BYTE   W96
//  #06 //170   ----------------------------------------
 BYTE   W96
//  #06 //171   ----------------------------------------
 BYTE   W96
//  #06 //172   ----------------------------------------
 BYTE   W96
//  #06 //173   ----------------------------------------
 BYTE   W96
//  #06 //174   ----------------------------------------
 BYTE   W96
//  #06 //175   ----------------------------------------
 BYTE   W96
//  #06 //176   ----------------------------------------
 BYTE   PATT
  POIN2 Label_0100102B
//  #06 //177   ----------------------------------------
 BYTE   PATT
  POIN2 Label_01001036
//  #06 //178   ----------------------------------------
 BYTE   PATT
  POIN2 Label_010010A5
//  #06 //179   ----------------------------------------
 BYTE   PATT
  POIN2 Label_010010AF
//  #06 //180   ----------------------------------------
 BYTE   PATT
  POIN2 Label_010010BA
//  #06 //181   ----------------------------------------
 BYTE   PATT
  POIN2 Label_010010C4
//  #06 //182   ----------------------------------------
 BYTE   N92  Ds4  v100
 BYTE   W96
//  #06 //183   ----------------------------------------
 BYTE   En4
 BYTE   W96
//  #06 //184   ----------------------------------------
 BYTE   PATT
  POIN2 Label_010010D4
//  #06 //185   ----------------------------------------
 BYTE   PATT
  POIN2 Label_01001036
//  #06 //186   ----------------------------------------
 BYTE   PATT
  POIN2 Label_010010A5
//  #06 //187   ----------------------------------------
 BYTE   PATT
  POIN2 Label_010010AF
//  #06 //188   ----------------------------------------
 BYTE   PATT
  POIN2 Label_010010BA
//  #06 //189   ----------------------------------------
 BYTE   PATT
  POIN2 Label_010010C4
//  #06 //190   ----------------------------------------
 BYTE   N92  Ds4  v100
 BYTE   W96
//  #06 //191   ----------------------------------------
 BYTE   En4
 BYTE   W96
//  #06 //192   ----------------------------------------
 BYTE   GoTo
  POIN2 Label_01000E35
//  #06 //193   ----------------------------------------
 BYTE   PAN   c_v+0
 BYTE   En3  v064
 BYTE   BEND   c_v+0
 BYTE   FINE

//**************** Track 7 (Midi-Chn.6) ****************//

Revolution_007:
//  #07 //000   ----------------------------------------
 BYTE   KEYSH   Revolution_key+0
 BYTE   VOICE   10
 BYTE   VOL   22*Revolution_mvl/mxv
 BYTE   PAN   c_v+0
 BYTE   En3  v064
 BYTE   PAN   c_v+0
 BYTE   BEND   c_v+0
 BYTE   W96
//  #07 //001   ----------------------------------------
 BYTE   W96
//  #07 //002   ----------------------------------------
 BYTE   W96
//  #07 //003   ----------------------------------------
 BYTE   W96
//  #07 //004   ----------------------------------------
 BYTE   W96
//  #07 //005   ----------------------------------------
 BYTE   W96
//  #07 //006   ----------------------------------------
 BYTE   W96
//  #07 //007   ----------------------------------------
 BYTE   W96
//  #07 //008   ----------------------------------------
 BYTE   W96
//  #07 //009   ----------------------------------------
 BYTE   W96
//  #07 //010   ----------------------------------------
 BYTE   W96
//  #07 //011   ----------------------------------------
 BYTE   W96
//  #07 //012   ----------------------------------------
 BYTE   W96
//  #07 //013   ----------------------------------------
 BYTE   W96
//  #07 //014   ----------------------------------------
 BYTE   W96
//  #07 //015   ----------------------------------------
 BYTE   W96
//  #07 //016   ----------------------------------------
Label_010011B5:
 BYTE   W96
//  #07 //017   ----------------------------------------
 BYTE   W96
//  #07 //018   ----------------------------------------
 BYTE   W96
//  #07 //019   ----------------------------------------
 BYTE   W96
//  #07 //020   ----------------------------------------
 BYTE   W96
//  #07 //021   ----------------------------------------
 BYTE   W96
//  #07 //022   ----------------------------------------
 BYTE   W96
//  #07 //023   ----------------------------------------
 BYTE   W96
//  #07 //024   ----------------------------------------
 BYTE   W96
//  #07 //025   ----------------------------------------
 BYTE   W96
//  #07 //026   ----------------------------------------
 BYTE   W96
//  #07 //027   ----------------------------------------
 BYTE   W96
//  #07 //028   ----------------------------------------
 BYTE   W96
//  #07 //029   ----------------------------------------
 BYTE   W96
//  #07 //030   ----------------------------------------
 BYTE   W96
//  #07 //031   ----------------------------------------
 BYTE   W96
//  #07 //032   ----------------------------------------
 BYTE   W96
//  #07 //033   ----------------------------------------
 BYTE   W96
//  #07 //034   ----------------------------------------
 BYTE   W96
//  #07 //035   ----------------------------------------
 BYTE   W96
//  #07 //036   ----------------------------------------
 BYTE   W96
//  #07 //037   ----------------------------------------
 BYTE   W96
//  #07 //038   ----------------------------------------
 BYTE   W96
//  #07 //039   ----------------------------------------
 BYTE   W96
//  #07 //040   ----------------------------------------
 BYTE   W96
//  #07 //041   ----------------------------------------
 BYTE   W96
//  #07 //042   ----------------------------------------
 BYTE   W96
//  #07 //043   ----------------------------------------
 BYTE   W96
//  #07 //044   ----------------------------------------
 BYTE   W96
//  #07 //045   ----------------------------------------
 BYTE   W96
//  #07 //046   ----------------------------------------
 BYTE   W96
//  #07 //047   ----------------------------------------
 BYTE   W96
//  #07 //048   ----------------------------------------
Label_010011D5:
 BYTE   N05  Ds4  v100
 BYTE   W06
 BYTE   Cs4
 BYTE   W06
 BYTE   Ds4
 BYTE   W06
 BYTE   Cs4
 BYTE   W06
 BYTE   Fs4
 BYTE   W06
 BYTE   Fn4
 BYTE   W06
 BYTE   Fs4
 BYTE   W06
 BYTE   Fn4
 BYTE   W06
 BYTE   Gs4
 BYTE   W06
 BYTE   Fs4
 BYTE   W06
 BYTE   Gs4
 BYTE   W06
 BYTE   Fs4
 BYTE   W06
 BYTE   As4
 BYTE   W06
 BYTE   Gs4
 BYTE   W06
 BYTE   Fs4
 BYTE   W06
 BYTE   Fn4
 BYTE   W06
 BYTE   PEND 
//  #07 //049   ----------------------------------------
Label_010011F8:
 BYTE   N05  Ds4  v100
 BYTE   W06
 BYTE   Cs4
 BYTE   W06
 BYTE   As3
 BYTE   W06
 BYTE   Gs3
 BYTE   W06
 BYTE   As3
 BYTE   W06
 BYTE   Cs4
 BYTE   W06
 BYTE   As3
 BYTE   W06
 BYTE   Gs3
 BYTE   W06
 BYTE   Fs3
 BYTE   W06
 BYTE   Fn3
 BYTE   W06
 BYTE   Fs3
 BYTE   W06
 BYTE   Gs3
 BYTE   W06
 BYTE   As3
 BYTE   W06
 BYTE   Gs3
 BYTE   W06
 BYTE   As3
 BYTE   W06
 BYTE   Cs4
 BYTE   W06
 BYTE   PEND 
//  #07 //050   ----------------------------------------
 BYTE   PATT
  POIN2 Label_010011D5
//  #07 //051   ----------------------------------------
 BYTE   PATT
  POIN2 Label_010011F8
//  #07 //052   ----------------------------------------
 BYTE   PATT
  POIN2 Label_010011D5
//  #07 //053   ----------------------------------------
 BYTE   PATT
  POIN2 Label_010011F8
//  #07 //054   ----------------------------------------
 BYTE   PATT
  POIN2 Label_010011D5
//  #07 //055   ----------------------------------------
 BYTE   PATT
  POIN2 Label_010011F8
//  #07 //056   ----------------------------------------
 BYTE   PATT
  POIN2 Label_010011D5
//  #07 //057   ----------------------------------------
 BYTE   PATT
  POIN2 Label_010011F8
//  #07 //058   ----------------------------------------
 BYTE   PATT
  POIN2 Label_010011D5
//  #07 //059   ----------------------------------------
 BYTE   PATT
  POIN2 Label_010011F8
//  #07 //060   ----------------------------------------
 BYTE   PATT
  POIN2 Label_010011D5
//  #07 //061   ----------------------------------------
 BYTE   PATT
  POIN2 Label_010011F8
//  #07 //062   ----------------------------------------
 BYTE   PATT
  POIN2 Label_010011D5
//  #07 //063   ----------------------------------------
Label_0100125C:
 BYTE   N05  Dn4  v100
 BYTE   W06
 BYTE   N05
 BYTE   W06
 BYTE   N05
 BYTE   W06
 BYTE   N05
 BYTE   W06
 BYTE   Fn4
 BYTE   W06
 BYTE   N05
 BYTE   W06
 BYTE   N05
 BYTE   W06
 BYTE   N05
 BYTE   W06
 BYTE   As4
 BYTE   W06
 BYTE   N05
 BYTE   W06
 BYTE   N05
 BYTE   W06
 BYTE   N05
 BYTE   W06
 BYTE   Fn4
 BYTE   W06
 BYTE   N05
 BYTE   W06
 BYTE   Dn4
 BYTE   W06
 BYTE   N05
 BYTE   W06
 BYTE   PEND 
//  #07 //064   ----------------------------------------
 BYTE   N11  Ds4
 BYTE   W12
 BYTE   Cs4
 BYTE   W12
 BYTE   N05  Ds4
 BYTE   W06
 BYTE   Cs4
 BYTE   W06
 BYTE   Bn3
 BYTE   W06
 BYTE   As3
 BYTE   W06
 BYTE   N11  Bn3
 BYTE   W12
 BYTE   As3
 BYTE   W12
 BYTE   N05  Gs3
 BYTE   W06
 BYTE   As3
 BYTE   W06
 BYTE   Bn3
 BYTE   W06
 BYTE   Cs4
 BYTE   W06
//  #07 //065   ----------------------------------------
 BYTE   N11  As3
 BYTE   W12
 BYTE   N11
 BYTE   W12
 BYTE   N05
 BYTE   W06
 BYTE   N05
 BYTE   W06
 BYTE   N05
 BYTE   W06
 BYTE   N05
 BYTE   W06
 BYTE   N11  Ds4
 BYTE   W12
 BYTE   N11
 BYTE   W12
 BYTE   N23
 BYTE   W24
//  #07 //066   ----------------------------------------
 BYTE   W96
//  #07 //067   ----------------------------------------
 BYTE   W96
//  #07 //068   ----------------------------------------
 BYTE   W96
//  #07 //069   ----------------------------------------
 BYTE   W96
//  #07 //070   ----------------------------------------
 BYTE   W96
//  #07 //071   ----------------------------------------
 BYTE   W96
//  #07 //072   ----------------------------------------
 BYTE   W96
//  #07 //073   ----------------------------------------
 BYTE   W96
//  #07 //074   ----------------------------------------
 BYTE   PATT
  POIN2 Label_010011D5
//  #07 //075   ----------------------------------------
 BYTE   PATT
  POIN2 Label_010011F8
//  #07 //076   ----------------------------------------
 BYTE   PATT
  POIN2 Label_010011D5
//  #07 //077   ----------------------------------------
 BYTE   PATT
  POIN2 Label_010011F8
//  #07 //078   ----------------------------------------
 BYTE   PATT
  POIN2 Label_010011D5
//  #07 //079   ----------------------------------------
 BYTE   PATT
  POIN2 Label_010011F8
//  #07 //080   ----------------------------------------
 BYTE   PATT
  POIN2 Label_010011D5
//  #07 //081   ----------------------------------------
 BYTE   PATT
  POIN2 Label_010011F8
//  #07 //082   ----------------------------------------
Label_010012DF:
 BYTE   N05  Cs4  v100
 BYTE   W06
 BYTE   As3
 BYTE   W06
 BYTE   Gs3
 BYTE   W06
 BYTE   As3
 BYTE   W06
 BYTE   Gs3
 BYTE   W06
 BYTE   Fs3
 BYTE   W06
 BYTE   Fn3
 BYTE   W06
 BYTE   Fs3
 BYTE   W06
 BYTE   Gs3
 BYTE   W06
 BYTE   As3
 BYTE   W06
 BYTE   Cs4
 BYTE   W06
 BYTE   As3
 BYTE   W06
 BYTE   Gs3
 BYTE   W06
 BYTE   As3
 BYTE   W06
 BYTE   Cs4
 BYTE   W06
 BYTE   Ds4
 BYTE   W06
 BYTE   PEND 
//  #07 //083   ----------------------------------------
Label_01001302:
 BYTE   N05  Fn4  v100
 BYTE   W06
 BYTE   Fs4
 BYTE   W06
 BYTE   Gs4
 BYTE   W06
 BYTE   As4
 BYTE   W06
 BYTE   Fs4
 BYTE   W06
 BYTE   Gs4
 BYTE   W06
 BYTE   Fs4
 BYTE   W06
 BYTE   Gs4
 BYTE   W06
 BYTE   Fn4
 BYTE   W06
 BYTE   Fs4
 BYTE   W06
 BYTE   Fn4
 BYTE   W06
 BYTE   Fs4
 BYTE   W06
 BYTE   Cs4
 BYTE   W06
 BYTE   Ds4
 BYTE   W06
 BYTE   Cs4
 BYTE   W06
 BYTE   Ds4
 BYTE   W06
 BYTE   PEND 
//  #07 //084   ----------------------------------------
 BYTE   PATT
  POIN2 Label_010012DF
//  #07 //085   ----------------------------------------
 BYTE   PATT
  POIN2 Label_01001302
//  #07 //086   ----------------------------------------
 BYTE   PATT
  POIN2 Label_010012DF
//  #07 //087   ----------------------------------------
 BYTE   PATT
  POIN2 Label_01001302
//  #07 //088   ----------------------------------------
 BYTE   PATT
  POIN2 Label_010012DF
//  #07 //089   ----------------------------------------
 BYTE   PATT
  POIN2 Label_01001302
//  #07 //090   ----------------------------------------
 BYTE   PATT
  POIN2 Label_010011D5
//  #07 //091   ----------------------------------------
 BYTE   PATT
  POIN2 Label_010011F8
//  #07 //092   ----------------------------------------
 BYTE   PATT
  POIN2 Label_010011D5
//  #07 //093   ----------------------------------------
 BYTE   PATT
  POIN2 Label_010011F8
//  #07 //094   ----------------------------------------
 BYTE   PATT
  POIN2 Label_010011D5
//  #07 //095   ----------------------------------------
 BYTE   PATT
  POIN2 Label_010011F8
//  #07 //096   ----------------------------------------
 BYTE   PATT
  POIN2 Label_010011D5
//  #07 //097   ----------------------------------------
 BYTE   PATT
  POIN2 Label_010011F8
//  #07 //098   ----------------------------------------
 BYTE   PATT
  POIN2 Label_010011D5
//  #07 //099   ----------------------------------------
 BYTE   PATT
  POIN2 Label_010011F8
//  #07 //100   ----------------------------------------
 BYTE   PATT
  POIN2 Label_010011D5
//  #07 //101   ----------------------------------------
 BYTE   PATT
  POIN2 Label_010011F8
//  #07 //102   ----------------------------------------
 BYTE   PATT
  POIN2 Label_010011D5
//  #07 //103   ----------------------------------------
 BYTE   PATT
  POIN2 Label_010011F8
//  #07 //104   ----------------------------------------
 BYTE   PATT
  POIN2 Label_010011D5
//  #07 //105   ----------------------------------------
 BYTE   PATT
  POIN2 Label_010011F8
//  #07 //106   ----------------------------------------
 BYTE   PATT
  POIN2 Label_010011D5
//  #07 //107   ----------------------------------------
 BYTE   PATT
  POIN2 Label_0100125C
//  #07 //108   ----------------------------------------
 BYTE   W96
//  #07 //109   ----------------------------------------
 BYTE   W96
//  #07 //110   ----------------------------------------
 BYTE   W96
//  #07 //111   ----------------------------------------
 BYTE   W96
//  #07 //112   ----------------------------------------
 BYTE   W96
//  #07 //113   ----------------------------------------
 BYTE   W96
//  #07 //114   ----------------------------------------
 BYTE   W96
//  #07 //115   ----------------------------------------
 BYTE   W96
//  #07 //116   ----------------------------------------
 BYTE   W96
//  #07 //117   ----------------------------------------
 BYTE   W96
//  #07 //118   ----------------------------------------
 BYTE   W96
//  #07 //119   ----------------------------------------
 BYTE   W96
//  #07 //120   ----------------------------------------
 BYTE   W96
//  #07 //121   ----------------------------------------
 BYTE   W96
//  #07 //122   ----------------------------------------
 BYTE   W96
//  #07 //123   ----------------------------------------
 BYTE   W96
//  #07 //124   ----------------------------------------
 BYTE   W96
//  #07 //125   ----------------------------------------
 BYTE   W96
//  #07 //126   ----------------------------------------
 BYTE   W96
//  #07 //127   ----------------------------------------
 BYTE   W96
//  #07 //128   ----------------------------------------
 BYTE   W96
//  #07 //129   ----------------------------------------
 BYTE   W96
//  #07 //130   ----------------------------------------
 BYTE   W96
//  #07 //131   ----------------------------------------
 BYTE   W96
//  #07 //132   ----------------------------------------
 BYTE   W96
//  #07 //133   ----------------------------------------
 BYTE   W96
//  #07 //134   ----------------------------------------
 BYTE   W96
//  #07 //135   ----------------------------------------
 BYTE   W96
//  #07 //136   ----------------------------------------
 BYTE   W96
//  #07 //137   ----------------------------------------
 BYTE   W96
//  #07 //138   ----------------------------------------
 BYTE   W96
//  #07 //139   ----------------------------------------
 BYTE   W96
//  #07 //140   ----------------------------------------
 BYTE   W96
//  #07 //141   ----------------------------------------
 BYTE   W96
//  #07 //142   ----------------------------------------
 BYTE   W96
//  #07 //143   ----------------------------------------
 BYTE   W96
//  #07 //144   ----------------------------------------
Label_010013C1:
 BYTE   N05  Fn4  v100
 BYTE   W06
 BYTE   Ds4
 BYTE   W06
 BYTE   Fn4
 BYTE   W06
 BYTE   Ds4
 BYTE   W06
 BYTE   Gs4
 BYTE   W06
 BYTE   Gn4
 BYTE   W06
 BYTE   Gs4
 BYTE   W06
 BYTE   Gn4
 BYTE   W06
 BYTE   As4
 BYTE   W06
 BYTE   Gs4
 BYTE   W06
 BYTE   As4
 BYTE   W06
 BYTE   Gs4
 BYTE   W06
 BYTE   Cn5
 BYTE   W06
 BYTE   As4
 BYTE   W06
 BYTE   Gs4
 BYTE   W06
 BYTE   Gn4
 BYTE   W06
 BYTE   PEND 
//  #07 //145   ----------------------------------------
Label_010013E4:
 BYTE   N05  Fn4  v100
 BYTE   W06
 BYTE   Ds4
 BYTE   W06
 BYTE   Cn4
 BYTE   W06
 BYTE   As3
 BYTE   W06
 BYTE   Cn4
 BYTE   W06
 BYTE   Ds4
 BYTE   W06
 BYTE   Cn4
 BYTE   W06
 BYTE   As3
 BYTE   W06
 BYTE   Gs3
 BYTE   W06
 BYTE   Gn3
 BYTE   W06
 BYTE   Gs3
 BYTE   W06
 BYTE   As3
 BYTE   W06
 BYTE   Cn4
 BYTE   W06
 BYTE   As3
 BYTE   W06
 BYTE   Cn4
 BYTE   W06
 BYTE   Ds4
 BYTE   W06
 BYTE   PEND 
//  #07 //146   ----------------------------------------
 BYTE   PATT
  POIN2 Label_010013C1
//  #07 //147   ----------------------------------------
 BYTE   PATT
  POIN2 Label_010013E4
//  #07 //148   ----------------------------------------
 BYTE   PATT
  POIN2 Label_010013C1
//  #07 //149   ----------------------------------------
 BYTE   PATT
  POIN2 Label_010013E4
//  #07 //150   ----------------------------------------
 BYTE   PATT
  POIN2 Label_010013C1
//  #07 //151   ----------------------------------------
Label_01001420:
 BYTE   N05  En4  v100
 BYTE   W06
 BYTE   N05
 BYTE   W06
 BYTE   N05
 BYTE   W06
 BYTE   N05
 BYTE   W06
 BYTE   Gn4
 BYTE   W06
 BYTE   N05
 BYTE   W06
 BYTE   N05
 BYTE   W06
 BYTE   N05
 BYTE   W06
 BYTE   Cn5
 BYTE   W06
 BYTE   N05
 BYTE   W06
 BYTE   N05
 BYTE   W06
 BYTE   N05
 BYTE   W06
 BYTE   Gn4
 BYTE   W06
 BYTE   N05
 BYTE   W06
 BYTE   En4
 BYTE   W06
 BYTE   N05
 BYTE   W06
 BYTE   PEND 
//  #07 //152   ----------------------------------------
Label_01001443:
 BYTE   N05  Gn4  v100
 BYTE   W06
 BYTE   Gs4
 BYTE   W06
 BYTE   As4
 BYTE   W06
 BYTE   Cn5
 BYTE   W06
 BYTE   Gs4
 BYTE   W06
 BYTE   As4
 BYTE   W06
 BYTE   Gs4
 BYTE   W06
 BYTE   As4
 BYTE   W06
 BYTE   Gn4
 BYTE   W06
 BYTE   Gs4
 BYTE   W06
 BYTE   Gn4
 BYTE   W06
 BYTE   Gs4
 BYTE   W06
 BYTE   Ds4
 BYTE   W06
 BYTE   Fn4
 BYTE   W06
 BYTE   Ds4
 BYTE   W06
 BYTE   Fn4
 BYTE   W06
 BYTE   PEND 
//  #07 //153   ----------------------------------------
Label_01001466:
 BYTE   N05  Ds4  v100
 BYTE   W06
 BYTE   Cn4
 BYTE   W06
 BYTE   As3
 BYTE   W06
 BYTE   Cn4
 BYTE   W06
 BYTE   As3
 BYTE   W06
 BYTE   Gs3
 BYTE   W06
 BYTE   Gn3
 BYTE   W06
 BYTE   Gs3
 BYTE   W06
 BYTE   As3
 BYTE   W06
 BYTE   Cn4
 BYTE   W06
 BYTE   Ds4
 BYTE   W06
 BYTE   Cn4
 BYTE   W06
 BYTE   As3
 BYTE   W06
 BYTE   Cn4
 BYTE   W06
 BYTE   Ds4
 BYTE   W06
 BYTE   Fn4
 BYTE   W06
 BYTE   PEND 
//  #07 //154   ----------------------------------------
 BYTE   PATT
  POIN2 Label_01001443
//  #07 //155   ----------------------------------------
 BYTE   PATT
  POIN2 Label_01001466
//  #07 //156   ----------------------------------------
 BYTE   PATT
  POIN2 Label_01001443
//  #07 //157   ----------------------------------------
 BYTE   PATT
  POIN2 Label_01001466
//  #07 //158   ----------------------------------------
 BYTE   PATT
  POIN2 Label_01001443
//  #07 //159   ----------------------------------------
 BYTE   PATT
  POIN2 Label_01001466
//  #07 //160   ----------------------------------------
 BYTE   PATT
  POIN2 Label_01001443
//  #07 //161   ----------------------------------------
 BYTE   PATT
  POIN2 Label_01001466
//  #07 //162   ----------------------------------------
 BYTE   PATT
  POIN2 Label_01001443
//  #07 //163   ----------------------------------------
 BYTE   PATT
  POIN2 Label_01001466
//  #07 //164   ----------------------------------------
 BYTE   PATT
  POIN2 Label_01001443
//  #07 //165   ----------------------------------------
 BYTE   PATT
  POIN2 Label_01001466
//  #07 //166   ----------------------------------------
 BYTE   PATT
  POIN2 Label_01001443
//  #07 //167   ----------------------------------------
 BYTE   PATT
  POIN2 Label_01001420
//  #07 //168   ----------------------------------------
Label_010014CF:
 BYTE   N23  Fn4  v100
 BYTE   W24
 BYTE   N23
 BYTE   W36
 BYTE   N23
 BYTE   W36
 BYTE   PEND 
//  #07 //169   ----------------------------------------
 BYTE   PATT
  POIN2 Label_010014CF
//  #07 //170   ----------------------------------------
Label_010014DD:
 BYTE   N23  Ds4  v100
 BYTE   W24
 BYTE   N23
 BYTE   W36
 BYTE   N23
 BYTE   W36
 BYTE   PEND 
//  #07 //171   ----------------------------------------
 BYTE   PATT
  POIN2 Label_010014DD
//  #07 //172   ----------------------------------------
Label_010014EB:
 BYTE   N23  Cs4  v100
 BYTE   W24
 BYTE   N23
 BYTE   W36
 BYTE   N23
 BYTE   W36
 BYTE   PEND 
//  #07 //173   ----------------------------------------
 BYTE   PATT
  POIN2 Label_010014EB
//  #07 //174   ----------------------------------------
 BYTE   PATT
  POIN2 Label_010014DD
//  #07 //175   ----------------------------------------
 BYTE   N23  Gs4  v100
 BYTE   W24
 BYTE   N23
 BYTE   W36
 BYTE   Gn4
 BYTE   W36
//  #07 //176   ----------------------------------------
 BYTE   PATT
  POIN2 Label_010014CF
//  #07 //177   ----------------------------------------
 BYTE   PATT
  POIN2 Label_010014CF
//  #07 //178   ----------------------------------------
 BYTE   PATT
  POIN2 Label_010014DD
//  #07 //179   ----------------------------------------
 BYTE   PATT
  POIN2 Label_010014DD
//  #07 //180   ----------------------------------------
 BYTE   PATT
  POIN2 Label_010014EB
//  #07 //181   ----------------------------------------
 BYTE   PATT
  POIN2 Label_010014EB
//  #07 //182   ----------------------------------------
 BYTE   PATT
  POIN2 Label_010014DD
//  #07 //183   ----------------------------------------
 BYTE   N23  En4  v100
 BYTE   W24
 BYTE   N23
 BYTE   W36
 BYTE   N23
 BYTE   W36
//  #07 //184   ----------------------------------------
 BYTE   W96
//  #07 //185   ----------------------------------------
 BYTE   W96
//  #07 //186   ----------------------------------------
 BYTE   W96
//  #07 //187   ----------------------------------------
 BYTE   W96
//  #07 //188   ----------------------------------------
 BYTE   W96
//  #07 //189   ----------------------------------------
 BYTE   W96
//  #07 //190   ----------------------------------------
 BYTE   W96
//  #07 //191   ----------------------------------------
 BYTE   W96
//  #07 //192   ----------------------------------------
 BYTE   GoTo
  POIN2 Label_010011B5
//  #07 //193   ----------------------------------------
 BYTE   PAN   c_v+0
 BYTE   En3  v064
 BYTE   BEND   c_v+0
 BYTE   FINE

//******************************************************//
	ALIGN 4

Revolution:
	BYTE	7	// NumTrks
	BYTE	0	// NumBlks
	BYTE	Revolution_pri	// Priority
	BYTE	Revolution_rev	// Reverb.
    
	POIN2	Revolution_grp
    
	POIN2	Revolution_001
	POIN2	Revolution_002
	POIN2	Revolution_003
	POIN2	Revolution_004
	POIN2	Revolution_005
	POIN2	Revolution_006
	POIN2	Revolution_007

	
