//Event file generated from Sappy .s format.
	#include "MPlayDef.event"

	#define	SpinningTheTale_grp  voicegroup000
	#define	SpinningTheTale_pri  0
	#define	SpinningTheTale_rev  0
	#define	SpinningTheTale_mvl  127
	#define	SpinningTheTale_key  0
	#define	SpinningTheTale_tbs  1
	#define	SpinningTheTale_exg  0
	#define	SpinningTheTale_cmp  1

	// .rodata
	//	SpinningTheTale
	ALIGN 4


//**************** Track 1 (Midi-Chn.0) ****************//

SpinningTheTale_001:
//  #01 //000   ----------------------------------------
 BYTE   KEYSH   SpinningTheTale_key+0
Label_573EB6:
 BYTE   TEMPO   154*SpinningTheTale_tbs/2
 BYTE   VOICE   1
 BYTE   VOL   45*SpinningTheTale_mvl/mxv
 BYTE   PAN   c_v+0
 BYTE   TIE  Fn3  v056
 BYTE   TIE  As3
 BYTE   TIE  Ds4
 BYTE   W96
//  #01 //001   ----------------------------------------
 BYTE   W68
 BYTE   W03
 BYTE   EOT
 BYTE   Fn3  v070
 BYTE   Ds4
 BYTE   W24
 BYTE   W01
//  #01 //002   ----------------------------------------
 BYTE   TIE  Gn3  v060
 BYTE   TIE  Cn4
 BYTE   TIE  Fn4
 BYTE   W96
//  #01 //003   ----------------------------------------
 BYTE   W68
 BYTE   W03
 BYTE   EOT
 BYTE   Gn3  v072
 BYTE   Fn4
 BYTE   W24
 BYTE   W01
//  #01 //004   ----------------------------------------
 BYTE   TIE  Gn3  v068
 BYTE   TIE  Cn4
 BYTE   TIE  Fn4
 BYTE   W96
//  #01 //005   ----------------------------------------
 BYTE   W68
 BYTE   W03
 BYTE   EOT
 BYTE   Gn3  v072
 BYTE   Fn4
 BYTE   W24
 BYTE   W01
//  #01 //006   ----------------------------------------
 BYTE   TIE  Gn3  v080
 BYTE   TIE  Cn4
 BYTE   TIE  Fn4
 BYTE   W96
//  #01 //007   ----------------------------------------
 BYTE   W68
 BYTE   W03
 BYTE   EOT
 BYTE   Gn3  v072
 BYTE   Fn4
 BYTE   W24
 BYTE   W01
//  #01 //008   ----------------------------------------
 BYTE   TIE  As4  v076
 BYTE   W96
//  #01 //009   ----------------------------------------
 BYTE   W96
//  #01 //010   ----------------------------------------
 BYTE   W96
//  #01 //011   ----------------------------------------
 BYTE   W96
//  #01 //012   ----------------------------------------
 BYTE   W96
//  #01 //013   ----------------------------------------
 BYTE   W96
//  #01 //014   ----------------------------------------
 BYTE   W96
//  #01 //015   ----------------------------------------
 BYTE   W44
 BYTE   W03
 BYTE   EOT
 BYTE   W48
 BYTE   W01
//  #01 //016   ----------------------------------------
 BYTE   W01
 BYTE   GoTo
  POIN2 Label_573EB6
//  #01 //017   ----------------------------------------
 BYTE   W92
 BYTE   W03
 BYTE   W96
//  #01 //018   ----------------------------------------
 BYTE   W96
//  #01 //019   ----------------------------------------
 BYTE   W96
//  #01 //020   ----------------------------------------
 BYTE   W01
 BYTE   FINE

//**************** Track 2 (Midi-Chn.1) ****************//

SpinningTheTale_002:
//  #02 //000   ----------------------------------------
 BYTE   KEYSH   SpinningTheTale_key+0
Label_574026:
 BYTE   VOICE   81
 BYTE   VOL   30*SpinningTheTale_mvl/mxv
 BYTE   W96
//  #02 //001   ----------------------------------------
 BYTE   W96
//  #02 //002   ----------------------------------------
 BYTE   W96
//  #02 //003   ----------------------------------------
 BYTE   W96
//  #02 //004   ----------------------------------------
 BYTE   W96
//  #02 //005   ----------------------------------------
 BYTE   W96
//  #02 //006   ----------------------------------------
 BYTE   W96
//  #02 //007   ----------------------------------------
 BYTE   W96
//  #02 //008   ----------------------------------------
 BYTE   TIE  Cn1  v096
 BYTE   W96
//  #02 //009   ----------------------------------------
 BYTE   W92
 BYTE   W03
 BYTE   EOT
 BYTE   W01
//  #02 //010   ----------------------------------------
 BYTE   TIE  Dn1
 BYTE   W96
//  #02 //011   ----------------------------------------
 BYTE   W92
 BYTE   W03
 BYTE   EOT
 BYTE   W01
//  #02 //012   ----------------------------------------
 BYTE   TIE  Cs1
 BYTE   W96
//  #02 //013   ----------------------------------------
 BYTE   W92
 BYTE   W03
 BYTE   EOT
 BYTE   W01
//  #02 //014   ----------------------------------------
 BYTE   TIE  Cn1
 BYTE   W96
//  #02 //015   ----------------------------------------
 BYTE   W92
 BYTE   W03
 BYTE   EOT
 BYTE   W01
//  #02 //016   ----------------------------------------
 BYTE   W01
 BYTE   GoTo
  POIN2 Label_574026
//  #02 //017   ----------------------------------------
 BYTE   W04
 BYTE   TIE  Fn1  v036
 BYTE   TIE  Ds3  v044
 BYTE   W01
 BYTE   Cn3  v032
 BYTE   W01
 BYTE   Ds2  v060
 BYTE   TIE  Gn3  v056
 BYTE   W88
 BYTE   W01
 BYTE   W96
//  #02 //018   ----------------------------------------
 BYTE   W96
//  #02 //019   ----------------------------------------
 BYTE   W92
 BYTE   W03
 BYTE   EOT
 BYTE   Cn3  v063
 BYTE   W01
//  #02 //020   ----------------------------------------
 BYTE   Gn3
 BYTE   W01
 BYTE   Fn1  v051
 BYTE   FINE

//**************** Track 3 (Midi-Chn.2) ****************//

SpinningTheTale_003:
//  #03 //000   ----------------------------------------
 BYTE   KEYSH   SpinningTheTale_key+0
Label_573F22:
 BYTE   VOICE   1
 BYTE   VOL   50*SpinningTheTale_mvl/mxv
 BYTE   PAN   c_v+0
 BYTE   TIE  Cn4  v080
 BYTE   W36
 BYTE   Fn4
 BYTE   W32
 BYTE   W03
 BYTE   Cn5  v068
 BYTE   W24
 BYTE   W01
//  #03 //001   ----------------------------------------
 BYTE   W78
 BYTE   EOT
 BYTE   Cn4
 BYTE   W02
 BYTE   Cn5
 BYTE   W02
 BYTE   Fn4
 BYTE   W14
//  #03 //002   ----------------------------------------
 BYTE   W01
 BYTE   TIE  Dn4  v072
 BYTE   W32
 BYTE   W02
 BYTE   Fn4  v088
 BYTE   W36
 BYTE   W01
 BYTE   Cn5  v064
 BYTE   W24
//  #03 //003   ----------------------------------------
 BYTE   W76
 BYTE   W01
 BYTE   EOT
 BYTE   Dn4  v084
 BYTE   W03
 BYTE   Fn4
 BYTE   W15
 BYTE   TIE  Cs4  v080
 BYTE   W01
//  #03 //004   ----------------------------------------
 BYTE   W32
 BYTE   W03
 BYTE   Fn4
 BYTE   W36
 BYTE   Cn5  v068
 BYTE   W24
 BYTE   W01
//  #03 //005   ----------------------------------------
 BYTE   W72
 BYTE   W02
 BYTE   EOT
 BYTE   Cs4
 BYTE   W02
 BYTE   Fn4
 BYTE   W01
 BYTE   Cn5
 BYTE   W19
//  #03 //006   ----------------------------------------
 BYTE   W01
 BYTE   TIE  Cn4  v084
 BYTE   W32
 BYTE   W02
 BYTE   Fn4
 BYTE   W36
 BYTE   W01
 BYTE   Cn5
 BYTE   W24
//  #03 //007   ----------------------------------------
 BYTE   W76
 BYTE   W01
 BYTE   EOT
 BYTE   Fn4
 BYTE   W01
 BYTE   Cn5
 BYTE   W03
 BYTE   Cn4
 BYTE   W15
//  #03 //008   ----------------------------------------
 BYTE   TIE  Fn3  v096
 BYTE   TIE  As3
 BYTE   TIE  Ds4
 BYTE   W96
//  #03 //009   ----------------------------------------
 BYTE   W92
 BYTE   W03
 BYTE   EOT
 BYTE   Fn3  v070
 BYTE   Ds4
 BYTE   W01
//  #03 //010   ----------------------------------------
Label_573F88:
 BYTE   TIE  Gn3  v096
 BYTE   TIE  Cn4
 BYTE   TIE  Fn4
 BYTE   W96
 BYTE   PEND 
//  #03 //011   ----------------------------------------
 BYTE   W92
 BYTE   W03
 BYTE   EOT
 BYTE   Gn3  v072
 BYTE   Fn4
 BYTE   W01
//  #03 //012   ----------------------------------------
 BYTE   PATT
  POIN2 Label_573F88
//  #03 //013   ----------------------------------------
 BYTE   W92
 BYTE   W03
 BYTE   EOT
 BYTE   Gn3  v072
 BYTE   Fn4
 BYTE   W01
//  #03 //014   ----------------------------------------
 BYTE   PATT
  POIN2 Label_573F88
//  #03 //015   ----------------------------------------
 BYTE   W92
 BYTE   W03
 BYTE   EOT
 BYTE   Gn3  v072
 BYTE   Fn4
 BYTE   W01
//  #03 //016   ----------------------------------------
 BYTE   W01
 BYTE   GoTo
  POIN2 Label_573F22
//  #03 //017   ----------------------------------------
 BYTE   W92
 BYTE   W03
 BYTE   W96
//  #03 //018   ----------------------------------------
 BYTE   W96
//  #03 //019   ----------------------------------------
 BYTE   W96
//  #03 //020   ----------------------------------------
 BYTE   W01
 BYTE   FINE

//**************** Track 4 (Midi-Chn.3) ****************//

SpinningTheTale_004:
//  #04 //000   ----------------------------------------
 BYTE   KEYSH   SpinningTheTale_key+0
Label_573056:
 BYTE   VOICE   1
 BYTE   VOL   35*SpinningTheTale_mvl/mxv
 BYTE   PAN   c_v-62
 BYTE   W24
 BYTE   BEND   c_v+1
 BYTE   TIE  Cn4  v072
 BYTE   W36
 BYTE   Fn4
 BYTE   W32
 BYTE   W03
 BYTE   Cn5  v060
 BYTE   W01
//  #04 //001   ----------------------------------------
 BYTE   W96
//  #04 //002   ----------------------------------------
 BYTE   W06
 BYTE   EOT
 BYTE   Cn4
 BYTE   W02
 BYTE   Cn5
 BYTE   W02
 BYTE   Fn4
 BYTE   W15
 BYTE   TIE  Dn4
 BYTE   W32
 BYTE   W02
 BYTE   Fn4  v080
 BYTE   W36
 BYTE   W01
//  #04 //003   ----------------------------------------
 BYTE   Cn5  v056
 BYTE   W96
//  #04 //004   ----------------------------------------
 BYTE   W05
 BYTE   EOT
 BYTE   Dn4  v084
 BYTE   W03
 BYTE   Fn4
 BYTE   W15
 BYTE   TIE  Cs4  v068
 BYTE   W36
 BYTE   Fn4  v072
 BYTE   W36
 BYTE   Cn5  v060
 BYTE   W01
//  #04 //005   ----------------------------------------
 BYTE   W96
//  #04 //006   ----------------------------------------
 BYTE   W02
 BYTE   EOT
 BYTE   Cs4
 BYTE   W02
 BYTE   Fn4
 BYTE   W01
 BYTE   Cn5
 BYTE   W20
 BYTE   TIE  Cn4  v076
 BYTE   W32
 BYTE   W02
 BYTE   Fn4
 BYTE   W36
 BYTE   W01
//  #04 //007   ----------------------------------------
 BYTE   Cn5
 BYTE   W96
//  #04 //008   ----------------------------------------
 BYTE   W05
 BYTE   EOT
 BYTE   Fn4
 BYTE   W01
 BYTE   Cn5
 BYTE   W03
 BYTE   Cn4
 BYTE   W84
 BYTE   W03
//  #04 //009   ----------------------------------------
 BYTE   W96
//  #04 //010   ----------------------------------------
 BYTE   W96
//  #04 //011   ----------------------------------------
 BYTE   W96
//  #04 //012   ----------------------------------------
 BYTE   W96
//  #04 //013   ----------------------------------------
 BYTE   W96
//  #04 //014   ----------------------------------------
 BYTE   W96
//  #04 //015   ----------------------------------------
 BYTE   W96
//  #04 //016   ----------------------------------------
 BYTE   W01
 BYTE   GoTo
  POIN2 Label_573056
//  #04 //017   ----------------------------------------
 BYTE   W92
 BYTE   W03
 BYTE   W96
//  #04 //018   ----------------------------------------
 BYTE   W96
//  #04 //019   ----------------------------------------
 BYTE   W96
//  #04 //020   ----------------------------------------
 BYTE   W01
 BYTE   FINE

//**************** Track 5 (Midi-Chn.4) ****************//

SpinningTheTale_005:
//  #05 //000   ----------------------------------------
 BYTE   KEYSH   SpinningTheTale_key+0
Label_01000002:
 BYTE   VOICE   1
 BYTE   VOL   28*SpinningTheTale_mvl/mxv
 BYTE   PAN   c_v+62
 BYTE   W96
//  #05 //001   ----------------------------------------
 BYTE   BEND   c_v+2
 BYTE   TIE  Cn4  v060
 BYTE   W36
 BYTE   Fn4
 BYTE   W32
 BYTE   W03
 BYTE   Cn5  v048
 BYTE   W24
 BYTE   W01
//  #05 //002   ----------------------------------------
 BYTE   W78
 BYTE   EOT
 BYTE   Cn4
 BYTE   W02
 BYTE   Cn5
 BYTE   W02
 BYTE   Fn4
 BYTE   W14
//  #05 //003   ----------------------------------------
 BYTE   W01
 BYTE   TIE  Dn4  v052
 BYTE   W32
 BYTE   W02
 BYTE   Fn4  v068
 BYTE   W36
 BYTE   W01
 BYTE   Cn5  v044
 BYTE   W24
//  #05 //004   ----------------------------------------
 BYTE   W76
 BYTE   W01
 BYTE   EOT
 BYTE   Dn4  v084
 BYTE   W03
 BYTE   Fn4
 BYTE   W15
 BYTE   TIE  Cs4  v060
 BYTE   W01
//  #05 //005   ----------------------------------------
 BYTE   W32
 BYTE   W03
 BYTE   Fn4
 BYTE   W36
 BYTE   Cn5  v048
 BYTE   W24
 BYTE   W01
//  #05 //006   ----------------------------------------
 BYTE   W72
 BYTE   W02
 BYTE   EOT
 BYTE   Cs4
 BYTE   W02
 BYTE   Fn4
 BYTE   W01
 BYTE   Cn5
 BYTE   W19
//  #05 //007   ----------------------------------------
 BYTE   W01
 BYTE   TIE  Cn4  v064
 BYTE   W32
 BYTE   W02
 BYTE   Fn4
 BYTE   W36
 BYTE   W01
 BYTE   Cn5
 BYTE   W24
//  #05 //008   ----------------------------------------
 BYTE   W76
 BYTE   W01
 BYTE   EOT
 BYTE   Fn4
 BYTE   W01
 BYTE   Cn5
 BYTE   W03
 BYTE   Cn4
 BYTE   W15
//  #05 //009   ----------------------------------------
 BYTE   W96
//  #05 //010   ----------------------------------------
 BYTE   W96
//  #05 //011   ----------------------------------------
 BYTE   W96
//  #05 //012   ----------------------------------------
 BYTE   W96
//  #05 //013   ----------------------------------------
 BYTE   W96
//  #05 //014   ----------------------------------------
 BYTE   W96
//  #05 //015   ----------------------------------------
 BYTE   W96
//  #05 //016   ----------------------------------------
 BYTE   W01
 BYTE   GoTo
  POIN2 Label_01000002
//  #05 //017   ----------------------------------------
 BYTE   W92
 BYTE   W03
 BYTE   W96
//  #05 //018   ----------------------------------------
 BYTE   W96
//  #05 //019   ----------------------------------------
 BYTE   W96
//  #05 //020   ----------------------------------------
 BYTE   W01
 BYTE   FINE

//**************** Track 6 (Midi-Chn.5) ****************//

SpinningTheTale_006:
//  #06 //000   ----------------------------------------
 BYTE   KEYSH   SpinningTheTale_key+0
Label_01000072:
 BYTE   VOICE   13
 BYTE   VOL   50*SpinningTheTale_mvl/mxv
 BYTE   PAN   c_v+0
 BYTE   TIE  Cn2  v052
 BYTE   W96
//  #06 //001   ----------------------------------------
 BYTE   W96
//  #06 //002   ----------------------------------------
 BYTE   Dn2  v056
 BYTE   W02
 BYTE   EOT
 BYTE   Cn2
 BYTE   W92
 BYTE   W02
//  #06 //003   ----------------------------------------
 BYTE   W96
//  #06 //004   ----------------------------------------
 BYTE   TIE  Cs2  v060
 BYTE   W01
 BYTE   EOT
 BYTE   Dn2
 BYTE   W92
 BYTE   W03
//  #06 //005   ----------------------------------------
 BYTE   W96
//  #06 //006   ----------------------------------------
 BYTE   TIE  Cn2  v068
 BYTE   W02
 BYTE   EOT
 BYTE   Cs2
 BYTE   W92
 BYTE   W02
//  #06 //007   ----------------------------------------
 BYTE   W44
 BYTE   W03
 BYTE   N48  Gn1  v076
 BYTE   W06
 BYTE   EOT
 BYTE   Cn2
 BYTE   W42
 BYTE   W01
//  #06 //008   ----------------------------------------
 BYTE   N36  As3  v092
 BYTE   W36
 BYTE   Ds4
 BYTE   W36
 BYTE   N84  As4
 BYTE   W24
//  #06 //009   ----------------------------------------
 BYTE   W72
 BYTE   N11  Gs4
 BYTE   W12
 BYTE   N09  Gn4
 BYTE   W12
//  #06 //010   ----------------------------------------
 BYTE   N36
 BYTE   W36
 BYTE   N32  Fn4
 BYTE   W36
 BYTE   TIE  Cn4
 BYTE   W24
//  #06 //011   ----------------------------------------
 BYTE   W72
 BYTE   N16  As3
 BYTE   W01
 BYTE   EOT
 BYTE   Cn4
 BYTE   W11
 BYTE   N09
 BYTE   W12
//  #06 //012   ----------------------------------------
 BYTE   N36  Fn4
 BYTE   W36
 BYTE   N32  Ds4
 BYTE   W36
 BYTE   N44  As3
 BYTE   W24
//  #06 //013   ----------------------------------------
 BYTE   W24
 BYTE   N23  Fn3
 BYTE   W24
 BYTE   As3
 BYTE   W24
 BYTE   Ds4
 BYTE   W24
//  #06 //014   ----------------------------------------
 BYTE   TIE  Cn4
 BYTE   W96
//  #06 //015   ----------------------------------------
 BYTE   W78
 BYTE   W01
 BYTE   EOT
 BYTE   W17
//  #06 //016   ----------------------------------------
 BYTE   W01
 BYTE   GoTo
  POIN2 Label_01000072
//  #06 //017   ----------------------------------------
 BYTE   W05
 BYTE   N32  Fn2  v072
 BYTE   W01
 BYTE   Gs3
 BYTE   W05
 BYTE   N30  Cn3  v076
 BYTE   W01
 BYTE   N32  Dn4  v052
 BYTE   W01
 BYTE   N23  Cn4  v080
 BYTE   W02
 BYTE   Ds4  v036
 BYTE   W01
 BYTE   N13  Gn4  v092
 BYTE   W78
 BYTE   W01
 BYTE   W08
//  #06 //018   ----------------------------------------
 BYTE   TIE  As5  v052
 BYTE   W07
 BYTE   N48  Ds5  v084
 BYTE   W06
 BYTE   N44  Cn5  v076
 BYTE   W06
 BYTE   N40  Gs4  v068
 BYTE   W05
 BYTE   TIE  Gn4
 BYTE   W06
 BYTE   Ds4  v072
 BYTE   W06
 BYTE   Cn4  v080
 BYTE   W05
 BYTE   Fn3  v064
 BYTE   W44
 BYTE   W03
 BYTE   W42
//  #06 //019   ----------------------------------------
 BYTE   EOT
 BYTE   As5
 BYTE   W21
 BYTE   Gn4
 BYTE   W02
 BYTE   Cn4  v075
 BYTE   W01
 BYTE   Fn3
 BYTE   W30
 BYTE   W96
//  #06 //020   ----------------------------------------
 BYTE   W01
 BYTE   FINE

//**************** Track 7 (Midi-Chn.6) ****************//

SpinningTheTale_007:
//  #07 //000   ----------------------------------------
 BYTE   KEYSH   SpinningTheTale_key+0
Label_573C5E:
 BYTE   VOICE   13
 BYTE   VOL   50*SpinningTheTale_mvl/mxv
 BYTE   PAN   c_v-62
 BYTE   W96
//  #07 //001   ----------------------------------------
 BYTE   W96
//  #07 //002   ----------------------------------------
 BYTE   W96
//  #07 //003   ----------------------------------------
 BYTE   W96
//  #07 //004   ----------------------------------------
 BYTE   W96
//  #07 //005   ----------------------------------------
 BYTE   W96
//  #07 //006   ----------------------------------------
 BYTE   W96
//  #07 //007   ----------------------------------------
 BYTE   W96
//  #07 //008   ----------------------------------------
 BYTE   W18
 BYTE   N36  As3  v052
 BYTE   W36
 BYTE   Ds4
 BYTE   W36
 BYTE   N84  As4
 BYTE   W06
//  #07 //009   ----------------------------------------
 BYTE   W90
 BYTE   N11  Gs4
 BYTE   W06
//  #07 //010   ----------------------------------------
 BYTE   W06
 BYTE   N09  Gn4
 BYTE   W12
 BYTE   N36
 BYTE   W36
 BYTE   N32  Fn4
 BYTE   W36
 BYTE   TIE  Cn4
 BYTE   W06
//  #07 //011   ----------------------------------------
 BYTE   W90
 BYTE   N16  As3
 BYTE   W01
 BYTE   EOT
 BYTE   Cn4
 BYTE   W05
//  #07 //012   ----------------------------------------
 BYTE   W06
 BYTE   N09
 BYTE   W12
 BYTE   N36  Fn4
 BYTE   W36
 BYTE   N32  Ds4
 BYTE   W36
 BYTE   N44  As3
 BYTE   W06
//  #07 //013   ----------------------------------------
 BYTE   W42
 BYTE   N23  Fn3
 BYTE   W24
 BYTE   As3
 BYTE   W24
 BYTE   Ds4
 BYTE   W06
//  #07 //014   ----------------------------------------
 BYTE   W18
 BYTE   TIE  Cn4
 BYTE   W78
//  #07 //015   ----------------------------------------
 BYTE   W96
//  #07 //016   ----------------------------------------
 BYTE   W01
 BYTE   EOT
 BYTE   GoTo
  POIN2 Label_573C5E
//  #07 //017   ----------------------------------------
 BYTE   W92
 BYTE   W03
 BYTE   W96
//  #07 //018   ----------------------------------------
 BYTE   W96
//  #07 //019   ----------------------------------------
 BYTE   W96
//  #07 //020   ----------------------------------------
 BYTE   W01
 BYTE   FINE

//**************** Track 8 (Midi-Chn.7) ****************//

SpinningTheTale_008:
//  #08 //000   ----------------------------------------
 BYTE   KEYSH   SpinningTheTale_key+0
Label_57300A:
 BYTE   VOICE   75
 BYTE   VOL   50*SpinningTheTale_mvl/mxv
 BYTE   PAN   c_v+62
 BYTE   W96
//  #08 //001   ----------------------------------------
 BYTE   W96
//  #08 //002   ----------------------------------------
 BYTE   W96
//  #08 //003   ----------------------------------------
 BYTE   W96
//  #08 //004   ----------------------------------------
 BYTE   W96
//  #08 //005   ----------------------------------------
 BYTE   W96
//  #08 //006   ----------------------------------------
 BYTE   W96
//  #08 //007   ----------------------------------------
 BYTE   W96
//  #08 //008   ----------------------------------------
 BYTE   W96
//  #08 //009   ----------------------------------------
 BYTE   N36  As4  v052
 BYTE   W36
 BYTE   Ds5
 BYTE   W36
 BYTE   N84  As5
 BYTE   W24
//  #08 //010   ----------------------------------------
 BYTE   W72
 BYTE   N11  Gs5
 BYTE   W12
 BYTE   N09  Gn5
 BYTE   W12
//  #08 //011   ----------------------------------------
 BYTE   N36
 BYTE   W36
 BYTE   N32  Fn5
 BYTE   W36
 BYTE   TIE  Cn5
 BYTE   W24
//  #08 //012   ----------------------------------------
 BYTE   W72
 BYTE   N16  As4
 BYTE   W01
 BYTE   EOT
 BYTE   Cn5
 BYTE   W11
 BYTE   N09
 BYTE   W12
//  #08 //013   ----------------------------------------
 BYTE   N36  Fn5
 BYTE   W36
 BYTE   N32  Ds5
 BYTE   W36
 BYTE   N23  As4
 BYTE   W24
//  #08 //014   ----------------------------------------
 BYTE   N92  Gn4
 BYTE   W96
//  #08 //015   ----------------------------------------
 BYTE   W96
//  #08 //016   ----------------------------------------
 BYTE   W01
 BYTE   GoTo
  POIN2 Label_57300A
//  #08 //017   ----------------------------------------
 BYTE   W92
 BYTE   W03
 BYTE   W96
//  #08 //018   ----------------------------------------
 BYTE   W96
//  #08 //019   ----------------------------------------
 BYTE   W96
//  #08 //020   ----------------------------------------
 BYTE   W01
 BYTE   FINE

//**************** Track 9 (Midi-Chn.8) ****************//

SpinningTheTale_009:
//  #09 //000   ----------------------------------------
 BYTE   KEYSH   SpinningTheTale_key+0
Label_57407A:
 BYTE   VOICE   1
 BYTE   VOL   50*SpinningTheTale_mvl/mxv
 BYTE   PAN   c_v-2
 BYTE   W96
//  #09 //001   ----------------------------------------
 BYTE   W96
//  #09 //002   ----------------------------------------
 BYTE   W96
//  #09 //003   ----------------------------------------
 BYTE   W96
//  #09 //004   ----------------------------------------
 BYTE   W96
//  #09 //005   ----------------------------------------
 BYTE   W96
//  #09 //006   ----------------------------------------
 BYTE   W96
//  #09 //007   ----------------------------------------
 BYTE   W96
//  #09 //008   ----------------------------------------
 BYTE   W96
//  #09 //009   ----------------------------------------
 BYTE   W96
//  #09 //010   ----------------------------------------
 BYTE   W96
//  #09 //011   ----------------------------------------
 BYTE   W96
//  #09 //012   ----------------------------------------
 BYTE   W96
//  #09 //013   ----------------------------------------
 BYTE   W96
//  #09 //014   ----------------------------------------
 BYTE   W96
//  #09 //015   ----------------------------------------
 BYTE   W96
//  #09 //016   ----------------------------------------
 BYTE   TIE  Fn2  v080
 BYTE   W01
 BYTE   GoTo
  POIN2 Label_57407A
//  #09 //017   ----------------------------------------
 BYTE   W92
 BYTE   W03
 BYTE   W96
//  #09 //018   ----------------------------------------
 BYTE   W96
//  #09 //019   ----------------------------------------
 BYTE   W68
 BYTE   W02
 BYTE   EOT
 BYTE   Fn2
 BYTE   W24
 BYTE   W02
//  #09 //020   ----------------------------------------
 BYTE   W01
 BYTE   FINE

//**************** Track 10 (Midi-Chn.9) ****************//

SpinningTheTale_010:
//  #10 //000   ----------------------------------------
 BYTE   KEYSH   SpinningTheTale_key+0
Label_5730EE:
 BYTE   VOICE   75
 BYTE   VOL   50*SpinningTheTale_mvl/mxv
 BYTE   PAN   c_v+62
 BYTE   W96
//  #10 //001   ----------------------------------------
 BYTE   W96
//  #10 //002   ----------------------------------------
 BYTE   W96
//  #10 //003   ----------------------------------------
 BYTE   W96
//  #10 //004   ----------------------------------------
 BYTE   W96
//  #10 //005   ----------------------------------------
 BYTE   W96
//  #10 //006   ----------------------------------------
 BYTE   W96
//  #10 //007   ----------------------------------------
 BYTE   W96
//  #10 //008   ----------------------------------------
 BYTE   W96
//  #10 //009   ----------------------------------------
 BYTE   BEND   c_v+1
 BYTE   W18
 BYTE   N36  As4  v028
 BYTE   W36
 BYTE   Ds5
 BYTE   W36
 BYTE   N84  As5
 BYTE   W06
//  #10 //010   ----------------------------------------
 BYTE   W90
 BYTE   N11  Gs5
 BYTE   W06
//  #10 //011   ----------------------------------------
 BYTE   W06
 BYTE   N09  Gn5
 BYTE   W12
 BYTE   N36
 BYTE   W36
 BYTE   N32  Fn5
 BYTE   W36
 BYTE   TIE  Cn5
 BYTE   W06
//  #10 //012   ----------------------------------------
 BYTE   W90
 BYTE   N16  As4
 BYTE   W01
 BYTE   EOT
 BYTE   Cn5
 BYTE   W05
//  #10 //013   ----------------------------------------
 BYTE   W06
 BYTE   N09
 BYTE   W12
 BYTE   N36  Fn5
 BYTE   W36
 BYTE   N32  Ds5
 BYTE   W36
 BYTE   N23  As4
 BYTE   W06
//  #10 //014   ----------------------------------------
 BYTE   W18
 BYTE   N92  Gn4
 BYTE   W78
//  #10 //015   ----------------------------------------
 BYTE   W96
//  #10 //016   ----------------------------------------
 BYTE   W01
 BYTE   GoTo
  POIN2 Label_5730EE
//  #10 //017   ----------------------------------------
 BYTE   W42
 BYTE   W01
 BYTE   N52  Cn4  v048
 BYTE   W03
 BYTE   N42  Gn4  v064
 BYTE   W48
 BYTE   W01
 BYTE   W96
//  #10 //018   ----------------------------------------
 BYTE   W96
//  #10 //019   ----------------------------------------
 BYTE   W96
//  #10 //020   ----------------------------------------
 BYTE   W01
 BYTE   FINE

//******************************************************//
	ALIGN 4

SpinningTheTale:
	BYTE	10	// NumTrks
	BYTE	0	// NumBlks
	BYTE	SpinningTheTale_pri	// Priority
	BYTE	SpinningTheTale_rev	// Reverb.
    
	POIN2	SpinningTheTale_grp
    
	POIN2	SpinningTheTale_001
	POIN2	SpinningTheTale_002
	POIN2	SpinningTheTale_003
	POIN2	SpinningTheTale_004
	POIN2	SpinningTheTale_005
	POIN2	SpinningTheTale_006
	POIN2	SpinningTheTale_007
	POIN2	SpinningTheTale_008
	POIN2	SpinningTheTale_009
	POIN2	SpinningTheTale_010

	
