//Event file generated from Sappy .s format.
	#include "MPlayDef.event"

	#define	UntamedGarden_grp  voicegroup000
	#define	UntamedGarden_pri  0
	#define	UntamedGarden_rev  0
	#define	UntamedGarden_mvl  127
	#define	UntamedGarden_key  0
	#define	UntamedGarden_tbs  1
	#define	UntamedGarden_exg  0
	#define	UntamedGarden_cmp  1

	// .rodata
	//	UntamedGarden
	ALIGN 4


//**************** Track 1 (Midi-Chn.0) ****************//

UntamedGarden_001:
//  #01 //000   ----------------------------------------
 BYTE   KEYSH   UntamedGarden_key+0
 BYTE   TEMPO   134*UntamedGarden_tbs/2
 BYTE   VOICE   11
 BYTE   VOL   46*UntamedGarden_mvl/mxv
 BYTE   PAN   c_v+0
 BYTE   VOL   46*UntamedGarden_mvl/mxv
 BYTE   PAN   c_v+0
 BYTE   N11  Gn3  v052
 BYTE   W12
 BYTE   As3
 BYTE   W12
 BYTE   Cn4
 BYTE   W12
 BYTE   Fn4
 BYTE   W12
 BYTE   Gn3
 BYTE   W12
 BYTE   As3
 BYTE   W12
 BYTE   Cn4
 BYTE   W12
 BYTE   Fn4
 BYTE   W12
//  #01 //001   ----------------------------------------
Label_01000020:
 BYTE   N11  As3  v052
 BYTE   W12
 BYTE   Cn4
 BYTE   W12
 BYTE   Ds4
 BYTE   W12
 BYTE   Gn4
 BYTE   W12
 BYTE   As3
 BYTE   W12
 BYTE   Cn4
 BYTE   W12
 BYTE   Ds4
 BYTE   W12
 BYTE   Gn4
 BYTE   W12
 BYTE   PEND 
//  #01 //002   ----------------------------------------
Label_01000033:
 BYTE   N11  Cn4  v052
 BYTE   W12
 BYTE   Ds4
 BYTE   W12
 BYTE   Fn4
 BYTE   W12
 BYTE   As4
 BYTE   W12
 BYTE   Cn4
 BYTE   W12
 BYTE   Ds4
 BYTE   W12
 BYTE   Fn4
 BYTE   W12
 BYTE   As4
 BYTE   W12
 BYTE   PEND 
//  #01 //003   ----------------------------------------
Label_01000046:
 BYTE   N11  Ds4  v052
 BYTE   W12
 BYTE   Fn4
 BYTE   W12
 BYTE   As4
 BYTE   W12
 BYTE   Cn5
 BYTE   W12
 BYTE   Ds4
 BYTE   W12
 BYTE   Fn4
 BYTE   W12
 BYTE   As4
 BYTE   W12
 BYTE   Cn5
 BYTE   W12
 BYTE   PEND 
//  #01 //004   ----------------------------------------
Label_01000059:
 BYTE   N11  Gn3  v052
 BYTE   W12
 BYTE   As3
 BYTE   W12
 BYTE   Cn4
 BYTE   W12
 BYTE   Fn4
 BYTE   W12
 BYTE   Gn3
 BYTE   W12
 BYTE   As3
 BYTE   W12
 BYTE   Cn4
 BYTE   W12
 BYTE   Fn4
 BYTE   W12
 BYTE   PEND 
//  #01 //005   ----------------------------------------
 BYTE   PATT
  POIN2 Label_01000020
//  #01 //006   ----------------------------------------
 BYTE   PATT
  POIN2 Label_01000033
//  #01 //007   ----------------------------------------
 BYTE   PATT
  POIN2 Label_01000046
//  #01 //008   ----------------------------------------
Label_0100007B:
//  #01 //009   ----------------------------------------
 BYTE   PATT
  POIN2 Label_01000059
//  #01 //010   ----------------------------------------
 BYTE   PATT
  POIN2 Label_01000020
//  #01 //011   ----------------------------------------
 BYTE   PATT
  POIN2 Label_01000033
//  #01 //012   ----------------------------------------
 BYTE   PATT
  POIN2 Label_01000046
//  #01 //013   ----------------------------------------
Label_0100008F:
 BYTE   N11  Gn3  v052
 BYTE   W12
 BYTE   As3
 BYTE   W12
 BYTE   Cn4
 BYTE   W12
 BYTE   Fn4
 BYTE   W12
 BYTE   Gn3
 BYTE   W12
 BYTE   As3
 BYTE   W12
 BYTE   Cn4
 BYTE   W12
 BYTE   Fn4
 BYTE   W12
 BYTE   PEND 
//  #01 //014   ----------------------------------------
 BYTE   PATT
  POIN2 Label_01000020
//  #01 //015   ----------------------------------------
 BYTE   PATT
  POIN2 Label_01000033
//  #01 //016   ----------------------------------------
Label_010000AC:
 BYTE   N11  Ds4  v052
 BYTE   W12
 BYTE   Fn4
 BYTE   W12
 BYTE   As4
 BYTE   W12
 BYTE   Cn5
 BYTE   W12
 BYTE   Ds4
 BYTE   W12
 BYTE   Fn4
 BYTE   W12
 BYTE   As4
 BYTE   W12
 BYTE   Cn5
 BYTE   W12
 BYTE   PEND 
//  #01 //017   ----------------------------------------
 BYTE   PATT
  POIN2 Label_01000059
//  #01 //018   ----------------------------------------
 BYTE   PATT
  POIN2 Label_01000020
//  #01 //019   ----------------------------------------
 BYTE   PATT
  POIN2 Label_01000033
//  #01 //020   ----------------------------------------
 BYTE   PATT
  POIN2 Label_01000046
//  #01 //021   ----------------------------------------
 BYTE   PATT
  POIN2 Label_0100008F
//  #01 //022   ----------------------------------------
 BYTE   PATT
  POIN2 Label_01000020
//  #01 //023   ----------------------------------------
 BYTE   PATT
  POIN2 Label_01000033
//  #01 //024   ----------------------------------------
 BYTE   PATT
  POIN2 Label_010000AC
//  #01 //025   ----------------------------------------
Label_010000E7:
 BYTE   N11  Gn3  v064
 BYTE   W12
 BYTE   As3
 BYTE   W12
 BYTE   Cn4
 BYTE   W12
 BYTE   Fn4
 BYTE   W12
 BYTE   Gn3
 BYTE   W12
 BYTE   As3
 BYTE   W12
 BYTE   Cn4
 BYTE   W12
 BYTE   Fn4
 BYTE   W12
 BYTE   PEND 
//  #01 //026   ----------------------------------------
Label_010000FA:
 BYTE   N11  As3  v064
 BYTE   W12
 BYTE   Cn4
 BYTE   W12
 BYTE   Ds4
 BYTE   W12
 BYTE   Gn4
 BYTE   W12
 BYTE   As3
 BYTE   W12
 BYTE   Cn4
 BYTE   W12
 BYTE   Ds4
 BYTE   W12
 BYTE   Gn4
 BYTE   W12
 BYTE   PEND 
//  #01 //027   ----------------------------------------
Label_0100010D:
 BYTE   N11  Cn4  v064
 BYTE   W12
 BYTE   Ds4
 BYTE   W12
 BYTE   Fn4
 BYTE   W12
 BYTE   As4
 BYTE   W12
 BYTE   Cn4
 BYTE   W12
 BYTE   Ds4
 BYTE   W12
 BYTE   Fn4
 BYTE   W12
 BYTE   As4
 BYTE   W12
 BYTE   PEND 
//  #01 //028   ----------------------------------------
Label_01000120:
 BYTE   N11  Ds4  v064
 BYTE   W12
 BYTE   Fn4
 BYTE   W12
 BYTE   As4
 BYTE   W12
 BYTE   Cn5
 BYTE   W12
 BYTE   Ds4
 BYTE   W12
 BYTE   Fn4
 BYTE   W12
 BYTE   As4
 BYTE   W12
 BYTE   Cn5
 BYTE   W12
 BYTE   PEND 
//  #01 //029   ----------------------------------------
Label_01000133:
 BYTE   N11  Gn3  v064
 BYTE   W12
 BYTE   As3
 BYTE   W12
 BYTE   Cn4
 BYTE   W12
 BYTE   Fn4
 BYTE   W12
 BYTE   Gn3
 BYTE   W12
 BYTE   As3
 BYTE   W12
 BYTE   Cn4
 BYTE   W12
 BYTE   Fn4
 BYTE   W12
 BYTE   PEND 
//  #01 //030   ----------------------------------------
 BYTE   PATT
  POIN2 Label_010000FA
//  #01 //031   ----------------------------------------
 BYTE   PATT
  POIN2 Label_0100010D
//  #01 //032   ----------------------------------------
Label_01000150:
 BYTE   N11  Ds4  v064
 BYTE   W12
 BYTE   Fn4
 BYTE   W12
 BYTE   As4
 BYTE   W12
 BYTE   Cn5
 BYTE   W12
 BYTE   Ds4
 BYTE   W12
 BYTE   Fn4
 BYTE   W12
 BYTE   As4
 BYTE   W12
 BYTE   Cn5
 BYTE   W12
 BYTE   PEND 
//  #01 //033   ----------------------------------------
 BYTE   PATT
  POIN2 Label_010000E7
//  #01 //034   ----------------------------------------
 BYTE   PATT
  POIN2 Label_010000FA
//  #01 //035   ----------------------------------------
 BYTE   PATT
  POIN2 Label_0100010D
//  #01 //036   ----------------------------------------
 BYTE   PATT
  POIN2 Label_01000120
//  #01 //037   ----------------------------------------
 BYTE   PATT
  POIN2 Label_01000133
//  #01 //038   ----------------------------------------
 BYTE   PATT
  POIN2 Label_010000FA
//  #01 //039   ----------------------------------------
 BYTE   PATT
  POIN2 Label_0100010D
//  #01 //040   ----------------------------------------
 BYTE   PATT
  POIN2 Label_01000150
//  #01 //041   ----------------------------------------
 BYTE   PATT
  POIN2 Label_010000E7
//  #01 //042   ----------------------------------------
 BYTE   PATT
  POIN2 Label_010000FA
//  #01 //043   ----------------------------------------
 BYTE   PATT
  POIN2 Label_0100010D
//  #01 //044   ----------------------------------------
 BYTE   PATT
  POIN2 Label_01000120
//  #01 //045   ----------------------------------------
 BYTE   N11  Gn3  v064
 BYTE   W12
 BYTE   As3
 BYTE   W12
 BYTE   Cn4
 BYTE   W12
 BYTE   Fn4
 BYTE   W12
 BYTE   Gn3
 BYTE   W12
 BYTE   As3
 BYTE   W12
 BYTE   Cn4
 BYTE   W12
 BYTE   Fn4
 BYTE   W12
//  #01 //046   ----------------------------------------
 BYTE   PATT
  POIN2 Label_010000FA
//  #01 //047   ----------------------------------------
 BYTE   PATT
  POIN2 Label_0100010D
//  #01 //048   ----------------------------------------
 BYTE   PATT
  POIN2 Label_01000120
//  #01 //049   ----------------------------------------
 BYTE   PATT
  POIN2 Label_01000133
//  #01 //050   ----------------------------------------
 BYTE   N11  Fn3  v060
 BYTE   W12
 BYTE   As3
 BYTE   W12
 BYTE   Cn4
 BYTE   W12
 BYTE   Fn4
 BYTE   W12
 BYTE   Fn3
 BYTE   W12
 BYTE   As3
 BYTE   W12
 BYTE   Cn4
 BYTE   W12
 BYTE   Fn4
 BYTE   W12
//  #01 //051   ----------------------------------------
 BYTE   Fn3  v056
 BYTE   W12
 BYTE   As3
 BYTE   W12
 BYTE   Cn4
 BYTE   W12
 BYTE   Ds4
 BYTE   W12
 BYTE   Fn3
 BYTE   W12
 BYTE   As3
 BYTE   W12
 BYTE   Cn4
 BYTE   W12
 BYTE   Ds4
 BYTE   W12
//  #01 //052   ----------------------------------------
 BYTE   Fn3  v052
 BYTE   W12
 BYTE   As3
 BYTE   W12
 BYTE   Cn4
 BYTE   W12
 BYTE   Cs4
 BYTE   W12
 BYTE   Fn3
 BYTE   W12
 BYTE   As3
 BYTE   W12
 BYTE   Cn4
 BYTE   W12
 BYTE   Cs4
 BYTE   W12
//  #01 //053   ----------------------------------------
 BYTE   W96
//  #01 //054   ----------------------------------------
 BYTE   W96
//  #01 //055   ----------------------------------------
 BYTE   W96
//  #01 //056   ----------------------------------------
 BYTE   W96
//  #01 //057   ----------------------------------------
 BYTE   W96
//  #01 //058   ----------------------------------------
 BYTE   TEMPO   140*UntamedGarden_tbs/2
 BYTE   W96
//  #01 //059   ----------------------------------------
 BYTE   W96
//  #01 //060   ----------------------------------------
 BYTE   W96
//  #01 //061   ----------------------------------------
 BYTE   W96
//  #01 //062   ----------------------------------------
 BYTE   W96
//  #01 //063   ----------------------------------------
 BYTE   W96
//  #01 //064   ----------------------------------------
 BYTE   W96
//  #01 //065   ----------------------------------------
 BYTE   W96
//  #01 //066   ----------------------------------------
 BYTE   W96
//  #01 //067   ----------------------------------------
 BYTE   W96
//  #01 //068   ----------------------------------------
 BYTE   W96
//  #01 //069   ----------------------------------------
 BYTE   W96
//  #01 //070   ----------------------------------------
 BYTE   W96
//  #01 //071   ----------------------------------------
 BYTE   W96
//  #01 //072   ----------------------------------------
 BYTE   W96
//  #01 //073   ----------------------------------------
 BYTE   W96
//  #01 //074   ----------------------------------------
 BYTE   W96
//  #01 //075   ----------------------------------------
 BYTE   W96
//  #01 //076   ----------------------------------------
 BYTE   W96
//  #01 //077   ----------------------------------------
 BYTE   W96
//  #01 //078   ----------------------------------------
 BYTE   W96
//  #01 //079   ----------------------------------------
 BYTE   W96
//  #01 //080   ----------------------------------------
 BYTE   W96
//  #01 //081   ----------------------------------------
 BYTE   W96
//  #01 //082   ----------------------------------------
 BYTE   W96
//  #01 //083   ----------------------------------------
 BYTE   W96
//  #01 //084   ----------------------------------------
 BYTE   W96
//  #01 //085   ----------------------------------------
 BYTE   W96
//  #01 //086   ----------------------------------------
 BYTE   W96
//  #01 //087   ----------------------------------------
 BYTE   W96
//  #01 //088   ----------------------------------------
 BYTE   W96
//  #01 //089   ----------------------------------------
 BYTE   W96
//  #01 //090   ----------------------------------------
 BYTE   W96
//  #01 //091   ----------------------------------------
 BYTE   W96
//  #01 //092   ----------------------------------------
 BYTE   W96
//  #01 //093   ----------------------------------------
 BYTE   W96
//  #01 //094   ----------------------------------------
 BYTE   W96
//  #01 //095   ----------------------------------------
 BYTE   W96
//  #01 //096   ----------------------------------------
 BYTE   W96
//  #01 //097   ----------------------------------------
 BYTE   TIE  Cn5  v080
 BYTE   W01
 BYTE   Cn6
 BYTE   W92
 BYTE   W03
//  #01 //098   ----------------------------------------
 BYTE   W92
 BYTE   W03
 BYTE   EOT
 BYTE   Cn5  v096
 BYTE   W01
//  #01 //099   ----------------------------------------
 BYTE   N11  As3  v064
 BYTE   W12
 BYTE   Cs4
 BYTE   W12
 BYTE   As4
 BYTE   W12
 BYTE   N56  Fn4
 BYTE   W60
//  #01 //100   ----------------------------------------
 BYTE   N11  Ds4
 BYTE   N11  Gn4
 BYTE   W12
 BYTE   Gn3
 BYTE   W12
 BYTE   As3
 BYTE   W12
 BYTE   N44  Ds4
 BYTE   N44  Gn4
 BYTE   W48
 BYTE   N11  Dn4
 BYTE   W12
//  #01 //101   ----------------------------------------
 BYTE   Ds4
 BYTE   W12
 BYTE   Gn3
 BYTE   W12
 BYTE   As3
 BYTE   W12
 BYTE   N23  Ds4
 BYTE   W24
 BYTE   Fn4
 BYTE   W24
 BYTE   Cn4
 BYTE   W12
//  #01 //102   ----------------------------------------
 BYTE   N11  Ds2
 BYTE   W12
 BYTE   Gs2
 BYTE   N11  Gs3
 BYTE   W12
 BYTE   Ds3
 BYTE   N11  Cn4
 BYTE   W12
 BYTE   Cn3
 BYTE   N23  Ds4
 BYTE   W12
 BYTE   Cn3
 BYTE   W12
 BYTE   N32  Fn4
 BYTE   W36
//  #01 //103   ----------------------------------------
 BYTE   N11  Fn3
 BYTE   W12
 BYTE   As3
 BYTE   W12
 BYTE   Dn4
 BYTE   W12
 BYTE   N32  Fn4
 BYTE   W60
//  #01 //104   ----------------------------------------
 BYTE   N11  Gn4
 BYTE   W12
 BYTE   Cn4
 BYTE   W12
 BYTE   Gn4
 BYTE   W12
 BYTE   N32  Cn5
 BYTE   W60
//  #01 //105   ----------------------------------------
 BYTE   N11  Gs3
 BYTE   N11  Gn4
 BYTE   W12
 BYTE   Gn3
 BYTE   W12
 BYTE   As3
 BYTE   W12
 BYTE   N23  Cn4
 BYTE   N23  Gn4
 BYTE   W24
 BYTE   N32  Fn4
 BYTE   W36
//  #01 //106   ----------------------------------------
 BYTE   W12
 BYTE   N11  Gs3
 BYTE   W12
 BYTE   Cn4
 BYTE   W12
 BYTE   N32  Ds4
 BYTE   W60
//  #01 //107   ----------------------------------------
Label_0100029F:
 BYTE   N11  Fn4  v064
 BYTE   N11  Gn4
 BYTE   W12
 BYTE   Gn3
 BYTE   W12
 BYTE   Bn3
 BYTE   W12
 BYTE   N32  Fn4
 BYTE   N32  Gn4
 BYTE   W60
 BYTE   PEND 
//  #01 //108   ----------------------------------------
 BYTE   PATT
  POIN2 Label_0100029F
//  #01 //109   ----------------------------------------
 BYTE   N11  Cn4  v064
 BYTE   N11  Gn4
 BYTE   W12
 BYTE   Gn3
 BYTE   W12
 BYTE   N32  Cn4
 BYTE   W12
 BYTE   N23  Gn4
 BYTE   W24
 BYTE   N11  Cn4
 BYTE   W12
 BYTE   Gn3
 BYTE   W12
 BYTE   Fn3
 BYTE   W12
//  #01 //110   ----------------------------------------
 BYTE   En3
 BYTE   W12
 BYTE   Gn3
 BYTE   W12
 BYTE   Cn4
 BYTE   W12
 BYTE   N32  Gn4
 BYTE   W60
//  #01 //111   ----------------------------------------
 BYTE   N11  Fn4
 BYTE   N11  Gn4
 BYTE   W12
 BYTE   Gn3
 BYTE   W12
 BYTE   Cn4
 BYTE   W12
 BYTE   N32  Fn4
 BYTE   N32  Gn4
 BYTE   W60
//  #01 //112   ----------------------------------------
 BYTE   N11  Cs4
 BYTE   N11  Fn4
 BYTE   N11  Gn4
 BYTE   W12
 BYTE   Gn3
 BYTE   W12
 BYTE   Bn3
 BYTE   W12
 BYTE   N56  Cs4
 BYTE   N56  Fn4
 BYTE   N56  Gn4
 BYTE   W60
//  #01 //113   ----------------------------------------
 BYTE   N23
 BYTE   W24
 BYTE   N11  Cn4
 BYTE   W12
 BYTE   N23  Cn5
 BYTE   W24
 BYTE   Gn4
 BYTE   W24
 BYTE   N11  Cn4
 BYTE   W12
//  #01 //114   ----------------------------------------
 BYTE   N23  Fn4
 BYTE   W24
 BYTE   N11  Gn3
 BYTE   W12
 BYTE   N23  Cn4
 BYTE   W24
 BYTE   Gn4
 BYTE   W24
 BYTE   N11  Cn3
 BYTE   W12
//  #01 //115   ----------------------------------------
 BYTE   N23
 BYTE   W24
 BYTE   N11
 BYTE   W12
 BYTE   N23  Gn4
 BYTE   W24
 BYTE   Gn3
 BYTE   W24
 BYTE   N11  Gn4
 BYTE   W12
//  #01 //116   ----------------------------------------
 BYTE   N92  Gn5
 BYTE   W96
//  #01 //117   ----------------------------------------
 BYTE   W96
//  #01 //118   ----------------------------------------
 BYTE   W96
//  #01 //119   ----------------------------------------
 BYTE   W96
//  #01 //120   ----------------------------------------
 BYTE   W96
//  #01 //121   ----------------------------------------
 BYTE   W96
//  #01 //122   ----------------------------------------
 BYTE   W96
//  #01 //123   ----------------------------------------
 BYTE   W96
//  #01 //124   ----------------------------------------
 BYTE   W96
//  #01 //125   ----------------------------------------
 BYTE   W96
//  #01 //126   ----------------------------------------
 BYTE   W96
//  #01 //127   ----------------------------------------
 BYTE   W96
//  #01 //128   ----------------------------------------
 BYTE   W96
//  #01 //129   ----------------------------------------
 BYTE   W96
//  #01 //130   ----------------------------------------
 BYTE   W96
//  #01 //131   ----------------------------------------
 BYTE   W96
//  #01 //132   ----------------------------------------
 BYTE   W96
//  #01 //133   ----------------------------------------
 BYTE   W96
//  #01 //134   ----------------------------------------
 BYTE   W96
//  #01 //135   ----------------------------------------
 BYTE   W96
//  #01 //136   ----------------------------------------
 BYTE   W96
//  #01 //137   ----------------------------------------
 BYTE   W96
//  #01 //138   ----------------------------------------
 BYTE   W96
//  #01 //139   ----------------------------------------
 BYTE   W96
//  #01 //140   ----------------------------------------
 BYTE   W96
//  #01 //141   ----------------------------------------
 BYTE   W96
//  #01 //142   ----------------------------------------
 BYTE   W96
//  #01 //143   ----------------------------------------
 BYTE   W96
//  #01 //144   ----------------------------------------
 BYTE   W96
//  #01 //145   ----------------------------------------
 BYTE   W96
//  #01 //146   ----------------------------------------
 BYTE   W96
//  #01 //147   ----------------------------------------
 BYTE   W96
//  #01 //148   ----------------------------------------
 BYTE   W96
//  #01 //149   ----------------------------------------
 BYTE   W96
//  #01 //150   ----------------------------------------
 BYTE   W96
//  #01 //151   ----------------------------------------
 BYTE   W96
//  #01 //152   ----------------------------------------
 BYTE   W96
//  #01 //153   ----------------------------------------
 BYTE   W96
//  #01 //154   ----------------------------------------
 BYTE   W96
//  #01 //155   ----------------------------------------
 BYTE   W96
//  #01 //156   ----------------------------------------
 BYTE   W96
//  #01 //157   ----------------------------------------
 BYTE   W96
//  #01 //158   ----------------------------------------
 BYTE   W96
//  #01 //159   ----------------------------------------
 BYTE   W96
//  #01 //160   ----------------------------------------
 BYTE   W96
//  #01 //161   ----------------------------------------
 BYTE   W96
//  #01 //162   ----------------------------------------
 BYTE   W96
//  #01 //163   ----------------------------------------
 BYTE   W96
//  #01 //164   ----------------------------------------
 BYTE   W96
//  #01 //165   ----------------------------------------
 BYTE   W96
//  #01 //166   ----------------------------------------
 BYTE   W96
//  #01 //167   ----------------------------------------
 BYTE   W96
//  #01 //168   ----------------------------------------
 BYTE   W96
//  #01 //169   ----------------------------------------
 BYTE   W96
//  #01 //170   ----------------------------------------
 BYTE   W96
//  #01 //171   ----------------------------------------
 BYTE   TEMPO   134*UntamedGarden_tbs/2
 BYTE   N11  Gn3  v052
 BYTE   W12
 BYTE   As3
 BYTE   W12
 BYTE   Cn4
 BYTE   W12
 BYTE   Fn4
 BYTE   W12
 BYTE   Gn3
 BYTE   W12
 BYTE   As3
 BYTE   W12
 BYTE   Cn4
 BYTE   W12
 BYTE   Fn4
 BYTE   W12
//  #01 //172   ----------------------------------------
 BYTE   PATT
  POIN2 Label_01000020
//  #01 //173   ----------------------------------------
 BYTE   PATT
  POIN2 Label_01000033
//  #01 //174   ----------------------------------------
 BYTE   PATT
  POIN2 Label_01000046
//  #01 //175   ----------------------------------------
 BYTE   PATT
  POIN2 Label_0100008F
//  #01 //176   ----------------------------------------
 BYTE   PATT
  POIN2 Label_01000020
//  #01 //177   ----------------------------------------
 BYTE   PATT
  POIN2 Label_01000033
//  #01 //178   ----------------------------------------
 BYTE   PATT
  POIN2 Label_01000046
//  #01 //179   ----------------------------------------
 BYTE   GoTo
  POIN2 Label_0100007B
 BYTE   FINE

//**************** Track 2 (Midi-Chn.1) ****************//

UntamedGarden_002:
//  #02 //000   ----------------------------------------
 BYTE   KEYSH   UntamedGarden_key+0
 BYTE   VOICE   38
 BYTE   VOL   46*UntamedGarden_mvl/mxv
 BYTE   PAN   c_v+0
 BYTE   VOL   46*UntamedGarden_mvl/mxv
 BYTE   PAN   c_v+0
 BYTE   W96
//  #02 //001   ----------------------------------------
 BYTE   W96
//  #02 //002   ----------------------------------------
 BYTE   W96
//  #02 //003   ----------------------------------------
 BYTE   W96
//  #02 //004   ----------------------------------------
 BYTE   W96
//  #02 //005   ----------------------------------------
 BYTE   W96
//  #02 //006   ----------------------------------------
 BYTE   W96
//  #02 //007   ----------------------------------------
 BYTE   W96
//  #02 //008   ----------------------------------------
Label_010008CC:
 BYTE   W96
//  #02 //009   ----------------------------------------
 BYTE   W96
//  #02 //010   ----------------------------------------
 BYTE   W96
//  #02 //011   ----------------------------------------
 BYTE   W96
//  #02 //012   ----------------------------------------
 BYTE   W96
//  #02 //013   ----------------------------------------
 BYTE   W96
//  #02 //014   ----------------------------------------
 BYTE   W96
//  #02 //015   ----------------------------------------
 BYTE   W96
//  #02 //016   ----------------------------------------
 BYTE   W96
//  #02 //017   ----------------------------------------
 BYTE   W96
//  #02 //018   ----------------------------------------
 BYTE   W96
//  #02 //019   ----------------------------------------
 BYTE   W96
//  #02 //020   ----------------------------------------
 BYTE   W96
//  #02 //021   ----------------------------------------
 BYTE   W96
//  #02 //022   ----------------------------------------
 BYTE   W96
//  #02 //023   ----------------------------------------
 BYTE   W96
//  #02 //024   ----------------------------------------
 BYTE   W96
//  #02 //025   ----------------------------------------
 BYTE   W96
//  #02 //026   ----------------------------------------
 BYTE   W96
//  #02 //027   ----------------------------------------
 BYTE   W96
//  #02 //028   ----------------------------------------
 BYTE   W96
//  #02 //029   ----------------------------------------
 BYTE   W96
//  #02 //030   ----------------------------------------
 BYTE   W96
//  #02 //031   ----------------------------------------
 BYTE   W96
//  #02 //032   ----------------------------------------
 BYTE   W96
//  #02 //033   ----------------------------------------
 BYTE   W96
//  #02 //034   ----------------------------------------
 BYTE   W96
//  #02 //035   ----------------------------------------
 BYTE   W96
//  #02 //036   ----------------------------------------
 BYTE   W96
//  #02 //037   ----------------------------------------
 BYTE   W96
//  #02 //038   ----------------------------------------
 BYTE   W96
//  #02 //039   ----------------------------------------
 BYTE   W96
//  #02 //040   ----------------------------------------
 BYTE   W96
//  #02 //041   ----------------------------------------
 BYTE   W96
//  #02 //042   ----------------------------------------
 BYTE   W96
//  #02 //043   ----------------------------------------
 BYTE   W96
//  #02 //044   ----------------------------------------
 BYTE   W96
//  #02 //045   ----------------------------------------
 BYTE   W96
//  #02 //046   ----------------------------------------
 BYTE   W96
//  #02 //047   ----------------------------------------
 BYTE   W96
//  #02 //048   ----------------------------------------
 BYTE   W96
//  #02 //049   ----------------------------------------
 BYTE   W96
//  #02 //050   ----------------------------------------
 BYTE   W96
//  #02 //051   ----------------------------------------
 BYTE   W96
//  #02 //052   ----------------------------------------
 BYTE   W96
//  #02 //053   ----------------------------------------
 BYTE   W96
//  #02 //054   ----------------------------------------
 BYTE   W96
//  #02 //055   ----------------------------------------
 BYTE   W96
//  #02 //056   ----------------------------------------
 BYTE   W96
//  #02 //057   ----------------------------------------
 BYTE   W48
 BYTE   N11  Ds1  v080
 BYTE   W12
 BYTE   N32  En1
 BYTE   W36
//  #02 //058   ----------------------------------------
 BYTE   N44  Gn0
 BYTE   W72
 BYTE   N11  Gs0
 BYTE   W12
 BYTE   As0
 BYTE   W12
//  #02 //059   ----------------------------------------
Label_0100090D:
 BYTE   N68  Cn1  v080
 BYTE   W72
 BYTE   N23
 BYTE   W24
 BYTE   PEND 
//  #02 //060   ----------------------------------------
 BYTE   N68  Fn1
 BYTE   W72
 BYTE   N23
 BYTE   W24
//  #02 //061   ----------------------------------------
Label_01000919:
 BYTE   N68  Ds1  v080
 BYTE   W72
 BYTE   N23
 BYTE   W24
 BYTE   PEND 
//  #02 //062   ----------------------------------------
Label_01000920:
 BYTE   N68  Cs1  v080
 BYTE   W72
 BYTE   N23
 BYTE   W24
 BYTE   PEND 
//  #02 //063   ----------------------------------------
 BYTE   N68  As0
 BYTE   W72
 BYTE   N11  Gs0
 BYTE   W12
 BYTE   As0
 BYTE   W12
//  #02 //064   ----------------------------------------
Label_0100092F:
 BYTE   N68  Cn1  v080
 BYTE   W72
 BYTE   N23  Gn0
 BYTE   W24
 BYTE   PEND 
//  #02 //065   ----------------------------------------
 BYTE   N68  Cn1
 BYTE   W72
 BYTE   N23  Fn0
 BYTE   W24
//  #02 //066   ----------------------------------------
 BYTE   N68  Gn0
 BYTE   W72
 BYTE   N11  Gs0
 BYTE   W12
 BYTE   As0
 BYTE   W12
//  #02 //067   ----------------------------------------
 BYTE   PATT
  POIN2 Label_0100090D
//  #02 //068   ----------------------------------------
 BYTE   N44  Fn1  v080
 BYTE   W48
 BYTE   N23  Cn2
 BYTE   W24
 BYTE   Fn1
 BYTE   W24
//  #02 //069   ----------------------------------------
 BYTE   PATT
  POIN2 Label_01000919
//  #02 //070   ----------------------------------------
 BYTE   N68  As0  v080
 BYTE   W72
 BYTE   N23  Cs1
 BYTE   W24
//  #02 //071   ----------------------------------------
 BYTE   PATT
  POIN2 Label_0100090D
//  #02 //072   ----------------------------------------
 BYTE   N68  Fn0  v080
 BYTE   W72
 BYTE   N23  Cn1
 BYTE   W24
//  #02 //073   ----------------------------------------
 BYTE   PATT
  POIN2 Label_01000919
//  #02 //074   ----------------------------------------
 BYTE   PATT
  POIN2 Label_01000920
//  #02 //075   ----------------------------------------
 BYTE   N68  As0  v080
 BYTE   W72
 BYTE   N23
 BYTE   W24
//  #02 //076   ----------------------------------------
 BYTE   PATT
  POIN2 Label_0100092F
//  #02 //077   ----------------------------------------
 BYTE   N92  Cn1  v080
 BYTE   W96
//  #02 //078   ----------------------------------------
Label_01000984:
 BYTE   N68  Gn0  v080
 BYTE   N44  As3  v112
 BYTE   W48
 BYTE   N68  Gn4
 BYTE   W24
 BYTE   N11  Gs0  v080
 BYTE   W12
 BYTE   As0
 BYTE   W12
 BYTE   PEND 
//  #02 //079   ----------------------------------------
 BYTE   N68  Cn1
 BYTE   W24
 BYTE   N23  Gn4  v112
 BYTE   W24
 BYTE   Gs4
 BYTE   W24
 BYTE   Cn1  v080
 BYTE   N23  Gn4  v112
 BYTE   W24
//  #02 //080   ----------------------------------------
 BYTE   N68  Fn1  v080
 BYTE   N92  Cn4  v112
 BYTE   W72
 BYTE   N23  Fn1  v080
 BYTE   W24
//  #02 //081   ----------------------------------------
Label_010009AF:
 BYTE   N68  Ds1  v080
 BYTE   W24
 BYTE   N23  Fn3  v112
 BYTE   W24
 BYTE   Gn3
 BYTE   W24
 BYTE   Ds1  v080
 BYTE   N23  Gs3  v112
 BYTE   W24
 BYTE   PEND 
//  #02 //082   ----------------------------------------
 BYTE   N68  Cs1  v080
 BYTE   N23  Cn4  v112
 BYTE   W24
 BYTE   As3
 BYTE   W24
 BYTE   N23
 BYTE   W24
 BYTE   Cs1  v080
 BYTE   N23  Fn3  v112
 BYTE   W24
//  #02 //083   ----------------------------------------
 BYTE   N68  As0  v080
 BYTE   N23  Ds4  v112
 BYTE   W24
 BYTE   Cs4
 BYTE   W24
 BYTE   N23
 BYTE   W24
 BYTE   N11  Gs0  v080
 BYTE   N23  Fn3  v112
 BYTE   W12
 BYTE   N11  As0  v080
 BYTE   W12
//  #02 //084   ----------------------------------------
 BYTE   N68  Cn1
 BYTE   TIE  Cn4  v112
 BYTE   W72
 BYTE   N23  Gn0  v080
 BYTE   W24
//  #02 //085   ----------------------------------------
 BYTE   N11  Cn1
 BYTE   W24
 BYTE   N44
 BYTE   W23
 BYTE   EOT
 BYTE   Cn4
 BYTE   W24
 BYTE   W01
 BYTE   N23  Fn0
 BYTE   W24
//  #02 //086   ----------------------------------------
 BYTE   PATT
  POIN2 Label_01000984
//  #02 //087   ----------------------------------------
 BYTE   N68  Cn1  v080
 BYTE   W24
 BYTE   N23  Gn4  v112
 BYTE   W24
 BYTE   Gs4
 BYTE   W24
 BYTE   Cn1  v080
 BYTE   N23  As4  v112
 BYTE   W24
//  #02 //088   ----------------------------------------
 BYTE   N44  Fn1  v080
 BYTE   N23  Gn4  v112
 BYTE   W24
 BYTE   Fn4
 BYTE   W24
 BYTE   Cn2  v080
 BYTE   N44  Fn4  v112
 BYTE   W24
 BYTE   N23  Fn1  v080
 BYTE   W24
//  #02 //089   ----------------------------------------
 BYTE   PATT
  POIN2 Label_010009AF
//  #02 //090   ----------------------------------------
 BYTE   N68  As0  v080
 BYTE   N23  As3  v112
 BYTE   W24
 BYTE   N44  Cn4
 BYTE   W48
 BYTE   N11  As0  v080
 BYTE   N11  As3  v112
 BYTE   W12
 BYTE   Cs1  v080
 BYTE   N11  Gs3  v112
 BYTE   W12
//  #02 //091   ----------------------------------------
 BYTE   N68  Cn1  v080
 BYTE   N23  As3  v112
 BYTE   W24
 BYTE   N44  Cn4
 BYTE   W48
 BYTE   N23  Cn1  v080
 BYTE   N23  Cn3  v112
 BYTE   W24
//  #02 //092   ----------------------------------------
 BYTE   N68  Fn0  v080
 BYTE   N23  Gn3  v112
 BYTE   W24
 BYTE   Fn3
 BYTE   W24
 BYTE   N44
 BYTE   W24
 BYTE   N23  Cn1  v080
 BYTE   W24
//  #02 //093   ----------------------------------------
 BYTE   PATT
  POIN2 Label_010009AF
//  #02 //094   ----------------------------------------
 BYTE   N68  Cs1  v080
 BYTE   N23  As3  v112
 BYTE   W24
 BYTE   N44  Cn4
 BYTE   W48
 BYTE   N23  Cs1  v080
 BYTE   N11  As3  v112
 BYTE   W12
 BYTE   Gs3
 BYTE   W12
//  #02 //095   ----------------------------------------
 BYTE   N68  As0  v080
 BYTE   TIE  Gn3  v112
 BYTE   W72
 BYTE   N23  As0  v080
 BYTE   W24
//  #02 //096   ----------------------------------------
 BYTE   TIE  Cn1
 BYTE   W44
 BYTE   W03
 BYTE   EOT
 BYTE   Gn3
 BYTE   W48
 BYTE   W01
//  #02 //097   ----------------------------------------
 BYTE   W92
 BYTE   W03
 BYTE   Cn1
 BYTE   W01
//  #02 //098   ----------------------------------------
 BYTE   W96
//  #02 //099   ----------------------------------------
 BYTE   W96
//  #02 //100   ----------------------------------------
 BYTE   W96
//  #02 //101   ----------------------------------------
 BYTE   W96
//  #02 //102   ----------------------------------------
 BYTE   W96
//  #02 //103   ----------------------------------------
 BYTE   W96
//  #02 //104   ----------------------------------------
 BYTE   W96
//  #02 //105   ----------------------------------------
 BYTE   W96
//  #02 //106   ----------------------------------------
 BYTE   W96
//  #02 //107   ----------------------------------------
 BYTE   W96
//  #02 //108   ----------------------------------------
 BYTE   W96
//  #02 //109   ----------------------------------------
 BYTE   W96
//  #02 //110   ----------------------------------------
 BYTE   W96
//  #02 //111   ----------------------------------------
 BYTE   W96
//  #02 //112   ----------------------------------------
 BYTE   W96
//  #02 //113   ----------------------------------------
 BYTE   W96
//  #02 //114   ----------------------------------------
 BYTE   W96
//  #02 //115   ----------------------------------------
 BYTE   W48
 BYTE   N11  Fn1
 BYTE   W12
 BYTE   N32  Gn1
 BYTE   W36
//  #02 //116   ----------------------------------------
 BYTE   N56  Gn0
 BYTE   W60
 BYTE   N11
 BYTE   W12
 BYTE   As0
 BYTE   W12
 BYTE   Gn0
 BYTE   W12
//  #02 //117   ----------------------------------------
 BYTE   Cn1
 BYTE   W24
 BYTE   N44
 BYTE   W48
 BYTE   N23
 BYTE   W24
//  #02 //118   ----------------------------------------
 BYTE   N11  Fn1
 BYTE   W12
 BYTE   Gn1
 BYTE   W12
 BYTE   N32  Fn1
 BYTE   W36
 BYTE   N11  Cn1
 BYTE   W12
 BYTE   Fn1
 BYTE   W12
 BYTE   Cn1
 BYTE   W12
//  #02 //119   ----------------------------------------
 BYTE   Ds1
 BYTE   W24
 BYTE   N44
 BYTE   W48
 BYTE   N23
 BYTE   W24
//  #02 //120   ----------------------------------------
 BYTE   N32  Dn1
 BYTE   W36
 BYTE   N11  As0
 BYTE   W12
 BYTE   Dn1
 BYTE   W12
 BYTE   As0
 BYTE   W12
 BYTE   N23  Dn1
 BYTE   W24
//  #02 //121   ----------------------------------------
 BYTE   N32  Cn1
 BYTE   W36
 BYTE   N11  Fn0
 BYTE   W12
 BYTE   Gs0
 BYTE   W12
 BYTE   Gn0
 BYTE   W12
 BYTE   N23  Fs0
 BYTE   W24
//  #02 //122   ----------------------------------------
 BYTE   N32  Fn0
 BYTE   W36
 BYTE   N05  Gs0
 BYTE   W06
 BYTE   Cn1
 BYTE   W06
 BYTE   N11  Fn1
 BYTE   W12
 BYTE   Gn1
 BYTE   W12
 BYTE   N23  Gs1
 BYTE   W24
//  #02 //123   ----------------------------------------
 BYTE   N56  Ds1
 BYTE   W60
 BYTE   N11  As0
 BYTE   W12
 BYTE   N23  Ds1
 BYTE   W24
//  #02 //124   ----------------------------------------
 BYTE   N44  Dn1
 BYTE   W36
 BYTE   N11  Gs1
 BYTE   W12
 BYTE   N23  An1
 BYTE   W24
 BYTE   N11  Gs1
 BYTE   W12
 BYTE   Dn1
 BYTE   W12
//  #02 //125   ----------------------------------------
 BYTE   Cs1
 BYTE   W24
 BYTE   N44
 BYTE   W48
 BYTE   N11  Gn1
 BYTE   W12
 BYTE   Cs1
 BYTE   W12
//  #02 //126   ----------------------------------------
 BYTE   N56  Cn1
 BYTE   W60
 BYTE   N11  Gn1
 BYTE   W24
 BYTE   N11
 BYTE   W12
//  #02 //127   ----------------------------------------
 BYTE   N32  Cn2
 BYTE   W36
 BYTE   N11  As1
 BYTE   W12
 BYTE   Cn2
 BYTE   W12
 BYTE   As1
 BYTE   W12
 BYTE   N23  Gn1
 BYTE   W24
//  #02 //128   ----------------------------------------
 BYTE   N56  Dn1
 BYTE   W60
 BYTE   N11  Gn0
 BYTE   W12
 BYTE   Dn1
 BYTE   W12
 BYTE   Gn0
 BYTE   W12
//  #02 //129   ----------------------------------------
 BYTE   Cs1
 BYTE   W24
 BYTE   N23
 BYTE   W24
 BYTE   Gs1
 BYTE   W24
 BYTE   Cs1
 BYTE   W24
//  #02 //130   ----------------------------------------
 BYTE   N56  Cn1
 BYTE   W60
 BYTE   N11  Gn1
 BYTE   W12
 BYTE   Cn2
 BYTE   W12
 BYTE   Dn2
 BYTE   W12
//  #02 //131   ----------------------------------------
 BYTE   Cn2
 BYTE   W24
 BYTE   Bn1
 BYTE   W12
 BYTE   Gn1
 BYTE   W12
 BYTE   N44  Cn1
 BYTE   W48
//  #02 //132   ----------------------------------------
 BYTE   N56  Gn0
 BYTE   N68  As3  v112
 BYTE   W60
 BYTE   N11  Gn0  v080
 BYTE   W12
 BYTE   As0
 BYTE   N11  Cn4  v112
 BYTE   W12
 BYTE   Gn0  v080
 BYTE   N11  Cs4  v112
 BYTE   W12
//  #02 //133   ----------------------------------------
 BYTE   N23  Cn1  v080
 BYTE   N68  Ds4  v112
 BYTE   W24
 BYTE   N44  Cn1  v080
 BYTE   W48
 BYTE   N23  Gn0
 BYTE   N11  Fn4  v112
 BYTE   W12
 BYTE   Gn4
 BYTE   W12
//  #02 //134   ----------------------------------------
 BYTE   Fn1  v080
 BYTE   N44  Gn4  v112
 BYTE   W12
 BYTE   N11  Gn1  v080
 BYTE   W12
 BYTE   N32  Fn1
 BYTE   W24
 BYTE   N44  Fn4  v112
 BYTE   W12
 BYTE   N11  Gs0  v080
 BYTE   W12
 BYTE   Cn1
 BYTE   W12
 BYTE   Fn1
 BYTE   W12
//  #02 //135   ----------------------------------------
 BYTE   N23  Ds1
 BYTE   N05  Fn4  v112
 BYTE   W12
 BYTE   N02  En4
 BYTE   W06
 BYTE   Fn4
 BYTE   W06
 BYTE   N32  Ds1  v080
 BYTE   N11  Gn4  v112
 BYTE   W12
 BYTE   Fn4
 BYTE   W12
 BYTE   Cn4
 BYTE   W12
 BYTE   As0  v080
 BYTE   N11  Gs3  v112
 BYTE   W12
 BYTE   N23  Ds1  v080
 BYTE   N11  Gn3  v112
 BYTE   W12
 BYTE   Fn3
 BYTE   W12
//  #02 //136   ----------------------------------------
 BYTE   N44  Dn1  v080
 BYTE   N92  As3  v112
 BYTE   W48
 BYTE   N11  Ds1  v080
 BYTE   W11
 BYTE   N23  As1
 BYTE   W24
 BYTE   W01
 BYTE   N11  Dn1
 BYTE   W12
//  #02 //137   ----------------------------------------
 BYTE   Cn1
 BYTE   N68  En3  v112
 BYTE   W24
 BYTE   N32  Cn1  v080
 BYTE   W36
 BYTE   N11  Fn0
 BYTE   W12
 BYTE   Gs0
 BYTE   N11  Fn3  v112
 BYTE   W12
 BYTE   Gn0  v080
 BYTE   N11  Gn3  v112
 BYTE   W12
//  #02 //138   ----------------------------------------
 BYTE   Fn0  v080
 BYTE   N68  Gs3  v112
 BYTE   W12
 BYTE   N11  Cn1  v080
 BYTE   W12
 BYTE   Fn1
 BYTE   W12
 BYTE   Gn1
 BYTE   W12
 BYTE   Gs1
 BYTE   W12
 BYTE   Gn1
 BYTE   W12
 BYTE   N23  Fn1
 BYTE   N11  En3  v112
 BYTE   W12
 BYTE   Fn3
 BYTE   W12
//  #02 //139   ----------------------------------------
 BYTE   Ds1  v080
 BYTE   N11  Gn3  v112
 BYTE   W12
 BYTE   Gs3
 BYTE   W12
 BYTE   N44  Ds1  v080
 BYTE   N11  As3  v112
 BYTE   W12
 BYTE   Cn4
 BYTE   W12
 BYTE   N06  Dn4
 BYTE   W06
 BYTE   Ds4
 BYTE   W07
 BYTE   Fn4
 BYTE   W07
 BYTE   Gn4
 BYTE   W04
 BYTE   N23  Ds1  v080
 BYTE   W03
 BYTE   N06  Gs4  v112
 BYTE   W07
 BYTE   As4
 BYTE   W07
 BYTE   Cn5
 BYTE   W07
//  #02 //140   ----------------------------------------
 BYTE   N23  Dn1  v080
 BYTE   N92  Dn5  v112
 BYTE   W24
 BYTE   N23  Bn1  v080
 BYTE   W24
 BYTE   N05  En2
 BYTE   W06
 BYTE   Fs2
 BYTE   W06
 BYTE   N23  Bn1
 BYTE   W24
 BYTE   N11  Dn1
 BYTE   W12
//  #02 //141   ----------------------------------------
Label_01000C35:
 BYTE   N11  Cs1  v080
 BYTE   TIE  Gn5  v112
 BYTE   W24
 BYTE   N44  Cs1  v080
 BYTE   W48
 BYTE   N11  Gs1
 BYTE   W12
 BYTE   Cs1
 BYTE   W12
 BYTE   PEND 
//  #02 //142   ----------------------------------------
 BYTE   N32  Cn1
 BYTE   W36
 BYTE   N23
 BYTE   W24
 BYTE   N11  Gn1
 BYTE   W12
 BYTE   Cn2
 BYTE   W12
 BYTE   Dn2
 BYTE   W11
 BYTE   EOT
 BYTE   Gn5
 BYTE   W01
//  #02 //143   ----------------------------------------
 BYTE   N32  En2
 BYTE   N92  Gn5  v112
 BYTE   W36
 BYTE   N11  Cn2  v080
 BYTE   W12
 BYTE   N44  Gn1
 BYTE   W48
//  #02 //144   ----------------------------------------
 BYTE   Dn1
 BYTE   N92  Dn5  v112
 BYTE   W48
 BYTE   N23  Dn1  v080
 BYTE   W24
 BYTE   N11  Gn1
 BYTE   W12
 BYTE   Dn1
 BYTE   W12
//  #02 //145   ----------------------------------------
 BYTE   PATT
  POIN2 Label_01000C35
//  #02 //146   ----------------------------------------
 BYTE   N32  Cn1  v080
 BYTE   W36
 BYTE   N23
 BYTE   W24
 BYTE   N11
 BYTE   W12
 BYTE   N23  Gn1
 BYTE   W23
 BYTE   EOT
 BYTE   Gn5
 BYTE   W01
//  #02 //147   ----------------------------------------
 BYTE   N32  Cn2
 BYTE   N92  Gn5  v112
 BYTE   W36
 BYTE   N11  Gn1  v080
 BYTE   W12
 BYTE   N44  Cn1
 BYTE   W48
//  #02 //148   ----------------------------------------
 BYTE   TIE  Fn0
 BYTE   W96
//  #02 //149   ----------------------------------------
 BYTE   W96
//  #02 //150   ----------------------------------------
 BYTE   W96
//  #02 //151   ----------------------------------------
 BYTE   W80
 BYTE   W03
 BYTE   EOT
 BYTE   W01
 BYTE   N11  Cn1
 BYTE   W12
//  #02 //152   ----------------------------------------
 BYTE   TIE  Fn1
 BYTE   W96
//  #02 //153   ----------------------------------------
 BYTE   W96
//  #02 //154   ----------------------------------------
 BYTE   W96
//  #02 //155   ----------------------------------------
 BYTE   W92
 BYTE   W03
 BYTE   EOT
 BYTE   W01
//  #02 //156   ----------------------------------------
 BYTE   TIE  Fn0
 BYTE   W96
//  #02 //157   ----------------------------------------
 BYTE   W96
//  #02 //158   ----------------------------------------
 BYTE   W96
//  #02 //159   ----------------------------------------
 BYTE   W68
 BYTE   W03
 BYTE   EOT
 BYTE   W01
 BYTE   N20  En1
 BYTE   W21
 BYTE   N01  Dn1
 BYTE   N01  Ds1
 BYTE   W01
 BYTE   Cs1
 BYTE   W02
//  #02 //160   ----------------------------------------
 BYTE   TIE  Fn0
 BYTE   W96
//  #02 //161   ----------------------------------------
 BYTE   W96
//  #02 //162   ----------------------------------------
 BYTE   W96
//  #02 //163   ----------------------------------------
 BYTE   W92
 BYTE   W03
 BYTE   EOT
 BYTE   W01
//  #02 //164   ----------------------------------------
 BYTE   W96
//  #02 //165   ----------------------------------------
 BYTE   W96
//  #02 //166   ----------------------------------------
 BYTE   W96
//  #02 //167   ----------------------------------------
 BYTE   W96
//  #02 //168   ----------------------------------------
 BYTE   W96
//  #02 //169   ----------------------------------------
 BYTE   W96
//  #02 //170   ----------------------------------------
 BYTE   W96
//  #02 //171   ----------------------------------------
 BYTE   W96
//  #02 //172   ----------------------------------------
 BYTE   W96
//  #02 //173   ----------------------------------------
 BYTE   W96
//  #02 //174   ----------------------------------------
 BYTE   W96
//  #02 //175   ----------------------------------------
 BYTE   W96
//  #02 //176   ----------------------------------------
 BYTE   W96
//  #02 //177   ----------------------------------------
 BYTE   W96
//  #02 //178   ----------------------------------------
 BYTE   GoTo
  POIN2 Label_010008CC
 BYTE   FINE

//**************** Track 3 (Midi-Chn.2) ****************//

UntamedGarden_003:
//  #03 //000   ----------------------------------------
 BYTE   KEYSH   UntamedGarden_key+0
 BYTE   VOICE   48
 BYTE   VOL   46*UntamedGarden_mvl/mxv
 BYTE   PAN   c_v+0
 BYTE   VOL   46*UntamedGarden_mvl/mxv
 BYTE   PAN   c_v+0
 BYTE   W96
//  #03 //001   ----------------------------------------
 BYTE   W96
//  #03 //002   ----------------------------------------
 BYTE   W96
//  #03 //003   ----------------------------------------
 BYTE   W96
//  #03 //004   ----------------------------------------
 BYTE   W96
//  #03 //005   ----------------------------------------
 BYTE   W96
//  #03 //006   ----------------------------------------
 BYTE   W96
//  #03 //007   ----------------------------------------
 BYTE   W96
//  #03 //008   ----------------------------------------
Label_D0FFCC:
 BYTE   W96
//  #03 //009   ----------------------------------------
 BYTE   W96
//  #03 //010   ----------------------------------------
 BYTE   W96
//  #03 //011   ----------------------------------------
 BYTE   W96
//  #03 //012   ----------------------------------------
 BYTE   W96
//  #03 //013   ----------------------------------------
 BYTE   W96
//  #03 //014   ----------------------------------------
 BYTE   W96
//  #03 //015   ----------------------------------------
 BYTE   W96
//  #03 //016   ----------------------------------------
 BYTE   W96
//  #03 //017   ----------------------------------------
 BYTE   W96
//  #03 //018   ----------------------------------------
 BYTE   W96
//  #03 //019   ----------------------------------------
 BYTE   W96
//  #03 //020   ----------------------------------------
 BYTE   W96
//  #03 //021   ----------------------------------------
 BYTE   W96
//  #03 //022   ----------------------------------------
 BYTE   W96
//  #03 //023   ----------------------------------------
 BYTE   W96
//  #03 //024   ----------------------------------------
Label_D0FFDC:
 BYTE   N44  Gn2  v080
 BYTE   W48
 BYTE   N92  Gn3
 BYTE   W48
 BYTE   PEND 
//  #03 //025   ----------------------------------------
Label_D0FFE4:
 BYTE   W48
 BYTE   N44  Fn3  v080
 BYTE   W48
 BYTE   PEND 
//  #03 //026   ----------------------------------------
Label_D0FFEA:
 BYTE   N92  Cn3  v080
 BYTE   W96
 BYTE   PEND 
//  #03 //027   ----------------------------------------
 BYTE   Ds3
 BYTE   W96
//  #03 //028   ----------------------------------------
 BYTE   PATT
  POIN2 Label_D0FFDC
//  #03 //029   ----------------------------------------
 BYTE   PATT
  POIN2 Label_D0FFE4
//  #03 //030   ----------------------------------------
 BYTE   N92  As3  v080
 BYTE   W96
//  #03 //031   ----------------------------------------
 BYTE   Cn4
 BYTE   W96
//  #03 //032   ----------------------------------------
 BYTE   PATT
  POIN2 Label_D0FFDC
//  #03 //033   ----------------------------------------
 BYTE   PATT
  POIN2 Label_D0FFE4
//  #03 //034   ----------------------------------------
 BYTE   TIE  Cn3  v080
 BYTE   W96
//  #03 //035   ----------------------------------------
Label_D1000F:
 BYTE   W92
 BYTE   W03
 BYTE   PEND 
 BYTE   EOT
 BYTE   Cn3
 BYTE   W01
//  #03 //036   ----------------------------------------
 BYTE   PATT
  POIN2 Label_D0FFDC
//  #03 //037   ----------------------------------------
 BYTE   PATT
  POIN2 Label_D0FFE4
//  #03 //038   ----------------------------------------
 BYTE   PATT
  POIN2 Label_D0FFEA
//  #03 //039   ----------------------------------------
 BYTE   N92  As2  v080
 BYTE   W96
//  #03 //040   ----------------------------------------
Label_D10028:
 BYTE   N92  Gn2  v080
 BYTE   W96
 BYTE   PEND 
//  #03 //041   ----------------------------------------
Label_D1002D:
 BYTE   N92  Fn3  v080
 BYTE   W96
 BYTE   PEND 
//  #03 //042   ----------------------------------------
Label_D10032:
 BYTE   TIE  Ds3  v080
 BYTE   W96
 BYTE   PEND 
//  #03 //043   ----------------------------------------
 BYTE   PATT
  POIN2 Label_D1000F
//  #03 //044   ----------------------------------------
 BYTE   EOT
 BYTE   Ds3
 BYTE   W01
//  #03 //045   ----------------------------------------
 BYTE   PATT
  POIN2 Label_D10028
//  #03 //046   ----------------------------------------
 BYTE   PATT
  POIN2 Label_D1002D
//  #03 //047   ----------------------------------------
 BYTE   PATT
  POIN2 Label_D10032
//  #03 //048   ----------------------------------------
 BYTE   W96
//  #03 //049   ----------------------------------------
 BYTE   W96
//  #03 //050   ----------------------------------------
 BYTE   PATT
  POIN2 Label_D1000F
//  #03 //051   ----------------------------------------
 BYTE   EOT
 BYTE   Ds3
 BYTE   W01
 BYTE   W96
//  #03 //052   ----------------------------------------
 BYTE   W96
//  #03 //053   ----------------------------------------
 BYTE   W96
//  #03 //054   ----------------------------------------
 BYTE   W96
//  #03 //055   ----------------------------------------
 BYTE   W96
//  #03 //056   ----------------------------------------
 BYTE   W96
//  #03 //057   ----------------------------------------
 BYTE   W96
//  #03 //058   ----------------------------------------
 BYTE   W96
//  #03 //059   ----------------------------------------
 BYTE   W96
//  #03 //060   ----------------------------------------
 BYTE   W96
//  #03 //061   ----------------------------------------
Label_D10062:
 BYTE   N92  Fn2  v080
 BYTE   W96
 BYTE   PEND 
//  #03 //062   ----------------------------------------
Label_D10067:
 BYTE   N92  Ds2  v080
 BYTE   W96
 BYTE   PEND 
//  #03 //063   ----------------------------------------
Label_D1006C:
 BYTE   N92  Cs2  v080
 BYTE   N92  Fn2
 BYTE   W96
 BYTE   PEND 
//  #03 //064   ----------------------------------------
Label_D10073:
 BYTE   N92  Fn2  v080
 BYTE   N92  Gs2
 BYTE   W96
 BYTE   PEND 
//  #03 //065   ----------------------------------------
Label_D1007A:
 BYTE   TIE  En2  v080
 BYTE   W96
 BYTE   PEND 
//  #03 //066   ----------------------------------------
 BYTE   PATT
  POIN2 Label_D1000F
//  #03 //067   ----------------------------------------
 BYTE   EOT
 BYTE   En2
 BYTE   W01
 BYTE   W96
//  #03 //068   ----------------------------------------
 BYTE   W96
//  #03 //069   ----------------------------------------
 BYTE   PATT
  POIN2 Label_D10062
//  #03 //070   ----------------------------------------
 BYTE   PATT
  POIN2 Label_D10067
//  #03 //071   ----------------------------------------
 BYTE   PATT
  POIN2 Label_D1006C
//  #03 //072   ----------------------------------------
Label_D10098:
 BYTE   N92  Ds2  v080
 BYTE   N92  Gn2
 BYTE   W96
 BYTE   PEND 
//  #03 //073   ----------------------------------------
 BYTE   PATT
  POIN2 Label_D10062
//  #03 //074   ----------------------------------------
 BYTE   PATT
  POIN2 Label_D10067
//  #03 //075   ----------------------------------------
 BYTE   PATT
  POIN2 Label_D1006C
//  #03 //076   ----------------------------------------
 BYTE   PATT
  POIN2 Label_D10073
//  #03 //077   ----------------------------------------
 BYTE   TIE  Cn2  v080
 BYTE   TIE  En2
 BYTE   W96
//  #03 //078   ----------------------------------------
 BYTE   PATT
  POIN2 Label_D1000F
//  #03 //079   ----------------------------------------
 BYTE   EOT
 BYTE   Cn2  v052
 BYTE   W01
 BYTE   W96
//  #03 //080   ----------------------------------------
 BYTE   W96
//  #03 //081   ----------------------------------------
 BYTE   PATT
  POIN2 Label_D10062
//  #03 //082   ----------------------------------------
 BYTE   PATT
  POIN2 Label_D10067
//  #03 //083   ----------------------------------------
 BYTE   PATT
  POIN2 Label_D1006C
//  #03 //084   ----------------------------------------
 BYTE   PATT
  POIN2 Label_D10073
//  #03 //085   ----------------------------------------
 BYTE   PATT
  POIN2 Label_D1007A
//  #03 //086   ----------------------------------------
 BYTE   PATT
  POIN2 Label_D1000F
//  #03 //087   ----------------------------------------
 BYTE   EOT
 BYTE   En2
 BYTE   W01
 BYTE   W96
//  #03 //088   ----------------------------------------
 BYTE   W96
//  #03 //089   ----------------------------------------
 BYTE   PATT
  POIN2 Label_D10062
//  #03 //090   ----------------------------------------
 BYTE   PATT
  POIN2 Label_D10067
//  #03 //091   ----------------------------------------
 BYTE   PATT
  POIN2 Label_D1006C
//  #03 //092   ----------------------------------------
 BYTE   PATT
  POIN2 Label_D10098
//  #03 //093   ----------------------------------------
 BYTE   PATT
  POIN2 Label_D10062
//  #03 //094   ----------------------------------------
 BYTE   PATT
  POIN2 Label_D10067
//  #03 //095   ----------------------------------------
 BYTE   PATT
  POIN2 Label_D1006C
//  #03 //096   ----------------------------------------
 BYTE   TIE  Cn2  v080
 BYTE   N92  Fn2
 BYTE   W96
//  #03 //097   ----------------------------------------
 BYTE   En2
 BYTE   W92
 BYTE   W03
 BYTE   EOT
 BYTE   Cn2
 BYTE   W01
//  #03 //098   ----------------------------------------
 BYTE   W96
//  #03 //099   ----------------------------------------
 BYTE   W96
//  #03 //100   ----------------------------------------
 BYTE   W96
//  #03 //101   ----------------------------------------
 BYTE   W96
//  #03 //102   ----------------------------------------
 BYTE   W96
//  #03 //103   ----------------------------------------
 BYTE   W96
//  #03 //104   ----------------------------------------
 BYTE   W96
//  #03 //105   ----------------------------------------
 BYTE   W96
//  #03 //106   ----------------------------------------
 BYTE   W96
//  #03 //107   ----------------------------------------
 BYTE   W96
//  #03 //108   ----------------------------------------
 BYTE   W96
//  #03 //109   ----------------------------------------
 BYTE   W96
//  #03 //110   ----------------------------------------
 BYTE   W96
//  #03 //111   ----------------------------------------
 BYTE   W96
//  #03 //112   ----------------------------------------
 BYTE   W96
//  #03 //113   ----------------------------------------
 BYTE   W96
//  #03 //114   ----------------------------------------
 BYTE   W96
//  #03 //115   ----------------------------------------
 BYTE   W96
//  #03 //116   ----------------------------------------
 BYTE   W96
//  #03 //117   ----------------------------------------
 BYTE   W96
//  #03 //118   ----------------------------------------
 BYTE   W96
//  #03 //119   ----------------------------------------
 BYTE   N23  Gn3  v096
 BYTE   W24
 BYTE   En3
 BYTE   W24
 BYTE   Fn3
 BYTE   W24
 BYTE   N44  Cn3
 BYTE   W24
//  #03 //120   ----------------------------------------
 BYTE   W24
 BYTE   N23  Gs2
 BYTE   W24
 BYTE   Gn2
 BYTE   W24
 BYTE   Fn2
 BYTE   W24
//  #03 //121   ----------------------------------------
 BYTE   N92  As2
 BYTE   W96
//  #03 //122   ----------------------------------------
 BYTE   N44  En2
 BYTE   W48
 BYTE   N23  Fn2
 BYTE   W24
 BYTE   Gn2
 BYTE   W24
//  #03 //123   ----------------------------------------
 BYTE   Fn2
 BYTE   W24
 BYTE   N44  Cn2
 BYTE   W48
 BYTE   N23  Fn2
 BYTE   W24
//  #03 //124   ----------------------------------------
Label_D10151:
 BYTE   N23  Gn2  v096
 BYTE   W24
 BYTE   Gs2
 BYTE   W24
 BYTE   As2
 BYTE   W24
 BYTE   Cn3
 BYTE   W24
 BYTE   PEND 
//  #03 //125   ----------------------------------------
 BYTE   N44  Dn3
 BYTE   W48
 BYTE   N92  Gn2
 BYTE   W48
//  #03 //126   ----------------------------------------
 BYTE   W48
 BYTE   N44  Fn2
 BYTE   W48
//  #03 //127   ----------------------------------------
 BYTE   TIE  Cn2
 BYTE   W96
//  #03 //128   ----------------------------------------
Label_D10169:
 BYTE   W92
 BYTE   W03
 BYTE   PEND 
 BYTE   EOT
 BYTE   Cn2
 BYTE   W01
//  #03 //129   ----------------------------------------
Label_D1016F:
 BYTE   N92  Gn2  v096
 BYTE   W96
 BYTE   PEND 
//  #03 //130   ----------------------------------------
 BYTE   N68  Fn3
 BYTE   W72
 BYTE   N11  Ds3
 BYTE   W12
 BYTE   Cs3
 BYTE   W12
//  #03 //131   ----------------------------------------
 BYTE   TIE  Cn3
 BYTE   W96
//  #03 //132   ----------------------------------------
 BYTE   W23
 BYTE   EOT
 BYTE   W01
 BYTE   N23  Fn2
 BYTE   W24
 BYTE   Gn2
 BYTE   W24
 BYTE   Gs2
 BYTE   W24
//  #03 //133   ----------------------------------------
 BYTE   N44  As2
 BYTE   W48
 BYTE   Fn2
 BYTE   W48
//  #03 //134   ----------------------------------------
 BYTE   N92  Gn2
 BYTE   W48
 BYTE   N44  Ds3
 BYTE   W48
//  #03 //135   ----------------------------------------
 BYTE   N23  As2
 BYTE   W24
 BYTE   N44  Gs2
 BYTE   W48
 BYTE   Gn2
 BYTE   W24
//  #03 //136   ----------------------------------------
 BYTE   W24
 BYTE   N23  Fn2
 BYTE   W24
 BYTE   Gn2
 BYTE   W24
 BYTE   Gs2
 BYTE   W24
//  #03 //137   ----------------------------------------
 BYTE   N44  Dn2
 BYTE   W48
 BYTE   As2
 BYTE   W48
//  #03 //138   ----------------------------------------
 BYTE   N68  En2
 BYTE   W72
 BYTE   N11  Fn2
 BYTE   W12
 BYTE   Gn2
 BYTE   W12
//  #03 //139   ----------------------------------------
 BYTE   N23
 BYTE   W24
 BYTE   En2
 BYTE   W24
 BYTE   Fn2
 BYTE   W24
 BYTE   Gn2
 BYTE   W24
//  #03 //140   ----------------------------------------
 BYTE   PATT
  POIN2 Label_D10151
//  #03 //141   ----------------------------------------
Label_D101BE:
 BYTE   N44  Dn3  v096
 BYTE   W48
 BYTE   Gn2
 BYTE   W48
 BYTE   PEND 
//  #03 //142   ----------------------------------------
Label_D101C5:
 BYTE   N68  Gn3  v096
 BYTE   W72
 BYTE   N23  Fn3
 BYTE   W24
 BYTE   PEND 
//  #03 //143   ----------------------------------------
Label_D101CD:
 BYTE   N68  Cn3  v096
 BYTE   W72
 BYTE   N11  As2
 BYTE   W12
 BYTE   Gs2
 BYTE   W12
 BYTE   PEND 
//  #03 //144   ----------------------------------------
 BYTE   PATT
  POIN2 Label_D1016F
//  #03 //145   ----------------------------------------
 BYTE   PATT
  POIN2 Label_D101BE
//  #03 //146   ----------------------------------------
 BYTE   PATT
  POIN2 Label_D101C5
//  #03 //147   ----------------------------------------
 BYTE   PATT
  POIN2 Label_D101CD
//  #03 //148   ----------------------------------------
 BYTE   PATT
  POIN2 Label_D1016F
//  #03 //149   ----------------------------------------
Label_D101F0:
 BYTE   TIE  Fn1  v096
 BYTE   W96
 BYTE   PEND 
//  #03 //150   ----------------------------------------
 BYTE   W96
//  #03 //151   ----------------------------------------
 BYTE   W96
//  #03 //152   ----------------------------------------
 BYTE   PATT
  POIN2 Label_D10169
//  #03 //153   ----------------------------------------
 BYTE   EOT
 BYTE   Fn1
 BYTE   W01
//  #03 //154   ----------------------------------------
 BYTE   PATT
  POIN2 Label_D101F0
//  #03 //155   ----------------------------------------
 BYTE   W96
//  #03 //156   ----------------------------------------
 BYTE   W96
//  #03 //157   ----------------------------------------
 BYTE   W44
 BYTE   W03
 BYTE   EOT
 BYTE   Fn1
 BYTE   W01
 BYTE   N44  Cn2  v096
 BYTE   W48
//  #03 //158   ----------------------------------------
Label_D1020F:
 BYTE   TIE  Fn2  v096
 BYTE   W96
 BYTE   PEND 
//  #03 //159   ----------------------------------------
 BYTE   W96
//  #03 //160   ----------------------------------------
 BYTE   W96
//  #03 //161   ----------------------------------------
 BYTE   PATT
  POIN2 Label_D10169
//  #03 //162   ----------------------------------------
 BYTE   EOT
 BYTE   Fn2
 BYTE   W01
//  #03 //163   ----------------------------------------
 BYTE   PATT
  POIN2 Label_D1020F
//  #03 //164   ----------------------------------------
 BYTE   W96
//  #03 //165   ----------------------------------------
 BYTE   PATT
  POIN2 Label_D10169
//  #03 //166   ----------------------------------------
 BYTE   EOT
 BYTE   Fn2
 BYTE   W01
 BYTE   TIE  Gn2  v096
 BYTE   W04
 BYTE   W05
 BYTE   W05
 BYTE   W05
 BYTE   W05
 BYTE   W04
 BYTE   W05
 BYTE   W05
 BYTE   W05
 BYTE   W05
 BYTE   W04
 BYTE   W05
 BYTE   W05
 BYTE   W05
 BYTE   W05
 BYTE   W04
 BYTE   W05
 BYTE   W05
 BYTE   W05
 BYTE   W05
//  #03 //167   ----------------------------------------
 BYTE   W04
 BYTE   W05
 BYTE   W05
 BYTE   W05
 BYTE   W05
 BYTE   W04
 BYTE   W05
 BYTE   W05
 BYTE   W05
 BYTE   W05
 BYTE   W04
 BYTE   W05
 BYTE   W05
 BYTE   W05
 BYTE   W05
 BYTE   W04
 BYTE   W05
 BYTE   W05
 BYTE   W05
 BYTE   W05
//  #03 //168   ----------------------------------------
 BYTE   W04
 BYTE   W05
 BYTE   W05
 BYTE   W05
 BYTE   W05
 BYTE   W04
 BYTE   W05
 BYTE   W05
 BYTE   W05
 BYTE   W05
 BYTE   W04
 BYTE   W05
 BYTE   W05
 BYTE   W05
 BYTE   W05
 BYTE   W04
 BYTE   W05
 BYTE   W05
 BYTE   W05
 BYTE   W05
//  #03 //169   ----------------------------------------
 BYTE   W04
 BYTE   W05
 BYTE   W05
 BYTE   W05
 BYTE   W05
 BYTE   W04
 BYTE   W05
 BYTE   W05
 BYTE   W05
 BYTE   W05
 BYTE   W04
 BYTE   W05
 BYTE   W05
 BYTE   W05
 BYTE   W05
 BYTE   W04
 BYTE   W05
 BYTE   W05
 BYTE   W05
 BYTE   W05
//  #03 //170   ----------------------------------------
 BYTE   W96
//  #03 //171   ----------------------------------------
 BYTE   W96
//  #03 //172   ----------------------------------------
 BYTE   W92
 BYTE   W03
 BYTE   EOT
 BYTE   W01
//  #03 //173   ----------------------------------------
 BYTE   W96
//  #03 //174   ----------------------------------------
 BYTE   W96
//  #03 //175   ----------------------------------------
 BYTE   W96
//  #03 //176   ----------------------------------------
 BYTE   W96
//  #03 //177   ----------------------------------------
 BYTE   W96
//  #03 //178   ----------------------------------------
 BYTE   W96
//  #03 //179   ----------------------------------------
 BYTE   W96
//  #03 //180   ----------------------------------------
 BYTE   W96
//  #03 //181   ----------------------------------------
 BYTE   GoTo
  POIN2 Label_D0FFCC
 BYTE   FINE

//**************** Track 4 (Midi-Chn.3) ****************//

UntamedGarden_004:
//  #04 //000   ----------------------------------------
 BYTE   KEYSH   UntamedGarden_key+0
 BYTE   VOICE   52
 BYTE   VOL   29*UntamedGarden_mvl/mxv
 BYTE   PAN   c_v+0
 BYTE   PAN   c_v+0
 BYTE   W96
//  #04 //001   ----------------------------------------
 BYTE   W96
//  #04 //002   ----------------------------------------
 BYTE   W96
//  #04 //003   ----------------------------------------
 BYTE   W96
//  #04 //004   ----------------------------------------
 BYTE   W96
//  #04 //005   ----------------------------------------
 BYTE   W96
//  #04 //006   ----------------------------------------
 BYTE   W96
//  #04 //007   ----------------------------------------
 BYTE   W96
//  #04 //008   ----------------------------------------
Label_D0F926:
 BYTE   TIE  Gn3  v052
 BYTE   TIE  Ds4
 BYTE   W96
 BYTE   PEND 
//  #04 //009   ----------------------------------------
 BYTE   W96
//  #04 //010   ----------------------------------------
 BYTE   W96
//  #04 //011   ----------------------------------------
Label_D0F92F:
 BYTE   W92
 BYTE   W03
 BYTE   PEND 
 BYTE   EOT
 BYTE   Gn3  v075
 BYTE   W01
//  #04 //012   ----------------------------------------
Label_D0F936:
 BYTE   TIE  As3  v052
 BYTE   TIE  Fn4
 BYTE   W96
 BYTE   PEND 
//  #04 //013   ----------------------------------------
 BYTE   PATT
  POIN2 Label_D0F92F
//  #04 //014   ----------------------------------------
 BYTE   EOT
 BYTE   As3  v077
 BYTE   W01
Label_D0F946:
 BYTE   TIE  Cn4  v052
 BYTE   TIE  Gn4
 BYTE   W96
 BYTE   PEND 
//  #04 //015   ----------------------------------------
 BYTE   PATT
  POIN2 Label_D0F92F
//  #04 //016   ----------------------------------------
 BYTE   EOT
 BYTE   Cn4  v079
 BYTE   W01
//  #04 //017   ----------------------------------------
 BYTE   PATT
  POIN2 Label_D0F926
//  #04 //018   ----------------------------------------
 BYTE   W96
//  #04 //019   ----------------------------------------
 BYTE   W96
//  #04 //020   ----------------------------------------
 BYTE   PATT
  POIN2 Label_D0F92F
//  #04 //021   ----------------------------------------
 BYTE   EOT
 BYTE   Gn3  v075
 BYTE   W01
//  #04 //022   ----------------------------------------
 BYTE   PATT
  POIN2 Label_D0F936
//  #04 //023   ----------------------------------------
 BYTE   PATT
  POIN2 Label_D0F92F
//  #04 //024   ----------------------------------------
 BYTE   EOT
 BYTE   As3  v077
 BYTE   W01
//  #04 //025   ----------------------------------------
 BYTE   PATT
  POIN2 Label_D0F946
//  #04 //026   ----------------------------------------
 BYTE   PATT
  POIN2 Label_D0F92F
//  #04 //027   ----------------------------------------
 BYTE   EOT
 BYTE   Cn4  v079
 BYTE   W01
//  #04 //028   ----------------------------------------
 BYTE   PATT
  POIN2 Label_D0F926
//  #04 //029   ----------------------------------------
 BYTE   W96
//  #04 //030   ----------------------------------------
 BYTE   W96
//  #04 //031   ----------------------------------------
 BYTE   PATT
  POIN2 Label_D0F92F
//  #04 //032   ----------------------------------------
 BYTE   EOT
 BYTE   Gn3  v075
 BYTE   W01
//  #04 //033   ----------------------------------------
 BYTE   PATT
  POIN2 Label_D0F936
//  #04 //034   ----------------------------------------
 BYTE   PATT
  POIN2 Label_D0F92F
//  #04 //035   ----------------------------------------
 BYTE   EOT
 BYTE   As3  v077
 BYTE   W01
//  #04 //036   ----------------------------------------
 BYTE   PATT
  POIN2 Label_D0F946
//  #04 //037   ----------------------------------------
 BYTE   PATT
  POIN2 Label_D0F92F
//  #04 //038   ----------------------------------------
 BYTE   EOT
 BYTE   Cn4  v079
 BYTE   W01
//  #04 //039   ----------------------------------------
 BYTE   PATT
  POIN2 Label_D0F926
//  #04 //040   ----------------------------------------
 BYTE   W96
//  #04 //041   ----------------------------------------
 BYTE   W96
//  #04 //042   ----------------------------------------
 BYTE   W96
//  #04 //043   ----------------------------------------
 BYTE   W96
//  #04 //044   ----------------------------------------
 BYTE   W96
//  #04 //045   ----------------------------------------
 BYTE   W96
//  #04 //046   ----------------------------------------
 BYTE   PATT
  POIN2 Label_D0F92F
//  #04 //047   ----------------------------------------
 BYTE   EOT
 BYTE   Gn3  v075
 BYTE   W01
//  #04 //048   ----------------------------------------
 BYTE   PATT
  POIN2 Label_D0F926
//  #04 //049   ----------------------------------------
 BYTE   W96
//  #04 //050   ----------------------------------------
 BYTE   W96
//  #04 //051   ----------------------------------------
 BYTE   W96
//  #04 //052   ----------------------------------------
 BYTE   W96
//  #04 //053   ----------------------------------------
 BYTE   W96
//  #04 //054   ----------------------------------------
 BYTE   W96
//  #04 //055   ----------------------------------------
 BYTE   PATT
  POIN2 Label_D0F92F
//  #04 //056   ----------------------------------------
 BYTE   EOT
 BYTE   Gn3  v075
 BYTE   W01
 BYTE   W96
//  #04 //057   ----------------------------------------
 BYTE   W96
//  #04 //058   ----------------------------------------
 BYTE   W96
//  #04 //059   ----------------------------------------
 BYTE   W96
//  #04 //060   ----------------------------------------
 BYTE   W96
//  #04 //061   ----------------------------------------
 BYTE   W96
//  #04 //062   ----------------------------------------
 BYTE   W96
//  #04 //063   ----------------------------------------
 BYTE   W96
//  #04 //064   ----------------------------------------
 BYTE   W96
//  #04 //065   ----------------------------------------
 BYTE   W96
//  #04 //066   ----------------------------------------
 BYTE   W96
//  #04 //067   ----------------------------------------
 BYTE   W96
//  #04 //068   ----------------------------------------
 BYTE   W96
//  #04 //069   ----------------------------------------
 BYTE   W96
//  #04 //070   ----------------------------------------
 BYTE   W96
//  #04 //071   ----------------------------------------
 BYTE   W96
//  #04 //072   ----------------------------------------
 BYTE   W96
//  #04 //073   ----------------------------------------
 BYTE   W96
//  #04 //074   ----------------------------------------
 BYTE   W96
//  #04 //075   ----------------------------------------
 BYTE   W96
//  #04 //076   ----------------------------------------
 BYTE   W96
//  #04 //077   ----------------------------------------
 BYTE   W96
//  #04 //078   ----------------------------------------
 BYTE   W96
//  #04 //079   ----------------------------------------
 BYTE   W96
//  #04 //080   ----------------------------------------
 BYTE   W96
//  #04 //081   ----------------------------------------
 BYTE   W96
//  #04 //082   ----------------------------------------
 BYTE   W96
//  #04 //083   ----------------------------------------
 BYTE   W96
//  #04 //084   ----------------------------------------
 BYTE   W96
//  #04 //085   ----------------------------------------
 BYTE   W96
//  #04 //086   ----------------------------------------
 BYTE   W96
//  #04 //087   ----------------------------------------
 BYTE   W96
//  #04 //088   ----------------------------------------
 BYTE   W96
//  #04 //089   ----------------------------------------
 BYTE   W96
//  #04 //090   ----------------------------------------
 BYTE   W96
//  #04 //091   ----------------------------------------
 BYTE   W96
//  #04 //092   ----------------------------------------
 BYTE   W96
//  #04 //093   ----------------------------------------
 BYTE   W96
//  #04 //094   ----------------------------------------
 BYTE   W96
//  #04 //095   ----------------------------------------
 BYTE   W96
//  #04 //096   ----------------------------------------
 BYTE   W96
//  #04 //097   ----------------------------------------
 BYTE   W96
//  #04 //098   ----------------------------------------
 BYTE   W96
//  #04 //099   ----------------------------------------
 BYTE   W96
//  #04 //100   ----------------------------------------
 BYTE   W96
//  #04 //101   ----------------------------------------
 BYTE   W96
//  #04 //102   ----------------------------------------
 BYTE   W96
//  #04 //103   ----------------------------------------
 BYTE   W96
//  #04 //104   ----------------------------------------
 BYTE   W96
//  #04 //105   ----------------------------------------
 BYTE   W96
//  #04 //106   ----------------------------------------
 BYTE   W96
//  #04 //107   ----------------------------------------
 BYTE   W96
//  #04 //108   ----------------------------------------
 BYTE   W96
//  #04 //109   ----------------------------------------
 BYTE   W96
//  #04 //110   ----------------------------------------
 BYTE   W96
//  #04 //111   ----------------------------------------
 BYTE   W96
//  #04 //112   ----------------------------------------
 BYTE   W96
//  #04 //113   ----------------------------------------
 BYTE   W96
//  #04 //114   ----------------------------------------
 BYTE   W96
//  #04 //115   ----------------------------------------
 BYTE   W96
//  #04 //116   ----------------------------------------
 BYTE   W96
//  #04 //117   ----------------------------------------
 BYTE   W96
//  #04 //118   ----------------------------------------
 BYTE   W96
//  #04 //119   ----------------------------------------
 BYTE   W96
//  #04 //120   ----------------------------------------
 BYTE   W96
//  #04 //121   ----------------------------------------
 BYTE   W96
//  #04 //122   ----------------------------------------
 BYTE   W96
//  #04 //123   ----------------------------------------
 BYTE   W96
//  #04 //124   ----------------------------------------
 BYTE   W96
//  #04 //125   ----------------------------------------
 BYTE   W96
//  #04 //126   ----------------------------------------
 BYTE   W96
//  #04 //127   ----------------------------------------
 BYTE   W96
//  #04 //128   ----------------------------------------
 BYTE   W96
//  #04 //129   ----------------------------------------
 BYTE   W96
//  #04 //130   ----------------------------------------
 BYTE   W96
//  #04 //131   ----------------------------------------
 BYTE   W96
//  #04 //132   ----------------------------------------
 BYTE   W96
//  #04 //133   ----------------------------------------
 BYTE   W96
//  #04 //134   ----------------------------------------
 BYTE   W96
//  #04 //135   ----------------------------------------
 BYTE   W96
//  #04 //136   ----------------------------------------
 BYTE   W96
//  #04 //137   ----------------------------------------
 BYTE   W96
//  #04 //138   ----------------------------------------
 BYTE   W96
//  #04 //139   ----------------------------------------
 BYTE   W96
//  #04 //140   ----------------------------------------
 BYTE   W96
//  #04 //141   ----------------------------------------
 BYTE   W96
//  #04 //142   ----------------------------------------
 BYTE   W96
//  #04 //143   ----------------------------------------
 BYTE   W96
//  #04 //144   ----------------------------------------
 BYTE   W96
//  #04 //145   ----------------------------------------
 BYTE   W96
//  #04 //146   ----------------------------------------
 BYTE   W96
//  #04 //147   ----------------------------------------
 BYTE   W96
//  #04 //148   ----------------------------------------
 BYTE   W96
//  #04 //149   ----------------------------------------
 BYTE   W96
//  #04 //150   ----------------------------------------
 BYTE   W96
//  #04 //151   ----------------------------------------
 BYTE   W96
//  #04 //152   ----------------------------------------
 BYTE   W96
//  #04 //153   ----------------------------------------
 BYTE   W96
//  #04 //154   ----------------------------------------
 BYTE   W96
//  #04 //155   ----------------------------------------
 BYTE   W96
//  #04 //156   ----------------------------------------
 BYTE   W96
//  #04 //157   ----------------------------------------
 BYTE   W96
//  #04 //158   ----------------------------------------
 BYTE   W96
//  #04 //159   ----------------------------------------
 BYTE   W96
//  #04 //160   ----------------------------------------
 BYTE   W96
//  #04 //161   ----------------------------------------
 BYTE   W96
//  #04 //162   ----------------------------------------
 BYTE   W96
//  #04 //163   ----------------------------------------
 BYTE   W96
//  #04 //164   ----------------------------------------
 BYTE   W96
//  #04 //165   ----------------------------------------
 BYTE   W96
//  #04 //166   ----------------------------------------
 BYTE   W96
//  #04 //167   ----------------------------------------
 BYTE   W96
//  #04 //168   ----------------------------------------
 BYTE   W96
//  #04 //169   ----------------------------------------
 BYTE   W96
//  #04 //170   ----------------------------------------
 BYTE   W96
//  #04 //171   ----------------------------------------
 BYTE   W96
//  #04 //172   ----------------------------------------
 BYTE   W96
//  #04 //173   ----------------------------------------
 BYTE   W96
//  #04 //174   ----------------------------------------
 BYTE   W96
//  #04 //175   ----------------------------------------
 BYTE   W96
//  #04 //176   ----------------------------------------
 BYTE   W96
//  #04 //177   ----------------------------------------
 BYTE   W96
//  #04 //178   ----------------------------------------
 BYTE   W96
//  #04 //179   ----------------------------------------
 BYTE   W96
//  #04 //180   ----------------------------------------
 BYTE   W96
//  #04 //181   ----------------------------------------
 BYTE   W96
//  #04 //182   ----------------------------------------
 BYTE   W96
//  #04 //183   ----------------------------------------
 BYTE   W96
//  #04 //184   ----------------------------------------
 BYTE   W96
//  #04 //185   ----------------------------------------
 BYTE   W96
//  #04 //186   ----------------------------------------
 BYTE   GoTo
  POIN2 Label_D0F926
 BYTE   FINE

//**************** Track 5 (Midi-Chn.4) ****************//

UntamedGarden_005:
//  #05 //000   ----------------------------------------
 BYTE   KEYSH   UntamedGarden_key+0
 BYTE   VOICE   74
 BYTE   VOL   46*UntamedGarden_mvl/mxv
 BYTE   PAN   c_v+0
 BYTE   VOL   46*UntamedGarden_mvl/mxv
 BYTE   PAN   c_v+0
 BYTE   W96
//  #05 //001   ----------------------------------------
 BYTE   W96
//  #05 //002   ----------------------------------------
 BYTE   W96
//  #05 //003   ----------------------------------------
 BYTE   W96
//  #05 //004   ----------------------------------------
 BYTE   W96
//  #05 //005   ----------------------------------------
 BYTE   W96
//  #05 //006   ----------------------------------------
 BYTE   W96
//  #05 //007   ----------------------------------------
 BYTE   W96
//  #05 //008   ----------------------------------------
Label_D10858:
 BYTE   W96
//  #05 //009   ----------------------------------------
 BYTE   W96
//  #05 //010   ----------------------------------------
 BYTE   W96
//  #05 //011   ----------------------------------------
 BYTE   W96
//  #05 //012   ----------------------------------------
 BYTE   W96
//  #05 //013   ----------------------------------------
 BYTE   W96
//  #05 //014   ----------------------------------------
 BYTE   W96
//  #05 //015   ----------------------------------------
 BYTE   W96
//  #05 //016   ----------------------------------------
 BYTE   W96
//  #05 //017   ----------------------------------------
 BYTE   W96
//  #05 //018   ----------------------------------------
 BYTE   W96
//  #05 //019   ----------------------------------------
 BYTE   W96
//  #05 //020   ----------------------------------------
 BYTE   W96
//  #05 //021   ----------------------------------------
 BYTE   W96
//  #05 //022   ----------------------------------------
 BYTE   W96
//  #05 //023   ----------------------------------------
 BYTE   W96
//  #05 //024   ----------------------------------------
 BYTE   W96
//  #05 //025   ----------------------------------------
 BYTE   W96
//  #05 //026   ----------------------------------------
 BYTE   W96
//  #05 //027   ----------------------------------------
 BYTE   W96
//  #05 //028   ----------------------------------------
 BYTE   W96
//  #05 //029   ----------------------------------------
 BYTE   W96
//  #05 //030   ----------------------------------------
 BYTE   W96
//  #05 //031   ----------------------------------------
 BYTE   W96
//  #05 //032   ----------------------------------------
 BYTE   W96
//  #05 //033   ----------------------------------------
 BYTE   W96
//  #05 //034   ----------------------------------------
 BYTE   W96
//  #05 //035   ----------------------------------------
 BYTE   W96
//  #05 //036   ----------------------------------------
 BYTE   W96
//  #05 //037   ----------------------------------------
 BYTE   W96
//  #05 //038   ----------------------------------------
 BYTE   W96
//  #05 //039   ----------------------------------------
 BYTE   W96
//  #05 //040   ----------------------------------------
 BYTE   W96
//  #05 //041   ----------------------------------------
 BYTE   W96
//  #05 //042   ----------------------------------------
 BYTE   W96
//  #05 //043   ----------------------------------------
 BYTE   W96
//  #05 //044   ----------------------------------------
 BYTE   W96
//  #05 //045   ----------------------------------------
 BYTE   W96
//  #05 //046   ----------------------------------------
 BYTE   W96
//  #05 //047   ----------------------------------------
 BYTE   W96
//  #05 //048   ----------------------------------------
 BYTE   W96
//  #05 //049   ----------------------------------------
 BYTE   W96
//  #05 //050   ----------------------------------------
 BYTE   W96
//  #05 //051   ----------------------------------------
 BYTE   W96
//  #05 //052   ----------------------------------------
 BYTE   W96
//  #05 //053   ----------------------------------------
 BYTE   W96
//  #05 //054   ----------------------------------------
 BYTE   W96
//  #05 //055   ----------------------------------------
 BYTE   W96
//  #05 //056   ----------------------------------------
 BYTE   W96
//  #05 //057   ----------------------------------------
 BYTE   W96
//  #05 //058   ----------------------------------------
 BYTE   W96
//  #05 //059   ----------------------------------------
 BYTE   W96
//  #05 //060   ----------------------------------------
 BYTE   W96
//  #05 //061   ----------------------------------------
 BYTE   W96
//  #05 //062   ----------------------------------------
 BYTE   W96
//  #05 //063   ----------------------------------------
 BYTE   W96
//  #05 //064   ----------------------------------------
 BYTE   W96
//  #05 //065   ----------------------------------------
 BYTE   W96
//  #05 //066   ----------------------------------------
 BYTE   W96
//  #05 //067   ----------------------------------------
 BYTE   W96
//  #05 //068   ----------------------------------------
 BYTE   W96
//  #05 //069   ----------------------------------------
 BYTE   W96
//  #05 //070   ----------------------------------------
 BYTE   W96
//  #05 //071   ----------------------------------------
 BYTE   W96
//  #05 //072   ----------------------------------------
 BYTE   W96
//  #05 //073   ----------------------------------------
 BYTE   W96
//  #05 //074   ----------------------------------------
 BYTE   W96
//  #05 //075   ----------------------------------------
 BYTE   W96
//  #05 //076   ----------------------------------------
 BYTE   W96
//  #05 //077   ----------------------------------------
 BYTE   W96
//  #05 //078   ----------------------------------------
 BYTE   W96
//  #05 //079   ----------------------------------------
 BYTE   W96
//  #05 //080   ----------------------------------------
 BYTE   W96
//  #05 //081   ----------------------------------------
 BYTE   W96
//  #05 //082   ----------------------------------------
 BYTE   W96
//  #05 //083   ----------------------------------------
 BYTE   W96
//  #05 //084   ----------------------------------------
 BYTE   W96
//  #05 //085   ----------------------------------------
 BYTE   W96
//  #05 //086   ----------------------------------------
 BYTE   W96
//  #05 //087   ----------------------------------------
 BYTE   W96
//  #05 //088   ----------------------------------------
 BYTE   W96
//  #05 //089   ----------------------------------------
 BYTE   W96
//  #05 //090   ----------------------------------------
 BYTE   W96
//  #05 //091   ----------------------------------------
 BYTE   W96
//  #05 //092   ----------------------------------------
 BYTE   W96
//  #05 //093   ----------------------------------------
 BYTE   W96
//  #05 //094   ----------------------------------------
 BYTE   W96
//  #05 //095   ----------------------------------------
 BYTE   W96
//  #05 //096   ----------------------------------------
 BYTE   W96
//  #05 //097   ----------------------------------------
 BYTE   W96
//  #05 //098   ----------------------------------------
 BYTE   W96
//  #05 //099   ----------------------------------------
 BYTE   W96
//  #05 //100   ----------------------------------------
 BYTE   W96
//  #05 //101   ----------------------------------------
 BYTE   W96
//  #05 //102   ----------------------------------------
 BYTE   W96
//  #05 //103   ----------------------------------------
 BYTE   W96
//  #05 //104   ----------------------------------------
 BYTE   W96
//  #05 //105   ----------------------------------------
 BYTE   W96
//  #05 //106   ----------------------------------------
 BYTE   W96
//  #05 //107   ----------------------------------------
 BYTE   W96
//  #05 //108   ----------------------------------------
 BYTE   W96
//  #05 //109   ----------------------------------------
 BYTE   W96
//  #05 //110   ----------------------------------------
 BYTE   W96
//  #05 //111   ----------------------------------------
 BYTE   W96
//  #05 //112   ----------------------------------------
 BYTE   W96
//  #05 //113   ----------------------------------------
 BYTE   W96
//  #05 //114   ----------------------------------------
 BYTE   W96
//  #05 //115   ----------------------------------------
 BYTE   W24
 BYTE   N23  Fn3  v080
 BYTE   W24
 BYTE   Gn3
 BYTE   W24
 BYTE   Gs3
 BYTE   W24
//  #05 //116   ----------------------------------------
 BYTE   N68  As3
 BYTE   W72
 BYTE   N11  Cn4  v112
 BYTE   W12
 BYTE   Cs4
 BYTE   W12
//  #05 //117   ----------------------------------------
Label_D108D5:
 BYTE   N68  Ds4  v112
 BYTE   W72
 BYTE   N11  Fn4
 BYTE   W12
 BYTE   Gn4
 BYTE   W12
 BYTE   PEND 
//  #05 //118   ----------------------------------------
Label_D108DF:
 BYTE   N92  Cn4  v112
 BYTE   W96
 BYTE   PEND 
//  #05 //119   ----------------------------------------
Label_D108E4:
 BYTE   W24
 BYTE   N23  Fn3  v112
 BYTE   W24
 BYTE   Gn3
 BYTE   W24
 BYTE   Gs3
 BYTE   W24
 BYTE   PEND 
//  #05 //120   ----------------------------------------
Label_D108EE:
 BYTE   N68  As3  v112
 BYTE   W72
 BYTE   N11  Cn4
 BYTE   W12
 BYTE   Cs4
 BYTE   W12
 BYTE   PEND 
//  #05 //121   ----------------------------------------
Label_D108F8:
 BYTE   N56  Cn4  v112
 BYTE   W48
 BYTE   W12
 BYTE   N11  Gn3
 BYTE   W12
 BYTE   Cn4
 BYTE   W12
 BYTE   As3
 BYTE   W12
 BYTE   PEND 
//  #05 //122   ----------------------------------------
 BYTE   TIE  Gs3
 BYTE   W96
//  #05 //123   ----------------------------------------
Label_D10908:
 BYTE   W44
 BYTE   W03
 BYTE   PEND 
 BYTE   EOT
 BYTE   Gs3
 BYTE   W24
 BYTE   W01
 BYTE   N23  Gs3  v112
 BYTE   W24
//  #05 //124   ----------------------------------------
Label_D10913:
 BYTE   N68  Gn3  v112
 BYTE   W72
 BYTE   N23  Fn3
 BYTE   W24
 BYTE   PEND 
//  #05 //125   ----------------------------------------
Label_D1091B:
 BYTE   N68  Gn3  v112
 BYTE   W72
 BYTE   N11
 BYTE   W12
 BYTE   Fn3
 BYTE   W12
 BYTE   PEND 
//  #05 //126   ----------------------------------------
Label_D10924:
 BYTE   TIE  Gn3  v112
 BYTE   W96
 BYTE   PEND 
//  #05 //127   ----------------------------------------
 BYTE   PATT
  POIN2 Label_D10908
//  #05 //128   ----------------------------------------
 BYTE   EOT
 BYTE   Gn3
 BYTE   W24
 BYTE   W01
 BYTE   N23  Dn3  v112
 BYTE   W24
//  #05 //129   ----------------------------------------
 BYTE   PATT
  POIN2 Label_D10913
//  #05 //130   ----------------------------------------
 BYTE   N68  Gn3  v112
 BYTE   W72
 BYTE   N11  Ds4
 BYTE   W12
 BYTE   Cs4
 BYTE   W12
//  #05 //131   ----------------------------------------
 BYTE   PATT
  POIN2 Label_D108DF
//  #05 //132   ----------------------------------------
 BYTE   PATT
  POIN2 Label_D108E4
//  #05 //133   ----------------------------------------
 BYTE   PATT
  POIN2 Label_D108EE
//  #05 //134   ----------------------------------------
 BYTE   PATT
  POIN2 Label_D108D5
//  #05 //135   ----------------------------------------
 BYTE   PATT
  POIN2 Label_D108DF
//  #05 //136   ----------------------------------------
 BYTE   PATT
  POIN2 Label_D108E4
//  #05 //137   ----------------------------------------
 BYTE   PATT
  POIN2 Label_D108EE
//  #05 //138   ----------------------------------------
 BYTE   PATT
  POIN2 Label_D108F8
//  #05 //139   ----------------------------------------
 BYTE   N92  Gs3  v112
 BYTE   W96
//  #05 //140   ----------------------------------------
 BYTE   W72
 BYTE   N23
 BYTE   W24
//  #05 //141   ----------------------------------------
 BYTE   PATT
  POIN2 Label_D10913
//  #05 //142   ----------------------------------------
 BYTE   PATT
  POIN2 Label_D1091B
//  #05 //143   ----------------------------------------
 BYTE   PATT
  POIN2 Label_D10924
//  #05 //144   ----------------------------------------
 BYTE   PATT
  POIN2 Label_D10908
//  #05 //145   ----------------------------------------
 BYTE   EOT
 BYTE   Gn3
 BYTE   W24
 BYTE   W01
 BYTE   N23  Cn4  v112
 BYTE   W24
 BYTE   N68  Gn4
 BYTE   W72
//  #05 //146   ----------------------------------------
 BYTE   N23  Fn4
 BYTE   W24
 BYTE   N68  Gn4
 BYTE   W72
//  #05 //147   ----------------------------------------
 BYTE   N11  As4
 BYTE   W12
 BYTE   Gs4
 BYTE   W12
 BYTE   TIE  Gn4
 BYTE   W96
//  #05 //148   ----------------------------------------
 BYTE   W92
 BYTE   W03
 BYTE   EOT
 BYTE   W01
//  #05 //149   ----------------------------------------
 BYTE   W96
//  #05 //150   ----------------------------------------
 BYTE   W96
//  #05 //151   ----------------------------------------
 BYTE   W96
//  #05 //152   ----------------------------------------
 BYTE   W96
//  #05 //153   ----------------------------------------
 BYTE   W96
//  #05 //154   ----------------------------------------
 BYTE   W96
//  #05 //155   ----------------------------------------
 BYTE   W96
//  #05 //156   ----------------------------------------
 BYTE   W96
//  #05 //157   ----------------------------------------
 BYTE   W96
//  #05 //158   ----------------------------------------
 BYTE   W96
//  #05 //159   ----------------------------------------
 BYTE   W96
//  #05 //160   ----------------------------------------
 BYTE   W96
//  #05 //161   ----------------------------------------
 BYTE   W96
//  #05 //162   ----------------------------------------
 BYTE   W96
//  #05 //163   ----------------------------------------
 BYTE   W96
//  #05 //164   ----------------------------------------
 BYTE   W96
//  #05 //165   ----------------------------------------
 BYTE   W96
//  #05 //166   ----------------------------------------
 BYTE   W96
//  #05 //167   ----------------------------------------
 BYTE   W96
//  #05 //168   ----------------------------------------
 BYTE   W96
//  #05 //169   ----------------------------------------
 BYTE   W96
//  #05 //170   ----------------------------------------
 BYTE   W96
//  #05 //171   ----------------------------------------
 BYTE   W96
//  #05 //172   ----------------------------------------
 BYTE   W96
//  #05 //173   ----------------------------------------
 BYTE   W96
//  #05 //174   ----------------------------------------
 BYTE   W96
//  #05 //175   ----------------------------------------
 BYTE   W96
//  #05 //176   ----------------------------------------
 BYTE   W96
//  #05 //177   ----------------------------------------
 BYTE   W96
//  #05 //178   ----------------------------------------
 BYTE   W96
//  #05 //179   ----------------------------------------
 BYTE   GoTo
  POIN2 Label_D10858
 BYTE   FINE

//**************** Track 6 (Midi-Chn.5) ****************//

UntamedGarden_006:
//  #06 //000   ----------------------------------------
 BYTE   KEYSH   UntamedGarden_key+0
 BYTE   VOICE   1
 BYTE   VOL   46*UntamedGarden_mvl/mxv
 BYTE   PAN   c_v+0
 BYTE   W96
//  #06 //001   ----------------------------------------
 BYTE   W96
//  #06 //002   ----------------------------------------
 BYTE   W96
//  #06 //003   ----------------------------------------
 BYTE   W96
//  #06 //004   ----------------------------------------
 BYTE   W96
//  #06 //005   ----------------------------------------
 BYTE   W96
//  #06 //006   ----------------------------------------
 BYTE   W96
//  #06 //007   ----------------------------------------
 BYTE   W96
//  #06 //008   ----------------------------------------
Label_01000F50:
 BYTE   W96
//  #06 //009   ----------------------------------------
 BYTE   W96
//  #06 //010   ----------------------------------------
 BYTE   W96
//  #06 //011   ----------------------------------------
 BYTE   W96
//  #06 //012   ----------------------------------------
 BYTE   W96
//  #06 //013   ----------------------------------------
 BYTE   W96
//  #06 //014   ----------------------------------------
 BYTE   W96
//  #06 //015   ----------------------------------------
 BYTE   W96
//  #06 //016   ----------------------------------------
 BYTE   W96
//  #06 //017   ----------------------------------------
 BYTE   W96
//  #06 //018   ----------------------------------------
 BYTE   W96
//  #06 //019   ----------------------------------------
 BYTE   W96
//  #06 //020   ----------------------------------------
 BYTE   W96
//  #06 //021   ----------------------------------------
 BYTE   W96
//  #06 //022   ----------------------------------------
 BYTE   W96
//  #06 //023   ----------------------------------------
 BYTE   W96
//  #06 //024   ----------------------------------------
 BYTE   W96
//  #06 //025   ----------------------------------------
 BYTE   W96
//  #06 //026   ----------------------------------------
 BYTE   W96
//  #06 //027   ----------------------------------------
 BYTE   W96
//  #06 //028   ----------------------------------------
 BYTE   W96
//  #06 //029   ----------------------------------------
 BYTE   W96
//  #06 //030   ----------------------------------------
 BYTE   W96
//  #06 //031   ----------------------------------------
 BYTE   W96
//  #06 //032   ----------------------------------------
 BYTE   W96
//  #06 //033   ----------------------------------------
 BYTE   W96
//  #06 //034   ----------------------------------------
 BYTE   W96
//  #06 //035   ----------------------------------------
 BYTE   W96
//  #06 //036   ----------------------------------------
 BYTE   W96
//  #06 //037   ----------------------------------------
 BYTE   W96
//  #06 //038   ----------------------------------------
 BYTE   W96
//  #06 //039   ----------------------------------------
 BYTE   W96
//  #06 //040   ----------------------------------------
 BYTE   W96
//  #06 //041   ----------------------------------------
 BYTE   W96
//  #06 //042   ----------------------------------------
 BYTE   W96
//  #06 //043   ----------------------------------------
 BYTE   W96
//  #06 //044   ----------------------------------------
 BYTE   W96
//  #06 //045   ----------------------------------------
 BYTE   W96
//  #06 //046   ----------------------------------------
 BYTE   W96
//  #06 //047   ----------------------------------------
 BYTE   W96
//  #06 //048   ----------------------------------------
 BYTE   W05
 BYTE   N90  Cn3  v080
 BYTE   W05
 BYTE   N84  Ds3
 BYTE   W06
 BYTE   N78  Gn3
 BYTE   W80
//  #06 //049   ----------------------------------------
 BYTE   W05
 BYTE   N90  As2
 BYTE   W05
 BYTE   N84  Cs3
 BYTE   W06
 BYTE   N78  Fn3
 BYTE   W80
//  #06 //050   ----------------------------------------
 BYTE   W05
 BYTE   N90  Gs2
 BYTE   W05
 BYTE   N84  Cn3
 BYTE   W06
 BYTE   N78  Ds3
 BYTE   W80
//  #06 //051   ----------------------------------------
 BYTE   W05
 BYTE   N90  Gn2
 BYTE   W05
 BYTE   N84  As2
 BYTE   W06
 BYTE   N78  Cs3
 BYTE   W80
//  #06 //052   ----------------------------------------
 BYTE   W02
 BYTE   TIE  Gs2
 BYTE   W03
 BYTE   As2
 BYTE   W03
 BYTE   En3
 BYTE   W88
//  #06 //053   ----------------------------------------
 BYTE   W92
 BYTE   W03
 BYTE   EOT
 BYTE   Gs2  v058
 BYTE   En3
 BYTE   W01
//  #06 //054   ----------------------------------------
 BYTE   W02
 BYTE   TIE  Gn2
 BYTE   W03
 BYTE   As2
 BYTE   W03
 BYTE   En3
 BYTE   W88
//  #06 //055   ----------------------------------------
 BYTE   W92
 BYTE   W03
 BYTE   EOT
 BYTE   Gn2  v058
 BYTE   En3
 BYTE   W01
//  #06 //056   ----------------------------------------
 BYTE   W96
//  #06 //057   ----------------------------------------
 BYTE   W96
//  #06 //058   ----------------------------------------
 BYTE   N92  As2
 BYTE   N92  Cs3
 BYTE   N92  Gn3
 BYTE   W96
//  #06 //059   ----------------------------------------
 BYTE   En3
 BYTE   N92  Gn3
 BYTE   N92  As3
 BYTE   W96
//  #06 //060   ----------------------------------------
Label_01000FCE:
 BYTE   N92  As2  v080
 BYTE   N92  En3
 BYTE   N92  Gn3
 BYTE   W96
 BYTE   PEND 
//  #06 //061   ----------------------------------------
 BYTE   Cn3
 BYTE   N92  Ds3
 BYTE   N92  Fn3
 BYTE   W96
//  #06 //062   ----------------------------------------
Label_01000FDD:
 BYTE   N92  As2  v080
 BYTE   N92  Cs3
 BYTE   N92  Fn3
 BYTE   W96
 BYTE   PEND 
//  #06 //063   ----------------------------------------
 BYTE   PATT
  POIN2 Label_01000FDD
//  #06 //064   ----------------------------------------
 BYTE   TIE  As2  v080
 BYTE   TIE  Cn3
 BYTE   TIE  En3
 BYTE   W96
//  #06 //065   ----------------------------------------
 BYTE   W92
 BYTE   W03
 BYTE   EOT
 BYTE   As2  v060
 BYTE   En3
 BYTE   W01
//  #06 //066   ----------------------------------------
 BYTE   N92  Fn3
 BYTE   N92  Gs3
 BYTE   N92  Cn4
 BYTE   W96
//  #06 //067   ----------------------------------------
 BYTE   Gn3
 BYTE   N92  As3
 BYTE   N92  Cn4
 BYTE   W96
//  #06 //068   ----------------------------------------
 BYTE   N80  Ds3
 BYTE   N80  Gn3
 BYTE   N80  As3
 BYTE   W84
 BYTE   N11  Gs3
 BYTE   W12
//  #06 //069   ----------------------------------------
 BYTE   N92  Gs2
 BYTE   N92  Cn3
 BYTE   N32  Gn3
 BYTE   W36
 BYTE   Ds3
 BYTE   W60
//  #06 //070   ----------------------------------------
 BYTE   PATT
  POIN2 Label_01000FDD
//  #06 //071   ----------------------------------------
 BYTE   N92  As2  v080
 BYTE   N92  Cn3
 BYTE   N92  Gn3
 BYTE   W96
//  #06 //072   ----------------------------------------
 BYTE   N68  Gs2
 BYTE   N68  Cn3
 BYTE   N68  Fn3
 BYTE   W72
 BYTE   N11
 BYTE   W12
 BYTE   Fn4
 BYTE   W12
//  #06 //073   ----------------------------------------
 BYTE   N92  Ds1
 BYTE   N44  Gn3
 BYTE   N44  Ds4
 BYTE   W48
 BYTE   Ds3
 BYTE   N44  Cn4
 BYTE   W48
//  #06 //074   ----------------------------------------
 BYTE   N92  Cs3
 BYTE   N92  Fn3
 BYTE   N92  Gs3
 BYTE   W96
//  #06 //075   ----------------------------------------
 BYTE   Dn3
 BYTE   N92  Fn3
 BYTE   N92  Gs3
 BYTE   W96
//  #06 //076   ----------------------------------------
 BYTE   N56  Cn3
 BYTE   N56  En3
 BYTE   N56  Gn3
 BYTE   W60
 BYTE   N11  Cn3
 BYTE   W12
 BYTE   Fn3
 BYTE   W12
 BYTE   Gn3
 BYTE   W12
//  #06 //077   ----------------------------------------
 BYTE   N92  Gn2
 BYTE   N92  Cn3
 BYTE   N92  En3
 BYTE   W96
//  #06 //078   ----------------------------------------
 BYTE   Cs3
 BYTE   N92  Fn3
 BYTE   N92  Cn4
 BYTE   W96
//  #06 //079   ----------------------------------------
 BYTE   Cn3
 BYTE   N92  En3
 BYTE   N92  Cn4
 BYTE   W96
//  #06 //080   ----------------------------------------
 BYTE   N80  Cn3
 BYTE   N80  Ds3
 BYTE   N80  As3
 BYTE   W84
 BYTE   N11
 BYTE   W12
//  #06 //081   ----------------------------------------
 BYTE   N92  Cn3
 BYTE   N92  Ds3
 BYTE   N23  Gn3
 BYTE   W24
 BYTE   N68  Gs3
 BYTE   W72
//  #06 //082   ----------------------------------------
 BYTE   N92  Fn3
 BYTE   N92  Gs3
 BYTE   N92  Ds4
 BYTE   W96
//  #06 //083   ----------------------------------------
 BYTE   Gn3
 BYTE   N92  As3
 BYTE   N92  Cs4
 BYTE   W96
//  #06 //084   ----------------------------------------
 BYTE   N68  En3
 BYTE   N68  Fs3
 BYTE   N68  Cn4
 BYTE   W72
 BYTE   N23  En3
 BYTE   W24
//  #06 //085   ----------------------------------------
 BYTE   N32  Cn3
 BYTE   N32  En3
 BYTE   N32  Gn3
 BYTE   W36
 BYTE   N56  Cn3
 BYTE   N56  En3
 BYTE   N56  Gn3
 BYTE   W60
//  #06 //086   ----------------------------------------
 BYTE   N92  Cs3
 BYTE   N92  Fn3
 BYTE   N92  As3
 BYTE   W96
//  #06 //087   ----------------------------------------
 BYTE   N44
 BYTE   N44  Cs4
 BYTE   N44  Ds4
 BYTE   W48
 BYTE   Gn2
 BYTE   N44  Cn3
 BYTE   N44  En3
 BYTE   W48
//  #06 //088   ----------------------------------------
 BYTE   N56  As2
 BYTE   N56  Fn3
 BYTE   N56  As3
 BYTE   W72
 BYTE   N11  Gn4
 BYTE   W12
 BYTE   N05  Gs4
 BYTE   W06
 BYTE   Fs4
 BYTE   W06
//  #06 //089   ----------------------------------------
 BYTE   N92  Ds1
 BYTE   N23  Gn4
 BYTE   W24
 BYTE   N68  Ds4
 BYTE   W72
//  #06 //090   ----------------------------------------
 BYTE   N56  As2
 BYTE   N56  Fn3
 BYTE   N56  Gs3
 BYTE   W60
 BYTE   N11  Cn3
 BYTE   W12
 BYTE   Fn3
 BYTE   W12
 BYTE   Gs3
 BYTE   W12
//  #06 //091   ----------------------------------------
 BYTE   N92  Cn1
 BYTE   N11  Gn3
 BYTE   W12
 BYTE   En3
 BYTE   W12
 BYTE   N23  Cn3
 BYTE   W24
 BYTE   N44  As2
 BYTE   N44  Gn3
 BYTE   W48
//  #06 //092   ----------------------------------------
 BYTE   N92  Fn1
 BYTE   N56  Gs2
 BYTE   N56  Fn3
 BYTE   W60
 BYTE   N11  Gs2
 BYTE   W12
 BYTE   Cn3
 BYTE   W12
 BYTE   Ds3
 BYTE   W12
//  #06 //093   ----------------------------------------
 BYTE   N92  Ds1
 BYTE   N32  Gn2
 BYTE   N32  Ds3
 BYTE   W36
 BYTE   N56  Cn3
 BYTE   W60
//  #06 //094   ----------------------------------------
 BYTE   N92  Gs2
 BYTE   N92  Cs3
 BYTE   N92  Fn3
 BYTE   W96
//  #06 //095   ----------------------------------------
 BYTE   TIE  As2
 BYTE   TIE  Cn3
 BYTE   TIE  En3
 BYTE   W96
//  #06 //096   ----------------------------------------
 BYTE   W92
 BYTE   W03
 BYTE   EOT
 BYTE   As2  v060
 BYTE   En3
 BYTE   W01
//  #06 //097   ----------------------------------------
 BYTE   W24
 BYTE   N23  Fn3
 BYTE   W24
 BYTE   Gn3
 BYTE   W24
 BYTE   Gs3
 BYTE   W24
//  #06 //098   ----------------------------------------
 BYTE   N92  Cs3
 BYTE   N92  Gn3
 BYTE   N68  As3
 BYTE   W72
 BYTE   N11  Cn4
 BYTE   W12
 BYTE   Cs4
 BYTE   W12
//  #06 //099   ----------------------------------------
 BYTE   N92  As2
 BYTE   N68  Ds3
 BYTE   N68  Ds4
 BYTE   W72
 BYTE   N11  Gs3
 BYTE   N11  Fn4
 BYTE   W12
 BYTE   As3
 BYTE   N11  Gn4
 BYTE   W12
//  #06 //100   ----------------------------------------
 BYTE   N92  Ds3
 BYTE   N92  Fn3
 BYTE   N92  Cn4
 BYTE   W96
//  #06 //101   ----------------------------------------
 BYTE   Gs2
 BYTE   N92  Cn3
 BYTE   W24
 BYTE   N23  Fn3
 BYTE   W24
 BYTE   Gn3
 BYTE   W24
 BYTE   Gs3
 BYTE   W24
//  #06 //102   ----------------------------------------
 BYTE   N68  Dn3
 BYTE   N68  As3
 BYTE   W07
 BYTE   N88  As2
 BYTE   W64
 BYTE   W01
 BYTE   N11  Cn4
 BYTE   W12
 BYTE   Cs4
 BYTE   W12
//  #06 //103   ----------------------------------------
 BYTE   N44  En3
 BYTE   N44  Cn4
 BYTE   W07
 BYTE   N88  Cn3
 BYTE   W40
 BYTE   W01
 BYTE   N11  En3
 BYTE   W12
 BYTE   Gn3
 BYTE   W12
 BYTE   Cn4
 BYTE   W12
 BYTE   As3
 BYTE   W12
//  #06 //104   ----------------------------------------
 BYTE   TIE  Ds3
 BYTE   TIE  Fn3
 BYTE   TIE  Gs3
 BYTE   W96
//  #06 //105   ----------------------------------------
 BYTE   W68
 BYTE   W03
 BYTE   EOT
 BYTE   Ds3  v065
 BYTE   Gs3
 BYTE   W01
 BYTE   N23
 BYTE   W24
//  #06 //106   ----------------------------------------
Label_0100117D:
 BYTE   N92  Fn2  v080
 BYTE   N92  Gn2
 BYTE   N68  Gn3
 BYTE   W72
 BYTE   N23  Fn3
 BYTE   W24
 BYTE   PEND 
//  #06 //107   ----------------------------------------
 BYTE   N92  Fn2
 BYTE   N92  Gn2
 BYTE   N68  Gn3
 BYTE   W72
 BYTE   N11
 BYTE   W12
 BYTE   Fn3
 BYTE   W12
//  #06 //108   ----------------------------------------
 BYTE   N92  Dn3
 BYTE   N92  Fn3
 BYTE   TIE  Gn3
 BYTE   W96
//  #06 //109   ----------------------------------------
 BYTE   N68  Cn3
 BYTE   N68  En3
 BYTE   W68
 BYTE   W03
 BYTE   EOT
 BYTE   Gn3
 BYTE   W01
 BYTE   N23  Cn3
 BYTE   W24
//  #06 //110   ----------------------------------------
 BYTE   PATT
  POIN2 Label_0100117D
//  #06 //111   ----------------------------------------
 BYTE   N92  Fn2  v080
 BYTE   N92  Gn2
 BYTE   N68  Gn3
 BYTE   W72
 BYTE   N11  Ds4
 BYTE   W12
 BYTE   Cs4
 BYTE   W12
//  #06 //112   ----------------------------------------
 BYTE   TIE  Cn3
 BYTE   TIE  Fn3
 BYTE   TIE  Cn4
 BYTE   W96
//  #06 //113   ----------------------------------------
 BYTE   W92
 BYTE   W03
 BYTE   EOT
 BYTE   Cn3  v065
 BYTE   Cn4
 BYTE   W01
//  #06 //114   ----------------------------------------
 BYTE   TIE  Gn2  v064
 BYTE   TIE  Cn3
 BYTE   TIE  En3
 BYTE   W96
//  #06 //115   ----------------------------------------
 BYTE   W92
 BYTE   W03
 BYTE   EOT
 BYTE   Gn2  v060
 BYTE   En3
 BYTE   W01
//  #06 //116   ----------------------------------------
 BYTE   N92  Fn3  v080
 BYTE   N92  Gn3
 BYTE   N92  As3
 BYTE   W96
//  #06 //117   ----------------------------------------
 BYTE   PATT
  POIN2 Label_01000FCE
//  #06 //118   ----------------------------------------
 BYTE   N68  Ds3  v080
 BYTE   N68  Fn3
 BYTE   N68  Gs3
 BYTE   W72
 BYTE   N11  Fn3
 BYTE   W12
 BYTE   Gn3
 BYTE   W12
//  #06 //119   ----------------------------------------
 BYTE   N92  Cn3
 BYTE   N92  Fn3
 BYTE   N32  Gs3
 BYTE   W36
 BYTE   As3
 BYTE   W36
 BYTE   N23  Cn4
 BYTE   W24
//  #06 //120   ----------------------------------------
 BYTE   N92  Dn3
 BYTE   N92  Fn3
 BYTE   N92  As3
 BYTE   W96
//  #06 //121   ----------------------------------------
 BYTE   Cn2
 BYTE   N44  Cn3
 BYTE   N44  Gn3
 BYTE   W48
 BYTE   En3
 BYTE   W48
//  #06 //122   ----------------------------------------
 BYTE   TIE  Cn3
 BYTE   TIE  Ds3
 BYTE   TIE  Fn3
 BYTE   W96
//  #06 //123   ----------------------------------------
 BYTE   W92
 BYTE   W03
 BYTE   EOT
 BYTE   Cn3  v063
 BYTE   Fn3
 BYTE   W01
//  #06 //124   ----------------------------------------
 BYTE   N92  Dn3
 BYTE   N92  Fn3
 BYTE   N92  Gn3
 BYTE   W96
//  #06 //125   ----------------------------------------
 BYTE   Cs3
 BYTE   N92  Fn3
 BYTE   N92  Gn3
 BYTE   W96
//  #06 //126   ----------------------------------------
 BYTE   TIE  Dn3
 BYTE   N92  Fn3
 BYTE   W96
//  #06 //127   ----------------------------------------
 BYTE   En3
 BYTE   W92
 BYTE   W03
 BYTE   EOT
 BYTE   Dn3
 BYTE   W01
//  #06 //128   ----------------------------------------
Label_01001231:
 BYTE   N92  Dn4  v080
 BYTE   N92  Fn4
 BYTE   N92  Gn4
 BYTE   W96
 BYTE   PEND 
//  #06 //129   ----------------------------------------
Label_0100123A:
 BYTE   N92  Cs4  v080
 BYTE   N92  Fn4
 BYTE   N92  Gn4
 BYTE   W96
 BYTE   PEND 
//  #06 //130   ----------------------------------------
 BYTE   TIE  Cn3
 BYTE   N56  Fn4
 BYTE   N56  Cn5
 BYTE   W60
 BYTE   N11  Cn4
 BYTE   W12
 BYTE   Fn4
 BYTE   W12
 BYTE   Gn4
 BYTE   W12
//  #06 //131   ----------------------------------------
 BYTE   N92  En4
 BYTE   N92  Cn5
 BYTE   W92
 BYTE   W03
 BYTE   EOT
 BYTE   Cn3
 BYTE   W01
//  #06 //132   ----------------------------------------
 BYTE   N92  Fn3
 BYTE   N92  Gs3
 BYTE   N92  Cs4
 BYTE   W96
//  #06 //133   ----------------------------------------
 BYTE   Ds3
 BYTE   N92  Gn3
 BYTE   N92  As3
 BYTE   W96
//  #06 //134   ----------------------------------------
Label_01001267:
 BYTE   N92  Cn3  v080
 BYTE   N92  Fn3
 BYTE   N92  Gs3
 BYTE   W96
 BYTE   PEND 
//  #06 //135   ----------------------------------------
 BYTE   PATT
  POIN2 Label_01001267
//  #06 //136   ----------------------------------------
 BYTE   N68  Dn3  v080
 BYTE   N68  Fn3
 BYTE   N68  As3
 BYTE   W72
 BYTE   N11  Cn5
 BYTE   W12
 BYTE   Cs5
 BYTE   W12
//  #06 //137   ----------------------------------------
 BYTE   N56  En4
 BYTE   N56  Gn4
 BYTE   N56  Cn5
 BYTE   W60
 BYTE   N11  Gn4
 BYTE   W12
 BYTE   Cn5
 BYTE   W12
 BYTE   As4
 BYTE   W12
//  #06 //138   ----------------------------------------
 BYTE   N92  Cn4
 BYTE   N92  Fn4
 BYTE   N92  Gs4
 BYTE   W96
//  #06 //139   ----------------------------------------
 BYTE   N68  Cn4
 BYTE   N68  Fn4
 BYTE   N68  Gs4
 BYTE   W72
 BYTE   N23
 BYTE   W24
//  #06 //140   ----------------------------------------
 BYTE   N68  Dn4
 BYTE   N68  Fn4
 BYTE   N68  Gn4
 BYTE   W72
 BYTE   N11
 BYTE   W12
 BYTE   Fn4
 BYTE   W12
//  #06 //141   ----------------------------------------
 BYTE   N68  Cs4
 BYTE   N68  Fn4
 BYTE   N68  Gn4
 BYTE   W72
 BYTE   N11
 BYTE   W12
 BYTE   Fn4
 BYTE   W12
//  #06 //142   ----------------------------------------
 BYTE   N68  Cn4
 BYTE   N68  Fn4
 BYTE   N68  Gn4
 BYTE   W72
 BYTE   N11  As4
 BYTE   W12
 BYTE   Gs4
 BYTE   W12
//  #06 //143   ----------------------------------------
 BYTE   N92  Cn4
 BYTE   N92  En4
 BYTE   N92  Gn4
 BYTE   W96
//  #06 //144   ----------------------------------------
 BYTE   PATT
  POIN2 Label_01001231
//  #06 //145   ----------------------------------------
 BYTE   PATT
  POIN2 Label_0100123A
//  #06 //146   ----------------------------------------
Label_010012D3:
 BYTE   N92  Cn4  v080
 BYTE   N92  Fn4
 BYTE   N92  Cn5
 BYTE   W96
 BYTE   PEND 
//  #06 //147   ----------------------------------------
 BYTE   Cn4
 BYTE   N92  En4
 BYTE   N92  Cn5
 BYTE   W96
//  #06 //148   ----------------------------------------
 BYTE   N11  Fn1
 BYTE   N92  Cn4
 BYTE   N92  Cn5
 BYTE   W12
 BYTE   N11  Cn2
 BYTE   W12
 BYTE   Gn2
 BYTE   W12
 BYTE   N56  Gs2
 BYTE   W60
//  #06 //149   ----------------------------------------
 BYTE   N11  As1
 BYTE   N68  As3
 BYTE   N68  As4
 BYTE   W12
 BYTE   N11  Fn2
 BYTE   W12
 BYTE   Cn3
 BYTE   W12
 BYTE   N32  As2
 BYTE   W36
 BYTE   N11  Ds3
 BYTE   N11  Gs3
 BYTE   N11  Gs4
 BYTE   W12
 BYTE   Dn3
 BYTE   N11  Gn3
 BYTE   N11  Gn4
 BYTE   W12
//  #06 //150   ----------------------------------------
 BYTE   N44  Ds3
 BYTE   N44  Gs3
 BYTE   N44  Gs4
 BYTE   W48
 BYTE   Cn3
 BYTE   TIE  Fn3
 BYTE   TIE  Fn4
 BYTE   W48
//  #06 //151   ----------------------------------------
 BYTE   N92  Dn3
 BYTE   W92
 BYTE   W03
 BYTE   EOT
 BYTE   Fn3  v077
 BYTE   W01
//  #06 //152   ----------------------------------------
 BYTE   PATT
  POIN2 Label_010012D3
//  #06 //153   ----------------------------------------
Label_01001327:
 BYTE   N68  Dn4  v080
 BYTE   N68  Fn4
 BYTE   N68  As4
 BYTE   W72
 BYTE   N11  Gs3
 BYTE   N11  Gs4
 BYTE   W12
 BYTE   As3
 BYTE   N11  As4
 BYTE   W12
 BYTE   PEND 
//  #06 //154   ----------------------------------------
 BYTE   N44  Fn4
 BYTE   N44  Gs4
 BYTE   N44  Cn5
 BYTE   W48
 BYTE   TIE  As4
 BYTE   W48
//  #06 //155   ----------------------------------------
 BYTE   N92  Dn4
 BYTE   N92  Fn4
 BYTE   W92
 BYTE   W03
 BYTE   EOT
 BYTE   As4
 BYTE   W01
//  #06 //156   ----------------------------------------
 BYTE   PATT
  POIN2 Label_010012D3
//  #06 //157   ----------------------------------------
 BYTE   N68  Dn4  v080
 BYTE   N68  Fn4
 BYTE   N68  As4
 BYTE   W72
 BYTE   N11  Gs3
 BYTE   N11  Gs4
 BYTE   W12
 BYTE   Gn3
 BYTE   N11  Gn4
 BYTE   W12
//  #06 //158   ----------------------------------------
 BYTE   N44  Cn4
 BYTE   N44  Fn4
 BYTE   N44  Gs4
 BYTE   W48
 BYTE   TIE  Fn4
 BYTE   W48
//  #06 //159   ----------------------------------------
 BYTE   N92  As3
 BYTE   N92  Dn4
 BYTE   W92
 BYTE   W03
 BYTE   EOT
 BYTE   Fn4
 BYTE   W01
//  #06 //160   ----------------------------------------
 BYTE   PATT
  POIN2 Label_010012D3
//  #06 //161   ----------------------------------------
 BYTE   PATT
  POIN2 Label_01001327
//  #06 //162   ----------------------------------------
 BYTE   N44  Fn4  v080
 BYTE   N44  Gs4
 BYTE   N44  Cn5
 BYTE   W48
 BYTE   TIE  Gn5
 BYTE   W48
//  #06 //163   ----------------------------------------
 BYTE   W92
 BYTE   W03
 BYTE   EOT
 BYTE   W01
//  #06 //164   ----------------------------------------
 BYTE   W07
 BYTE   TIE  Ds5  v064
 BYTE   W88
 BYTE   W01
//  #06 //165   ----------------------------------------
 BYTE   W92
 BYTE   W03
 BYTE   EOT
 BYTE   W01
//  #06 //166   ----------------------------------------
 BYTE   W01
 BYTE   TIE  Ds5  v036
 BYTE   W01
 BYTE   Gn5
 BYTE   W01
 BYTE   As5
 BYTE   W92
 BYTE   W01
//  #06 //167   ----------------------------------------
 BYTE   W96
//  #06 //168   ----------------------------------------
 BYTE   W96
//  #06 //169   ----------------------------------------
 BYTE   W92
 BYTE   W03
 BYTE   EOT
 BYTE   Ds5  v091
 BYTE   As5
 BYTE   W01
//  #06 //170   ----------------------------------------
 BYTE   W96
//  #06 //171   ----------------------------------------
 BYTE   W96
//  #06 //172   ----------------------------------------
 BYTE   W96
//  #06 //173   ----------------------------------------
 BYTE   W96
//  #06 //174   ----------------------------------------
 BYTE   W96
//  #06 //175   ----------------------------------------
 BYTE   W96
//  #06 //176   ----------------------------------------
 BYTE   W96
//  #06 //177   ----------------------------------------
 BYTE   W96
//  #06 //178   ----------------------------------------
 BYTE   GoTo
  POIN2 Label_01000F50
 BYTE   FINE

//**************** Track 7 (Midi-Chn.6) ****************//

UntamedGarden_007:
//  #07 //000   ----------------------------------------
 BYTE   KEYSH   UntamedGarden_key+0
 BYTE   VOICE   100
 BYTE   VOL   46*UntamedGarden_mvl/mxv
 BYTE   PAN   c_v+0
 BYTE   VOL   46*UntamedGarden_mvl/mxv
 BYTE   PAN   c_v+0
 BYTE   W96
//  #07 //001   ----------------------------------------
 BYTE   W96
//  #07 //002   ----------------------------------------
 BYTE   W96
//  #07 //003   ----------------------------------------
 BYTE   W96
//  #07 //004   ----------------------------------------
 BYTE   W96
//  #07 //005   ----------------------------------------
 BYTE   W96
//  #07 //006   ----------------------------------------
 BYTE   W96
//  #07 //007   ----------------------------------------
 BYTE   W96
//  #07 //008   ----------------------------------------
Label_010013D0:
 BYTE   N44  Gn3  v080
 BYTE   W48
 BYTE   N92  Gn4
 BYTE   W48
 BYTE   PEND 
//  #07 //009   ----------------------------------------
Label_010013D8:
 BYTE   W48
 BYTE   N44  Fn4  v080
 BYTE   W48
 BYTE   PEND 
//  #07 //010   ----------------------------------------
Label_010013DE:
 BYTE   N92  Cn4  v080
 BYTE   W96
 BYTE   PEND 
//  #07 //011   ----------------------------------------
Label_010013E3:
 BYTE   N92  Ds4  v080
 BYTE   W96
 BYTE   PEND 
//  #07 //012   ----------------------------------------
 BYTE   PATT
  POIN2 Label_010013D0
//  #07 //013   ----------------------------------------
 BYTE   PATT
  POIN2 Label_010013D8
//  #07 //014   ----------------------------------------
Label_010013F2:
 BYTE   N92  As4  v080
 BYTE   W96
 BYTE   PEND 
//  #07 //015   ----------------------------------------
Label_010013F7:
 BYTE   N92  Cn5  v080
 BYTE   W96
 BYTE   PEND 
//  #07 //016   ----------------------------------------
 BYTE   PATT
  POIN2 Label_010013D0
//  #07 //017   ----------------------------------------
 BYTE   PATT
  POIN2 Label_010013D8
//  #07 //018   ----------------------------------------
 BYTE   PATT
  POIN2 Label_010013DE
//  #07 //019   ----------------------------------------
 BYTE   PATT
  POIN2 Label_010013E3
//  #07 //020   ----------------------------------------
 BYTE   PATT
  POIN2 Label_010013D0
//  #07 //021   ----------------------------------------
 BYTE   PATT
  POIN2 Label_010013D8
//  #07 //022   ----------------------------------------
 BYTE   PATT
  POIN2 Label_010013F2
//  #07 //023   ----------------------------------------
 BYTE   PATT
  POIN2 Label_010013F7
//  #07 //024   ----------------------------------------
Label_01001424:
 BYTE   TIE  Cn5  v064
 BYTE   W96
 BYTE   PEND 
//  #07 //025   ----------------------------------------
Label_01001429:
 BYTE   W44
 BYTE   W03
 BYTE   PEND 
 BYTE   EOT
 BYTE   Cn5
 BYTE   W01
 BYTE   N44  As4  v064
 BYTE   W48
//  #07 //026   ----------------------------------------
Label_01001433:
 BYTE   TIE  Gn4  v064
 BYTE   W96
 BYTE   PEND 
//  #07 //027   ----------------------------------------
Label_01001438:
 BYTE   W92
 BYTE   W03
 BYTE   PEND 
 BYTE   EOT
 BYTE   Gn4
 BYTE   W01
//  #07 //028   ----------------------------------------
 BYTE   PATT
  POIN2 Label_01001424
//  #07 //029   ----------------------------------------
 BYTE   PATT
  POIN2 Label_01001429
//  #07 //030   ----------------------------------------
 BYTE   EOT
 BYTE   Cn5
 BYTE   W01
 BYTE   N44  As4  v064
 BYTE   W48
//  #07 //031   ----------------------------------------
 BYTE   PATT
  POIN2 Label_01001433
//  #07 //032   ----------------------------------------
 BYTE   PATT
  POIN2 Label_01001438
//  #07 //033   ----------------------------------------
 BYTE   EOT
 BYTE   Gn4
 BYTE   W01
Label_0100145C:
 BYTE   N44  Fn4  v064
 BYTE   W48
 BYTE   TIE  Ds4
 BYTE   W48
 BYTE   PEND 
//  #07 //034   ----------------------------------------
 BYTE   PATT
  POIN2 Label_01001438
//  #07 //035   ----------------------------------------
 BYTE   EOT
 BYTE   Ds4
 BYTE   W01
//  #07 //036   ----------------------------------------
 BYTE   PATT
  POIN2 Label_0100145C
//  #07 //037   ----------------------------------------
 BYTE   PATT
  POIN2 Label_01001438
//  #07 //038   ----------------------------------------
 BYTE   EOT
 BYTE   Ds4
 BYTE   W01
Label_01001479:
 BYTE   TIE  As3  v064
 BYTE   W96
 BYTE   PEND 
//  #07 //039   ----------------------------------------
 BYTE   PATT
  POIN2 Label_01001438
//  #07 //040   ----------------------------------------
 BYTE   EOT
 BYTE   As3
 BYTE   W01
Label_01001486:
 BYTE   TIE  Cn4  v064
 BYTE   W96
 BYTE   PEND 
//  #07 //041   ----------------------------------------
 BYTE   PATT
  POIN2 Label_01001438
//  #07 //042   ----------------------------------------
 BYTE   EOT
 BYTE   Cn4
 BYTE   W01
//  #07 //043   ----------------------------------------
 BYTE   PATT
  POIN2 Label_01001479
//  #07 //044   ----------------------------------------
 BYTE   PATT
  POIN2 Label_01001438
//  #07 //045   ----------------------------------------
 BYTE   EOT
 BYTE   As3
 BYTE   W01
//  #07 //046   ----------------------------------------
 BYTE   PATT
  POIN2 Label_01001486
//  #07 //047   ----------------------------------------
 BYTE   W96
//  #07 //048   ----------------------------------------
 BYTE   W96
//  #07 //049   ----------------------------------------
 BYTE   W96
//  #07 //050   ----------------------------------------
 BYTE   W60
 BYTE   W36
//  #07 //051   ----------------------------------------
 BYTE   W24
 BYTE   W60
 BYTE   W12
//  #07 //052   ----------------------------------------
 BYTE   W48
 BYTE   W48
//  #07 //053   ----------------------------------------
 BYTE   W12
 BYTE   W60
 BYTE   W24
//  #07 //054   ----------------------------------------
 BYTE   W36
 BYTE   W60
//  #07 //055   ----------------------------------------
 BYTE   W60
 BYTE   W36
//  #07 //056   ----------------------------------------
 BYTE   W24
 BYTE   W60
 BYTE   W12
//  #07 //057   ----------------------------------------
 BYTE   W48
 BYTE   W48
//  #07 //058   ----------------------------------------
 BYTE   W12
 BYTE   W60
 BYTE   W24
//  #07 //059   ----------------------------------------
 BYTE   W36
 BYTE   W56
 BYTE   W03
 BYTE   EOT
 BYTE   Cn4
 BYTE   W01
//  #07 //060   ----------------------------------------
 BYTE   W96
//  #07 //061   ----------------------------------------
 BYTE   W96
//  #07 //062   ----------------------------------------
Label_010014C6:
 BYTE   N92  Gn2  v080
 BYTE   N92  Cs3
 BYTE   N92  Fn3
 BYTE   N44  As3  v112
 BYTE   W48
 BYTE   N68  Gn4
 BYTE   W48
 BYTE   PEND 
//  #07 //063   ----------------------------------------
Label_010014D5:
 BYTE   N92  Gn2  v080
 BYTE   N92  Cn3
 BYTE   N92  En3
 BYTE   W24
 BYTE   N23  Gn4  v112
 BYTE   W24
 BYTE   Gs4
 BYTE   W24
 BYTE   Gn4
 BYTE   W24
 BYTE   PEND 
//  #07 //064   ----------------------------------------
Label_010014E6:
 BYTE   N92  Gs2  v080
 BYTE   TIE  Cn3
 BYTE   TIE  Ds3
 BYTE   N92  Cn4  v112
 BYTE   W96
 BYTE   PEND 
//  #07 //065   ----------------------------------------
Label_010014F2:
 BYTE   N92  Gn2  v080
 BYTE   W24
 BYTE   N23  Fn3  v112
 BYTE   W24
 BYTE   Gn3
 BYTE   W24
 BYTE   Gs3
 BYTE   W23
 BYTE   PEND 
 BYTE   EOT
 BYTE   Cn3  v063
 BYTE   W01
//  #07 //066   ----------------------------------------
Label_01001503:
 BYTE   N92  Gs2  v080
 BYTE   N92  Ds3
 BYTE   N23  Cn4  v112
 BYTE   W24
 BYTE   As3
 BYTE   W24
 BYTE   N23
 BYTE   W24
 BYTE   Fn3
 BYTE   W24
 BYTE   PEND 
//  #07 //067   ----------------------------------------
 BYTE   N92  Gs2  v080
 BYTE   N92  Cs3
 BYTE   N72  Fn3
 BYTE   N23  Ds4  v112
 BYTE   W24
 BYTE   Cs4
 BYTE   W24
 BYTE   N23
 BYTE   W24
 BYTE   Fn3
 BYTE   W24
//  #07 //068   ----------------------------------------
Label_01001524:
 BYTE   TIE  Gn2  v080
 BYTE   TIE  As2
 BYTE   TIE  En3
 BYTE   TIE  Cn4  v112
 BYTE   W96
 BYTE   PEND 
//  #07 //069   ----------------------------------------
Label_01001530:
 BYTE   W44
 BYTE   W03
 BYTE   PEND 
 BYTE   EOT
 BYTE   Cn4
 BYTE   W48
 BYTE   Gn2  v058
 BYTE   En3
 BYTE   W01
//  #07 //070   ----------------------------------------
 BYTE   PATT
  POIN2 Label_010014C6
//  #07 //071   ----------------------------------------
 BYTE   N92  Gn2  v080
 BYTE   N92  Cn3
 BYTE   N92  En3
 BYTE   W24
 BYTE   N23  En4  v112
 BYTE   W24
 BYTE   Cn4
 BYTE   W24
 BYTE   Gn3
 BYTE   W24
//  #07 //072   ----------------------------------------
 BYTE   N92  Gs2  v080
 BYTE   TIE  Cn3
 BYTE   TIE  Ds3
 BYTE   N23  Gn3  v112
 BYTE   W24
 BYTE   Gs3
 BYTE   W24
 BYTE   N44  Fn4
 BYTE   W48
//  #07 //073   ----------------------------------------
 BYTE   PATT
  POIN2 Label_010014F2
//  #07 //074   ----------------------------------------
 BYTE   EOT
 BYTE   Cn3  v063
 BYTE   W01
Label_01001568:
 BYTE   N92  Cs3  v080
 BYTE   N92  Fn3
 BYTE   N23  As3  v112
 BYTE   W24
 BYTE   N44  Cn4
 BYTE   W48
 BYTE   N11  As3
 BYTE   W12
 BYTE   Gs3
 BYTE   W12
 BYTE   PEND 
//  #07 //075   ----------------------------------------
Label_0100157A:
 BYTE   N72  Cn3  v080
 BYTE   N92  Ds3
 BYTE   N23  As3  v112
 BYTE   W24
 BYTE   N44  Cn4
 BYTE   W48
 BYTE   N23  Cn3
 BYTE   W24
 BYTE   PEND 
//  #07 //076   ----------------------------------------
Label_0100158A:
 BYTE   TIE  Gs2  v080
 BYTE   TIE  Cn3
 BYTE   N24  Fn3
 BYTE   N23  Gn3  v112
 BYTE   W24
 BYTE   Fn3
 BYTE   W24
 BYTE   N44
 BYTE   W48
 BYTE   PEND 
//  #07 //077   ----------------------------------------
Label_0100159A:
 BYTE   W24
 BYTE   N23  Fn3  v112
 BYTE   W24
 BYTE   Gn3
 BYTE   W24
 BYTE   Gs3
 BYTE   W23
 BYTE   PEND 
 BYTE   EOT
 BYTE   Gs2  v060
 BYTE   W01
//  #07 //078   ----------------------------------------
Label_010015A8:
 BYTE   N92  Cn3  v080
 BYTE   N92  Fn3
 BYTE   N23  As3  v112
 BYTE   W24
 BYTE   N44  Cn4
 BYTE   W48
 BYTE   N11  As3
 BYTE   W12
 BYTE   Gs3
 BYTE   W12
 BYTE   PEND 
//  #07 //079   ----------------------------------------
 BYTE   N92  Cs3  v080
 BYTE   N92  Fn3
 BYTE   N23  As3  v112
 BYTE   W24
 BYTE   N44  Cn4
 BYTE   W48
 BYTE   N11  Cs4
 BYTE   W12
 BYTE   Ds4
 BYTE   W12
//  #07 //080   ----------------------------------------
 BYTE   PATT
  POIN2 Label_01001524
//  #07 //081   ----------------------------------------
 BYTE   PATT
  POIN2 Label_01001530
//  #07 //082   ----------------------------------------
 BYTE   EOT
 BYTE   Cn4
 BYTE   W48
 BYTE   Gn2  v058
 BYTE   En3
 BYTE   W01
//  #07 //083   ----------------------------------------
 BYTE   PATT
  POIN2 Label_010014C6
//  #07 //084   ----------------------------------------
 BYTE   PATT
  POIN2 Label_010014D5
//  #07 //085   ----------------------------------------
 BYTE   PATT
  POIN2 Label_010014E6
//  #07 //086   ----------------------------------------
 BYTE   PATT
  POIN2 Label_010014F2
//  #07 //087   ----------------------------------------
 BYTE   EOT
 BYTE   Cn3  v063
 BYTE   W01
//  #07 //088   ----------------------------------------
 BYTE   PATT
  POIN2 Label_01001503
//  #07 //089   ----------------------------------------
 BYTE   N92  Cs3  v080
 BYTE   N72  Fn3
 BYTE   N23  Ds4  v112
 BYTE   W24
 BYTE   Cs4
 BYTE   W24
 BYTE   N23
 BYTE   W24
 BYTE   Fn3
 BYTE   W24
//  #07 //090   ----------------------------------------
 BYTE   TIE  Gn2  v080
 BYTE   TIE  As2
 BYTE   TIE  En3
 BYTE   TIE  Gn3
 BYTE   TIE  Cn4  v112
 BYTE   W96
//  #07 //091   ----------------------------------------
 BYTE   PATT
  POIN2 Label_01001530
//  #07 //092   ----------------------------------------
 BYTE   EOT
 BYTE   Cn4
 BYTE   W48
 BYTE   Gn2  v058
 BYTE   En3  v067
 BYTE   W01
//  #07 //093   ----------------------------------------
 BYTE   PATT
  POIN2 Label_010014C6
//  #07 //094   ----------------------------------------
 BYTE   N92  Gn2  v080
 BYTE   N92  Cn3
 BYTE   N92  En3
 BYTE   W24
 BYTE   N23  Gn4  v112
 BYTE   W24
 BYTE   Gs4
 BYTE   W24
 BYTE   As4
 BYTE   W24
//  #07 //095   ----------------------------------------
 BYTE   N92  Gs2  v080
 BYTE   TIE  Cn3
 BYTE   TIE  Ds3
 BYTE   N23  Gn4  v112
 BYTE   W24
 BYTE   Fn4
 BYTE   W24
 BYTE   N44
 BYTE   W48
//  #07 //096   ----------------------------------------
 BYTE   PATT
  POIN2 Label_010014F2
//  #07 //097   ----------------------------------------
 BYTE   EOT
 BYTE   Cn3  v063
 BYTE   W01
//  #07 //098   ----------------------------------------
 BYTE   PATT
  POIN2 Label_01001568
//  #07 //099   ----------------------------------------
 BYTE   PATT
  POIN2 Label_0100157A
//  #07 //100   ----------------------------------------
 BYTE   PATT
  POIN2 Label_0100158A
//  #07 //101   ----------------------------------------
 BYTE   PATT
  POIN2 Label_0100159A
//  #07 //102   ----------------------------------------
 BYTE   EOT
 BYTE   Gs2  v060
 BYTE   W01
//  #07 //103   ----------------------------------------
 BYTE   PATT
  POIN2 Label_010015A8
//  #07 //104   ----------------------------------------
 BYTE   N92  Gn2  v080
 BYTE   N92  Cn3
 BYTE   N92  Fn3
 BYTE   TIE  Gn3  v112
 BYTE   W96
//  #07 //105   ----------------------------------------
 BYTE   N92  Gn2  v080
 BYTE   N92  Cn3
 BYTE   N92  En3
 BYTE   W44
 BYTE   W03
 BYTE   EOT
 BYTE   Gn3
 BYTE   W48
 BYTE   W01
//  #07 //106   ----------------------------------------
 BYTE   W96
//  #07 //107   ----------------------------------------
 BYTE   W96
//  #07 //108   ----------------------------------------
 BYTE   W96
//  #07 //109   ----------------------------------------
 BYTE   W96
//  #07 //110   ----------------------------------------
 BYTE   W96
//  #07 //111   ----------------------------------------
 BYTE   W96
//  #07 //112   ----------------------------------------
 BYTE   W96
//  #07 //113   ----------------------------------------
 BYTE   W96
//  #07 //114   ----------------------------------------
 BYTE   W96
//  #07 //115   ----------------------------------------
 BYTE   W96
//  #07 //116   ----------------------------------------
 BYTE   W96
//  #07 //117   ----------------------------------------
 BYTE   W96
//  #07 //118   ----------------------------------------
 BYTE   W96
//  #07 //119   ----------------------------------------
 BYTE   W96
//  #07 //120   ----------------------------------------
 BYTE   W96
//  #07 //121   ----------------------------------------
 BYTE   W96
//  #07 //122   ----------------------------------------
 BYTE   W96
//  #07 //123   ----------------------------------------
 BYTE   W96
//  #07 //124   ----------------------------------------
 BYTE   W96
//  #07 //125   ----------------------------------------
 BYTE   N92  As2
 BYTE   N92  Cs3
 BYTE   N92  Fn3
 BYTE   W96
//  #07 //126   ----------------------------------------
 BYTE   Cn3
 BYTE   N92  Ds3
 BYTE   N92  Gn3
 BYTE   W96
//  #07 //127   ----------------------------------------
 BYTE   TIE  Cn3
 BYTE   TIE  Fn3
 BYTE   TIE  Gs3
 BYTE   W96
//  #07 //128   ----------------------------------------
Label_010016AB:
 BYTE   W92
 BYTE   W03
 BYTE   PEND 
 BYTE   EOT
 BYTE   Cn3  v065
 BYTE   Gs3
 BYTE   W01
//  #07 //129   ----------------------------------------
 BYTE   N92  Dn3  v080
 BYTE   N92  Fn3
 BYTE   N92  As3
 BYTE   W96
//  #07 //130   ----------------------------------------
 BYTE   En3
 BYTE   N92  Gn3
 BYTE   N92  Cn4
 BYTE   W96
//  #07 //131   ----------------------------------------
 BYTE   TIE  Gs2
 BYTE   TIE  Cn3
 BYTE   N23  Fn3
 BYTE   W24
 BYTE   Gn3
 BYTE   W24
 BYTE   En3
 BYTE   W24
 BYTE   Fn3
 BYTE   W24
//  #07 //132   ----------------------------------------
 BYTE   Gn3
 BYTE   W24
 BYTE   Gs3
 BYTE   W24
 BYTE   As3
 BYTE   W24
 BYTE   Cn4
 BYTE   W23
 BYTE   EOT
 BYTE   Gs2  v060
 BYTE   W01
//  #07 //133   ----------------------------------------
 BYTE   TIE  Dn3
 BYTE   N92  Gn3
 BYTE   N44  Dn4
 BYTE   W48
 BYTE   N92  Gn4
 BYTE   W48
//  #07 //134   ----------------------------------------
 BYTE   Gn3
 BYTE   W48
 BYTE   N44  Fn4
 BYTE   W44
 BYTE   W03
 BYTE   EOT
 BYTE   Dn3
 BYTE   W01
//  #07 //135   ----------------------------------------
 BYTE   TIE  Cn3
 BYTE   TIE  Gn3
 BYTE   N92  Gn4
 BYTE   W96
//  #07 //136   ----------------------------------------
 BYTE   Cn4
 BYTE   W92
 BYTE   W03
 BYTE   EOT
 BYTE   Cn3  v067
 BYTE   W01
//  #07 //137   ----------------------------------------
 BYTE   N92
 BYTE   N92  Bn3
 BYTE   N44  Dn4
 BYTE   W48
 BYTE   N92  Gn4
 BYTE   W48
//  #07 //138   ----------------------------------------
 BYTE   Cs3
 BYTE   N92  Gs3
 BYTE   W48
 BYTE   N44  Fn4
 BYTE   W48
//  #07 //139   ----------------------------------------
 BYTE   TIE  Cn3
 BYTE   TIE  Gn3
 BYTE   TIE  Cn4
 BYTE   TIE  Gn4
 BYTE   W96
//  #07 //140   ----------------------------------------
 BYTE   PATT
  POIN2 Label_010016AB
//  #07 //141   ----------------------------------------
 BYTE   EOT
 BYTE   Cn3  v067
 BYTE   Cn4  v079
 BYTE   W01
 BYTE   N68  As3  v080
 BYTE   W72
 BYTE   N11  Cn4
 BYTE   W12
 BYTE   Cs4
 BYTE   W12
//  #07 //142   ----------------------------------------
 BYTE   N68  Ds4
 BYTE   W72
 BYTE   N11  Fn4
 BYTE   W12
 BYTE   Gn4
 BYTE   W12
//  #07 //143   ----------------------------------------
 BYTE   N44
 BYTE   W48
 BYTE   N92  Fn4
 BYTE   W48
//  #07 //144   ----------------------------------------
 BYTE   W48
 BYTE   N23  Cn4
 BYTE   W24
 BYTE   Gs3
 BYTE   W24
//  #07 //145   ----------------------------------------
 BYTE   N92  As3
 BYTE   W96
//  #07 //146   ----------------------------------------
 BYTE   N68  En3
 BYTE   W72
 BYTE   N11  Fn3
 BYTE   W12
 BYTE   Gn3
 BYTE   W12
//  #07 //147   ----------------------------------------
 BYTE   N44  Cn3
 BYTE   W72
 BYTE   N11  En3
 BYTE   W12
 BYTE   Fn3
 BYTE   W12
//  #07 //148   ----------------------------------------
 BYTE   Gn3
 BYTE   W12
 BYTE   Gs3
 BYTE   W12
 BYTE   As3
 BYTE   W12
 BYTE   Cn4
 BYTE   W12
 BYTE   N06  Dn4
 BYTE   W06
 BYTE   Ds4
 BYTE   W07
 BYTE   Fn4
 BYTE   W07
 BYTE   Gn4
 BYTE   W07
 BYTE   Gs4
 BYTE   W07
 BYTE   As4
 BYTE   W07
 BYTE   Cn5
 BYTE   W07
//  #07 //149   ----------------------------------------
 BYTE   N92  Dn5
 BYTE   W02
 BYTE   W02
 BYTE   W02
 BYTE   W02
 BYTE   W02
 BYTE   W02
 BYTE   W02
 BYTE   W02
 BYTE   W02
 BYTE   W02
 BYTE   W02
 BYTE   W02
 BYTE   W02
 BYTE   W02
 BYTE   W02
 BYTE   W02
 BYTE   W02
 BYTE   W02
 BYTE   W02
 BYTE   W02
 BYTE   W02
 BYTE   W02
 BYTE   W03
 BYTE   W02
 BYTE   W02
 BYTE   W02
 BYTE   W02
 BYTE   W02
 BYTE   W02
 BYTE   W02
 BYTE   W02
 BYTE   W02
 BYTE   W02
 BYTE   W02
 BYTE   W02
 BYTE   W02
 BYTE   W02
 BYTE   W02
 BYTE   W02
 BYTE   W02
 BYTE   W02
 BYTE   W02
 BYTE   W02
 BYTE   W02
 BYTE   W02
 BYTE   W03
 BYTE   W02
//  #07 //150   ----------------------------------------
 BYTE   TIE  Gn5
 BYTE   W96
//  #07 //151   ----------------------------------------
Label_01001799:
 BYTE   W68
 BYTE   W03
 BYTE   PEND 
 BYTE   EOT
 BYTE   Gn5
 BYTE   W01
 BYTE   N11  As5  v080
 BYTE   W12
 BYTE   Gs5
 BYTE   W12
//  #07 //152   ----------------------------------------
 BYTE   N92  Gn5
 BYTE   W72
 BYTE   N23  Cn4  v112
 BYTE   W24
//  #07 //153   ----------------------------------------
 BYTE   N92  Dn4
 BYTE   N92  Dn5  v080
 BYTE   W96
//  #07 //154   ----------------------------------------
 BYTE   TIE  Gn4  v112
 BYTE   TIE  Gn5  v080
 BYTE   W96
//  #07 //155   ----------------------------------------
 BYTE   PATT
  POIN2 Label_01001799
//  #07 //156   ----------------------------------------
 BYTE   EOT
 BYTE   Gn4  v091
 BYTE   W01
 BYTE   N23  Fn4  v112
 BYTE   N23  Fn5  v080
 BYTE   W24
 BYTE   N84  En4  v112
 BYTE   N68  En5  v080
 BYTE   W72
//  #07 //157   ----------------------------------------
 BYTE   N05  Cn5
 BYTE   W06
 BYTE   Gn4
 BYTE   W06
 BYTE   En4
 BYTE   W06
 BYTE   Cn4
 BYTE   W06
Label_010017D9:
 BYTE   N92  Fn3  v080
 BYTE   N92  Gs3
 BYTE   N92  Cn4
 BYTE   W96
 BYTE   PEND 
//  #07 //158   ----------------------------------------
 BYTE   Dn3
 BYTE   N92  Fn3
 BYTE   N68  As3  v112
 BYTE   W72
 BYTE   N11  Gs3
 BYTE   W12
 BYTE   Gn3
 BYTE   W12
//  #07 //159   ----------------------------------------
 BYTE   N48  Fn3  v080
 BYTE   N44  Gs3
 BYTE   W48
 BYTE   Fn3  v112
 BYTE   W48
//  #07 //160   ----------------------------------------
 BYTE   N92  Dn3  v080
 BYTE   N68  Fn3
 BYTE   N92  As3
 BYTE   W96
//  #07 //161   ----------------------------------------
 BYTE   PATT
  POIN2 Label_010017D9
//  #07 //162   ----------------------------------------
 BYTE   N92  Dn3  v080
 BYTE   N92  Fn3
 BYTE   N68  As3  v112
 BYTE   W72
 BYTE   N11  Gs3
 BYTE   W12
 BYTE   As3
 BYTE   W12
//  #07 //163   ----------------------------------------
 BYTE   N92  Fn3  v080
 BYTE   N92  Gs3
 BYTE   N44  Cn4  v112
 BYTE   W48
 BYTE   N48  As3
 BYTE   W48
//  #07 //164   ----------------------------------------
 BYTE   N92  Dn3  v080
 BYTE   N92  Fn3
 BYTE   N44  As3
 BYTE   W48
 BYTE   Fn4
 BYTE   W48
//  #07 //165   ----------------------------------------
Label_01001828:
 BYTE   N92  Cn4  v112
 BYTE   N92  Fn4  v080
 BYTE   N92  Gs4
 BYTE   TIE  Cn5
 BYTE   W96
 BYTE   PEND 
//  #07 //166   ----------------------------------------
 BYTE   N68  As3  v112
 BYTE   N92  Dn4  v080
 BYTE   N92  Fn4
 BYTE   W72
 BYTE   N11  Gs3  v112
 BYTE   W12
 BYTE   Gn3
 BYTE   W12
//  #07 //167   ----------------------------------------
 BYTE   N44  Gs3
 BYTE   N92  Fn4  v080
 BYTE   N92  Gs4
 BYTE   W48
 BYTE   TIE  Fn3  v112
 BYTE   W44
 BYTE   W03
 BYTE   EOT
 BYTE   Cn5
 BYTE   W01
//  #07 //168   ----------------------------------------
 BYTE   N92  Dn4  v080
 BYTE   N92  Fn4
 BYTE   N92  As4
 BYTE   W68
 BYTE   W03
 BYTE   EOT
 BYTE   Fn3
 BYTE   W24
 BYTE   W01
//  #07 //169   ----------------------------------------
 BYTE   PATT
  POIN2 Label_01001828
//  #07 //170   ----------------------------------------
 BYTE   N68  As3  v112
 BYTE   N92  Dn4  v080
 BYTE   N92  Fn4
 BYTE   W72
 BYTE   N11  Gs3  v112
 BYTE   W12
 BYTE   As3
 BYTE   W11
 BYTE   EOT
 BYTE   Cn5
 BYTE   W01
//  #07 //171   ----------------------------------------
 BYTE   N44  Cn4
 BYTE   N92  Fn4  v080
 BYTE   N92  Gs4
 BYTE   N92  Fn5
 BYTE   W48
 BYTE   N48  Gn4  v112
 BYTE   W48
//  #07 //172   ----------------------------------------
 BYTE   TIE  Ds4  v080
 BYTE   TIE  Gn4
 BYTE   TIE  Ds5
 BYTE   TIE  Gn5
 BYTE   W04
 BYTE   W02
 BYTE   W02
 BYTE   W04
 BYTE   W04
 BYTE   W02
 BYTE   W02
 BYTE   W04
 BYTE   W04
 BYTE   W02
 BYTE   W02
 BYTE   W04
 BYTE   W04
 BYTE   W02
 BYTE   W02
 BYTE   W04
 BYTE   W04
 BYTE   W02
 BYTE   W02
 BYTE   W04
 BYTE   W04
 BYTE   W02
 BYTE   W02
 BYTE   W04
 BYTE   W04
 BYTE   W02
 BYTE   W02
 BYTE   W04
 BYTE   W04
 BYTE   W02
 BYTE   W02
 BYTE   W04
//  #07 //173   ----------------------------------------
 BYTE   W04
 BYTE   W02
 BYTE   W02
 BYTE   W04
 BYTE   W04
 BYTE   W02
 BYTE   W02
 BYTE   W04
 BYTE   W04
 BYTE   W02
 BYTE   W02
 BYTE   W04
 BYTE   W04
 BYTE   W02
 BYTE   W02
 BYTE   W04
 BYTE   W04
 BYTE   W02
 BYTE   W02
 BYTE   W04
 BYTE   W04
 BYTE   W02
 BYTE   W02
 BYTE   W04
 BYTE   W04
 BYTE   W02
 BYTE   W02
 BYTE   W04
 BYTE   W04
 BYTE   W02
 BYTE   W02
 BYTE   W04
//  #07 //174   ----------------------------------------
 BYTE   W04
 BYTE   W02
 BYTE   W02
 BYTE   W04
 BYTE   W04
 BYTE   W02
 BYTE   W02
 BYTE   W04
 BYTE   W04
 BYTE   W02
 BYTE   W02
 BYTE   W04
 BYTE   W04
 BYTE   W02
 BYTE   W02
 BYTE   W04
 BYTE   W04
 BYTE   W02
 BYTE   W02
 BYTE   W04
 BYTE   W04
 BYTE   W02
 BYTE   W02
 BYTE   W04
 BYTE   W04
 BYTE   W02
 BYTE   W02
 BYTE   W04
 BYTE   W04
 BYTE   W02
 BYTE   W02
 BYTE   W04
//  #07 //175   ----------------------------------------
 BYTE   W04
 BYTE   W02
 BYTE   W02
 BYTE   W04
 BYTE   W04
 BYTE   W02
 BYTE   W02
 BYTE   W04
 BYTE   W04
 BYTE   W02
 BYTE   W02
 BYTE   W04
 BYTE   W04
 BYTE   W02
 BYTE   W02
 BYTE   W04
 BYTE   W04
 BYTE   W02
 BYTE   W02
 BYTE   W04
 BYTE   W04
 BYTE   W02
 BYTE   W02
 BYTE   W04
 BYTE   W04
 BYTE   W02
 BYTE   W02
 BYTE   W04
 BYTE   W04
 BYTE   W02
 BYTE   W02
 BYTE   W04
//  #07 //176   ----------------------------------------
 BYTE   W96
//  #07 //177   ----------------------------------------
 BYTE   W96
//  #07 //178   ----------------------------------------
 BYTE   W92
 BYTE   W03
 BYTE   EOT
 BYTE   Ds4  v079
 BYTE   Ds5  v091
 BYTE   W01
//  #07 //179   ----------------------------------------
 BYTE   W96
//  #07 //180   ----------------------------------------
 BYTE   W96
//  #07 //181   ----------------------------------------
 BYTE   W96
//  #07 //182   ----------------------------------------
 BYTE   W96
//  #07 //183   ----------------------------------------
 BYTE   W96
//  #07 //184   ----------------------------------------
 BYTE   W96
//  #07 //185   ----------------------------------------
 BYTE   W96
//  #07 //186   ----------------------------------------
 BYTE   W96
//  #07 //187   ----------------------------------------
 BYTE   GoTo
  POIN2 Label_010013D0
 BYTE   FINE

//**************** Track 8 (Midi-Chn.7) ****************//

UntamedGarden_008:
//  #08 //000   ----------------------------------------
 BYTE   KEYSH   UntamedGarden_key+0
 BYTE   VOICE   18
 BYTE   VOL   46*UntamedGarden_mvl/mxv
 BYTE   PAN   c_v+0
 BYTE   W96
//  #08 //001   ----------------------------------------
 BYTE   W96
//  #08 //002   ----------------------------------------
 BYTE   W96
//  #08 //003   ----------------------------------------
 BYTE   W96
//  #08 //004   ----------------------------------------
 BYTE   W96
//  #08 //005   ----------------------------------------
 BYTE   W96
//  #08 //006   ----------------------------------------
 BYTE   W96
//  #08 //007   ----------------------------------------
 BYTE   W96
//  #08 //008   ----------------------------------------
Label_01001938:
 BYTE   W96
//  #08 //009   ----------------------------------------
 BYTE   W96
//  #08 //010   ----------------------------------------
 BYTE   W96
//  #08 //011   ----------------------------------------
 BYTE   W96
//  #08 //012   ----------------------------------------
 BYTE   W96
//  #08 //013   ----------------------------------------
 BYTE   W96
//  #08 //014   ----------------------------------------
 BYTE   W96
//  #08 //015   ----------------------------------------
 BYTE   W96
//  #08 //016   ----------------------------------------
 BYTE   W96
//  #08 //017   ----------------------------------------
 BYTE   W96
//  #08 //018   ----------------------------------------
 BYTE   W96
//  #08 //019   ----------------------------------------
 BYTE   W96
//  #08 //020   ----------------------------------------
 BYTE   W96
//  #08 //021   ----------------------------------------
 BYTE   W96
//  #08 //022   ----------------------------------------
 BYTE   W96
//  #08 //023   ----------------------------------------
 BYTE   W96
//  #08 //024   ----------------------------------------
 BYTE   W96
//  #08 //025   ----------------------------------------
 BYTE   W96
//  #08 //026   ----------------------------------------
 BYTE   W96
//  #08 //027   ----------------------------------------
 BYTE   W96
//  #08 //028   ----------------------------------------
 BYTE   W96
//  #08 //029   ----------------------------------------
 BYTE   W96
//  #08 //030   ----------------------------------------
 BYTE   W96
//  #08 //031   ----------------------------------------
 BYTE   W96
//  #08 //032   ----------------------------------------
 BYTE   W96
//  #08 //033   ----------------------------------------
 BYTE   W96
//  #08 //034   ----------------------------------------
 BYTE   W96
//  #08 //035   ----------------------------------------
 BYTE   W96
//  #08 //036   ----------------------------------------
 BYTE   W96
//  #08 //037   ----------------------------------------
 BYTE   W96
//  #08 //038   ----------------------------------------
 BYTE   W96
//  #08 //039   ----------------------------------------
 BYTE   W96
//  #08 //040   ----------------------------------------
 BYTE   W96
//  #08 //041   ----------------------------------------
 BYTE   W96
//  #08 //042   ----------------------------------------
 BYTE   W96
//  #08 //043   ----------------------------------------
 BYTE   W96
//  #08 //044   ----------------------------------------
 BYTE   W96
//  #08 //045   ----------------------------------------
 BYTE   W96
//  #08 //046   ----------------------------------------
 BYTE   W96
//  #08 //047   ----------------------------------------
 BYTE   W96
//  #08 //048   ----------------------------------------
 BYTE   W96
//  #08 //049   ----------------------------------------
 BYTE   W96
//  #08 //050   ----------------------------------------
 BYTE   W96
//  #08 //051   ----------------------------------------
 BYTE   W96
//  #08 //052   ----------------------------------------
 BYTE   W96
//  #08 //053   ----------------------------------------
 BYTE   W96
//  #08 //054   ----------------------------------------
 BYTE   W96
//  #08 //055   ----------------------------------------
 BYTE   W96
//  #08 //056   ----------------------------------------
 BYTE   W96
//  #08 //057   ----------------------------------------
 BYTE   W96
//  #08 //058   ----------------------------------------
 BYTE   N11  Gn1  v096
 BYTE   W12
 BYTE   Cs2
 BYTE   W12
 BYTE   As2
 BYTE   W12
 BYTE   Cs3
 BYTE   W12
 BYTE   N44  Fn3
 BYTE   W48
//  #08 //059   ----------------------------------------
 BYTE   N11  Gn1
 BYTE   W12
 BYTE   Cn2
 BYTE   W12
 BYTE   Gn2
 BYTE   W12
 BYTE   Cn3
 BYTE   W12
 BYTE   N44  En3
 BYTE   W48
//  #08 //060   ----------------------------------------
 BYTE   N11  Fn1
 BYTE   W12
 BYTE   Fn2
 BYTE   W12
 BYTE   Cn3
 BYTE   W12
 BYTE   N32  Fn3
 BYTE   W36
 BYTE   N23  Cn3
 BYTE   W24
//  #08 //061   ----------------------------------------
 BYTE   Gn3
 BYTE   W24
 BYTE   Fn3
 BYTE   W24
 BYTE   Cn3
 BYTE   W24
 BYTE   Gs2
 BYTE   W24
//  #08 //062   ----------------------------------------
 BYTE   N11  Fn2
 BYTE   W12
 BYTE   Cn3
 BYTE   W12
 BYTE   N68  Fn3
 BYTE   W72
//  #08 //063   ----------------------------------------
 BYTE   N11  Fn2
 BYTE   W12
 BYTE   Cs3
 BYTE   W12
 BYTE   N68  Fn3
 BYTE   W72
//  #08 //064   ----------------------------------------
 BYTE   N11  Cn2
 BYTE   W12
 BYTE   Gn2
 BYTE   W12
 BYTE   Cn3
 BYTE   W12
 BYTE   N32  En3
 BYTE   W36
 BYTE   N23  Cn3
 BYTE   W24
//  #08 //065   ----------------------------------------
Label_010019B5:
 BYTE   N11  Gn2  v096
 BYTE   W12
 BYTE   Cn3
 BYTE   W12
 BYTE   N68  Gn3
 BYTE   W72
 BYTE   PEND 
//  #08 //066   ----------------------------------------
 BYTE   N11  As1
 BYTE   W12
 BYTE   As2
 BYTE   W12
 BYTE   N68  Cs3
 BYTE   W72
//  #08 //067   ----------------------------------------
Label_010019C7:
 BYTE   N11  Cn2  v096
 BYTE   W12
 BYTE   Gn2
 BYTE   W12
 BYTE   As2
 BYTE   W12
 BYTE   N56  Cs3
 BYTE   W60
 BYTE   PEND 
//  #08 //068   ----------------------------------------
 BYTE   N23  Fn2
 BYTE   W24
 BYTE   Cn3
 BYTE   W24
 BYTE   Gn3
 BYTE   W24
 BYTE   Fn3
 BYTE   W24
//  #08 //069   ----------------------------------------
Label_010019DC:
 BYTE   N11  Fn2  v096
 BYTE   W12
 BYTE   Gs2
 BYTE   W12
 BYTE   Cn3
 BYTE   W12
 BYTE   N56  Fn3
 BYTE   W60
 BYTE   PEND 
//  #08 //070   ----------------------------------------
 BYTE   N11  As2
 BYTE   W12
 BYTE   Fn3
 BYTE   W12
 BYTE   N68  As3
 BYTE   W72
//  #08 //071   ----------------------------------------
Label_010019F0:
 BYTE   N11  Cn3  v096
 BYTE   W12
 BYTE   Gn3
 BYTE   W12
 BYTE   N68  Cn4
 BYTE   W72
 BYTE   PEND 
//  #08 //072   ----------------------------------------
Label_010019FA:
 BYTE   W48
 BYTE   N23  Cn4  v096
 BYTE   W24
 BYTE   Fn3
 BYTE   W24
 BYTE   PEND 
//  #08 //073   ----------------------------------------
Label_01001A02:
 BYTE   N11  Ds3  v096
 BYTE   W12
 BYTE   Fn3
 BYTE   W12
 BYTE   N68  Cn4
 BYTE   W72
 BYTE   PEND 
//  #08 //074   ----------------------------------------
 BYTE   N11  As2
 BYTE   W12
 BYTE   Cs3
 BYTE   W12
 BYTE   Fn3
 BYTE   W12
 BYTE   N56  As3
 BYTE   W60
//  #08 //075   ----------------------------------------
 BYTE   N11  Cs3
 BYTE   W12
 BYTE   Cs2
 BYTE   W12
 BYTE   Gn2
 BYTE   W12
 BYTE   Cs3
 BYTE   W12
 BYTE   N44  Fn3
 BYTE   W48
//  #08 //076   ----------------------------------------
 BYTE   N23
 BYTE   W24
 BYTE   N68  Gn3
 BYTE   W72
//  #08 //077   ----------------------------------------
 BYTE   N92
 BYTE   W96
//  #08 //078   ----------------------------------------
 BYTE   PATT
  POIN2 Label_010019C7
//  #08 //079   ----------------------------------------
 BYTE   N11  En2  v096
 BYTE   W12
 BYTE   Gn2
 BYTE   W12
 BYTE   As2
 BYTE   W12
 BYTE   N56  Cs3
 BYTE   W60
//  #08 //080   ----------------------------------------
 BYTE   N23  Fn2
 BYTE   W24
 BYTE   Cn3
 BYTE   W24
 BYTE   N07  Gn3
 BYTE   W08
 BYTE   Gs3
 BYTE   W08
 BYTE   Gn3
 BYTE   W08
 BYTE   N23  Fn3
 BYTE   W24
//  #08 //081   ----------------------------------------
 BYTE   PATT
  POIN2 Label_010019DC
//  #08 //082   ----------------------------------------
 BYTE   N11  Fn2  v096
 BYTE   W12
 BYTE   Cn3
 BYTE   W12
 BYTE   Fn3
 BYTE   W12
 BYTE   Gs3
 BYTE   W12
 BYTE   N44
 BYTE   W48
//  #08 //083   ----------------------------------------
Label_01001A59:
 BYTE   N23  Cn4  v096
 BYTE   W24
 BYTE   N07  As3
 BYTE   W08
 BYTE   Cn4
 BYTE   W08
 BYTE   As3
 BYTE   W08
 BYTE   N23  Gn3
 BYTE   W24
 BYTE   Fn3
 BYTE   W24
 BYTE   PEND 
//  #08 //084   ----------------------------------------
 BYTE   N11  Fs2
 BYTE   W12
 BYTE   Cn3
 BYTE   W12
 BYTE   En3
 BYTE   W12
 BYTE   N32  Fs3
 BYTE   W36
 BYTE   N23  Gs2
 BYTE   W24
//  #08 //085   ----------------------------------------
 BYTE   PATT
  POIN2 Label_010019B5
//  #08 //086   ----------------------------------------
 BYTE   N11  As1  v096
 BYTE   W12
 BYTE   As2
 BYTE   W12
 BYTE   Fn3
 BYTE   W12
 BYTE   N56  As3
 BYTE   W60
//  #08 //087   ----------------------------------------
 BYTE   PATT
  POIN2 Label_010019F0
//  #08 //088   ----------------------------------------
 BYTE   N11  Fn2  v096
 BYTE   W12
 BYTE   Gs2
 BYTE   W12
 BYTE   Cn3
 BYTE   W12
 BYTE   Gn3
 BYTE   W12
 BYTE   N44  Gs3
 BYTE   W48
//  #08 //089   ----------------------------------------
 BYTE   N23  Cn4
 BYTE   W24
 BYTE   N68  Fn3
 BYTE   W72
//  #08 //090   ----------------------------------------
 BYTE   PATT
  POIN2 Label_01001A59
//  #08 //091   ----------------------------------------
 BYTE   N11  Cn3  v096
 BYTE   W12
 BYTE   En3
 BYTE   W12
 BYTE   N68  Cn4
 BYTE   W72
//  #08 //092   ----------------------------------------
 BYTE   PATT
  POIN2 Label_010019FA
//  #08 //093   ----------------------------------------
 BYTE   PATT
  POIN2 Label_01001A02
//  #08 //094   ----------------------------------------
 BYTE   N11  As2  v096
 BYTE   W12
 BYTE   Cs3
 BYTE   W12
 BYTE   Fn3
 BYTE   W12
 BYTE   N56  Gs3
 BYTE   W60
//  #08 //095   ----------------------------------------
 BYTE   PATT
  POIN2 Label_010019B5
//  #08 //096   ----------------------------------------
 BYTE   W96
//  #08 //097   ----------------------------------------
 BYTE   W96
//  #08 //098   ----------------------------------------
 BYTE   W96
//  #08 //099   ----------------------------------------
 BYTE   W96
//  #08 //100   ----------------------------------------
 BYTE   W96
//  #08 //101   ----------------------------------------
 BYTE   W96
//  #08 //102   ----------------------------------------
 BYTE   W96
//  #08 //103   ----------------------------------------
 BYTE   W96
//  #08 //104   ----------------------------------------
 BYTE   W96
//  #08 //105   ----------------------------------------
 BYTE   W96
//  #08 //106   ----------------------------------------
 BYTE   W96
//  #08 //107   ----------------------------------------
 BYTE   W96
//  #08 //108   ----------------------------------------
 BYTE   W96
//  #08 //109   ----------------------------------------
 BYTE   W96
//  #08 //110   ----------------------------------------
 BYTE   W96
//  #08 //111   ----------------------------------------
 BYTE   W96
//  #08 //112   ----------------------------------------
 BYTE   W96
//  #08 //113   ----------------------------------------
 BYTE   W96
//  #08 //114   ----------------------------------------
 BYTE   W96
//  #08 //115   ----------------------------------------
 BYTE   W96
//  #08 //116   ----------------------------------------
 BYTE   N11  As1  v096
 BYTE   W12
 BYTE   Fn2
 BYTE   W12
 BYTE   As2
 BYTE   W12
 BYTE   N56  Cs3
 BYTE   W60
//  #08 //117   ----------------------------------------
 BYTE   N11  Gn2
 BYTE   W12
 BYTE   As2
 BYTE   W12
 BYTE   Ds3
 BYTE   W12
 BYTE   N56  Gn3
 BYTE   W60
//  #08 //118   ----------------------------------------
 BYTE   N11  Fn2
 BYTE   W12
 BYTE   Cn3
 BYTE   W12
 BYTE   Fn3
 BYTE   W12
 BYTE   N23  Gs3
 BYTE   W24
 BYTE   Fn3
 BYTE   W24
 BYTE   N11  Cn3
 BYTE   W12
//  #08 //119   ----------------------------------------
 BYTE   N23  Gs3
 BYTE   W24
 BYTE   Fn3
 BYTE   W24
 BYTE   N44  Cn3
 BYTE   W48
//  #08 //120   ----------------------------------------
Label_01001B07:
 BYTE   N11  Dn2  v096
 BYTE   W12
 BYTE   As2
 BYTE   W12
 BYTE   Dn3
 BYTE   W12
 BYTE   N23  As3
 BYTE   W24
 BYTE   Fn3
 BYTE   W24
 BYTE   N08  Dn3
 BYTE   W09
 BYTE   N01  Ds3
 BYTE   N01  En3
 BYTE   W01
 BYTE   Fn3
 BYTE   W02
 BYTE   PEND 
//  #08 //121   ----------------------------------------
 BYTE   N11  En3
 BYTE   W12
 BYTE   N23  Cn4
 BYTE   W24
 BYTE   N56  En3
 BYTE   W60
//  #08 //122   ----------------------------------------
 BYTE   N11  Fn2
 BYTE   W12
 BYTE   Gs2
 BYTE   W12
 BYTE   Cn3
 BYTE   W12
 BYTE   N56  Cn4
 BYTE   W60
//  #08 //123   ----------------------------------------
 BYTE   N23  Ds3
 BYTE   W24
 BYTE   Cn4
 BYTE   W24
 BYTE   N44  Ds3
 BYTE   W48
//  #08 //124   ----------------------------------------
 BYTE   N23  Gn2
 BYTE   W24
 BYTE   N08  Dn2
 BYTE   W09
 BYTE   N01  Ds2
 BYTE   N01  En2
 BYTE   W01
 BYTE   Fn2
 BYTE   W02
 BYTE   N56  Gn2
 BYTE   W60
//  #08 //125   ----------------------------------------
 BYTE   N23
 BYTE   W24
 BYTE   N08  Cs2
 BYTE   W09
 BYTE   N01  Dn2
 BYTE   N01  Ds2
 BYTE   W01
 BYTE   En2
 BYTE   W02
 BYTE   N56  Gn2
 BYTE   W60
//  #08 //126   ----------------------------------------
Label_01001B59:
 BYTE   N11  Cn3  v096
 BYTE   W12
 BYTE   Gn3
 BYTE   W12
 BYTE   N32  Cn4
 BYTE   W36
 BYTE   Gn3
 BYTE   W36
 BYTE   PEND 
//  #08 //127   ----------------------------------------
Label_01001B65:
 BYTE   N92  En3  v096
 BYTE   W03
 BYTE   Gn3
 BYTE   W04
 BYTE   N88  Cn4
 BYTE   W88
 BYTE   W01
 BYTE   PEND 
//  #08 //128   ----------------------------------------
Label_01001B70:
 BYTE   N23  Dn3  v096
 BYTE   W24
 BYTE   N11  Fn3
 BYTE   W12
 BYTE   N23  Gn3
 BYTE   W24
 BYTE   N32  Fn3
 BYTE   W36
 BYTE   PEND 
//  #08 //129   ----------------------------------------
Label_01001B7E:
 BYTE   N23  Cs3  v096
 BYTE   W24
 BYTE   N11  Fn3
 BYTE   W12
 BYTE   N23  Bn3
 BYTE   W24
 BYTE   N32  Fn3
 BYTE   W36
 BYTE   PEND 
//  #08 //130   ----------------------------------------
 BYTE   N11  Cn3
 BYTE   W12
 BYTE   Dn3
 BYTE   W12
 BYTE   Fn3
 BYTE   W12
 BYTE   Gn3
 BYTE   W12
 BYTE   Cn4
 BYTE   W12
 BYTE   Gn3
 BYTE   W12
 BYTE   Fn3
 BYTE   W12
 BYTE   Gn3
 BYTE   W12
//  #08 //131   ----------------------------------------
 BYTE   PATT
  POIN2 Label_01001B65
//  #08 //132   ----------------------------------------
 BYTE   N11  Gn1  v096
 BYTE   W12
 BYTE   Cs2
 BYTE   W12
 BYTE   Cs3
 BYTE   W12
 BYTE   N23  Gn3
 BYTE   W24
 BYTE   N32  Cs3
 BYTE   W36
//  #08 //133   ----------------------------------------
 BYTE   N23  Cn3
 BYTE   W03
 BYTE   N20  Ds3
 BYTE   W04
 BYTE   N16  Gn3
 BYTE   W17
 BYTE   N11  Ds3
 BYTE   W12
 BYTE   N56  Gn3
 BYTE   W60
//  #08 //134   ----------------------------------------
 BYTE   N11  Fn2
 BYTE   W12
 BYTE   Cn3
 BYTE   W12
 BYTE   Fn3
 BYTE   W12
 BYTE   Gn3
 BYTE   W12
 BYTE   Cn4
 BYTE   W12
 BYTE   Gn3
 BYTE   W12
 BYTE   Fn3
 BYTE   W12
 BYTE   Gn3
 BYTE   W12
//  #08 //135   ----------------------------------------
 BYTE   N23  Cn4
 BYTE   W24
 BYTE   Gn3
 BYTE   W24
 BYTE   N44  Fn3
 BYTE   W48
//  #08 //136   ----------------------------------------
 BYTE   PATT
  POIN2 Label_01001B07
//  #08 //137   ----------------------------------------
 BYTE   N11  En3  v096
 BYTE   W12
 BYTE   Cn4
 BYTE   W12
 BYTE   N08  En3
 BYTE   W09
 BYTE   N01  Fn3
 BYTE   N01  Fs3
 BYTE   W01
 BYTE   Gn3
 BYTE   W02
 BYTE   N11
 BYTE   W12
 BYTE   En4
 BYTE   W12
 BYTE   Gn3
 BYTE   W12
 BYTE   N08  Gs3
 BYTE   W09
 BYTE   N01  An3
 BYTE   N01  As3
 BYTE   W01
 BYTE   Bn3
 BYTE   W02
 BYTE   N11  As3
 BYTE   W12
//  #08 //138   ----------------------------------------
 BYTE   N23  Cn3
 BYTE   W24
 BYTE   N11  Fn3
 BYTE   W12
 BYTE   N23  Gn3
 BYTE   W24
 BYTE   N11  Cn3
 BYTE   W12
 BYTE   Fn3
 BYTE   W12
 BYTE   Gn3
 BYTE   W12
//  #08 //139   ----------------------------------------
 BYTE   N23  Gn4
 BYTE   W24
 BYTE   N07  Fn4
 BYTE   W08
 BYTE   Gn4
 BYTE   W08
 BYTE   Fn4
 BYTE   W08
 BYTE   N23  Dn4
 BYTE   W24
 BYTE   Gs3
 BYTE   W24
//  #08 //140   ----------------------------------------
 BYTE   PATT
  POIN2 Label_01001B70
//  #08 //141   ----------------------------------------
 BYTE   PATT
  POIN2 Label_01001B7E
//  #08 //142   ----------------------------------------
 BYTE   PATT
  POIN2 Label_01001B59
//  #08 //143   ----------------------------------------
 BYTE   PATT
  POIN2 Label_01001B65
//  #08 //144   ----------------------------------------
 BYTE   PATT
  POIN2 Label_01001B70
//  #08 //145   ----------------------------------------
 BYTE   N23  Fn3  v096
 BYTE   W24
 BYTE   N11  Gn3
 BYTE   W12
 BYTE   N23  Bn3
 BYTE   W24
 BYTE   N32  Gn3
 BYTE   W36
//  #08 //146   ----------------------------------------
 BYTE   N23  Cn3
 BYTE   N23  Gn3
 BYTE   W24
 BYTE   N11  Cn4
 BYTE   W12
 BYTE   Gn3
 BYTE   W12
 BYTE   Fn3
 BYTE   W12
 BYTE   Cn3
 BYTE   W12
 BYTE   Fn3
 BYTE   W12
 BYTE   Gn3
 BYTE   W12
//  #08 //147   ----------------------------------------
 BYTE   N92  Cn4
 BYTE   W96
//  #08 //148   ----------------------------------------
Label_01001C5A:
 BYTE   N92  Cn3  v096
 BYTE   W03
 BYTE   Fn3
 BYTE   W04
 BYTE   N88  Gs3
 BYTE   W04
 BYTE   N84  Cn4
 BYTE   W84
 BYTE   W01
 BYTE   PEND 
//  #08 //149   ----------------------------------------
Label_01001C68:
 BYTE   N92  As2  v096
 BYTE   W03
 BYTE   Dn3
 BYTE   W04
 BYTE   N88  Fn3
 BYTE   W04
 BYTE   N84  As3
 BYTE   W84
 BYTE   W01
 BYTE   PEND 
//  #08 //150   ----------------------------------------
 BYTE   PATT
  POIN2 Label_01001C5A
//  #08 //151   ----------------------------------------
 BYTE   PATT
  POIN2 Label_01001C68
//  #08 //152   ----------------------------------------
 BYTE   PATT
  POIN2 Label_01001C5A
//  #08 //153   ----------------------------------------
 BYTE   N92  As2  v092
 BYTE   W03
 BYTE   Dn3
 BYTE   W04
 BYTE   N88  Fn3
 BYTE   W04
 BYTE   N84  As3
 BYTE   W84
 BYTE   W01
//  #08 //154   ----------------------------------------
 BYTE   N92  Cn3  v084
 BYTE   W03
 BYTE   Fn3
 BYTE   W04
 BYTE   N88  Gs3
 BYTE   W04
 BYTE   N84  Cn4
 BYTE   W84
 BYTE   W01
//  #08 //155   ----------------------------------------
 BYTE   N92  As2  v080
 BYTE   W03
 BYTE   Dn3
 BYTE   W04
 BYTE   N88  Fn3
 BYTE   W04
 BYTE   N84  As3
 BYTE   W84
 BYTE   W01
//  #08 //156   ----------------------------------------
 BYTE   N92  Cn3  v072
 BYTE   W03
 BYTE   Fn3
 BYTE   W04
 BYTE   N88  Gs3
 BYTE   W04
 BYTE   N84  Cn4
 BYTE   W84
 BYTE   W01
//  #08 //157   ----------------------------------------
 BYTE   N92  As2  v068
 BYTE   W03
 BYTE   Dn3
 BYTE   W04
 BYTE   N88  Fn3
 BYTE   W04
 BYTE   N84  As3  v064
 BYTE   W84
 BYTE   W01
//  #08 //158   ----------------------------------------
 BYTE   N92  Cn3  v060
 BYTE   W03
 BYTE   Fn3
 BYTE   W04
 BYTE   N88  Gs3
 BYTE   W04
 BYTE   N84  Cn4
 BYTE   W84
 BYTE   W01
//  #08 //159   ----------------------------------------
 BYTE   N92  As2  v052
 BYTE   W03
 BYTE   Dn3
 BYTE   W04
 BYTE   N88  Fn3
 BYTE   W04
 BYTE   N84  As3
 BYTE   W84
 BYTE   W01
//  #08 //160   ----------------------------------------
 BYTE   N92  Cn3  v048
 BYTE   W03
 BYTE   Fn3
 BYTE   W04
 BYTE   N88  Gs3
 BYTE   W04
 BYTE   N84  Cn4
 BYTE   W84
 BYTE   W01
//  #08 //161   ----------------------------------------
 BYTE   N92  As2  v040
 BYTE   W03
 BYTE   Dn3
 BYTE   W04
 BYTE   N88  Fn3
 BYTE   W04
 BYTE   N84  As3
 BYTE   W84
 BYTE   W01
//  #08 //162   ----------------------------------------
 BYTE   W96
//  #08 //163   ----------------------------------------
 BYTE   W96
//  #08 //164   ----------------------------------------
 BYTE   W96
//  #08 //165   ----------------------------------------
 BYTE   W96
//  #08 //166   ----------------------------------------
 BYTE   W96
//  #08 //167   ----------------------------------------
 BYTE   W96
//  #08 //168   ----------------------------------------
 BYTE   W96
//  #08 //169   ----------------------------------------
 BYTE   W96
//  #08 //170   ----------------------------------------
 BYTE   W96
//  #08 //171   ----------------------------------------
 BYTE   W96
//  #08 //172   ----------------------------------------
 BYTE   W96
//  #08 //173   ----------------------------------------
 BYTE   W96
//  #08 //174   ----------------------------------------
 BYTE   W96
//  #08 //175   ----------------------------------------
 BYTE   W96
//  #08 //176   ----------------------------------------
 BYTE   W96
//  #08 //177   ----------------------------------------
 BYTE   W96
//  #08 //178   ----------------------------------------
 BYTE   GoTo
  POIN2 Label_01001938
 BYTE   FINE

//**************** Track 9 (Midi-Chn.8) ****************//

UntamedGarden_009:
//  #09 //000   ----------------------------------------
 BYTE   KEYSH   UntamedGarden_key+0
 BYTE   VOICE   124
 BYTE   VOL   46*UntamedGarden_mvl/mxv
 BYTE   PAN   c_v+0
 BYTE   W96
//  #09 //001   ----------------------------------------
 BYTE   W96
//  #09 //002   ----------------------------------------
 BYTE   W96
//  #09 //003   ----------------------------------------
 BYTE   W96
//  #09 //004   ----------------------------------------
 BYTE   W96
//  #09 //005   ----------------------------------------
 BYTE   W96
//  #09 //006   ----------------------------------------
 BYTE   W96
//  #09 //007   ----------------------------------------
 BYTE   W96
//  #09 //008   ----------------------------------------
Label_01001D24:
 BYTE   W96
//  #09 //009   ----------------------------------------
 BYTE   W96
//  #09 //010   ----------------------------------------
 BYTE   W96
//  #09 //011   ----------------------------------------
 BYTE   W96
//  #09 //012   ----------------------------------------
 BYTE   W96
//  #09 //013   ----------------------------------------
 BYTE   W96
//  #09 //014   ----------------------------------------
 BYTE   W96
//  #09 //015   ----------------------------------------
 BYTE   W96
//  #09 //016   ----------------------------------------
 BYTE   W96
//  #09 //017   ----------------------------------------
 BYTE   W96
//  #09 //018   ----------------------------------------
 BYTE   W96
//  #09 //019   ----------------------------------------
 BYTE   W96
//  #09 //020   ----------------------------------------
 BYTE   W96
//  #09 //021   ----------------------------------------
 BYTE   W96
//  #09 //022   ----------------------------------------
 BYTE   W96
//  #09 //023   ----------------------------------------
 BYTE   W96
//  #09 //024   ----------------------------------------
 BYTE   W96
//  #09 //025   ----------------------------------------
 BYTE   W96
//  #09 //026   ----------------------------------------
 BYTE   W96
//  #09 //027   ----------------------------------------
 BYTE   W96
//  #09 //028   ----------------------------------------
 BYTE   W96
//  #09 //029   ----------------------------------------
 BYTE   W96
//  #09 //030   ----------------------------------------
 BYTE   W96
//  #09 //031   ----------------------------------------
 BYTE   W96
//  #09 //032   ----------------------------------------
 BYTE   W96
//  #09 //033   ----------------------------------------
 BYTE   W96
//  #09 //034   ----------------------------------------
 BYTE   W96
//  #09 //035   ----------------------------------------
 BYTE   W96
//  #09 //036   ----------------------------------------
 BYTE   W96
//  #09 //037   ----------------------------------------
 BYTE   W96
//  #09 //038   ----------------------------------------
 BYTE   W96
//  #09 //039   ----------------------------------------
 BYTE   W96
//  #09 //040   ----------------------------------------
 BYTE   W96
//  #09 //041   ----------------------------------------
 BYTE   W96
//  #09 //042   ----------------------------------------
 BYTE   W96
//  #09 //043   ----------------------------------------
 BYTE   W96
//  #09 //044   ----------------------------------------
 BYTE   W96
//  #09 //045   ----------------------------------------
 BYTE   W96
//  #09 //046   ----------------------------------------
 BYTE   W96
//  #09 //047   ----------------------------------------
 BYTE   W96
//  #09 //048   ----------------------------------------
 BYTE   W96
//  #09 //049   ----------------------------------------
 BYTE   W96
//  #09 //050   ----------------------------------------
 BYTE   W96
//  #09 //051   ----------------------------------------
 BYTE   W96
//  #09 //052   ----------------------------------------
 BYTE   W96
//  #09 //053   ----------------------------------------
 BYTE   W96
//  #09 //054   ----------------------------------------
 BYTE   W96
//  #09 //055   ----------------------------------------
 BYTE   W96
//  #09 //056   ----------------------------------------
 BYTE   W96
//  #09 //057   ----------------------------------------
 BYTE   W36
 BYTE   N11  Cn1  v080
 BYTE   N12  Dn1
 BYTE   W12
 BYTE   N23
 BYTE   W24
 BYTE   As1
 BYTE   W24
//  #09 //058   ----------------------------------------
Label_01001D60:
 BYTE   N23  Cn1  v080
 BYTE   N23  Fs1
 BYTE   N23  An2
 BYTE   W24
 BYTE   Fs1
 BYTE   W24
 BYTE   Dn1
 BYTE   N23  Fs1
 BYTE   W24
 BYTE   Cn1
 BYTE   N23  Fs1
 BYTE   W24
 BYTE   PEND 
//  #09 //059   ----------------------------------------
Label_01001D73:
 BYTE   N23  Cn1  v080
 BYTE   N23  Fs1
 BYTE   W24
 BYTE   N23
 BYTE   W24
 BYTE   Dn1
 BYTE   N23  Fs1
 BYTE   W24
 BYTE   N23
 BYTE   W24
 BYTE   PEND 
//  #09 //060   ----------------------------------------
Label_01001D82:
 BYTE   N23  Cn1  v080
 BYTE   N23  Fs1
 BYTE   W24
 BYTE   N23
 BYTE   W24
 BYTE   Dn1
 BYTE   N23  Fs1
 BYTE   W24
 BYTE   Cn1
 BYTE   N23  Fs1
 BYTE   W24
 BYTE   PEND 
//  #09 //061   ----------------------------------------
 BYTE   PATT
  POIN2 Label_01001D73
//  #09 //062   ----------------------------------------
 BYTE   PATT
  POIN2 Label_01001D82
//  #09 //063   ----------------------------------------
 BYTE   PATT
  POIN2 Label_01001D73
//  #09 //064   ----------------------------------------
 BYTE   PATT
  POIN2 Label_01001D82
//  #09 //065   ----------------------------------------
Label_01001DA7:
 BYTE   N23  Cn1  v080
 BYTE   N23  Fs1
 BYTE   W24
 BYTE   N23
 BYTE   W24
 BYTE   Dn1
 BYTE   N23  Fs1
 BYTE   W24
 BYTE   As1
 BYTE   W24
 BYTE   PEND 
//  #09 //066   ----------------------------------------
 BYTE   PATT
  POIN2 Label_01001D82
//  #09 //067   ----------------------------------------
 BYTE   PATT
  POIN2 Label_01001D73
//  #09 //068   ----------------------------------------
 BYTE   PATT
  POIN2 Label_01001D82
//  #09 //069   ----------------------------------------
 BYTE   PATT
  POIN2 Label_01001DA7
//  #09 //070   ----------------------------------------
 BYTE   PATT
  POIN2 Label_01001D82
//  #09 //071   ----------------------------------------
 BYTE   PATT
  POIN2 Label_01001D73
//  #09 //072   ----------------------------------------
 BYTE   PATT
  POIN2 Label_01001D82
//  #09 //073   ----------------------------------------
 BYTE   N23  Cn1  v080
 BYTE   N23  Fs1
 BYTE   W24
 BYTE   As1
 BYTE   W24
 BYTE   Dn1
 BYTE   N23  Fs1
 BYTE   W24
 BYTE   N23
 BYTE   W24
//  #09 //074   ----------------------------------------
 BYTE   PATT
  POIN2 Label_01001D82
//  #09 //075   ----------------------------------------
 BYTE   PATT
  POIN2 Label_01001D73
//  #09 //076   ----------------------------------------
 BYTE   PATT
  POIN2 Label_01001D82
//  #09 //077   ----------------------------------------
 BYTE   N23  Cn1  v080
 BYTE   N32  An2
 BYTE   W36
 BYTE   N11  An1
 BYTE   W12
 BYTE   N23  Bn1
 BYTE   W24
 BYTE   An1
 BYTE   W24
//  #09 //078   ----------------------------------------
 BYTE   PATT
  POIN2 Label_01001D82
//  #09 //079   ----------------------------------------
 BYTE   PATT
  POIN2 Label_01001D73
//  #09 //080   ----------------------------------------
 BYTE   PATT
  POIN2 Label_01001D82
//  #09 //081   ----------------------------------------
 BYTE   PATT
  POIN2 Label_01001DA7
//  #09 //082   ----------------------------------------
 BYTE   PATT
  POIN2 Label_01001D82
//  #09 //083   ----------------------------------------
 BYTE   PATT
  POIN2 Label_01001D73
//  #09 //084   ----------------------------------------
 BYTE   PATT
  POIN2 Label_01001D82
//  #09 //085   ----------------------------------------
 BYTE   PATT
  POIN2 Label_01001DA7
//  #09 //086   ----------------------------------------
 BYTE   PATT
  POIN2 Label_01001D82
//  #09 //087   ----------------------------------------
 BYTE   PATT
  POIN2 Label_01001D73
//  #09 //088   ----------------------------------------
 BYTE   PATT
  POIN2 Label_01001D82
//  #09 //089   ----------------------------------------
 BYTE   PATT
  POIN2 Label_01001DA7
//  #09 //090   ----------------------------------------
 BYTE   PATT
  POIN2 Label_01001D82
//  #09 //091   ----------------------------------------
 BYTE   PATT
  POIN2 Label_01001D73
//  #09 //092   ----------------------------------------
 BYTE   PATT
  POIN2 Label_01001D82
//  #09 //093   ----------------------------------------
 BYTE   N23  Cn1  v080
 BYTE   N23  Fs1
 BYTE   W24
 BYTE   As1
 BYTE   W24
 BYTE   Dn1
 BYTE   N23  Fs1
 BYTE   W24
 BYTE   Fn1
 BYTE   W24
//  #09 //094   ----------------------------------------
 BYTE   PATT
  POIN2 Label_01001D60
//  #09 //095   ----------------------------------------
 BYTE   N23  Cn1  v080
 BYTE   N23  Fs1
 BYTE   W24
 BYTE   As1
 BYTE   W24
 BYTE   Dn1
 BYTE   N23  Fs1
 BYTE   W24
 BYTE   Fn1
 BYTE   N23  Fs1
 BYTE   W24
//  #09 //096   ----------------------------------------
 BYTE   Cn1
 BYTE   N23  An2
 BYTE   W96
//  #09 //097   ----------------------------------------
 BYTE   W96
//  #09 //098   ----------------------------------------
 BYTE   W96
//  #09 //099   ----------------------------------------
 BYTE   W96
//  #09 //100   ----------------------------------------
 BYTE   W96
//  #09 //101   ----------------------------------------
 BYTE   W96
//  #09 //102   ----------------------------------------
 BYTE   W96
//  #09 //103   ----------------------------------------
 BYTE   W96
//  #09 //104   ----------------------------------------
 BYTE   W96
//  #09 //105   ----------------------------------------
 BYTE   W96
//  #09 //106   ----------------------------------------
 BYTE   W96
//  #09 //107   ----------------------------------------
 BYTE   W96
//  #09 //108   ----------------------------------------
 BYTE   W96
//  #09 //109   ----------------------------------------
 BYTE   W96
//  #09 //110   ----------------------------------------
 BYTE   W96
//  #09 //111   ----------------------------------------
 BYTE   W96
//  #09 //112   ----------------------------------------
 BYTE   W96
//  #09 //113   ----------------------------------------
 BYTE   W96
//  #09 //114   ----------------------------------------
 BYTE   W96
//  #09 //115   ----------------------------------------
 BYTE   W36
 BYTE   N12  Dn1
 BYTE   W12
 BYTE   N23
 BYTE   W24
 BYTE   Cn2
 BYTE   W24
//  #09 //116   ----------------------------------------
 BYTE   PATT
  POIN2 Label_01001D60
//  #09 //117   ----------------------------------------
Label_01001E95:
 BYTE   N23  Cn1  v080
 BYTE   N23  Fs1
 BYTE   W24
 BYTE   Cn1
 BYTE   N23  Fs1
 BYTE   W24
 BYTE   Dn1
 BYTE   N23  Fs1
 BYTE   W24
 BYTE   N23
 BYTE   W24
 BYTE   PEND 
//  #09 //118   ----------------------------------------
 BYTE   PATT
  POIN2 Label_01001D82
//  #09 //119   ----------------------------------------
 BYTE   PATT
  POIN2 Label_01001E95
//  #09 //120   ----------------------------------------
 BYTE   PATT
  POIN2 Label_01001D82
//  #09 //121   ----------------------------------------
 BYTE   PATT
  POIN2 Label_01001E95
//  #09 //122   ----------------------------------------
 BYTE   PATT
  POIN2 Label_01001D82
//  #09 //123   ----------------------------------------
 BYTE   N23  Cn1  v080
 BYTE   N23  Fs1
 BYTE   W24
 BYTE   Cn1
 BYTE   N23  Fs1
 BYTE   W24
 BYTE   Dn1
 BYTE   N23  Cs2
 BYTE   W24
 BYTE   Fs1
 BYTE   W24
//  #09 //124   ----------------------------------------
Label_01001ECF:
 BYTE   N23  Cn1  v080
 BYTE   N23  An2
 BYTE   W24
 BYTE   Fs1
 BYTE   W24
 BYTE   Dn1
 BYTE   N23  Fs1
 BYTE   W24
 BYTE   Cn1
 BYTE   N23  Fs1
 BYTE   W24
 BYTE   PEND 
//  #09 //125   ----------------------------------------
 BYTE   PATT
  POIN2 Label_01001D73
//  #09 //126   ----------------------------------------
 BYTE   PATT
  POIN2 Label_01001D82
//  #09 //127   ----------------------------------------
 BYTE   PATT
  POIN2 Label_01001DA7
//  #09 //128   ----------------------------------------
 BYTE   PATT
  POIN2 Label_01001ECF
//  #09 //129   ----------------------------------------
 BYTE   PATT
  POIN2 Label_01001D73
//  #09 //130   ----------------------------------------
 BYTE   N23  Cn1  v080
 BYTE   N23  Fs1
 BYTE   W24
 BYTE   N23
 BYTE   W24
 BYTE   Cn2
 BYTE   N23  An2
 BYTE   W24
 BYTE   Cn1
 BYTE   N23  Fs1
 BYTE   W24
//  #09 //131   ----------------------------------------
 BYTE   Cn1
 BYTE   N23  Cn2
 BYTE   N23  Cs2
 BYTE   W24
 BYTE   N11  Fs1
 BYTE   W12
 BYTE   An1
 BYTE   W12
 BYTE   Fs1
 BYTE   W12
 BYTE   Cn2
 BYTE   W12
 BYTE   N23  Fs1
 BYTE   N23  An1
 BYTE   W24
//  #09 //132   ----------------------------------------
 BYTE   Cn1
 BYTE   N23  Fs1
 BYTE   N23  Cs2
 BYTE   W24
 BYTE   Fs1
 BYTE   W24
 BYTE   Dn1
 BYTE   N23  As1
 BYTE   W24
 BYTE   Cn1
 BYTE   N23  Fs1
 BYTE   W24
//  #09 //133   ----------------------------------------
 BYTE   PATT
  POIN2 Label_01001E95
//  #09 //134   ----------------------------------------
 BYTE   PATT
  POIN2 Label_01001D82
//  #09 //135   ----------------------------------------
 BYTE   PATT
  POIN2 Label_01001E95
//  #09 //136   ----------------------------------------
 BYTE   PATT
  POIN2 Label_01001D82
//  #09 //137   ----------------------------------------
 BYTE   PATT
  POIN2 Label_01001E95
//  #09 //138   ----------------------------------------
 BYTE   PATT
  POIN2 Label_01001D82
//  #09 //139   ----------------------------------------
Label_01001F4B:
 BYTE   N23  Cn1  v080
 BYTE   N23  Fs1
 BYTE   W24
 BYTE   Cn1
 BYTE   N23  Fs1
 BYTE   W24
 BYTE   Dn1
 BYTE   N23  Fs1
 BYTE   N23  An2
 BYTE   W24
 BYTE   Fs1
 BYTE   W24
 BYTE   PEND 
//  #09 //140   ----------------------------------------
Label_01001F5E:
 BYTE   N23  Cn1  v080
 BYTE   N23  Fs1
 BYTE   N23  Cs2
 BYTE   W24
 BYTE   Fs1
 BYTE   W24
 BYTE   Dn1
 BYTE   N23  Fs1
 BYTE   W24
 BYTE   Cn1
 BYTE   N23  Fs1
 BYTE   W24
 BYTE   PEND 
//  #09 //141   ----------------------------------------
 BYTE   PATT
  POIN2 Label_01001E95
//  #09 //142   ----------------------------------------
 BYTE   PATT
  POIN2 Label_01001D82
//  #09 //143   ----------------------------------------
 BYTE   PATT
  POIN2 Label_01001F4B
//  #09 //144   ----------------------------------------
 BYTE   PATT
  POIN2 Label_01001F5E
//  #09 //145   ----------------------------------------
 BYTE   PATT
  POIN2 Label_01001D82
//  #09 //146   ----------------------------------------
 BYTE   N23  Cn1  v080
 BYTE   N23  As1
 BYTE   N23  Cs2
 BYTE   W24
 BYTE   Cn1
 BYTE   N23  Fs1
 BYTE   W24
 BYTE   Dn1
 BYTE   N23  Cs2
 BYTE   W24
 BYTE   Cn1
 BYTE   N23  Fs1
 BYTE   W24
//  #09 //147   ----------------------------------------
 BYTE   Cn1
 BYTE   N23  As1
 BYTE   W24
 BYTE   Cn1
 BYTE   W12
 BYTE   N12  Dn1
 BYTE   W12
 BYTE   N11
 BYTE   W12
 BYTE   N11
 BYTE   W12
 BYTE   N23  Fn1
 BYTE   W24
//  #09 //148   ----------------------------------------
Label_01001FAE:
 BYTE   N92  Cn1  v080
 BYTE   TIE  Cs2
 BYTE   W96
 BYTE   PEND 
//  #09 //149   ----------------------------------------
 BYTE   W92
 BYTE   W03
 BYTE   EOT
 BYTE   W01
//  #09 //150   ----------------------------------------
 BYTE   W96
//  #09 //151   ----------------------------------------
 BYTE   W96
//  #09 //152   ----------------------------------------
Label_01001FBB:
 BYTE   N92  Cn1  v080
 BYTE   TIE  An2
 BYTE   W96
 BYTE   PEND 
//  #09 //153   ----------------------------------------
 BYTE   W92
 BYTE   W03
 BYTE   EOT
 BYTE   W01
//  #09 //154   ----------------------------------------
 BYTE   W96
//  #09 //155   ----------------------------------------
 BYTE   W96
//  #09 //156   ----------------------------------------
 BYTE   PATT
  POIN2 Label_01001FAE
//  #09 //157   ----------------------------------------
 BYTE   W92
 BYTE   W03
 BYTE   EOT
 BYTE   Cs2
 BYTE   W01
//  #09 //158   ----------------------------------------
 BYTE   W96
//  #09 //159   ----------------------------------------
 BYTE   W96
//  #09 //160   ----------------------------------------
 BYTE   PATT
  POIN2 Label_01001FBB
//  #09 //161   ----------------------------------------
 BYTE   W92
 BYTE   W03
 BYTE   EOT
 BYTE   An2
 BYTE   W01
//  #09 //162   ----------------------------------------
 BYTE   W96
//  #09 //163   ----------------------------------------
 BYTE   W96
//  #09 //164   ----------------------------------------
 BYTE   W96
//  #09 //165   ----------------------------------------
 BYTE   W96
//  #09 //166   ----------------------------------------
 BYTE   W96
//  #09 //167   ----------------------------------------
 BYTE   W96
//  #09 //168   ----------------------------------------
 BYTE   W96
//  #09 //169   ----------------------------------------
 BYTE   W96
//  #09 //170   ----------------------------------------
 BYTE   W96
//  #09 //171   ----------------------------------------
 BYTE   W96
//  #09 //172   ----------------------------------------
 BYTE   W96
//  #09 //173   ----------------------------------------
 BYTE   W96
//  #09 //174   ----------------------------------------
 BYTE   W96
//  #09 //175   ----------------------------------------
 BYTE   W96
//  #09 //176   ----------------------------------------
 BYTE   W96
//  #09 //177   ----------------------------------------
 BYTE   W96
//  #09 //178   ----------------------------------------
 BYTE   GoTo
  POIN2 Label_01001D24
 BYTE   FINE

//******************************************************//
	ALIGN 4

UntamedGarden:
	BYTE	9	// NumTrks
	BYTE	0	// NumBlks
	BYTE	UntamedGarden_pri	// Priority
	BYTE	UntamedGarden_rev	// Reverb.
    
	POIN2	UntamedGarden_grp
    
	POIN2	UntamedGarden_001
	POIN2	UntamedGarden_002
	POIN2	UntamedGarden_003
	POIN2	UntamedGarden_004
	POIN2	UntamedGarden_005
	POIN2	UntamedGarden_006
	POIN2	UntamedGarden_007
	POIN2	UntamedGarden_008
	POIN2	UntamedGarden_009

	
